<?xml version="1.0" encoding="utf-8"?>
<!-- Generator: Adobe Illustrator 26.2.1, SVG Export Plug-In . SVG Version: 6.00 Build 0)  -->
<svg version="1.1" id="Laag_1" xmlns="http://www.w3.org/2000/svg" xmlns:xlink="http://www.w3.org/1999/xlink" x="0px" y="0px"
	 viewBox="0 0 301 301.6" style="enable-background:new 0 0 301 301.6;" xml:space="preserve">
<style type="text/css">
	.st0{fill:#E0CAB6;}
	.st1{fill:#259631;}
	.st2{fill:#27A737;}
	.st3{opacity:0.2;fill:#231F20;enable-background:new    ;}
	.st4{fill:#F05A24;}
	.st5{fill:#FFFFFF;}
	.st6{fill:#D94721;}
	.st7{fill:#4D2B74;}
	.st8{fill:#351454;}
	.st9{fill:#E6E7E8;}
	.st10{fill:#F79420;}
	.st11{fill:#E5801F;}
</style>
<g>
	<circle class="st0" cx="150.5" cy="150.8" r="150.5"/>
	<circle class="st1" cx="150.5" cy="150.8" r="150.5"/>
	<path class="st2" d="M256.9,44.4c-58.8-58.8-154-58.8-212.8,0l212.8,212.8C315.6,198.4,315.6,103.2,256.9,44.4z"/>
	<path class="st3" d="M274.5,118.1L207,100.9c-4-1-8.1,1.4-9.1,5.4l-19.3,76.5l0.1,0.1l-6.2,25.2c-0.6,2.6,0.9,5.3,3.5,5.9l32.6,8.3
		l37.1,9.4c4,1,8-1.4,9.1-5.4L280,127C280.9,123.1,278.5,119.1,274.5,118.1L274.5,118.1z"/>
	<path class="st4" d="M270.1,113.8l-63.8-16.2c-5-1.3-10.1,1.8-11.4,6.8l-23.8,93.8l13.7,15l56.5,14.3c5,1.3,10.1-1.8,11.4-6.8
		l24.3-95.6C278.2,120.2,275.2,115.1,270.1,113.8z"/>
	<g>
		<path class="st5" d="M231.9,128.3l-9.4,9.5l-8.6-7.8l0.6,16.2l-0.5,2.1c0,0,5.6-1.2,13,0.5s11.9,5.3,11.9,5.3l0.5-2.1l7.7-14.3
			l-11.1,3.2L231.9,128.3z M237.3,150c0,0-4.6-2.9-9.6-4.1s-10.4-0.6-10.4-0.6l-0.3-8.7l5.6,5.1l8-8.2l3.6,10.9l7.2-2.1L237.3,150z"
			/>
		<path class="st5" d="M235.9,175.6c-2.2-1.1-4.3-2.1-2.8-3.8c4.7-5.4,3-9.2-0.4-10c-2.3-0.5-4.5,0.5-5.1,3.3
			c-1.6,6.9,3,4.4,1.5,12.2c0,0.2-1.9,6.5-2.5,8.6c3.2-0.3,7.1-1.6,9.9-3.4l0.8-3.3C237.7,177.6,237.8,176.6,235.9,175.6z
			 M231.1,170.1c-0.1,0.1-0.1,0.1-0.2,0.2c-0.2-0.3-0.3-0.6-0.5-0.9c-0.6-0.9-0.9-1.4-0.3-3.7c0.3-1.2,0.9-1.6,2-1.4
			c0.4,0.1,1,0.3,1.2,0.9C233.6,166,233.2,167.8,231.1,170.1z M234.3,180.9c-1.2,0.7-2.6,1.2-4,1.7c0.1-0.3,0.2-0.6,0.2-0.9
			c1.1-3.7,1.1-3.8,1.1-3.9c0.1-0.5,0.2-1,0.2-1.5c0.8,0.6,1.8,1.1,2.8,1.6h0.1c0.1,0,0.1,0.1,0.2,0.1c0,0.2-0.1,0.4-0.1,0.7
			L234.3,180.9z"/>
		<path class="st5" d="M224.5,171.5c-3-1.5-5.7-2.8-3.7-5.1c6.2-7.1,4.1-12.2-0.5-13.3s-8.8,2.7-6.3,11.7c0.8,3-2.3,3-5.6,3
			c-2.9,0-3.4,1.3-3.9,3.6l-0.5,4.1c4.3,6.4,10.3,9.1,14.7,10.1c2,0.5,3.7,0.6,4.9,0.6c0.5-1.8,2.9-9.6,2.9-9.6
			C226.9,174.2,227.1,172.8,224.5,171.5L224.5,171.5z M221.6,183.4c-0.7-0.1-1.5-0.2-2.4-0.4c-3.6-0.8-8.7-3-12.6-8.3l0.4-2.9
			c0.2-0.7,0.3-1.2,0.4-1.4c0.1,0,0.3-0.1,0.9-0.1h0.2c2.8,0,5.7,0,7.3-2c0.6-0.8,1.2-2.1,0.6-4.2c-1-3.6-0.8-6.6,0.5-7.9
			c0.8-0.9,2-0.8,2.8-0.6s1.9,0.6,2.2,1.8c0.6,1.7-0.6,4.5-3.1,7.3c-1.4,1.6-1.4,3.1-1.3,4c0.5,2.5,3.1,3.8,5.7,5.1l0.1,0.1
			c0.5,0.3,0.7,0.4,0.8,0.5c0,0.2-0.1,0.7-0.2,1.5C223.7,176.4,222.4,180.7,221.6,183.4L221.6,183.4z"/>
		<path class="st5" d="M199.7,144.2l1.9-1.8l7.3,7.7l-1.9,1.8L199.7,144.2z"/>
		<path class="st5" d="M197.1,156.2l0.8-2.5l6.5,2l-0.8,2.5L197.1,156.2z"/>
		<path class="st5" d="M242.9,158l10-3.6l0.9,2.4l-10,3.6L242.9,158z"/>
		<path class="st5" d="M243.9,167.6l0.4-2.6l6.7,1.1l-0.4,2.6L243.9,167.6z"/>
	</g>
	<path class="st6" d="M175.9,179l-3.6,14l-2.9,11.1c-0.7,2.8,1,5.7,3.8,6.4l14.3,3.7l5.1,1.3l6.6,1.7l45.9,11.7
		c2.7,0.7,5.5-1,6.2-3.7l7.4-29.1L175.9,179z"/>
	<path class="st3" d="M190.8,72.9h-77c-4.6,0-8.2,3.7-8.2,8.2l0.1,56.5l18.7,64.9h66.4c4.5,0,8.2-3.7,8.2-8.2V81.1
		C199,76.5,195.3,72.9,190.8,72.9L190.8,72.9z"/>
	<path class="st7" d="M185.4,69.6h-72.8c-5.7,0-10.3,4.6-10.3,10.3v55.8l20.7,63.5h62.4c5.7,0,10.3-4.6,10.3-10.3v-109
		C195.8,74.2,191.1,69.6,185.4,69.6z"/>
	<path class="st8" d="M127.2,199.2h62.9c3.1,0,5.6-2.5,5.6-5.6v-33.1l-94.9,4.2L127.2,199.2z"/>
	<path class="st5" d="M164.4,100.2h-28.7c-2.1,0-3.8,1.7-3.8,3.8v38.9c0,2.1,1.7,3.8,3.8,3.8h28.7c2.1,0,3.8-1.7,3.8-3.8V104
		C168.2,101.9,166.5,100.2,164.4,100.2z M149.9,144.3c-1.1,0-2-0.9-2-2s0.9-2,2-2s2,0.9,2,2S151,144.3,149.9,144.3z M164.4,138.1
		h-28.7v-33.5h28.7V138.1z"/>
	<path class="st5" d="M157.4,118.2l-2.2-2.2l-6.9,7l-3.2-3l-2.3,2.2l5.5,5.4L157.4,118.2z"/>
	<path class="st9" d="M168.2,125.9V104c0-2.1-1.7-3.8-3.8-3.8h-28.5l3.9,4.4h24.7v17.8L168.2,125.9z"/>
	<path class="st3" d="M96.4,98l-66.6,20.6c-3.9,1.2-6.1,5.4-4.9,9.3l30.3,97.8c1.2,3.9,5.4,6.1,9.3,4.9l66.4-20.5
		c3.9-1.2,6.1-5.4,4.9-9.3l-30.2-97.9C104.5,99,100.3,96.8,96.4,98L96.4,98z"/>
	<path class="st10" d="M91.6,96.3l-64.8,20c-4.4,1.4-6.9,6-5.5,10.5L51,222.9c1.4,4.4,6,6.9,10.5,5.5l64.8-20
		c4.4-1.4,6.9-6,5.5-10.5l-29.7-96.1C100.7,97.4,96,94.9,91.6,96.3z"/>
	<path class="st11" d="M44.1,201.3l7.7,25c0.8,2.7,3.7,4.2,6.4,3.4l71-21.9c2.7-0.8,4.2-3.7,3.4-6.4l-8.8-28.7L44.1,201.3z"/>
	<path class="st5" d="M71.5,169.8l3.1-3l-2.3-7.7l5-1.6l-11-11.5l-2.7,15.8l5-1.5L71.5,169.8z"/>
	<path class="st5" d="M80.2,133.2l-2.7,15.9l5-1.6l2.4,8c0.7,2.5,0.1,5.2-1.6,7l-6.9,8.5c-2.1,2.3-2.9,5.6-1.9,8.6l1.5,5.1
		c0.3,1,1.4,1.6,2.4,1.3s1.6-1.4,1.3-2.5l-1.5-5.1c-0.5-1.7-0.1-3.5,1.1-4.8l6.9-8.5c2.7-2.9,3.6-7.1,2.5-10.9l-2.4-8l5-1.6
		L80.2,133.2z"/>
</g>
</svg>
