<?xml version="1.0" encoding="utf-8"?>
<!-- Generator: Adobe Illustrator 26.3.1, SVG Export Plug-In . SVG Version: 6.00 Build 0)  -->
<svg version="1.1" id="Layer_1" xmlns="http://www.w3.org/2000/svg" xmlns:xlink="http://www.w3.org/1999/xlink" x="0px" y="0px"
	 viewBox="0 0 507.9 507.9" style="enable-background:new 0 0 507.9 507.9;" xml:space="preserve">
<style type="text/css">
	.st0{fill:#00A39C;}
	.st1{fill:#009F9C;}
	.st2{fill:#00ABA8;}
	.st3{opacity:0.3;fill:#213A38;}
	.st4{fill:#FFFFFF;}
	.st5{fill:#838587;}
	.st6{fill:#D8DADA;}
	.st7{fill:#0090D0;}
	.st8{clip-path:url(#SVGID_00000004522936571321766990000005827104684574732687_);}
	.st9{clip-path:url(#SVGID_00000004522936571321766990000005827104684574732687_);fill:#B6B6B6;}
	.st10{clip-path:url(#SVGID_00000004522936571321766990000005827104684574732687_);fill:#003F4D;}
	.st11{clip-path:url(#SVGID_00000004522936571321766990000005827104684574732687_);fill:#D3D3D3;}
	.st12{clip-path:url(#SVGID_00000004522936571321766990000005827104684574732687_);fill:#FFFFFF;}
	.st13{clip-path:url(#SVGID_00000139277162108693025260000014732870594337289640_);fill:#FFFFFF;}
	.st14{clip-path:url(#SVGID_00000178204622283375052060000012123031821242685088_);fill:#FFFFFF;}
	.st15{fill:#002F3E;}
	.st16{clip-path:url(#SVGID_00000013890559746671757430000002207497979313051044_);fill:#404040;}
	.st17{clip-path:url(#SVGID_00000013890559746671757430000002207497979313051044_);fill:#DDDDDD;}
	.st18{fill:#B6B6B6;}
	.st19{fill:#E7D8C7;}
	.st20{fill:#C32B78;}
	.st21{fill:#C6236E;}
	.st22{fill:#F49400;}
	.st23{fill:#E08900;}
	.st24{fill:#B3C1C9;}
	.st25{fill:#0086C1;}
</style>
<g id="Layer_3">
</g>
<g id="Layer_5">
</g>
<g>
	<g>
		<g>
			<circle class="st0" cx="253.6" cy="253.7" r="252.6"/>
		</g>
		<circle class="st1" cx="253.6" cy="253.7" r="252.6"/>
	</g>
	<path class="st2" d="M432.2,75c-98.7-98.7-258.6-98.7-357.3,0l357.3,357.3C530.9,333.7,530.9,173.7,432.2,75z"/>
</g>
<rect x="130" y="96.8" class="st3" width="232" height="284.8"/>
<rect x="138.7" y="104.8" class="st4" width="232" height="283.5"/>
<rect x="169.8" y="142.5" class="st5" width="85.8" height="8.7"/>
<rect x="169.8" y="170.7" class="st6" width="170.7" height="8.7"/>
<rect x="169.8" y="194.1" class="st6" width="83.5" height="8.7"/>
<rect x="169.8" y="239.9" class="st6" width="83.5" height="8.7"/>
<rect x="169.8" y="217" class="st6" width="83.5" height="8.7"/>
<rect x="261.7" y="193.1" class="st7" width="78.7" height="55.5"/>
<rect x="168.7" y="335.9" class="st6" width="45.4" height="8.7"/>
<circle class="st7" cx="191.4" cy="308.4" r="13.8"/>
<rect x="231.9" y="335.9" class="st6" width="45.4" height="8.7"/>
<circle class="st7" cx="254.6" cy="308.4" r="13.8"/>
<rect x="295.1" y="335.9" class="st6" width="45.4" height="8.7"/>
<circle class="st7" cx="317.8" cy="308.4" r="13.8"/>
<rect x="169.8" y="262.1" class="st6" width="170.7" height="8.7"/>
<g>
	<defs>
		
			<rect id="SVGID_1_" x="255.3" y="319.8" transform="matrix(0.4994 -0.8664 0.8664 0.4994 -141.9875 487.9319)" width="191.7" height="94"/>
	</defs>
	<clipPath id="SVGID_00000038394506474915492020000010158233655521793174_">
		<use xlink:href="#SVGID_1_"  style="overflow:visible;"/>
	</clipPath>
	<path style="clip-path:url(#SVGID_00000038394506474915492020000010158233655521793174_);" d="M421.3,308.1c-3,1.8-5.9,3.7-8.9,5.5
		c-0.9-0.1-1.9-0.4-2.9-0.7c-1.6-0.5-3-1.1-4.1-1.7c-24.9,12.8-32.2,19.2-33.2,22.6c-0.1,0.3-0.8,2.7-2.8,5.1
		c-0.9,1.1-2.9,3.4-5.9,3.5c-1,0.1-1.8-0.2-2.3-0.3c-0.1-0.3-0.1-0.6-0.1-1c0-1,0.5-1.7,0.8-2c5.7-5.4,12.7-11.3,21-17
		c12.9-8.9,25.2-14.8,35.4-18.8c0.4,0.1,1.2,0.4,1.9,1.1C421.7,305.7,421.3,307.9,421.3,308.1"/>
	<path style="clip-path:url(#SVGID_00000038394506474915492020000010158233655521793174_);fill:#B6B6B6;" d="M361.2,342.2
		L361.2,342.2c0.9,0.3,1.7,0.4,2.5,0.4c3.1-0.2,5.1-2.6,6-3.6c1.8-2.1,2.5-4.3,2.8-5.1c1.3-4.3,12.4-11.9,33.1-22.5
		c1.3,0.7,2.6,1.3,4,1.7c1,0.3,1.9,0.5,2.9,0.7l0.1,0l0,0l8.9-5.5l0-0.1c0-0.2,0.4-2.5-1.1-4c-0.7-0.7-1.4-1-2-1.1l0,0l0,0
		c-12.5,4.9-24.4,11.2-35.5,18.8c-7.4,5.1-14.5,10.8-21,17c-0.4,0.5-0.8,1.2-0.8,2.2C361,341.4,361.1,341.8,361.2,342.2L361.2,342.2
		z"/>
	<path style="clip-path:url(#SVGID_00000038394506474915492020000010158233655521793174_);fill:#003F4D;" d="M342.8,359.1l10.6,15.4
		l77.2-53.1c3.9-2.7,4.9-8,2.2-11.9l-0.9-1.3c-2.7-3.9-8-4.9-11.9-2.2L342.8,359.1z"/>
	<path style="clip-path:url(#SVGID_00000038394506474915492020000010158233655521793174_);" d="M343.2,358.9c0,0-28.9,20-38.9,26.9
		c-10,6.9-18.8,15-18.8,15l8.9,12.5c0,0,11.1-5.6,20.8-12.4c9.7-6.7,38.8-26.8,38.8-26.8L343.2,358.9z"/>
	<path style="clip-path:url(#SVGID_00000038394506474915492020000010158233655521793174_);" d="M262.8,426.5
		c0.3,0.5,2.6-0.3,5.4-1.9c0.3-0.1,0.4-0.4,0.3-0.6l-1.3-1.9c-0.1-0.2-0.5-0.1-0.7,0.1C264,424.2,262.5,426,262.8,426.5"/>
	<path style="clip-path:url(#SVGID_00000038394506474915492020000010158233655521793174_);fill:#D3D3D3;" d="M293.8,412.7
		c-2.7-3.9-5.4-7.8-8.1-11.7c-1.5,1.3-2.9,2.6-4.4,3.9l-0.4,0.9c-5.2,5.6-10.4,11.3-15.6,16.9c0.6,0.9,1.2,1.8,1.9,2.7l21.1-10
		l0.9,0C290.8,414.5,292.3,413.6,293.8,412.7"/>
	<path style="clip-path:url(#SVGID_00000038394506474915492020000010158233655521793174_);fill:#FFFFFF;" d="M437.3,307.5
		c0,0.1,0.1,0.2,0.1,0.3C437.4,307.7,437.3,307.6,437.3,307.5 M437.4,307.8c0,0.1,0,0.1,0.1,0.2C437.4,308,437.4,307.9,437.4,307.8"
		/>
	<path style="clip-path:url(#SVGID_00000038394506474915492020000010158233655521793174_);fill:#FFFFFF;" d="M437.1,307
		c0,0.1,0.1,0.2,0.1,0.3C437.2,307.2,437.1,307.1,437.1,307 M437.2,307.3c0,0.1,0.1,0.1,0.1,0.2
		C437.3,307.4,437.2,307.4,437.2,307.3"/>
</g>
<path class="st4" d="M435.6,305L435.6,305L435.6,305z"/>
<path class="st4" d="M436,305.4L436,305.4L436,305.4z"/>
<g>
	<defs>
		
			<rect id="SVGID_00000077287102743607797330000005219596668322163882_" x="255.3" y="319.8" transform="matrix(0.4994 -0.8664 0.8664 0.4994 -141.9875 487.9319)" width="191.7" height="94"/>
	</defs>
	<clipPath id="SVGID_00000164503298106328829890000005137095149098334895_">
		<use xlink:href="#SVGID_00000077287102743607797330000005219596668322163882_"  style="overflow:visible;"/>
	</clipPath>
	<path style="clip-path:url(#SVGID_00000164503298106328829890000005137095149098334895_);fill:#FFFFFF;" d="M436.8,306.5
		L436.8,306.5c0.1,0.1,0.1,0.2,0.2,0.3C436.9,306.7,436.8,306.6,436.8,306.5 M436.9,306.8c0,0.1,0.1,0.1,0.1,0.2
		C437,306.9,437,306.9,436.9,306.8"/>
</g>
<path class="st4" d="M434.8,304.4L434.8,304.4L434.8,304.4z"/>
<g>
	<defs>
		
			<rect id="SVGID_00000093894334961113359610000013866037473794821506_" x="255.3" y="319.8" transform="matrix(0.4994 -0.8664 0.8664 0.4994 -141.9875 487.9319)" width="191.7" height="94"/>
	</defs>
	<clipPath id="SVGID_00000131365552097579236010000011594906218369982624_">
		<use xlink:href="#SVGID_00000093894334961113359610000013866037473794821506_"  style="overflow:visible;"/>
	</clipPath>
	<path style="clip-path:url(#SVGID_00000131365552097579236010000011594906218369982624_);fill:#FFFFFF;" d="M434.4,304.1
		L434.4,304.1L434.4,304.1z"/>
	<path style="clip-path:url(#SVGID_00000131365552097579236010000011594906218369982624_);fill:#FFFFFF;" d="M292.4,410.5
		L292.4,410.5c-1.1-1.4-2.1-2.9-3.1-4.3L292.4,410.5z M274.3,413.1c-3,3.2-5.9,6.4-8.9,9.6c0.1,0.1,0.1,0.2,0.2,0.3
		c-0.1-0.2-0.2-0.3-0.2-0.3C267.7,420.2,271.9,415.7,274.3,413.1 M267.1,425.2c0.1,0.1,0.1,0.2,0.2,0.3
		C267.3,425.4,267.2,425.3,267.1,425.2z"/>
</g>
<polygon class="st15" points="429.6,306.9 433.9,313.1 351.2,370.1 346.5,363.6 "/>
<g>
	<defs>
		
			<rect id="SVGID_00000011015582267460402350000017423911859071985815_" x="255.3" y="319.8" transform="matrix(0.4994 -0.8664 0.8664 0.4994 -141.9875 487.9319)" width="191.7" height="94"/>
	</defs>
	<clipPath id="SVGID_00000070830663519634211940000003795547873370968195_">
		<use xlink:href="#SVGID_00000011015582267460402350000017423911859071985815_"  style="overflow:visible;"/>
	</clipPath>
	<path style="clip-path:url(#SVGID_00000070830663519634211940000003795547873370968195_);fill:#404040;" d="M265.6,423
		c0.5,0.7,1,1.5,1.5,2.2C266.7,424.6,266,423.5,265.6,423z"/>
	<path style="clip-path:url(#SVGID_00000070830663519634211940000003795547873370968195_);fill:#DDDDDD;" d="M287.7,403.9
		c0.5,0.8,1.1,1.5,1.6,2.3c1,1.5,2,2.9,3,4.4l-0.9,0.6l-13.1,9l-11.1,5.2c-0.1-0.1-0.1-0.2-0.2-0.3c-0.5-0.7-1-1.5-1.5-2.2
		c-0.1-0.1-0.1-0.2-0.2-0.3c3-3.2,5.9-6.4,8.9-9.6c0,0,0.1-0.1,0.1-0.1L287.7,403.9z"/>
</g>
<path class="st4" d="M437.5,308L437.5,308L437.5,308z"/>
<path class="st4" d="M437.1,307L437.1,307L437.1,307z"/>
<path class="st4" d="M437.3,307.5L437.3,307.5L437.3,307.5z"/>
<path class="st4" d="M434.4,304.1c-0.2-0.1-0.3-0.1-0.5-0.2l0,0C434.1,304,434.2,304,434.4,304.1"/>
<path class="st4" d="M434.8,304.4c-0.1,0-0.1-0.1-0.2-0.1C434.6,304.3,434.7,304.3,434.8,304.4 M434.6,304.2c-0.1,0-0.1-0.1-0.2-0.1
	C434.4,304.2,434.5,304.2,434.6,304.2"/>
<path class="st4" d="M435.6,305c-0.2-0.2-0.4-0.4-0.7-0.5C435.1,304.6,435.4,304.8,435.6,305 M434.9,304.4c0,0-0.1,0-0.1-0.1
	C434.8,304.4,434.9,304.4,434.9,304.4"/>
<path class="st4" d="M435.9,305.3c-0.1-0.1-0.1-0.1-0.2-0.2C435.8,305.2,435.9,305.3,435.9,305.3 M435.7,305.2c0,0-0.1-0.1-0.1-0.1
	C435.7,305.1,435.7,305.1,435.7,305.2"/>
<path class="st18" d="M428.3,305l6.2,9l1-0.7c2.2-1.5,2.8-4.6,1.3-6.8l-0.5-0.7c-1.6-2.3-4.8-2.9-7.2-1.3L428.3,305z"/>
<polygon class="st19" points="333.7,431.6 334.4,450.1 346.6,436.1 "/>
<polygon class="st15" points="334.1,442.1 334.4,450.1 339.7,444.1 "/>
<path class="st20" d="M401.4,280.3c-1.4,3.9-5.4,6.1-8.9,4.8c-3.6-1.3-5.3-5.4-3.9-9.4l5.6-16c1.4-3.9,5.4-6.1,8.9-4.8
	c3.6,1.3,5.3,5.4,3.9,9.4L401.4,280.3z"/>
<path class="st21" d="M405,267.1c-1.7,0.4-3.3-0.1-5.8-1.5c-2.1-1.1-0.5-4.9,0.4-6.8c0.7-1.5,1.8-3.2,3.4-3.9
	c-3.5-1.2-7.5,1-8.8,4.9l-5.6,16c-1.4,3.9,0.4,8.1,3.9,9.4c3.6,1.3,7.6-0.9,8.9-4.8l5-14.2C406,266.4,405.6,266.9,405,267.1z"/>
<rect x="280.5" y="352" transform="matrix(0.3321 -0.9432 0.9432 0.3321 -91.5403 579.3047)" class="st22" width="165.5" height="4.6"/>
<rect x="284.8" y="353.5" transform="matrix(0.3321 -0.9433 0.9433 0.3321 -90.0814 584.3998)" class="st23" width="165.5" height="4.6"/>
<rect x="289.1" y="355" transform="matrix(0.3321 -0.9432 0.9432 0.3321 -88.655 589.4302)" class="st22" width="165.5" height="4.6"/>
<rect x="392.1" y="266.7" transform="matrix(0.3321 -0.9433 0.9433 0.3321 6.9058 556.7443)" class="st24" width="9" height="13.7"/>
<polygon class="st22" points="333.7,431.6 334.4,436.3 338,433.1 "/>
<polygon class="st23" points="338,433.1 338.7,437.8 342.3,434.6 "/>
<polygon class="st22" points="342.3,434.6 343,439.4 346.6,436.1 "/>
<path class="st19" d="M42.5,292.6l185.3,154.6l21.1-25.2L63.6,267.4L42.5,292.6z M66,290.8c-1.4,1.7-4,1.9-5.7,0.5
	c-1.7-1.4-1.9-4-0.5-5.7c1.4-1.7,4-1.9,5.7-0.5C67.2,286.5,67.4,289.1,66,290.8z"/>
<path class="st15" d="M81.5,303.4c-0.4,0.5-0.4,1.3,0.2,1.7c0.5,0.4,1.3,0.4,1.7-0.2l10.4-12.5l-1.8-1.5L81.5,303.4z"/>
<path class="st15" d="M101,311.4c-0.4,0.5-0.4,1.3,0.2,1.7c0.5,0.4,1.3,0.4,1.7-0.2l6.3-7.5l-1.8-1.5L101,311.4z"/>
<path class="st15" d="M112.3,329.2c-0.4,0.5-0.4,1.3,0.2,1.7c0.5,0.4,1.3,0.4,1.7-0.2l10.4-12.5l-1.8-1.5L112.3,329.2z"/>
<path class="st15" d="M131.9,337.1c-0.4,0.5-0.4,1.3,0.2,1.7c0.5,0.4,1.3,0.4,1.7-0.2l6.3-7.5l-1.8-1.5L131.9,337.1z"/>
<path class="st15" d="M143.2,354.9c-0.4,0.5-0.4,1.3,0.2,1.7c0.5,0.4,1.3,0.4,1.7-0.2l10.4-12.5l-1.8-1.5L143.2,354.9z"/>
<path class="st15" d="M162.7,362.9c-0.4,0.5-0.4,1.3,0.2,1.7c0.5,0.4,1.3,0.4,1.7-0.2l6.3-7.5l-1.8-1.5L162.7,362.9z"/>
<path class="st15" d="M174,380.7c-0.4,0.5-0.4,1.3,0.2,1.7c0.5,0.4,1.3,0.4,1.7-0.2l10.4-12.5l-1.8-1.5L174,380.7z"/>
<path class="st15" d="M193.6,388.7c-0.4,0.5-0.4,1.3,0.2,1.7c0.5,0.4,1.3,0.4,1.7-0.2l6.3-7.5l-1.8-1.5L193.6,388.7z"/>
<path class="st15" d="M224.6,414.5c-0.4,0.5-0.4,1.3,0.2,1.7c0.5,0.4,1.3,0.4,1.7-0.2l6.3-7.5l-1.8-1.5L224.6,414.5z"/>
<path class="st15" d="M205,406.5c-0.4,0.5-0.4,1.3,0.2,1.7c0.5,0.4,1.3,0.4,1.7-0.2l10.4-12.5l-1.8-1.5L205,406.5z"/>
<polygon class="st25" points="261.7,248.6 340.4,248.6 340.4,217 327.4,204.7 307.2,230.1 281.8,214.6 261.7,234.9 "/>
</svg>
