<?xml version="1.0" encoding="utf-8"?>
<!-- Generator: Adobe Illustrator 26.5.0, SVG Export Plug-In . SVG Version: 6.00 Build 0)  -->
<svg version="1.1" id="_x2014_ÎÓÈ_x5F_1" xmlns="http://www.w3.org/2000/svg" xmlns:xlink="http://www.w3.org/1999/xlink"
	 x="0px" y="0px" viewBox="0 0 1231.8 1240.6" style="enable-background:new 0 0 1231.8 1240.6;" xml:space="preserve">
<style type="text/css">
	.st0{fill:#BA4F0C;}
	.st1{fill:#AA450C;}
	.st2{fill:url(#SVGID_1_);}
	.st3{fill:#F49400;}
	.st4{fill:#D4D4D6;}
	.st5{fill:none;stroke:#FFFFFF;stroke-width:1.0189;stroke-miterlimit:10;}
	.st6{fill:#013F4D;}
	.st7{fill:#012F3D;}
	.st8{fill:#FBDED8;}
	.st9{fill:#0090D0;}
	.st10{fill:#271F12;}
	.st11{fill:#FFFFFF;}
	.st12{fill:#F3A6B8;}
	.st13{fill:#ECC766;}
	.st14{fill:#C5A856;}
	.st15{fill:#EDDF88;}
	.st16{fill:#F49B21;}
	.st17{fill:none;stroke:#FFFFFF;stroke-width:3;stroke-miterlimit:10;}
	.st18{fill:#27A737;}
	.st19{fill:#009E9B;}
	.st20{fill:#4C266C;}
	.st21{fill:#EA5B27;}
	.st22{fill:url(#SVGID_00000008120802083528093440000015314573844255415982_);}
</style>
<g>
	<path class="st0" d="M855.2,43H377.1c-46.6,0-89.7,24.9-108,65.2L30,522.3c-28.3,40.4-28.3,90.1,0,130.5l239.1,414.1
		c18.3,40.4,61.4,65.2,108,65.2h478.1c46.6,0,89.7-24.9,113-65.2l239.1-414.1c23.3-40.4,23.3-90.1,0-130.5L968.2,108.3
		C944.9,67.9,901.8,43,855.2,43z"/>
	<path class="st1" d="M961.9,1076.1l144.6-250.4L183.2,261.8L21.5,533.2c-20,34.7-20,77.4,5,112.1l248.7,430.8
		c15,34.7,52,56,92.1,56h497.5C904.9,1132.1,941.9,1110.8,961.9,1076.1z"/>
	<ellipse transform="matrix(0.3959 -0.9183 0.9183 0.3959 -695.3047 947.6291)" cx="372.6" cy="1002.3" rx="16.3" ry="57.8"/>
	<ellipse transform="matrix(0.9183 -0.3959 0.3959 0.9183 -326.6321 421.9756)" cx="859" cy="1002.3" rx="57.8" ry="16.3"/>
	<linearGradient id="SVGID_1_" gradientUnits="userSpaceOnUse" x1="300.9664" y1="841.509" x2="935.1409" y2="841.509">
		<stop  offset="0" style="stop-color:#FBDED8"/>
		<stop  offset="1" style="stop-color:#ECC9C6"/>
	</linearGradient>
	<path class="st2" d="M818.6,792.2c0,0-3.7-7.6-56.1-25c-52.4-17.5-83.2-36.8-83.2-74c0-37.3,0-98.1,0-98.1h-63.1h-0.4h-0.6h-0.4
		h-63.1c0,0,0,60.9,0,98.1c0,37.3-30.8,56.6-83.2,74c-52.5,17.5-56.1,25-56.1,25L301,1084l92.9,4l38.8-127.1
		c0,0,25.4,28.1,42.6,123.8l285.8-1.6c17.3-95.7,37.2-122.2,37.2-122.2l51.2,126.2l85.6-3.4L818.6,792.2z"/>
	<path class="st3" d="M810.2,795.9c-4-3.1-80.9-45-80.9-45c-7.2,23.2-34.4,97.5-108.5,97.5c-74.1,0-123.3-43.4-128.8-87.7
		c0,0-75.9,24.5-79.9,27.6c-3.9,3-89.6,183.5-93,191.2c0.5-1,3.3-4.5,16.9-4c15.8,0.6,94.2,28.7,88.7,52.5l9.7-19.4l9.6,130.5
		l333.3-2l19.2-128.5l9.7,19.4c-5.5-23.8,72.9-51.9,88.7-52.5c13.6-0.5,16.4,3,16.9,4C908.5,971.8,814.1,798.9,810.2,795.9z"/>
	<g>
		<path class="st4" d="M617.2,839c-65.6-4.1-99.9-65.8-106.1-91.3l-20.1,12c17.8,46,47.8,99,126.2,100.3V839z"/>
		<path class="st5" d="M617.2,860"/>
		<path class="st4" d="M616.8,839c65.6-4.1,99.7-63.2,105.8-88.7l21.6,8.7c-17.8,46-49,99.8-127.4,101.1V839z"/>
	</g>
	<path class="st6" d="M687.1,1128.1c17.8-286.6,18.5-397.7,41.7-381.4c38.2,26.8,120.6,48.6,120.6,48.6l91.2,243.5l-101.9,48.3
		l-37.3-68l-2.3,109H687.1z"/>
	<path class="st7" d="M802.6,1019.3c1.2-19.8,2.8-39.5,4.9-59.1c2-19.7,4.3-39.2,7.4-58.6c1.6-9.7,3.3-19.3,5.4-28.7
		c2-9.5,4.1-18.8,6.4-28.1c1.1-4.6,2.4-9.2,3.8-13.6c1.3-4.5,2.9-8.8,4.6-13c3.5-8.3,7.8-16.2,14.4-20.4l-0.2-1
		c-3.7,0.7-7.4,3-10.5,6.1c-3.1,3.2-5.9,7.1-8.2,11.3c-4.8,8.4-8.2,17.8-11.1,27.3c-5.8,19.1-8.3,39.2-10.7,59
		c-2.4,19.8-4,39.7-5.2,59.5c-1,19.8-1.8,39.7-1.8,59.5L802.6,1019.3z"/>
	<path class="st7" d="M728.7,746.9l26.5,153.3l-29.8,9.2l29.8,37.6l-63.7,140h-15.5C693.1,812.4,707.2,739.9,728.7,746.9z"/>
	<path class="st6" d="M544.6,1088.1c-17.8-286.6-12.3-351.2-38.5-340.4c-39.1,16.1-123.8,47.6-123.8,47.6l-95,239.5l122,52.3l21-68
		l2.3,69H544.6z"/>
	<path class="st7" d="M429.2,1019.3c-1.2-19.8-2.8-39.5-4.9-59.1c-2-19.7-4.3-39.2-7.4-58.6c-1.6-9.7-3.3-19.3-5.4-28.7
		c-2-9.5-4.1-18.8-6.4-28.1c-1.1-4.6-2.4-9.2-3.8-13.6c-1.3-4.5-2.9-8.8-4.6-13c-3.5-8.3-7.8-16.2-14.4-20.4l0.2-1
		c3.7,0.7,7.4,3,10.5,6.1c3.1,3.2,5.9,7.1,8.2,11.3c4.8,8.4,8.2,17.8,11.1,27.3c5.8,19.1,8.3,39.2,10.7,59c2.4,19.8,4,39.7,5.2,59.5
		c1,19.8,1.8,39.7,1.8,59.5L429.2,1019.3z"/>
	<path class="st7" d="M506,747.6l-23.6,145.6l29.8,9.2l-29.8,37.6l63.7,140h15.5C544.6,805.4,527.6,740.6,506,747.6z"/>
	<path class="st8" d="M837.5,340.9c0,173.9-61.7,315.9-220.2,315.9c-158.6,0-217.2-143.7-217.2-317.6
		c0-173.9,147.6-191.9,219.9-191.9S837.5,167,837.5,340.9z"/>
	<path class="st9" d="M568,450.3c0,23.7-19.5,43-43.4,43c-24,0-43.4-19.2-43.4-43c0-23.7,19.4-43,43.4-43
		C548.5,407.3,568,426.5,568,450.3z"/>
	<path class="st10" d="M556.8,450.2c0,16.6-13.4,30-30,30c-16.6,0-30-13.4-30-30c0-16.5,13.4-30,30-30
		C543.3,420.3,556.8,433.7,556.8,450.2z"/>
	<path class="st11" d="M514.2,434.7c0,4.8-3.9,8.7-8.7,8.7c-4.8,0-8.7-3.9-8.7-8.7c0-4.8,3.9-8.7,8.7-8.7
		C510.3,426.1,514.2,429.9,514.2,434.7z"/>
	<path class="st12" d="M523.2,545.4c29.7,18,61.5,29.1,93.8,28.7c32.4,0,63.5-12.6,94.4-28.7c-11.4,13.4-25.5,24.5-41.6,32.5
		c-16.1,8.1-34.3,12.6-52.6,12.8c-18.3,0-36.7-4.1-52.8-12.1C548.1,570.8,533.5,559.7,523.2,545.4z"/>
	<path class="st9" d="M674.2,450.3c0,23.7,19.5,43,43.4,43c24,0,43.4-19.2,43.4-43c0-23.7-19.4-43-43.4-43
		C693.7,407.3,674.2,426.5,674.2,450.3z"/>
	<path class="st10" d="M685.4,450.2c0,16.6,13.4,30,30,30c16.6,0,30-13.4,30-30c0-16.5-13.4-30-30-30
		C698.8,420.3,685.4,433.7,685.4,450.2z"/>
	<path class="st11" d="M687.1,434.7c0,4.8,3.9,8.7,8.7,8.7c4.8,0,8.7-3.9,8.7-8.7c0-4.8-3.9-8.7-8.7-8.7
		C691,426.1,687.1,429.9,687.1,434.7z"/>
	<path class="st13" d="M494.6,222.4c0,0,19.3,58,109,65.1c89.7,7,160-10.5,195.2,7c35.2,17.6,22.9,188.1,22.9,188.1
		s35.2-131.9,29.9-191.6c-2.4-27.1-3.7-109.7-54.5-156.5c-61.1-56.2-163.5-63.3-196.9-58c-85.7,13.5-107.3,40.4-107.3,40.4
		s-35.5,2.2-45.7,10.5c-56.3,45.7-94.9,158.2-26.4,371C420.7,498.4,382,298,494.6,222.4z"/>
	<path class="st14" d="M800,286c-28.9-16.9-136.8-7.1-191.8-10.7c-55.1-3.6-104.8-26.6-101.2-95.9c0,0,17.8,35.5,55.1,35.5
		c0,0-23.1-16-48-76.4c0,0,58.6-48,195.4-1.8c0,0-90.6-67.5-222-14.2c0,0-16,56.8-44.4,87c-26.9,28.6-60.4,87-33,204.5
		c1.4-64.3,17-147.3,81-190.3c0,0,19.5,58.6,110.1,65.7s161.6-10.7,197.2,7.1c10.6,5.3,16.9,24.3,20.6,48.4c0.4-0.2,0.7-0.4,0.7-0.4
		S821.3,298.5,800,286z"/>
	<g>
		<path class="st15" d="M670.8,259.7c-4,0.3-8.1,0-12.1-0.1l-12.1-0.1c-4,0.1-8-0.4-12-0.6l-12-0.7c-4-0.3-7.9-0.9-11.9-1.3
			l-5.9-0.7c-1-0.1-2-0.2-3-0.4l-2.9-0.6l-11.7-2.2c-3.9-0.8-7.7-2.1-11.5-3c-3.9-0.9-7.6-2.3-11.3-3.7c-1.9-0.7-3.7-1.3-5.6-2.1
			l-5.4-2.5c-1.8-0.9-3.7-1.6-5.3-2.6l-5.1-3c-0.9-0.5-1.7-1-2.6-1.5l-2.4-1.7c-1.6-1.2-3.3-2.3-4.8-3.5l-4.5-3.9
			c-1.4-1.4-2.7-2.9-4.2-4.3c-2.5-3-5.2-6.2-6.9-9.8c1,4,3.2,7.6,5.4,11c1.2,1.7,2.4,3.4,3.7,5l4.2,4.6c6,5.7,12.6,10.9,20,14.7
			c14.6,8,30.6,12.9,46.9,15.6l3,0.6c1,0.1,2,0.2,3.1,0.3l6.1,0.6c4.1,0.4,8.2,1,12.3,1.1l12.3,0.2c4.1,0.1,8.2,0.3,12.3-0.1
			c8.2-0.5,16.3-0.8,24.4-1.9c8.1-1.2,16.1-2.4,24.1-3.9C687,259.3,678.9,259.5,670.8,259.7z"/>
		<path class="st15" d="M563.7,186.1c10,7.7,21.3,13.3,32.8,17.7c11.6,4.4,23.5,7.7,35.6,10c12.1,2.4,24.2,4.1,36.4,4.7
			c-12.1-1.8-24.1-4.2-35.8-7.4c-11.7-3.2-23.3-6.9-34.4-11.7c-11-4.8-21.7-10.5-30.8-18.1c-6.8-5.5-12.6-12.1-16.6-19.6l41.4,20.9
			l23.5,11.9l-19.5-17.7L575,157.4c-6-5.5-12.1-10.9-18.1-16.4c0.8-0.4,1.7-0.8,2.6-1.1c2.3-0.9,4.7-1.6,7.1-2.2
			c2.4-0.6,4.9-1.1,7.4-1.5c2.5-0.5,5-0.7,7.6-1c10.2-1,20.5-0.9,30.8-0.3c5.2,0.3,10.3,0.9,15.5,1.4c5.1,0.7,10.3,1.2,15.4,2
			c5.1,0.9,10.3,1.6,15.4,2.6c5.1,1.1,10.2,2,15.3,3c-5-1.4-10-2.9-15-4.3c-5-1.4-10.1-2.5-15.2-3.7c-5.1-1.2-10.3-2.1-15.4-3.1
			c-5.2-0.8-10.4-1.6-15.6-2.2c-10.4-1.2-21-1.6-31.6-1c-2.7,0.2-5.3,0.4-8,0.8c-2.7,0.3-5.3,0.8-8,1.4c-2.6,0.6-5.3,1.3-7.9,2.3
			c-1.3,0.4-2.6,1-3.9,1.6c-1.3,0.7-2.5,1.2-4,2.3l-3.1,2.2l2.9,2.7c7,6.6,14,13.2,21.1,19.7l2.8,2.6l-27.4-13.6l-7.3-3.6l2.6,7.7
			C545.1,168.1,553.7,178.4,563.7,186.1z"/>
	</g>
	<path class="st14" d="M767.7,115.4l-8.4-5l-4.2-2.5c-1.4-0.8-2.9-1.5-4.3-2.3l-8.7-4.5c-2.9-1.6-5.9-2.8-8.9-4.2
		c-3-1.3-5.9-2.8-9-4l-9.2-3.5c-3-1.2-6.2-2.2-9.3-3.2c-3.1-1-6.2-2.1-9.4-3c-6.4-1.7-12.7-3.5-19.2-4.7c-6.4-1.5-13-2.3-19.5-3.3
		c-6.6-0.7-13.1-1.5-19.7-1.6c-13.2-0.6-26.4-0.3-39.6,1.2c-13.1,1.5-26.1,4-38.9,7.4c-12.8,3.4-25.3,7.8-37.3,13.2
		c-11.7,5.3-23,11.1-33.8,18.5c-8.1-0.4-16.3,0.4-24.1,2.7c-8.3,2.3-15.9,6.4-22.7,11.4c-6.8,5-12.8,11-18,17.5
		c-5.2,6.5-9.7,13.5-13.7,20.7c-8,14.5-14,29.8-18.6,45.5c-4.6,15.7-8.2,31.7-10.2,47.9c3.2-16,7.5-31.7,12.9-47
		c5.5-15.2,11.9-30.2,20.1-44c4.1-6.9,8.7-13.5,13.8-19.6c5.2-6,11-11.5,17.4-16c6.4-4.5,13.4-8.1,20.9-10.1c7.5-2,15.3-2.6,23-2
		l1.2,0.1l1.1-0.7c10.3-7.1,22-13.1,33.7-18.2c11.8-5.2,24-9.4,36.3-12.8c12.4-3.4,25.1-5.9,37.8-7.4c12.8-1.7,25.7-2.2,38.5-1.8
		c6.4,0.1,12.9,0.7,19.3,1.2c6.4,0.8,12.8,1.5,19.1,2.8c6.4,1,12.6,2.6,18.9,4c3.1,0.8,6.2,1.7,9.3,2.6c3.1,0.9,6.2,1.7,9.3,2.8
		l9.2,3.1c3.1,1.1,6,2.4,9.1,3.5c3,1.2,6.1,2.3,9,3.7l8.9,4.1c1.5,0.7,3,1.3,4.4,2.1l4.3,2.3l8.7,4.5c5.7,3.1,11.3,6.5,17,9.7
		C778.6,122.6,773.2,118.8,767.7,115.4z"/>
	<path class="st15" d="M474.4,132.9c-3.8,0.7-6.9,1.9-10.1,3.2c-3.1,1.4-6.2,2.9-9.1,4.7c-3,1.7-5.7,3.7-8.5,5.7
		c-2.7,2-5.2,4.4-7.7,6.6c-9.8,9.4-17.4,20.7-23.4,32.7c-6.2,11.9-10.1,24.7-13.4,37.4c-1.3,6.5-2.5,13-3.6,19.4
		c-0.7,6.6-1.3,13.1-1.8,19.6c1.5-6.4,2.9-12.8,4.3-19.2c1.6-6.3,3.5-12.5,5.2-18.8l3.3-9.1c1.1-3,2-6.2,3.4-9.1l3.9-8.8l1-2.2
		l1.1-2.1l2.3-4.2c6.1-11.2,13.5-21.8,22.7-30.4l3.6-3.1c1.2-1,2.3-2.2,3.6-3c2.5-1.9,5-3.8,7.7-5.3c2.6-1.7,5.4-3.1,8.2-4.4
		c0.7-0.3,1.4-0.6,2.1-0.9c-1.9,4.7-3.9,9.3-6.2,13.8c-3.2,6.7-6.9,13.1-10.8,19.5c-3.9,6.4-8.1,12.5-12.6,18.5
		c-4.5,6-9.2,11.9-14.3,17.4c5.9-4.7,11.3-10,16.4-15.7c5.1-5.6,9.9-11.5,14.3-17.7c4.5-6.2,8.5-12.6,12.2-19.3
		c3.8-6.6,6.9-13.7,9.9-20.7l2.4-5.7L474.4,132.9z"/>
	<path class="st16" d="M577.5,730.9"/>
	<path class="st17" d="M503,847"/>
	<path class="st6" d="M925.2,1006.3c0,0,58.3,99.7,20.9,120.5c-37.4,20.9-159.1,63.7-159.1,63.7l1.5-86.6l41.5-40L925.2,1006.3z"/>
	<path class="st18" d="M629.9,1101.1l-66.4,29.3c-11.3,5-24.7-0.2-29.7-11.5l-56-127c-5-11.3,0.2-24.7,11.5-29.7l66.4-29.3
		c11.3-5,24.7,0.2,29.7,11.5l56,127C646.4,1082.8,641.2,1096.1,629.9,1101.1z"/>
	<path class="st19" d="M642.3,1071.4l-70.3,18c-12,3.1-24.3-4.2-27.4-16.2l-34.4-134.4c-3.1-12,4.2-24.3,16.2-27.4l70.3-18
		c12-3.1,24.3,4.2,27.4,16.2l34.4,134.4C661.6,1056,654.3,1068.4,642.3,1071.4z"/>
	<path class="st9" d="M696.6,1083.2l-72.3-6c-12.3-1-21.6-11.9-20.6-24.3l11.4-138.3c1-12.3,11.9-21.6,24.3-20.6l72.3,6
		c12.3,1,21.6,11.9,20.6,24.3l-11.4,138.3C719.9,1075,708.9,1084.2,696.6,1083.2z"/>
	<path class="st20" d="M752.3,1106.8l-72.5-3.2c-12.4-0.5-22-11.1-21.5-23.5l6.1-138.6c0.5-12.4,11.1-22,23.5-21.5l72.5,3.2
		c12.4,0.5,22,11.1,21.5,23.5l-6.1,138.6C775.2,1097.7,764.7,1107.3,752.3,1106.8z"/>
	<path class="st21" d="M672.1,1093.9l-72.6-1.1c-12.4-0.2-22.3-10.5-22.2-22.8l2-138.7c0.2-12.4,10.5-22.3,22.8-22.2l72.6,1.1
		c12.4,0.2,22.3,10.5,22.2,22.8l-2,138.7C694.7,1084.1,684.5,1094.1,672.1,1093.9z"/>
	<path class="st3" d="M703.1,1156.4l-62.9-36.3c-10.7-6.2-14.4-20-8.2-30.7l74.1-128.4c6.2-10.7,20-14.4,30.7-8.2l62.9,36.3
		c10.7,6.2,14.4,20,8.2,30.7l-74.1,128.4C727.7,1158.8,713.8,1162.5,703.1,1156.4z"/>
	<path class="st8" d="M814.5,1152.6c-5.9-22.1-28.5-66.3-42.8-71.7c-14.3-5.4-108.1-41.8-115.5-31c-7.4,10.8,2.5,16.2,24.6,25.1
		c22.1,8.8,59,32.9,59,32.9l-91.9-28c0,0-14.7-2.9-18.2,7.4c-3.4,10.3,21.7,20.6,21.7,20.6l37,16.1c-24.4-10.1-59.8-23-61.5-13.9
		c-0.8,4.5,1.6,9.3,5.4,13.7l21.5,13.4l37.4,19.4l-37.4-15.7c0,0,68.3,52.6,80.6,54.6c12.3,2,32,3.9,41.8,0
		c9.8-3.9,21.1-6.4,28.5-6.9C812,1188,820.4,1174.7,814.5,1152.6z"/>
	<path class="st6" d="M298.3,1016.1c0,0-48.7,68.1-11.4,89s191.1,76.3,191.1,76.3l-1.5-86.6l-90.2-73.3L298.3,1016.1z"/>
	
		<linearGradient id="SVGID_00000020399988192780075190000002128931022049005713_" gradientUnits="userSpaceOnUse" x1="454.7508" y1="1143.0039" x2="541.2518" y2="1143.0039">
		<stop  offset="0" style="stop-color:#FBDED8"/>
		<stop  offset="1" style="stop-color:#ECC9C6"/>
	</linearGradient>
	<circle style="fill:url(#SVGID_00000020399988192780075190000002128931022049005713_);" cx="498" cy="1143" r="43.3"/>
	<path class="st8" d="M535.5,1085.6c0,0,25.7-0.5,38.3,4.2s32,8.9,37.2,5.2c5.2-3.7,11-17.3,0-22.5c-11-5.2-63.4-23.6-75.5-23.6
		c-12.1,0-48.2-8.4-52.9,0s-3.7,28.3-6.3,33c-2.6,4.7-11.5,6.8-11,17.3c0.5,10.5,5.8,22,4.2,27.8c-1.6,5.8-1.6,10,2.6,17.3
		c4.2,7.3,0,16.3,6.8,23.1c6.8,6.8,14.2,20.4,50.3,14.2c36.2-6.3,58.7-19.4,58.7-19.4l-54-1.6c0,0,79.2,0,86.5-6.8s11.5-22-5.2-22.5
		c-16.8-0.5-83.4-10.5-83.4-10.5s90.2,16.3,92.3,8.4s1-19.9-23.1-26.2S535.5,1085.6,535.5,1085.6z"/>
</g>
</svg>
