<?xml version="1.0" encoding="utf-8"?>
<!-- Generator: Adobe Illustrator 27.1.0, SVG Export Plug-In . SVG Version: 6.00 Build 0)  -->
<svg version="1.1"
	 id="svg2" xmlns:sodipodi="http://sodipodi.sourceforge.net/DTD/sodipodi-0.dtd" xmlns:svg="http://www.w3.org/2000/svg" xmlns:inkscape="http://www.inkscape.org/namespaces/inkscape"
	 xmlns="http://www.w3.org/2000/svg" xmlns:xlink="http://www.w3.org/1999/xlink" x="0px" y="0px" viewBox="0 0 1505.8 1505.8"
	 style="enable-background:new 0 0 1505.8 1505.8;" xml:space="preserve">
<style type="text/css">
	.st0{fill:#87CFF0;}
	.st1{fill:#49737C;}
	.st2{fill:#33677B;}
	.st3{fill:#0F2937;}
	.st4{fill:#E1CFB6;}
	.st5{fill:#D1BDA0;}
	.st6{fill:#0F2A37;}
	.st7{fill:#E5C5AE;}
	.st8{fill:#3D92D6;}
	.st9{fill:#FFFFFF;}
	.st10{fill:#EDD0BB;}
	.st11{fill:#B7491F;}
	.st12{fill:#C26541;}
	.st13{fill:#67746D;}
	.st14{fill:#203937;}
	.st15{fill:#0A181B;}
	.st16{fill:#BC7758;}
	.st17{fill:#B06D4F;}
	.st18{fill:#9A2D1E;}
	.st19{fill:#08100F;}
	.st20{fill:#9E4831;}
	.st21{fill:#A14531;}
	.st22{fill:#801C1B;}
</style>
<sodipodi:namedview  bordercolor="#000000" borderopacity="0.25" id="namedview4" inkscape:deskcolor="#d1d1d1" inkscape:pagecheckerboard="0" inkscape:pageopacity="0.0" inkscape:showpageshadow="2" pagecolor="#ffffff">
	</sodipodi:namedview>
<g id="g8" transform="matrix(1.3333333,0,0,-1.3333333,0,1505.8)" inkscape:groupmode="layer" inkscape:label="ink_ext_XXXXXX">
	<g id="g10" transform="scale(0.1)">
		<path id="path12" class="st0" d="M5646.8,11293.5c3118.6,0,5646.7-2528.1,5646.7-5646.8C11293.5,2528.1,8765.4,0,5646.8,0
			S0,2528.1,0,5646.7C0,8765.4,2528.1,11293.5,5646.8,11293.5"/>
		<path id="path14" class="st1" d="M0.1,5618.2L0.1,5618.2L0.1,5618.2 M11293.5,5618.2L11293.5,5618.2L11293.5,5618.2
			 M11293.5,5624.5c0,0.2,0,0.1,0,0.3C11293.5,5624.7,11293.5,5624.6,11293.5,5624.5 M0,5624.5c0,0.1,0,0.2,0,0.3
			C0,5624.6,0,5624.7,0,5624.5 M11293.5,5627.4c0,0.2,0,0.3,0,0.5C11293.5,5627.7,11293.5,5627.6,11293.5,5627.4 M0,5627.4
			c0,0.2,0,0.3,0,0.5C0,5627.8,0,5627.6,0,5627.4 M11293.5,5633.7c0,0.4,0,0.4,0,0.8C11293.5,5634.2,11293.5,5634,11293.5,5633.7
			 M0,5633.8c0,0.2,0,0.4,0,0.6C0,5634.2,0,5634,0,5633.8 M0,5636.8c0,0.2,0,0.4,0,0.5C0,5637.2,0,5637,0,5636.8 M11293.5,5636.9
			c0,0.2,0,0.2,0,0.4C11293.5,5637.1,11293.5,5637.1,11293.5,5636.9 M11293.5,5640.2c0,0.2,0,0.5,0,0.7
			C11293.5,5640.7,11293.5,5640.4,11293.5,5640.2 M0,5640.2c0,0.2,0,0.5,0,0.6C0,5640.7,0,5640.4,0,5640.2 M11293.5,5643.1
			c0,0.2,0,0.6,0,0.8C11293.5,5643.6,11293.5,5643.4,11293.5,5643.1 M0,5643.1c0,0.3,0,0.5,0,0.8C0,5643.7,0,5643.3,0,5643.1
			 M11293.5,5649.2c0,0.2,0,0.3,0,0.5C11293.5,5649.6,11293.5,5649.4,11293.5,5649.2 M0,5649.6c0,0.3,0,0.5,0,0.8
			C0,5650.2,0,5649.8,0,5649.6 M11293.5,5651.9v0.2C11293.5,5652,11293.5,5651.9,11293.5,5651.9 M0,5652.6c0,0.2,0,0.4,0,0.6
			C0,5653.1,0,5652.8,0,5652.6 M0,5656.1c0,0.2,0,0.3,0,0.5C0,5656.4,0,5656.3,0,5656.1 M0,5659c0,0.3,0,0.4,0,0.6
			C0,5659.5,0,5659.2,0,5659 M0,5662.4c0,0.1,0,0.1,0,0.1C0,5662.4,0,5662.6,0,5662.4 M0,5665.5c0,0.2,0,0.3,0,0.5
			C0,5665.8,0,5665.7,0,5665.5 M0,5668.6c0,0.1,0,0.2,0,0.3C0,5668.8,0,5668.8,0,5668.6 M0.1,5675.1v0.1V5675.1"/>
		<path id="path16" class="st2" d="M831.7,2697.8h-0.8C308.8,3548.6,5.4,4548.1,0.1,5618.2v0c0,2,0,4.1,0,6.2c0,0.2,0,0.1,0,0.3
			c0,0.9,0,1.8,0,2.6c0,0.2,0,0.3,0,0.5c0,2,0,3.9,0,5.9c0,0.2,0,0.4,0,0.6c0,0.8,0,1.6,0,2.4c0,0.2,0,0.4,0,0.5c0,0.9,0,1.9,0,2.8
			c0,0.2,0,0.5,0,0.6c0,0.8,0,1.5,0,2.3c0,0.2,0,0.6,0,0.8c0,0.9,0,1.9,0,2.8l0,0c0,0.9,0,1.9,0,2.8c0,0.2,0,0.6,0,0.8
			c0,0.8,0,1.5,0,2.3c0,0.2,0,0.4,0,0.6c0,0.9,0,1.9,0,2.8c0,0.2,0,0.3,0,0.5c0,0.8,0,1.7,0,2.5c0,0.2,0,0.5,0,0.6
			c0,0.9,0,1.9,0,2.8c0,0.2,0-0.1,0,0.1c0,1,0,1.9,0,2.9c0,0.2,0,0.4,0,0.5c0,0.9,0,1.8,0,2.6c0,0.2,0,0.1,0,0.3c0,2,0,4.1,0,6.1
			v0.1c5.3,1068.2,307.5,2066,827.8,2915.8l639.7-228.9V6637.9h312.5v1134.8H2933v-632.5h1163.7v-497.1H4366V7047h637.3v-33.8h30
			v33.8h981.2V5668.6c-69.3,9.3-139.5,14-210.2,14c-130.9,0-263.1-16.2-394.1-50.2c-5.2-1.4-10.4-2.7-15.6-4.1
			c-84.6-22.9-169.6-54.1-248.2-96.2c-15.7,1.8-31.4,2.8-47.3,2.8c-8.8,0-17.6-0.3-26.5-1.1c-13.2-1.1-26.3-2.6-39.4-4.4v33.8h-30
			v-38.5c-75.4-13.5-149.2-38-219.2-68.1c-92.8-39.8-180.5-90.8-264.9-145.9c-596.4-389.5-909.1-1132.5-767.1-1825.3h-425.4v2888.8
			h-2957V3636.5C495,3307.7,650.1,2993.8,831.7,2697.8 M5003.3,5663.2v-50h30v50H5003.3 M5003.3,5763.2v-50h30v50H5003.3
			 M5003.3,5863.2v-50h30v50H5003.3 M5003.3,5963.2v-50h30v50H5003.3 M5003.3,6063.2v-50h30v50H5003.3 M5003.3,6163.2v-50h30v50
			H5003.3 M5003.3,6263.2v-50h30v50H5003.3 M5003.3,6363.2v-50h30v50H5003.3 M5003.3,6463.2v-50h30v50H5003.3 M5003.3,6563.2v-50h30
			v50H5003.3 M5003.3,6663.2v-50h30v50H5003.3 M5003.3,6763.2v-50h30v50H5003.3 M5003.3,6863.2v-50h30v50H5003.3 M5003.3,6963.2v-50
			h30v50H5003.3 M10468.6,2707.6v3213.4h-948.2v274.7h115.4v1379.4h765v-414.2h128.3v-1108h204.4V5618h409.8v1320.8
			c96.8-413.5,149.8-843.8,150.2-1286.7v-0.2c0-0.7,0-1.5,0-2.2c0-0.2,0-0.3,0-0.5c0-0.8,0-1.7,0-2.5l0,0c0-0.9,0-1.9,0-2.8
			c0-0.2,0-0.6,0-0.8c0-0.8,0-1.4,0-2.2c0-0.2,0-0.5,0-0.7c0-0.9,0-1.9,0-2.9c0-0.2,0-0.2,0-0.4c0-0.8,0-1.7,0-2.5
			c0-0.4,0-0.4,0-0.8c0-1.9,0-3.9,0-5.8c0-0.2,0-0.3,0-0.5c0-0.9,0-1.8,0-2.6c0-0.2,0-0.1,0-0.3c0-2,0-4.1,0-6.2v0
			C11288.2,4552.2,10987,3556.3,10468.6,2707.6 M7964,5921.1H6413.9v2420.3l462.6,963h409.5l129.3-269.2H7760l247.8-486.7V6380.9
			H7964L7964,5921.1"/>
		<path id="path18" class="st3" d="M369.7,6374.1V3636.5C1180,1510.7,3236.4,0,5646.8,0c2041.7,0,3830.1,1083.7,4821.8,2707.2
			v3213.9h-948.2v459.8h-261.1v365.8h-738.8v-365.8H7964v-459.8H6173.8V3485.3h-2847v2888.8H369.7"/>
		<path id="path20" class="st4" d="M8869.6,4095.1h797v212.3h-797L8869.6,4095.1"/>
		<path id="path22" class="st5" d="M8869.6,4095.1h82.7v212.3h-82.7V4095.1"/>
		<path id="path24" class="st4" d="M7171.8,4095.1h797v212.3h-797V4095.1z"/>
		<path id="path26" class="st5" d="M7171.8,4095.1h82.7v212.3h-82.7V4095.1z"/>
		<path id="path28" class="st4" d="M8869.6,4576.9h797v212.3h-797L8869.6,4576.9"/>
		<path id="path30" class="st5" d="M8869.6,4576.9h82.7v212.3h-82.7V4576.9"/>
		<path id="path32" class="st4" d="M7171.8,4576.9h797v212.3h-797V4576.9z"/>
		<path id="path34" class="st5" d="M7171.8,4576.9h82.7v212.3h-82.7V4576.9z"/>
		<path id="path36" class="st4" d="M8869.6,5058.8h797v212.3h-797L8869.6,5058.8"/>
		<path id="path38" class="st5" d="M8869.6,5058.8h82.7v212.3h-82.7V5058.8"/>
		<path id="path40" class="st4" d="M7171.8,5058.8h797v212.3h-797V5058.8"/>
		<path id="path42" class="st5" d="M7171.8,5058.8h82.7v212.3h-82.7V5058.8"/>
		<path id="path44" class="st4" d="M8869.6,3613.3h797v212.3h-797V3613.3"/>
		<path id="path46" class="st5" d="M8869.6,3613.3h82.7v212.3h-82.7V3613.3"/>
		<path id="path48" class="st4" d="M7171.8,3613.3h797v212.3h-797V3613.3z"/>
		<path id="path50" class="st5" d="M7171.8,3613.3h82.7v212.3h-82.7V3613.3z"/>
		<path id="path52" class="st4" d="M809.1,4887.9h797v860.2h-797V4887.9"/>
		<path id="path54" class="st4" d="M2074.2,4887.9h797v860.2h-797V4887.9"/>
		<path id="path56" class="st5" d="M2074.2,4887.9h82.7v860.2h-82.7V4887.9"/>
		<path id="path58" class="st5" d="M809.1,4887.9h82.7v860.2h-82.7V4887.9"/>
		<path id="path60" class="st4" d="M809.1,3485.3h797v860.2h-797V3485.3"/>
		<path id="path62" class="st4" d="M2074.2,3485.3h797v860.2h-797V3485.3"/>
		<path id="path64" class="st5" d="M2074.2,3485.3h82.7v860.2h-82.7V3485.3"/>
		<path id="path66" class="st5" d="M809.1,3485.3h82.7v860.2h-82.7V3485.3"/>
		<path id="path68" class="st4" d="M2074.2,2323.3h797v860.3h-797V2323.3"/>
		<path id="path70" class="st4" d="M7171.8,2323.3h797v860.3h-797V2323.3z"/>
		<path id="path72" class="st4" d="M8869.6,2323.3h797v860.3h-797L8869.6,2323.3"/>
		<path id="path74" class="st5" d="M8869.6,2323.3h82.7v860.3h-82.7V2323.3"/>
		<path id="path76" class="st5" d="M7171.8,2323.3h82.7v860.3h-82.7V2323.3z"/>
		<path id="path78" class="st4" d="M7171.8,1131.9h797v860.3h-797V1131.9"/>
		<path id="path80" class="st5" d="M7171.8,1131.9h82.7v860.3h-82.7V1131.9"/>
		<path id="path82" class="st4" d="M5644,1131.9h548.2v860.3H5644V1131.9z"/>
		<path id="path84" class="st5" d="M5644,1131.9h82.7v860.3H5644V1131.9z"/>
		<path id="path86" class="st4" d="M4483.4,2323.3h548.1v860.3h-548.1V2323.3z"/>
		<path id="path88" class="st5" d="M4483.4,2323.3h82.7v860.3h-82.7V2323.3z"/>
		<path id="path90" class="st4" d="M4483.4,1131.9h548.1v860.3h-548.1V1131.9z"/>
		<path id="path92" class="st5" d="M4483.4,1131.9h82.7v860.3h-82.7V1131.9"/>
		<path id="path94" class="st4" d="M3320.8,1131.9H3869v860.3h-548.2V1131.9"/>
		<path id="path96" class="st5" d="M3320.8,1131.9h82.7v860.3h-82.7V1131.9"/>
		<path id="path98" class="st4" d="M5644,2323.3h548.2v860.3H5644V2323.3z"/>
		<path id="path100" class="st5" d="M5644,2323.3h82.7v860.3H5644V2323.3z"/>
		<path id="path102" class="st4" d="M3320.8,2323.3H3869v860.3h-548.1V2323.3z"/>
		<path id="path104" class="st5" d="M3320.8,2323.3h82.7v860.3h-82.7V2323.3"/>
		<path id="path106" class="st5" d="M2074.2,2323.3h82.7v860.3h-82.7V2323.3"/>
		<path id="path108" class="st4" d="M809.1,2736.5c85.5-141.9,176.7-279.9,273.9-413.2h523.1v860.3h-797V2736.5"/>
		<path id="path110" class="st4" d="M1606.1,1703.8v288.4h-262.3C1428,1893.1,1515.3,1796.8,1606.1,1703.8"/>
		<path id="path112" class="st4" d="M2256.4,1131.9h614.8v860.3h-797v-717.7C2133.8,1225.7,2194.7,1178.3,2256.4,1131.9"/>
		<path id="path114" class="st4" d="M8869.6,1131.9h168.7c223,167.8,432.7,352,628.3,550.3v309.9h-797V1131.9"/>
		<path id="path116" class="st5" d="M2156.9,1209.3v782.9h-82.7v-717.7C2101.3,1252.3,2129.3,1231.1,2156.9,1209.3"/>
		<path id="path118" class="st5" d="M8869.6,1131.9h82.7v860.3h-82.7V1131.9"/>
		<path id="path120" class="st6" d="M4178.7,7967.9c0,43.6,35.5,79,79,79c43.6,0,79-35.4,79-79c0-43.6-35.5-79-79-79
			C4214.2,7888.9,4178.7,7924.4,4178.7,7967.9z M4415.5,8732l663.8,250.8l640.5-250.8l-640.5-250.8L4415.5,8732z M4626.3,8457.3
			l454-171.6l453,177.4v-259.8c-24.9-31.3-128.8-126.9-469.9-126.9c-345.2,0-426.5,99.4-437.2,115.7L4626.3,8457.3z M4044.8,7967.9
			c0-86.1,51.7-160.1,125.4-193.6v-161.7h182.3v165.6c69.7,35,118.1,106.5,118.1,189.7s-48.4,154.7-118.1,189.7v403.2l91.6-34.6
			l1.1-362.5c7.7-45,73.5-269.5,618.2-269.5c544.8,0,638.5,229.4,647.4,255.6l4.8,14.3v370.2h-1.1l505.1,197.8l-1139.3,446.2
			L3899.7,8732l270.5-102.2v-468.2C4096.5,8128.1,4044.8,8054.1,4044.8,7967.9"/>
		<path id="path122" class="st6" d="M5003.3,7663.2v-50h30v50H5003.3 M5003.3,7563.2v-50h30v50H5003.3 M5003.3,7463.2v-50h30v50
			H5003.3 M5003.3,7363.2v-50h30v50H5003.3 M5003.3,7263.2v-50h30v50H5003.3 M5003.3,7163.2v-50h30v50H5003.3 M5003.3,7063.2v-50h30
			v50H5003.3 M5003.3,6963.2v-50h30v50H5003.3 M5003.3,6863.2v-50h30v50H5003.3 M5003.3,6763.2v-50h30v50H5003.3 M5003.3,6663.2v-50
			h30v50H5003.3 M5003.3,6563.2v-50h30v50H5003.3 M5003.3,6463.2v-50h30v50H5003.3 M5003.3,6363.2v-50h30v50H5003.3 M5003.3,6263.2
			v-50h30v50H5003.3 M5003.3,6163.2v-50h30v50H5003.3 M5003.3,6063.2v-50h30v50H5003.3 M5003.3,5963.2v-50h30v50H5003.3
			 M5003.3,5863.2v-50h30v50H5003.3 M5003.3,5763.2v-50h30v50H5003.3 M5003.3,5663.2v-50h30v50H5003.3 M5003.3,5563.2v-50h30v50
			H5003.3 M5003.3,5463.2v-50h30v50H5003.3 M5003.3,5363.2v-50h30v50H5003.3 M5003.3,5263.2v-50h30v50H5003.3 M5003.3,5163.2v-50h30
			v50H5003.3 M5003.3,5063.2v-50h30v50H5003.3 M5003.3,4963.2v-50h30v50H5003.3 M5003.3,4863.2v-50h30v50H5003.3 M5003.3,4763.2v-50
			h30v50H5003.3 M5003.3,4663.2v-50h30v50H5003.3 M5003.3,4563.2v-50h30v50H5003.3 M5003.3,4463.2v-50h30v50H5003.3 M5003.3,4363.2
			v-50h30v50H5003.3 M5003.3,4263.2v-50h30v50H5003.3 M5003.3,4163.2v-50h30v50H5003.3 M5003.3,4063.2v-50h30v50H5003.3
			 M5003.3,3963.2v-50h30v50H5003.3"/>
		<path id="path124" class="st6" d="M9993.2,8065.1h30v50h-30V8065.1z M9993.2,7965.1h30v50h-30V7965.1z M9993.2,7865.1h30v50h-30
			V7865.1z M9993.2,7765.1h30v50h-30V7765.1z M9993.2,7665.1h30v50h-30V7665.1z M9993.2,7565.1h30v50h-30V7565.1z M9993.2,7465.1h30
			v50h-30V7465.1z M9993.2,7365.1h30v50h-30V7365.1z M9993.2,7265.1h30v50h-30V7265.1z M9993.2,7165.1h30v50h-30V7165.1z
			 M9993.2,7065.1h30v50h-30V7065.1z M9993.2,6965.1h30v50h-30V6965.1z M9993.2,6865.1h30v50h-30V6865.1z M9993.2,6765.1h30v50h-30
			V6765.1z M9993.2,6665.1h30v50h-30V6665.1z M9993.2,6565.1h30v50h-30V6565.1z M9993.2,6465.1h30v50h-30V6465.1z M9993.2,6365.1h30
			v50h-30V6365.1z M9993.2,6268.6h30v46.4h-30V6268.6z"/>
		<path id="path126" class="st0" d="M3105,9952.5c0-383.2-310.7-693.9-693.9-693.9c-383.3,0-693.9,310.7-693.9,693.9
			c0,383.3,310.7,693.9,693.9,693.9C2794.3,10646.4,3105,10335.8,3105,9952.5"/>
		<path id="path128" class="st6" d="M2900.5,9984.8c3.9-308.6-271.4-520.9-268.3-764.4l-147.7-1.9
			c-1.9,154.1,70.2,284.5,140.7,410.5c66.2,118.3,128.6,230.2,127,353.9c-2.9,230.4-191.1,348.5-375.3,346.2
			c-184-2.3-368.8-125.2-365.9-355.5c1.6-123.8,66.8-234,135.9-350.6c73.6-124.1,148.9-252.7,151-406.8l-147.6-1.9
			c-3.1,243.5-283.7,448.8-287.6,757.4c-4.1,321.9,253,502.4,512.2,505.7C2634.7,10480.7,2896.5,10306.5,2900.5,9984.8 M2615.1,9109
			c0.2-20.5-16.1-37.3-36.6-37.5l-370.6-4.7c-20.4-0.2-37.3,16.1-37.5,36.6c-0.3,20.5,16.1,37.3,36.6,37.5l370.6,4.7
			C2598,9145.8,2614.8,9129.5,2615.1,9109 M2617,8960.8c0.2-20.5-16.1-37.3-36.6-37.5l-370.6-4.7c-20.5-0.3-37.3,16.2-37.5,36.6
			c-0.3,20.4,16.1,37.2,36.6,37.5l370.6,4.7C2599.9,8997.6,2616.7,8981.2,2617,8960.8 M2493.8,8725c-13.9-16.2-34.2-25.7-55.4-26
			l-81.1-1c-21.3-0.3-41.8,8.7-56.1,24.6l-109.1,121.6l407.6,5.2L2493.8,8725z M2411.1,9810.6l-51.1-0.6l-0.9,74.1l51.1,0.6
			L2411.1,9810.6z M2478.8,9811.5l-31.7-0.4l-1,74.1l59.8,0.8L2478.8,9811.5z M2291.2,9809.1l-30.3,73.8l61.8,0.8l0.9-74.1
			L2291.2,9809.1z M2605.2,9886.9c-116.8-272.3-171.7-376.5-168-668.9l-92-1.2c-3.7,292.5-61.1,395.2-184.8,664.5l57.5,0.7
			c89.6-210.2,151.1-294.4,171.4-518.3c14.5,224.3,74.1,310,158.2,522.5L2605.2,9886.9"/>
		<path id="path130" class="st6" d="M2899.3,9984.8c0-2.2,0-4.3,0-6.5c0-151.3-66.9-279.5-134-400
			c-67.1-120.5-134.3-233.2-134.4-353.8c0-1.4,0-2.7,0-4.1l1.2,0l0,1.2l-147.7-1.9l0-1.2l1.2,0c0,2,0,3.9,0,5.9
			c0,151.1,71,279.6,140.6,404c65.4,116.9,127.2,227.6,127.2,350c0,1.5,0,3.1,0,4.6c-2.9,229-188.2,347.5-371.2,347.5
			c-1.8,0-3.6,0-5.4,0c-183-2.3-367.1-123.8-367.1-351.5c0-1.8,0-3.6,0-5.4c1.6-124.2,67-234.6,136.1-351.2
			c73.6-124.1,148.8-252.5,150.8-406.2l1.2,0l0,1.2l-147.6-1.9l0-1.2l1.2,0c-1.6,122.3-72.7,234.6-143.7,354.9
			c-71,120.3-142,248.6-143.9,402.4c0,2.5-0.1,5-0.1,7.5c0,316.4,254.3,493.6,511,496.9c2.4,0,4.8,0.1,7.2,0.1
			C2639,10476.1,2895.2,10302.7,2899.3,9984.8l2.5,0c-4,319.5-261.8,493.9-519.5,493.9c-2.4,0-4.8-0.1-7.2-0.1
			c-257.8-3.2-513.5-181.4-513.5-499.4c0-2.5,0-5,0.1-7.5c2-154.7,73.3-283.3,144.3-403.7c71.1-120.3,141.8-232.4,143.3-353.7l0-1.2
			l150.1,1.9l0,1.2c-2,154.5-77.5,283.3-151.1,407.4c-69.2,116.6-134.2,226.7-135.8,350c0,1.8,0,3.6,0,5.3
			c0,226.1,182.6,346.6,364.7,349c1.8,0,3.6,0,5.4,0c182-0.1,365.8-117.6,368.7-345c0-1.5,0-3,0-4.6c0-121.5-61.5-231.9-126.9-348.8
			c-69.6-124.3-140.9-253.2-140.9-405.2c0-2,0-3.9,0-5.9l0-1.2l150.2,1.9l0,1.3c0,1.3,0,2.7,0,4c0,119.6,66.9,232,134,352.6
			c67.1,120.5,134.3,249.2,134.3,401.2c0,2.2,0,4.4,0,6.5L2899.3,9984.8L2899.3,9984.8z M2613.8,9109v-0.5
			c0-19.6-15.7-35.5-35.4-35.8l-370.6-4.7h-0.5c-19.5,0-35.5,15.7-35.8,35.3v0.5c0,19.6,15.7,35.6,35.4,35.8l370.6,4.7h0.5
			C2597.6,9144.3,2613.6,9128.6,2613.8,9109l2.5,0c-0.3,21-17.4,37.8-38.3,37.8h-0.5l-370.6-4.7c-21-0.3-37.8-17.4-37.8-38.3v-0.5
			c0.3-21,17.4-37.8,38.3-37.8h0.5l370.6,4.7c21,0.3,37.8,17.3,37.8,38.3v0.5L2613.8,9109z M2615.7,8960.8v-0.5
			c0-19.6-15.8-35.6-35.4-35.8l-370.6-4.7h-0.5c-19.6,0-35.6,15.8-35.8,35.4v0.5c0,19.5,15.8,35.5,35.4,35.8l370.6,4.7h0.4
			C2599.5,8996.1,2615.5,8980.4,2615.7,8960.8l2.5,0c-0.3,21-17.4,37.8-38.3,37.8h-0.5l-370.6-4.7c-21-0.3-37.9-17.4-37.9-38.3v-0.5
			c0.3-21,17.4-37.8,38.3-37.8h0.5l370.6,4.7c21,0.3,37.8,17.4,37.8,38.3v0.5L2615.7,8960.8z M2493.8,8725l-0.9,0.8
			c-13.6-15.9-33.6-25.3-54.5-25.5l-81.1-1l-0.9,0c-20.6,0-40.4,8.8-54.2,24.2L2195,8843l402.1,5.1l-104.2-122.2L2493.8,8725
			l0.9-0.8l107.8,126.4l-413.1-5.2l110.9-123.6c14.3-15.9,34.8-25,56.1-25l0.9,0l81.1,1c21.6,0.3,42.2,9.9,56.3,26.4L2493.8,8725z
			 M2411.1,9810.6l0,1.2l-49.8-0.6l-0.9,71.6l48.6,0.6l0.9-72.9L2411.1,9810.6l0,1.2L2411.1,9810.6l1.2,0l-0.9,75.4l-53.6-0.7
			l1-76.6l53.6,0.7l0,1.2L2411.1,9810.6z M2478.8,9811.5l0,1.2l-30.5-0.4l-0.9,71.6l56.8,0.7l-26.5-72.8L2478.8,9811.5l0,1.2
			L2478.8,9811.5l1.2-0.4l27.8,76.2l-62.9-0.8l1-76.6l33.8,0.4l0.3,0.8L2478.8,9811.5z M2291.2,9809.1l1.1,0.5l-29.6,72l58.7,0.8
			l0.9-71.6l-31.2-0.4L2291.2,9809.1l1.1,0.5L2291.2,9809.1l0-1.2l33.7,0.4l-1,76.6l-64.9-0.8l31.3-76.2l0.9,0L2291.2,9809.1z
			 M2605.2,9886.9l-1.1,0.5c-113.1-263.6-168.3-370-168.2-642.2c0-8.9,0.1-18,0.2-27.2l1.2,0l0,1.2l-92-1.2l0-1.2l1.2,0
			c-3.7,292.7-61.3,395.8-184.9,665l-1.1-0.5l0-1.2l57.5,0.7l0,1.2l-1.1-0.5c89.6-210.3,151-294.2,171.3-517.9l2.5,0
			c14.5,224.1,73.9,309.5,158.1,522.1l-1.2,0.5l0-1.2l57.6,0.7L2605.2,9886.9l-1.1,0.5L2605.2,9886.9l0,1.2l-58.4-0.7l-0.3-0.8
			c-84.1-212.3-143.7-298.3-158.3-522.9l1.2-0.1l1.2,0.1c-20.4,224.2-82,308.6-171.5,518.7l-0.3,0.8l-60.3-0.8l0.8-1.8
			c123.7-269.4,180.9-371.6,184.7-664l0-1.2l94.5,1.2l0,1.2c-0.1,9.3-0.2,18.3-0.2,27.2c0,271.8,54.9,377.4,168.1,641.2l0.8,1.8
			l-1.9,0L2605.2,9886.9"/>
		<path id="path132" class="st6" d="M2377.7,8479.9h30v50h-30V8479.9z M2377.7,8379.9h30v50h-30V8379.9z M2377.7,8279.9h30v50h-30
			V8279.9z M2377.7,8179.9h30v50h-30V8179.9z M2377.7,8079.9h30v50h-30V8079.9z M2377.7,7979.9h30v50h-30V7979.9z M2377.7,7879.9h30
			v50h-30V7879.9z M2377.7,7779.9h30v50h-30V7779.9z M2377.7,7679.9h30v50h-30V7679.9z M2377.7,7579.9h30v50h-30V7579.9z
			 M2377.7,7479.9h30v50h-30V7479.9z M2377.7,7379.9h30v50h-30V7379.9z M2377.7,7279.9h30v50h-30V7279.9z M2377.7,7179.9h30v50h-30
			V7179.9z M2377.7,7079.9h30v50h-30V7079.9z M2377.7,6979.9h30v50h-30V6979.9z M2377.7,6879.9h30v50h-30V6879.9z M2377.7,6779.9h30
			v50h-30V6779.9z M2377.7,6679.9h30v50h-30V6679.9z M2377.7,6595.4h30v34.5h-30V6595.4z"/>
		<path id="path134" class="st3" d="M2734.4,4850.4l-48.7,112.8l2.1,1.5c0,0-47.7,118-55.8,131.2c-8.5,13.7-21.2,20.7-36.4,26.6
			c6.1,3.5,12.1,7.2,18.2,11.3c0,0-38.3,11.8-33.9,42.7c4.4,30.9,60.4,69.2,94.3,134c33.8,64.6,48.5,246.2-69.6,278.1l-2,1.8
			c-6.5,10.9-52.6,78.8-177.4,53c-135.5-28-175.3-160.5-170.9-237.1c4.4-76.6,21.6-122,57-175.4c34.9-52.6,19.6-86.8-6.9-95.6
			c0,0,12-8.5,32.7-18.3c-9.7-5-17.9-11.3-23.9-21c-8.1-13.2-55.8-131.2-55.8-131.2l2.1-1.5l-48.7-112.8h69.4l36.5,71.5l1.1-0.8
			l36.9,71.1c0,0,17.7-93.3,19.4-141.8h6.2h90.9h0.7h0.6h0.6h0.7h90.9h6.2c1.8,48.5,19.4,141.8,19.4,141.8l36.9-71.1l1.1,0.8
			l36.5-71.5L2734.4,4850.4"/>
		<path id="path136" class="st3" d="M8123.8,2285.2c-5.5,13.4-11.5,28.7-17.6,44.9c-0.7,2.1-7.6,20.4-9.9,26.8
			c-11.2,30.6-22.5,62.6-32.2,90.2l0.1,0.1c-4.8,13.7-9.3,26.3-13.2,37.1l-0.1-0.1c-5,13.9-9.1,24.9-11.9,31.5l0,0c0,0-1.6,4-2.9,6
			l-0.8,1c-4.7,2.4-44.3,17.3-68.1,26.2l-25.2,26.9l0-0.1l-0.1,0.2c-1.7,2.7-7.4,4.9-15.6,6.6c-0.1,1.1-0.2,2.3-0.2,3.5
			c0,12.1,0,27.4,0,41c58.9,17.9,98.1,69.6,117,137.7v0l0,0.1c8.6,31.3,13,66,13,102.4c0,4.2-0.1,8.3-0.2,12.3
			c1.1,40.8-2.4,83.1-17.6,109c1-0.2,2-0.4,2.8-0.9c9.1-4.8,22.1-48.1,22.1-48.1s-3.6,53.3-12.6,71.6c-9.1,18.3-18.5,21.1-18.5,21.1
			s-3.9,15.9-22.7,15.1c-6.9-0.3-15.7-4.8-23.9-18.2c-6,2.4-12.3,4.6-18.9,6.6v0c-3.5,7.5-26.4,73.7-92,69.8c0,0-19,10.9-51,0.2
			s-39.2-27.5-39.2-27.5s-23,7.7-49.5-5.4c-22.4-11.1-56-29.2-51.1-99.2c1.4-20.3-13.9-31.5-13.9-31.5s13.2-3.5,22.1,7.4
			c-11.1-77.7,16-175,16-175v0c18.9-72.5,60.6-128.3,122.4-147.2c0-13.6,0-29.1,0-41.2c0-1.3-0.1-2.6-0.2-3.9
			c-7.1-1.6-13-3.6-17.1-6.2l-0.9-1.1l-23.7-25.3c-5.8-2.2-12.7-4.8-19.8-7.4h0c-21.9-8.2-46.1-17.5-49.7-19.3
			c-5-2.5-54.6-155.7-88.5-237.5h0.2h25.3h24.9h13.1h0h12.4h0.2h9.5l17.5,47.3l6.3,16.9l1.1,3.1c0,0,0.9-4.5,2.5-20.4l2-23.1
			c0.5-5.8,1-12.4,1.5-19.7l-0.1,0c0.1-1.3,0.2-2.7,0.3-4.1h117.5h11.1h1.9h0.1h126.8h0.1l6.3,66.6l0,0l0.1,0.6l5-17l5.8-19.6
			l9-30.6h11.7h5.1h12.4h0h13h24.9L8123.8,2285.2L8123.8,2285.2"/>
		<path id="path138" class="st3" d="M7417.9,2518.5l-0.2,0.6l-0.6-0.1c-5.9,1.6-49,13.1-73.8,29.1c-3.2,2-6.1,0.5-8.9-4.7
			c-6.8,3.9-12.7,8.2-17.5,12.9c1.1,0.7,1.8,1.1,1.8,1.1c-2,1.2-8.8,11.2-8.8,11.2l-1.5-1.6c-3.5,5.9-5.4,12.4-5.4,19.6
			c0,11.3,0,25.6,0,38.5c17.8,4.6,33.8,12.3,48,22.5c23.1-5.5,35-11.3,39-13.6l-0.3-0.9l0.4,0.8c1-0.5,1.4-0.8,1.4-0.8
			c15.7-6.4,38.7-21.4,38.7-21.4c37.9,71.4,44.8,146,44.9,190.2l0,0l0,0.5c0,14.4-0.7,25.6-1.2,32.2
			c-8.4,108.9-61.6,219.4-213.4,219.4c-148.6,0-202.7-105.9-212.8-212.5l0,0c0,0-15.9-118.8,43-229.8c0,0,21.4,13.9,36.9,20.7
			c1.2,0.2,2.5,0.4,3.7,0.7c0,0,15.1,8,41,15.1c14-10,29.6-17.6,46.8-22.4c0-13.1,0-27.7,0-39.2c0-7.2-1.9-13.7-5.3-19.6l-1.5,1.5
			c0,0-6.8-10-8.8-11.2c0,0,0.6-0.4,1.7-1.1c-4.8-4.6-10.6-8.9-17.2-12.7c-2.7,5-5.6,6.6-8.8,4.5c-24.8-15.9-67.8-27.5-73.8-29.1
			l-0.6,0.1l-0.2-0.6l0,0l-75.4-226.4h5.1h55.5h4.8l37,86l18.1-86h17.5h1.9h48.8h37.3h2h1.2h0.8h0.5h1.4h0.6h2h0h0.4h0.7h3.2h36.3
			h48.5h3.1h16.6l18,85.7l1.3-2.7l35.7-83.1h4.5h55.5h5.4L7417.9,2518.5"/>
		<path id="path140" class="st3" d="M1703.4,2204.4l-57,97.7c1.2,2.5,1.5,4.8,0.8,6.2l0.1-0.1l-46.1,82.4l-35.7,18.8l-0.1,2l0,0
			l-22.2,16.6l0.1-0.1c-1.3,0.9-4.8,2.6-12.6,4.1c-0.8,0.8-1.7,1.6-2.6,2.3l0-0.1c0,7.9,0,17.2,0,25.2c1.8,0.5,3.6,1,5.4,1.6
			c6.3,2,12.2,4.6,17.7,7.8c2.8,1.6,5.4,3.3,7.9,5.1c6.8,4.9,12.9,10.6,18.3,17.2c1.3,1.6,2.7,3.3,3.9,5.1c1.9,2.6,3.7,5.3,5.4,8.1
			c3.4,5.6,6.5,11.6,9.3,18c1.8,4.2,3.5,8.6,5,13.2c1.1,3.1,2,6.3,2.9,9.6l0.1-0.1c0,0,15.4,31,13.6,85.4c-0.4,11-0.6,22.3-3.3,32.4
			c-1.7,6.4-5.1,11.9-8,17.6c-4.5,8.9-9.7,18.4-17.6,25.4c-4.2,3.7-9.7,6.9-15,9.9c-6.9,3.9-14,9.9-23,12.5
			c-7.2,2.1-15.8,2.5-24.6,3.6c-6.1,1.3-10.9,3.4-20.3,3.4c-1.4,0-9.7-1.4-11.1-1.4c-9.4,0-17-0.7-23.1-2
			c-9.3-1.2-18.5,0.3-26.1-2.1c-11.4-3.5-20.2-12.7-28.2-18.4c-5.9-4.1-14.4-10-18.7-15.1c-9.7-11.4-14.5-24.9-17.7-39.7
			c-1.8-8.4-0.4-17.3-0.7-26.3c-1.9-54.4,13.6-85.4,13.6-85.4l0,0c11.5-42,34.4-73.6,72.4-84.7c0-8.3,0-18,0-26.1v0.1l-2.2-2
			c-11.2-2.1-13.7-4.8-13.7-4.8l-0.1-0.1l-21.1-15.8l0,0l0,0l-0.1-2l-35.7-18.8l-46.1-82.4c-0.8-1.4-0.5-3.6,0.6-6.2l-57-97.6h45.4
			l51.7,72.6c1.7-0.2,3.1-0.1,4,0.5l0.7,0.6l0,0v0l0.1,0.1l9.7,16.1l8.3-89.6h1.7h24.1h59.1h0.4h1.2h1.2h0.4h57h26.2h1.8l8.3,89.6
			l9.2-15.4l0.4-0.7l0.1-0.2l0,0.1l0.5-0.5c0.9-0.6,2.2-0.7,3.8-0.6l51.9-72.9L1703.4,2204.4"/>
		<path id="path142" class="st5" d="M809.1,2736.5c26.9-44.7,54.6-88.8,82.7-132.7v579.7h-82.7V2736.5"/>
		<path id="path144" class="st3" d="M1131.5,2702c-9.6-10.8-28.7-4.8-34.7,19.1c-6,23.9,39.1,174.2,5.6,247.2
			c-33.5,73-106,109.2-152.7,108c-13.7-0.4-27.5-2.5-40.2-5.3c-32.5,7.3-67,3.2-100.4-10.2v-324.3
			c85.5-141.9,176.7-279.9,273.9-413.2h84.9c-20.1,37.7-47.1,88.4-71.4,134.3c7.6,15.6,12.9,33.3,13.5,53
			c1.2,40.6-1.2,84.9-14.3,122c-13.2,37.1-8.4,56.2-8.4,56.2C1124.3,2672.1,1131.5,2702,1131.5,2702"/>
		<path id="path146" class="st3" d="M4119.7,1172.7L4119.7,1172.7l-0.6,1.1c-0.9,1.7-1.9,3.5-2.8,5.2c-0.6,1.1-1.2,2.3-1.8,3.4
			c-0.6,1.2-1.3,2.3-1.9,3.5l-1.4,2.5l0,0c-0.8,1.4-1.5,2.7-2.3,4.1l0,0l-0.2,0.5c-2.4,4.4-4.9,8.8-7.4,13.3l-0.5,0.9l0,0
			c-21.2,37.7-45.2,77.4-68.3,109.4l-0.2,1.1h0l0,0.2l0-0.1c-0.1,0.7-0.3,1.5-0.6,2.6l0-0.1c-1.2,4.8-4.3,13.6-12,21.5l0,0
			c-3.7,3.8-8.4,7.5-14.5,10.5c-4.8,2.3-9.8,4.4-14.7,6.2l0,0l-1,0.3c-1.2,0.4-2.4,0.8-3.5,1.2l-1.7,0.6c-1.1,0.4-2.2,0.7-3.2,1
			l-0.9,0.3l0,0c-1.4,0.4-2.7,0.8-4.1,1.2v0c-3.6,1-6.9,1.9-9.9,2.7v0c-3.2,0.8-6,1.4-8.3,1.9l-0.2,0.8c0,0-11,3.5-14.7,5.2v0v0
			l-0.3-1.1c-3,1.7-5.9,3.5-8.4,5.3c0.9,1.4,1.5,3,1.5,4.8c0,4.8-3.9,8.6-8.6,8.6c-1.8,0-3.5-0.6-4.9-1.5
			c-3.7,5.4-5.7,11.6-5.7,18.7c0,12.7,0,29.2,0,43.1c61.1,17.8,96.1,71.3,111.2,141.5c6.8,17,28.9,79.4,21.1,145.4
			c-0.6,5.4-3.5,12.5-8.2,20.4v0l-0.6,1l-0.6,0.9l-1,1.6l-0.5,0.8l-1.1,1.7l-0.5,0.7l-1.3,1.9l-0.3,0.5c-3,4.3-6.4,8.8-10.2,13.3v0
			c-14.1,16.8-33.4,34.8-55.7,49.9v0l-1.5,1l-1.2,0.8c-0.9,0.6-1.8,1.2-2.7,1.8l-0.9,0.6c-3.1,2-6.2,3.9-9.4,5.7l-1.1,0.6
			c-0.9,0.5-1.8,1-2.8,1.5l-1.4,0.7c-0.9,0.5-1.8,1-2.7,1.5l-1.3,0.7c-3.1,1.6-6.3,3.2-9.5,4.6l-1.3,0.6l-0.9,0.4v0
			c-9.9,4.4-20.1,8-30.4,10.5l-0.1,0.4c-3,0.7-5.9,1.3-8.9,1.8l0-0.3c-8.1,1.5-16.1,2.3-24.3,2.3c-88,0-175.9-94.2-179.9-128
			c-9.2-77.6,25.2-150,25.2-150v0c15.4-68.6,50-120.7,110.4-137.5c0-13.8,0-30,0-42.5c0-6.8-1.8-12.7-5.2-17.9
			c-1.1,0.5-2.2,0.8-3.5,0.8c-4.8,0-8.6-3.8-8.6-8.6c0-1.4,0.4-2.7,0.9-3.8c-2.9-2.2-6.2-4.3-9.7-6.3l-0.3,1.1v0v0
			c-2.3-1.1-7.1-3.2-10.4-4.7c-0.2,0-6.3-1-15.2-3.2l-0.1,0.1c-2.6-0.6-5.1-1.2-7.6-1.9l-0.2-0.2c-1.9-0.5-3.9-1.1-6-1.8v0.1
			c-3.4-1.1-6.7-2.2-9.6-3.3l0,0l-1.6-0.6l0,0l-2-0.8c-4.1-1.6-8.3-3.4-12.4-5.3c-24.9-12.1-27.2-35.8-27.2-35.8
			c-18.4-25.4-37.2-55.6-54.8-85.7h0l-0.5-1c-1.6-2.7-3.1-5.3-4.6-8l-0.9-1.5c-1.5-2.7-3-5.3-4.5-7.9l-0.9-1.6
			c-1.3-2.4-2.6-4.7-3.9-7l-1.4-2.5c-1.2-2.1-2.4-4.2-3.5-6.3l-0.9-1.6l0,0c-15.4-27.8-28.9-53.8-39.1-73.9l0,0
			c-1.6-3.1-3.1-6-4.4-8.8h0l-0.6-1.1h0c-1.3-2.6-2.5-5.1-3.7-7.4l0,0c-1.1-2.2-2.1-4.2-3-6.1h0l-1.1-2.3l0,0
			c-4.4-8.9-6.8-14-6.8-14h3.1h66.1h4.2l35.1,47.7h0l5.2,7.1l0,0l2.7,3.7h0l5.8,7.9h0l3.2,4.4h0l4.9,6.5l0,0.1l33,44.8l0.5,0.6
			l0.4,0.5l0.1-0.5l0.2-0.9l0,0l18.5-94l0,0l0.8-4.1l4.7-23.8h3.7h78.6l0-0.1h9.4l0,0.1h15.1h4h0.5h0.9h0.9h104.9h1.1l0.2,1l1.5,7.6
			l1.5,7.5l1.3,6.6l14.1,71.6h0l2.3,11.6h0l0.5,2.6v-0.1l1,5h0l1.9,9.9l0.4-0.5l0.6-0.8v0.1l8.1-11h0l3.3-4.5h0l66-89.6l1.9-2.5
			l10.7-14.5h6.8h40h8.4h3.9h9.2h4.5h0.5C4167.1,1079.9,4147.6,1120.9,4119.7,1172.7"/>
		<path id="path148" class="st0" d="M9530.8,9535.4v318.3h974.5v-357.5l345.8-3.9V8506l-361.5,3.9v-326.1h-326.2"/>
		<path id="path150" class="st0" d="M10628.9,9293.8h-344.4v344.4h-552.7v-344.4h-344.4V8741h344.4v-344.4h552.7V8741h344.4V9293.8"
			/>
		<path id="path152" class="st6" d="M9811.8,8476.7h392.7V8821h344.4v392.7h-344.4v344.4h-392.7v-344.4h-344.4V8821h344.4V8476.7z
			 M10364.5,8316.7h-712.7V8661h-344.4v712.7h344.4v344.4h712.7v-344.4h344.4V8661h-344.4V8316.7"/>
		<path id="path154" class="st7" d="M5646.8,0C6183.5,0,6702,76.5,7193.9,216.3l-203,463.1c0,0-45,219.8-400.5,338.2
			c-355.3,118.5-626.1,238.9-626.1,491.5c0,252.5,0,665,0,665h-429.3h-429.3c0,0,0-412.5,0-665c0-252.6-270.8-373-626.1-491.5
			c-355.5-118.4-400.5-338.2-400.5-338.2l-176.9-403.5C4451.9,97.5,5037.8,0,5646.8,0"/>
		<path id="path156" class="st8" d="M7089.2,880.1c0,0-19.3,43.3-136.6,97c-161.2,73.9-163.2,70-748.3,276.6l-669.2-34.2
			l-672.6,34.2c-585.1-206.6-587.1-202.7-748.3-276.6c-117.3-53.7-136.6-97-136.6-97l-212.1-557.9C4354.1,114.2,4986.9,0,5646.8,0
			C6232,0,6796.3,89,7327.2,254.2L7089.2,880.1"/>
		<path id="path158" class="st9" d="M4862.4,1253.7c0,0,25.9,244.8,104.5,233c78.6-11.8,628.7-86.4,907.6-31.4
			c279,55,131.7,75.6,192.4,55c96.6-32.8,137.3-256.6,137.3-256.6s-306.2-187.4-730.6-199.2
			C5049.4,1042.7,4862.4,1253.7,4862.4,1253.7"/>
		<path id="path160" class="st10" d="M7110,4008.7c0-1232.2-437-2238.2-1560.7-2238.2c-1123.5,0-1539.1,1018.1-1539.1,2250.3
			c0,1232.4,1045.6,1480.6,1558.1,1480.6C6080.8,5501.4,7110,5241.1,7110,4008.7"/>
		<path id="path162" class="st11" d="M7334.8,4511.7c-209.4,839.9-1094.7,1336-1924.6,1120.6c-89.7-23.3-180.4-55.6-263.7-100.3
			c-24.4,2.7-48.9,3.9-73.8,1.8c-99.4-8.3-197.3-38.1-288.6-77.3c-92.8-39.8-180.5-90.8-264.9-145.9
			c-675.2-441-986.8-1335.1-686.5-2096.6c129.6-328.6,351.3-614.2,615-846.5c126.3-111.3,263.7-205.1,403-298.9
			c68.9-46.5,136.8-94.7,199.8-149c59.9-51.7,117.5-109.1,157-178.2c17.6-30.7,30.4-63.4,36.4-98.3c2.1-12.1,19.2-1.6,21.7,4.6
			c15.2,38.1,19.3,79.5,18.6,120.7c16.1-53.1,32.8-105.9,61.3-153.8c6.7-11.3,24.5,0.6,27.5,9.1c37.5,106.5,31,224.5,69.9,329.5
			c0.8-52.9,7.7-106.3,17.8-157.5c13.2-66.8,33-146.8,85.6-194.3c8.8-7.9,24.1,3.7,27,12.1c38.7,111.6,103.4,212.5,172.6,308.2
			c-4-46.9,4.7-95,19.6-139.5c22-65.6,56.8-127.8,100.7-181.2c9.2-11.2,25.9-0.4,30.2,10c43.1,103,76.3,214.2,134.7,310
			c97.2,115.6,236.1,196.5,363.8,272.6c85.8,51.2,172.6,101.8,251.9,162.9c88.3,68.2,165.8,151.4,236.3,237.5
			c155.2,189.3,275.6,406.3,359,636.3c75.6,208.5,116.6,427.4,137.2,647.8C7400.1,4099.8,7384.2,4313.6,7334.8,4511.7"/>
		<path id="path164" class="st12" d="M4970.3,3470.8c-65.3,153.1-98.1,322.1-116.3,486.3c-21.8,196.2-22.9,399.5,18.2,593.3
			c11.4,53.6,26.4,106.9,46.6,157.9c38.8-142.9,67.2-288.7,85.3-435.6c22.4-182.5,29.8-368,11.8-551.1
			C5007.5,3637,4992.7,3552.9,4970.3,3470.8"/>
		<path id="path166" class="st12" d="M6348.6,3681.4c-21.1,160-22.2,322.4-33.8,483.2c-10.4,145-25.6,293.9-67.9,434.1
			c40.8-37.5,80.4-76.1,114.1-120c111.4-145.6,124.4-352.9,90.8-527.3C6433.4,3856,6399.2,3764.1,6348.6,3681.4"/>
		<path id="path168" class="st12" d="M6683.6,4221c-100.5,198.2-154.9,416.2-256.7,613.9c141.6-109.4,254.1-257.4,269.2-441.9
			C6700.9,4335.3,6695.6,4277.5,6683.6,4221"/>
		<path id="path170" class="st12" d="M5718.8,3743.3c-27.9,258.2-75.2,513.8-110.6,771.1c-1.3,9.2-2.3,18.4-3.6,27.7
			c36.7-61.2,77.3-120.6,106.5-185.8c29.4-65.6,41.7-135.8,46.9-207.1c5.5-75.4,3-151.3-5.5-226.3
			C5745.7,3862.4,5734.6,3802.2,5718.8,3743.3"/>
		<path id="path172" class="st13" d="M6173.8,5639.1c-52.4,12.5-105.6,22.4-159.2,29.5l0,0
			C6068.2,5661.4,6121.4,5651.5,6173.8,5639.1L6173.8,5639.1"/>
		<path id="path174" class="st14" d="M5394.7,5628.2c5.2,1.4,10.4,2.8,15.6,4.1c131,34,263.2,50.2,394.1,50.2
			c70.6,0,140.9-4.7,210.2-14l0,0c-69.3,9.3-139.5,14-210.2,14c-130.9,0-263.1-16.3-394.1-50.2
			C5405.1,5631,5399.9,5629.6,5394.7,5628.2"/>
		<path id="path176" class="st15" d="M7379.5,3878.1c0.1,0.7,0.1,1.4,0.2,2.2C7379.6,3879.5,7379.5,3878.8,7379.5,3878.1
			 M7379.7,3880.4c0.5,5.7,1,11.3,1.5,16.9c5.6,66.8,7.9,132.8,6.9,197.8l0,0C7389.1,4024.6,7386.3,3952.9,7379.7,3880.4
			 M7373.1,4307.5L7373.1,4307.5c-8.9,69.6-21.7,137.8-38.3,204.3c-5.5,22-11.4,43.7-17.8,65.2l0,0c6.4-21.5,12.3-43.2,17.8-65.2
			C7351.4,4445.3,7364.2,4377.1,7373.1,4307.5 M7236,4789.3L7236,4789.3c-204.9,434.4-605.4,741-1062.2,849.8l0,0
			C6630.6,5530.2,7031.1,5223.7,7236,4789.3"/>
		<path id="path178" class="st16" d="M7388.1,4095.1L7388.1,4095.1c-1.1,72.1-6.1,142.9-15,212.3l0,0
			C7382,4238,7387,4167.2,7388.1,4095.1"/>
		<path id="path180" class="st16" d="M7317,4576.9L7317,4576.9c-17.5,59-38.5,116.2-62.5,171.4v0
			C7278.6,4693.1,7299.5,4635.9,7317,4576.9"/>
		<path id="path182" class="st17" d="M7254.5,4748.3c-6,13.8-12.2,27.5-18.6,41l0,0C7242.3,4775.8,7248.5,4762.1,7254.5,4748.3
			L7254.5,4748.3"/>
		<path id="path184" class="st15" d="M3832.1,3215.5c-0.1,0.1-0.1,0.2-0.1,0.4C3832,3215.7,3832.1,3215.7,3832.1,3215.5
			 M3831.5,3217.1c0,0-0.1,0.1-0.1,0.2C3831.4,3217.3,3831.5,3217.2,3831.5,3217.1 M3830.8,3218.8c0,0.1-0.1,0.2-0.1,0.3
			C3830.8,3219,3830.8,3218.9,3830.8,3218.8 M3830.2,3220.3c0,0.1-0.1,0.2-0.1,0.3C3830.2,3220.5,3830.2,3220.4,3830.2,3220.3
			 M3829.6,3222c0,0-0.1,0.2-0.1,0.2C3829.5,3222.2,3829.6,3222.1,3829.6,3222 M3829,3223.5c0,0.1-0.1,0.2-0.1,0.3
			C3828.9,3223.7,3829,3223.6,3829,3223.5 M3827.7,3226.8c0,0.1-0.1,0.1-0.1,0.2C3827.7,3226.9,3827.7,3226.8,3827.7,3226.8
			 M3827.1,3228.5L3827.1,3228.5L3827.1,3228.5 M3826.5,3230c0,0,0,0.1-0.1,0.1C3826.5,3230.1,3826.5,3230.1,3826.5,3230
			 M3825.9,3231.6c0,0,0,0.1-0.1,0.1C3825.9,3231.7,3825.9,3231.6,3825.9,3231.6 M3824.7,3234.8c0,0.1,0,0.1-0.1,0.1
			C3824.6,3234.9,3824.7,3234.8,3824.7,3234.8 M3823.5,3238L3823.5,3238C3823.4,3238.1,3823.4,3238.1,3823.5,3238"/>
		<path id="path186" class="st18" d="M5151.8,1951.1c-2.9,0-5.9,1.2-8.4,3.9c-17.9,19.6-36,39.1-54.4,58.3
			c-144.5,151.2-302.9,288-462.1,423.3c-80.8,68.7-160.6,138.7-242.1,206.4c-71.7,59.6-141,122.2-206.5,188.5
			c-128.7,130.4-241.7,275.7-335.8,433c-20.8,34.8-41.7,69.7-62.2,104.8c14.5-51.3,31.6-102.3,51.3-152.6c-0.1,0.2-0.1,0.3-0.2,0.4
			c0,0-0.1,0.1-0.1,0.2c-0.2,0.5-0.4,0.9-0.6,1.4c0,0.1-0.1,0.2-0.1,0.3c-0.2,0.4-0.3,0.8-0.5,1.2c0,0.1-0.1,0.2-0.1,0.3
			c-0.2,0.5-0.4,0.9-0.6,1.4c0,0.1-0.1,0.1-0.1,0.2c-0.2,0.4-0.3,0.9-0.5,1.3c0,0.1-0.1,0.2-0.1,0.3c-0.4,1-0.8,2-1.1,3
			c0,0.1-0.1,0.2-0.1,0.2c-0.2,0.5-0.4,1-0.6,1.5l0,0c-0.2,0.5-0.4,1-0.6,1.6c0,0,0,0.1-0.1,0.1c-0.2,0.5-0.4,1-0.6,1.4
			c0,0.1,0,0.1-0.1,0.1c-0.4,1-0.8,2-1.2,3.1c0,0,0,0.1-0.1,0.1c-0.4,1-0.8,2.1-1.2,3.1c0,0,0,0,0,0.1
			c-202.7,539-102.3,1140.8,214,1600.1c-42.6-116.5-71.8-237.8-87.9-361c-23.8-182.1-19.5-366.9,5.6-548.6
			c25.5-184.6,72.9-366.1,137.4-540.9c63.8-173,144.1-340,239.4-497.7c11.8-19.5,23.8-38.8,36-58c2.6-4.1,6.7-5.9,10.7-5.9
			c7.6,0,15.2,6.4,12.4,15.6c-67.4,228.7-98.6,466.5-92,704.9c0.4,13.1,1.3,26.1,1.9,39.2c14.5-111.8,39.6-222.5,73.4-329.6
			c52.6-166.8,127.4-329.9,235.8-468.1c56.2-71.7,122.4-135.8,199.4-184.8c2-1.2,4.1-1.8,6.1-1.8c6.6,0,12.9,5.6,12.9,12.8
			c-0.6,160.6-53.9,314.4-90.8,469.1c-19.5,81.7-32.7,162.7-35.4,246.8c-2.9,87.5-2,175.1,0.6,262.6c1.7,56.7,4.2,113.3,6.9,169.9
			c18.5-124.1,38.8-247.9,66.4-370.5c40.5-180.6,93-366.7,191.3-525.3c45.3-73.2,102.9-141.6,178.3-185.1c2-1.1,4.1-1.7,6.2-1.7
			c4.4,0,8.6,2.3,11.1,6.2c46.9,71.5,62.1,158.8,69.4,242.6c7.5,86.1,4.4,172.6,10.1,258.7c3.8,57.4,3.7,115.4,5,172.9
			c1.3,59.3,2.4,118.5,3.2,177.8c0.7,49.8,0.9,99.5,1.3,149.3c13.9-133.1,30.8-265.8,56.5-397.4c17.4-89.3,38.9-177.9,66.8-264.5
			c2-6.2,6.9-9,11.8-9c6.2,0,12.5,4.5,13,12.4c20.8,282.6,58,563.7,86.5,845.6c7.4-52.7,15.2-105.2,22.8-157.4
			c16.5-112.7,34.6-225.6,40.1-339.5c5-104.6,4.8-209.5,14.8-313.9c10.2-106.3,28.4-221.7,92.5-310.3c2.6-3.6,7-6.4,11.5-6.4
			c2,0,4,0.6,5.8,1.9c78.3,56.8,123.9,144.9,154.6,234.5c33.4,97.6,50.6,199.8,67.9,301.1c17.2,100.5,32,201.2,43.7,302.2
			c9.4-87.6,23.8-174.4,51.5-258.5c1.9-5.6,7.5-9.2,13-9.2c4,0,7.9,1.9,10.1,6.1c32.5,62,53.3,129.1,67.9,197.4
			c-9-133.9-16-268-9.5-402.3c3.9-80.8,12.9-161.5,30.5-240.5c1.3-5.8,7-9.3,12.6-9.3c3.2,0,6.3,1.1,8.6,3.7
			c150.6,170.8,239.1,390.3,299.4,607.3c27.5,98.8,49.1,199.3,66.1,300.6c0.2-33.8,0.2-67.7-0.2-101.5c-1.2-86.8-1.8-174.6-9-261.1
			c-6.5-77.6-19-154.6-24.2-232.4c-5.2-77.4-5.5-160.7,29.3-232c2-4.1,6.5-6.2,11-6.2c3.3,0,6.6,1.2,8.9,3.7
			c145,163.2,238.5,364.2,292.9,574.3c55.3,213.2,73,435.4,69.9,655.1c-1.1,80-5.3,159.9-11.7,239.7c51.1-188.9,69.5-386,83.9-580.7
			c4.8-65.2,9.2-130.4,14.2-195.6c0.6-7.8,7.1-12.4,13.3-12.4c4.9,0,9.7,2.8,11.5,9.1c52.4,176.9,73,363.1,69.7,547.3
			c-3.5,194-33.7,388.8-95.2,573c-58.6,175.6-146.9,343.9-273.4,480.4c-143.9,155.3-335,263.3-542.1,306.4
			c-99.2,20.6-199.8,27.8-300.8,27.8c-112,0-224.5-8.8-335.6-17.7c-27.3-2.2-54.6-4.4-81.9-6.5c-16.4-1.3-16.2-23.7,0-25.3
			c179.8-18.1,311.4-149.9,415.9-286.3c7.3-9.5,14.2-19.2,21.4-28.8c-131.3,94.5-302.9,135.2-462.5,135.2c-8.6,0-17.3-0.1-25.8-0.4
			c-108-3-210.8-28.1-309.4-71.8c-109.7-48.6-207.3-118.4-299.1-194.9c-97.3-81-189.8-167.9-291.6-243.4
			c6.4,128.5,86.2,238.5,180.8,321.6c110.7,97.3,246.1,168.2,384.7,216.7c66.7,23.4,135.9,42.4,206.3,51c7.5,0.9,15.3,7.5,12.2,16
			c-17.2,47.8-53.1,77.3-96.4,95.1c75.4,39.1,156.2,68.7,236.8,90.6c5.2,1.4,10.4,2.8,15.6,4.1c131,34,263.2,50.2,394.1,50.2
			c70.6,0,140.9-4.7,210.2-14c53.7-7.2,106.8-17,159.2-29.5c456.8-108.8,857.3-415.4,1062.2-849.8l0,0c6.4-13.5,12.6-27.2,18.6-41
			c24-55.2,45-112.4,62.5-171.4c6.4-21.5,12.3-43.2,17.8-65.2c16.6-66.4,29.4-134.6,38.3-204.3c8.9-69.4,13.9-140.3,15-212.3
			c1-65.1-1.3-131.1-6.9-197.8c7.4,89.4,8.6,177.3,4.4,263.6c-9.6-111.9-22.3-223.5-42.3-334c-32.7-180.1-86.9-356.2-172.6-518.4
			c-98.7-186.6-238.1-345.1-388.4-491.7c-140.8-137.4-292.4-265.2-458.3-371.2c-136.7-87.3-295-176.7-364.6-331.1
			c-1.9-4.2-6.2-6.1-10.7-6.1c-5.7,0-11.6,3.2-12.5,9.1c-24.5,166.8-8.5,333.9,2.6,501.1c-105.5-173.3-191.4-358.2-236-557.1
			c-1.4-6.1-6.5-9.1-11.7-9.1c-5.4,0-11,3.1-12.7,9.1c-59.8,210.4-84.6,427-80.6,645.1c-81.8-195.1-122.6-404.6-164-611.4
			c-1.2-6-6.6-9.1-12.1-9.1c-4.4,0-8.8,2-11.1,6.1c-92.2,164.8-153.2,345.1-244.5,510.2c39.5-200.7,109.5-398.1,99.9-604.7
			c-0.3-7.4-7.2-12.7-13.7-12.7c-3.9,0-7.6,1.9-9.9,6.3c-25.1,50-54.6,97.9-86.1,144.1c-65.3,95.8-140.1,185.9-223.5,266.5
			c-51.5,49.8-108.1,98.9-170.6,136.4c17-20.7,34.2-41.3,51-62.2c128.4-159.9,251-325.8,350.2-505.6
			C5168.4,1961.1,5160.3,1951.1,5151.8,1951.1 M3832.2,3215.4c0,0,0,0.1,0,0.1c-0.1,0.1-0.1,0.2-0.1,0.4c0,0.1-0.1,0.2-0.1,0.3
			C3831.9,3216,3832,3215.7,3832.2,3215.4"/>
		<path id="path188" class="st15" d="M7379.7,3880.3c0,0,0,0.1,0,0.1C7379.7,3880.3,7379.7,3880.3,7379.7,3880.3"/>
		<path id="path190" class="st18" d="M3832.7,3214.1L3832.7,3214.1c-0.2,0.4-0.4,0.9-0.5,1.3
			C3832.3,3215,3832.5,3214.5,3832.7,3214.1 M3831.8,3216.2c-0.1,0.2-0.1,0.3-0.2,0.5C3831.7,3216.5,3831.8,3216.4,3831.8,3216.2"/>
		<path id="path192" class="st19" d="M7224.8,3183.5L7224.8,3183.5c6,15.5,11.9,31.1,17.5,46.8c45.1,124.6,78,252.9,101.5,383l0,0
			c-23.5-130.1-56.3-258.4-101.5-383C7236.6,3214.6,7230.8,3199.1,7224.8,3183.5 M7374.2,3825.6L7374.2,3825.6
			c1.9,17.5,3.6,34.9,5.3,52.4c0.6,6.4,1.2,12.8,1.7,19.2c-0.5-5.6-1-11.3-1.5-16.9c0,0,0-0.1,0-0.1c-0.1-0.7-0.1-1.4-0.2-2.2l0,0
			C7377.8,3860.6,7376.1,3843.1,7374.2,3825.6"/>
		<path id="path194" class="st20" d="M7343.8,3613.3L7343.8,3613.3c12.7,70.3,22.7,141.2,30.4,212.3h0
			C7366.5,3754.5,7356.5,3683.6,7343.8,3613.3"/>
		<path id="path196" class="st21" d="M5876.1,1596.2L5876.1,1596.2c8.3,0,17.4,7.5,20.5,14.7c23.7,56.4,44.3,115.4,67.8,172.9l0,0
			c-23.5-57.5-44.1-116.5-67.8-172.9C5893.6,1603.7,5884.5,1596.2,5876.1,1596.2"/>
		<path id="path198" class="st22" d="M5876.1,1596.2c-3.6,0-7,1.4-9.8,4.7l0,0c-43.9,53.4-78.7,115.6-100.7,181.2
			c-0.2,0.5-0.4,1.1-0.5,1.6c-12.2,36.7-20.1,75.9-20,114.7c0,7.7,0.3,15.5,1,23.2l0,0l0,0l0,0l0,0
			c-69.3-95.7-133.9-196.7-172.6-308.2c-2.2-6.4-11.7-14.7-20-14.7c-2.5,0-4.9,0.8-7,2.6c-46.7,42.1-67.5,109.8-80.9,171.1
			c-1.7,7.8-3.3,15.6-4.8,23.2c-10.1,51.2-17,104.6-17.8,157.5c-20.9-56.4-28.7-116.7-37.3-176.8c-7.4-51.8-15.3-103.5-32.6-152.7
			c-2.1-6-11.6-13.7-19.4-13.7c-3.2,0-6.1,1.3-8.1,4.6c-28.5,48-45.2,100.7-61.3,153.8l0,0l0,0l0,0l0,0c0-2.9,0.1-5.8,0.1-8.7
			c0-38.3-4.5-76.5-18.7-112c-1.7-4.2-9.8-10.2-15.7-10.2c-3,0-5.3,1.5-6,5.6c-6,34.9-18.8,67.6-36.4,98.3
			c-39.6,69.1-97.1,126.6-157,178.2l0,0c-62.5,53.9-129.9,101.8-198.2,148c-0.5,0.4-1.1,0.7-1.6,1.1
			c-139.2,93.9-276.6,187.7-403,298.9c-240.6,211.9-446.1,468.1-578.7,760.8c-8.3,18.2-16.2,36.6-23.9,55.2
			c-4.2,10.1-8.3,20.3-12.4,30.5l0,0c-0.2,0.4-0.4,0.9-0.5,1.3c-0.1,0.3-0.2,0.5-0.3,0.8c-0.1,0.2-0.1,0.3-0.2,0.5
			c-19.8,50.4-36.8,101.3-51.3,152.6c20.5-35.1,41.4-70,62.2-104.8c94.1-157.3,207.1-302.6,335.8-433
			c65.5-66.4,134.7-129,206.5-188.5c81.6-67.7,161.4-137.7,242.1-206.4c159.1-135.3,317.6-272.2,462.1-423.3
			c18.4-19.2,36.5-38.6,54.4-58.3c2.5-2.8,5.5-3.9,8.4-3.9c8.5,0,16.6,10.1,11.5,19.3c-99.2,179.9-221.8,345.7-350.2,505.6
			c-16.8,20.9-34,41.5-51,62.2c62.5-37.6,119.1-86.6,170.6-136.4c83.4-80.7,158.2-170.7,223.5-266.5c31.5-46.2,60.9-94.1,86.1-144.1
			c2.2-4.4,6-6.3,9.9-6.3c6.5,0,13.4,5.3,13.7,12.7c9.5,206.6-60.5,404-99.9,604.7c91.3-165.1,152.2-345.5,244.5-510.2
			c2.3-4.1,6.7-6.1,11.1-6.1c5.5,0,10.9,3.1,12.1,9.1c41.3,206.8,82.2,416.3,164,611.4c-4-218.1,20.8-434.6,80.6-645.1
			c1.7-5.9,7.3-9.1,12.7-9.1c5.2,0,10.4,2.9,11.7,9.1c44.6,199,130.5,383.9,236,557.1c-11.1-167.2-27.1-334.3-2.6-501.1
			c0.9-5.9,6.7-9.1,12.5-9.1c4.5,0,8.8,1.9,10.7,6.1c69.7,154.4,227.9,243.8,364.6,331.1c165.9,106,317.5,233.8,458.3,371.2
			c150.3,146.7,289.8,305.1,388.4,491.7c85.7,162.2,140,338.3,172.6,518.4c20,110.5,32.7,222.1,42.3,334c4.2-86.2,3-174.2-4.4-263.6
			c-0.5-6.4-1.1-12.8-1.7-19.2c-1.6-17.5-3.4-35-5.3-52.4c-7.7-71.1-17.7-142-30.4-212.3c-23.5-130.1-56.3-258.4-101.5-383
			c-5.7-15.6-11.5-31.2-17.5-46.8l0,0c-16.4-42.3-34-84.1-53-125.3c-3.9-8.4-7.8-16.8-11.7-25.1c-34.1-72-72-142.1-113.7-209.9
			c-49.2-79.9-103.5-156.6-163.1-229.2c-70.5-86.1-148-169.3-236.3-237.5c-79.2-61.2-166.1-111.8-251.9-162.9
			c-127.7-76.1-266.6-157-363.8-272.6c-26.4-43.3-47.6-89.7-67-137.1c-23.5-57.5-44.1-116.5-67.8-172.9
			C5893.6,1603.7,5884.5,1596.2,5876.1,1596.2"/>
	</g>
</g>
</svg>
