<?xml version="1.0" encoding="utf-8"?>
<!-- Generator: Adobe Illustrator 26.2.1, SVG Export Plug-In . SVG Version: 6.00 Build 0)  -->
<svg version="1.1" xmlns="http://www.w3.org/2000/svg" xmlns:xlink="http://www.w3.org/1999/xlink" x="0px" y="0px"
	 viewBox="0 0 367.2 351.4" style="enable-background:new 0 0 367.2 351.4;" xml:space="preserve">
<style type="text/css">
	.st0{fill:#00B4AC;}
	.st1{fill:#009E9B;}
	.st2{fill:#96CBC5;}
	.st3{fill:#41180F;}
	.st4{fill:#070808;}
	.st5{fill:#121211;}
	.st6{fill:#323232;}
	.st7{fill:#EDECEC;}
	.st8{fill:#CECECD;}
	.st9{fill:none;stroke:#A5A5A5;stroke-width:2.1467;stroke-miterlimit:10;}
	.st10{fill:#F6F1E9;}
	.st11{fill:#CDBAA2;}
	.st12{fill:#EC6B51;}
	.st13{fill:#D84620;}
	.st14{fill:#B9381C;}
	.st15{fill:#FCF7CF;}
	.st16{opacity:0.2;}
	.st17{fill:#FFFFFF;}
	.st18{fill:#014151;}
</style>
<g id="Layer_1">
</g>
<g id="Layer_2">
</g>
<g id="Layer_4">
</g>
<g id="Layer_3">
</g>
<g id="Layer_5">
</g>
<g id="Layer_6">
	<g>
	</g>
	<g>
		<circle class="st0" cx="183.6" cy="175.7" r="173.2"/>
		<path class="st1" d="M183.6,348.9c95.7,0,173.2-77.6,173.2-173.2c0-58.4-28.9-110-73.2-141.4L62.6,299.6
			C93.8,330.1,136.5,348.9,183.6,348.9z"/>
		<path class="st2" d="M279.8,122.7l13.6,1.9c0,0,16.2,18,24.7,37.3c8.5,19.4-33.5-6.3-33.5-6.3L279.8,122.7z"/>
		<path class="st3" d="M79.3,212c0,0-42.4,16.6-41.3,18.2c1.1,1.6,1.2,5.8,9.2,8c8,2.2,277.1,0.2,279.3,0.1c2.1-0.1,2.4-1.7,2.4-1.7
			l-48.1-36.1l-163.5-14.5L79.3,212z"/>
		<circle class="st4" cx="91.2" cy="240.9" r="29.1"/>
		<circle class="st5" cx="91.2" cy="240.9" r="16.6"/>
		<path class="st6" d="M111.5,240.7c0.2,2.6-0.2,5.4-1.1,7.9c-0.9,2.5-2.4,4.9-4.2,6.9c-1.9,2-4.1,3.6-6.6,4.7
			c-2.5,1.1-5.2,1.7-8,1.7c-2.7,0-5.5-0.5-8-1.5c-2.5-1.1-4.9-2.6-6.8-4.5c-1.9-1.9-3.4-4.3-4.4-6.8c-1-2.5-1.4-5.2-1.3-7.9
			c0.2,2.6,0.8,5.2,2,7.6c1.1,2.4,2.7,4.5,4.5,6.2c3.8,3.5,8.9,5.5,14,5.4c5.1,0,10.2-2.2,13.8-5.8c1.8-1.8,3.3-4,4.4-6.4
			C110.8,245.9,111.3,243.3,111.5,240.7z"/>
		<circle class="st7" cx="91.1" cy="241.2" r="11.3"/>
		<path class="st8" d="M91.2,252.6c6.3-0.1,11.3-5.2,11.2-11.5c0-0.6-0.1-1.1-0.1-1.6c-3.2,0.8-7.5,1.7-11.2,1.8
			c-3.4,0-7.7-0.6-11.3-1.3c-0.1,0.5-0.1,0.9-0.1,1.4C79.8,247.7,84.9,252.7,91.2,252.6z"/>
		<circle class="st9" cx="91.1" cy="241.2" r="3.7"/>
		<path class="st10" d="M325.8,178.4c-1.6-5.2-5.4-13.2-6-14.6c-0.6-1.4-1.9-3.3-3.3-3.3c-0.8,0-1.4-0.5-3.2-1l-21.7-34.7
			c1.2-0.1,1.8-0.1,1.8-0.1c0.2-0.7-4.8-5.9-13.1-6.6c-34.3-2.7-194.6,4-201.3,4.5c-19.6,1.4-30.6,6.2-30.6,9.3
			c0,0.1,0.5,0.2,1.5,0.1c-5,6.9-8,26.9-8.7,31.8c-0.1,0-0.2,0.1-0.2,0.1c-0.8,0.4-1.2,1.8-1.4,2.3c-0.2,0.5-0.9,2.6-0.9,3
			c0,0.4,0.7,0.7,1.1,0.7c0.5,0,286.9,27.2,286.9,27.2l0.9,0l3-2.4C330.6,194.7,327.4,183.6,325.8,178.4z M293.6,131.8l-0.9-1.6
			C293.3,131.1,293.6,131.8,293.6,131.8z"/>
		<path class="st11" d="M327.6,196.8l3-2.4c0,0-1.4-4.7-2.7-9.5c-1.5-2.4-7.4-11.8-10.3-14.1c-3.4-2.7-9.4-5.3-21.2-6.2
			c-11.8-0.9-32.9-1.2-46.1-1.1c-13.2,0-199.1,3.6-201.5,3.6c-2,0-6.8-0.4-10,1.6c0,0.1,0,0.2,0,0.2c0,0.4,0.7,0.7,1.1,0.7
			c0.5,0,286.9,27.2,286.9,27.2L327.6,196.8z"/>
		<path class="st12" d="M70.4,199.8l-4,14.4c1.1,0,3.4-0.1,4.1-0.1c0.6,0,1.1-0.4,1.3-0.9c0.8-2.2,2.8-7.8,3.2-8.6
			c0.5-1,1.5-3.4,4.7-4c0,0-1.4,0-1.4,0C75.9,200.3,70.4,199.8,70.4,199.8z"/>
		<path class="st13" d="M331.3,233.5c0,0,0.9-30.6-0.5-37.7c-1.4-7.1-10.4-20.1-15-23.4c-4.7-3.3-15.4-6.8-40.2-7.1
			c-24.8-0.2-214.4,3.3-214.4,3.3S43,169,41.7,169s-2.4,0.6-2.4,0.6s-3.2,35.8-2.2,49.5c1,13.7,0.9,15.3,3.3,16.1
			c2,0.7,10.6,0.4,13.2,0.3c0.5,0,0.9-0.3,1.1-0.8c0.7-1.9,2.4-6.6,2.7-7.3c0.4-0.9,1.4-3.1,4.5-3.4s52.7,0,53.8,0s2.7-0.1,3.8,1.7
			c1.1,1.8,4.6,8.1,5.4,8.8c0.9,0.7,1.8,1,2.8,1.6c1,0.7,99.9,0.4,99.9,0.4s3,0.3,3.7-2.1c0.6-2.5,4.2-13,7.4-16.2
			c3.2-3.1,10.3-8.4,20.4-8.5c17.3-0.2,26.2,7.1,29.6,14c3.4,6.8,4.2,10.3,5.4,11.8c1.3,1.5,2.4,2,6.7,2s26.8-0.8,27.9-0.9
			C329.9,236.5,331.3,234.9,331.3,233.5z"/>
		<path class="st13" d="M315.9,162.1"/>
		<path class="st14" d="M40.5,235.6c2,0.7,10.6,0.4,13.2,0.3c0.5,0,0.9-0.3,1.1-0.8c0.7-1.9,2.4-6.6,2.7-7.3
			c0.4-0.9,1.4-3.1,4.5-3.4c3.1-0.3,52.7,0,53.8,0c1.1,0,2.7-0.1,3.8,1.7c1.1,1.8,4.6,8.1,5.4,8.8c0.9,0.7,1.8,1,2.8,1.6
			c1,0.7,99.9,0.4,99.9,0.4s3,0.3,3.7-2.1c0.6-2.5,4.2-13,7.4-16.2c3.2-3.1,10.3-8.4,20.4-8.5c17.3-0.2,26.2,7.1,29.6,14
			c3.4,6.8,4.2,10.3,5.4,11.8s2.4,2,6.7,2c4.3,0,26.8-0.8,27.9-0.9c1.1,0,2.4-1.6,2.5-3c0,0,0.9-30.6-0.5-37.7
			c-0.7-3.5-3.2-8.4-6.1-12.9c0,0-18.5-4.7-26.8-4.9C218.4,176.4,128.8,216,56.7,210c-7.1-0.6-20.9-6.9-19.6-6
			c-0.2,6.1-0.3,11.6,0,15.5C38.2,233.2,38.1,234.8,40.5,235.6z"/>
		<path class="st2" d="M306,153.3l-13.8-21.7c-1.6-2.5-4.4-4.1-7.4-4l-52.2,0.7c-2.1,0-3.7,1.7-3.7,3.8l0.3,26.3l74.6-0.9
			C305.9,157.4,307.2,155.1,306,153.3z"/>
		<path class="st2" d="M215.6,128.5l-38.2,0.5c-2.3,0-4.1,1.9-4.1,4.2l0.3,21.7c0,2.3,1.9,4.1,4.2,4.1l38.2-0.5
			c2.3,0,4.1-1.9,4.1-4.2l-0.3-21.7C219.8,130.3,217.9,128.5,215.6,128.5z"/>
		<path class="st2" d="M159.8,129.2l-38.2,0.5c-2.3,0-4.1,1.9-4.1,4.2l0.3,21.7c0,2.3,1.9,4.1,4.2,4.1l38.2-0.5
			c2.3,0,4.1-1.9,4.1-4.2l-0.3-21.7C164,131,162.1,129.2,159.8,129.2z"/>
		<path class="st2" d="M103.9,129.9l-38.2,0.5c-2.3,0-4.1,1.9-4.1,4.2l0.3,21.7c0,2.3,1.9,4.1,4.2,4.1l38.2-0.5
			c2.3,0,4.1-1.9,4.1-4.2l-0.3-21.7C108.1,131.7,106.2,129.9,103.9,129.9z"/>
		<path class="st2" d="M62.2,91.3C62.2,91.2,62.2,91.2,62.2,91.3C61.9,91.2,61.9,91.2,62.2,91.3z"/>
		<path class="st2" d="M62.2,91.3c-5.1,7-8.4,25.3-9.8,34.2l8.6-0.1c2.7,0,4.9-2.3,4.9-5l-0.3-25.8C65.5,91.8,62.9,91.3,62.2,91.3z"
			/>
		<polyline class="st10" points="280.1,124.6 298,161.1 296.1,161.1 276.5,121.6 		"/>
		<circle class="st4" cx="261.1" cy="241.5" r="29.1"/>
		<circle class="st5" cx="261.1" cy="241.5" r="16.6"/>
		<path class="st6" d="M281.3,241.2c0.2,2.6-0.2,5.4-1.1,7.9c-0.9,2.5-2.4,4.9-4.2,6.9c-1.9,2-4.1,3.6-6.6,4.7
			c-2.5,1.1-5.2,1.7-8,1.7c-2.7,0-5.5-0.5-8-1.5c-2.5-1.1-4.9-2.6-6.8-4.5c-1.9-1.9-3.4-4.3-4.4-6.8c-1-2.5-1.4-5.2-1.3-7.9
			c0.2,2.6,0.8,5.2,2,7.6c1.1,2.4,2.7,4.5,4.5,6.2c3.8,3.5,8.9,5.5,14,5.4c5.1,0,10.2-2.2,13.8-5.8c1.8-1.8,3.3-4,4.4-6.4
			C280.6,246.4,281.2,243.8,281.3,241.2z"/>
		<circle class="st7" cx="260.9" cy="241.8" r="11.3"/>
		<path class="st8" d="M261,253.1c6.3-0.1,11.3-5.2,11.2-11.5c0-0.6-0.1-1.1-0.1-1.6c-3.2,0.8-7.5,1.7-11.2,1.8
			c-3.4,0-7.7-0.6-11.3-1.3c-0.1,0.5-0.1,0.9-0.1,1.4C249.6,248.2,254.8,253.2,261,253.1z"/>
		<circle class="st9" cx="260.9" cy="241.8" r="3.7"/>
		<path class="st7" d="M330.1,193.1c0.1,5.5-3.1,10-5,10c-1.9,0-3.4-4.4-3.5-9.9c-0.1-5.5,1.4-9.9,3.2-10
			C326.7,183.2,330,187.6,330.1,193.1z"/>
		<path class="st8" d="M321.6,193.6c0.1,5.3,1.7,9.5,3.5,9.5c1.8,0,4.9-4.3,5-9.6l-6-0.8C324.1,192.7,324.6,193.5,321.6,193.6z"/>
		<path class="st15" d="M330.2,193.1c0.1,4.6-2.1,8.4-2.8,8.4c-1.6,0-3.2-3.7-3.3-8.3c-0.1-4.6,1.2-8.3,2.9-8.4
			C328.2,184.8,330.1,188.5,330.2,193.1z"/>
		<path class="st7" d="M333.2,231.9l-31.1,0.4c-2.6,0-4.6-2.6-4.5-5.8l0,0c0.1-2.9,2-5.2,4.4-5.2l31.5-0.4c0.8,0,0.8,0.4,0.8,1.8
			C334.3,225.6,334.2,231.9,333.2,231.9z"/>
		<path class="st7" d="M45.2,214.5l9.8-0.1c3,0,5.4-3.2,5.2-7l0,0c-0.2-3.4-2.6-6.1-5.3-6l-10.3,0.1c-0.9,0-0.9,0.5-0.9,2.1
			C43.7,207,44,214.5,45.2,214.5z"/>
		<path class="st16" d="M159.3,68.5c-12.1-33.5-49-50.8-82.5-38.7c-33.5,12.1-50.8,49-38.7,82.5c10.9,30.2,42.1,47.2,72.6,41.4
			l25.7,18l-0.9-28.4C158.9,126.9,169.4,96.5,159.3,68.5z"/>
		<circle class="st17" cx="91.3" cy="84.8" r="64.4"/>
		<path class="st18" d="M78.1,105.2c3-6.9,8.6-12.5,16-15.2c7.4-2.7,15.3-1.9,22,1.5l4.9-11.4c-9.6-4.8-20.7-5.9-31.3-2.1
			c-10.5,3.8-18.4,11.8-22.7,21.6L78.1,105.2z M58.8,95.5C64,83.5,73.6,73.7,86.5,69s26.5-3.3,38.2,2.6l5.1-11.7
			c-14.6-7.4-31.6-9-47.7-3.2s-28.1,18-34.6,33L58.8,95.5z"/>
		<polygon class="st17" points="129.1,166.1 91.2,139.6 127.5,120 		"/>
		<circle class="st18" cx="101.8" cy="111.4" r="9.6"/>
	</g>
</g>
</svg>
