<?xml version="1.0" encoding="utf-8"?>
<!-- Generator: Adobe Illustrator 26.2.1, SVG Export Plug-In . SVG Version: 6.00 Build 0)  -->
<svg version="1.1" id="Layer_1" xmlns="http://www.w3.org/2000/svg" xmlns:xlink="http://www.w3.org/1999/xlink" x="0px" y="0px"
	 viewBox="0 0 507.9 507.9" style="enable-background:new 0 0 507.9 507.9;" xml:space="preserve">
<style type="text/css">
	.st0{fill:#0085C0;}
	.st1{fill:#0095DA;}
	.st2{fill:none;}
	.st3{fill:#61C2DA;}
	.st4{fill:#A8D9E2;}
	.st5{fill:#156B92;}
	.st6{fill:#FFFFFF;}
	.st7{fill:#74285F;}
	.st8{fill:#5D204C;}
	.st9{fill:#B565A4;}
	.st10{fill:#D7D6D6;}
	.st11{fill:#EEEEEE;}
</style>
<g>
	<g>
		<circle class="st0" cx="253.9" cy="253.9" r="252.6"/>
		<path class="st1" d="M34.1,129.6l421.4,276.6c32-42.4,51-95.1,51-152.3c0.1-139.5-113-252.6-252.6-252.6
			C159.7,1.4,77.5,53.1,34.1,129.6z"/>
	</g>
	<circle class="st2" cx="253.9" cy="254" r="252.6"/>
	<path class="st2" d="M253.9,1.4c139.5,0,252.6,113.1,252.6,252.6S393.4,506.5,253.9,506.5c-62.1,0-119-22.4-162.9-59.6
		c-2.7-2.3-5.3-4.6-7.9-6.9C32.9,393.8,1.4,327.6,1.4,253.9C1.4,114.5,114.5,1.4,253.9,1.4z"/>
	<g>
		<path class="st3" d="M254.1,435.6H254c-11.8,0-23.5-1.1-34.9-3.4l1.9-9.9c10.8,2.1,21.9,3.2,33,3.2L254.1,435.6z M289.1,432.1
			l-2-9.9c10.9-2.2,21.6-5.4,31.8-9.6l3.9,9.3C311.9,426.4,300.6,429.8,289.1,432.1z M185.3,422c-10.8-4.5-21.3-10.1-31.1-16.6
			l5.6-8.4c9.2,6.2,19.1,11.4,29.3,15.7L185.3,422z M353.8,405.3l-5.6-8.4c9.2-6.2,17.8-13.3,25.7-21.1l7.1,7.1
			C372.7,391.2,363.6,398.7,353.8,405.3z M127,383c-8.3-8.3-15.8-17.4-22.4-27.2l8.4-5.6c6.2,9.2,13.3,17.8,21.1,25.7L127,383z
			 M403.4,355.7l-8.4-5.6c6.2-9.2,11.4-19.1,15.7-29.3l9.3,3.9C415.5,335.5,409.9,345.9,403.4,355.7z M88,324.8
			c-4.5-10.8-8-22.2-10.2-33.7l9.9-2c2.2,10.9,5.4,21.6,9.7,31.8L88,324.8z M430.2,290.9l-9.9-2c2.1-10.8,3.2-22,3.2-33.1v-0.4h10.1
			v0.4C433.6,267.7,432.5,279.5,430.2,290.9z M84.4,256.1H74.3v-0.2c0-11.7,1.1-23.4,3.4-34.8l9.9,1.9c-2.1,10.8-3.2,21.8-3.2,32.9
			V256.1z M420.2,222.4c-2.2-10.9-5.4-21.6-9.7-31.8l9.3-3.9c4.5,10.8,8,22.2,10.3,33.7L420.2,222.4z M97.1,191.2l-9.3-3.8
			c4.5-10.8,10.1-21.3,16.6-31.1l8.4,5.6C106.6,171.1,101.4,181,97.1,191.2z M394.8,161.4c-6.2-9.2-13.3-17.8-21.2-25.6l7.1-7.1
			c8.3,8.3,15.9,17.4,22.4,27.2L394.8,161.4z M133.9,136.1l-7.1-7.1c8.3-8.3,17.4-15.8,27.2-22.4l5.6,8.4
			C150.3,121.2,141.7,128.3,133.9,136.1z M347.9,114.7c-9.2-6.2-19.1-11.4-29.3-15.6l3.8-9.3c10.8,4.5,21.3,10,31.1,16.6
			L347.9,114.7z M188.8,99.3l-3.9-9.3c10.8-4.5,22.2-8,33.7-10.3l2,9.9C209.7,91.8,199,95,188.8,99.3z M286.7,89.5
			C276,87.4,265,86.3,254,86.3h-0.3V76.2h0.3c11.7,0,23.4,1.1,34.7,3.4L286.7,89.5z"/>
	</g>
	<g>
		<polygon class="st4" points="215.4,120 204.7,115 219.3,84.3 188.6,69.7 193.7,59.1 235,78.7 		"/>
	</g>
	<g>
		<polygon class="st4" points="230.6,461.3 203.8,424.3 240.8,397.4 247.7,406.9 220.2,426.9 240.1,454.4 		"/>
	</g>
	<g>
		<path class="st5" d="M244.9,156.2h-143c-2.7,0-4.9,2.2-4.9,4.9v202c0,2.7,2.2,4.9,4.9,4.9h137.2c5.9,0,10.6-4.8,10.6-10.6V161.1
			C249.7,158.4,247.6,156.2,244.9,156.2z"/>
		<path class="st5" d="M424.3,117.5h-143c-2.7,0-4.9,2.2-4.9,4.9V293c0,2.7,2.2,4.9,4.9,4.9h136.5c6.3,0,11.4-5.1,11.4-11.4V122.4
			C429.1,119.7,427,117.5,424.3,117.5z"/>
		<path class="st5" d="M420.9,328.7H284.6c-4.5,0-8.2,3.7-8.2,8.2V398c0,4.5,3.7,8.2,8.2,8.2h136.3c4.5,0,8.2-3.7,8.2-8.2v-61.1
			C429.1,332.4,425.4,328.7,420.9,328.7z"/>
	</g>
	<path class="st6" d="M237.7,359H90.8c-1.6,0-2.9-1.3-2.9-2.9V150.2c0-1.6,1.3-2.9,2.9-2.9h146.9c1.6,0,2.9,1.3,2.9,2.9v205.9
		C240.6,357.7,239.3,359,237.7,359z"/>
	<path class="st7" d="M417.1,288.9H270.2c-1.6,0-2.9-1.3-2.9-2.9V111.5c0-1.6,1.3-2.9,2.9-2.9h146.9c1.6,0,2.9,1.3,2.9,2.9v174.5
		C420,287.7,418.7,288.9,417.1,288.9z"/>
	<path class="st7" d="M417,397.3H270.1c-1.6,0-2.9-1.3-2.9-2.9v-71.8c0-1.6,1.3-2.9,2.9-2.9H417c1.6,0,2.9,1.3,2.9,2.9v71.8
		C419.9,396,418.6,397.3,417,397.3z"/>
	<path class="st8" d="M415.1,319.8h-43.7v77.6h43.7c2.7,0,4.9-2.2,4.9-4.9v-67.8C419.9,322,417.8,319.8,415.1,319.8z"/>
	<g>
		<rect x="300.2" y="351.8" class="st9" width="91.1" height="13.4"/>
	</g>
	<path class="st7" d="M235.8,147.3h-143c-2.7,0-4.9,2.2-4.9,4.9v38.2h152.7v-38.2C240.6,149.5,238.4,147.3,235.8,147.3z"/>
	<g>
		<rect x="119.4" y="226.5" class="st10" width="83.2" height="14"/>
	</g>
	<g>
		<rect x="119.4" y="266.5" class="st10" width="83.2" height="14"/>
	</g>
	<g>
		<rect x="119.4" y="306.5" class="st10" width="55.2" height="14"/>
	</g>
	<path class="st8" d="M267.2,191.8v92.3c0,2.7,2.2,4.9,4.9,4.9h143c2.7,0,4.9-2.2,4.9-4.9V210L267.2,191.8z"/>
	<g>
		<path class="st8" d="M404.6,204.3c0.2-2,0.4-4.1,0.4-6.2s-0.1-4.1-0.4-6.2l-12-4.3c-1-4.1-2.7-8-4.8-11.6l5.5-11.5
			c-2.6-3.2-5.5-6.2-8.8-8.7l-11.5,5.5c-3.5-2.1-7.4-3.7-11.5-4.7l-4.3-12c-2-0.2-4.1-0.4-6.2-0.4c-2.1,0-4.2,0.1-6.2,0.4l-4.3,12
			c-4.1,1-8,2.6-11.5,4.7l-11.5-5.5c-3.3,2.6-6.2,5.5-8.8,8.7l5.5,11.5c-2.2,3.6-3.8,7.5-4.8,11.6l-12,4.3c-0.2,2-0.4,4.1-0.4,6.2
			s0.1,4.1,0.4,6.2l12,4.3c1,4.1,2.7,8,4.8,11.6l-5.5,11.5c2.6,3.2,5.5,6.2,8.8,8.7l11.5-5.5c3.5,2.1,7.4,3.7,11.5,4.7l4.3,12
			c2,0.2,4.1,0.4,6.2,0.4c2.1,0,4.2-0.1,6.2-0.4l4.3-12c4.1-1,8-2.6,11.5-4.7l11.5,5.5c3.3-2.6,6.2-5.5,8.8-8.7l-5.5-11.5
			c2.2-3.6,3.8-7.5,4.8-11.6L404.6,204.3z M351,217.2c-10.5,0-19.1-8.5-19.1-19.1c0-10.5,8.5-19.1,19.1-19.1
			c10.5,0,19.1,8.5,19.1,19.1C370,208.7,361.5,217.2,351,217.2z"/>
	</g>
	<g>
		<path class="st11" d="M398.9,201.4c0.2-2,0.4-3.9,0.4-6c0-2-0.1-4-0.4-6l-11.6-4.1c-1-4-2.6-7.8-4.7-11.2l5.3-11.1
			c-2.5-3.1-5.3-6-8.5-8.4l-11.1,5.3c-3.4-2-7.2-3.6-11.1-4.6l-4.1-11.6c-2-0.2-4-0.4-6-0.4s-4,0.1-6,0.4l-4.1,11.6
			c-4,1-7.7,2.5-11.1,4.6l-11.1-5.3c-3.1,2.5-6,5.3-8.5,8.4l5.3,11.1c-2.1,3.4-3.7,7.2-4.7,11.2l-11.6,4.1c-0.2,2-0.4,3.9-0.4,6
			s0.1,4,0.4,6l11.6,4.1c1,4,2.6,7.8,4.7,11.2l-5.3,11.1c2.5,3.1,5.3,6,8.5,8.4l11.1-5.3c3.4,2,7.2,3.6,11.1,4.6l4.1,11.6
			c2,0.2,4,0.4,6,0.4s4-0.1,6-0.4l4.1-11.6c4-1,7.7-2.5,11.1-4.6l11.1,5.3c3.1-2.5,6-5.3,8.5-8.4l-5.3-11.1
			c2.1-3.4,3.7-7.2,4.7-11.2L398.9,201.4z M347,213.9c-10.2,0-18.4-8.2-18.4-18.4c0-10.2,8.2-18.4,18.4-18.4
			c10.2,0,18.4,8.2,18.4,18.4C365.4,205.6,357.2,213.9,347,213.9z"/>
	</g>
	<path class="st8" d="M215.7,179.2h-9.1c-3.7,0-6.7-3-6.7-6.7v-9.1c0-3.7,3-6.7,6.7-6.7h9.1c3.7,0,6.7,3,6.7,6.7v9.1
		C222.4,176.2,219.4,179.2,215.7,179.2z"/>
	<path class="st10" d="M363.8,203c-2.9,6.4-9.3,10.9-16.8,10.9c-9.1,0-16.6-6.6-18.1-15.2l-34.1-4.2c0,0.3,0,0.7,0,1
		c0,2,0.1,4,0.3,6l11.6,4.1c1,4,2.6,7.8,4.7,11.2l-5.3,11.1c2.5,3.1,5.3,6,8.5,8.4l11.1-5.3c3.4,2,7.2,3.6,11.1,4.6l4.1,11.6
		c2,0.2,4,0.4,6,0.4s4-0.1,6-0.4l4.1-11.6c4-1,7.7-2.5,11.1-4.6l11.1,5.3c3.1-2.5,6-5.3,8.5-8.4l-5.3-11.1c2-3.3,3.6-7,4.6-10.9
		L363.8,203z"/>
</g>
</svg>
