<?xml version="1.0" encoding="utf-8"?>
<!-- Generator: Adobe Illustrator 27.5.0, SVG Export Plug-In . SVG Version: 6.00 Build 0)  -->
<svg version="1.1" id="Layer_1" xmlns="http://www.w3.org/2000/svg" xmlns:xlink="http://www.w3.org/1999/xlink" x="0px" y="0px"
	 viewBox="0 0 507.9 507.9" style="enable-background:new 0 0 507.9 507.9;" xml:space="preserve">
<style type="text/css">
	.st0{fill:#009F9C;}
	.st1{fill:#00ABA8;}
	.st2{clip-path:url(#SVGID_00000006710250495643704410000015625458815830744504_);}
	.st3{fill:#281D0A;}
	
		.st4{clip-path:url(#SVGID_00000032649104553376732290000016001772425438344893_);fill:url(#SVGID_00000054966220333661288880000007982085824054619040_);}
	.st5{fill:#CAAA6E;}
	.st6{fill:#C88E2F;}
	.st7{fill:#3E2C09;}
	.st8{fill:#FFFFFF;}
	
		.st9{clip-path:url(#SVGID_00000155847301897447987090000006291702432512278457_);fill:url(#SVGID_00000087374847495740321850000015312276722108498361_);}
	
		.st10{clip-path:url(#SVGID_00000088129660878402590720000009781102348169133735_);fill:url(#SVGID_00000127762572526541347010000014402494388347613322_);}
	.st11{fill:none;stroke:#231C1E;stroke-width:1.351;stroke-linecap:round;stroke-miterlimit:10;}
	.st12{fill:#FEF3F7;}
	.st13{fill:#687167;}
	.st14{fill:#542F82;}
	.st15{fill:none;stroke:#231F20;stroke-width:1.351;stroke-miterlimit:10;}
	.st16{fill:#6F2C87;}
	.st17{fill:#3A2C1C;}
	.st18{fill:#745B45;}
	.st19{fill:#B34218;}
	
		.st20{clip-path:url(#SVGID_00000168088506924846954220000018348551176682222247_);fill:url(#SVGID_00000010993188508977150820000013711109854863157689_);}
	.st21{fill:#F4D9A3;}
	.st22{fill:#8F6240;}
	.st23{fill:#2A1D01;}
	.st24{fill:#A8856F;}
	.st25{fill:#A8713F;}
	.st26{fill:#DFE5E8;}
	.st27{fill:#CBD0D4;}
	.st28{fill:#D14E20;}
	.st29{fill:none;stroke:#FFFFFF;stroke-width:5.75;stroke-miterlimit:10;}
	.st30{fill:#B3431F;}
	.st31{fill:#754B1D;}
	.st32{fill:#54340A;}
	.st33{fill:#F05A24;}
	.st34{fill:#F97C55;}
	.st35{fill:#C7C8CA;}
	.st36{clip-path:url(#SVGID_00000107563512121870269800000009562767501063248024_);fill:#1D1D1B;}
	.st37{fill:#D6D4D9;}
	.st38{clip-path:url(#SVGID_00000104670499755204397900000018396215928593932973_);fill:#1D1D1B;}
</style>
<g id="Layer_3">
</g>
<g id="Layer_5">
</g>
<circle class="st0" cx="253.9" cy="253.9" r="253.2"/>
<path class="st1" d="M33.5,129.2l422.4,277.3C488,364,507,311.2,507,253.9C507.1,114.2,393.8,0.8,253.9,0.8
	C159.4,0.8,77.1,52.5,33.5,129.2z"/>
<g>
	<defs>
		<circle id="SVGID_1_" cx="253.9" cy="253.9" r="253.2"/>
	</defs>
	<clipPath id="SVGID_00000133489920932323684000000004779728067027252884_">
		<use xlink:href="#SVGID_1_"  style="overflow:visible;"/>
	</clipPath>
	<g style="clip-path:url(#SVGID_00000133489920932323684000000004779728067027252884_);">
		<g>
			<path class="st3" d="M428.9,191.7c-22.8-8.7-49.6-3.7-71.5,17c-21.9,20.6-32.8,74.2-13.7,105.4c19.1,31.2-9.6,36.2-9.6,36.2
				s10.9,6,17.8-1.4c0,0,1,14.2-6.4,28.4c-9.6,18.3-5.7,29.6,5,55c5,11.9,17.3,25.7,9.6,31.6l50.1-22l54.2-30.2L438,390.2
				l-12.3-125.6L428.9,191.7z"/>
			<path class="st3" d="M399.7,195.9c0,0,18.2-8.2,36-8.7c17.8-0.5,45.4,13.4,58.1,41.4c12.8,28-4.4,85.6-2.1,94.7
				c2.3,9.2,9.6,11.5,13.2,7.3c0,0-2.7,11.5-16.8,5c0,0-1.8,7.3,3.2,21.5c5,14.2,5.9,31.2,5.5,46.7c-0.9,31.6-33.2,49-30.1,55.9
				c3.2,6.9,8.2,3.7,8.2,3.7s-2.3,6.4-10.9,3.2c-8.7-3.2-12.8-25.2-12.8-25.2l-61.9-0.9l-7.3-30.2L399.7,195.9z"/>
		</g>
		<g>
			<defs>
				<path id="SVGID_00000019654077837407272570000013290862900068473253_" d="M417.8,335.6L417.8,335.6h-16.3v25.3
					c0,9.6-8.4,14.2-21.8,18.7c-13.4,4.5-15.1,12.9-15.1,12.9l6.4,36.6l96.7,0.9l2.3-35.5c0,0,3.9-6.7-9.6-11.2
					c-13.4-4.5-26.2-12.6-26.2-22.2v-25.3H417.8z"/>
			</defs>
			<clipPath id="SVGID_00000041995447060035507570000015688850226920244619_">
				<use xlink:href="#SVGID_00000019654077837407272570000013290862900068473253_"  style="overflow:visible;"/>
			</clipPath>
			
				<linearGradient id="SVGID_00000039853940529208343300000005988317267239556224_" gradientUnits="userSpaceOnUse" x1="-45.4193" y1="656.5278" x2="-44.9536" y2="656.5278" gradientTransform="matrix(0 -304.3206 -304.3206 0 200209.3125 -13344.7471)">
				<stop  offset="0" style="stop-color:#CAAA6E"/>
				<stop  offset="1" style="stop-color:#A58C5B"/>
			</linearGradient>
			
				<rect x="316.7" y="335.6" style="clip-path:url(#SVGID_00000041995447060035507570000015688850226920244619_);fill:url(#SVGID_00000039853940529208343300000005988317267239556224_);" width="195.5" height="141.7"/>
		</g>
		<g>
			<path class="st5" d="M476.3,262.8c0,46.8-16.5,85.1-58.9,85.1c-42.4,0-58.1-38.7-58.1-85.5c0-46.8,16.4-51.7,58.8-51.7
				C460.5,210.7,476.3,216,476.3,262.8"/>
			<path class="st6" d="M402.2,290c0,6.4-5.2,11.6-11.7,11.6c-6.5,0-11.7-5.2-11.7-11.6c0-6.4,5.2-11.6,11.7-11.6
				C397,278.4,402.2,283.6,402.2,290"/>
			<path class="st7" d="M399.2,290c0,4.5-3.6,8.1-8.1,8.1c-4.5,0-8.1-3.6-8.1-8.1c0-4.5,3.6-8.1,8.1-8.1
				C395.6,281.9,399.2,285.5,399.2,290"/>
			<path class="st8" d="M387.7,285.8c0,1.3-1,2.4-2.3,2.4c-1.3,0-2.3-1.1-2.3-2.4c0-1.3,1-2.3,2.3-2.3
				C386.7,283.5,387.7,284.5,387.7,285.8"/>
			<path class="st7" d="M392,318.6c8,4.9,16.6,7.9,25.3,7.8c8.7,0,17.1-3.4,25.4-7.8c-3.1,3.6-6.9,6.6-11.2,8.8
				c-4.3,2.2-9.2,3.4-14.2,3.5c-4.9,0-9.9-1.1-14.2-3.3C398.7,325.4,394.8,322.4,392,318.6"/>
		</g>
		<g>
			<defs>
				<path id="SVGID_00000018234929441272420580000016197075759803580862_" d="M369.7,310.9c0,6,4.9,10.9,10.9,10.9
					c6,0,10.9-4.9,10.9-10.9c0-6.1-4.9-11-10.9-11C374.5,300,369.7,304.9,369.7,310.9"/>
			</defs>
			<clipPath id="SVGID_00000108987925342643284790000010157274236316929446_">
				<use xlink:href="#SVGID_00000018234929441272420580000016197075759803580862_"  style="overflow:visible;"/>
			</clipPath>
			
				<radialGradient id="SVGID_00000103950134504265339910000013011384040148143266_" cx="-77.9164" cy="652.8869" r="0.439" gradientTransform="matrix(24.7748 0 0 -24.9353 2310.8965 16590.8203)" gradientUnits="userSpaceOnUse">
				<stop  offset="0" style="stop-color:#C88C66"/>
				<stop  offset="1" style="stop-color:#CAAA6E"/>
			</radialGradient>
			
				<rect x="369.7" y="300" style="clip-path:url(#SVGID_00000108987925342643284790000010157274236316929446_);fill:url(#SVGID_00000103950134504265339910000013011384040148143266_);" width="21.8" height="21.9"/>
		</g>
		<g>
			<defs>
				<path id="SVGID_00000070805346769387613380000018118268795249520012_" d="M439.2,310.9c0,6,4.9,10.9,10.9,10.9
					c6,0,10.9-4.9,10.9-10.9c0-6.1-4.9-11-10.9-11C444,300,439.2,304.9,439.2,310.9"/>
			</defs>
			<clipPath id="SVGID_00000152963556895782000410000009847004648204693912_">
				<use xlink:href="#SVGID_00000070805346769387613380000018118268795249520012_"  style="overflow:visible;"/>
			</clipPath>
			
				<radialGradient id="SVGID_00000143595545291152432950000016074305351818355897_" cx="-81.5015" cy="652.8869" r="0.439" gradientTransform="matrix(24.7748 0 0 -24.9353 2469.2266 16590.8203)" gradientUnits="userSpaceOnUse">
				<stop  offset="0" style="stop-color:#C88C66"/>
				<stop  offset="1" style="stop-color:#CAAA6E"/>
			</radialGradient>
			
				<rect x="439.2" y="300" style="clip-path:url(#SVGID_00000152963556895782000410000009847004648204693912_);fill:url(#SVGID_00000143595545291152432950000016074305351818355897_);" width="21.8" height="21.9"/>
		</g>
		<g>
			<path class="st6" d="M433.6,290c0,6.4,5.2,11.6,11.7,11.6c6.5,0,11.7-5.2,11.7-11.6c0-6.4-5.2-11.6-11.7-11.6
				C438.8,278.4,433.6,283.6,433.6,290"/>
			<path class="st7" d="M436.6,290c0,4.5,3.6,8.1,8.1,8.1c4.5,0,8.1-3.6,8.1-8.1c0-4.5-3.6-8.1-8.1-8.1
				C440.2,281.9,436.6,285.5,436.6,290"/>
			<path class="st8" d="M437,285.8c0,1.3,1,2.4,2.3,2.4c1.3,0,2.3-1.1,2.3-2.4c0-1.3-1-2.3-2.3-2.3C438.1,283.5,437,284.5,437,285.8
				"/>
			<path class="st11" d="M397.9,368.7c0,0,1.4,20.2,20,19.7c16.8-0.5,20-19.2,20-19.2"/>
			<path class="st12" d="M366.7,428.9c6,8.3,13.9,30.8,16.1,48.4h69c3.1-14.2,3.7-51.9,3.7-51.9l32.5,51.9h29.5L462.9,382l-17.6-8.6
				c0,0-3,32.4-26.1,34.2c-27.9,2.2-27.9-34.2-27.9-34.2s-24.9,14.7-26.7,15.3"/>
			<path class="st13" d="M357.4,497.4l11.4-51.8c0,0,7,19.1,9.5,31.7H410l0.7-63.6c-24.3-1.8-26.7-39.1-26.7-39.1s-12.8,4-29.7,10.2
				c-17,6.1-16.1,95.6-34.2,125L357.4,497.4z"/>
			<path class="st13" d="M456.2,477.3c1.7-12.5,6.4-36.4,6.4-36.4l22.5,36.4h34.5c-17.3-32.7-49.6-93.7-50-95.9l-18.8-6.7
				c0,0-2.4,37.3-26.7,39.1l0.7,63.6H456.2z"/>
			<path class="st8" d="M432.6,477.3l-0.8-56.9c3-0.9,24.3-8.2,26.9-40.6c0-0.3-0.2-0.5-0.4-0.5c-0.2,0-0.5,0.2-0.5,0.4
				c-2.7,34.1-26.3,39.9-26.5,39.9l-0.4,0.1l0.8,57.7H432.6z"/>
			<polygon class="st12" points="443.1,477.3 440.9,416.2 440,416.2 442.2,477.3 			"/>
			<path class="st8" d="M402.5,420.3l-0.8,56.9h0.9l0.8-57.7l-0.4-0.1c-0.2-0.1-23.8-5.8-26.5-39.9c0-0.3-0.3-0.4-0.5-0.4
				c-0.3,0-0.4,0.2-0.4,0.5C378.2,412.1,399.4,419.5,402.5,420.3"/>
			<polygon class="st12" points="394.4,416.2 393.5,416.2 391.3,477.3 392.2,477.3 			"/>
			<path class="st14" d="M417.6,406.6c3.6,0,4.8-2.4,4.8-5.1c0-3-2.8-7-3.8-9.7c-0.8-2.1-0.9-3.2-0.9-3.2s-0.1,0.8-0.9,3
				c-1.1,3-4.1,7.4-3.9,10.6C413,404.5,414.3,406.6,417.6,406.6"/>
			<path class="st14" d="M418.7,388.5c0,0.6-0.5,1.1-1.1,1.1c-0.6,0-1.1-0.5-1.1-1.1s0.5-1.1,1.1-1.1
				C418.2,387.5,418.7,387.9,418.7,388.5"/>
			<path class="st15" d="M418.7,388.5c0,0.6-0.5,1.1-1.1,1.1c-0.6,0-1.1-0.5-1.1-1.1s0.5-1.1,1.1-1.1
				C418.2,387.5,418.7,387.9,418.7,388.5z"/>
			<path class="st16" d="M418.1,394.1c-1.3,1.3-3.5,7-2.5,9.4c1,2.3,3.5,2.2,4.4,1.7c0.9-0.5,2-2,1.4-5c-0.6-3-2.2-5.4-2.5-5.8
				C418.6,393.9,418.5,393.8,418.1,394.1"/>
			<path class="st8" d="M415.9,403.7c0,0.5-0.4,0.9-0.9,0.9c-0.5,0-0.9-0.4-0.9-0.9c0-0.5,0.4-0.9,0.9-0.9
				C415.5,402.9,415.9,403.2,415.9,403.7"/>
			<path class="st8" d="M417.3,404.8c0,0.3-0.2,0.5-0.5,0.5c-0.3,0-0.5-0.2-0.5-0.5c0-0.3,0.2-0.5,0.5-0.5
				C417.1,404.3,417.3,404.5,417.3,404.8"/>
			<path class="st14" d="M427.3,397.9c2.5,0,3.3-1.6,3.3-3.5c0-2-1.9-4.8-2.6-6.6c-0.5-1.4-0.6-2.2-0.6-2.2s-0.1,0.6-0.6,2
				c-0.7,2-2.8,5-2.7,7.2C424.2,396.5,425,397.9,427.3,397.9"/>
			<path class="st14" d="M428,385.7c0,0.4-0.3,0.7-0.7,0.7c-0.4,0-0.7-0.3-0.7-0.7c0-0.4,0.3-0.7,0.7-0.7
				C427.7,384.9,428,385.3,428,385.7"/>
			<path class="st15" d="M428,385.7c0,0.4-0.3,0.7-0.7,0.7c-0.4,0-0.7-0.3-0.7-0.7c0-0.4,0.3-0.7,0.7-0.7
				C427.7,384.9,428,385.3,428,385.7z"/>
			<path class="st16" d="M427.6,389.4c-0.9,0.9-2.4,4.8-1.7,6.4c0.7,1.6,2.4,1.5,3,1.2c0.6-0.3,1.4-1.4,1-3.4
				c-0.4-2.1-1.5-3.7-1.7-4C428,389.3,427.9,389.2,427.6,389.4"/>
			<path class="st8" d="M426.1,396c0,0.3-0.3,0.6-0.6,0.6c-0.3,0-0.6-0.3-0.6-0.6s0.3-0.6,0.6-0.6
				C425.8,395.4,426.1,395.6,426.1,396"/>
			<path class="st8" d="M427.1,396.7c0,0.2-0.1,0.3-0.3,0.3c-0.2,0-0.3-0.2-0.3-0.3c0-0.2,0.1-0.3,0.3-0.3
				C426.9,396.4,427.1,396.5,427.1,396.7"/>
			<path class="st14" d="M408.1,398.4c2.5,0,3.3-1.6,3.3-3.5c0-2-1.9-4.8-2.6-6.6c-0.5-1.4-0.6-2.2-0.6-2.2s-0.1,0.6-0.6,2
				c-0.7,2-2.8,5-2.7,7.2C404.9,397,405.8,398.4,408.1,398.4"/>
			<path class="st14" d="M408.8,386.2c0,0.4-0.3,0.7-0.7,0.7c-0.4,0-0.7-0.3-0.7-0.7c0-0.4,0.3-0.7,0.7-0.7
				C408.5,385.4,408.8,385.8,408.8,386.2"/>
			<path class="st15" d="M408.8,386.2c0,0.4-0.3,0.7-0.7,0.7c-0.4,0-0.7-0.3-0.7-0.7c0-0.4,0.3-0.7,0.7-0.7
				C408.5,385.4,408.8,385.8,408.8,386.2z"/>
			<path class="st16" d="M408.4,389.9c-0.9,0.9-2.4,4.8-1.7,6.4c0.7,1.6,2.4,1.5,3,1.2c0.6-0.3,1.4-1.4,1-3.4
				c-0.4-2.1-1.5-3.7-1.7-4C408.7,389.8,408.6,389.7,408.4,389.9"/>
			<path class="st8" d="M406.9,396.5c0,0.3-0.3,0.6-0.6,0.6c-0.3,0-0.6-0.3-0.6-0.6s0.3-0.6,0.6-0.6
				C406.6,395.9,406.9,396.2,406.9,396.5"/>
			<path class="st8" d="M407.8,397.2c0,0.2-0.1,0.3-0.3,0.3c-0.2,0-0.3-0.2-0.3-0.3c0-0.2,0.1-0.3,0.3-0.3
				C407.7,396.9,407.8,397,407.8,397.2"/>
			<path class="st14" d="M401.5,387.2c1.4,0,1.9-1,1.9-2c0-1.2-1.1-2.8-1.5-3.8c-0.3-0.8-0.4-1.3-0.4-1.3s0,0.3-0.3,1.2
				c-0.4,1.2-1.6,2.9-1.5,4.2C399.7,386.3,400.2,387.2,401.5,387.2"/>
			<path class="st16" d="M401.7,382.3c-0.5,0.5-1.4,2.8-1,3.7c0.4,0.9,1.4,0.9,1.7,0.7c0.3-0.2,0.8-0.8,0.6-2
				c-0.2-1.2-0.9-2.1-1-2.3C401.9,382.2,401.9,382.1,401.7,382.3"/>
			<path class="st8" d="M400.8,386c0,0.2-0.1,0.3-0.3,0.3c-0.2,0-0.3-0.2-0.3-0.3c0-0.2,0.2-0.3,0.3-0.3
				C400.7,385.7,400.8,385.8,400.8,386"/>
			<path class="st8" d="M401.4,386.5c0,0.1-0.1,0.2-0.2,0.2s-0.2-0.1-0.2-0.2s0.1-0.2,0.2-0.2S401.4,386.4,401.4,386.5"/>
			<path class="st14" d="M433.6,387.2c1.4,0,1.9-1,1.9-2c0-1.2-1.1-2.8-1.5-3.8c-0.3-0.8-0.4-1.3-0.4-1.3s0,0.3-0.3,1.2
				c-0.4,1.2-1.6,2.9-1.5,4.2C431.8,386.3,432.3,387.2,433.6,387.2"/>
			<path class="st16" d="M433.8,382.3c-0.5,0.5-1.4,2.8-1,3.7c0.4,0.9,1.4,0.9,1.7,0.7c0.3-0.2,0.8-0.8,0.6-2
				c-0.2-1.2-0.9-2.1-1-2.3C434,382.2,434,382.1,433.8,382.3"/>
			<path class="st8" d="M432.9,386c0,0.2-0.1,0.3-0.3,0.3c-0.2,0-0.3-0.2-0.3-0.3c0-0.2,0.2-0.3,0.3-0.3
				C432.8,385.7,432.9,385.8,432.9,386"/>
			<path class="st8" d="M433.5,386.5c0,0.1-0.1,0.2-0.2,0.2s-0.2-0.1-0.2-0.2s0.1-0.2,0.2-0.2S433.5,386.4,433.5,386.5"/>
			<path class="st17" d="M439.4,244.6c0,0,7.3-1.8,13.2,3.2c5.9,5,8.2,21.1-2.3,23.8c0,0,16.4,2.7,18.1-16.3
				C470,236.4,441.6,233.2,439.4,244.6"/>
			<path class="st17" d="M434.5,211.5l4.9,33.2c0,0,10-2.8,18.2,0.5c8.2,3.2,15.9,9.9,6.1,34.8c-6.1,15.3-15.5,50.2-5.2,70.4
				c8.7,17,28.8,6.6,28.8,6.6s-20.6,5.8-18.8-11.2c1.8-17,43.7-98.5,6.7-130.6C455.8,198.3,434.5,211.5,434.5,211.5"/>
			<path class="st17" d="M436.8,212.1l2.6,32.5c0,0-9.6-11.9-24.1-2.8c-14.6,9.2-8.2,30.1-40.1,34.7c0,0-1.8,30.7-20,33.5
				c-18.2,2.8-24.1-6-24.1-6s7.7,6,17.8-5c10-11-2.3-56.4,18.7-83.4C388.4,188.5,433.1,200.1,436.8,212.1"/>
			<path class="st18" d="M439.4,244.6c-1.1-4.6-4.3-8.3-8.2-10.4c-1.9-1.1-4.1-1.9-6.3-2.4c-2.2-0.5-4.4-0.8-6.7-0.9
				c-4.5-0.2-9.1,0.1-13.3,1.5c-2.1,0.7-4.1,1.5-6,2.7c-1.8,1.2-3.5,2.6-5,4.2c-2.9,3.3-4.7,7.4-5.7,11.8c-0.2,1.1-0.4,2.2-0.6,3.3
				c-0.1,1.1-0.2,2.3-0.4,3.5c-0.4,2.4-1.1,4.7-2.1,6.9c-2,4.4-5.5,8.3-10,10.1c-2.2,0.9-4.6,1.4-7,1.2c-1.2-0.1-2.3-0.2-3.5-0.5
				c-1.1-0.3-2.2-0.7-3.3-1.2c2.2,0.8,4.5,1.2,6.7,1.1c2.3-0.1,4.5-0.7,6.5-1.7c4-2,6.9-5.7,8.6-9.8c0.8-2.1,1.4-4.2,1.7-6.5
				c0.2-1.1,0.2-2.2,0.3-3.4c0.1-1.2,0.3-2.4,0.5-3.6c0.9-4.7,2.9-9.4,6.2-13.1c1.6-1.9,3.5-3.4,5.6-4.7c2.1-1.3,4.3-2.2,6.7-2.9
				c4.7-1.3,9.5-1.5,14.2-1.1c4.7,0.4,9.5,1.6,13.5,4.3C435.9,235.6,438.9,239.9,439.4,244.6"/>
			<path class="st18" d="M442.3,243.2c1.7-2.1,4.1-3.7,6.6-4.7c2.5-1.1,5.3-1.6,8.1-1.7c2.8-0.1,5.5,0.2,8.3,1
				c2.7,0.8,5.3,2.1,7.5,3.9c2.2,1.9,3.9,4.3,5,7c1.1,2.7,1.5,5.6,1.4,8.5c-0.1,2.8-0.5,5.7-1.3,8.3c-0.4,1.4-0.8,2.7-1.2,4
				l-1.3,3.8c-3.5,10.3-6.9,20.5-10,30.9c-1.6,5.2-3.1,10.4-4.4,15.6c-0.7,2.6-1.3,5.3-1.7,7.9c-0.2,1.3-0.4,2.7-0.5,4
				c-0.1,1.3-0.1,2.7,0.4,4c-0.7-1.2-0.7-2.6-0.8-4c0-1.4,0-2.7,0.2-4.1c0.2-2.7,0.7-5.4,1.2-8.1c1-5.4,2.3-10.7,3.7-15.9
				c2.8-10.5,6-20.9,9.5-31.2c0.8-2.6,1.8-5.2,2.5-7.6c0.7-2.5,1.2-5.1,1.3-7.7c0.1-2.6-0.2-5.2-1.1-7.5c-0.9-2.4-2.3-4.5-4.1-6.2
				c-1.9-1.7-4.1-3-6.6-3.8c-2.4-0.8-5.1-1.3-7.7-1.3c-2.6-0.1-5.3,0.3-7.8,1.1c-1.3,0.4-2.5,0.9-3.6,1.6
				C444.3,241.5,443.2,242.3,442.3,243.2"/>
			<path class="st18" d="M441,235.3c-0.3-2.6-1-5.2-1.8-7.7c-0.9-2.5-1.9-4.9-3.3-7.1c-1.4-2.2-3-4.2-4.9-5.9c-1.9-1.7-4.1-3-6.5-4
				c-2.4-0.9-4.9-1.5-7.4-1.7c-2.6-0.2-5.1-0.2-7.6,0.1c-5,0.7-9.8,2.7-13.7,5.9c-3.9,3.2-7.1,7.4-9.3,12c-2.3,4.6-3.7,9.7-4.6,14.8
				c-0.2,1.3-0.4,2.6-0.5,3.9c-0.2,1.4-0.4,2.7-0.7,4c-0.7,2.7-1.7,5.3-3.5,7.5c-1.8,2.2-4.3,3.7-7,4.1c-2.7,0.4-5.4,0.1-7.9-0.9
				c2.5,0.7,5.3,0.8,7.7,0.1c2.5-0.6,4.7-2.1,6.1-4.2c1.5-2,2.3-4.5,2.8-7c0.3-1.3,0.4-2.5,0.5-3.8c0.1-1.3,0.2-2.7,0.4-4
				c0.7-5.4,2.1-10.7,4.4-15.6c2.4-4.9,5.6-9.5,10-13c4.3-3.4,9.6-5.7,15.1-6.3c2.7-0.3,5.5-0.3,8.2,0c2.7,0.3,5.4,1,7.9,2.1
				c2.5,1.1,4.8,2.7,6.8,4.6c2,1.9,3.6,4.1,4.9,6.5c1.3,2.4,2.3,4.9,2.9,7.5C440.6,230,441,232.6,441,235.3"/>
		</g>
		<g>
			<path class="st19" d="M71.2,389.3c0,0-14.3-3.5-21-9.8c-6.7-6.3-9.9-10.3-3.2-14.1c6.7-3.8,29.5-9.6,38.1-9.6
				c8.6,0,33.3-0.6,39.5,6.9c6.2,7.5,6.6,23.5-2.5,25.8C113,390.8,71.2,389.3,71.2,389.3"/>
		</g>
		<g>
			<defs>
				<path id="SVGID_00000167387887012794101130000016643238100751743627_" d="M88.3,326.9h-0.5H69.6v28.6
					c0,10.9-10.5,20.1-25.7,25.2c-15.2,5.1-23.3,10.9-23.3,10.9l-45.1,81.5H6.3l29.3-39.4c0,0,6.4,11.5,11.4,39.4h82.3
					c5-27.9,11.4-39.4,11.4-39.4l15-42.1c0,0-8-5.8-23.3-10.9c-15.2-5.1-25.7-14.3-25.7-25.2v-28.6H88.3z"/>
			</defs>
			<clipPath id="SVGID_00000050635947794014091640000001303806992930135207_">
				<use xlink:href="#SVGID_00000167387887012794101130000016643238100751743627_"  style="overflow:visible;"/>
			</clipPath>
			
				<linearGradient id="SVGID_00000156546987840003452460000002861735781167803561_" gradientUnits="userSpaceOnUse" x1="-45.445" y1="654.3702" x2="-44.9793" y2="654.3702" gradientTransform="matrix(0 -313.9513 -313.9513 0 205528.4688 -13794.4141)">
				<stop  offset="0" style="stop-color:#F4D9A3"/>
				<stop  offset="0.2132" style="stop-color:#F4D9A3"/>
				<stop  offset="0.4495" style="stop-color:#F3D8A2"/>
				<stop  offset="1" style="stop-color:#DBC494"/>
			</linearGradient>
			
				<rect x="-24.4" y="326.9" style="clip-path:url(#SVGID_00000050635947794014091640000001303806992930135207_);fill:url(#SVGID_00000156546987840003452460000002861735781167803561_);" width="225.1" height="146.2"/>
		</g>
		<g>
			<path class="st21" d="M157.9,245.3c0,53.1-23.4,96.5-68.9,96.5c-45.4,0-70.7-43.9-70.7-97c0-53.1,26-58.5,71.4-58.5
				C135.2,186.4,157.9,192.3,157.9,245.3"/>
			<path class="st22" d="M71.1,276.4c0,7.3-5.9,13.2-13.3,13.2c-7.3,0-13.3-5.9-13.3-13.2c0-7.3,5.9-13.2,13.3-13.2
				C65.1,263.2,71.1,269.1,71.1,276.4"/>
			<path class="st23" d="M67.6,276.4c0,5.1-4.1,9.2-9.2,9.2c-5.1,0-9.2-4.1-9.2-9.2c0-5.1,4.1-9.2,9.2-9.2
				C63.5,267.2,67.6,271.3,67.6,276.4"/>
			<path class="st8" d="M54.6,271.6c0,1.5-1.2,2.7-2.6,2.7c-1.5,0-2.7-1.2-2.7-2.7s1.2-2.7,2.7-2.7
				C53.4,268.9,54.6,270.1,54.6,271.6"/>
			<path class="st24" d="M62.6,309.5c8.1,4.9,16.7,8,25.4,7.8c8.8,0,17.2-3.4,25.6-7.8c-3.1,3.7-6.9,6.7-11.3,8.9
				c-4.4,2.2-9.3,3.4-14.3,3.5c-5,0-9.9-1.1-14.3-3.3C69.4,316.4,65.5,313.4,62.6,309.5"/>
			<path class="st22" d="M106.6,276.4c0,7.3,5.9,13.2,13.3,13.2c7.3,0,13.3-5.9,13.3-13.2c0-7.3-5.9-13.2-13.3-13.2
				C112.5,263.2,106.6,269.1,106.6,276.4"/>
			<path class="st23" d="M110,276.4c0,5.1,4.1,9.2,9.2,9.2c5.1,0,9.2-4.1,9.2-9.2c0-5.1-4.1-9.2-9.2-9.2
				C114.1,267.2,110,271.3,110,276.4"/>
			<path class="st8" d="M110.5,271.6c0,1.5,1.2,2.7,2.6,2.7c1.5,0,2.7-1.2,2.7-2.7s-1.2-2.7-2.7-2.7
				C111.7,268.9,110.5,270.1,110.5,271.6"/>
			<path class="st25" d="M62.4,199.9c0,1,0.1,1.9,0.2,2.9c0.1,1,0.2,1.9,0.5,2.9c0.2,0.9,0.5,1.9,0.8,2.8c0.4,0.9,0.8,1.7,1.4,2.4
				l-0.4,0.1l1.2-3.5l1.3-3.5l0.2-0.6l0.3,0.6l3.4,6.3l-0.6,0l2.8-6.3l0.2-0.6l0.3,0.5c0.9,1.6,1.8,3.2,2.6,4.8l-0.4,0l2.9-3.3
				l0.2-0.2l0.1,0.2l1.8,2.7l-0.2,0l2.5-1.7l0.1,0l0,0.1c0.2,0.4,0.5,0.7,0.8,1c0.3,0.3,0.7,0.6,1,0.8c-0.4-0.2-0.7-0.5-1.1-0.8
				c-0.3-0.3-0.7-0.6-0.9-1l0.1,0l-2.4,1.9l-0.1,0.1l-0.1-0.1l-1.9-2.6l0.3,0l-2.8,3.3l-0.2,0.3l-0.2-0.3c-0.9-1.6-1.8-3.2-2.7-4.7
				l0.5,0l-2.7,6.4l-0.3,0.6l-0.3-0.6l-3.4-6.4l0.5,0l-1.3,3.5l-1.3,3.5l-0.2,0.4l-0.3-0.3c-1.2-1.6-1.8-3.5-2.2-5.4
				c-0.2-1-0.3-1.9-0.3-2.9C62.3,201.9,62.3,200.9,62.4,199.9"/>
			<path class="st26" d="M155.1,391.3c-2.5-2.2-39.3-20.7-39.3-20.7c-1.7,4.6-13.8,10.9-26.3,11.1c-13.4,0.2-27.2-6.2-29-11.1
				c0,0-36.8,18.5-39.3,20.7c-2.5,2.2,15.5,51.3,15.5,51.3s1.6,19.7,3,31.1h45.8h5.2h45.8c1.4-11.5,3-31.1,3-31.1
				S157.7,393.6,155.1,391.3"/>
			<path class="st27" d="M88.2,387.6c19.9,0,30.1-9.3,33.9-13.8c-0.2-0.1-0.4-0.2-0.6-0.3c-3.7,4.4-13.7,13.4-33.2,13.4
				c-20.3,0-30.7-9.1-34.2-13c-0.2,0.1-0.4,0.2-0.6,0.3C56.9,378.2,67.4,387.6,88.2,387.6"/>
			<path class="st28" d="M67.6,473.8c0,0,0.6-62,0-67.6c-0.6-5.6-6.9-19.4-18.3-32.6c0,0-24.3,10.7-29.1,14.1
				c-4.8,3.4-48,86.2-48,86.2h40.7l22.7-27.3l2.1,27.3H67.6z"/>
			<path class="st29" d="M67.5,473.8c0.6-62,0.6-61.9,0-67.6c-0.6-5.6-3.6-16.4-18.8-29.6"/>
			<path class="st30" d="M19.7,388.2c10.7,5.8,16.1,50.2,15.3,57.5c-0.1,0.7-0.1,1.3-0.2,1.8l0.9-1l0.2,2.8c0.1-0.9,0.3-2,0.4-3.5
				c0.6-6-3.9-51-15.5-58.5c-0.2,0.1-0.4,0.2-0.5,0.3C20.1,387.7,19.9,387.9,19.7,388.2"/>
			<path class="st28" d="M108.5,473.8c0,0-0.6-62,0-67.6c0.6-5.6,6.9-19.4,18.3-32.6c0,0,24.3,10.7,29.1,14.1
				c4.8,3.4,52.5,119.4,52.5,119.4l-44.3-5.5l-23.6-55l-3.3,42.6L108.5,473.8z"/>
			<path class="st29" d="M108.6,473.8c-0.6-62-0.6-61.9,0-67.6c0.6-5.6,3.6-16.4,18.8-29.6"/>
			<path class="st30" d="M156.5,388.2c-10.7,5.8-16.1,50.2-15.3,57.5c0.1,0.7,0.1,1.3,0.2,1.8l-0.9-1l-0.2,2.8
				c-0.1-0.9-0.3-2-0.4-3.5c-0.6-6,3.9-51,15.5-58.5c0.2,0.1,0.4,0.2,0.5,0.3C156.1,387.7,156.3,387.9,156.5,388.2"/>
			<path class="st31" d="M144.8,196c-25.1-18.7-77.3-17.4-104.6-3.6C9.8,207.7,17,255.6,21.7,277c0,0,5.3-40.6,18.5-46.5
				c13.2-5.9,23.2-8.8,48.1-8.8c24.9,0,34.9,2.8,48.1,8.8c13.2,5.9,18.5,46.5,18.5,46.5C159.5,255.6,164.1,210.5,144.8,196"/>
			<path class="st32" d="M142.2,228.8c-2.3-3.3-7.3-5.9-13.9-7.8c-1.5-0.4-3.1-0.9-4.7-1.2c-0.8-0.2-1.5-0.3-2.3-0.5
				c-0.7-0.1-1.4-0.3-2.1-0.4c-0.9-0.2-1.9-0.3-2.9-0.5c-9.4-1.5-20-2.2-29.8-2.2c-1.2,0-3.9-0.7-3.9-0.7l-3.6,0.9l-3.7-0.7
				l-2.6,1.2l-3-1.2l-2.5,1.9l-3.7-3.1c0,0-0.3,3.8-1.1,3.9c-13.5,2.4-24.5,6.4-27.3,10.5c-1.8,2.7-6.8,13.3-6.8,13.3l-2.2,1.7
				l0.6,2.9l-1.3,2.1c0,0-0.6,7.4-0.8,8.6c-0.2,2-0.4,3.8-0.4,5.4c2.8-12.3,7.9-28.3,15.9-31.9c13.2-5.9,23.2-8.8,48.1-8.8
				c24.9,0,34.9,2.8,48.1,8.8c8.4,3.8,13.7,21.8,16.4,34.3C152.6,253.3,147.8,236.8,142.2,228.8"/>
			<path class="st32" d="M52.1,226l-0.3,0c-0.1,0-0.2,0-0.2,0l-0.3,0l-0.3-0.1l-0.2-0.1c-0.3-0.1-0.6-0.2-0.8-0.3
				c-0.2-0.1-0.5-0.2-0.7-0.4l-0.6-0.4c-0.8-0.6-1.4-1.2-1.9-1.8l-0.4-0.5l-0.3-0.5l-0.6-1c-0.3-0.7-0.7-1.3-1-2
				c-1.1-2.6-1.7-5.3-2.1-7.9c-0.2-1.3-0.4-2.6-0.5-3.9c-0.1-1.3-0.2-2.6-0.3-3.9c-0.1-2.6-0.1-5.2-0.1-7.8c0.5,2.5,0.9,5.1,1.6,7.5
				c0.3,1.2,0.6,2.5,1,3.7c0.3,1.2,0.8,2.4,1.2,3.6c0.9,2.3,1.9,4.6,3.2,6.5c0.3,0.5,0.7,0.9,1,1.3l0.5,0.6l0.3,0.3l0.3,0.2
				c0.4,0.3,0.7,0.5,1.1,0.7c0.1,0,0.2,0.1,0.2,0.1l0.2,0c0.1,0,0.1,0,0.1,0c0,0,0,0,0,0c0,0,0,0,0,0c0,0,0,0,0,0l-0.1,0
				c0,0-0.1,0-0.1,0c1.7,0,3,1.3,3.1,2.9C55,224.6,53.7,226,52.1,226"/>
			<path class="st32" d="M56.7,223.8c-0.1,0-0.2-0.1-0.3-0.1l-0.2-0.1c-0.1,0-0.2-0.1-0.3-0.1c-0.2-0.1-0.3-0.2-0.5-0.3
				c-0.3-0.2-0.6-0.4-0.8-0.6c-0.2-0.2-0.5-0.4-0.7-0.7c-0.2-0.2-0.4-0.5-0.6-0.7l-0.5-0.7l-0.4-0.7c-0.3-0.5-0.5-1-0.7-1.5
				c-0.8-2-1.2-4-1.5-5.9c-0.2-2-0.4-3.9-0.4-5.9c0-1,0-1.9,0.1-2.9l0.2-2.9l0.4,2.9c0.1,0.9,0.4,1.9,0.5,2.8
				c0.4,1.9,0.9,3.7,1.5,5.5c0.6,1.7,1.4,3.4,2.3,4.9c0.3,0.3,0.5,0.7,0.7,1l0.4,0.5l0.4,0.4c0.1,0.1,0.3,0.2,0.4,0.3
				c0.1,0.1,0.3,0.2,0.4,0.3c0.1,0.1,0.3,0.1,0.4,0.2c0.1,0,0.1,0,0.1,0c0,0,0,0,0,0l0,0c0,0-0.1,0-0.1,0L56.7,223.8z"/>
			<path class="st32" d="M61.4,222.8c-0.3-0.1-0.3-0.2-0.5-0.3c-0.1-0.1-0.2-0.2-0.3-0.2c-0.2-0.2-0.4-0.3-0.6-0.5
				c-0.3-0.3-0.6-0.7-0.9-1.1c-0.3-0.4-0.5-0.7-0.7-1.1c-0.2-0.4-0.4-0.8-0.6-1.2c-0.7-1.6-1-3.2-1.1-4.8c-0.1-0.8-0.1-1.6-0.1-2.3
				c0-0.8,0.1-1.5,0.2-2.3c0.1-0.7,0.2-1.5,0.4-2.2l0.5-2.2l0.1,2.2c0.1,0.7,0.1,1.5,0.2,2.2c0.1,0.7,0.2,1.4,0.4,2.1
				c0.2,0.7,0.3,1.4,0.6,2c0.5,1.3,1.1,2.5,1.9,3.5c0.2,0.2,0.4,0.5,0.6,0.7c0.2,0.2,0.4,0.4,0.7,0.6c0.2,0.2,0.5,0.3,0.7,0.4
				c0.1,0,0.2,0.1,0.3,0.1c0,0,0.1,0,0.1,0c0,0,0.1,0,0,0L61.4,222.8z"/>
			<path class="st32" d="M135.5,223.8C135.5,223.8,135.6,223.7,135.5,223.8c0.1-0.1,0.2-0.2,0.2-0.2c0.1-0.1,0.2-0.2,0.3-0.3
				c0.2-0.2,0.4-0.5,0.6-0.7c0.4-0.5,0.8-1,1.1-1.6c0.7-1.1,1.2-2.4,1.7-3.7c0.4-1.3,0.8-2.7,1-4.1c0.1-0.7,0.2-1.4,0.3-2.1
				c0.1-0.7,0.1-1.4,0.1-2.2c0.1,0.7,0.3,1.4,0.4,2.2c0.1,0.7,0.2,1.5,0.3,2.2c0.2,1.5,0.2,3,0.1,4.5c-0.1,1.5-0.3,3.1-0.8,4.6
				c-0.2,0.8-0.5,1.5-0.8,2.3c-0.2,0.4-0.3,0.8-0.5,1.1c-0.1,0.2-0.2,0.4-0.3,0.6c-0.1,0.1-0.1,0.2-0.2,0.3
				c-0.1,0.1-0.1,0.2-0.2,0.4L135.5,223.8z"/>
			<path class="st32" d="M130.9,223.3c0.1-0.1,0.3-0.3,0.5-0.5c0.2-0.2,0.3-0.4,0.5-0.6c0.3-0.4,0.7-0.9,1-1.4c0.6-1,1.2-2,1.7-3
				c0.5-1.1,1-2.1,1.3-3.3c0.4-1.1,0.7-2.3,0.9-3.5c0.1,1.2,0.2,2.4,0.2,3.7c0,1.2-0.1,2.5-0.2,3.7c-0.1,1.3-0.4,2.5-0.7,3.7
				c-0.2,0.6-0.3,1.2-0.5,1.9c-0.1,0.3-0.2,0.6-0.3,0.9c-0.1,0.3-0.2,0.6-0.4,1L130.9,223.3z"/>
			<path class="st32" d="M148.5,244C148.4,244.1,148.5,244.1,148.5,244C148.5,244.1,148.6,244.1,148.5,244c0.2,0.1,0.3,0,0.4,0
				c0.2,0,0.4-0.1,0.6-0.1c0.2,0,0.4-0.2,0.7-0.2c0.2-0.1,0.4-0.2,0.7-0.3c0.9-0.5,1.8-1.3,2.5-2.1c0.4-0.4,0.7-0.9,1.1-1.4
				c0.3-0.5,0.6-1,1-1.6c0.3-0.5,0.6-1.1,0.8-1.7l0.7-1.7l-0.2,1.9c-0.1,0.6-0.2,1.3-0.3,1.9c-0.1,0.6-0.3,1.3-0.5,1.9
				c-0.2,0.6-0.4,1.3-0.7,1.9c-0.5,1.3-1.2,2.5-2.2,3.6c-0.3,0.3-0.5,0.5-0.8,0.8c-0.3,0.2-0.6,0.5-0.9,0.7
				c-0.3,0.2-0.7,0.4-1.1,0.6c-0.2,0.1-0.4,0.2-0.6,0.3c-0.1,0-0.2,0.1-0.3,0.1c-0.2,0-0.2,0.1-0.5,0.1L148.5,244z"/>
			<polygon class="st31" points="41.4,192.4 43.8,182 46.6,186.4 54.6,179.7 54.6,185.1 64.2,178.4 65.3,182 71.5,180.1 71.2,182.9 
				83.7,176.9 84.3,182 88.5,178.4 89.8,181.7 108.1,178.6 108.1,180.9 117.2,182 117.2,183.7 121.8,183.7 121.8,185.9 134.8,185.5 
				137.2,191.9 139.2,192.4 139.2,194 152.3,210.4 155.9,207.7 155.9,213.3 157.9,213.3 157.5,220.8 159,220.8 158.8,233.1 
				148.7,212 135.6,199.9 103.5,186.9 66.9,193.4 			"/>
			<path class="st31" d="M38.9,199.9c0,0-0.5-5.6-3.8-9l-0.8,5.2l-3-0.5l-0.7,3.8l-2,0.5l-0.5,2.2l-1.7,23.2l12.4-24.5V199.9z"/>
			<polygon class="st32" points="33.4,233.7 28.9,227 36.1,230.7 			"/>
			<polygon class="st32" points="31.8,237.3 27.6,232.9 33.6,233.7 			"/>
			<path class="st25" d="M85.8,206.9c-0.1-0.2-0.2-0.4-0.3-0.5c-0.1-0.2-0.2-0.4-0.2-0.5l-0.1-0.4l-0.5,0.2
				c-0.7,0.3-1.4,0.6-2.1,0.9c-0.4-0.8-0.7-1.6-1.1-2.4l-0.5-1.1l-1.1,0.9c-0.6,0.5-1.3,1-1.9,1.6c-0.4-1.1-0.9-2.3-1.3-3.4
				l-1.2-2.9l-1.6,2.7c-0.6,1-1.2,2-1.8,3c-0.5-1.2-1-2.3-1.5-3.5l-1.4-3.2l-1.4,3.1c-0.5,1.1-1,2.3-1.5,3.4
				c-0.2,0.4-0.3,0.8-0.5,1.2c0,0,0-0.1-0.1-0.1c-0.3-0.8-0.5-1.7-0.7-2.7c-0.2-0.9-0.3-1.9-0.4-2.8c-0.1-1-0.2-1.9-0.2-2.9
				c-0.3,0.9-0.5,1.9-0.6,2.9c-0.1,1-0.2,2-0.2,3c0,1,0.1,2,0.3,3.1c0.2,1,0.5,2.1,1.1,3.1l1,1.8l1.1-1.9c0.6-1.1,1.2-2.2,1.8-3.3
				c0-0.1,0.1-0.2,0.1-0.2c0.5,1.2,1,2.4,1.4,3.6l1.3,3.2l1.7-3c0.6-1.1,1.2-2.3,1.8-3.4c0.3,0.7,0.7,1.4,1,2.1l0.9,1.8l1.2-1.3
				c0.7-0.8,1.4-1.5,2.1-2.3c0.4,0.5,0.7,1,1.1,1.5l0.5,0.6l0.5-0.4c0.7-0.5,1.5-1.1,2.2-1.6c0.1,0.1,0.1,0.1,0.2,0.2
				c0.2,0.2,0.3,0.3,0.5,0.5c0.4,0.3,0.7,0.5,1.1,0.8C86.3,207.6,86,207.2,85.8,206.9"/>
			<path class="st25" d="M39.9,219.1c-0.4-0.4-0.9-1.2-1.2-2c-0.4-0.8-0.7-1.7-1-2.6l-0.9-2.8c-0.3-0.9-0.6-1.9-0.9-2.8
				c-0.2,1-0.2,2-0.3,3c0,1,0,2,0.2,3c0.1,0.7,0.2,1.3,0.4,2c-0.2-0.1-0.4-0.3-0.6-0.4l-0.1-0.1c-0.3-0.2-0.7-0.3-1.1-0.2
				c-0.6,0.2-1,0.9-0.8,1.5c0.2,0.5,0.3,0.9,0.5,1.3c0.2,0.4,0.4,0.9,0.6,1.3c0.3,0.5,0.6,1,0.9,1.5c-0.2,0-0.3,0-0.5,0
				c-0.3,0-0.6-0.1-0.9-0.1c-0.3-0.1-0.6-0.2-0.9-0.3c0.4,0.5,1,0.9,1.6,1.2c0.3,0.1,0.7,0.3,1,0.3c0.2,0,0.4,0.1,0.6,0.1
				c0.2,0,0.4,0,0.7-0.1c0,0,0.1,0,0.1,0c0.3-0.2,0.5-0.5,0.3-0.9l-0.1-0.2c-0.2-0.5-0.4-1-0.6-1.5c0.1,0.1,0.2,0.1,0.3,0.2
				c0.4,0.2,0.7,0.4,1.1,0.6l0,0c0.5,0.2,1.1,0.2,1.5-0.3C40.4,220.4,40.4,219.6,39.9,219.1"/>
			<path class="st25" d="M154,220.8c-0.1,0-0.3,0-0.4,0c0.1-1.1,0.2-2.2,0.2-3.3l0.1-2.5l-1.2,1.3c0-0.6-0.1-1.1-0.1-1.7
				c-0.1-0.7-0.2-1.4-0.3-2.1c-0.2-0.7-0.3-1.4-0.7-2.2l-0.5-1l-0.7,0.7l-0.5,0.5c0-0.1-0.1-0.2-0.1-0.2c-0.2-0.4-0.4-0.9-0.6-1.3
				c-0.2-0.4-0.4-0.9-0.7-1.3c-0.3-0.4-0.5-0.8-0.9-1.1c0.2,0.4,0.3,0.9,0.5,1.3c0.1,0.4,0.2,0.9,0.3,1.3l0.3,1.4l0.2,1.3l0.2,1.1
				l0.9-0.7l0.3-0.3c0,0.3,0.1,0.5,0.1,0.8c0.1,0.6,0.1,1.3,0.2,2c0.1,1.3,0.1,2.7,0.2,4.1l0.1,2.7l1.3-1.6c0,0.5,0.1,1,0.1,1.5
				l0.1,0.7l0.6,0c0.2,0,0.4,0,0.6-0.1c0.1,1.2,0.3,2.5,0.5,3.7c0.3-1.4,0.5-2.9,0.6-4.3l0-0.5L154,220.8z"/>
			<path class="st33" d="M66.5,425.7c0,0-1.9-19.1-8-25.8c-6.1-6.7-23-14.4-25.3-23.2c-1-3.8,0-8.4,3-10.2c2.6-1.5,1.9-5.5,3.7-7.4
				c5.3-5.6,21.3-9.7,29.7-10.8c0,0,0,8.4-0.1,9.9c-0.1,1.6-0.7,3.3-0.7,3.3s-6.5,1.5-13.5,5.8c-8.5,5.3,2.5,13.9,7.3,22.9
				C67.4,399.2,66.6,412.2,66.5,425.7"/>
			<path class="st34" d="M58.5,399.9c-1.2-1.3-2.6-2.5-4.1-3.6c-1.4-1.1-2.9-2.1-4.4-3.2c-3-2.1-6-4.1-8.8-6.3
				c-1.4-1.1-2.8-2.3-4.1-3.6c-1.3-1.3-2.5-2.7-3.3-4.3c-0.9-1.6-1.3-3.5-1.3-5.3c0-1.8,0.4-3.7,1.4-5.4c0.5-0.8,1.2-1.5,2-2
				c0.7-0.4,1.2-1.1,1.5-1.9c0.3-0.8,0.5-1.7,0.7-2.6c0.2-0.9,0.5-1.8,1.1-2.6c2.6-2.9,5.9-4.4,9.3-5.9c3.3-1.4,6.8-2.5,10.3-3.4
				c3.5-0.9,7-1.7,10.6-2.2l0.2,1.3c-3.5,0.4-7.1,1.1-10.5,2c-3.5,0.9-6.9,1.9-10.2,3.2c-1.7,0.6-3.3,1.4-4.8,2.3
				c-0.7,0.5-1.5,0.9-2.2,1.4l-0.5,0.4c-0.2,0.1-0.3,0.3-0.5,0.4c-0.3,0.3-0.7,0.6-0.9,0.9c-0.5,0.6-0.7,1.5-1,2.3
				c-0.2,0.9-0.4,1.8-0.8,2.6c-0.4,0.9-1,1.7-1.9,2.2c-0.7,0.4-1.3,1-1.8,1.8c-0.9,1.4-1.4,3.2-1.4,5c0,1.8,0.3,3.5,1.2,5.1
				c0.8,1.6,2,3,3.2,4.3c1.2,1.3,2.6,2.5,4,3.6c2.8,2.3,5.8,4.3,8.7,6.4c1.5,1.1,2.9,2.1,4.3,3.2C55.9,397.3,57.2,398.5,58.5,399.9"
				/>
			<path class="st35" d="M59.8,452.8c-0.3,0-0.5-0.2-0.5-0.5l-0.1-5.3c0-0.3,0.2-0.5,0.5-0.5c0.3,0,0.5,0.2,0.5,0.5l0.1,5.3
				C60.3,452.6,60,452.8,59.8,452.8L59.8,452.8z"/>
			<path class="st28" d="M60.5,397.4c0,0,0.4-0.7-0.5-1.6c-0.9-0.9-2.8-1.5-3.1-1c-0.3,0.5,0.4,1.7,1.5,2.4
				C59.5,398,60.2,397.8,60.5,397.4"/>
			<path class="st8" d="M59.6,448.7c-0.4,0-0.7-0.3-0.7-0.7l-1.2-51.6c0-0.4,0.3-0.7,0.6-0.7c0.4,0,0.7,0.3,0.7,0.7l1.2,51.6
				C60.3,448.3,60,448.7,59.6,448.7L59.6,448.7z"/>
			<path class="st33" d="M109.7,425.7c0,0,1.9-19.1,8-25.8c6.1-6.7,23-14.4,25.3-23.2c1-3.8,0-8.4-3-10.2c-2.6-1.5-1.9-5.5-3.7-7.4
				c-5.3-5.6-21.3-9.7-29.7-10.8c0,0,0,8.4,0.1,9.9c0.1,1.6,0.7,3.3,0.7,3.3s6.5,1.5,13.5,5.8c8.5,5.3-2.5,13.9-7.3,22.9
				C108.7,399.2,109.5,412.2,109.7,425.7"/>
			<path class="st35" d="M116.4,452.8L116.4,452.8c-0.3,0-0.5-0.2-0.5-0.5l0.1-5.3c0-0.3,0.2-0.5,0.5-0.5h0c0.3,0,0.5,0.2,0.5,0.5
				l-0.1,5.3C116.9,452.6,116.6,452.8,116.4,452.8"/>
			<path class="st34" d="M117.7,399.9c1.2-1.3,2.6-2.5,4-3.6c1.4-1.1,2.9-2.2,4.3-3.2c2.9-2.1,5.9-4.2,8.7-6.4
				c1.4-1.1,2.7-2.3,4-3.6c1.2-1.3,2.4-2.7,3.2-4.3c0.8-1.6,1.2-3.3,1.2-5.1c0-1.8-0.4-3.5-1.4-5c-0.5-0.7-1.1-1.3-1.8-1.8
				c-0.9-0.5-1.5-1.3-1.9-2.2c-0.4-0.9-0.6-1.8-0.8-2.6c-0.2-0.9-0.5-1.7-1-2.3c-0.2-0.3-0.6-0.6-0.9-0.9c-0.2-0.1-0.3-0.3-0.5-0.4
				l-0.5-0.4c-0.7-0.5-1.5-1-2.2-1.4c-1.6-0.8-3.2-1.6-4.8-2.3c-3.3-1.3-6.7-2.4-10.2-3.2c-3.5-0.9-7-1.6-10.5-2l0.2-1.3
				c3.6,0.5,7.1,1.3,10.6,2.2c3.5,0.9,7,2,10.3,3.4c3.3,1.4,6.7,3,9.3,5.9c0.6,0.8,0.8,1.8,1.1,2.6c0.2,0.9,0.4,1.8,0.7,2.6
				c0.3,0.8,0.8,1.5,1.5,1.9c0.8,0.5,1.5,1.2,2,2c1,1.6,1.4,3.5,1.4,5.4c0,1.8-0.4,3.7-1.3,5.3c-0.9,1.6-2.1,3-3.3,4.3
				c-1.3,1.3-2.7,2.5-4.1,3.6c-2.8,2.2-5.8,4.2-8.8,6.3c-1.5,1-3,2.1-4.4,3.2C120.3,397.4,118.9,398.5,117.7,399.9"/>
			<path class="st28" d="M115.9,397.4c0,0-0.4-0.7,0.5-1.6c0.9-0.9,2.8-1.5,3.1-1c0.3,0.5-0.4,1.7-1.5,2.4
				C116.9,398,116.2,397.8,115.9,397.4"/>
			<path class="st8" d="M116.5,448.7L116.5,448.7c-0.4,0-0.7-0.3-0.7-0.7l1.2-51.6c0-0.4,0.3-0.7,0.7-0.7c0.4,0,0.7,0.3,0.6,0.7
				l-1.2,51.6C117.2,448.4,116.9,448.7,116.5,448.7"/>
		</g>
		<g>
			<g>
				<defs>
					<rect id="SVGID_00000134236769409588312120000008053869852435067059_" x="134.6" y="120.9" width="164.2" height="152.9"/>
				</defs>
				<clipPath id="SVGID_00000032637403863874080900000012501007060433905559_">
					<use xlink:href="#SVGID_00000134236769409588312120000008053869852435067059_"  style="overflow:visible;"/>
				</clipPath>
				<polygon style="clip-path:url(#SVGID_00000032637403863874080900000012501007060433905559_);fill:#1D1D1B;" points="
					253.5,124.2 138.7,124.2 138.7,249.4 151.7,249.4 151.3,273.3 195.8,249.4 294.6,249.4 294.6,211.8 253.5,211.8 				"/>
			</g>
		</g>
		<polygon class="st8" points="246,119 131.3,119 131.3,244.2 144.2,244.2 143.9,268.1 188.4,244.2 287.1,244.2 287.1,206.6 
			246,206.6 		"/>
		<g>
			<path class="st37" d="M202,213.3c-3.5,0-7.2,0-11-0.1c-30.8-0.7-37.4-4.4-39.8-7.1c-2-2.3-1.6-4.2-1.2-5.2
				c1.3-3.3,6.2-4.9,17.2-6.3c-0.4-1.7-0.2-3.5,0.5-5.2c0.3-0.7,0.6-1.5,1-2.3c-10.1-0.2-15.2-2.1-16.2-6
				c-1.4-4.9,4.5-10.2,13.7-16.3c-3.1-0.1-5.9-0.2-8.3-0.2c-3.6,0-12.1,0-12.1-5.1c0-2.9,3.3-5.6,9.7-8.1c5.4-2.1,11.6-3.4,16.4-3.4
				c0,0,0,0,0,0c4.8,0,9.7,2.2,14.2,5.3c11.8-4.4,26.1-3.3,41.1,3.4c1.8,0.8,5.6,2.5,4.9,5.6c-0.8,3.4-5.1,4.6-31.9,3.8
				c1.5,1.7,2.6,3.1,3.4,4.1c5-0.2,10.7-0.1,17.2,0.4c9.8,0.8,14.8,1.9,14.6,5.6c-0.1,2.7-3.1,4-7.8,5.2c-3.7,1-9,2-15.2,2.8
				c-12,1.7-26,2.7-38.1,2.9c-1,1.6-1.6,3.1-2,4.1c-0.4,0.9-0.3,1.9-0.1,2.7c4-0.4,8.6-0.9,13.9-1.3c10.2-0.9,20.7-1.8,30.2-3.3
				c11.8-1.9,15.1-1.6,15.8,1.4c0.7,2.6-2.3,4.3-3.8,5.1c-1.7,0.9-4.1,2.1-7.3,3.4c-1.1,0.5-2.3,1-3.5,1.5l15.4,0.6
				c0.3,0,0.6,0.1,0.9,0.2c1.8,0.8,3.9,2.2,3.6,4.6c-0.3,2.3-2.5,3.9-7.7,5.4c-3,0.8-5.8,1.3-5.9,1.4c-0.1,0-0.2,0-0.3,0
				C223.4,212.9,213.9,213.3,202,213.3z M195.4,208.1c13.8,0.2,26.2-0.3,27.7-0.4c2.2-0.4,4.5-1,6.3-1.5l-22.3-0.8
				c-0.4,0-0.7-0.1-1-0.3c-1.2,0.4-2.3,0.9-3.4,1.3C200.4,207.3,197.9,207.8,195.4,208.1z M155,202.6c0,0,0.1,0.1,0.1,0.1
				c0.9,1,5.7,4.2,31.3,5.2c-6.5-1-12.3-3.9-15.8-7.5c-0.3-0.3-0.6-0.7-0.9-1c-1.8,0.2-3.5,0.4-5,0.7
				C157.9,201.1,155.7,202.1,155,202.6z M176.3,198.7c5.8,4.1,16.1,6.1,24.7,2.9c8.7-3.2,15.4-5.8,19.9-7.8
				c-1.1,0.1-2.3,0.3-3.6,0.5c-9.7,1.5-20.8,2.5-30.5,3.3C183.1,198.1,179.6,198.4,176.3,198.7z M175.1,165.1
				c-3.9,2.4-8.2,5.1-11.7,7.8c-6.4,4.9-6.1,6.7-6.1,6.7c0,0,1.2,2.3,13.7,2.3c0.3,0,0.6,0,0.9,0c4.2-5.2,11.6-9.8,25.5-11.4
				c-1.3-1.5-2.7-3.1-4.4-4.8c-3.6-0.1-7.5-0.3-11.8-0.4C179.2,165.3,177.2,165.2,175.1,165.1z M202,175.3
				c-11.5,0.8-18.4,3.5-22.6,6.6c20.2-0.6,39.4-3.4,47.6-5.5c-1.5-0.2-3.6-0.5-6.5-0.7c-6.6-0.5-12.2-0.6-17.1-0.4
				C202.9,175.4,202.4,175.4,202,175.3z M195.3,160.8c5.7,0.2,11.2,0.3,16.1,0.4c6.3,0,10.3-0.1,12.7-0.4c-12.1-5.1-23.3-6.4-33-3.8
				C192.6,158.3,194,159.5,195.3,160.8z M183,160.3c1.4,0.1,2.9,0.1,4.3,0.2c-0.6-0.5-1.2-1-1.8-1.5
				C184.7,159.5,183.8,159.9,183,160.3z M151.7,159.1c1,0.2,2.9,0.5,6.2,0.5c4.2,0,9.8,0.2,16,0.4c0.5-0.3,1-0.6,1.5-0.9
				c1.4-0.8,2.6-1.6,3.7-2.3c0.5-0.3,1.1-0.7,1.6-1c-3-1.7-5.9-2.7-8.7-2.7c0,0,0,0,0,0C163.9,153.1,154.6,156.8,151.7,159.1z"/>
			<g>
				<defs>
					<rect id="SVGID_00000160872911227098496560000006643784511837526671_" x="262.2" y="71.5" width="164.2" height="152.9"/>
				</defs>
				<clipPath id="SVGID_00000183245189082863597210000010938299699168065205_">
					<use xlink:href="#SVGID_00000160872911227098496560000006643784511837526671_"  style="overflow:visible;"/>
				</clipPath>
				<polygon style="clip-path:url(#SVGID_00000183245189082863597210000010938299699168065205_);fill:#1D1D1B;" points="
					266.4,199.9 266.4,74.7 422.2,74.7 422.2,199.9 408.8,199.9 408.3,199.9 408.3,223.9 364.2,199.9 				"/>
			</g>
		</g>
		<polygon class="st8" points="258.2,69.6 258.2,194.8 356,194.8 400.1,218.7 400.1,194.8 400.7,194.8 414.1,194.8 414.1,69.6 		"/>
		<rect x="274.6" y="154.4" class="st37" width="57.2" height="10.2"/>
		<rect x="340.5" y="154.4" class="st37" width="57.2" height="10.2"/>
		<rect x="365.2" y="126.2" class="st37" width="32.5" height="10.2"/>
		<rect x="274.6" y="126.2" class="st37" width="79.8" height="10.2"/>
		<rect x="274.2" y="98" class="st37" width="57.2" height="10.2"/>
		<rect x="340.1" y="98" class="st37" width="57.2" height="10.2"/>
	</g>
</g>
</svg>
