<?xml version="1.0" encoding="utf-8"?>
<!-- Generator: Adobe Illustrator 26.3.1, SVG Export Plug-In . SVG Version: 6.00 Build 0)  -->
<svg version="1.1" id="_x2014_ÎÓÈ_x5F_1" xmlns="http://www.w3.org/2000/svg" xmlns:xlink="http://www.w3.org/1999/xlink"
	 x="0px" y="0px" viewBox="0 0 1231.8 1240.6" style="enable-background:new 0 0 1231.8 1240.6;" xml:space="preserve">
<style type="text/css">
	.st0{fill:#00ABA8;}
	.st1{fill:#009E9B;}
	.st2{clip-path:url(#SVGID_00000069398146228590522890000018251173398741260448_);}
	.st3{fill:#4C3A1F;}
	.st4{fill:#DCE8F7;}
	.st5{fill:#E3ECF9;}
	.st6{fill:#A3C5E9;}
	.st7{fill:#D3E2F5;}
	.st8{fill:#60492D;}
	.st9{fill:#8E692D;}
	.st10{fill:#261F14;}
	.st11{fill:#FFFFFF;}
	.st12{opacity:0.3;fill:#002F3D;}
	.st13{fill:#013F4D;}
</style>
<path class="st0" d="M852.8,97.8H376.7c-46.4,0-89.3,24.8-112.5,65L26.1,575.2c-23.2,40.2-23.2,89.7,0,129.9l238.1,412.3
	c23.2,40.2,66.1,65,112.5,65h476.1c46.4,0,89.3-24.8,112.5-65l238.1-412.3c23.2-40.2,23.2-89.7,0-129.9L965.3,162.8
	C942.1,122.6,899.2,97.8,852.8,97.8z"/>
<path class="st1" d="M167.9,329.5L26.1,575.2c-23.2,40.2-23.2,89.7,0,129.9l238.1,412.3c23.2,40.2,66.1,65,112.5,65h476.1
	c46.4,0,89.3-24.8,112.5-65l137.6-238.3l1.1-4.3L179.7,313.2L167.9,329.5z"/>
<g>
	<defs>
		<path id="SVGID_1_" d="M852.8,97.8L419.4,44.4c-46.4,0-132,78.2-155.2,118.4L26.1,575.2c-23.2,40.2-23.2,89.7,0,129.9l238.1,412.3
			c23.2,40.2,66.1,65,112.5,65h476.1c46.4,0,89.3-24.8,112.5-65l238.1-412.3c23.2-40.2,23.2-89.7,0-129.9L965.3,162.8
			C942.1,122.6,899.2,97.8,852.8,97.8z"/>
	</defs>
	<clipPath id="SVGID_00000104695466352858406050000008150363284424937915_">
		<use xlink:href="#SVGID_1_"  style="overflow:visible;"/>
	</clipPath>
	<g style="clip-path:url(#SVGID_00000104695466352858406050000008150363284424937915_);">
		<g>
			<g>
				<g>
					<g>
						<path class="st3" d="M825.8,890.1c0,0-6.4-33-57.3-50.8c-50.8-17.8-96.4-35.9-96.4-73.8c0-37.9,0-99.9,0-99.9h-58.9h-58.9
							c0,0,0,61.9,0,99.9c0,37.9-45.6,56-96.4,73.8c-50.8,17.8-57.3,50.8-57.3,50.8l-134.7,335.6h88.1l103.3-199.9l32.6,199.9
							l123.4,0.4l123.4-0.4l32.6-199.9l103.3,199.9h88.1L825.8,890.1z"/>
						<path class="st4" d="M818.3,863.8c-20.5-13.3-87-48.7-87-48.7c-12.9,31.4-96.8,59.4-96.8,59.4l-21.9,67.1l-21.9-67.1
							c0,0-83.9-28-96.8-59.4c0,0-66.5,35.5-87,48.7c-13,8.4-110.6,266.4-110.6,266.4l95.7,50.2l57.4-102.7l24.6,148.4h277.2
							l24.6-148.4l57.4,102.7l95.7-50.2C928.9,1130.2,831.4,872.2,818.3,863.8z"/>
						<path class="st5" d="M874.9,1158.6C874.9,1158.6,874.9,1158.6,874.9,1158.6l54.1-28.4c0,0-97.6-258-110.6-266.4
							c-20.5-13.3-87-48.7-87-48.7c-4.9,12-20.2,23.5-37.2,33.1l94.4,48l100.3,214.5C889.1,1110.6,902.2,1140,874.9,1158.6z"/>
						<g>
							<path class="st6" d="M598,902l-1.4-4.3c-51.9-4.4-97.8-30.1-129.1-68.3c-1.1,0.6-2.2,1.2-3.4,1.8
								C496.4,871.2,544.1,897.9,598,902z"/>
							<path class="st6" d="M761.3,831.3c-1.1-0.6-2.3-1.2-3.4-1.8c-31.3,38.2-77.3,63.9-129.1,68.3l-1.4,4.3
								C681.2,897.9,729,871.2,761.3,831.3z"/>
						</g>
						<path class="st7" d="M531,1118.2c0,0-54.1-18.7-60-47.2c-5.9-28.5-17.6-106.4-17.6-106.4l-94.1,198.8l32.7,17.1l57.4-102.7
							l24.6,148.4h65.6L531,1118.2z"/>
						<path class="st8" d="M837.1,391c0,185.7-62.7,337.3-223.9,337.3c-161.2,0-220.8-153.4-220.8-339.1
							c0-185.7,150-204.9,223.6-204.9S837.1,205.3,837.1,391z"/>
						<path class="st9" d="M576.5,509.9c0,25.5-19.9,46.2-44.5,46.2c-24.6,0-44.4-20.7-44.4-46.2c0-25.5,19.9-46.2,44.4-46.2
							C556.6,463.7,576.5,484.4,576.5,509.9z"/>
						<path class="st10" d="M565.1,509.9c0,17.8-13.8,32.3-30.7,32.3c-17,0-30.7-14.5-30.7-32.3c0-17.8,13.7-32.2,30.7-32.2
							C551.4,477.6,565.1,492.1,565.1,509.9z"/>
						<path class="st11" d="M521.5,493.2c0,5.1-4,9.3-8.9,9.3c-4.9,0-8.9-4.2-8.9-9.3s4-9.3,8.9-9.3
							C517.5,483.9,521.5,488,521.5,493.2z"/>
						<path class="st10" d="M516.9,612.1c30.4,19.4,63,31.3,96,30.9c33.2,0,65-13.5,96.7-30.9c-11.6,14.4-26.2,26.3-42.6,34.9
							c-16.4,8.7-35.1,13.5-53.9,13.8c-18.8,0-37.5-4.4-54.1-13C542.4,639.4,527.5,627.5,516.9,612.1z"/>
						<path class="st9" d="M657.6,509.9c0,25.5,19.9,46.2,44.5,46.2c24.6,0,44.4-20.7,44.4-46.2c0-25.5-19.9-46.2-44.4-46.2
							C677.6,463.7,657.6,484.4,657.6,509.9z"/>
						<path class="st10" d="M669.1,509.9c0,17.8,13.8,32.3,30.7,32.3c17,0,30.7-14.5,30.7-32.3c0-17.8-13.7-32.2-30.7-32.2
							C682.8,477.6,669.1,492.1,669.1,509.9z"/>
						<path class="st11" d="M670.8,493.2c0,5.1,4,9.3,8.9,9.3c4.9,0,8.9-4.2,8.9-9.3s-4-9.3-8.9-9.3
							C674.8,483.9,670.8,488,670.8,493.2z"/>
						<path class="st10" d="M904.6,361c0-20.6-14.5-37.6-33.3-40.6c-0.2-1-0.4-2-0.5-3.1c7.6-10.1,12.1-22.8,12.1-36.7
							c0-23-12.4-42.9-30.5-52.8c-2.7-2.8-5.6-5.5-8.6-7.9c-11.1-8.8-24.1-14.6-37.6-18c-4-1-8.1-1.2-12.3-1.1
							c-4.1-5.8-10.6-9.6-18-9.6c-0.4,0-0.8,0-1.2,0l-8.5,3.3c-7.8-9.3-7.9-25.8-25.7-25.8c-5.2,0-10,1.9-13.8,5
							c-0.1-4.9-1.6-9.4-4-13.2c-0.4-3.3-1.1-6.7-2.1-9.9c-6.4-20.4-27.2-34.7-47.5-32.7c-12.8,1.2-26.2-6.8-37.9-12.5
							c-8.4-4.1-16.9-19.6-25.9-22.2c-29.6-8.4-50,12.1-50,12.1c0,0,0,0,0,0c-9.9-16.1-27.1-26.7-46.6-26.7
							c-25.9,0-47.6,18.6-53.7,43.8c-8.8-6.1-19.3-9.7-30.6-9.7c-30.6,0-55.5,26.1-55.5,58.2c0,6.3,1,12.3,2.7,18
							c-0.9,0-1.8-0.1-2.7-0.1c-30.6,0-55.5,26.1-55.5,58.2c0,8.4,1.7,16.4,4.7,23.6c-16.7,6.3-28.8,23-28.8,42.8
							c0,10.9,3.6,20.8,9.7,28.7c-7.8,1.3-13.7,8.3-13.7,16.8c0,4.7,1.8,9,4.8,12.1c-7.9,10.1-12.7,23-12.7,37.1
							c0,16.9,6.8,32,17.7,42.7c-8.2,6.6-21.5,11.8-21.7,34c-0.2,39.5,18.9,35.6,25.5,49.8c15.4,32.8-19,40.6-11.4,73
							c3,13,25.2,24.6,23,37.7c-2.1,12.3-15,21.1-14.9,33.6c0.1,12.8,13.6,21.6,15.3,34.2c1.5,11-5.2,24-4.6,35
							c1.5,25.9,22.1,22.2,21.3,22c-9.8-5.1-7.1-20.6-1.3-30.3c5.8-9.7,13.5-20.9,9.3-31.4c-2.2-5.4-7.2-9.3-8.7-14.9
							c-3.7-13.8,14.6-22.5,19.7-35.8c8.2-21.3-19.8-45.5-9.4-65.7c4.4-8.4,10.8-20,20-20.6c-11.3,1.7-9.6,27.4-3,37.2
							c6.6,9.9,17.5,15.8,23.9,25.8c8.3,13,6.6,32.1-3.9,43.2c2.8-3,10.3-3.9,13.9-7.3c4.8-4.5,8.3-10.8,9.7-17.3
							c3.8-17-7.3-23.1-12.1-37.7c-2.5-7.5-2-16.7,3.2-22.5c4.4-5,11.5-6.8,15.6-12c8.1-10.5,0-26.8,4.6-39.4
							c4.5-12.4,20-17.5,24.4-29.9c4.3-12.1-3.3-27.4,3.8-37.9c3.5-5.2,9.7-7.6,13.8-12.2c9.4-10.7,1.8-27.7-10-32
							c2.7-11.2,16-12.5,23.2-19.6c6.3-6.2,7.4-17.4,2.5-24.8c-1.3-2-3-3.9-3.5-6.2c3-1.9,5.3-4.8,6.4-8.3c2.8-0.8,5.8-0.7,8.7-1.2
							c9.5-1.8,16.6-11.5,17-21.5c25.6-7.1,62.9-11.6,119.8-11.6c35.6,0,64.2,2.5,87.2,6.9c4.8,2.7,9.5,5.5,14.3,8.2
							c5.1,2.9,10.9,7.5,9.7,13.5c-0.5,2.4-2.1,4.4-3.1,6.6c-5,11.2,6.4,22.6,16.3,29.3c-10,8.1-11.5,25.4-3.1,35.2
							c5,5.9,13.3,13.5,8.3,19.4c3.4,3.3,9.4-0.7,10-5.5c0.6-4.8-2-9.4-4.4-13.6c-2.3-4.2-4.5-9.2-2.9-13.8c1.2-3.4,4.2-5.7,6.3-8.7
							c4.5-6.4,3.9-16.3-1.4-21.9c-2.4-2.5-5.6-4.3-7.1-7.5c-3.4-7,3.3-14.6,4.6-22.3c0.2-1.4,0.3-2.9,0.1-4.3
							c2.7,1.3,5.2,2.6,7.6,3.9c1.2,4.2,4.9,7.2,9.3,7.2c0.1,0,0.3,0,0.4,0c-0.1,0.5-0.2,1-0.2,1.6c0,8.5,6.6,15.4,14.7,15.4
							c1.6,0,3.2-0.4,4.7-0.9c0.2,0.2,0.4,0.5,0.6,0.7c-0.2,1.1-0.4,2.2-0.4,3.4c0,7.7,5.4,14,12.5,15.2c0.8,1.5,1.5,2.9,2.2,4.4
							c19.7,41.3,12.5,150,12.5,150c1-4.1,3.1-8.2,5.8-12.3c-1.9,7.1-4.4,15-0.2,20.7c1.9,2.6,4.8,4.1,6.7,6.6
							c4.5,6.1,1.2,15.2-3.2,21.4c-4.4,6.3-5.5,14.6-2.2,21.7c4.3,9.5,14.3,32.2-3.2,28.4c4,4.3,11.6,0.8,13.9-4.7
							c2.3-5.5,1-11.9,0-17.8c-1-5.9-1.5-12.6,1.9-17.4c2-2.8,5.1-4.6,7.2-7.4c5.6-7.3,2.8-17.9,0.6-27c-2.2-9.1-2.4-21,5.5-25.3
							c0.1,8.2,10.3,11.9,13.8,19.2c7,14.8-16.4,32.5-8,46.5c4,6.8,14.3,9.1,15.1,17c0.6,5-3.1,9.2-5.2,13.7
							c-7,14.9-5.9,37.2,15.9,42.7c-12.3-5.7-16.5-24.8-7.9-35.7c5.2-6.5,14.2-10.7,15.4-19.1c1.2-8.9-7.1-15.7-11.2-23.7
							c-4.7-9.3-3-21.6,4-29.1c3.4-3.6,8-6.5,9.2-11.4c1.6-6.7-4-12.5-8.5-17.4c-4.6-4.9-8.7-12.8-4.6-18.1
							c2.6-3.3,7.3-3.8,10.6-6.3c7.1-5.5,4.6-17.2,0.4-25.4c-4.2-8.1-9.6-17.4-6.2-26c3.7-9.4,16.5-12.5,19.3-22.2
							c4.6-15.8-20.5-25.2-21.8-41.7C895,392.2,904.6,377.8,904.6,361z"/>
					</g>
				</g>
			</g>
		</g>
	</g>
</g>
<polygon class="st12" points="1172.5,72.3 1211.3,72.3 1211.3,416.2 950.2,416.2 819.8,485.9 819.8,416.2 784,416.2 784,367.9 
	784,72.3 "/>
<g>
	<polygon class="st11" points="1174.1,45 1174.1,380.3 919.6,380.3 792.5,448.3 792.5,380.3 757.6,380.3 757.6,45 	"/>
</g>
<g>
	<g>
		<rect x="984.1" y="121.5" class="st13" width="114.3" height="26.8"/>
	</g>
	<g>
		<rect x="825.5" y="121.5" class="st13" width="126.7" height="26.8"/>
	</g>
	<g>
		<rect x="984.1" y="263.7" class="st13" width="114.3" height="26.8"/>
	</g>
	<g>
		<rect x="825.5" y="263.7" class="st13" width="126.7" height="26.8"/>
	</g>
	<g>
		<rect x="825.5" y="192.6" class="st13" width="72" height="26.8"/>
	</g>
	<g>
		<rect x="933.9" y="192.6" class="st13" width="164.5" height="26.8"/>
	</g>
</g>
<g>
	<polygon class="st12" points="541.8,854.3 450.6,854.3 450.6,687.9 415.7,687.9 288.6,687.9 34,687.9 34,1023.2 450.6,1023.2 
		450.6,964.5 	"/>
	<polygon class="st11" points="519.5,831.9 428.2,831.9 428.2,665.5 393.3,665.5 266.2,665.5 11.6,665.5 11.6,1000.8 428.2,1000.8 
		428.2,942.1 	"/>
	<g>
		<g>
			<g>
				<path class="st13" d="M250.7,929.1c-10.9,0-22.4-0.1-34-0.4c-95.4-2.3-116-13.3-123.1-21.5c-6-6.8-4.9-12.7-3.7-15.6
					c4.1-10.2,21-15.2,53.3-19.3c-1.2-5.4-0.8-10.8,1.4-16.1c1-2.4,2-4.8,3.3-7.3c-31.6-0.7-47.3-6.4-50.6-18.3
					c-4.2-15.1,14.4-31.4,43.1-50c-10.1-0.3-19.1-0.5-26.6-0.5c-11.1,0-37.2,0-37.2-15.4c0-19.1,53.4-34.9,80.7-35c0,0,0,0,0.1,0
					c14.8,0,30.1,6.8,44.2,16.1c36.6-13.5,80.9-10.1,127.3,10.2c5.5,2.4,17.1,7.5,14.9,16.8c-2.5,10.9-20,13.8-99.3,11.5
					c4.9,5.4,8.6,10,11,13c15.5-0.7,33.3-0.4,53.5,1.3c34.6,2.8,45.6,7,45.1,17c-0.2,5.9-0.6,14.8-71,24.4
					c-37.2,5.1-80.6,8.3-118.3,8.8c-3.2,5-5.1,9.5-6.4,12.9c-1.2,3-1.1,6-0.1,8.7c12.6-1.3,27.1-2.6,43.5-4
					c31.5-2.7,64.1-5.5,93.7-10.1c36.5-5.6,46.5-4.8,48.8,4c2.1,8.3-4.9,13.6-34.3,25.8c-3.9,1.6-7.9,3.3-12.2,4.9l49,1.8
					c0.9,0,1.8,0.2,2.7,0.6c8,3.4,11.6,8,11,13.8c-0.4,3.3-1.6,13.4-42.2,20.3c-0.3,0.1-0.6,0.1-0.9,0.1
					C317.1,927.8,287.7,929.1,250.7,929.1z M222.6,913.8c31.8,0.7,65.2,0.2,93.7-1c7.6-1.3,15.4-3.2,21.1-5.1l-70.7-2.6
					c-1.2,0-2.2-0.3-3.2-0.8c-3.6,1.3-7.2,2.6-10.7,3.9C243,911.7,232.8,913.4,222.6,913.8z M104.4,896.7c0.1,0.2,0.3,0.4,0.5,0.6
					c8.5,9.7,53.7,14.6,105.6,16.2c-23.8-2-45.4-11.5-57.3-23.8c-1-1-1.9-2-2.7-3.1C128,889.2,109.2,892.5,104.4,896.7z
					 M170.2,884.5c17.9,12.8,50.3,19.4,77.5,9.5c28.3-10.3,49.6-18.5,63.5-24.6c-3.8,0.5-8.2,1.1-13.3,1.9
					c-30.1,4.7-64.5,7.6-94.8,10.2C192.8,882.4,181.4,883.4,170.2,884.5z M167.2,781.6c-12.1,7.3-25.6,15.7-36.5,24.1
					c-19.9,15.2-19,20.9-19,21c0,0.1,3.1,7.4,42.7,7.4c1,0,2.1,0,3.1,0c13.1-15.8,36.1-30.2,79.6-35.1c-3.7-4.3-8.5-9.6-13.9-15.1
					c-11.2-0.4-23.3-0.8-36.6-1.4C180,782.1,173.5,781.8,167.2,781.6z M250.6,812.8c-36.4,2.4-57.9,11-71.1,20.8
					c64.1-1.9,125-10.6,149.8-17.4c-4.9-0.8-11.8-1.7-21.5-2.5c-20.5-1.7-38-2-53.2-1.2C253.3,813,251.9,813.1,250.6,812.8z
					 M229.6,768.9c35.1,1.2,72.5,1.9,90.8,0c-44.5-18.9-78.9-18.9-104.2-12C220.9,760.9,225.4,764.9,229.6,768.9z M190.7,767.5
					c4.9,0.2,10,0.4,15.4,0.6c-2.2-1.8-4.4-3.5-6.5-5.1C196.4,764.4,193.5,765.9,190.7,767.5z M93.8,763.4c3.1,0.8,9,1.7,19.9,1.7
					c12.9,0,30.3,0.5,49.6,1.3c1.6-0.9,3.1-1.9,4.7-2.8c4.3-2.6,8.2-4.9,11.4-6.9c1.8-1.1,3.7-2.2,5.6-3.2
					c-10.2-5.7-19.5-8.6-27.7-8.6c0,0,0,0,0,0C132,744.9,102.6,756.6,93.8,763.4z"/>
			</g>
		</g>
	</g>
</g>
</svg>
