<?xml version="1.0" encoding="utf-8"?>
<!-- Generator: Adobe Illustrator 24.3.0, SVG Export Plug-In . SVG Version: 6.00 Build 0)  -->
<svg version="1.1" xmlns="http://www.w3.org/2000/svg" xmlns:xlink="http://www.w3.org/1999/xlink" x="0px" y="0px"
	 viewBox="0 0 500 500" style="enable-background:new 0 0 500 500;" xml:space="preserve">
<style type="text/css">
	.st0{fill:#AFB1B4;}
	.st1{fill:url(#SVGID_1_);}
	.st2{fill:#FDDFD8;}
	.st3{fill:#82B034;}
	.st4{fill:#2A1D01;}
	.st5{fill:#FFFFFF;}
	.st6{fill:#F99D1C;}
	.st7{fill:#E6E7E8;}
	.st8{fill:#FCB963;}
	.st9{fill:#FFD04F;}
	.st10{fill:#E8C6AC;}
	.st11{fill:#CDDDC0;}
	.st12{fill:none;stroke:#CDDDC0;stroke-width:1.5;stroke-miterlimit:10;}
	.st13{fill:#1BB24B;}
	.st14{fill:#1CA345;}
	.st15{fill:#EFEFF0;}
	.st16{display:none;}
	.st17{display:inline;fill:none;stroke:#231F20;stroke-width:0.5;stroke-miterlimit:10;}
</style>
<g id="Layer_5">
</g>
<g id="Layer_2">
</g>
<g id="Layer_4">
</g>
<g id="Layer_1">
	<path class="st0" d="M215.5,345.2c0,0-4.4-32.1-3.4-32.9c3.1-2.8,52.1-7.4,70.8,0l-1.5,32.9l-57.5,26L215.5,345.2z"/>
	<linearGradient id="SVGID_1_" gradientUnits="userSpaceOnUse" x1="246.8079" y1="419.2251" x2="246.8079" y2="272.0539">
		<stop  offset="0" style="stop-color:#FDDFD8"/>
		<stop  offset="1" style="stop-color:#EDCAC7"/>
	</linearGradient>
	<path class="st1" d="M339.7,363.4c0,0-2.7-13.4-24.5-20.7c-21.7-7.2-41.2-14.6-41.2-30c0-15.4,0-40.6,0-40.6h-26.4h-0.1h-0.7h-0.1
		H246H246h-26.4c0,0,0,25.2,0,40.6c0,15.4-19.5,22.8-41.2,30c-21.7,7.2-24.5,20.7-24.5,20.7l11.3,55.8h163.2L339.7,363.4z"/>
	<path class="st2" d="M342.1,155c0,75.3-26.7,136.8-95.4,136.8c-68.7,0-94.1-62.2-94.1-137.5c0-75.3,63.9-83.1,95.2-83.1
		S342.1,79.7,342.1,155z"/>
	<path class="st3" d="M225.2,203.2c0,10.3-8.5,18.7-18.9,18.7c-10.5,0-18.9-8.4-18.9-18.7c0-10.3,8.5-18.7,18.9-18.7
		C216.7,184.5,225.2,192.9,225.2,203.2z"/>
	<path class="st4" d="M220.4,203.2c0,7.2-5.9,13.1-13.1,13.1c-7.2,0-13.1-5.9-13.1-13.1c0-7.2,5.9-13.1,13.1-13.1
		C214.5,190.2,220.4,196,220.4,203.2z"/>
	<path class="st5" d="M201.8,196.5c0,2.1-1.7,3.8-3.8,3.8c-2.1,0-3.8-1.7-3.8-3.8c0-2.1,1.7-3.8,3.8-3.8
		C200.1,192.7,201.8,194.4,201.8,196.5z"/>
	<path class="st6" d="M205.7,244.7c13,7.9,26.8,12.7,40.9,12.5c14.1,0,27.7-5.5,41.2-12.5c-4.9,5.8-11.1,10.7-18.2,14.2
		c-7,3.5-14.9,5.5-22.9,5.6c-8,0-16-1.8-23-5.3C216.6,255.8,210.2,250.9,205.7,244.7z"/>
	<path class="st3" d="M271.6,203.2c0,10.3,8.5,18.7,18.9,18.7c10.5,0,18.9-8.4,18.9-18.7c0-10.3-8.5-18.7-18.9-18.7
		C280,184.5,271.6,192.9,271.6,203.2z"/>
	<path class="st4" d="M276.4,203.2c0,7.2,5.9,13.1,13.1,13.1c7.2,0,13.1-5.9,13.1-13.1c0-7.2-5.9-13.1-13.1-13.1
		C282.3,190.2,276.4,196,276.4,203.2z"/>
	<path class="st5" d="M277.2,196.5c0,2.1,1.7,3.8,3.8,3.8c2.1,0,3.8-1.7,3.8-3.8c0-2.1-1.7-3.8-3.8-3.8
		C278.9,192.7,277.2,194.4,277.2,196.5z"/>
	<path class="st5" d="M212,336.3c0,0,33.9,29.5,70.8,0l-25.1,73.7L212,336.3z"/>
	<path class="st7" d="M128,500.1l37.4-69.6c0,0,2.3,37.8,4.5,69.5h153.7c2.2-31.7,4.5-69.5,4.5-69.5l37.3,69.5h43.1
		c-28.2-53.1-67.7-151.6-70.6-153c-3.9-2-51.2-18.7-51.2-18.7l-40.1,49.5l-40.1-49.5c0,0-47.2,16.7-51.2,18.7
		c-2.9,1.4-42.4,100-70.6,153.1H128z"/>
</g>
<g id="Layer_3">
	<path class="st8" d="M195.4,117.4c0,0,8.1,24.3,45.7,27.3c37.6,2.9,67.1-4.4,81.8,2.9s9.6,78.9,9.6,78.9s14.7-55.3,12.5-80.4
		c-1-11.4-1.5-46-22.9-65.6C296.6,57,253.7,54,239.7,56.2c-35.9,5.7-45,17-45,17s-14.9,0.9-19.2,4.4
		c-23.6,19.2-39.8,66.3-11.1,155.5C164.5,233.1,148.2,149.1,195.4,117.4z"/>
	<path class="st6" d="M323.7,143.2c-12-7-56.8-2.9-79.6-4.4c-22.9-1.5-43.5-11.1-42-39.8c0,0,7.4,14.7,22.9,14.7
		c0,0-9.6-6.6-19.9-31.7c0,0,24.3-19.9,81.1-0.7c0,0-37.6-28-92.1-5.9c0,0-6.6,23.6-18.4,36.1c-11.2,11.9-25.1,36.1-13.7,84.9
		c0.6-26.7,7-61.1,33.6-79c0,0,8.1,24.3,45.7,27.3c37.6,2.9,67.1-4.4,81.8,2.9c4.4,2.2,7,10.1,8.5,20.1c0.2-0.1,0.3-0.2,0.3-0.2
		S332.5,148.4,323.7,143.2z"/>
	<g>
		<path class="st9" d="M206.5,112.2c0.7,1.5,1.8,2.8,2.9,4.1c0.6,0.6,1.1,1.2,1.7,1.8l1.9,1.6c0.6,0.5,1.3,1,2,1.5l1,0.7
			c0.3,0.2,0.7,0.4,1.1,0.6l2.1,1.2c0.7,0.4,1.5,0.7,2.2,1.1l2.2,1c0.8,0.3,1.5,0.6,2.3,0.9c1.5,0.6,3.1,1.2,4.7,1.5
			c1.6,0.4,3.2,0.9,4.8,1.3l4.9,0.9l1.2,0.2c0.4,0.1,0.8,0.1,1.2,0.2l2.5,0.3c1.6,0.2,3.3,0.4,4.9,0.6l5,0.3c1.7,0.1,3.3,0.3,5,0.2
			l5,0.1c1.7,0,3.4,0.1,5,0c3.4-0.1,6.7-0.2,10.1-0.1c-3.3,0.6-6.7,1.1-10,1.6c-3.4,0.4-6.7,0.6-10.1,0.8c-1.7,0.2-3.4,0.1-5.1,0.1
			l-5.1-0.1c-1.7-0.1-3.4-0.3-5.1-0.5l-2.5-0.3c-0.4,0-0.8-0.1-1.3-0.1l-1.3-0.2c-6.7-1.1-13.4-3.1-19.5-6.5
			c-3.1-1.6-5.8-3.7-8.3-6.1l-1.7-1.9c-0.5-0.7-1-1.4-1.5-2.1C207.8,115.4,206.9,113.9,206.5,112.2z"/>
	</g>
	<g>
		<path class="st9" d="M269.1,115.2c-5.1-0.3-10.1-1-15.1-2c-5-1-9.9-2.3-14.8-4.2c-4.8-1.8-9.5-4.2-13.6-7.4
			c-4.1-3.2-7.7-7.5-9.4-12.6l-1.1-3.2l3,1.5l20.7,10.2l-1.7,2.4l-8.8-8.1c-2.9-2.7-5.9-5.5-8.8-8.2l-1.2-1.1l1.3-0.9
			c0.6-0.5,1.1-0.7,1.7-0.9c0.5-0.2,1.1-0.5,1.6-0.6c1.1-0.4,2.2-0.7,3.3-0.9c1.1-0.2,2.2-0.4,3.3-0.6c1.1-0.2,2.2-0.2,3.3-0.3
			c4.4-0.3,8.8-0.1,13.1,0.4c2.2,0.2,4.3,0.6,6.5,0.9c2.1,0.4,4.3,0.8,6.4,1.3c2.1,0.5,4.2,1,6.3,1.5c2.1,0.6,4.2,1.2,6.2,1.8
			c-2.1-0.4-4.3-0.8-6.4-1.2c-2.1-0.4-4.3-0.7-6.4-1.1c-2.1-0.3-4.3-0.6-6.4-0.8c-2.1-0.2-4.3-0.4-6.4-0.6
			c-4.3-0.2-8.6-0.3-12.8,0.1c-1.1,0.1-2.1,0.2-3.1,0.4c-1,0.1-2.1,0.4-3.1,0.6c-1,0.3-2,0.5-2.9,0.9c-0.5,0.2-0.9,0.4-1.4,0.6
			c-0.4,0.2-0.9,0.5-1.1,0.7l0.1-2c3,2.7,6,5.3,8.9,8l8.9,8.1l8.1,7.4l-9.8-4.9l-20.6-10.4l2-1.7c1.4,4.5,4.5,8.5,8.3,11.5
			c3.8,3.1,8.2,5.5,12.8,7.5c4.6,2,9.4,3.5,14.3,4.9C259.1,113.4,264.1,114.4,269.1,115.2z"/>
	</g>
	<g>
		<path class="st6" d="M149.7,132.2c0.8-6.7,2.3-13.3,4.2-19.9c1.9-6.5,4.4-12.9,7.7-18.9c1.7-3,3.6-5.9,5.7-8.6
			c2.2-2.7,4.7-5.2,7.5-7.2c2.8-2.1,6-3.8,9.4-4.7c3.4-1,7-1.3,10.5-1.1l-1,0.3c4.6-3.2,9.5-5.7,14.5-8c5-2.2,10.2-4.1,15.5-5.5
			c5.3-1.4,10.7-2.5,16.1-3.1c5.4-0.6,10.9-0.7,16.4-0.5c2.7,0.1,5.5,0.4,8.2,0.7c2.7,0.4,5.4,0.8,8.1,1.4c2.7,0.5,5.3,1.2,8,1.9
			c1.3,0.4,2.6,0.8,3.9,1.2c1.3,0.4,2.6,0.8,3.9,1.3l3.8,1.5c1.3,0.5,2.5,1.1,3.7,1.6c1.2,0.6,2.5,1.1,3.7,1.7l3.6,1.9
			c0.6,0.3,1.2,0.6,1.8,1l1.8,1l3.5,2.1c2.3,1.4,4.5,3,6.8,4.5c-2.4-1.3-4.7-2.7-7-4l-3.6-1.9l-1.8-0.9c-0.6-0.3-1.2-0.6-1.8-0.9
			l-3.7-1.7c-1.2-0.6-2.5-1-3.7-1.5c-1.3-0.5-2.5-1-3.8-1.5l-3.8-1.3c-1.3-0.5-2.6-0.8-3.8-1.2c-1.3-0.4-2.6-0.8-3.9-1.1
			c-2.6-0.6-5.2-1.3-7.9-1.7c-2.6-0.5-5.3-0.8-7.9-1.1c-2.7-0.2-5.3-0.5-8-0.5c-5.3-0.2-10.7,0-16,0.7c-5.3,0.6-10.6,1.7-15.7,3.1
			c-5.1,1.4-10.2,3.2-15.1,5.3c-4.9,2.1-9.7,4.6-14,7.6l-0.5,0.3l-0.5,0c-3.2-0.2-6.4,0-9.6,0.8c-3.1,0.8-6,2.3-8.7,4.2
			c-2.7,1.9-5.1,4.1-7.2,6.6c-2.1,2.5-4,5.3-5.7,8.1c-3.4,5.7-6.1,11.9-8.4,18.3C152.8,119,151,125.5,149.7,132.2z"/>
	</g>
	<g>
		<path class="st9" d="M168.1,113c2.1-2.3,4.1-4.7,5.9-7.2c1.9-2.5,3.6-5,5.2-7.7c1.6-2.6,3.2-5.3,4.5-8.1c1.4-2.7,2.6-5.6,3.7-8.5
			l1.5,1.9c-0.5,0.1-1.2,0.3-1.7,0.5c-0.6,0.2-1.2,0.5-1.8,0.7c-1.2,0.5-2.3,1.1-3.4,1.8c-1.1,0.6-2.2,1.5-3.2,2.2
			c-0.5,0.4-1,0.8-1.5,1.3l-1.5,1.3c-3.8,3.6-6.9,8-9.4,12.6l-0.9,1.8l-0.5,0.9l-0.4,0.9l-1.6,3.7c-0.6,1.2-0.9,2.5-1.4,3.8
			l-1.4,3.8c-0.7,2.6-1.5,5.2-2.2,7.8c-0.6,2.6-1.1,5.3-1.8,7.9c0.2-2.7,0.5-5.4,0.8-8.1c0.4-2.7,1-5.4,1.5-8.1
			c1.4-5.3,3-10.6,5.6-15.5c2.5-5,5.6-9.7,9.7-13.6c1.1-0.9,2.1-1.9,3.2-2.8c1.1-0.8,2.3-1.7,3.5-2.4c1.2-0.8,2.5-1.4,3.8-2
			c1.3-0.6,2.6-1,4.2-1.3l2.5-0.5l-1,2.4c-1.2,2.9-2.5,5.8-4.1,8.6c-1.5,2.8-3.2,5.5-5.1,8c-1.8,2.6-3.8,5-6,7.3
			C172.8,108.8,170.6,111,168.1,113z"/>
	</g>
	<circle class="st10" cx="253.7" cy="219.9" r="3.2"/>
	<circle class="st10" cx="234.6" cy="227" r="3.3"/>
	<circle class="st10" cx="247.4" cy="194.3" r="3.3"/>
	<circle class="st10" cx="259.1" cy="203.8" r="3.3"/>
	<circle class="st10" cx="237.1" cy="203.3" r="2.1"/>
	<circle class="st10" cx="267.2" cy="233.4" r="2.1"/>
	<circle class="st10" cx="251.7" cy="236.6" r="3.3"/>
	<circle class="st10" cx="219.8" cy="229.4" r="2.1"/>
	<circle class="st10" cx="275.3" cy="228" r="2.1"/>
	<circle class="st10" cx="238.4" cy="214.3" r="1.5"/>
	<circle class="st10" cx="245.7" cy="207" r="1.5"/>
	<g>
		<path class="st11" d="M161.1,363.5c3.7-0.4,7.5-0.9,11.6-1.3l1.1,13.3c-3.9,0.4-7.6,0.8-11.1,1.2l0.1,1.5
			c3.6-0.4,7.3-0.8,11.1-1.2l1.1,13.3c-3.8,0.4-7.6,0.7-11.1,1.1l0.1,1.5c3.6-0.4,7.3-0.8,11.1-1.1l1.1,13.3
			c-3.9,0.4-7.8,0.7-11.4,1.1l0.1,1.5c3.7-0.4,7.5-0.8,11.5-1.2l1.1,13.3c-4.2,0.4-8.2,0.8-12,1.2l0,1.5c3.9-0.4,8-0.8,12.2-1.2
			l1.1,13.3c-4.5,0.4-8.8,0.8-13,1.3c0,0.5,0.1,1,0.1,1.5c4.1-0.5,8.5-0.9,13-1.3l1.1,13.3c-4.6,0.4-9,0.8-13.3,1.3
			c0,0.5,0.1,1,0.1,1.5c4.2-0.5,8.7-0.9,13.3-1.3l1.1,13.3c-4.7,0.4-9.2,0.8-13.6,1.3c0,0.5,0.1,1,0.1,1.5c4.3-0.5,8.9-0.9,13.6-1.3
			l1.1,13.3c-4.8,0.4-9.4,0.8-13.8,1.3c0,0.5,0.1,1,0.1,1.5c4.4-0.5,9-0.9,13.8-1.3l1.1,13.3c-4.9,0.4-9.6,0.8-14,1.3
			c0,0.5,0.1,1,0.1,1.5c4.5-0.5,9.2-0.9,14.1-1.3l0.4,4.4l1.5,0l-0.4-4.5c4.6-0.3,9.3-0.6,14.1-0.9l0.2,5.4l1.5,0l-0.2-5.5
			c4.6-0.2,9.3-0.5,14.1-0.6l0.1,6.1h1.4l-0.1-6.1c4.6-0.2,9.3-0.3,14.1-0.4l0,6.6l1.5,0l0-6.6c4.6-0.1,9.3-0.1,14-0.1l0,6.7l1.5,0
			l0-6.7c0.4,0,0.8,0,1.1,0c4.7,0,9.3,0,13.9,0.1l0,6.6l1.5,0l0-6.6c4.8,0.1,9.5,0.2,14.1,0.3l-0.1,6.2h1.5l0.1-6.2
			c4.8,0.2,9.5,0.4,14.1,0.6l-0.2,5.6h1.5l0.3-5.5c4.8,0.2,9.5,0.5,14.1,0.9L309,500h1.5l0.4-4.6c4.5,0.3,8.8,0.7,13,1.1
			c0-0.5,0.1-1,0.1-1.5c-4.2-0.4-8.5-0.8-13-1.1l1.1-13.3c4.4,0.3,8.7,0.7,12.8,1.1c0-0.5,0.1-1,0.1-1.5c-4.1-0.4-8.4-0.8-12.8-1.1
			l1.1-13.3c4.3,0.3,8.5,0.7,12.6,1.1c0-0.5,0.1-1,0.1-1.5c-4-0.4-8.2-0.8-12.5-1.1l1.1-13.3c4.2,0.3,8.3,0.7,12.3,1.1
			c0-0.5,0.1-1,0.1-1.5c-3.9-0.4-8-0.8-12.2-1.1l1.1-13.3c4.1,0.3,8.1,0.7,12,1.1c0-0.5,0.1-1,0.1-1.5c-3.8-0.4-7.8-0.8-12-1.1
			l1.1-13.3c3.9,0.3,7.6,0.7,11.2,1l0.1-1.5c-3.6-0.4-7.3-0.7-11.2-1l1.1-13.3c3.7,0.3,7.2,0.6,10.7,1l0.1-1.5
			c-3.4-0.4-7-0.7-10.6-1l1.1-13.3c3.5,0.3,6.9,0.6,10.2,1l0.1-1.5c-3.3-0.4-6.7-0.7-10.2-1l1.1-13.3c3.5,0.3,7,0.7,10.3,1l0.2-1.5
			c-3.3-0.4-6.8-0.7-10.4-1L322,362c3.7,0.3,7.3,0.7,10.7,1.1l0.2-1.5c-3.5-0.4-7.1-0.8-10.8-1.1l1.1-13.3c4.8,0.4,9.3,0.9,13.7,1.5
			l0.9-1.4c-4.6-0.6-9.4-1.1-14.4-1.6l0.3-4.1c-0.5-0.2-1-0.4-1.5-0.5l-0.4,4.5c-6.4-0.6-13.1-1.1-20.1-1.5l0.4-10.3
			c-0.5-0.2-1-0.4-1.5-0.5l-0.5,10.7c-8-0.5-16.4-0.8-25.1-1.1l-1.2,1.5c2,0.1,4,0.1,6,0.2l-0.2,13.4c-5.4-0.2-10.9-0.3-16.5-0.4
			l0-0.1l-1.5,1.8l0.1,13.2c-3.5,0-7.1-0.1-10.7-0.1l-1.2,1.5c4,0,8,0,11.9,0.1l0.1,13.4c-4.4-0.1-8.9-0.1-13.3-0.1
			c-0.2,0-0.4,0-0.5,0l0.1-11.2l-1.4,1.7l-0.1-0.2l-0.1,9.7c-4.7,0-9.3,0.1-14,0.1l0.1-13.4c3.6-0.1,7.2-0.1,10.9-0.1l-1.2-1.5
			c-3.2,0-6.5,0.1-9.7,0.1l0.1-12l-2.4-2.9c-5.3,0.1-10.5,0.2-15.6,0.4l-0.2-13.4c1.7-0.1,3.4-0.1,5.1-0.2l-1.2-1.5
			c-8.3,0.3-16.4,0.6-24.1,1.1l-0.5-11.2c-0.5,0.2-1,0.3-1.5,0.5l0.5,10.8c-7,0.4-13.8,1-20.1,1.6l-0.4-5.2c-0.5,0.2-1,0.4-1.5,0.5
			l0.4,4.8c-5.4,0.5-10.5,1.1-15.2,1.8l1,1.4c4.5-0.6,9.3-1.1,14.3-1.6l1.1,13.3c-4.1,0.4-7.9,0.8-11.7,1.3 M214.4,447.6
			c-5.3,0.2-10.5,0.4-15.5,0.7l-0.6-13.4c5.2-0.3,10.5-0.5,15.9-0.7L214.4,447.6z M214.2,432.7c-5.4,0.2-10.8,0.4-16,0.7l-0.6-13.4
			c5.3-0.3,10.8-0.6,16.4-0.8L214.2,432.7z M214.1,417.8c-5.6,0.2-11.1,0.5-16.4,0.8l-0.6-13.4c5.5-0.3,11.1-0.6,16.9-0.8
			L214.1,417.8z M213.9,402.9c-5.8,0.2-11.4,0.5-16.9,0.8l-0.6-13.4c5.6-0.3,11.4-0.6,17.3-0.8L213.9,402.9z M213.7,388
			c-5.9,0.2-11.7,0.5-17.4,0.8l-0.6-13.4c5.8-0.3,11.7-0.6,17.8-0.9L213.7,388z M213.5,373c-6.1,0.2-12,0.5-17.8,0.9l-0.6-13.4
			c5.9-0.4,12-0.7,18.2-0.9L213.5,373z M213.2,344.7l0.2,13.4c-6.3,0.2-12.4,0.5-18.3,0.9l-0.6-13.4
			C200.5,345.2,206.8,344.9,213.2,344.7z M173,347.3c6.3-0.6,13-1.1,20-1.6l0.6,13.4c-6.8,0.4-13.3,0.9-19.5,1.5L173,347.3z
			 M174.2,362.1c6.1-0.6,12.7-1.1,19.4-1.5l0.6,13.4c-6.6,0.4-12.9,0.9-18.9,1.4L174.2,362.1z M175.4,376.9c6-0.5,12.3-1,18.9-1.4
			l0.6,13.4c-6.4,0.4-12.5,0.8-18.3,1.4L175.4,376.9z M176.7,391.7c5.8-0.5,11.9-1,18.3-1.4l0.6,13.4c-6.1,0.4-12.1,0.8-17.7,1.3
			L176.7,391.7z M177.9,406.5c5.6-0.5,11.5-0.9,17.7-1.3l0.6,13.4c-5.9,0.3-11.7,0.8-17.1,1.2L177.9,406.5z M179.1,421.4
			c5.5-0.5,11.2-0.9,17.1-1.2l0.6,13.4c-5.7,0.3-11.2,0.7-16.5,1.2L179.1,421.4z M180.4,436.2c5.3-0.4,10.8-0.8,16.5-1.2l0.6,13.4
			c-5.5,0.3-10.8,0.7-15.9,1.1L180.4,436.2z M181.6,451c5.1-0.4,10.4-0.8,15.9-1.1l0.6,13.4c-5.3,0.3-10.4,0.6-15.3,1L181.6,451z
			 M182.8,465.9c4.9-0.4,10-0.7,15.3-1l0.6,13.4c-5.1,0.3-10,0.6-14.8,1L182.8,465.9z M185.2,494l-1.1-13.3c4.7-0.4,9.6-0.7,14.7-1
			l0.6,13.4C194.5,493.4,189.7,493.7,185.2,494z M199,449.9c5-0.3,10.2-0.5,15.5-0.7l0.2,13.4c-5.1,0.2-10.2,0.4-15.1,0.7L199,449.9
			z M199.6,464.7c4.9-0.3,9.9-0.5,15-0.7l0.2,13.4c-5,0.2-9.9,0.4-14.6,0.7L199.6,464.7z M200.8,493l-0.6-13.4
			c4.8-0.3,9.6-0.5,14.6-0.7l0.2,13.4C210.2,492.6,205.4,492.8,200.8,493z M230.6,492c-4.8,0.1-9.5,0.2-14.1,0.4l-0.2-13.4
			c4.7-0.2,9.5-0.3,14.3-0.4L230.6,492z M230.7,477.1c-4.8,0.1-9.6,0.2-14.4,0.4l-0.2-13.4c4.8-0.2,9.7-0.3,14.6-0.4L230.7,477.1z
			 M230.7,462.1c-4.9,0.1-9.8,0.2-14.6,0.4l-0.2-13.4c4.9-0.2,9.8-0.3,14.9-0.4L230.7,462.1z M230.8,447.2c-5,0.1-10,0.2-14.9,0.4
			l-0.2-13.4c5-0.2,10-0.3,15.1-0.4L230.8,447.2z M230.9,432.3c-5.1,0.1-10.2,0.2-15.2,0.4l-0.2-13.4c5.1-0.2,10.2-0.3,15.4-0.4
			L230.9,432.3z M231,417.3c-5.2,0.1-10.4,0.2-15.4,0.4l-0.2-13.4c5.1-0.2,10.4-0.3,15.7-0.4L231,417.3z M231.1,402.4
			c-5.3,0.1-10.5,0.2-15.7,0.4l-0.2-13.4c5.2-0.2,10.5-0.3,15.9-0.4L231.1,402.4z M231.2,387.5c-5.4,0.1-10.7,0.2-16,0.4l-0.2-13.4
			c5.3-0.2,10.7-0.3,16.2-0.4L231.2,387.5z M231.2,372.5c-5.5,0.1-10.9,0.2-16.2,0.4l-0.2-13.4c5.4-0.2,10.9-0.3,16.5-0.4
			L231.2,372.5z M246,491.8c-4.7,0-9.3,0.1-14,0.1l0.1-13.4c4.6-0.1,9.3-0.1,14-0.1L246,491.8z M246.1,476.9c-4.7,0-9.3,0.1-14,0.1
			l0.1-13.4c4.6-0.1,9.3-0.1,14-0.1L246.1,476.9z M246.2,462c-4.7,0-9.3,0.1-14,0.1l0.1-13.4c4.6-0.1,9.3-0.1,14-0.1L246.2,462z
			 M246.3,447c-4.7,0-9.3,0.1-14,0.1l0.1-13.4c4.6-0.1,9.3-0.1,14-0.1L246.3,447z M246.4,432.1c-4.7,0-9.3,0.1-14,0.1l0.1-13.4
			c4.6-0.1,9.3-0.1,14-0.1L246.4,432.1z M246.4,417.2c-4.7,0-9.3,0.1-14,0.1l0.1-13.4c4.6-0.1,9.3-0.1,14-0.1L246.4,417.2z
			 M246.5,402.2c-4.7,0-9.3,0.1-14,0.1l0.1-13.4c4.6-0.1,9.3-0.1,14-0.1L246.5,402.2z M248.1,388.8c0.2,0,0.4,0,0.6,0
			c4.5,0,8.9,0,13.3,0.1l0.1,13.4c-4.4-0.1-8.9-0.1-13.4-0.1c-0.2,0-0.4,0-0.6,0L248.1,388.8z M248,403.7c0.2,0,0.4,0,0.6,0
			c4.5,0,9,0,13.4,0.1l0.1,13.4c-4.5-0.1-9-0.1-13.5-0.1c-0.2,0-0.5,0-0.7,0L248,403.7z M247.9,418.7c0.2,0,0.5,0,0.7,0
			c4.5,0,9.1,0,13.5,0.1l0.1,13.4c-4.5-0.1-9-0.1-13.6-0.1c-0.3,0-0.5,0-0.8,0L247.9,418.7z M247.9,433.6c0.3,0,0.5,0,0.8,0
			c4.6,0,9.1,0,13.6,0.1l0.1,13.4c-4.5-0.1-9.1-0.1-13.7-0.1c-0.3,0-0.6,0-0.9,0L247.9,433.6z M247.8,448.5c0.3,0,0.6,0,0.9,0
			c4.6,0,9.2,0,13.7,0.1l0.1,13.4c-4.5-0.1-9.1-0.1-13.8-0.1c-0.3,0-0.6,0-1,0L247.8,448.5z M247.7,463.5c0.3,0,0.6,0,1,0
			c4.6,0,9.2,0,13.8,0.1l0.1,13.4c-4.6-0.1-9.2-0.1-13.8-0.1c-0.3,0-0.7,0-1,0L247.7,463.5z M248.7,491.8c-0.4,0-0.8,0-1.1,0
			l0.1-13.4c0.4,0,0.7,0,1.1,0c4.7,0,9.3,0,13.8,0.1l0.1,13.4C258,491.8,253.3,491.8,248.7,491.8z M281.5,344.6
			c6.4,0.2,12.6,0.5,18.7,0.9l-0.6,13.4c-5.9-0.3-12-0.6-18.3-0.8L281.5,344.6z M281.3,359.5c6.2,0.2,12.3,0.5,18.2,0.8l-0.6,13.4
			c-5.8-0.3-11.7-0.6-17.8-0.8L281.3,359.5z M281.1,374.4c6.1,0.2,12,0.5,17.8,0.8l-0.6,13.4c-5.6-0.3-11.4-0.6-17.4-0.8
			L281.1,374.4z M280.9,389.4c5.9,0.2,11.7,0.5,17.3,0.8l-0.6,13.4c-5.5-0.3-11.1-0.5-16.9-0.7L280.9,389.4z M280.7,404.3
			c5.8,0.2,11.4,0.4,16.9,0.7l-0.6,13.4c-5.3-0.3-10.8-0.5-16.4-0.7L280.7,404.3z M280.6,419.2c5.6,0.2,11.1,0.4,16.4,0.7l-0.6,13.4
			c-5.2-0.3-10.5-0.5-16-0.7L280.6,419.2z M280.4,434.1c5.4,0.2,10.8,0.4,15.9,0.7l-0.6,13.4c-5.1-0.3-10.2-0.5-15.5-0.7
			L280.4,434.1z M278.2,492.3c-4.6-0.1-9.3-0.3-14.1-0.3l-0.1-13.4c4.8,0.1,9.6,0.2,14.3,0.3L278.2,492.3z M278.4,477.3
			c-4.7-0.1-9.5-0.3-14.4-0.3l-0.1-13.4c4.9,0.1,9.8,0.2,14.6,0.3L278.4,477.3z M278.5,462.4c-4.8-0.1-9.7-0.3-14.6-0.3l-0.1-13.4
			c5,0.1,10,0.2,14.9,0.3L278.5,462.4z M278.7,447.5c-4.9-0.2-9.9-0.3-14.9-0.3l-0.1-13.4c5.1,0.1,10.2,0.2,15.1,0.4L278.7,447.5z
			 M278.9,432.6c-5-0.2-10-0.3-15.2-0.4l-0.1-13.4c5.2,0.1,10.3,0.2,15.4,0.4L278.9,432.6z M279.1,417.6c-5.1-0.2-10.2-0.3-15.4-0.4
			l-0.1-13.4c5.3,0.1,10.5,0.2,15.7,0.4L279.1,417.6z M279.3,402.7c-5.1-0.2-10.4-0.3-15.7-0.4l-0.1-13.4c5.4,0.1,10.7,0.2,15.9,0.4
			L279.3,402.7z M279.4,387.8c-5.2-0.2-10.6-0.3-16-0.4l-0.1-13.4c5.5,0.1,10.9,0.2,16.2,0.4L279.4,387.8z M279.6,372.9
			c-5.3-0.2-10.7-0.3-16.2-0.4l-0.1-13.4c5.6,0.1,11.1,0.2,16.5,0.4L279.6,372.9z M293.8,492.9c-4.6-0.2-9.4-0.4-14.2-0.6l0.2-13.4
			c5,0.2,9.8,0.4,14.6,0.6L293.8,492.9z M294.5,478c-4.8-0.2-9.6-0.4-14.6-0.6L280,464c5.1,0.2,10.1,0.4,15,0.6L294.5,478z
			 M295.1,463.1c-4.9-0.3-9.9-0.5-15.1-0.6l0.2-13.4c5.3,0.2,10.4,0.4,15.5,0.7L295.1,463.1z M309.5,493.8
			c-4.6-0.3-9.3-0.6-14.2-0.9l0.6-13.4c5,0.3,9.9,0.6,14.7,0.9L309.5,493.8z M310.7,479c-4.8-0.3-9.7-0.7-14.8-0.9l0.6-13.4
			c5.3,0.3,10.4,0.6,15.3,1L310.7,479z M312,464.1c-5-0.4-10.1-0.7-15.4-1l0.6-13.4c5.5,0.3,10.8,0.6,15.9,1L312,464.1z
			 M313.2,449.3c-5.1-0.4-10.5-0.7-16-1l0.6-13.4c5.7,0.3,11.2,0.7,16.5,1.1L313.2,449.3z M314.4,434.5c-5.3-0.4-10.8-0.8-16.5-1.1
			l0.6-13.4c5.9,0.3,11.6,0.7,17.1,1.2L314.4,434.5z M315.7,419.6c-5.5-0.4-11.2-0.8-17.1-1.2l0.6-13.4c6.1,0.3,12,0.8,17.7,1.2
			L315.7,419.6z M316.9,404.8c-5.7-0.5-11.6-0.9-17.7-1.2l0.6-13.4c6.3,0.4,12.4,0.8,18.3,1.3L316.9,404.8z M318.1,390
			c-5.9-0.5-12-0.9-18.3-1.3l0.6-13.4c6.5,0.4,12.9,0.8,18.9,1.4L318.1,390z M319.4,375.2c-6-0.5-12.4-1-18.9-1.4l0.6-13.4
			c6.8,0.4,13.3,0.9,19.5,1.4L319.4,375.2z M320.6,360.3c-6.2-0.6-12.7-1-19.5-1.4l0.6-13.4c7,0.4,13.7,0.9,20,1.5L320.6,360.3z"/>
		<path class="st11" d="M339.7,509.7l0.2,0.3l0-0.3C339.9,509.7,339.8,509.7,339.7,509.7z"/>
	</g>
	<path class="st11" d="M162.9,441.3"/>
	<path class="st11" d="M156.1,347.7"/>
	<path class="st11" d="M156.9,349.1"/>
	<path class="st12" d="M191,480.9"/>
	<path class="st11" d="M154.9,347.7c0.7,0.6,2.1,2.1,3.5,6.4c2.8,8.3,6.5,56.7,6.1,78l0.9-1.6c0,0,0,0.8,0.1,2.1l0.5-1.2
		c0.5-21.7-3.3-69.2-6.1-77.8c-1.4-4.1-2.8-6-3.8-6.9c-0.3,0.1-0.5,0.2-0.6,0.3C155.4,347.1,155.2,347.3,154.9,347.7z"/>
	<path class="st11" d="M338.6,347.7c-0.7,0.6-2.1,2.1-3.5,6.4c-2.8,8.3-6.5,56.7-6.1,78l-0.9-1.6c0,0,0,0.8-0.1,2.1l-0.5-1.2
		c-0.5-21.7,3.3-69.2,6.1-77.8c1.4-4.1,2.8-6,3.8-6.9c0.3,0.1,0.5,0.2,0.6,0.3C338.2,347.1,338.4,347.3,338.6,347.7z"/>
	<path class="st11" d="M362.4,494.3l0.7,1.3c1.2-0.8,2.5-1.7,3.9-2.6c1.2,2.3,2.3,4.6,3.5,7h1.7c-1.3-2.6-2.6-5.2-3.9-7.8
		c2-1.3,4.2-2.6,6.4-3.9c1.8,3.7,3.7,7.4,5.5,11c-0.1,0-0.2,0.1-0.3,0.1c-0.4,0.2-0.8,0.4-1.2,0.6h3.7c2.6-1.2,5.4-2.3,8.2-3.3
		c0.6,1.1,1.1,2.2,1.6,3.3h1.7c-0.6-1.2-1.2-2.5-1.9-3.8c2.3-0.8,4.6-1.5,6.9-2c0.9,2,1.8,3.9,2.7,5.8h1.7c-0.9-1.9-1.8-3.9-2.9-6.2
		c1.5-0.3,3.1-0.6,4.6-0.9c-0.2-0.5-0.5-1-0.7-1.4c-1.5,0.2-3,0.5-4.5,0.9c-1.8-3.9-3.9-8.2-6.1-12.9c1.4-0.4,2.7-0.8,4-1.2
		c-0.2-0.5-0.5-0.9-0.7-1.4c-1.3,0.3-2.7,0.7-4,1.2c-1.7-3.7-3.6-7.6-5.5-11.6c1.3-0.5,2.6-0.9,3.9-1.3c-0.2-0.5-0.4-0.9-0.7-1.4
		c-1.3,0.4-2.6,0.8-3.9,1.3c-1.9-3.9-3.8-7.9-5.7-12.1c1.3-0.6,2.6-1.2,3.9-1.7c-0.2-0.5-0.4-0.9-0.6-1.4c-1.3,0.5-2.6,1.1-3.9,1.7
		c-2.4-5-4.8-10.1-7.2-15.1c1.3-0.8,2.6-1.6,3.9-2.4c-0.2-0.5-0.4-0.9-0.6-1.4c-1.3,0.7-2.6,1.5-4,2.4c-2.4-5.1-4.9-10.2-7.3-15.2
		c1.3-1.3,2.6-2.4,4-3.5c-0.2-0.5-0.4-1-0.6-1.4c-1.3,1.1-2.7,2.2-4,3.5c-3.1-6.5-6.1-12.8-9-18.7c1.3-1.9,2.7-3.6,4.1-5.2
		c-0.2-0.5-0.5-1-0.7-1.6c-1.4,1.6-2.8,3.3-4.2,5.2c-4.1-8.5-7.9-16.3-11.1-22.6c1.6-2.9,3.1-5.3,4.6-7.2c-0.2-0.5-0.5-1.1-0.7-1.6
		c-1.5,1.9-3.1,4.2-4.7,7.1c-4.6-9.1-7.8-15.1-8.8-16.1l-1.1,1c0.9,1,4.2,7.2,9,16.7c-0.6,1.1-1.1,2.3-1.7,3.5c-1,2.3-2,5.3-2.9,8.7
		c-3.1-5.9-5.3-9.7-6.1-10.5l-0.3,0.3l-0.2,1.4c0.8,0.8,2.6,4.3,6.1,10.9c-1.1,4.4-2.1,9.3-3.1,14.5c-2-3.6-3.4-5.9-4-6.6l-1.1,1
		c0.6,0.7,2.2,3.5,4.6,7.9c-0.8,4.4-1.5,8.8-2.1,13.2c-1-1.7-1.7-2.7-2-3.1l-1.1,1c0.4,0.5,1.4,2,2.8,4.5c-0.5,3.7-1,7.3-1.4,10.6
		l1.2,2.3c0.4-3.2,0.9-6.9,1.4-10.7c1.5,2.7,3.3,6.2,5.5,10.3c-1,3-1.9,5.8-2.6,8.4l1,1.9c0.7-2.5,1.6-5.3,2.6-8.4
		c1.5,2.9,3.1,6.1,4.9,9.5c-1.3,2.2-2.5,4.2-3.6,6l0.8,1.6c1-1.8,2.2-3.8,3.6-6c1.4,2.8,2.9,5.7,4.5,8.8c-1.5,1.7-2.8,3.2-4,4.7
		l0.8,1.4c1.2-1.4,2.5-3,4-4.7c1.7,3.3,3.4,6.7,5.2,10.2c-1.6,1.2-3,2.4-4.3,3.5l0.7,1.4c1.3-1.1,2.7-2.2,4.3-3.4
		c1.6,3.2,3.3,6.6,5,10c-1.5,1-2.9,2-4.2,3l0.7,1.3c1.3-0.9,2.7-1.9,4.1-3c1.8,3.6,3.6,7.2,5.4,10.8
		C364.9,492.6,363.6,493.5,362.4,494.3z M369.8,475.1c2.5-1.5,5.2-3,7.9-4.4c1.9,3.8,3.7,7.6,5.6,11.3c-2.6,1.2-5.2,2.6-8,4.2
		C373.5,482.5,371.6,478.8,369.8,475.1z M356.9,429.2c2.1,4.1,4.2,8.4,6.4,12.8c-2.3,1.9-4.6,4-6.9,6.3c-1.9-3.7-3.7-7.4-5.5-10.9
		C352.8,434.7,354.8,431.9,356.9,429.2z M350.1,435.9c-2.3-4.6-4.5-8.9-6.6-12.9c1.5-3.6,3.1-7.2,4.8-10.7
		c2.5,4.9,5.1,10.1,7.9,15.6c-1.6,2-3.2,4.1-4.9,6.4C350.9,434.7,350.5,435.3,350.1,435.9z M364,443.4c2.2,4.4,4.5,8.9,6.7,13.4
		c-2.6,1.6-5.2,3.3-7.6,4.9c-2-4.1-4.1-8.1-6-12C359.3,447.6,361.6,445.5,364,443.4z M371.4,458.2c1.9,3.7,3.7,7.4,5.6,11.2
		c-2.6,1.3-5.2,2.8-7.9,4.4c-1.8-3.5-3.5-7.1-5.3-10.6C366.2,461.5,368.8,459.8,371.4,458.2z M381.5,498.7
		c-1.8-3.6-3.6-7.3-5.5-11.1c2.6-1.4,5.2-2.9,8-4.1c2,4,4,8,5.9,11.9C387.1,496.3,384.4,497.4,381.5,498.7z M398.2,492.7
		c-2.2,0.6-4.5,1.2-6.9,2.1c-1.9-3.8-3.9-7.8-6-12c2.3-1,4.6-2,6.9-2.8C394.2,484.3,396.2,488.6,398.2,492.7z M391.5,478.6
		c-2.2,0.8-4.5,1.7-6.9,2.8c-1.8-3.7-3.7-7.4-5.6-11.3c2.3-1.1,4.7-2.2,7-3.1C387.9,470.9,389.7,474.8,391.5,478.6z M385.4,465.6
		c-2.3,0.9-4.6,1.9-7.1,3.1c-1.8-3.7-3.7-7.5-5.6-11.3c2.3-1.4,4.7-2.6,7-3.8C381.6,457.6,383.5,461.6,385.4,465.6z M379.1,452.3
		c-2.4,1.2-4.7,2.4-7,3.8c-2.3-4.5-4.6-9.1-6.8-13.7c2.2-1.8,4.4-3.5,6.7-5.1C374.3,442.3,376.7,447.3,379.1,452.3z M371.3,435.9
		c-2.2,1.5-4.5,3.2-6.8,5.1c-2.2-4.4-4.4-8.8-6.6-13c2-2.4,4.1-4.8,6.2-6.9C366.5,425.9,368.9,430.9,371.3,435.9z M363.5,419.6
		c-2,2-4.1,4.3-6.3,6.9c-2.8-5.6-5.5-10.9-8.1-15.9c1.7-3.2,3.5-6.4,5.5-9.3C357.4,407.1,360.4,413.2,363.5,419.6z M341.7,379.7
		c0.4-0.9,0.8-1.7,1.2-2.5c3.1,6.3,6.9,13.9,11,22.4c-1.9,2.8-3.7,5.8-5.5,9.2c-3.8-7.4-7.1-13.9-9.9-19.1
		C339.4,385.8,340.5,382.3,341.7,379.7z M337.9,392c2.7,5.1,5.9,11.4,9.6,18.5c-1.7,3.3-3.3,6.8-4.9,10.6c-3-5.7-5.6-10.7-7.7-14.6
		C335.8,401.4,336.8,396.4,337.9,392z M338.2,432.8c-2.3-4.4-4.2-8-5.8-10.7c0.6-4.3,1.3-8.7,2.1-13.1c2,3.8,4.5,8.6,7.3,14
		C340.4,426.3,339.2,429.6,338.2,432.8z M339.1,434.7c1.1-3.1,2.3-6.5,3.6-9.9c2,3.9,4.1,8.1,6.4,12.5c-1.7,2.5-3.3,5-4.8,7.3
		C342.4,441,340.7,437.7,339.1,434.7z M345.1,446.2c1.5-2.4,3.1-4.8,4.8-7.4c1.7,3.4,3.5,7,5.4,10.6c-2,2-3.8,3.9-5.5,5.8
		C348.1,452.1,346.6,449.1,345.1,446.2z M350.5,456.7c1.7-1.9,3.5-3.9,5.5-5.8c1.9,3.8,3.9,7.8,5.9,11.8c-2.2,1.5-4.2,3.1-6.1,4.5
		C353.9,463.6,352.2,460.1,350.5,456.7z M356.4,468.6c1.9-1.5,4-3,6.1-4.5c1.7,3.5,3.5,7,5.2,10.5c-2.2,1.4-4.4,2.7-6.3,4.1
		C359.8,475.2,358.1,471.9,356.4,468.6z M362.2,480c2-1.3,4.1-2.7,6.3-4.1c1.8,3.7,3.7,7.4,5.5,11c0,0-0.1,0-0.1,0.1
		c-2.2,1.3-4.3,2.6-6.3,3.9C365.8,487.2,364,483.6,362.2,480z"/>
	<path class="st11" d="M165.5,417.8l-1.1-1c-0.4,0.4-1.1,1.5-2,3.1c-0.6-4.3-1.3-8.8-2.1-13.2c2.4-4.4,4-7.2,4.6-7.9l-1.1-1
		c-0.6,0.6-2,3-4,6.6c-0.9-5.1-2-10.1-3.1-14.5c3.5-6.6,5.9-10.8,6.6-11.6l-1.1-1c-0.8,0.8-3,4.6-6.1,10.5c-0.9-3.4-1.9-6.4-2.9-8.7
		c-0.6-1.3-1.1-2.4-1.7-3.5c4.8-9.5,8.1-15.7,9-16.7l-1.1-1c-1,1-4.2,7.1-8.8,16.1c-1.6-2.9-3.2-5.2-4.7-7.1c-0.2,0.5-0.5,1-0.7,1.6
		c1.5,1.9,3,4.2,4.6,7.2c-3.2,6.4-7,14.1-11.1,22.6c-1.4-1.9-2.8-3.6-4.2-5.2c-0.2,0.5-0.5,1-0.7,1.6c1.4,1.6,2.8,3.4,4.1,5.2
		c-2.9,5.9-5.9,12.2-9,18.7c-1.4-1.3-2.7-2.5-4-3.5c-0.2,0.5-0.4,0.9-0.6,1.4c1.3,1.1,2.7,2.3,4,3.5c-2.4,5-4.8,10.1-7.3,15.2
		c-1.3-0.9-2.7-1.6-4-2.4c-0.2,0.5-0.4,0.9-0.6,1.4c1.3,0.7,2.6,1.5,3.9,2.4c-2.4,5.1-4.8,10.2-7.2,15.1c-1.3-0.6-2.6-1.2-3.9-1.7
		c-0.2,0.5-0.4,0.9-0.6,1.4c1.3,0.5,2.6,1.1,3.9,1.7c-2,4.1-3.9,8.1-5.7,12.1c-1.3-0.5-2.6-0.9-3.9-1.3c-0.2,0.5-0.4,0.9-0.7,1.4
		c1.3,0.4,2.6,0.8,3.9,1.3c-1.9,4-3.8,7.9-5.5,11.6c-1.4-0.5-2.7-0.8-4-1.2c-0.2,0.5-0.5,0.9-0.7,1.4c1.3,0.3,2.7,0.7,4,1.2
		c-2.2,4.7-4.3,9-6.1,12.9c-1.6-0.4-3.1-0.6-4.5-0.9c-0.2,0.5-0.5,1-0.7,1.4c1.5,0.2,3.1,0.5,4.6,0.9c-1.1,2.3-2,4.3-2.9,6.2H92
		c0.9-1.9,1.8-3.8,2.7-5.8c2.3,0.6,4.6,1.3,6.9,2c-0.6,1.3-1.3,2.6-1.9,3.8h1.7c0.5-1.1,1.1-2.2,1.6-3.3c2.8,1,5.6,2.1,8.2,3.3h3.7
		c-0.4-0.2-0.8-0.4-1.2-0.6c-0.1,0-0.2-0.1-0.3-0.1c1.8-3.6,3.6-7.3,5.5-11c2.2,1.3,4.4,2.6,6.4,3.9c-1.3,2.6-2.6,5.2-3.9,7.8h1.7
		c1.2-2.3,2.3-4.7,3.5-7c1.4,0.9,2.7,1.8,3.9,2.6l0.7-1.3c-1.2-0.9-2.5-1.7-3.9-2.6c1.8-3.6,3.6-7.3,5.4-10.8c1.5,1,2.9,2,4.1,3
		l0.7-1.3c-1.3-0.9-2.7-1.9-4.2-3c1.7-3.4,3.4-6.7,5-10c1.6,1.2,3,2.4,4.3,3.4l0.7-1.4c-1.3-1.1-2.8-2.2-4.3-3.5
		c1.8-3.5,3.5-6.9,5.2-10.2c1.5,1.7,2.8,3.2,4,4.7l0.8-1.4c-1.2-1.4-2.6-3-4-4.7c1.6-3.1,3-6,4.5-8.8c1.3,2.2,2.5,4.2,3.6,6l0.8-1.6
		c-1.1-1.8-2.3-3.9-3.6-6c1.7-3.4,3.4-6.6,4.9-9.5c1,3.1,1.8,5.9,2.6,8.4l1-1.9c-0.7-2.5-1.6-5.4-2.6-8.4c2.1-4.1,4-7.5,5.5-10.3
		c0.5,3.8,1,7.4,1.4,10.7l1.2-2.3c-0.4-3.3-0.9-6.8-1.4-10.6C164.1,419.8,165.1,418.2,165.5,417.8z M158.7,406.6
		c-2.1,3.9-4.7,8.8-7.7,14.6c-1.6-3.8-3.2-7.4-4.9-10.6c3.6-7.1,6.9-13.4,9.6-18.5C156.8,396.4,157.8,401.4,158.7,406.6z
		 M122.8,456.9c2.3-4.5,4.5-9,6.7-13.4c2.4,2.1,4.7,4.2,6.9,6.4c-2,3.9-4,8-6,12C128,460.1,125.5,458.4,122.8,456.9z M129.8,463.2
		c-1.8,3.5-3.5,7.1-5.3,10.6c-2.7-1.6-5.3-3.1-7.9-4.4c1.8-3.7,3.7-7.5,5.6-11.2C124.8,459.8,127.3,461.5,129.8,463.2z M130.3,442
		c2.2-4.4,4.3-8.6,6.4-12.8c2.1,2.7,4.2,5.4,6.1,8.2c-1.8,3.5-3.6,7.2-5.5,10.9C134.8,446,132.5,443.9,130.3,442z M142.3,434.2
		c-1.7-2.3-3.3-4.4-4.9-6.4c2.8-5.5,5.4-10.7,7.9-15.6c1.8,3.5,3.4,7.1,4.8,10.7c-2.1,4-4.3,8.3-6.6,12.9
		C143.1,435.3,142.7,434.7,142.3,434.2z M150.8,377.2c0.4,0.8,0.8,1.6,1.2,2.5c1.1,2.6,2.2,6.1,3.3,10.1c-2.8,5.2-6.1,11.7-9.9,19.1
		c-1.8-3.4-3.7-6.5-5.5-9.2C143.9,391.2,147.6,383.5,150.8,377.2z M139,401.2c2,2.9,3.8,6.1,5.5,9.3c-2.6,5-5.3,10.4-8.1,15.9
		c-2.1-2.6-4.2-4.8-6.3-6.9C133.2,413.2,136.2,407.1,139,401.2z M129.4,421.1c2.1,2.1,4.2,4.5,6.2,6.9c-2.1,4.3-4.3,8.6-6.6,13
		c-2.3-1.9-4.6-3.6-6.8-5.1C124.7,430.9,127.1,425.9,129.4,421.1z M121.6,437.3c2.3,1.6,4.6,3.3,6.7,5.1c-2.3,4.5-4.6,9.1-6.8,13.7
		c-2.3-1.4-4.7-2.6-7-3.8C116.9,447.3,119.3,442.3,121.6,437.3z M113.9,453.6c2.3,1.1,4.7,2.4,7,3.8c-1.9,3.8-3.8,7.6-5.6,11.3
		c-2.4-1.2-4.8-2.2-7.1-3.1C110.1,461.6,112,457.6,113.9,453.6z M107.6,467c2.4,0.9,4.7,2,7,3.1c-1.9,3.9-3.8,7.7-5.6,11.3
		c-2.4-1.1-4.7-2-6.9-2.8C103.9,474.8,105.7,470.9,107.6,467z M102.3,494.8c-2.4-0.8-4.7-1.5-6.9-2.1c1.9-4.1,4-8.4,6-12.8
		c2.3,0.8,4.6,1.8,6.9,2.8C106.2,487,104.2,491,102.3,494.8z M112.1,498.7c-2.9-1.3-5.7-2.4-8.3-3.4c1.9-3.9,3.9-7.9,5.9-11.9
		c2.7,1.3,5.4,2.7,8,4.1C115.7,491.4,113.9,495.1,112.1,498.7z M118.3,486.2c-2.7-1.5-5.4-2.9-8-4.2c1.8-3.7,3.7-7.5,5.6-11.3
		c2.7,1.4,5.4,2.9,7.9,4.4C121.9,478.8,120.1,482.5,118.3,486.2z M126,490.8c-2-1.3-4.1-2.6-6.3-3.9c0,0-0.1,0-0.1-0.1
		c1.8-3.7,3.7-7.4,5.5-11c2.2,1.4,4.4,2.8,6.3,4.1C129.6,483.6,127.8,487.2,126,490.8z M132.1,478.6c-2-1.3-4.1-2.7-6.3-4.1
		c1.8-3.5,3.5-7,5.2-10.5c2.2,1.5,4.2,3.1,6.1,4.5C135.5,471.9,133.8,475.2,132.1,478.6z M137.8,467.2c-1.9-1.5-4-3-6.1-4.5
		c2-4,4-7.9,5.9-11.8c2,2,3.8,4,5.5,5.8C141.4,460.1,139.6,463.6,137.8,467.2z M143.9,455.3c-1.7-1.9-3.6-3.9-5.5-5.8
		c1.8-3.7,3.6-7.2,5.4-10.6c1.7,2.5,3.3,5,4.8,7.4C147,449.1,145.5,452.1,143.9,455.3z M149.3,444.6c-1.5-2.4-3.1-4.8-4.8-7.3
		c2.2-4.4,4.4-8.6,6.4-12.5c1.3,3.4,2.5,6.7,3.6,9.9C152.9,437.7,151.1,441,149.3,444.6z M155.4,432.8c-1.1-3.2-2.3-6.5-3.6-9.8
		c2.8-5.5,5.3-10.2,7.3-14c0.8,4.4,1.4,8.9,2.1,13.1C159.7,424.8,157.7,428.4,155.4,432.8z"/>
</g>
<g id="BEELD">
	<g>
		<polygon class="st13" points="272.7,500 222.1,500 239.8,387.4 255,387.4 		"/>
		<path class="st14" d="M260.4,382.3c0,6.5-8.3,18-13,18c-4.7,0-13-11.5-13-18s6.7-7.8,13.3-7.8S260.4,375.8,260.4,382.3z"/>
	</g>
	<g>
		<path class="st15" d="M282.8,312.1c1.5,16.7-35.4,62.4-35.4,62.4l18.9,26c0,0,31.2-57.1,31.2-68.4L282.8,312.1z"/>
		<path class="st15" d="M212,312.1c-1.5,16.7,35.4,62.4,35.4,62.4l-18.9,26c0,0-31.2-57.1-31.2-68.4L212,312.1z"/>
		<path class="st12" d="M197.3,332.1c0,11.3,31.2,68.4,31.2,68.4l18.9-24.8l18.9,24.8c0,0,30.8-55.5,31.2-68.4"/>
	</g>
</g>
<g id="Layer_7" class="st16">
	<line class="st17" x1="250.1" y1="572.2" x2="250.1" y2="1602.8"/>
</g>
</svg>
