<?xml version="1.0" encoding="utf-8"?>
<!-- Generator: Adobe Illustrator 24.3.0, SVG Export Plug-In . SVG Version: 6.00 Build 0)  -->
<svg version="1.1" xmlns="http://www.w3.org/2000/svg" xmlns:xlink="http://www.w3.org/1999/xlink" x="0px" y="0px"
	 viewBox="0 0 500 500" style="enable-background:new 0 0 500 500;" xml:space="preserve">
<style type="text/css">
	.st0{fill:#AFB1B4;}
	.st1{fill:url(#SVGID_1_);}
	.st2{fill:#1BB24B;}
	.st3{fill:#5F492C;}
	.st4{fill:#90692D;}
	.st5{fill:#2A1D01;}
	.st6{fill:#FFFFFF;}
	.st7{fill:#004152;}
	.st8{fill:#F99D1C;}
	.st9{fill:#189B41;}
	.st10{fill:none;}
	.st11{fill:#EFEFF0;}
	.st12{display:none;}
	.st13{display:inline;fill:none;stroke:#231F20;stroke-width:0.5;stroke-miterlimit:10;}
</style>
<g id="Layer_5">
</g>
<g id="Layer_2">
</g>
<g id="Layer_4">
</g>
<g id="Layer_1">
	<path class="st0" d="M216,342.7c0,0-8.9-29.1-5.4-31.6c3.5-2.5,54.2-8.9,73-1.5l-1.5,33l-57.7,26.1L216,342.7z"/>
	<linearGradient id="SVGID_1_" gradientUnits="userSpaceOnUse" x1="154.7139" y1="341.9254" x2="340.0258" y2="341.9254">
		<stop  offset="0" style="stop-color:#5F492C"/>
		<stop  offset="1" style="stop-color:#46351B"/>
	</linearGradient>
	<path class="st1" d="M171.9,410.7l148.6,3.8L340,362c0,0-3.1-13.6-24.9-20.9c-21.8-7.3-41.5-15.5-41.5-31c0-15.5,0-40.8,0-40.8
		h-26.4h-0.1h-26.4c0,0,0,25.3,0,40.8c0,15.5-19.6,22.9-41.4,30.1c-21.8,7.3-24.6,20.7-24.6,20.7L171.9,410.7z"/>
	<path class="st2" d="M114.1,498.1l50-72.5c0,0,2.5,40.3,4.7,72.5h147.8c2.6-34.4,6.1-78.1,6.1-78.1l41.3,78.1h36.1
		c-21.3-52.8-59.2-145.8-63.4-151.4c-5.9-7.9-54.2-21.7-54.2-21.7L246,378.2L205.5,323c0,0-43.4,15.8-47.3,17.8
		c-2.9,1.5-59,104.8-87.4,157.3H114.1z"/>
	<path class="st3" d="M342,151.9c0,75.6-26.8,137.3-95.7,137.3c-68.9,0-94.4-62.4-94.4-138c0-75.6,64.1-83.4,95.5-83.4
		S342,76.3,342,151.9z"/>
	<path class="st4" d="M230.6,200.3c0,10.4-8.5,18.8-19,18.8c-10.5,0-19-8.4-19-18.8c0-10.4,8.5-18.8,19-18.8
		C222.1,181.5,230.6,189.9,230.6,200.3z"/>
	<path class="st5" d="M225.7,200.3c0,7.2-5.9,13.1-13.1,13.1c-7.2,0-13.1-5.9-13.1-13.1c0-7.2,5.9-13.1,13.1-13.1
		C219.9,187.2,225.7,193.1,225.7,200.3z"/>
	<path class="st6" d="M207.1,193.5c0,2.1-1.7,3.8-3.8,3.8c-2.1,0-3.8-1.7-3.8-3.8s1.7-3.8,3.8-3.8
		C205.4,189.7,207.1,191.4,207.1,193.5z"/>
	<path class="st5" d="M205.1,241.9c13,7.9,26.9,12.7,41,12.6c14.2,0,27.8-5.5,41.3-12.6c-5,5.9-11.2,10.7-18.2,14.2
		c-7,3.6-15,5.5-23,5.6c-8,0-16-1.8-23.1-5.3C216,253,209.6,248.2,205.1,241.9z"/>
	<path class="st4" d="M265.3,200.3c0,10.4,8.5,18.8,19,18.8c10.5,0,19-8.4,19-18.8c0-10.4-8.5-18.8-19-18.8
		C273.8,181.5,265.3,189.9,265.3,200.3z"/>
	<path class="st5" d="M270.2,200.3c0,7.2,5.9,13.1,13.1,13.1c7.2,0,13.1-5.9,13.1-13.1c0-7.2-5.9-13.1-13.1-13.1
		C276,187.2,270.2,193.1,270.2,200.3z"/>
	<path class="st6" d="M270.9,193.5c0,2.1,1.7,3.8,3.8,3.8c2.1,0,3.8-1.7,3.8-3.8s-1.7-3.8-3.8-3.8
		C272.6,189.7,270.9,191.4,270.9,193.5z"/>
	<path class="st7" d="M211.1,333.9c0,0,34,29.6,71,0l-36.2,44.4L211.1,333.9z"/>
	<path class="st5" d="M355.5,149c0-3.2-2.4-5.8-5.6-6.2c3.4-0.7,6-3.7,6-7.3c0-4.1-3.4-7.5-7.5-7.5c-0.6,0-1.2,0.1-1.7,0.2
		c0,0,0-0.1,0-0.1c3.2-0.9,5.5-3.7,5.5-7.2c0-4.1-3.4-7.5-7.5-7.5c-0.2,0-0.4,0-0.5,0.1c2.2-1.9,3.6-4.7,3.6-7.8
		c0-5.8-4.7-10.4-10.4-10.4c-1.4,0-2.7,0.3-3.8,0.7c1.6-1.6,2.6-3.8,2.6-6.2c0-4.8-3.9-8.7-8.7-8.7c-0.7,0-1.5,0.1-2.2,0.3
		c0-0.4,0.1-0.8,0.1-1.2c0-5.3-4.3-9.6-9.6-9.6c-2.1,0-4.1,0.7-5.7,1.9c0.1-0.5,0.1-1,0.1-1.5c0-5.3-4.3-9.6-9.6-9.6
		c-2.2,0-4.3,0.8-5.9,2.1c-0.2-5.6-4.8-10.1-10.4-10.1c-3.6,0-6.8,1.8-8.6,4.6c-1-4.2-4.8-7.3-9.3-7.3c-3,0-5.7,1.4-7.4,3.6
		c-1.6-3.1-4.8-5.2-8.5-5.2c-2.5,0-4.7,0.9-6.4,2.5c-1.3-0.8-2.8-1.3-4.4-1.3c-2.3,0-4.3,0.9-5.7,2.4c-1.6-1.2-3.6-2-5.8-2
		c-4.5,0-8.3,3.1-9.3,7.3c-1.9-2.8-5-4.6-8.6-4.6c-5.6,0-10.2,4.5-10.4,10.1c-1.6-1.3-3.7-2.1-5.9-2.1c-5.3,0-9.6,4.3-9.6,9.6
		c0,0.5,0.1,1,0.1,1.5c-1.6-1.2-3.6-1.9-5.7-1.9c-5.3,0-9.6,4.3-9.6,9.6c0,0.4,0,0.8,0.1,1.2c-0.7-0.2-1.4-0.3-2.2-0.3
		c-4.8,0-8.7,3.9-8.7,8.7c0,1.5,0.4,3,1.1,4.2c-0.4-0.1-0.7-0.1-1.1-0.1c-3.5,0-6.3,2.8-6.3,6.3c0,2.3,1.3,4.3,3.1,5.4
		c0,0,0,0.1-0.1,0.1c-0.7-0.2-1.4-0.4-2.1-0.4c-3.5,0-6.3,2.8-6.3,6.3c0,0.9,0.2,1.7,0.5,2.5c-2.9,1-5,3.8-5,7c0,3.2,2,5.8,4.7,6.9
		c0,0.1,0,0.2-0.1,0.2c-0.3,0-0.6-0.1-0.9-0.1c-4.1,0-7.5,3.4-7.5,7.5c0,3.6,2.6,6.6,6,7.3c-3.1,0.4-5.6,3-5.6,6.2
		c0,3.2,2.4,5.8,5.5,6.2c-2.9,0.5-5.1,3.1-5.1,6.2c0,3.2,2.4,5.8,5.5,6.2c0,0.2,0,0.4,0,0.5c-2.3,0.7-3.9,2.7-3.9,5.2
		c0,2.7,2,4.9,4.6,5.4c0,0.3,0.1,0.6,0.1,0.9c-1.1,1-1.9,2.4-1.9,4.1c0,2,1.1,3.8,2.7,4.7c0,0.3,0.1,0.6,0.1,0.9
		c-0.5,0.7-0.7,1.5-0.7,2.3c0,1.2,0.6,2.3,1.4,3.1c0.7,4.9,10.9,14.9,10.9,14.9s3.6-50.3,9.4-57c1-1.2,2-2.4,2.9-3.7
		c3.4-0.1,6.1-2.8,6.1-6.2c0-0.2,0-0.3,0-0.4c1.1,0.9,2.5,1.5,4.1,1.5c3.5,0,6.3-2.8,6.3-6.3c0-0.8-0.2-1.6-0.4-2.3
		c0.5,0.1,0.9,0.2,1.4,0.2c2.7,0,4.9-1.7,5.8-4c10.9-3.5,27.7-5.8,55.1-5.8c30.8,0,49.3,4.2,60.9,10.4c0.5,1.7,2.1,2.9,4,2.9
		c0.1,0,0.1,0,0.2,0c0,0.2-0.1,0.4-0.1,0.6c0,3.5,2.8,6.3,6.3,6.3c0.7,0,1.4-0.1,2-0.4c0.1,0.1,0.2,0.2,0.3,0.3
		c-0.1,0.4-0.2,0.9-0.2,1.4c0,3.1,2.3,5.7,5.3,6.2c0.3,0.6,0.6,1.2,0.9,1.8c8.4,16.8,5.3,61,5.3,61l0,0c1.7-6.7,11.4-13.5,12.5-20.7
		c1.3-0.7,2.3-2.1,2.3-3.7c0-1.1-0.5-2.2-1.2-2.9c2-0.8,3.3-2.8,3.3-5c0-1.9-1-3.6-2.5-4.6c0-0.1,0-0.2,0-0.3
		c2.9-0.1,5.3-2.5,5.3-5.5c0-2.7-2-5-4.6-5.4c0-0.1,0-0.2,0-0.3c3.4,0,6.2-2.8,6.2-6.3c0-3.1-2.2-5.6-5.1-6.2
		C353.1,154.8,355.5,152.2,355.5,149z"/>
	<path class="st8" d="M369.3,422.3l-0.8,1.7l10.8,22.7C375.9,438.5,372.6,430.3,369.3,422.3z"/>
	<g>
		<g>
			<polygon class="st9" points="353.3,392 338.1,423.9 353.3,455.8 368.5,423.9 			"/>
		</g>
		<path class="st9" d="M340.7,354.7l-2.6,5.5l15.2,31.9l1.8-3.9C349.2,374,344.1,362.1,340.7,354.7z"/>
	</g>
	<g>
		<path class="st8" d="M307.8,423.9l12.5,26.3c1.4-17.3,2.4-30.3,2.4-30.3l9.1,17.2l6.3-13.3L323,392L307.8,423.9z"/>
		<path class="st8" d="M318.8,337l-11,23.1L323,392l15.2-31.9l-8.8-18.5C326.3,340.1,322.7,338.6,318.8,337z"/>
	</g>
	<g>
		<g>
			<polygon class="st9" points="292.6,392 277.5,423.9 292.6,455.8 307.8,423.9 			"/>
		</g>
		<g>
			<polygon class="st9" points="292.6,328.2 277.5,360.1 292.6,392 307.8,360.1 			"/>
		</g>
	</g>
	<g>
		<polygon class="st8" points="262.3,392 247.1,423.9 262.3,455.8 277.4,423.9 		"/>
	</g>
	<g>
		<polygon class="st9" points="232,392 216.8,423.9 232,455.8 247.1,423.9 		"/>
	</g>
	<g>
		<g>
			<polygon class="st8" points="201.6,392 186.5,423.9 201.6,455.8 216.8,423.9 			"/>
		</g>
		<g>
			<polygon class="st8" points="201.6,328.2 186.5,360.1 201.6,392 216.8,360.1 			"/>
		</g>
	</g>
	<g>
		<path class="st9" d="M181.5,498.1l4.9-10.3l-15.2-31.9l-4.6,9.7c0.7,10.6,1.5,22,2.2,32.5H181.5z"/>
		<path class="st9" d="M186.5,423.9L171.3,392l-15.2,31.9l3.7,7.8l4.3-6.2c0,0,0.4,7,1.1,17.5l6.1,12.8L186.5,423.9z"/>
		<path class="st9" d="M156.1,360.2l15.2,31.9l15.2-31.9l-12.2-25.6c-2.6,1-5.1,1.9-7.3,2.7L156.1,360.2z"/>
	</g>
	<g>
		<polygon class="st8" points="141.9,457.8 141,455.8 135.9,466.5 		"/>
		<g>
			<polygon class="st8" points="141,392 125.8,423.9 141,455.8 156.1,423.9 			"/>
		</g>
		<path class="st8" d="M141,392l15.2-31.9l-4.4-9.2c-4.1,7-9.8,17.1-16.5,29.1L141,392z"/>
	</g>
	<g>
		<polygon class="st9" points="123.9,483.8 110.6,455.8 95.5,487.7 100.4,498.1 114.1,498.1 		"/>
		<path class="st9" d="M110.6,455.8l15.2-31.9l-6.8-14.4c-5.3,9.7-10.8,19.7-16.2,29.7L110.6,455.8z"/>
	</g>
	<path class="st8" d="M90.6,498.1l4.9-10.3L86.6,469c-5.7,10.6-11.1,20.5-15.7,29.1H90.6z"/>
	<path class="st10" d="M205.5,323.2l40.4,55.2l36.5-53.3c0,0,48.3,13.8,54.2,21.7c5.9,7.9,63.5,151.2,63.5,151.2H364l-41.4-77.9
		l-6,77.9H168.9l-4.8-72.3l-49.9,72.3H70.8c0,0,83.4-155.1,87.3-157.1C162.1,339,205.5,323.2,205.5,323.2z"/>
	<g>
		<path class="st10" d="M377,493.6l2.1,4.5h21c-3.5-8.7-7.4-18.4-11.6-28.7L377,493.6z"/>
		<path class="st10" d="M316.7,497.4c0.2-3,0.4-6,0.7-9.1l-2.5,5.3L316.7,497.4z"/>
	</g>
	<g>
		<path class="st10" d="M345.2,430.7l14.9,31.4l-7.2,15.1l11,20.8h36.1c-11.3-27.8-27.1-66.8-40.2-98.3L345.2,430.7z"/>
		<path class="st10" d="M356.7,392c-4-9.7-7.7-18.4-10.8-25.6l-0.7,1.4L356.7,392z"/>
	</g>
	<path class="st10" d="M205.5,323.2l40.4,55.2l36.5-53.3c0,0,48.3,13.8,54.2,21.7c5.9,7.9,63.5,151.2,63.5,151.2H364l-41.4-77.9
		l-6,77.9H168.9l-4.8-72.3l-49.9,72.3H70.8c0,0,83.3-155.1,87.3-157.1C162.1,339,205.5,323.2,205.5,323.2z"/>
	<path class="st11" d="M210.6,311.2c1,11.8,37.5,61.1,37.5,61.1s37-45.9,35.5-62.6l14.8,19.2c0,11.3-33,69.5-33,69.5l-17.8-22.7
		l-18.2,23.7c0,0-33.5-56.7-33.5-72.5L210.6,311.2z"/>
	<path class="st8" d="M397.2,491c-4.3-10.5-9-22.3-14-34.4l-14.8,31.2l4.9,10.3h20.5L397.2,491z"/>
	<polygon class="st9" points="363.8,497.6 368.5,487.7 353.3,455.8 347.8,467.4 	"/>
	<path class="st8" d="M319.3,463.6l-11.5,24.1l4.9,10.3h3.9C317.5,487,318.4,474.9,319.3,463.6z"/>
	<polygon class="st9" points="302.9,498.1 307.8,487.7 292.6,455.8 277.5,487.7 282.4,498.1 	"/>
	<polygon class="st8" points="272.5,498.1 277.4,487.7 262.3,455.8 247.1,487.7 252,498.1 	"/>
	<polygon class="st9" points="242.2,498.1 247.1,487.7 232,455.8 216.8,487.7 221.7,498.1 	"/>
	<polygon class="st8" points="211.9,498.1 216.8,487.7 201.6,455.8 186.5,487.7 191.4,498.1 	"/>
</g>
<g id="Layer_3">
</g>
<g id="BEELD">
</g>
<g id="Layer_7" class="st12">
	<line class="st13" x1="-394.5" y1="572.2" x2="-394.5" y2="1602.8"/>
</g>
</svg>
