<?xml version="1.0" encoding="utf-8"?>
<!-- Generator: Adobe Illustrator 24.3.0, SVG Export Plug-In . SVG Version: 6.00 Build 0)  -->
<svg version="1.1" xmlns="http://www.w3.org/2000/svg" xmlns:xlink="http://www.w3.org/1999/xlink" x="0px" y="0px"
	 viewBox="0 0 500 500" style="enable-background:new 0 0 500 500;" xml:space="preserve">
<style type="text/css">
	.st0{fill:#74090A;}
	.st1{fill:#EFD6C2;}
	.st2{fill:#CE181E;}
	.st3{fill:#F7E2D0;}
	.st4{fill:#FFFFFF;}
	.st5{fill:none;stroke:#E6E7E8;stroke-miterlimit:10;}
	.st6{fill:#930D10;}
	.st7{fill:#EDC866;}
	.st8{fill:#540000;}
	.st9{fill:none;stroke:#360000;stroke-width:2;stroke-miterlimit:10;}
	.st10{fill:#360000;}
	.st11{fill:none;stroke:#74090A;stroke-miterlimit:10;}
	.st12{fill:#F9D482;}
	.st13{fill:#FFE7B6;}
	.st14{fill:#4C9BBB;}
	.st15{fill:#2A1D01;}
	.st16{fill:#A38276;}
	.st17{fill:#E01919;}
	.st18{fill:none;stroke:#540000;stroke-miterlimit:10;}
	.st19{display:none;}
	.st20{display:inline;fill:none;stroke:#231F20;stroke-width:0.5;stroke-miterlimit:10;}
</style>
<g id="Layer_5">
</g>
<g id="Layer_2">
</g>
<g id="Layer_4">
</g>
<g id="Layer_1">
	<path class="st0" d="M215.3,360.5c0,0-9-29.3-5.4-31.6c14.5-9.1,70.3-7.3,75,0c1.9,2.9,3.8,26.9,3.8,26.9l-65,30.8L215.3,360.5z"/>
	<path class="st1" d="M337.2,368.3c0,0,0,0-22.9-7.6c-22.9-7.6-38.6-21.4-38.6-37.7c0-16.2,0-42.8,0-42.8h-27.5h-0.7h-27.5
		c0,0,0,26.5,0,42.8c0,16.3-13.4,24.7-36.3,32.3c-22.9,7.6-24.5,10.9-24.5,10.9l-50.6,132.4h39.1l20.3-58.8c0,0,10.4,17.1,17.9,58.8
		h61.5h0.7h61.5c7.5-41.7,13.9-58.8,13.9-58.8l20.3,58.8H387L337.2,368.3z"/>
	<path class="st2" d="M339.4,360c-3.9-2-50.3-19.2-50.3-19.2l-41.4,49.3l-42.5-49.3c0,0-46.3,17.2-50.3,19.2
		c-2.9,1.5-31.9,90.9-51.7,138.7h50l14.6-39.3c0,0,1.4,7,3.7,39.3h75.1h1.1h74.1c2.3-32.3,3.7-39.3,3.7-39.3l11.6,39.3h54
		C371.3,450.9,342.4,361.4,339.4,360z"/>
	<path class="st3" d="M351.6,158.9c0,79.3-35.2,144.2-103.6,144.2c-68.3,0-106.3-65.6-106.3-144.9c0-79.3,39.1-87.3,107.4-87.3
		C317.5,70.8,351.6,79.6,351.6,158.9z"/>
	<path class="st4" d="M247.3,358.8c-16.9,0-31.8-6.3-40.2-15.7v48.8h79.8v-48C278.4,352.9,263.8,358.8,247.3,358.8z"/>
	<path class="st5" d="M286.9,354.2c-8.5,9-23.1,15-39.6,15c-16.9,0-31.8-6.3-40.2-15.7"/>
	<polygon class="st6" points="199.7,498.7 185,498.4 168.9,354.4 184,348.7 	"/>
	<polygon class="st6" points="226.6,498.7 211.8,498.4 199.7,354.4 214.8,348.7 	"/>
	<polygon class="st6" points="289.6,498.7 304.4,498.4 320.5,352.6 305.6,346.9 	"/>
	<polygon class="st6" points="260.8,498.7 275.6,498.4 287.7,354.4 271.4,364 	"/>
	<polygon class="st6" points="247.7,498.7 240.1,498.7 231.7,380.3 247.2,390.1 	"/>
	<path class="st6" d="M391.1,498.7h-14.8L334,368.2l2.4-6.5l2.2-2c0,0,0.6,0.1,0.8,0.3C342.4,361.4,371.3,450.9,391.1,498.7z"/>
	<polygon class="st6" points="361.8,498.7 346.9,498.7 326.2,436.5 328.3,399.4 	"/>
	<polygon class="st6" points="318.5,498.7 326.3,447.8 325.5,459.4 321.8,498.7 	"/>
	<g>
		<path class="st6" d="M209,348.9l-49.4,16.9c0,0,2.2,6.7,3.2,12.3l52.8-16.9L209,348.9z"/>
		<path class="st6" d="M162.8,378.6c0-0.2-0.1-0.4-0.1-0.4C162.8,378.3,162.8,378.5,162.8,378.6z"/>
		<polygon class="st6" points="214.3,376.1 164.2,388.7 165.7,402.4 219.8,388.9 		"/>
		<polygon class="st6" points="247,430.9 167.5,443.1 168.3,456.7 246.9,447.2 		"/>
		<polygon class="st6" points="247.2,460.4 169.3,471.2 170.5,484.8 246.9,476.8 		"/>
		<path class="st6" d="M331.9,378.2c0,0.1,0,0.2-0.1,0.4C331.8,378.5,331.8,378.3,331.9,378.2z"/>
		<polygon class="st6" points="247.5,401.7 247.2,401.8 247,401.7 247,401.8 167,415.3 167.7,429 247.2,418.3 326.8,429 
			327.5,415.3 247.5,401.8 		"/>
		<path class="st6" d="M335,365.8l-49.4-16.9l-6.6,12.3l52.8,16.9C332.7,372.5,335,365.8,335,365.8z"/>
		<polygon class="st6" points="274.8,388.9 328.8,402.4 330.4,388.7 280.3,376.1 		"/>
		<polygon class="st6" points="247.5,430.9 247.6,447.2 326.3,456.7 325.7,443.4 		"/>
		<polygon class="st6" points="247.7,476.8 321.9,484.6 323.7,471 247.3,460.4 		"/>
		<path class="st6" d="M247.3,491.6l-76.1,4.7c0.1,0.8,0.1,1.6,0.2,2.4h75.1h1.1h74.1c0.1-0.8,0.1-1.7,0.2-2.5l-74.6-4.8
			L247.3,491.6z"/>
	</g>
	<path class="st7" d="M344,218.7c0,0,0-75.4-14.9-88.6c-16.3-14.5-67.3-18.4-82.4-17.6c-15.2,0.8-63.2,2-79.6,12.8
		S148.5,213,148.5,213s-20.8-74.7-4.9-121.1c15.4-45.1,161.4-54.5,195.6-7.2C364,119.2,344,218.7,344,218.7z"/>
	<path class="st6" d="M348.6,382.4c-10.4,12.2-20.8,27.9-20.8,27.9l-1.3,30.8l29.9-37C353.4,396.1,350.8,388.7,348.6,382.4z"/>
	<path class="st8" d="M326.5,437.5l0.8,2.4l10.3-12.8l-7.1-21c-1.8,2.6-2.8,4.2-2.8,4.2L326.5,437.5z"/>
	<path class="st8" d="M341.3,391.2l7.2,22.3l7.5-9.3c-2.8-8-5.4-15.4-7.7-21.7C346,385.3,343.6,388.3,341.3,391.2z"/>
	<path class="st6" d="M326.4,462.4c0,0,27.8-36.9,35.7-41.5l6.2,17.5l-36.5,42.4L326.4,462.4z"/>
	<path class="st8" d="M338.4,473.1l10.6-12.3l-6.4-19.1c-3.8,4.7-7.4,9.3-10.3,13L338.4,473.1z"/>
	<path class="st8" d="M362.1,420.9c-1.9,1.1-4.9,4.1-8.5,7.9l6.3,19.4l8.4-9.8l-0.1-0.2C366.2,432.4,364.1,426.6,362.1,420.9
		L362.1,420.9z"/>
	<path class="st6" d="M336.4,495.8c0,0,30.3-35.6,38.2-40.2c0,0,6.4,17,6.3,17c-1.1,0.5-26.7,26.1-26.7,26.1l-16.9,0L336.4,495.8z"
		/>
	<path class="st8" d="M346.9,498.6l7.2,0c0,0,2.4-2.4,5.7-5.7l-5.8-17.2c-3.9,4.3-7.7,8.6-10.7,12.1L346.9,498.6z"/>
	<path class="st8" d="M370.9,482c5.1-5,9.5-9.2,9.9-9.5c0,0,0,0,0,0c-2.1-5.5-4.2-11.2-6.3-16.9c0,0,0,0,0,0c-2,1.2-5.5,4.3-9.5,8.4
		L370.9,482z"/>
	<g>
		<path class="st6" d="M332,378.2l-0.1,0.5C331.9,378.5,331.9,378.4,332,378.2C332,378.2,332,378.2,332,378.2z"/>
		<path class="st6" d="M335.3,372.2c-1-2.4,4.6-12,4.2-12.2c-0.1,0-0.1-0.1-0.2-0.1c-2.3,1.6-5.4,6.1-7.3,18.3
			C332,378.1,334.7,372.9,335.3,372.2z"/>
	</g>
	<path class="st8" d="M334.1,368.7l1.1,3.5c0,0,3.4-6.4,6.3-8.2c0,0-1.6-4.1-2.3-4.1s0,0,0,0S336.7,359.9,334.1,368.7
		C331.5,377.6,334.1,368.7,334.1,368.7"/>
	<path class="st6" d="M103.4,498.7h14.8l42.4-130.5l-2.4-6.5l-2.2-2c0,0-0.6,0.1-0.8,0.3C152.1,361.4,123.2,450.9,103.4,498.7z"/>
	<polygon class="st6" points="132.7,498.7 147.6,498.7 168.3,436.5 166.2,399.4 	"/>
	<path class="st6" d="M145.9,382.4c10.4,12.2,20.8,27.9,20.8,27.9l1.3,30.8l-29.9-37C141,396.1,143.6,388.7,145.9,382.4z"/>
	<path class="st8" d="M167.9,437.5l-0.8,2.4l-10.3-12.8l7.1-21c1.8,2.6,2.8,4.2,2.8,4.2L167.9,437.5z"/>
	<path class="st8" d="M153,391.1l-7.2,22.3l-7.5-9.3c2.8-8,5.4-15.4,7.7-21.7C148.3,385.2,150.7,388.2,153,391.1z"/>
	<path class="st6" d="M167.2,461.2c0,0-27.7-36.2-34.8-40.3l-6.2,17.5l34.6,40.2L167.2,461.2z"/>
	<path class="st8" d="M156.1,473.1l-10.6-12.3l6.4-19.1c3.8,4.7,7.4,9.3,10.3,13L156.1,473.1z"/>
	<path class="st8" d="M132.4,420.9c1.9,1.1,4.9,4.1,8.5,7.9l-6.3,19.4l-8.4-9.8l0.1-0.2C128.3,432.4,130.4,426.6,132.4,420.9
		L132.4,420.9z"/>
	<path class="st6" d="M155.5,492.7c0,0-29.1-33.3-35.6-37.1c0,0-6.4,17-6.3,17c1.1,0.5,26.7,26.1,26.7,26.1l12.9,0L155.5,492.7z"/>
	<path class="st8" d="M147.6,498.6l-7.2,0c0,0-2.4-2.4-5.7-5.7l5.8-17.2c3.9,4.3,7.7,8.6,10.7,12.1L147.6,498.6z"/>
	<path class="st8" d="M123.6,482c-5.1-5-9.5-9.2-9.9-9.5c0,0,0,0,0,0c2.1-5.5,4.2-11.2,6.3-16.9c0,0,0,0,0,0c2,1.2,5.5,4.3,9.5,8.4
		L123.6,482z"/>
	<g>
		<path class="st6" d="M162.5,378.2l0.1,0.5C162.6,378.5,162.6,378.4,162.5,378.2C162.5,378.2,162.5,378.2,162.5,378.2z"/>
		<path class="st6" d="M159.2,372.2c1-2.4-4.6-12-4.2-12.2c0.1,0,0.1-0.1,0.2-0.1c2.3,1.6,5.4,6.1,7.3,18.3
			C162.5,378.1,159.8,372.9,159.2,372.2z"/>
	</g>
	<path class="st8" d="M160.4,368.7l-1.1,3.5c0,0-3.4-6.4-6.3-8.2c0,0,1.6-4.1,2.3-4.1s0,0,0,0S157.8,359.9,160.4,368.7
		C163,377.6,160.4,368.7,160.4,368.7"/>
	<g>
		<polygon class="st8" points="293,466.7 291.4,481.4 306.1,482.9 307.6,468.8 		"/>
		<polygon class="st8" points="290.1,494.2 289.6,498.7 304.4,498.4 304.7,495.1 		"/>
		<polygon class="st8" points="295.9,438.6 294.4,452.9 309.2,454.6 310.7,441 		"/>
		<polygon class="st8" points="298.9,410.4 297.4,425.1 312.3,427.1 313.8,413 		"/>
		<polygon class="st8" points="304.7,355.5 303.3,369 318.2,373.8 319.6,360.6 		"/>
		<polygon class="st8" points="302,381.5 300.5,395.3 315.4,399 316.9,385.3 		"/>
	</g>
	<g>
		<polygon class="st8" points="262.4,478.3 277.2,479.9 278.4,464.7 263.7,462.7 		"/>
		<polygon class="st8" points="264.7,449.3 279.6,451.1 280.8,436.2 265.9,433.8 		"/>
		<polygon class="st8" points="283.2,407.8 268.2,405.3 266.9,421 281.9,423 		"/>
		<polygon class="st8" points="279,361.2 286.9,363.7 287.7,354.4 280.3,358.8 		"/>
		<polygon class="st8" points="285.8,377.5 280.3,376.1 274.8,388.9 284.6,391.3 		"/>
		<polygon class="st8" points="276,493.3 261.3,492.3 260.8,498.7 275.6,498.4 		"/>
	</g>
	<polygon class="st6" points="247.8,452 253.1,391.3 247.4,390.1 	"/>
	<polygon class="st8" points="247.4,401.7 247.5,418.4 250.6,418.8 252,402.6 247.4,401.8 247.4,401.7 	"/>
	<polygon class="st8" points="247.8,447.3 248.3,447.3 249.7,431.2 247.7,430.9 	"/>
	<g>
		<polygon class="st8" points="247.7,491.5 247.3,491.4 247.3,491.6 239.6,492.1 240.1,498.7 246.6,498.7 247.7,498.7 247.7,498.7 
					"/>
		<polygon class="st8" points="247.2,460.4 237.5,461.7 238.6,477.7 247.7,476.8 		"/>
		<polygon class="st8" points="247,401.7 247,401.8 233.4,404.1 234.5,420 247.2,418.3 247.3,418.4 247.2,401.8 		"/>
		<polygon class="st8" points="236.5,448.5 247.6,447.2 247.5,430.9 235.4,432.6 		"/>
	</g>
	<line class="st9" x1="247.7" y1="498.7" x2="247.4" y2="390.1"/>
	<g>
		<polygon class="st8" points="223.8,463.6 209.1,465.7 210.3,480.6 225.1,479.1 		"/>
		<polygon class="st8" points="211.8,498.4 226.6,498.7 226.1,492.9 211.4,493.8 		"/>
		<polygon class="st8" points="221.6,434.8 206.7,437.1 207.9,451.9 222.8,450.1 		"/>
		<polygon class="st8" points="205.6,423.9 220.6,421.9 219.4,406.4 204.3,409 		"/>
		<polygon class="st8" points="199.7,354.4 200.7,366 215.6,361.2 209.9,350.6 		"/>
		<polygon class="st8" points="214.3,376.1 201.8,379.2 203,393.1 218,389.3 217.6,383.8 		"/>
	</g>
	<g>
		<polygon class="st8" points="178.6,441.4 180.2,455.2 195,453.4 193.5,439.1 		"/>
		<polygon class="st8" points="175.5,413.8 177.1,427.7 192.1,425.7 190.5,411.3 		"/>
		<polygon class="st8" points="196.5,467.4 181.7,469.5 183.3,483.4 198,481.9 		"/>
		<polygon class="st8" points="171.2,375.4 186.3,370.6 184.9,357.1 169.8,362.3 		"/>
		<polygon class="st8" points="199.3,494.5 184.7,495.4 185,498.3 199.7,498.6 199.7,498.6 		"/>
		<polygon class="st8" points="172.5,386.6 174,400.3 189,396.5 187.6,382.8 		"/>
	</g>
	<circle class="st10" cx="256.3" cy="410" r="2.7"/>
	<circle class="st10" cx="256.3" cy="426.1" r="2.7"/>
	<circle class="st10" cx="256.3" cy="442.2" r="2.7"/>
	<circle class="st10" cx="256.3" cy="458.2" r="2.7"/>
	<circle class="st10" cx="256.3" cy="474.3" r="2.7"/>
	<circle class="st10" cx="256.3" cy="490.3" r="2.7"/>
	<path class="st11" d="M154.9,360c0,0,12.2-4.3,12.9,98.4"/>
	<path class="st11" d="M339.4,360c0,0-12.1-0.9-13.9,99.8"/>
	<path class="st12" d="M298,114c0,0,1.3-15.2,3.6-25.5c6-27.4,16-34.6,22.8-34.9c11-0.5,13.2,8.8,13.2,8.8s5.5,1.7,10.8,12.3
		s7.4,41.8,7.4,41.8s-7.6-25.3-12.9-28.1s-17.2,3.9-24.6,12.8c-7.3,8.8-11,15.3-11,15.3l3.7-16.7L298,114z"/>
	<path class="st12" d="M192.9,117.1c0,0-13.8-17-27.3-10.5c-13.5,6.5,0.9,36.5-5.6,45c0,0,8.8-12.2,9.7-23.3
		c0.9-11.1,4.6-14.7,9.3-11.3C183.7,120.5,192.9,117.1,192.9,117.1z"/>
	<path class="st12" d="M299.4,60.4c-2-4.4-15.4-43-53.7-40.7c0,0-11.1-6.4-29.8-0.1C197.3,25.8,193,35.7,193,35.7
		s-13.4-4.5-28.9,3.2c-13.1,6.5-32.7,17.1-29.8,57.9c0.8,11.9-8.1,18.4-8.1,18.4s13.2,3.6,16.8-13c1.9-8.8,11.3-15.9,16.1-19
		c10.8-6.9,22.2-6.2,29.9,3.8c7.6,10,14,27.9,14,27.9s15.4-1.8,39-1.8c16.8,21.6,49.9,2.9,49.9,2.9S301.5,64.8,299.4,60.4z"/>
	<path class="st13" d="M278.9,105.6c0-3.5-0.2-7.2-0.5-10.8c-0.3-3.6-0.7-7.3-1.3-10.9c-1.1-7.2-2.8-14.4-5-21.3
		c-1.1-3.5-2.4-6.9-3.9-10.3c-1.5-3.3-3.2-6.6-5-9.8c-1.9-3.1-4-6.1-6.4-9c-2.4-2.8-5-5.4-7.8-7.8c3,2.2,5.8,4.6,8.4,7.3
		c2.6,2.7,4.9,5.6,7.1,8.7c2.1,3.1,4.1,6.3,5.8,9.6c1.7,3.3,3.3,6.7,4.7,10.2c2.8,7,5,14.2,6.6,21.5c0.8,3.7,1.5,7.4,2.1,11.1
		c0.6,3.7,1,7.4,1.3,11.3c0.1,1.7-1.2,3.1-2.8,3.2c-1.7,0.1-3.1-1.2-3.2-2.8C278.9,105.8,278.9,105.8,278.9,105.6L278.9,105.6z"/>
	<path class="st13" d="M218.1,97.9c-4.3-10.4-8.2-20.5-13.2-29.5c-2.5-4.5-5.1-8.8-8.1-12.5c-1.5-1.9-3.2-3.5-5.1-4.9
		c-1.9-1.4-4-2.4-6.2-3.1c-1.1-0.2-2.2-0.6-3.4-0.7c-1.2-0.2-2.4-0.2-3.6-0.2c-2.5,0.1-5.1,0.3-7.6,0.9c-5,0.9-9.8,2.9-14.1,5.8
		c-8.6,5.8-14.9,15.3-17.9,25.7l0,0c-0.1,0.3-0.4,0.4-0.6,0.3c-0.2-0.1-0.4-0.3-0.4-0.5c0.8-5.6,2.6-11,5.2-16
		c2.6-5,6.2-9.7,10.7-13.5c4.5-3.7,9.9-6.6,15.5-8.3c2.9-0.9,5.7-1.4,8.7-1.7c1.6-0.1,3.1-0.3,4.7-0.1c1.6,0,3.2,0.3,4.7,0.6
		c3.1,0.7,6.2,1.9,9,3.4c2.8,1.6,5.3,3.5,7.6,5.7c2.2,2.2,4.2,4.6,5.8,7.1c1.6,2.5,3,5.2,4.1,7.9c2.3,5.4,3.7,11,4.6,16.7
		c0.8,5.7,1.2,11.3,0.5,17.1c0,0.3-0.3,0.5-0.6,0.5C218.3,98.2,218.2,98,218.1,97.9L218.1,97.9z"/>
	<path class="st13" d="M300.5,106.3c0-2.5,0.5-4.9,1.1-7.2c0.6-2.3,1.4-4.6,2.3-6.7c0.9-2.2,2.1-4.3,3.5-6.2
		c1.4-1.9,2.8-3.8,4.3-5.7c1.5-1.9,3-3.7,4.6-5.5c1.6-1.7,3.4-3.4,5.2-4.9c1.9-1.5,3.9-2.9,6-4c2.1-1.1,4.5-1.9,6.8-2.1
		c0.2,0,0.3,0.1,0.3,0.3c0,0.1-0.1,0.3-0.2,0.3c-4.4,1.4-7.9,4.4-10.9,7.7c-1.5,1.7-2.9,3.4-4.2,5.3c-1.3,1.8-2.5,3.7-3.7,5.7
		c-1.2,1.9-2.2,4-3.1,6c-1,2-2.1,4-3.2,6c-2.4,3.9-4.9,7.7-8.2,11.4c-0.1,0.1-0.3,0.1-0.4,0C300.5,106.5,300.5,106.4,300.5,106.3z"
		/>
	<g>
		<path class="st7" d="M231.6,112.6c0.1-1.3,0.1-2.9,0.1-4.4c0-1.5,0-3-0.1-4.5c-0.1-3-0.3-6-0.5-9c-0.5-6-1.4-12-2.7-17.8
			c-0.7-2.9-1.4-5.9-2.4-8.7c-0.9-2.9-2-5.7-3.3-8.4c-2.5-5.5-5.9-10.7-10.3-15c5,3.7,9.1,8.5,12.5,13.8c1.7,2.6,3.2,5.4,4.6,8.2
			c1.4,2.8,2.6,5.7,3.7,8.7c2.2,5.9,3.9,12,5.3,18.1c0.7,3.1,1.3,6.2,1.8,9.3c0.3,1.6,0.5,3.1,0.7,4.7c0.2,1.6,0.4,3.1,0.6,4.8
			L231.6,112.6z"/>
	</g>
	<path class="st13" d="M185,112.5c-3.4-0.7-6.7-1.3-9.9-1.4c-1.6,0-3.2,0-4.8,0.1c-0.8,0.1-1.6,0.2-2.2,0.4c-0.7,0.2-1.3,0.6-1.8,1
		c-1.1,0.9-1.9,2.3-2.4,3.8c-0.5,1.5-0.8,3.2-0.9,4.9c-0.3,3.4-0.1,6.8,0.1,10.2l-0.3,0c-0.7-3.4-1.2-6.8-1.3-10.3
		c0-1.8,0.1-3.5,0.5-5.3c0.4-1.8,1.2-3.6,2.6-5.1c0.7-0.7,1.6-1.3,2.5-1.7c1-0.4,1.8-0.7,2.8-0.9c1.8-0.4,3.7-0.4,5.5-0.2
		c1.8,0.3,3.6,0.7,5.2,1.4c1.7,0.7,3.2,1.5,4.6,2.7L185,112.5z"/>
	<path class="st14" d="M221.6,203.8c0,10.9-8.9,19.7-19.9,19.7c-11,0-19.9-8.8-19.9-19.7c0-10.9,8.9-19.7,19.9-19.7
		C212.6,184.1,221.6,192.9,221.6,203.8z"/>
	<path class="st15" d="M216.5,203.8c0,7.6-6.2,13.8-13.8,13.8c-7.6,0-13.8-6.2-13.8-13.8c0-7.6,6.2-13.8,13.8-13.8
		C210.3,190,216.5,196.2,216.5,203.8z"/>
	<path class="st4" d="M196.9,196.6c0,2.2-1.8,4-4,4c-2.2,0-4-1.8-4-4s1.8-4,4-4C195.1,192.7,196.9,194.5,196.9,196.6z"/>
	<path class="st16" d="M208.9,253.2c12.1,7.3,25.1,11.9,38.2,11.7c13.2,0,25.9-5.1,38.5-11.7c-4.6,5.5-10.4,10-17,13.2
		c-6.6,3.3-14,5.1-21.5,5.2c-7.5,0-15-1.7-21.5-4.9C219.1,263.6,213.2,259.1,208.9,253.2z"/>
	<path class="st14" d="M275,203.8c0,10.9,8.9,19.7,19.9,19.7c11,0,19.9-8.8,19.9-19.7c0-10.9-8.9-19.7-19.9-19.7
		C283.9,184.1,275,192.9,275,203.8z"/>
	<path class="st15" d="M280.1,203.8c0,7.6,6.2,13.8,13.8,13.8c7.6,0,13.8-6.2,13.8-13.8c0-7.6-6.2-13.8-13.8-13.8
		C286.3,190,280.1,196.2,280.1,203.8z"/>
	<path class="st4" d="M280.9,196.6c0,2.2,1.8,4,4,4c2.2,0,4-1.8,4-4s-1.8-4-4-4C282.7,192.7,280.9,194.5,280.9,196.6z"/>
	<g>
		<g>
			<path class="st17" d="M284.9,329c-1,11.8-37.5,61.1-37.5,61.1l18.7,27.1c0,0,33.5-56.7,33.5-72.5L284.9,329z"/>
		</g>
		<g>
			<path class="st6" d="M283.1,334.8c-1.3,3.2-3.4,7.1-5.9,11.4l16,19.4c2.2-5,4-9.7,5-13.6L283.1,334.8z"/>
			<path class="st6" d="M278.5,395.5l-19.2-21.7c-2.6,3.7-5,7.1-7,9.9l19.6,23.8C273.9,403.9,276.1,399.9,278.5,395.5z"/>
			<path class="st6" d="M271.8,355.1c-2.2,3.4-4.5,6.9-6.8,10.3l17.9,21.7c2.1-4.1,4.2-8.3,6.2-12.4L271.8,355.1z"/>
		</g>
		<path class="st6" d="M247.5,390.1l5.6,8.2c9.5-13.1,32.3-45.7,37.8-62.9l-6-6.4C283.9,340.8,247.5,390.1,247.5,390.1z"/>
		<path class="st8" d="M265.3,380.6l-6.1-6.9c-2.6,3.7-5,7.1-7,9.9l6.1,7.3C260.5,387.8,262.8,384.3,265.3,380.6z"/>
		<path class="st8" d="M271.7,355.1c-2.2,3.4-4.5,6.9-6.8,10.3l6,7.1c2.3-3.5,4.6-7.2,6.8-10.8L271.7,355.1z"/>
		<path class="st8" d="M283.1,334.8c-0.1,0.3-0.2,0.6-0.4,0.8c-1.3,3-3.3,6.5-5.6,10.5l5.6,6.8c2.3-4.2,4.3-8.2,5.9-11.8
			L283.1,334.8z"/>
		<path class="st6" d="M266.2,417.2c0,0,33.5-56.7,33.5-72.5l-2.8-3c-0.7,2.2-1.7,4.9-3.1,8c-3.9,8.8-25.9,45.4-34.6,57.5
			L266.2,417.2z"/>
		<path class="st8" d="M271.9,407.3c1.9-3.4,4.2-7.5,6.6-11.9l-6.6-7.5c-2.4,3.9-4.8,7.7-6.9,10.9L271.9,407.3z"/>
		<path class="st8" d="M282.9,387c2.1-4.1,4.2-8.2,6.2-12.4l-5.5-6.3c-2.1,3.6-4.4,7.5-6.7,11.3L282.9,387z"/>
		<path class="st8" d="M293.3,365.6c2.2-5,4-9.7,5-13.6l-3.7-4.2c-0.3,0.6-0.5,1.2-0.8,1.9c-0.9,2.1-2.8,5.7-5.3,10.1L293.3,365.6z"
			/>
	</g>
	<g>
		<g>
			<path class="st17" d="M210,329c1,11.8,37.5,61.1,37.5,61.1l-18.7,27.1c0,0-33.5-56.7-33.5-72.5L210,329z"/>
		</g>
		<g>
			<path class="st6" d="M211.8,334.8c1.3,3.2,3.4,7.1,5.9,11.4l-16,19.4c-2.2-5-4-9.7-5-13.6L211.8,334.8z"/>
			<path class="st6" d="M216.4,395.5l19.2-21.7c2.6,3.7,5,7.1,7,9.9l-19.6,23.8C221,403.9,218.8,399.9,216.4,395.5z"/>
			<path class="st6" d="M223.1,355.1c2.2,3.4,4.5,6.9,6.8,10.3L212,387.1c-2.1-4.1-4.2-8.3-6.2-12.4L223.1,355.1z"/>
		</g>
		<path class="st6" d="M247.4,390.1l-5.6,8.2c-9.5-13.1-32.3-45.7-37.8-62.9l6-6.4C210.9,340.8,247.4,390.1,247.4,390.1z"/>
		<path class="st8" d="M229.6,380.6l6.1-6.9c2.6,3.7,5,7.1,7,9.9l-6.1,7.3C234.4,387.8,232.1,384.3,229.6,380.6z"/>
		<path class="st8" d="M223.2,355.1c2.2,3.4,4.5,6.9,6.8,10.3l-6,7.1c-2.3-3.5-4.6-7.2-6.8-10.8L223.2,355.1z"/>
		<path class="st8" d="M211.8,334.8c0.1,0.3,0.2,0.6,0.4,0.8c1.3,3,3.3,6.5,5.6,10.5l-5.6,6.8c-2.3-4.2-4.3-8.2-5.9-11.8
			L211.8,334.8z"/>
		<path class="st6" d="M228.7,417.2c0,0-33.5-56.7-33.5-72.5l2.8-3c0.7,2.2,1.7,4.9,3.1,8c3.9,8.8,25.9,45.4,34.6,57.5L228.7,417.2z
			"/>
		<path class="st8" d="M223,407.3c-1.9-3.4-4.2-7.5-6.6-11.9l6.6-7.5c2.4,3.9,4.8,7.7,6.9,10.9L223,407.3z"/>
		<path class="st8" d="M212,387c-2.1-4.1-4.2-8.2-6.2-12.4l5.5-6.3c2.1,3.6,4.4,7.5,6.7,11.3L212,387z"/>
		<path class="st8" d="M201.6,365.6c-2.2-5-4-9.7-5-13.6l3.7-4.2c0.3,0.6,0.5,1.2,0.8,1.9c0.9,2.1,2.8,5.7,5.3,10.1L201.6,365.6z"/>
	</g>
	<path class="st18" d="M195.2,344.8c0,0-0.7,14.9,33.5,72.5l18.7-27.1l18.8,27.1c0,0,35-60.4,33.5-72.5"/>
</g>
<g id="Layer_3">
</g>
<g id="BEELD">
</g>
<g id="Layer_7" class="st19">
	<line class="st20" x1="-394.5" y1="572.2" x2="-394.5" y2="1602.8"/>
</g>
<g id="Layer_8">
</g>
</svg>
