<?xml version="1.0" encoding="utf-8"?>
<!-- Generator: Adobe Illustrator 24.3.0, SVG Export Plug-In . SVG Version: 6.00 Build 0)  -->
<svg version="1.1" xmlns="http://www.w3.org/2000/svg" xmlns:xlink="http://www.w3.org/1999/xlink" x="0px" y="0px"
	 viewBox="0 0 500 500" style="enable-background:new 0 0 500 500;" xml:space="preserve">
<style type="text/css">
	.st0{fill:#2A2B2D;}
	.st1{fill:url(#SVGID_1_);}
	.st2{fill:#494D4E;}
	.st3{fill:#EFEFF0;}
	.st4{fill:none;stroke:#D1D2D3;stroke-miterlimit:10;}
	.st5{fill:#ECD2C2;}
	.st6{fill:#7B6F68;}
	.st7{fill:#E2C9BB;}
	.st8{fill:#0095DA;}
	.st9{fill:#126A98;}
	.st10{fill:#5F4C30;}
	.st11{fill:#6493B2;}
	.st12{fill:#2A1D01;}
	.st13{fill:#FFFFFF;}
	.st14{fill:#6D5637;}
	.st15{fill:none;stroke:#6A5537;stroke-width:2;stroke-miterlimit:10;}
	.st16{fill:#846744;}
	.st17{fill:#EEBC0A;}
	.st18{fill:#FFE799;}
	.st19{fill:#997141;}
	.st20{display:none;}
	.st21{display:inline;fill:none;stroke:#231F20;stroke-width:0.5;stroke-miterlimit:10;}
</style>
<g id="Layer_5">
</g>
<g id="Layer_2">
</g>
<g id="Layer_4">
</g>
<g id="Layer_1">
	<path class="st0" d="M290.6,327.2c-0.1-1.4-3.9-12.2-3.9-12.2s-5.7-5.9-38.8-5.9s-38.8,5.9-38.8,5.9s-3.8,10.8-3.9,12.2l36.4,38.2
		c0,0,2.8-4,6.3-9.8c3.5,5.8,6.3,9.8,6.3,9.8L290.6,327.2z"/>
	<path class="st0" d="M136.5,409c0,0-11,1.6-13,5c-1.9,3.4,3.6,12.7,13,17.4s20.7,10.4,24.2,8.1c3.5-2.3-1.7-15.2-1.7-15.2
		L136.5,409z"/>
	<path class="st0" d="M359.2,408.7c0,0,11,1.6,13,5c1.9,3.4-3.6,12.7-13,17.4c-9.3,4.6-20.7,10.4-24.2,8.1
		c-3.5-2.3,1.7-15.2,1.7-15.2L359.2,408.7z"/>
	<linearGradient id="SVGID_1_" gradientUnits="userSpaceOnUse" x1="247.7928" y1="500" x2="247.7928" y2="272.0537">
		<stop  offset="0.6251" style="stop-color:#ECD2C2"/>
		<stop  offset="1" style="stop-color:#CEB6AB"/>
	</linearGradient>
	<path class="st1" d="M418.8,500l-79.8-136.6c0,0-2.7-13.4-24.5-20.7c-21.7-7.2-41.2-14.6-41.2-30c0-15.4,0-40.6,0-40.6h-25.6h-25.6
		c0,0,0,25.2,0,40.6c0,15.4-19.5,22.8-41.2,30c-21.7,7.2-24.5,20.7-24.5,20.7L76.8,500h37.6l55.4-77.8l7.7,77.4h70.4h70.3l7.6-77.4
		l55.4,77.8H418.8"/>
	<g>
		<path class="st2" d="M167.4,363c1.1,1.1,2,2.5,2.4,4.1c0.5,1.6,0.4,3.3-0.2,4.5c-0.1,0.3-0.4,0.7-0.6,1c-0.3,0.3-0.5,0.6-0.9,0.9
			c-0.6,0.5-1.3,0.9-2.1,1c-0.8,0.2-1.7,0.1-2.5-0.3c-0.8-0.4-1.6-1-1.8-1.9l-0.1-0.3l-0.5,0l-0.1,0.3c-0.2,0.6-0.1,1.3,0.1,1.9
			c0.2,0.6,0.6,1.2,1.1,1.6c1,0.9,2.2,1.5,3.6,1.7c1.4,0.2,2.8-0.1,4.1-0.7c0.6-0.3,1.2-0.7,1.8-1.1c0.5-0.4,1-0.8,1.5-1.5
			c1-1.2,1.5-2.6,1.9-4c0.3-1.4,0.4-2.8,0.2-4.2c-0.3-2.7-1.5-5.4-3.3-7.5c-0.2-0.3-0.5-0.5-0.7-0.7c-2.8,1-5.2,2.1-7.4,3.2
			C165.2,361.5,166.4,362.1,167.4,363z"/>
		<path class="st2" d="M175.1,378.9c-0.9,0.8-1.8,1.5-2.9,1.9c-1.1,0.4-2.2,0.6-3.4,0.6c-1.1,0-2.3-0.2-3.4-0.5
			c-1.1-0.3-2.2-0.7-3.1-1.2l-1.5-0.8l-0.4,2c-0.3,1.4-0.7,2.6-1.5,3.4c-0.6,0.6-1.4,1-2.2,1.4c-1-1.8-1.8-3.6-2.4-5.5
			c-1.1-3.4-1.7-7-1.6-10.3c-2.1,2.4-3.3,4.6-3.9,6.2c0.4,1.9,1.1,3.8,1.8,5.5c0.7,1.7,1.5,3.3,2.5,4.9c-0.5,0-1,0-1.5,0
			c-1.4,0-2.9,0-5.1-0.5c-0.7-0.2-1.6-0.5-2.6-0.9l-3.3,5.6c1.1,0.4,2.3,0.7,3.1,0.8c2.3,0.4,6.5,0.6,8.3,0.3
			c1.4-0.2,2.8-0.6,4.2-1.2c0.6,0.7,1.2,1.4,1.8,2.1c0.2,0.3,0.4,0.6,0.7,0.9c-2.3,1-5.6,1.7-9.7,2.3c-8.3,1.1-14.3,5.4-16.5,11.3
			c-1.2,3.2-1.6,7-1.6,10.5c-2.4,0-4.6,0.1-6.3,0.4l-3.6,6.2l3.7-1c0,0,2.6-0.5,6.3-0.9c0.2,2.9,0.6,4.9,0.6,4.9
			c-2.6-0.7-7.7-0.6-8.9,5.1c-1.6,7.4,8.1,7.1,8.1,7.1c-2.9-0.8-5.2-4.7-3.3-5.8c3.4-1.9,5.4-0.2,5.1,4.4c-0.3,4.8-5.7,7.3-8.5,8.3
			c-0.1-0.6-0.2-1.2-0.4-1.7c-0.1-0.3-0.2-0.6-0.3-1c0.6-0.5,1.2-1,1.7-1.6c-0.6,0.5-1.2,0.9-1.9,1.2c-0.5-1.4-1.2-2.8-2.1-4
			c-0.6-0.9-1-1.5-1.5-2.3c-0.5-0.8-0.9-1.5-1.4-2.3c-0.6-1-1.1-2.1-1.5-3.2l-2.4,4.2c0.3,0.4,0.5,0.7,0.8,1.1
			c0.6,0.8,1.2,1.5,1.9,2.2c0.6,0.7,1.4,1.5,1.9,2.1c0.9,0.9,1.6,1.9,2.3,3c-0.1,0-0.1,0-0.2,0c-1.5,0.3-2.9,0.3-4.4,0l-1.3-0.2
			l0.5,1.4c0.7,2.1,1.2,4.4,0.9,6.4c-0.1,1-0.4,1.9-0.9,2.6c-0.5,0.8-1.2,1.4-2,1.9c-1.6,1-3.5,1.4-5.3,1.2c-1.8-0.2-3.5-0.9-5.1-2
			l-0.5-0.4l-3.3,5.6l0.7,0.3c2.5,1.2,5.4,1.9,8.2,1.7c2.9-0.2,5.6-1.4,7.7-3.3c1-1,1.9-2.1,2.5-3.4c0.6-1.4,0.8-2.8,0.7-4.1
			c-0.2-2.2-0.8-4.2-1.7-6c1.2-0.1,2.4-0.3,3.4-0.8c0.1,0,0.2-0.1,0.3-0.1c0.1,0.2,0.2,0.4,0.3,0.6c0.2,0.5,0.4,1,0.6,1.5
			c-0.1,0-0.2,0.1-0.2,0.1c0.1,0,0.2,0,0.2,0c1,2.8,1.4,6,0.8,9.1c1-2.9,1.3-6.2,0.8-9.3c12.5-2.3,13.6-10.6,13.1-18.2l10.2-2.2
			l-10.5-1.2c-0.1-1.1-0.3-2.2-0.4-3.2c1.9-0.1,3.8-0.2,5.7-0.2l0,0l0.5,0c0.1,0,0.3,0,0.4,0c0.7,0,1.3,0,1.9,0c1.1,0,2.2,0,3.2,0.1
			c1.6,0.1,3.2,0.2,4.8,0.4c3.2,0.4,6.4,1,9.6,1.7c-3.1-1.1-6.2-2.1-9.4-2.9c-0.6-0.2-1.2-0.3-1.9-0.4c6-2.2,8.1-7.1,7.1-13.1
			c0,0-0.8,7-5.3,9.1c-2.7,1.3-9.9,1.2-16.8,1.2c0.6-7,4.2-9.7,6.6-10.1c2.5-0.4,5.1,0.6,4.4,3.3s-5.4,2.7-5.4,2.7
			c3.6,1.5,9.3-0.6,9.5-5.5c0.2-4.9-4.2-5.6-4.2-5.6c1.5-1.5,10-3.2,13.1-5.8c1.3,2.3,2.2,4.7,2.6,7.3c0.6,4.1-0.2,8.6-2.8,12
			l-0.2,0.3l0.5,0.4l0.2-0.2c3.1-3.3,4.5-8,4.1-12.6c-0.2-3.3-1.3-6.4-2.8-9.3c1-2.3,0.4-4.7,0.4-4.7c-0.2,0.9-0.7,1.7-1.7,2.4
			c-0.2-0.4-0.5-0.8-0.8-1.2c-0.4-0.6-0.9-1.3-1.4-1.9c1-0.7,2-1.6,2.7-2.7c0.8-1.2,1.1-2.5,1.3-3.9c0.7,0.1,1.3,0.2,2,0.3
			c1.3,0.1,2.6,0.1,3.8-0.1c1.3-0.2,2.5-0.7,3.6-1.3C173.5,380.8,174.4,379.9,175.1,378.9z"/>
	</g>
	<path class="st3" d="M283.5,325.2c0,2.6-11.4,16.8-35.7,16.8s-35.7-14.6-35.7-16.8l-32.7,16.8l18.1,157.6h99l18.1-156.9
		L283.5,325.2z"/>
	<path class="st4" d="M293.8,331.3c0,0-14.6,23-46,23s-46-23-46-23"/>
	<path class="st5" d="M344,154.7c0,75.3-26.7,136.8-95.4,136.8c-68.7,0-94.1-62.2-94.1-137.5c0-75.3,63.9-85.1,95.2-85.1
		S344,79.3,344,154.7z"/>
	<path class="st6" d="M207.6,244.4c13,7.9,26.8,12.7,40.9,12.5c14.1,0,27.7-5.5,41.2-12.5c-4.9,5.8-11.1,10.7-18.2,14.2
		c-7,3.5-14.9,5.5-22.9,5.6c-8,0-16-1.8-23-5.3C218.5,255.4,212.1,250.6,207.6,244.4z"/>
	<path class="st7" d="M248.7,291.5c68.7,0,95.4-61.5,95.4-136.8c0-2.7-0.1-5.3-0.2-7.8h-11.5c5.5,53-12.8,87.7-21.5,92.2
		c-8.7,4.6-10-0.9-17.9-5c-7.7-4-36.9-4.5-45.1-4.5s-37.4,0.5-45.1,4.5c-7.9,4.1-9.3,9.6-17.9,5c-8.7-4.6-26.9-39.3-21.5-92.2h-8.5
		c-0.1,2.3-0.2,4.6-0.2,7.1C154.6,229.2,180,291.5,248.7,291.5z M206.6,241.4c5.1-2.3,16.6,8.3,41.2,8.3s36.1-10.6,41.2-8.3
		c5.1,2.3,6.3,10.8-5.5,23.6c-10,10.8-28.5,11-35.6,11c-7.1,0-25.7-0.3-35.6-11C200.3,252.1,201.6,243.6,206.6,241.4z"/>
	<path class="st8" d="M334,345.5l-46.9-24.7c2.9,9-32.4,85.2-39.2,97.8c-6.8-12.6-42.1-88.7-39.2-97.8l-46.9,24.7l-38.3,68.4
		c0,0,1-0.6,2.5-0.4c8.1,0.9,32.1,17,34.3,21.4c1.5,3,0.9,4,0.9,4l8.1-13.5l6.9,74.3h70.4h2.7h70.4l6.9-74.3l8.1,13.5
		c0,0-0.6-1,0.9-4c2.2-4.3,26.2-20.5,34.3-21.4c1.5-0.2,2.5,0.4,2.5,0.4L334,345.5z"/>
	<path class="st9" d="M191.4,328.3c0.1,3.4,0.2,6.7,0.3,10.1c0.1,3.4,0.2,6.7,0.3,10.1l-0.6-0.6l12.7-0.9l1.6-0.1l-0.9,1.3
		l-7.7,11.5l-0.1-1.1l12.8,15.2c4.2,5.1,8.5,10.2,12.7,15.3c4.2,5.1,8.4,10.3,12.5,15.5l6.2,7.8c2.1,2.6,4.1,5.2,6.1,7.8
		c-2.2-2.5-4.4-4.9-6.6-7.4l-6.6-7.5c-4.4-5-8.7-10-13-15.1c-4.3-5-8.6-10.1-12.8-15.2l-12.7-15.3l-0.5-0.6l0.4-0.6l8-11.3l0.7,1.2
		l-12.7,0.5l-0.6,0l0-0.6c0.1-3.4,0.2-6.7,0.3-10.1C191.2,335,191.3,331.6,191.4,328.3z"/>
	<path class="st9" d="M304.4,328.3c0.1,3.4,0.2,6.7,0.3,10.1c0.1,3.4,0.2,6.7,0.3,10.1l0,0.6l-0.6,0l-12.7-0.5l0.7-1.2l8,11.3
		l0.4,0.6l-0.5,0.6l-12.8,15.4c-4.3,5.1-8.6,10.2-12.9,15.3c-4.3,5.1-8.7,10.1-13.1,15.2l-6.6,7.5c-2.2,2.5-4.4,5-6.7,7.5
		c2-2.6,4.1-5.3,6.2-7.9l6.2-7.8c4.2-5.2,8.4-10.4,12.6-15.5c4.2-5.2,8.5-10.3,12.7-15.4l12.9-15.3l-0.1,1.1l-7.7-11.5l-0.9-1.3
		l1.6,0.1l12.7,0.9l-0.6,0.6c0.1-3.4,0.2-6.7,0.3-10.1C304.1,335,304.2,331.6,304.4,328.3z"/>
	<path class="st10" d="M347.7,146.8c-0.3-9.1-0.5-18.5-2.7-26.9c-1.4-5.3-4.3-9.8-6.7-14.6c-3.7-7.4-8-15.3-14.6-21.1
		c-3.5-3.1-8-5.7-12.4-8.3c-5.7-3.3-11.6-8.2-19.1-10.4c-6-1.8-13.1-2-20.4-3c-5.1-1.1-9.1-2.8-16.9-2.8c-1.2,0-8,1.1-9.2,1.1
		c-7.8,0-14.1,0.6-19.2,1.7c-7.7,1-15.4-0.2-21.6,1.7c-9.5,2.9-16.7,10.6-23.4,15.2c-4.9,3.4-12,8.3-15.5,12.5
		c-8,9.5-12,20.7-14.7,32.9c-1.5,7-0.3,14.3-0.6,21.8c-1.5,45.1,11.3,70.8,11.3,70.8c9.3-6.9,0.5-29.9-0.8-45
		c-1.3-15.1,15.1-43.7,27.9-48.7c10.6-4.2,38.5,6.4,60,6.3c21.5,0,49.4-10.5,60-6.3c12.8,5,29.2,33.6,27.9,48.7
		c-1.3,15.1-10.1,38.2-0.8,45C336.5,217.6,349.3,191.9,347.7,146.8z"/>
	<path class="st11" d="M226.4,202.7c0,10.4-8.5,18.8-19,18.8c-10.5,0-19-8.4-19-18.8c0-10.4,8.5-18.8,19-18.8
		C217.8,183.9,226.4,192.3,226.4,202.7z"/>
	<path class="st12" d="M221.5,202.7c0,7.3-5.9,13.2-13.1,13.2c-7.3,0-13.1-5.9-13.1-13.2c0-7.2,5.9-13.1,13.1-13.1
		C215.6,189.6,221.5,195.5,221.5,202.7z"/>
	<path class="st13" d="M202.8,195.9c0,2.1-1.7,3.8-3.8,3.8c-2.1,0-3.8-1.7-3.8-3.8s1.7-3.8,3.8-3.8
		C201.1,192.1,202.8,193.8,202.8,195.9z"/>
	<path class="st11" d="M272.9,202.7c0,10.4,8.5,18.8,19,18.8c10.5,0,19-8.4,19-18.8c0-10.4-8.5-18.8-19-18.8
		C281.5,183.9,272.9,192.3,272.9,202.7z"/>
	<path class="st12" d="M277.8,202.7c0,7.3,5.9,13.2,13.1,13.2c7.3,0,13.1-5.9,13.1-13.2c0-7.2-5.9-13.1-13.1-13.1
		C283.7,189.6,277.8,195.5,277.8,202.7z"/>
	<path class="st13" d="M278.6,195.9c0,2.1,1.7,3.8,3.8,3.8c2.1,0,3.8-1.7,3.8-3.8s-1.7-3.8-3.8-3.8
		C280.3,192.1,278.6,193.8,278.6,195.9z"/>
	<path class="st8" d="M209.8,328.6c0,0-2.5-10.2,0-14.1l-18.4,13.7l0.2,9.7L209.8,328.6z"/>
	<path class="st8" d="M286,328.6c0,0,2.5-10.2,0-14.1l18.4,13.7l-0.2,9.7L286,328.6z"/>
	<path class="st14" d="M173.6,133.3c1.1-1-1.5-5.8,0.2-6.8c1.7-0.9,4.3,1.1,5.9,0.5c1.5-0.6-0.1-6.1,1.1-6.8
		c1.2-0.7,1.3,0.1,2.8,0.3c1.5,0.2,0.4-3.8,1.5-4c1.1-0.2,1.6,2.6,3.2,2.3s-0.1-6.6,1.4-7.1s2,3.3,3.5,3.4c1.4,0.1,1.2-4.9,2-5
		c0.8-0.1,0.9,7.2,2.8,7.3c2,0.1,3.4-5.1,4.8-5s3,5.9,4.6,5.8s2.6-4.4,3.8-4.2c1.1,0.2,0.2,4.1,1.5,4.5c1.2,0.4,1.2-0.7,1.7-1
		c0.5,1.1,0.7,2.6,2.1,2.8c1.4,0.1,4.3-1.8,5.9-1.6c1.7,0.2,2.4,4.9,4.3,5.1s2-2.5,2.6-2.4c0.7,0.1,0.3,2.8,1.3,2.7s1.3-2.4,2.2-2.4
		c0.9,0,3.4,4.3,5,4.1s2.8-6.3,4.3-6.3c1.5,0,3.7,6,5.5,6c1.8,0,1.4-4.2,2.3-4.2c0.9,0,0.5,3.6,1.4,3.6c0.8,0,1-1.9,2-1.9
		s1.3,3.7,3,3.8c1.7,0.1,3.9-6.3,5.6-6.4c1.8,0,2.6,3.7,4.7,3.8c2.1,0.1,3.1-3,4.3-3s1,2.1,2.5,2.1s2.2-4,4.4-4.2
		c2.2-0.2,2.9,3.5,5.1,3.4c2.2-0.1,2.7-3.7,3.9-3.7c1.2-0.1,0.6-2.9,1.6-2.9c1,0,2.6,3.3,4.3,3.2c1.6-0.1,3.2-3,4-3
		c0.8,0.1,1.1,1.9,2.1,1.9c1.1,0,3.1-3.1,4.1-3.1c1,0,1.1,3.9,1.9,4s0.7-2.3,1.7-2.2s3.1-0.6,4.4-0.7s0.7,2.6,2.6,2.6
		c1.8,0,2.3-2.8,3.5-2.6c1.3,0.2-1.5,5.3-0.8,6.2c0.8,0.9,3.8,1.3,5.6,2.2c0.8,0.4-0.4,0.7,0.2,1.6c0.6,0.9,3.4,2.5,4,3.2
		c0.6,0.6,6.5,14,7.6,14.1s2.2-2.6,2.3-3.5c0.2-1,1.1-5.1,0.9-5.9c-0.2-0.8-2.7,0.4-3.3-0.2c-0.5-0.6,3.8-3.5,3.2-4.5
		c-0.5-1-3-0.1-4.5-0.1c-0.4,0-0.9,0-1.2-0.2c-1.4-0.9,1.9-2.7,1.7-3.6s-2.4,0-2.9-0.7c-0.4-0.7,1.5-2.2,0.7-3
		c-0.8-0.7-5.2,2.9-6.1,2.3s1.3-6.9,0.9-7.9s-2.7,1.1-3.4,1s-1.3-4.1-1.7-4.4c-0.5-0.3-0.5,2.4-1.6,1.5s0.5-6,0.1-6.5
		c-0.3-0.5-0.4,1.1-0.8,0.7c-0.4-0.5,0.6-1.5,0.1-1.8c-0.6-0.3-0.7,3.2-1.3,3s0-3.4-0.7-3.6c-0.7-0.3-0.5,4.5-1.8,4.6
		s0.9-5.1-0.4-5.7c-1.3-0.6-3.4,5.4-4.1,5c-0.7-0.4,1.2-13.3,1.2-13.3s-4.6,15.8-5.5,15.8c-0.8,0-0.1-6-1.8-6
		c-1.7,0-1.8,5.3-2.6,5.4c-0.8,0.1-0.1-2.7-1-2.7c-0.9-0.1-1.7,2.6-2.4,2.5c-0.7-0.2,1-5.5-0.2-5.8c-1.2-0.3-2.5,4.6-3.8,4.5
		c-1.3-0.2-0.9-16.3-0.9-16.3s-3,13.7-4.3,14.2s-0.3-2.4-1.9-2.4c-1.6,0-0.8,4-1.9,4.1s-2.5-6.8-3.4-6.8c-1,0-1.6,5.8-2.6,6
		c-0.9,0.2-0.4-2.9-1.5-2.9c-1,0-1.1,2.5-1.9,2.6s-2.3,1.4-3,1.4c-0.7,0-0.5-2-1.6-2.2s0.6,4.2-2.2,4.6c-2.8,0.3-1-23-1-23
		s-5.5,18.3-7.5,18.4c-2,0.1-2.4-3.5-3.6-5.2c0.2,2.1,1.7,6-0.3,6.3c-2.1,0.3-4.1-6.6-5.8-10.1c-0.6,1.9-0.1,6.1-1.7,5.8
		c-1.7-0.2-1.4-7.4-2.6-7.3s-1.4,4.6-2.3,4.9c-0.9,0.2-0.5-2.3-1.4-2.5c-0.9-0.2-1.1,5.5-2.2,5.7c-1.1,0.2-0.8-8.4-2.2-12.4
		c-2.1,5.4-2.6,17.1-4.3,16.9s-3.2-8.6-3.9-8.9c-0.8-0.3-1,5-2.2,5.2c-1.3,0.2,0.4-8.6-1.1-8.8c-1.5-0.2-2.5,6.5-4.2,6.7
		c-1.7,0.2-4.6-12.5-6.9-18.6c-0.5,6.5,1.7,18.6,0.6,18.6c-1,0-0.9-1.9-1.3-2.8c-0.8,1.2-1.2,3.6-2,3.8s-0.2-4.3-0.2-6.4
		c-1.4,2-1.3,6.8-2.5,6.9c-1.2,0.1-5.1-8.9-6.2-13.1c0,4.3,1.6,11.9-0.1,12c-1.7,0.1-2.3-3.5-3.4-5.3c-0.1,1.3,1.5,3.7-0.4,4
		c-1.9,0.2-4.7-3.3-6.7-5.4c0.7,1.6,1.7,4.5,0.9,5c-0.8,0.5-2,0.3-2.5-0.5c-0.1,1.3,0.8,3.1-0.3,3.8c-1.2,0.6-3-2.7-4.4-4.1
		c-0.3,2.1,1.3,5.8,0.3,6.4c-1,0.7-1.6,1.1-2.4,0.6c-0.5,1.8-0.2,4.8-0.7,5.4c-0.5,0.7-4.6-4.5-6.7-7c-0.4,1.9,1.6,5.3,0.4,5.9
		s-1.1,1.4-2.1,1.1c0,1.1,1.8,2.2,0.6,3.3s-1.8,0.8-3.6-0.8c0.2,0.9,1.5,2.1,0.5,2.6c-1,0.5-3.5-2.2-5.2-3.3c0.5,0.8,1,1.6,1.1,2.5
		s-0.6,1.9-1.5,1.9c0.4,2.9,3.2,7.9,2.7,8.4c-0.5,0.5-1.2-0.9-2-0.9s0.5,2.5,0.2,3.4c-0.3,0.9-1.5,1-1.1,1.9
		c1.7,3.9-1.6,8.9-1.1,10.2c0.4,1.3,4.8-6.4,4.7-9.9C171.5,133.7,172.5,134.4,173.6,133.3z"/>
	<path class="st15" d="M164.1,207.8c0.5-3.5-1.2-6.8-1.7-10.3c-0.3-1.8-0.2-3.7-0.3-5.6c-0.3-6-2.7-11.8-2.9-17.9
		c-0.1-3.4,0.5-6.8-0.3-10.1c-0.2-0.9-0.6-1.8-0.3-2.7c0.1-0.5,0.4-0.9,0.6-1.3c0.9-1.7,1-3.8,0.3-5.5c0.4-0.1,0.8-0.2,1.1-0.2
		c0.5-2.2,3.2-3.7,3-6c0-0.4-0.2-0.8-0.1-1.2s0.4-0.8,0.8-0.7c-0.6-0.1-0.7-0.9-0.4-1.4c0.3-0.5,0.9-0.7,1.4-1
		c0.5-0.3,0.9-0.8,0.9-1.3"/>
	<path class="st15" d="M335.8,207.8c-0.5-3.5,1.2-6.8,1.7-10.3c0.3-1.8,0.2-3.7,0.3-5.6c0.3-6,2.7-11.8,2.9-17.9
		c0.1-3.4-0.5-6.8,0.3-10.1c0.2-0.9,0.6-1.8,0.3-2.7c-0.1-0.5-0.4-0.9-0.6-1.3c-0.9-1.7-1-3.8-0.3-5.5c-0.4-0.1-0.8-0.2-1.1-0.2
		c-0.5-2.2-3.2-3.7-3-6c0-0.4,0.2-0.8,0.1-1.2c-0.1-0.4-0.4-0.8-0.8-0.7c0.6-0.1,0.7-0.9,0.4-1.4s-0.9-0.7-1.4-1
		c-0.5-0.3-0.9-0.8-0.9-1.3"/>
	<path class="st16" d="M223.1,114.4c-0.5-3.9-0.8-7.8-1.1-11.8c-0.3-3.9-0.4-7.8-0.7-11.7c-0.8-7.8-1.9-15.6-4.5-23l0.2-0.1
		c1.5,3.6,2.7,7.4,3.7,11.3c0.9,3.9,1.6,7.8,2.2,11.7c0.5,3.9,1.1,7.9,1.1,11.8c0.1,4-0.1,7.9-0.7,11.9L223.1,114.4z"/>
	<path class="st16" d="M257.2,116.4c-0.6-2.2-0.8-4.4-0.9-6.7c-0.1-2.2,0.2-4.5,0.5-6.7c0.2-2.2,0.5-4.4,0.8-6.6
		c0.3-2.2,0.7-4.4,1.1-6.6l0.2,0c-0.1,2.2-0.3,4.4-0.4,6.6c-0.1,2.2-0.2,4.4-0.2,6.6c0,2.2,0.1,4.4-0.1,6.6
		c-0.2,2.2-0.4,4.4-0.9,6.6L257.2,116.4z"/>
	<path class="st16" d="M273.8,97.5c0-2.3,0.4-4.5,0.9-6.7c0.5-2.2,1.4-4.2,2.2-6.3c0.8-2.1,1.6-4.2,2.5-6.2c0.9-2,1.8-4.1,2.8-6.1
		l0.2,0.1c-0.7,2.1-1.4,4.2-2.1,6.3c-0.7,2.1-1.3,4.2-1.9,6.4c-0.6,2.1-1,4.3-1.8,6.4c-0.7,2.1-1.5,4.2-2.6,6.2L273.8,97.5z"/>
	<g>
		<path class="st17" d="M273.4,309.3c5.2,4,7.7,9,7.7,16.9c0,9.5-3.4,20.4-9.1,28.9c-6.5,9.8-15.1,15.2-24,15.2
			c-9,0-17.5-5.4-24-15.2c-5.7-8.6-9.1-19.4-9.1-28.9c0-7.8,2.5-12.6,7.4-16.6l0,4.2c-3,3.4-4.4,6.8-4.4,12.5
			c0,16.4,12,41.2,30.1,41.2c18.1,0,30.1-24.8,30.1-41.2c0-5.8-1.6-9.4-4.8-12.8L273.4,309.3z"/>
	</g>
	<g>
		<path class="st18" d="M248.9,368.5c-0.2,0-0.3-0.1-0.3-0.3c0-0.2,0.1-0.3,0.3-0.3c0.7,0,1.3-0.1,2-0.2c0.2,0,0.3,0.1,0.3,0.3
			c0,0.2-0.1,0.3-0.3,0.3C250.3,368.4,249.6,368.5,248.9,368.5C248.9,368.5,248.9,368.5,248.9,368.5z M245.9,368.4
			C245.9,368.4,245.9,368.4,245.9,368.4c-0.7-0.1-1.4-0.2-2-0.3c-0.2,0-0.3-0.2-0.2-0.4c0-0.2,0.2-0.3,0.4-0.2
			c0.6,0.1,1.3,0.2,1.9,0.3c0.2,0,0.3,0.2,0.3,0.3C246.2,368.3,246.1,368.4,245.9,368.4z M253.8,367.7c-0.1,0-0.2-0.1-0.3-0.2
			c0-0.2,0-0.3,0.2-0.4c0.6-0.2,1.3-0.4,1.9-0.6c0.2-0.1,0.3,0,0.4,0.2c0.1,0.2,0,0.3-0.2,0.4C255.2,367.2,254.6,367.5,253.8,367.7
			C253.9,367.7,253.9,367.7,253.8,367.7z M241.1,367.4C241,367.4,241,367.4,241.1,367.4c-0.7-0.2-1.4-0.5-2-0.7
			c-0.2-0.1-0.2-0.2-0.2-0.4c0.1-0.2,0.2-0.2,0.4-0.2c0.6,0.3,1.2,0.5,1.8,0.7c0.2,0.1,0.2,0.2,0.2,0.4
			C241.3,367.3,241.2,367.4,241.1,367.4z M258.4,365.7c-0.1,0-0.2-0.1-0.3-0.2c-0.1-0.1,0-0.3,0.1-0.4c0.6-0.3,1.1-0.6,1.7-1
			c0.1-0.1,0.3,0,0.4,0.1c0.1,0.1,0,0.3-0.1,0.4c-0.6,0.4-1.2,0.7-1.7,1C258.5,365.7,258.5,365.7,258.4,365.7z M236.5,365.3
			c-0.1,0-0.1,0-0.2,0c-0.6-0.3-1.1-0.7-1.7-1.1c-0.1-0.1-0.2-0.3-0.1-0.4c0.1-0.1,0.3-0.2,0.4-0.1c0.5,0.4,1.1,0.7,1.7,1.1
			c0.1,0.1,0.2,0.3,0.1,0.4C236.7,365.2,236.6,365.3,236.5,365.3z M262.6,363c-0.1,0-0.2,0-0.2-0.1c-0.1-0.1-0.1-0.3,0-0.4
			c0.5-0.4,1-0.8,1.5-1.3c0.1-0.1,0.3-0.1,0.4,0c0.1,0.1,0.1,0.3,0,0.4c-0.5,0.5-1,0.9-1.5,1.3C262.7,362.9,262.7,363,262.6,363z
			 M232.5,362.4c-0.1,0-0.1,0-0.2-0.1c-0.5-0.4-1-0.9-1.5-1.3c-0.1-0.1-0.1-0.3,0-0.4c0.1-0.1,0.3-0.1,0.4,0c0.5,0.5,1,0.9,1.5,1.3
			c0.1,0.1,0.1,0.3,0,0.4C232.7,362.4,232.6,362.4,232.5,362.4z M266.3,359.6c-0.1,0-0.1,0-0.2-0.1c-0.1-0.1-0.1-0.3,0-0.4
			c0.4-0.5,0.9-1,1.3-1.5c0.1-0.1,0.3-0.1,0.4,0c0.1,0.1,0.1,0.3,0,0.4c-0.4,0.5-0.9,1-1.3,1.5C266.4,359.5,266.3,359.6,266.3,359.6
			z M228.9,358.9c-0.1,0-0.2,0-0.2-0.1c-0.4-0.5-0.9-1-1.3-1.5c-0.1-0.1-0.1-0.3,0-0.4c0.1-0.1,0.3-0.1,0.4,0c0.4,0.5,0.8,1,1.3,1.5
			c0.1,0.1,0.1,0.3,0,0.4C229.1,358.9,229,358.9,228.9,358.9z M269.4,355.7c-0.1,0-0.1,0-0.2-0.1c-0.1-0.1-0.2-0.3-0.1-0.4
			c0.4-0.5,0.8-1.1,1.1-1.6c0.1-0.1,0.3-0.2,0.4-0.1c0.1,0.1,0.2,0.3,0.1,0.4c-0.4,0.6-0.8,1.1-1.2,1.6
			C269.6,355.7,269.5,355.7,269.4,355.7z M225.8,355c-0.1,0-0.2,0-0.2-0.1c-0.4-0.5-0.8-1.1-1.1-1.7c-0.1-0.1,0-0.3,0.1-0.4
			c0.1-0.1,0.3,0,0.4,0.1c0.4,0.6,0.7,1.1,1.1,1.6c0.1,0.1,0.1,0.3-0.1,0.4C225.9,355,225.9,355,225.8,355z M272.2,351.5
			c-0.1,0-0.1,0-0.2,0c-0.1-0.1-0.2-0.3-0.1-0.4c0.3-0.6,0.7-1.2,1-1.7c0.1-0.1,0.3-0.2,0.4-0.1c0.1,0.1,0.2,0.3,0.1,0.4
			c-0.3,0.6-0.6,1.2-1,1.8C272.4,351.5,272.3,351.5,272.2,351.5z M223.1,350.7c-0.1,0-0.2-0.1-0.3-0.2c-0.3-0.6-0.6-1.2-1-1.8
			c-0.1-0.1,0-0.3,0.1-0.4c0.1-0.1,0.3,0,0.4,0.1c0.3,0.6,0.6,1.2,0.9,1.8c0.1,0.1,0,0.3-0.1,0.4
			C223.2,350.7,223.2,350.7,223.1,350.7z M274.5,347.1c0,0-0.1,0-0.1,0c-0.2-0.1-0.2-0.2-0.1-0.4c0.3-0.6,0.5-1.2,0.8-1.8
			c0.1-0.2,0.2-0.2,0.4-0.2c0.2,0.1,0.2,0.2,0.2,0.4c-0.3,0.6-0.5,1.2-0.8,1.8C274.7,347,274.6,347.1,274.5,347.1z M220.9,346.3
			c-0.1,0-0.2-0.1-0.3-0.2c-0.3-0.6-0.5-1.2-0.8-1.9c-0.1-0.2,0-0.3,0.2-0.4c0.2-0.1,0.3,0,0.4,0.2c0.2,0.6,0.5,1.2,0.8,1.8
			c0.1,0.2,0,0.3-0.2,0.4C221,346.3,220.9,346.3,220.9,346.3z M276.4,342.5c0,0-0.1,0-0.1,0c-0.2-0.1-0.2-0.2-0.2-0.4
			c0.2-0.6,0.4-1.3,0.6-1.9c0.1-0.2,0.2-0.2,0.4-0.2c0.2,0.1,0.2,0.2,0.2,0.4c-0.2,0.6-0.4,1.3-0.6,1.9
			C276.6,342.4,276.5,342.5,276.4,342.5z M219.1,341.6c-0.1,0-0.2-0.1-0.3-0.2c-0.2-0.6-0.4-1.3-0.6-1.9c0-0.2,0-0.3,0.2-0.4
			c0.2,0,0.3,0,0.4,0.2c0.2,0.6,0.4,1.3,0.6,1.9C219.4,341.4,219.3,341.6,219.1,341.6C219.1,341.6,219.1,341.6,219.1,341.6z
			 M277.9,337.7C277.9,337.7,277.8,337.7,277.9,337.7c-0.2-0.1-0.3-0.2-0.3-0.4c0.2-0.6,0.3-1.3,0.5-1.9c0-0.2,0.2-0.3,0.4-0.2
			c0.2,0,0.3,0.2,0.2,0.4c-0.1,0.7-0.3,1.3-0.5,2C278.1,337.6,278,337.7,277.9,337.7z M217.7,336.8c-0.1,0-0.3-0.1-0.3-0.2
			c-0.2-0.7-0.3-1.3-0.4-2c0-0.2,0.1-0.3,0.2-0.4c0.2,0,0.3,0.1,0.4,0.2c0.1,0.6,0.3,1.3,0.4,1.9C218,336.6,217.9,336.8,217.7,336.8
			C217.7,336.8,217.7,336.8,217.7,336.8z M278.9,332.8C278.9,332.8,278.9,332.8,278.9,332.8c-0.2,0-0.3-0.2-0.3-0.3
			c0.1-0.7,0.2-1.3,0.3-2c0-0.2,0.2-0.3,0.3-0.3c0.2,0,0.3,0.2,0.3,0.3c-0.1,0.7-0.2,1.3-0.3,2C279.2,332.7,279.1,332.8,278.9,332.8
			z M216.7,331.9c-0.1,0-0.3-0.1-0.3-0.3c-0.1-0.7-0.2-1.3-0.2-2c0-0.2,0.1-0.3,0.3-0.3c0.2,0,0.3,0.1,0.3,0.3
			c0.1,0.7,0.1,1.3,0.2,2C217,331.7,216.9,331.9,216.7,331.9C216.7,331.9,216.7,331.9,216.7,331.9z M279.5,327.8
			C279.5,327.8,279.5,327.8,279.5,327.8c-0.2,0-0.3-0.1-0.3-0.3c0-0.7,0.1-1.3,0.1-2l0-0.2c0-0.2,0.1-0.3,0.3-0.3c0,0,0,0,0,0
			c0.2,0,0.3,0.1,0.3,0.3l0,0.2c0,0.7,0,1.3-0.1,2C279.8,327.7,279.6,327.8,279.5,327.8z M216.3,326.9c-0.2,0-0.3-0.1-0.3-0.3
			c0-0.4,0-0.7,0-1.1c0-0.3,0-0.6,0-0.9c0-0.2,0.1-0.3,0.3-0.3c0.2,0,0.3,0.1,0.3,0.3c0,0.3,0,0.6,0,0.9c0,0.4,0,0.7,0,1.1
			C216.6,326.8,216.4,326.9,216.3,326.9C216.3,326.9,216.3,326.9,216.3,326.9z M279.4,322.6c-0.2,0-0.3-0.1-0.3-0.3
			c-0.1-0.7-0.2-1.3-0.3-2c0-0.2,0.1-0.3,0.2-0.3c0.2,0,0.3,0.1,0.3,0.2c0.1,0.6,0.2,1.3,0.3,2C279.7,322.5,279.6,322.6,279.4,322.6
			C279.4,322.6,279.4,322.6,279.4,322.6z M216.5,321.9C216.5,321.9,216.5,321.9,216.5,321.9c-0.2,0-0.3-0.2-0.3-0.3
			c0.1-0.7,0.2-1.3,0.3-2c0-0.2,0.2-0.3,0.4-0.2c0.2,0,0.3,0.2,0.2,0.4c-0.1,0.6-0.2,1.3-0.3,1.9
			C216.8,321.8,216.6,321.9,216.5,321.9z M278.4,317.7c-0.1,0-0.2-0.1-0.3-0.2c-0.2-0.6-0.4-1.2-0.7-1.8c-0.1-0.2,0-0.3,0.2-0.4
			c0.2-0.1,0.3,0,0.4,0.2c0.3,0.6,0.5,1.2,0.7,1.9C278.7,317.5,278.6,317.7,278.4,317.7C278.4,317.7,278.4,317.7,278.4,317.7z
			 M217.6,317.1c0,0-0.1,0-0.1,0c-0.2-0.1-0.2-0.2-0.2-0.4c0.2-0.6,0.5-1.3,0.8-1.9c0.1-0.1,0.3-0.2,0.4-0.1
			c0.1,0.1,0.2,0.3,0.1,0.4c-0.3,0.6-0.5,1.2-0.8,1.8C217.9,317,217.8,317.1,217.6,317.1z M276.3,313.2c-0.1,0-0.2,0-0.3-0.1
			c-0.4-0.5-0.9-1-1.4-1.4c-0.1-0.1-0.1-0.3,0-0.4c0.1-0.1,0.3-0.1,0.4,0c0.5,0.5,1,1,1.4,1.5c0.1,0.1,0.1,0.3,0,0.4
			C276.4,313.1,276.4,313.2,276.3,313.2z M219.7,313.5c-0.1,0-0.1,0-0.2-0.1c-0.1-0.1-0.1-0.3,0-0.4c0.4-0.5,0.9-1,1.4-1.5
			c0.1-0.1,0.3-0.1,0.4,0c0.1,0.1,0.1,0.3,0,0.4c-0.5,0.5-0.9,0.9-1.3,1.5C219.9,313.4,219.8,313.5,219.7,313.5z"/>
	</g>
	<path class="st19" d="M215.2,98.7c-0.5-4-1.1-7.9-1.8-11.9c-0.8-3.9-1.6-7.8-2.5-11.7l-0.3,0.1c0.5,4,0.9,7.9,1.3,11.9
		c0.4,4,0.7,7.9,0.9,11.9c0.1,2,0.1,4,0.1,5.9l0,5.8c0,0.8,0,1.6-0.1,2.4c-0.1-0.2-0.2-0.4-0.4-0.7c0-0.1-0.1-0.2-0.2-0.3
		c0,0,0,0-0.1-0.1c0,0-0.1-0.1-0.2-0.1c-0.1-0.1-0.2-0.1-0.4-0.1c-0.1,0-0.2,0-0.3,0.1c0,0-0.1,0.1-0.1,0.1
		c-0.1,0.1-0.2,0.1-0.2,0.2c-0.1,0.1-0.1,0.2-0.2,0.3c-0.1,0.3-0.2,0.6-0.2,0.8c-0.1,0.5-0.1,1-0.1,1.6l0.3,0.1
		c0.2-0.4,0.3-0.7,0.5-1.1c0,0.2,0.1,0.4,0.1,0.6c0.1,0.5,0.2,1,0.5,1.7c0,0.1,0.1,0.2,0.2,0.3c0.1,0.1,0.1,0.2,0.3,0.3
		c0.1,0.1,0.2,0.1,0.3,0.2c0.1,0.1,0.3,0.1,0.4,0.1c0.2,0,0.3,0,0.6,0c0.1,0,0.2-0.1,0.3-0.2l0.1-0.1c0.2-0.2,0.3-0.3,0.3-0.4
		c0.1-0.1,0.1-0.2,0.2-0.3c0.1-0.2,0.2-0.3,0.2-0.5c0.2-0.6,0.4-1.1,0.5-1.6c0.2-1.1,0.4-2.1,0.5-3.1
		C216.3,106.7,215.6,102.7,215.2,98.7z M211.8,113C211.8,113,211.8,113,211.8,113C211.8,113,211.8,113,211.8,113
		C211.8,112.9,211.8,112.9,211.8,113C211.9,112.9,211.8,112.9,211.8,113z M213.7,115C213.7,115,213.7,115,213.7,115
		C213.7,115,213.7,114.9,213.7,115C213.7,114.9,213.7,114.9,213.7,115C213.8,115,213.7,115,213.7,115z"/>
	<path class="st19" d="M252.1,110.6l-0.7,4.6c-0.1,0.6-0.2,1.2-0.3,1.7c-0.1-0.1-0.3-0.3-0.5-0.4c-0.2-0.1-0.5-0.2-0.7-0.2
		c-0.2,0-0.3,0-0.5,0l-0.2,0c-0.1,0-0.2,0-0.4,0.1c-0.5,0.1-0.8,0.4-1.1,0.7c-0.1,0.1-0.1,0.2-0.2,0.3c0-0.6,0-1.3,0-1.9
		c0.1-3-1.4-11.9-1.4-11.9c-0.3,2.2-1.5,6.8-1.9,9.1c-0.2,1.1-0.4,2.2-0.6,3.3c0,0.2-0.1,0.3-0.1,0.5c-0.2-0.3-0.4-0.6-0.9-0.9
		c-0.2-0.2-0.7-0.4-1.4-0.4c-0.3,0-0.6,0.2-0.8,0.3c-0.2,0.1-0.4,0.3-0.4,0.4c-0.3,0.3-0.4,0.6-0.5,0.8c0-0.6-0.1-1.2-0.1-1.9l0-6.8
		c0-2.3-0.1-4.6-0.1-6.9c-0.2-4.6-0.5-9.2-1.7-13.6c0.3,2.3,0.3,4.5,0.3,6.8c0,2.3-0.1,4.5-0.2,6.8c-0.2,4.5-0.5,9.1-0.8,13.6
		c-0.1,1.2-0.1,2.4,0.2,3.7c0.1,0.3,0.2,0.7,0.4,1.1c0.1,0.2,0.3,0.4,0.5,0.7c0.2,0.2,0.6,0.5,1.2,0.5c0.5,0.1,1-0.1,1.3-0.3
		c0.3-0.2,0.5-0.4,0.7-0.7c0.2-0.3,0.2-0.4,0.3-0.6l0.1-0.3c0.1,0.2,0.1,0.3,0.2,0.5c0.1,0.3,0.2,0.6,0.6,1c0.1,0.1,0.2,0.3,0.5,0.5
		c0.1,0.1,0.3,0.2,0.6,0.3c0.3,0.1,0.6,0.1,0.9,0c0.5-0.2,0.7-0.5,0.9-0.6c0.1-0.1,0.1-0.2,0.2-0.2c0,0,0,0,0-0.1
		c0,0.1,0.1,0.2,0.2,0.3c0.1,0.1,0.1,0.1,0.2,0.2c0.1,0.1,0.2,0.2,0.3,0.2c0.1,0.1,0.2,0.1,0.3,0.1c0.2,0.1,0.5,0.1,0.8,0.1
		c0.3,0,0.6-0.2,0.9-0.3c0.4-0.3,0.6-0.6,0.8-0.8c0.3-0.5,0.4-0.8,0.5-1.1c0.1-0.1,0.1-0.2,0.1-0.3c0.1,0.1,0.3,0.3,0.5,0.4
		c0.3,0.1,0.5,0.2,0.7,0.3l0.1,0c0,0,0.2,0.1,0.3,0.1c0.3,0,0.6,0,0.8-0.2c0.4-0.2,0.5-0.5,0.6-0.6c0.2-0.3,0.2-0.6,0.3-0.8
		c0.2-0.9,0.3-1.7,0.3-2.5c0.1-1.6,0.1-3.1,0.2-4.7c0.1-3.1,0.3-6.2,0.8-9.3C253.1,104.4,252.6,107.5,252.1,110.6z M242.2,117.7
		C242.2,117.7,242.2,117.7,242.2,117.7C242.2,117.7,242.2,117.7,242.2,117.7z M246.7,118.9C246.7,118.9,246.7,118.9,246.7,118.9
		L246.7,118.9z M249.5,118.6C249.5,118.6,249.5,118.6,249.5,118.6C249.5,118.6,249.5,118.6,249.5,118.6z M249.5,118.7L249.5,118.7
		C249.5,118.7,249.5,118.7,249.5,118.7C249.5,118.7,249.4,118.7,249.5,118.7z M250.8,117.6C250.8,117.6,250.8,117.6,250.8,117.6
		C250.8,117.7,250.8,117.6,250.8,117.6z"/>
	<path class="st19" d="M286.4,85.1c-0.9,1.9-1.7,3.9-2.5,5.9c-1.6,4-2.9,8-4.2,12.1c-0.6,2-1.2,4.1-1.7,6.2
		c-0.3,1.1-0.5,2.1-0.7,3.2c-0.1,0.6-0.1,1-0.2,1.4c-0.1-0.2-0.1-0.4-0.3-0.6c-0.1-0.2-0.3-0.5-0.8-0.8c-0.5-0.3-1.2-0.3-1.6-0.1
		c-0.7,0.3-1,0.7-1.2,0.9c-0.2,0.2-0.3,0.4-0.4,0.6c0,0,0,0,0-0.1l-0.5-5.6l-2.3,5.1c-0.3,0.7-0.8,1.5-1.1,2.2
		c-0.2,0.3-0.4,0.6-0.6,0.9c-0.1-0.2-0.2-0.5-0.3-0.7c-0.3-0.7-0.4-1.6-0.6-2.4c-0.3-1.7-0.4-3.4-0.4-5.2c0-1.7,0-3.5,0.1-5.3
		c-0.6,1.7-1.1,3.4-1.3,5.2c-0.3,1.8-0.4,3.6-0.4,5.5c0.1,0.9,0.1,1.9,0.4,2.8c0.1,0.5,0.2,1,0.5,1.5c0.1,0.3,0.2,0.5,0.5,0.8
		c0.1,0.1,0.3,0.3,0.5,0.5c0.2,0.2,0.6,0.3,1,0.3c0.2,0,0.4,0,0.6-0.1c0.2-0.1,0.2-0.1,0.3-0.1c0.2-0.1,0.3-0.2,0.5-0.3
		c0.3-0.2,0.5-0.4,0.7-0.6c0.2-0.2,0.4-0.4,0.6-0.7c0.1,0.1,0.1,0.1,0.2,0.2c0.2,0.2,0.5,0.3,0.8,0.4c0.3,0.1,0.7,0,0.9,0
		c0.5-0.2,0.7-0.4,0.9-0.5c0.2-0.2,0.3-0.3,0.4-0.4c0.2-0.3,0.4-0.5,0.6-0.8c0.1-0.1,0.1-0.2,0.2-0.3c0.1,0.2,0.2,0.5,0.3,0.8
		c0.2,0.4,0.6,1,1.5,1.2c0.5,0.1,1,0,1.3-0.2c0.3-0.2,0.5-0.4,0.7-0.6c0.3-0.4,0.4-0.7,0.6-1.1c0.2-0.7,0.3-1.3,0.4-1.8
		c0.1-0.6,0.1-1.2,0.1-1.6c0.1-1,0.3-2,0.5-3c0.4-2.1,0.9-4.1,1.4-6.2c1-4.1,2.2-8.2,3.4-12.3c1.3-4,2.5-8.1,4.3-12
		C288.3,81.3,287.3,83.2,286.4,85.1z M268.6,117.1C268.6,117.1,268.6,117,268.6,117.1C268.6,117.1,268.6,117.1,268.6,117.1z
		 M274.4,115C274.4,115,274.4,114.9,274.4,115C274.4,114.9,274.4,115,274.4,115z M276.6,115.8C276.6,115.8,276.6,115.8,276.6,115.8
		C276.6,115.8,276.6,115.8,276.6,115.8z"/>
	<path class="st19" d="M233.3,117.3c0.1,0.3,0,0.7-0.3,1c-0.2,0.2-0.6,0.2-0.8,0c-0.3-0.2-0.4-0.5-0.4-0.7c-0.2-0.7-0.2-1.4-0.4-1.8
		c0-0.1-0.1-0.2-0.1-0.2l-0.1-0.1c0,0-0.1-0.1,0,0c0,0,0,0,0,0c0,0,0.1,0,0.2,0c0.2-0.2,0,0,0,0.3c0,0.1-0.1,0.3-0.2,0.6l-0.2,0.5
		c-0.1,0.3-0.3,0.6-0.5,1c-0.1,0.1-0.2,0.3-0.4,0.5c-0.1,0.1-0.3,0.3-0.6,0.4c-0.3,0.1-0.7,0.1-1,0c-0.4-0.2-0.6-0.5-0.7-0.7
		c-0.1-0.2-0.2-0.4-0.3-0.6c-0.2-0.5-0.2-0.9-0.2-1.2c0-0.1,0-0.2,0-0.3c0-0.1,0,0,0.1,0c0.1,0.1,0.2,0.1,0.3,0.1c0.2,0,0-0.1-0.1,0
		c-0.1,0-0.2,0.1-0.4,0.2c-0.1,0.1-0.3,0.2-0.4,0.2c-0.2,0.1-0.3,0.2-0.8,0.2c-0.1,0-0.2-0.1-0.3-0.2c0,0,0-0.1-0.1-0.1
		c0-0.1-0.1-0.2-0.1-0.3c0-0.2,0-0.4,0-0.5l0.1,0.1l-0.2-0.1l0.2-0.1l0,0l0,0.1c0.1,0.1,0.1,0.3,0.2,0.4c0,0.1,0.1,0.1,0.2,0.1
		c0,0,0.1,0,0.1,0.1c0,0,0-0.1-0.1-0.1c-0.1,0,0-0.1,0.1-0.2c0.1-0.1,0.2-0.2,0.3-0.4c0.1-0.1,0.2-0.3,0.4-0.4
		c0.2-0.1,0.3-0.3,0.8-0.4c0.3,0,0.5,0.1,0.7,0.3c0.1,0.1,0.2,0.3,0.3,0.4c0.1,0.2,0.2,0.4,0.2,0.6c0.1,0.4,0.1,0.6,0.2,0.7
		c0.1,0.1,0.1,0.2,0.2,0.2c0,0.1,0.1,0.1,0,0c-0.1,0-0.3-0.1-0.5,0c-0.2,0.1-0.2,0.1-0.2,0.1l0.2-0.3c0.1-0.2,0.2-0.4,0.4-0.7
		l0.2-0.4c0,0,0.1-0.2,0.1-0.3c0.1-0.2,0.1-0.3,0.2-0.6c0.1-0.2,0.3-0.5,0.7-0.8c0.4-0.2,0.8-0.2,1.1-0.2c0.3,0.1,0.6,0.2,0.8,0.5
		c0.1,0.1,0.2,0.2,0.3,0.3c0.1,0.1,0.1,0.2,0.2,0.3c0.1,0.2,0.1,0.4,0.2,0.6c0.1,0.9-0.1,1.5-0.2,2c0,0.1,0,0.1-0.1,0.2
		c0,0,0,0.1,0.1,0.1C232.9,117.9,233.2,117.6,233.3,117.3z"/>
	<path class="st19" d="M307.4,86.3c-1.1,1.4-2.1,2.9-2.9,4.5c-0.8,1.6-1.5,3.2-2.2,4.9c-1.3,3.3-2.3,6.7-3.2,10.1l-1.4,5.1
		c-0.2,0.6-0.3,1.2-0.4,1.8c-0.1-0.1-0.2-0.3-0.4-0.5c-0.1-0.1-0.2-0.2-0.4-0.3c-0.2-0.1-0.6-0.2-0.8-0.2c-0.5,0-0.7,0.2-0.9,0.3
		c-0.6,0.5-0.8,0.9-1.1,1.3c-0.2,0.4-0.5,0.8-0.6,1.2c-0.2,0.4-0.4,0.8-0.4,0.8c0,0.1-0.4,0.1-0.7-0.1c-0.4-0.2-0.7-0.4-1.1-0.7
		l-0.2,0.2c0.2,0.4,0.4,0.8,0.7,1.2c0.2,0.2,0.4,0.4,0.6,0.5c0.3,0.2,0.6,0.3,1.1,0.2c0.4-0.1,0.8-0.4,0.9-0.5
		c0.2-0.2,0.4-0.3,0.5-0.5l0.9-1c0,0,0,0,0.1-0.1l0.4,0.8c0.1,0.2,0.2,0.4,0.3,0.6c0.1,0.2,0.2,0.5,0.6,0.8c0,0,0.1,0.1,0.2,0.2
		c0.1,0.1,0.2,0.1,0.3,0.2c0.1,0.1,0.4,0.2,0.6,0.2c0.3,0,0.6-0.1,0.9-0.2c0.3-0.2,0.4-0.3,0.5-0.4c0.1-0.1,0.1-0.2,0.2-0.3
		c0.1-0.1,0.1-0.2,0.1-0.3c0.1-0.2,0.1-0.4,0.1-0.5l0.1-0.3c0.1-0.5,0.2-0.9,0.3-1.3c0.2-0.9,0.3-1.7,0.5-2.6
		c0.2-1.7,0.5-3.5,0.8-5.2c0.6-3.4,1.4-6.8,2.3-10.2c0.9-3.4,2-6.7,3.8-9.7L307.4,86.3z M295.9,114.2c0.1,0,0.1-0.1,0.1-0.1
		C296,114.2,296,114.2,295.9,114.2z M298.7,114.8C298.7,114.8,298.7,114.8,298.7,114.8L298.7,114.8
		C298.8,114.9,298.8,114.8,298.7,114.8z"/>
	<path class="st19" d="M319.5,117.3c0,1,0,1.9,0,2.8c0,0.4,0.1,0.9,0.2,1c0,0,0,0,0,0s0,0,0-0.1c-0.1-0.1-0.1-0.1-0.2-0.1
		c-0.1,0,0.1,0,0.1,0l0.2,0l0.4,0c1.1,0.1,2.1,0.3,3.1,1c0.2,0.2,0.5,0.4,0.7,0.7c0.2,0.3,0.5,0.7,0.5,1.2c0,0.4,0,0.7-0.1,0.9
		c-0.1,0.3-0.1,0.5-0.2,0.7c-0.1,0.2-0.1,0.4-0.2,0.6c-0.1,0.2,0,0.4-0.1,0.3c0,0-0.1-0.2-0.2-0.1c0,0-0.1,0,0,0l0.2,0l0.7,0.2
		c0.5,0.1,0.9,0.3,1.4,0.4c0.5,0.2,0.9,0.3,1.4,0.7c0.1,0.1,0.1,0.1,0.2,0.2c0,0.1,0.1,0.1,0.1,0.2c0,0.1,0.1,0.2,0.1,0.3
		c0,0.2-0.1,0.4-0.1,0.5c-0.1,0.3-0.3,0.5-0.3,0.6c0,0.1,0,0-0.1,0c0,0,0,0,0.1,0.1c0.2,0.1,0.4,0.2,0.7,0.3
		c0.2,0.1,0.5,0.3,0.6,0.7c0.1,0.4-0.1,0.6-0.1,0.8c-0.1,0.2-0.2,0.4-0.2,0.6c0,0.2,0.1,0.3,0.3,0.4l-0.1,0.2
		c-0.2-0.1-0.5-0.3-0.5-0.6c0-0.3,0-0.5,0.1-0.8c0.2-0.5,0.1-0.7-0.3-0.8c-0.2-0.1-0.4-0.1-0.6-0.2c-0.1,0-0.3-0.1-0.5-0.3
		c-0.2-0.2-0.2-0.5-0.1-0.7c0.1-0.3,0.2-0.5,0.3-0.7c0-0.1,0-0.2,0-0.2c0,0,0,0.1,0,0.1c0,0,0,0,0,0c0,0,0,0-0.1,0
		c-0.3-0.2-0.8-0.3-1.2-0.4c-0.4-0.1-0.9-0.2-1.3-0.3l-0.7-0.1l-0.2,0c0,0-0.2,0-0.3-0.1c-0.3-0.1-0.6-0.4-0.7-0.6
		c-0.2-0.5-0.1-0.8-0.1-1.1c0-0.3,0.1-0.5,0.1-0.7c0-0.2,0.1-0.4,0.1-0.6c0-0.2,0-0.4,0-0.5c0,0.1-0.2-0.2-0.5-0.3
		c-0.6-0.3-1.5-0.5-2.3-0.7l-0.3-0.1l-0.4-0.1c-0.3,0-0.6-0.2-0.8-0.4c-0.1-0.1-0.2-0.2-0.3-0.3c-0.1-0.1-0.1-0.2-0.1-0.3
		c-0.2-0.8-0.1-1.3,0.1-1.8c0.3-1,0.7-1.9,1.2-2.7L319.5,117.3z"/>
	<path class="st19" d="M202,109c0,1-0.2,2-0.5,2.9c-0.2,0.5-0.4,1-1,1.5c-0.1,0.1-0.2,0.1-0.3,0.2c-0.1,0.1-0.2,0.1-0.4,0.1
		c-0.3,0.1-0.6,0-0.9-0.1l-0.3-0.2l-0.3-0.1c-0.7-0.3-1.6-0.6-2.3-0.7c-0.3-0.1-0.6,0-0.6,0c0,0-0.2,0.2-0.3,0.4
		c-0.1,0.2-0.2,0.4-0.3,0.6c-0.1,0.2-0.2,0.4-0.3,0.7c-0.1,0.2-0.2,0.5-0.7,0.9c-0.2,0.2-0.6,0.2-0.9,0.1c-0.1,0-0.3-0.1-0.3-0.1
		l-0.1-0.1l-0.6-0.3c-0.4-0.2-0.8-0.4-1.3-0.5c-0.4-0.2-0.9-0.3-1.2-0.3c0,0-0.1,0-0.1,0c0,0,0,0,0,0c0,0,0.1-0.1,0.1-0.1
		c0,0-0.1,0.1-0.1,0.1c-0.1,0.2-0.1,0.4-0.2,0.7c0,0.1-0.2,0.4-0.5,0.5c-0.3,0.1-0.5,0-0.6-0.1c-0.2-0.1-0.4-0.2-0.6-0.2
		c-0.4-0.1-0.6,0-0.7,0.5c-0.1,0.2-0.2,0.5-0.4,0.7c-0.2,0.2-0.6,0.2-0.8,0.2l0-0.2c0.2,0,0.4,0,0.5-0.2c0.1-0.1,0.1-0.4,0.2-0.6
		c0.1-0.2,0.1-0.5,0.4-0.8c0.3-0.2,0.6-0.2,0.9-0.2c0.3,0,0.5,0.1,0.7,0.1c0.1,0,0.2,0,0.1,0c-0.1,0-0.1,0.1-0.1,0
		c0-0.1,0-0.4,0.1-0.7c0-0.1,0.1-0.3,0.2-0.5c0.1-0.1,0.1-0.1,0.2-0.2c0.1-0.1,0.1,0,0.2-0.1c0.1,0,0.2,0,0.3,0
		c0.6,0,1.1,0.1,1.6,0.2c0.5,0.1,0.9,0.3,1.4,0.4l0.7,0.3l0.2,0.1c0.1,0,0,0,0,0c0,0-0.2,0-0.2,0c-0.1,0.1,0.1-0.1,0.1-0.3
		c0.1-0.2,0.1-0.4,0.2-0.6c0.1-0.2,0.1-0.5,0.2-0.7c0.1-0.3,0.2-0.5,0.4-0.8c0.3-0.4,0.7-0.6,1.1-0.7c0.4-0.1,0.7-0.1,1-0.1
		c1.2,0,2.2,0.4,3.1,0.9l0.3,0.2l0.2,0.1c0,0,0.2,0.1,0.1,0.1c-0.1,0-0.2,0-0.3,0c-0.1,0-0.1,0-0.1,0s0,0,0,0c0.2,0,0.5-0.4,0.7-0.7
		c0.5-0.7,1-1.5,1.6-2.3L202,109z"/>
	<path class="st19" d="M162.9,210.8c0.7-0.5,1-1.5,1.1-2.4c0.1-0.9,0.1-1.9,0-2.8c-0.3-1.8-0.6-3.7-1-5.6l-2.1-11.1
		c-0.6-3.7-1.3-7.4-1.8-11.2c-0.2-1.9-0.5-3.8-0.6-5.7c-0.1-1.9-0.3-3.8-0.2-5.8c0-1,0.2-1.9,0.3-2.8c0.1-0.9,0.2-1.9,0.3-2.8
		c0.1-0.9,0.1-1.8,0.1-2.7c0-0.4,0-0.9-0.1-1.3c0-0.2-0.1-0.4-0.1-0.6l-0.1-0.3l0-0.2l0-0.3c-0.1-0.8,0.2-1.5,0.5-2
		c0.3-0.5,0.7-0.9,1-1.3c0.2-0.2,0.3-0.3,0.5-0.5c0.1-0.1,0.1-0.1,0.1-0.1c0,0,0.1-0.1,0.1-0.2c0.1-0.3,0.3-0.8,0.4-1.2
		c0.3-0.9,0.5-1.8,0.8-2.7c0.3-0.9,0.6-1.9,1-2.8c0.3-0.5,0.5-0.9,1-1.4c0.2-0.1,0.3-0.3,0.6-0.4l0.1,0c0,0,0.1,0,0,0
		c-0.1,0-0.1,0-0.2,0.1c-0.1,0.1-0.1,0.1-0.2,0.1c0,0.1,0.1-0.1,0.1-0.3l0.1-0.7c0-0.1,0.1-0.3,0.1-0.4c0-0.1,0.1-0.2,0.1-0.3
		c0.1-0.1,0.1-0.2,0.3-0.4c0.1-0.1,0.4-0.3,0.6-0.4c0.1,0,0.2,0,0.4,0c0.1,0,0.1,0,0.1,0l0.1,0c0.1,0,0.3,0.1,0.4,0.1l0.6,0.2
		c0,0,0.1-0.1-0.2,0.1c-0.1,0.1-0.2,0.1-0.2,0.2c-0.1,0.1-0.1,0.3-0.1,0.4c0,0,0,0,0,0c0-0.2-0.1-0.4-0.2-0.6
		c-0.1-0.5-0.3-0.9-0.4-1.5c0-0.3-0.1-0.6,0.1-1.1c0.1-0.2,0.4-0.6,0.7-0.7c0.2-0.1,0.3-0.1,0.4-0.1c0.1,0,0.2,0,0.3,0
		c0.6,0.1,1,0.3,1.5,0.6c0.2,0.1,0.4,0.2,0.5,0.2c0,0,0,0-0.1,0c0,0-0.1,0-0.1,0.1c-0.1,0-0.1,0.1-0.1,0.1c-0.1,0.2,0,0.1,0,0.1
		c0-0.1,0-0.4,0-0.6c0-0.2-0.1-0.4-0.1-0.6c-0.2-0.8-0.7-1.5-1.3-2.2c-1.2-1.3-2.8-2.5-4.3-3.6l0.1-0.2c1.7,0.9,3.3,1.9,4.8,3.1
		c0.7,0.6,1.4,1.4,1.8,2.5c0.1,0.3,0.1,0.5,0.2,0.8c0,0.2,0.1,0.4,0.1,0.8c0,0.2,0.1,0.4-0.2,0.7c-0.1,0.2-0.4,0.3-0.5,0.3
		c-0.2,0-0.3,0-0.4,0c-0.4-0.1-0.6-0.2-0.8-0.3c-0.4-0.2-0.8-0.3-1.2-0.3c0,0,0,0,0,0c0,0,0,0,0.1,0c0,0,0.1,0,0.1-0.1
		c0,0,0,0,0.1-0.1c0,0,0,0,0,0c0-0.1,0,0.1,0,0.3c0.1,0.4,0.2,0.8,0.4,1.2c0.1,0.2,0.2,0.4,0.2,0.7c0,0.1,0,0.2,0.1,0.3
		c0,0.2,0,0.5-0.1,0.6c-0.1,0.2-0.2,0.3-0.4,0.4c-0.3,0.2-0.5,0.2-0.6,0.2c-0.1,0-0.2,0-0.3,0c-0.3-0.1-0.5-0.1-0.7-0.2
		c-0.1,0-0.2,0-0.3,0l0,0l0,0l0,0c0.1,0,0.1,0,0.2,0c0.1,0,0.3-0.1,0.3-0.2c0.1-0.2,0,0,0,0.2l-0.1,0.7c-0.1,0.3-0.1,0.5-0.4,1
		c-0.1,0.1-0.2,0.3-0.4,0.4c-0.1,0.1-0.2,0.1-0.3,0.2c-0.1,0,0,0,0,0l0,0c0.1,0,0.1,0,0,0c-0.1,0.1-0.4,0.5-0.5,0.9
		c-0.7,1.5-1,3.4-1.6,5.2c-0.1,0.5-0.3,0.9-0.5,1.5c-0.1,0.1-0.1,0.3-0.2,0.4c-0.1,0.2-0.2,0.3-0.3,0.4c-0.2,0.2-0.4,0.4-0.5,0.5
		c-0.7,0.6-1.1,1.3-1,1.6c0,0,0,0,0,0.1c0,0,0,0.1,0,0.2l0.1,0.4c0,0.3,0.1,0.5,0.1,0.8c0.1,0.5,0.1,1,0.1,1.5c0,1-0.1,2-0.2,2.9
		c-0.1,1-0.3,1.9-0.4,2.8c-0.1,0.9-0.4,1.9-0.4,2.8c-0.2,1.8-0.1,3.7,0,5.5c0.1,1.9,0.3,3.7,0.5,5.6c0.4,3.7,0.9,7.5,1.5,11.2
		l1.7,11.2c0.3,1.9,0.6,3.7,0.8,5.6c0.1,0.9,0.1,1.9-0.1,2.9c-0.2,0.9-0.4,2-1.3,2.5L162.9,210.8z"/>
	<path class="st19" d="M336,211c-0.8-0.5-1-1.4-1.2-2.1c-0.2-0.8-0.2-1.6-0.2-2.5c0.1-1.6,0.4-3.2,0.6-4.8l1.4-9.6
		c0.9-6.4,1.9-12.8,2.3-19.2c0.1-0.8,0.1-1.6,0.1-2.4c0-0.8,0-1.6,0-2.4c0-0.8-0.1-1.5-0.2-2.3l-0.4-2.4c-0.2-1.6-0.5-3.2-0.5-4.9
		c0-0.8,0-1.8,0.2-2.6l0.1-0.3l0-0.1l0-0.1c0-0.1,0-0.2,0-0.2c0-0.2-0.2-0.4-0.4-0.7c-0.2-0.3-0.4-0.5-0.7-0.8
		c-0.1-0.1-0.3-0.3-0.5-0.5c-0.2-0.2-0.4-0.5-0.5-0.8c-0.4-0.9-0.5-1.7-0.7-2.5c-0.4-1.6-0.7-3.2-1.3-4.5c-0.1-0.3-0.3-0.7-0.5-0.9
		l-0.1-0.1c0,0,0,0,0,0c-0.1,0-0.3-0.1-0.4-0.2c-0.4-0.4-0.4-0.6-0.4-0.9c-0.1-0.5-0.1-0.9-0.2-1.2c0-0.2-0.1-0.2,0.1-0.1
		c0.1,0,0,0-0.1,0l-0.3,0c-0.2,0-0.4,0.1-0.6,0.1c-0.1,0-0.2,0-0.5,0c-0.1,0-0.3-0.1-0.4-0.2c-0.1-0.1-0.1-0.4-0.1-0.4
		c0.1-0.5,0.3-0.8,0.4-1.2c0.1-0.4,0.3-0.7,0.3-1.1c0-0.2,0-0.4,0-0.5c0-0.1-0.2-0.2-0.4-0.2l0-0.2c0.2,0,0.5-0.1,0.7,0.2
		c0.1,0.2,0.2,0.5,0.2,0.7c0,0.4-0.1,0.8-0.2,1.3c-0.1,0.4-0.2,0.8-0.3,1.1c0,0.1,0-0.1,0-0.1c0-0.1-0.1-0.1-0.1-0.1
		c0,0,0.1,0,0.1,0l0.6-0.2c0.1,0,0.2-0.1,0.3-0.1c0.1,0,0.2-0.1,0.5,0c0.3,0.1,0.5,0.3,0.5,0.4c0.1,0.1,0.1,0.3,0.2,0.4
		c0.1,0.5,0.2,0.9,0.3,1.2c0,0.2,0.2,0.3,0.1,0.2c0,0-0.1-0.1-0.1-0.1c0.1,0,0.2,0.1,0.3,0.1c0.2,0.1,0.3,0.2,0.4,0.3
		c0.4,0.4,0.6,0.8,0.9,1.1c0.9,1.5,1.3,3.2,1.7,4.7c0.2,0.7,0.5,1.6,0.8,2.2c0.1,0.2,0.1,0.2,0.2,0.3l0.4,0.4c0.3,0.3,0.6,0.6,0.9,1
		c0.3,0.4,0.6,0.9,0.7,1.5c0.1,0.3,0.1,0.6,0,1l0,0.2l0,0.1l-0.1,0.3c-0.1,0.7-0.2,1.4-0.2,2.2c0,1.5,0.2,3.1,0.4,4.7l0.3,2.4
		c0.1,0.8,0.2,1.7,0.1,2.6c0,0.8,0,1.7-0.1,2.5c-0.1,0.8-0.1,1.6-0.2,2.4c-0.7,6.5-1.8,12.9-2.9,19.3l-1.8,9.5
		c-0.3,1.6-0.6,3.2-0.8,4.8c-0.1,0.8-0.1,1.6,0.1,2.4c0.1,0.8,0.4,1.6,1,2L336,211z"/>
	<g>
		<polygon class="st9" points="248.9,499.6 246.9,499.6 246.9,419.7 247.9,420.8 248.9,419.5 		"/>
	</g>
</g>
<g id="Layer_3">
</g>
<g id="BEELD">
</g>
<g id="Layer_7" class="st20">
	<line class="st21" x1="-394.5" y1="572.2" x2="-394.5" y2="1602.8"/>
</g>
<g id="Layer_8">
</g>
</svg>
