<?xml version="1.0" encoding="utf-8"?>
<!-- Generator: Adobe Illustrator 24.3.0, SVG Export Plug-In . SVG Version: 6.00 Build 0)  -->
<svg version="1.1" xmlns="http://www.w3.org/2000/svg" xmlns:xlink="http://www.w3.org/1999/xlink" x="0px" y="0px"
	 viewBox="0 0 500 500" style="enable-background:new 0 0 500 500;" xml:space="preserve">
<style type="text/css">
	.st0{fill:#18181C;}
	.st1{fill:#EFD6C2;}
	.st2{fill:#F7E2D0;}
	.st3{fill:#F05A24;}
	.st4{fill:#CD4D1F;}
	.st5{fill:url(#SVGID_1_);}
	.st6{fill:url(#SVGID_2_);}
	.st7{fill:#302D2E;}
	.st8{fill:#2D2D31;}
	.st9{fill:#220000;}
	.st10{fill:#3D2929;}
	.st11{fill:#C1BDB7;}
	.st12{fill:none;stroke:#D5D7D8;stroke-miterlimit:10;}
	.st13{fill:none;stroke:#D5D7D8;stroke-linecap:round;stroke-miterlimit:10;}
	.st14{fill:#484745;}
	.st15{fill:#423D3F;}
	.st16{fill:#8C5E50;}
	.st17{fill:#A17C4C;}
	.st18{fill:#2A1D01;}
	.st19{fill:#FFFFFF;}
	.st20{fill:#2D2825;}
	.st21{display:none;}
	.st22{display:inline;fill:none;stroke:#231F20;stroke-width:0.5;stroke-miterlimit:10;}
</style>
<g id="Layer_5">
	<path class="st0" d="M250.3,281.6c-45.8-1.5-76.8,15-76.8,15L157.8,250l-4.4-28.4l198.5,19.2l-23.2,55.8
		C328.6,296.6,308.9,283.5,250.3,281.6z"/>
	<path class="st1" d="M336.9,369.6c0,0-1.5-3.3-23.2-10.9c-21.7-7.6-37.8-18-37.8-34.3c0-16.2,0-42.8,0-42.8h-50c0,0,0,26.5,0,42.8
		c0,16.3-16.1,26.7-37.8,34.3c-21.7,7.6-23.2,10.9-23.2,10.9L115.7,500h33.1l33.3-68.8c0,0,6.4,27.1,13.9,68.8h52.5h0.7h1.6l0,0h1.6
		h0.7h52.5c7.5-41.7,13.9-68.8,13.9-68.8l33.3,68.8h33.1L336.9,369.6z"/>
</g>
<g id="Layer_2">
	<path class="st2" d="M355.2,160.2c0,79.3-35.2,144.2-103.6,144.2c-68.3,0-106.3-65.6-106.3-144.9c0-79.3,39.1-87.3,107.4-87.3
		C321.1,72.2,355.2,80.9,355.2,160.2z"/>
	<path class="st3" d="M251.1,213.5"/>
	<path class="st3" d="M338.2,367.8c-8.6-4.8-36.5-17.5-36.5-17.5c-5.4,11.3-40.6,21.4-40.6,21.4l-9.8,25.7l0,0l0,0l-9.8-25.7
		c0,0-35.2-10.1-40.6-21.4c0,0-27.9,12.7-36.5,17.5c-5.5,3-37.6,94.9-37.6,94.9l30.4,18.1l24-49.6l13.9,68.8h52.4h2.4h0.3h1.2h1.2
		h0.3h2.4h52.4l13.9-68.8l24,49.6l30.4-18.1C375.8,462.7,343.6,370.8,338.2,367.8z"/>
	<g>
		<path class="st4" d="M245,381.2l-0.6-1.5c-21.8-1.6-41.1-10.8-54.2-24.6c-0.5,0.2-0.9,0.4-1.4,0.7
			C202.4,370.1,222.4,379.7,245,381.2z"/>
		<path class="st4" d="M313.6,355.8c-0.5-0.2-1-0.4-1.4-0.7c-13.2,13.8-32.5,23-54.2,24.6l-0.6,1.5C280,379.7,300,370.1,313.6,355.8
			z"/>
	</g>
	<radialGradient id="SVGID_1_" cx="310.6793" cy="240.9093" r="18.5322" gradientUnits="userSpaceOnUse">
		<stop  offset="0" style="stop-color:#F1C3A9"/>
		<stop  offset="1" style="stop-color:#F7E2D0"/>
	</radialGradient>
	<path class="st5" d="M329.2,240.9c0,10.2-8.3,18.5-18.5,18.5c-10.2,0-18.5-8.3-18.5-18.5c0-10.2,8.3-18.5,18.5-18.5
		C320.9,222.4,329.2,230.7,329.2,240.9z"/>
	<radialGradient id="SVGID_2_" cx="192.4722" cy="240.9093" r="18.5322" gradientUnits="userSpaceOnUse">
		<stop  offset="0" style="stop-color:#F1C3A9"/>
		<stop  offset="1" style="stop-color:#F7E2D0"/>
	</radialGradient>
	<path class="st6" d="M211,240.9c0,10.2-8.3,18.5-18.5,18.5c-10.2,0-18.5-8.3-18.5-18.5c0-10.2,8.3-18.5,18.5-18.5
		C202.7,222.4,211,230.7,211,240.9z"/>
</g>
<g id="Layer_4">
	<path class="st7" d="M378.5,196c0-70.5-28.3-150.3-128-150.3s-128,79.8-128,150.3c0,40.1,21.1,108.5,50.9,100.6
		c-8.8-27.9-12.1-67.5-12.1-92.5c0-70.5,39.9-77.3,89.2-77.3c49.2,0,89.2,6.8,89.2,77.3c0,25-3.3,64.6-12.1,92.5"/>
	<path class="st8" d="M143.4,155.3c0,0,39.8,21.1,105.5,21.1s121-21.1,121-21.1l-82.9-39.7H205l-53.3,10.5"/>
	<path class="st8" d="M123.6,172.4c0,0-9.5,70.8,25.6,137c0,0,13.7-8.9,23.1-12.8c0,0-12.6-46.1-12.6-98.6L123.6,172.4z"/>
	<path class="st8" d="M377.3,172.4c0,0,9.5,70.8-25.6,137c0,0-13.7-8.9-23.1-12.8c0,0,12.6-46.1,12.6-98.6L377.3,172.4z"/>
	<g>
		<path class="st9" d="M225.1,500c-7.4-109.2-13.4-158.8-23.1-152.6c-15.9,10.2-44.4,17.4-44.4,17.4l-45,135.2h39l22-51.2l10.8,51.2
			H225.1z"/>
		<path class="st10" d="M173.5,448.7c0.1-7.4,0-14.8-0.3-22.1c-0.3-7.4-0.8-14.7-1.6-22c-0.4-3.6-1-7.3-1.7-10.8
			c-0.7-3.6-1.4-7.1-2.3-10.6c-0.4-1.8-0.9-3.5-1.4-5.2c-0.5-1.7-1.2-3.4-1.9-5c-1.5-3.2-3.4-6.2-6.7-8l0.1-0.4
			c1.9,0.3,3.7,1.3,5.2,2.6c1.5,1.3,2.8,2.8,3.8,4.4c2.1,3.3,3.5,6.8,4.7,10.5c2.3,7.3,2.8,14.8,3.3,22.2c0.5,7.4,0.6,14.9,0.4,22.3
			c-0.2,7.4-0.6,14.8-1.3,22.2L173.5,448.7z"/>
	</g>
	<g>
		<path class="st9" d="M276.7,500c7.4-109.2,13.4-158.8,23.1-152.6c15.9,10.2,44.4,17.4,44.4,17.4l45,135.2h-39l-22-51.2L317.3,500
			H276.7z"/>
		<path class="st10" d="M328.3,448.7c-0.1-7.4,0-14.8,0.3-22.1c0.3-7.4,0.8-14.7,1.6-22c0.4-3.6,1-7.3,1.7-10.8
			c0.7-3.6,1.4-7.1,2.3-10.6c0.4-1.8,0.9-3.5,1.4-5.2c0.5-1.7,1.2-3.4,1.9-5c1.5-3.2,3.4-6.2,6.7-8l-0.1-0.4
			c-1.9,0.3-3.7,1.3-5.2,2.6c-1.5,1.3-2.8,2.8-3.8,4.4c-2.1,3.3-3.5,6.8-4.7,10.5c-2.3,7.3-2.8,14.8-3.3,22.2
			c-0.5,7.4-0.6,14.9-0.4,22.3c0.2,7.4,0.6,14.8,1.3,22.2L328.3,448.7z"/>
	</g>
	<path class="st3" d="M193.2,361.2"/>
	<g>
		<path class="st11" d="M251.1,362c-6.8,0-12.4-5.6-12.4-12.4s5.6-12.4,12.4-12.4s12.4,5.6,12.4,12.4S257.9,362,251.1,362z
			 M251.1,342.2c-4.1,0-7.4,3.3-7.4,7.4s3.3,7.4,7.4,7.4s7.4-3.3,7.4-7.4S255.2,342.2,251.1,342.2z"/>
	</g>
	<path class="st12" d="M240.7,349.4c0-5.8,4.7-10.4,10.4-10.4c5.8,0,10.4,4.7,10.4,10.4"/>
	<path class="st13" d="M260.2,353.6c-1.6,2.9-4.6,4.8-8.1,4.8s-6.5-1.9-8.1-4.8"/>
	<path class="st14" d="M246.3,344.9c-4.9-0.5-22.3-6.2-24.5-9.7c0,0-4,6-5.2,6.7c0,0,15.4,10,28.3,10
		C244.8,351.8,244,347.9,246.3,344.9z"/>
	<path class="st14" d="M255.3,344.9c4.9-0.5,22.3-6.2,24.5-9.7c0,0,4,6,5.2,6.7c0,0-15.4,10-28.3,10
		C256.8,351.8,257.6,347.9,255.3,344.9z"/>
</g>
<g id="Layer_1">
	<path class="st15" d="M349.6,161.9l-2.4-7.6c-0.9-2.5-1.8-5-2.7-7.5l-1.4-3.7c-0.5-1.2-0.9-2.5-1.5-3.7c-0.6-1.2-1.2-2.4-1.8-3.6
		c-0.6-1.2-1.3-2.4-1.9-3.5c-2.6-4.7-5.5-9.2-8.8-13.4c-1.6-2.1-3.4-4.2-5.2-6.1c-1.9-1.9-3.8-3.7-6.1-5.1c3.8,3.7,6.5,8.2,9,12.7
		c2.5,4.6,4.7,9.3,6.5,14.1c1,2.4,1.8,4.9,2.7,7.3c0.9,2.4,2,4.8,2.9,7.2l2.6,7.3l1.4,4.3c-14.5,3.1-29.3,5.5-44.1,7.3
		c-15.9,1.9-31.9,3-47.9,3.3c-8,0.1-16,0-24-0.4c-8-0.4-15.9-1.1-23.8-2.2c-7.9-1.1-15.7-2.5-23.4-4.4c-6.9-1.7-13.6-3.8-20.2-6.3
		c0.3-1.2,0.7-2.4,1-3.6c0.3-1,0.6-2,1-3c0.4-1,0.7-2,1.1-3c1.2-4.1,2.6-8.2,4.2-12.3c0.8-2,1.7-4,2.5-6c0.9-2,1.8-4,2.8-5.9
		c2-3.9,4.2-7.7,6.6-11.4c-3,3.2-6,6.5-8.5,10.2c-1.4,1.8-2.5,3.6-3.8,5.5c-1.2,1.9-2.4,3.8-3.5,5.7c-2.2,3.9-4.3,7.9-6.1,12
		c-0.8,2.1-1.4,4.3-2.1,6.4c-0.7,2.2-1.2,4.3-1.8,6.6l-0.5,2.5l2.4,0.9c7.7,3,15.5,5.4,23.4,7.4c7.9,1.9,16,3.4,24.1,4.5
		c8.1,1.1,16.2,1.8,24.3,2.2c8.1,0.4,16.2,0.5,24.4,0.4c16.2-0.3,32.4-1.4,48.5-3.3c16.1-2,32.1-4.5,48-8.1l3.2-0.7L349.6,161.9z"/>
</g>
<g id="Layer_3">
</g>
<g id="BEELD">
	<g>
		<path class="st16" d="M216.7,257.7c10.6,6.4,22,10.4,33.5,10.2c11.6,0,22.7-4.5,33.7-10.2c-4,4.8-9.1,8.7-14.9,11.6
			c-5.7,2.9-12.2,4.5-18.8,4.6c-6.5,0-13.1-1.4-18.8-4.3C225.6,266.8,220.4,262.8,216.7,257.7z"/>
		<g>
			<g>
				<path class="st17" d="M221.6,207c0,9-7.4,16.2-16.4,16.2c-9.1,0-16.4-7.3-16.4-16.2c0-9,7.3-16.2,16.4-16.2
					C214.3,190.8,221.6,198,221.6,207z"/>
				<path class="st18" d="M217.4,207c0,6.3-5.1,11.3-11.3,11.3c-6.3,0-11.3-5.1-11.3-11.3c0-6.2,5.1-11.3,11.3-11.3
					C212.3,195.7,217.4,200.7,217.4,207z"/>
				<path class="st19" d="M201.3,204.1c0,1.8-1.5,3.3-3.3,3.3c-1.8,0-3.3-1.5-3.3-3.3c0-1.8,1.5-3.3,3.3-3.3
					C199.8,200.9,201.3,202.3,201.3,204.1z"/>
				<path class="st2" d="M231.9,213.5c0,0-14.2-19.3-34.6-16.6c-20.4,2.7-22.8,12.4-22.8,12.4l0.8-28.8l13.6,1l52,11.3L231.9,213.5z
					"/>
				<path class="st20" d="M229.9,211.3c-3.6-3.2-7.3-5.9-11.2-8.2c-3.9-2.3-8.1-4-12.4-4.9c-2.2-0.4-4.3-0.6-6.5-0.6
					c-2.2,0-4.4,0.3-6.6,0.8c-4.4,1-8.7,2.7-12.9,4.9c3.3-3.5,7.4-6.2,12.1-7.9c2.3-0.8,4.8-1.3,7.3-1.5c2.5-0.2,5,0,7.5,0.5
					c4.9,1,9.5,3.2,13.4,6.2C224.3,203.5,227.7,207.1,229.9,211.3z"/>
			</g>
			<g>
				<path class="st17" d="M278.9,207c0,9,7.4,16.2,16.4,16.2c9.1,0,16.4-7.3,16.4-16.2c0-9-7.3-16.2-16.4-16.2
					C286.3,190.8,278.9,198,278.9,207z"/>
				<path class="st18" d="M283.1,207c0,6.3,5.1,11.3,11.3,11.3c6.3,0,11.3-5.1,11.3-11.3c0-6.2-5.1-11.3-11.3-11.3
					C288.2,195.7,283.1,200.7,283.1,207z"/>
				<path class="st19" d="M283.3,204.1c0,1.8,1.5,3.3,3.3,3.3c1.8,0,3.3-1.5,3.3-3.3c0-1.8-1.5-3.3-3.3-3.3
					C284.7,200.9,283.3,202.3,283.3,204.1z"/>
				<path class="st2" d="M268.7,213.5c0,0,14.2-19.3,34.6-16.6c20.4,2.7,22.8,12.4,22.8,12.4l-0.8-28.8l-13.6,1l-52,11.3
					L268.7,213.5z"/>
				<path class="st20" d="M270.6,211.3c2.3-4.2,5.6-7.8,9.5-10.8c3.9-2.9,8.4-5.2,13.4-6.2c2.5-0.5,5-0.6,7.5-0.5
					c2.5,0.2,5,0.7,7.3,1.5c4.6,1.7,8.8,4.4,12.1,7.9c-4.3-2.1-8.6-3.9-12.9-4.9c-2.2-0.4-4.4-0.7-6.6-0.8c-2.2,0-4.4,0.2-6.5,0.6
					c-4.3,0.8-8.5,2.6-12.4,4.9C277.9,205.3,274.2,208.1,270.6,211.3z"/>
			</g>
		</g>
	</g>
</g>
<g id="Layer_7" class="st21">
	<line class="st22" x1="-2973.6" y1="-29.8" x2="-2973.6" y2="1000.8"/>
</g>
</svg>
