<?xml version="1.0" encoding="utf-8"?>
<!-- Generator: Adobe Illustrator 26.2.1, SVG Export Plug-In . SVG Version: 6.00 Build 0)  -->
<svg version="1.1" xmlns="http://www.w3.org/2000/svg" xmlns:xlink="http://www.w3.org/1999/xlink" x="0px" y="0px"
	 viewBox="0 0 322.3 320.7" style="enable-background:new 0 0 322.3 320.7;" xml:space="preserve">
<style type="text/css">
	.st0{fill:#D94721;}
	.st1{fill:#F05A24;}
	.st2{fill:none;}
	.st3{fill:#B73D26;}
	.st4{fill:#FFFFFF;}
	.st5{fill:#E9F9FF;}
	.st6{fill:#CCE8EE;}
	.st7{fill:#004152;}
	.st8{fill:#80B8BF;}
	.st9{fill:#9F3521;}
	.st10{fill:#FDBD3A;}
	.st11{fill:#F6B02C;}
	.st12{fill:#FFC858;}
	.st13{fill:#FFD68D;}
	.st14{fill:#FF9E6E;}
</style>
<g id="Layer_1">
</g>
<g id="Layer_2">
</g>
<g id="Layer_3">
</g>
<g id="Layer_4">
	<g>
		<circle class="st0" cx="161.5" cy="160.2" r="159.5"/>
		<path class="st1" d="M22.7,81.6l266.1,174.7c20.2-26.8,32.2-60.1,32.2-96.2C321.1,72.1,249.6,0.7,161.5,0.7
			C101.9,0.7,50.1,33.3,22.7,81.6z"/>
		<circle class="st2" cx="161.5" cy="160.2" r="159.5"/>
		<path class="st2" d="M161.5,0.7C249.6,0.7,321,72.1,321,160.2s-71.4,159.5-159.5,159.5c-39.2,0-75.1-14.1-102.9-37.6
			c-1.7-1.4-3.3-2.9-5-4.3C21.9,248.5,2,206.6,2,160.2C2,72.1,73.4,0.7,161.5,0.7z"/>
		<path class="st3" d="M244.3,219.1h-10.1h-4.6h-14.2h-1.5h-14.2H195h-14.2h-1.5h-14.2h-4.6h-14.2h-1.5h-14.2h-15.4l-36.4-4.3
			c-9.8,2.3-18.8,13.4-18.8,24.6v0c0,2.4,0.5,4.8,1.3,7c0,0.1,0.1,0.2,0.1,0.2c0.2,0.5,0.4,0.9,0.6,1.3c0,0.1,0.1,0.1,0.1,0.2
			c0.9,1.8,2,3.5,3.3,4.9c0.1,0.1,0.2,0.2,0.3,0.3c0.3,0.3,0.5,0.5,0.8,0.8c0.2,0.1,0.3,0.3,0.5,0.4c0.3,0.2,0.5,0.5,0.8,0.7
			c0.2,0.2,0.4,0.3,0.6,0.5c0.3,0.2,0.5,0.4,0.8,0.6c0.3,0.2,0.6,0.3,0.8,0.5c0.3,0.2,0.6,0.4,0.9,0.5c0.4,0.2,0.9,0.4,1.3,0.6
			c0.2,0.1,0.4,0.2,0.7,0.3c0.4,0.1,0.7,0.3,1.1,0.4c0.2,0.1,0.5,0.1,0.7,0.2c0.4,0.1,0.7,0.2,1.1,0.3c0.2,0.1,0.5,0.1,0.7,0.1
			c0.4,0.1,0.8,0.1,1.3,0.2c0.2,0,0.4,0.1,0.6,0.1c0.6,0.1,1.3,0.1,1.9,0.1H115h127.3l5.3-4.9l-3.3-24.2v-5.7V219.1L244.3,219.1z
			 M77.8,233.9c3,0,5.5,2.4,5.5,5.5c0,3-2.4,5.5-5.5,5.5s-5.5-2.4-5.5-5.5C72.3,236.4,74.8,233.9,77.8,233.9z"/>
		<path class="st4" d="M247.5,214.2H84.4c-11.1,0-20.1,9-20.1,20.1v0c0,11.1,9,20.1,20.1,20.1h163.1V214.2z M82,228.9
			c3,0,5.4,2.4,5.4,5.4c0,3-2.4,5.4-5.4,5.4c-3,0-5.4-2.4-5.4-5.4C76.6,231.3,79,228.9,82,228.9z"/>
		<path class="st4" d="M102.1,219.8l145.5,34.7v-40.3H84.4c-11.1,0-20.1,9-20.1,20.1v0c0,11.1,9,20.1,20.1,20.1L102.1,219.8z
			 M82,239.8c-3,0-5.4-2.4-5.4-5.4c0-3,2.4-5.4,5.4-5.4c3,0,5.4,2.4,5.4,5.4C87.4,237.3,85,239.8,82,239.8z"/>
		<path class="st5" d="M65,228.8c2.4-8.5,10.1-14.6,19.4-14.6h163.1v5.5c0,0-153.3,0-164.3,0C72.3,219.7,67.5,223.6,65,228.8z"/>
		<path class="st6" d="M65,239.8c2.4,8.5,10.1,14.6,19.4,14.6h163.1V249c0,0-153.3,0-164.3,0C72.3,249,67.5,245.1,65,239.8z"/>
		<g>
			<rect x="182.9" y="214.2" class="st7" width="1.5" height="8.3"/>
			<rect x="148.6" y="214.2" class="st7" width="1.5" height="8.3"/>
			<rect x="164.2" y="214.2" class="st7" width="4.6" height="12.6"/>
			<rect x="198.6" y="214.2" class="st7" width="4.6" height="12.6"/>
			<rect x="129.9" y="214.2" class="st7" width="4.6" height="12.6"/>
			<rect x="232.9" y="214.2" class="st7" width="4.6" height="12.6"/>
			<rect x="217.3" y="214.2" class="st7" width="1.5" height="8.3"/>
		</g>
		<path class="st3" d="M99.3,74.1h-5.5H88l-24.1-3.2l-6.6,7v114c0,0,0,40.2,0,40.2c0,19.1,10.1,24.1,17.6,26.2
			c6.3,1.8,5,2.2,10.7-1.5c4.9-3.2,18.1-13.8,18.5-20.5c0,0-4.8-44.6-4.8-44.6v-4.6v-14.1v-1.5v-14.1v-4.6v-14.1v-1.5v-14.1v-4.6
			v-14.1v-1.5V88.7v-4.6L99.3,74.1L99.3,74.1z M79.2,245.1c-3,0-5.4-2.4-5.4-5.4c0-3,2.4-5.4,5.4-5.4c3,0,5.4,2.4,5.4,5.4
			C84.6,242.7,82.2,245.1,79.2,245.1z"/>
		<path class="st6" d="M95.2,214.1l-12,5.6c0,0-9,31.8-6.2,33.1s5.3,1.6,13.6,1.6c7.2,0,20.9-5.5,20.9-18.3c0-4.4,0-22,0-22H95.2z"
			/>
		<g>
			<path class="st4" d="M63.9,70.9V234c0,11.1,9,20.1,20.1,20.1h0c11.1,0,20.1-9,20.1-20.1V70.9H63.9z M84.1,241.9
				c-3,0-5.4-2.4-5.4-5.4s2.4-5.4,5.4-5.4s5.4,2.4,5.4,5.4S87.1,241.9,84.1,241.9z"/>
			<path class="st4" d="M63.9,234c0,11.1,9,20.1,20.1,20.1h0c11.1,0,20.1-9,20.1-20.1V70.9H92.9l-29,117.8V234z"/>
			<path class="st5" d="M89.6,253.4c8.5-2.4,14.6-10.1,14.6-19.4V70.9h-5.5c0,0,0,153.3,0,164.3C98.7,246.2,94.8,250.9,89.6,253.4z"
				/>
			<path class="st4" d="M78.6,253.4c-8.5-2.4-14.6-10.1-14.6-19.4V70.9h5.5c0,0,0,153.3,0,164.3C69.5,246.2,73.4,250.9,78.6,253.4z"
				/>
			<g>
				<rect x="95.9" y="134" class="st7" width="8.3" height="1.5"/>
				<rect x="95.9" y="168.3" class="st7" width="8.3" height="1.5"/>
				<rect x="91.6" y="149.6" class="st7" width="12.6" height="4.6"/>
				<rect x="91.6" y="115.3" class="st7" width="12.6" height="4.6"/>
				<rect x="91.6" y="184" class="st7" width="12.6" height="4.6"/>
				<rect x="91.6" y="80.9" class="st7" width="12.6" height="4.6"/>
				<rect x="95.9" y="99.6" class="st7" width="8.3" height="1.5"/>
			</g>
		</g>
		<g>
			<path class="st7" d="M84.1,239.2c-3.2,0-5.8-2.6-5.8-5.8s2.6-5.8,5.8-5.8c3.2,0,5.8,2.6,5.8,5.8S87.3,239.2,84.1,239.2z"/>
			<path class="st8" d="M84.1,228.1c2.9,0,5.3,2.4,5.3,5.3c0,2.9-2.4,5.3-5.3,5.3c-2.9,0-5.3-2.4-5.3-5.3
				C78.8,230.5,81.2,228.1,84.1,228.1 M84.1,227.1c-3.5,0-6.3,2.8-6.3,6.3s2.8,6.3,6.3,6.3s6.3-2.8,6.3-6.3S87.5,227.1,84.1,227.1
				L84.1,227.1z"/>
		</g>
		<g>
			<path class="st3" d="M233.4,118.7l-20.3-47.3l-33.5,38.7l-26.9-20.6l-5.6,3.1l8.3,51.3l-1.5,10.2c0.7,0,1.4,0,2.1,0
				c0.2,0,0.5,0,0.7,0c0.5,0,1,0,1.5,0c0.3,0,0.6,0,0.9,0c0.4,0,0.9,0,1.4,0c0.3,0,0.7,0,1.1,0c0.4,0,0.9,0,1.3,0c0.4,0,0.8,0,1.2,0
				c0.4,0,0.9,0,1.3,0.1c0.4,0,0.8,0,1.2,0.1c0.4,0,0.9,0,1.3,0.1c0.4,0,0.8,0,1.3,0.1c0.5,0,0.9,0.1,1.4,0.1c0.4,0,0.9,0.1,1.3,0.1
				l0,0c8.6,0.6,18.3,1.6,28.6,3.1c18.3,2.7,34.6,6.3,45.6,9.8l1.5-10.2l22.4-46.8l-4.8-4.4L233.4,118.7z"/>
			<polygon class="st9" points="258.3,135.4 270.2,110.6 265.3,106.2 233.4,118.7 229.6,129.3 			"/>
			<path class="st10" d="M152.9,161.4c11.6-0.2,28.2,1,46.5,3.6c18.3,2.7,34.6,6.3,45.6,9.8l1.5-10.2l23.6-54.1l-39.4,15.2
				l-19.1-44.6l-31,37.3l-33.4-25.8l7.2,58.6L152.9,161.4z"/>
			<polygon class="st9" points="211.6,81.1 213.1,71.4 179.7,110.1 180.8,121.8 			"/>
			<path class="st11" d="M201,154.3c-18.4-2.7-35.1-3.9-46.7-3.6l0.1,0.6l-1.5,10.2c11.6-0.2,28.2,1,46.5,3.6
				c18.3,2.7,34.6,6.3,45.6,9.8l1.5-10.2l0.2-0.5C235.8,160.6,219.4,157,201,154.3z"/>
			<path class="st12" d="M170.9,162l56.9-43.3l-16.1-37.5l-31,37.3l-33.4-25.8l7.2,58.6l-1.5,10.2C158,161.3,164.1,161.5,170.9,162z
				"/>
			<path class="st10" d="M170.9,162l12.8-9.8c-11.4-1.2-21.6-1.7-29.4-1.5l0.1,0.6l-1.5,10.2C158,161.3,164.1,161.5,170.9,162z"/>
			<path class="st13" d="M154.4,151.3l-1.5,10.2c2.9-0.1,6.2,0,9.6,0.1l0.6-0.8l1.4-10L158,101l-10.8-8.3L154.4,151.3z"/>
			<path class="st12" d="M154.3,150.7l0.1,0.6l-1.5,10.2c2.9-0.1,6.2,0,9.7,0.1l0.5-0.8l1.4-9.9
				C160.8,150.7,157.4,150.6,154.3,150.7z"/>
			<path class="st3" d="M245.2,174.9c-0.3,1.8-10.5,1.8-36-1.9c-25.5-3.7-56.6-9.7-56.3-11.5c0.3-1.8,21.1-0.2,46.6,3.5
				C225.1,168.7,245.5,173.1,245.2,174.9z"/>
		</g>
		<polygon class="st14" points="196.6,31.3 201.6,51 202.3,53.7 195.8,54.4 195.9,51.6 		"/>
		<polygon class="st14" points="155,53.7 168.1,63.9 170.4,65.7 165.5,70.2 163.9,67.7 		"/>
		<polygon class="st14" points="272.1,81.3 258.1,88.1 255.5,89.4 253.7,82.9 256.6,82.7 		"/>
		<polygon class="st14" points="246.7,39.5 238.6,58.3 237.5,60.9 232,57.6 233.8,55.4 		"/>
	</g>
</g>
<g id="Layer_5">
</g>
</svg>
