<?xml version="1.0" encoding="utf-8"?>
<!-- Generator: Adobe Illustrator 26.3.1, SVG Export Plug-In . SVG Version: 6.00 Build 0)  -->
<svg version="1.1" id="_x2014_ÎÓÈ_x5F_1" xmlns="http://www.w3.org/2000/svg" xmlns:xlink="http://www.w3.org/1999/xlink"
	 x="0px" y="0px" viewBox="0 0 1231.8 1240.6" style="enable-background:new 0 0 1231.8 1240.6;" xml:space="preserve">
<style type="text/css">
	.st0{fill:#C42B78;}
	.st1{clip-path:url(#SVGID_00000081647318844431838500000010556708183563008935_);fill:#B82166;}
	.st2{fill:#FFFFFF;}
	.st3{fill:#EAF1F1;}
	.st4{fill:#AEB0B3;}
	.st5{fill:#BEA373;}
	.st6{fill:#D0B27D;}
	.st7{fill:#494032;}
	.st8{fill:#896C4F;}
	.st9{fill:#271F12;}
	.st10{fill:#00ABA8;}
	.st11{fill:#F3F2F3;}
	.st12{fill:none;stroke:#DADCDC;stroke-miterlimit:10;}
	.st13{fill:#262524;}
	.st14{fill:#393735;}
	.st15{fill:#504C4A;}
	.st16{fill-rule:evenodd;clip-rule:evenodd;fill:#AF9769;}
	.st17{fill:#009E9B;}
	.st18{fill-rule:evenodd;clip-rule:evenodd;fill:#D0B27B;}
	.st19{fill-rule:evenodd;clip-rule:evenodd;fill:#009E9B;}
	.st20{fill-rule:evenodd;clip-rule:evenodd;fill:#00ABA8;}
	.st21{fill:#013F4D;}
	.st22{fill:#012F3D;}
	.st23{fill:#DCCAB2;}
	.st24{fill:#AF9769;}
</style>
<path class="st0" d="M854.1,33.9H377.7c-46.4,0-89.4,24.8-112.6,65L27,511.4c-23.2,40.2-23.2,89.8,0,130l238.2,412.5
	c23.2,40.2,66.1,65,112.6,65h476.3c46.4,0,89.4-24.8,112.6-65l238.2-412.5c23.2-40.2,23.2-89.8,0-130L966.6,98.9
	C943.4,58.7,900.5,33.9,854.1,33.9z"/>
<g>
	<defs>
		<path id="SVGID_1_" d="M854.1,33.9H377.7c-46.4,0-89.4,24.8-112.6,65L27,511.4c-23.2,40.2-23.2,89.8,0,130l238.2,412.5
			c23.2,40.2,66.1,65,112.6,65h476.3c46.4,0,89.4-24.8,112.6-65l238.2-412.5c23.2-40.2,23.2-89.8,0-130L966.6,98.9
			C943.4,58.7,900.5,33.9,854.1,33.9z"/>
	</defs>
	<clipPath id="SVGID_00000043453601796537166770000003564343338342473128_">
		<use xlink:href="#SVGID_1_"  style="overflow:visible;"/>
	</clipPath>
	<path style="clip-path:url(#SVGID_00000043453601796537166770000003564343338342473128_);fill:#B82166;" d="M961.4,1063.1
		l144-249.5L180.6,251.8L9.3,472.4c-19.9,34.5-19.9,189.5,0,224l257,410c19.9,34.5,72.1,38,112,38l486.4-25.5
		C904.6,1118.9,941.4,1097.6,961.4,1063.1z"/>
</g>
<path class="st2" d="M7.9,290.2c-0.2-2.5-0.3-5-0.3-7.6c0-45.6,33.3-83.3,76.5-88.8c3.6-0.5,7.3-0.7,11-0.7c0.5,0,0.9,0,1.4,0
	c9.5-78.7,75-139.6,154.4-139.6c77.2,0,141.2,57.5,153.5,132.9c18-15.8,41.4-25.3,66.9-25.3c56.9,0,103.1,47.2,103.1,105.5
	c0,9.1-1.1,17.9-3.2,26.3c23.4,0.5,48.1,1.9,61.6,5.7c54.4,15,37.3,73.5,6.9,73.5H96.9C81.8,372.1,7.9,290.2,7.9,290.2z"/>
<path class="st3" d="M567.2,252.6c-19.6-52.5-56.4-66.9-91.9-68.1c-59.6-2-84.2,44.4-84.2,44.4c10.1-27.3,7.1-42.4,7.1-42.4
	c18-15.8,41.4-25.3,66.9-25.3C517.4,161.2,560.5,201,567.2,252.6z"/>
<path class="st3" d="M666.5,330.1c0,0,0.4,27.3-12,27.3c-12.4,0-489.3,4.1-537.7,0c-21.4-1.8-10.6-2-10.6-40.7
	c0-7.8-3-23.5-7.8-27.2c-0.8-11.7-1.3-23-1.3-32.1c0-31.5,52.7-68.5,133-26.5c0,0-27.7-49.5-97.2-53.5
	c39-54.3,97.5-95.7,166.3-115.8c-15.3-5.1-31.6-7.9-48.5-7.9c-74.5,0-136.8,53.6-152,125.3c0,0-0.1,0-0.1,0
	C20,190.5,7.5,261.8,7.5,282.7c0,2.6,0.1,5.1,0.3,7.6c0,0-0.3,84,59,84h572.6C658.6,374.2,672.5,351,666.5,330.1z"/>
<path class="st2" d="M259.1,57.8c-73.5,0-133,55.8-133,124.7c0,5.7,0.4,11.3,1.2,16.8c-4.4-0.8-9-1.3-13.7-1.3
	c-42.8,0-77.4,35.5-77.4,79.2s34.7,79.2,77.4,79.2c38.8,0,70.9-29.2,76.6-67.3c20.1,11.4,43.7,18,68.9,18c73.5,0,133-55.8,133-124.7
	S332.6,57.8,259.1,57.8z"/>
<path class="st4" d="M641.3,824.1c0,0-15.6-77.4-6.4-83.9c9.2-6.6,124.6-23.3,174.4-3.6l7.8,87.5l-153.5,69.5L641.3,824.1z"/>
<path class="st5" d="M959.6,868.5c0,0-7.3-35.9-65.4-55.3c-58.1-19.4-102.3-39-102.3-80.3c0-41.3,0-108.7,0-108.7h-70.2h-70.2
	c0,0,0,67.4,0,108.7c0,41.3-44.3,61-102.3,80.3c-58.1,19.3-65.4,55.3-65.4,55.3l35.5,157.3h404.9L959.6,868.5z"/>
<path class="st6" d="M975,311.3c0,201.4-71.4,365.8-255.1,365.8c-183.6,0-251.5-166.4-251.5-367.8c0-201.4,170.9-242,254.6-242
	S975,109.9,975,311.3z"/>
<path class="st7" d="M629.2,556c27.8,16.9,57.6,19.3,87.7,18.9c30.3,0,59.4-3.8,88.3-18.9c-10.6,12.5-40.5,34.4-88.2,34.4
	C669.5,590.4,638.9,569.3,629.2,556z"/>
<path class="st8" d="M659.8,439.9c0,27.7-22.7,50.1-50.6,50.1c-28,0-50.6-22.4-50.6-50.1c0-27.7,22.6-50.1,50.6-50.1
	C637.1,389.8,659.8,412.2,659.8,439.9z"/>
<path class="st9" d="M646.7,439.9c0,19.3-15.7,35-35,35c-19.3,0-35-15.7-35-35c0-19.3,15.6-34.9,35-34.9
	C631.1,404.9,646.7,420.6,646.7,439.9z"/>
<path class="st2" d="M597,421.7c0,5.6-4.5,10.1-10.1,10.1c-5.6,0-10.1-4.6-10.1-10.1c0-5.6,4.5-10.1,10.1-10.1
	C592.5,411.7,597,416.2,597,421.7z"/>
<path class="st8" d="M783.6,439.9c0,27.7,22.7,50.1,50.6,50.1c28,0,50.6-22.4,50.6-50.1c0-27.7-22.6-50.1-50.6-50.1
	C806.3,389.8,783.6,412.2,783.6,439.9z"/>
<path class="st9" d="M796.7,439.9c0,19.3,15.7,35,35,35c19.3,0,35-15.7,35-35c0-19.3-15.6-34.9-35-34.9
	C812.3,404.9,796.7,420.6,796.7,439.9z"/>
<path class="st2" d="M798.7,421.7c0,5.6,4.5,10.1,10.1,10.1c5.6,0,10.1-4.6,10.1-10.1c0-5.6-4.5-10.1-10.1-10.1
	C803.2,411.7,798.7,416.2,798.7,421.7z"/>
<path class="st10" d="M1001.6,859.2c-27-35-29.1-30.6-48.2-39.3c-26.4-12.1-26.7-11.4-122.3-45.2l-109.7,82.1l-109.7-82.1
	c-95.6,33.8-95.9,33.1-122.3,45.2c-19.2,8.8-22.3,15.9-22.3,15.9l-63.6,181.5l101,42l-1-52l14,114l395,15l14.1-87.7l0.9,0.7l84-21
	C1011.6,1028.2,1028.6,894.2,1001.6,859.2z"/>
<path class="st11" d="M633.8,740.5c2.6,31.5,88.5,115.6,88.5,115.6s90.9-74.9,86.9-119.5l43,50c0,33.7-80.9,135.9-80.9,135.9
	l-48.6-64.6l-47.2,67.2c0,0-82.3-97.5-82.3-144.4L633.8,740.5z"/>
<path class="st12" d="M851.8,786.6c0,33.7-80.9,135.9-80.9,135.9l-48.6-64.6l-47.2,67.2c0,0-82.3-97.5-82.3-144.4"/>
<path class="st13" d="M982.7,233.2c-1.8-8.1-3.7-16-6.1-23.8c-2.2-7.3-4.8-23.9-4.8-23.9s-4.2-0.9-5-2.7c-2-4.4-3.8-18.3-3.8-18.3
	s-12.9-11.2-19.4-18.9c-4.5-5.4-18.3-22-18.3-22l-6.3,0.6l-16.7-11.9c0,0-7.8-13.2-13.4-17.7c-2-1.6-6.8,2-8.9,0.3
	c-3.2-2.5-10-7.5-10-7.5l-7.5-9.6l-22.4-6c0,0-5.1-4-7.8-4.5c-5.3-0.9-16.7,1.3-16.7,1.3l-6.3-5.5L789,65.9l-14.3-7.3l-5.8,4.5
	l-13.6-1.7c0,0-5.4-3.3-8.1-3.5c-4.1-0.4-11.6,1.6-11.6,1.6s-9.9-3.3-13.8-3.3c-6.8,0-25.7,4.6-25.7,4.6l-9.3-1.5l-15.3,4.9
	c0,0-7.9-1.4-11.7-0.7c-4.5,0.8-12.7,4.9-12.7,4.9l-14.2,0.2l-6.1,2.8l-12.6-1.7l-10,4.8c0,0-5.8-0.7-8.6,0.6
	c-1.1,0.5-3.3-1.1-3.3-1.1l-14,10.8l-11.8,8.6l-6.1,0.1c0,0-3.7,7.8-6.8,10.3c-3.9,3.1-13.1,6.1-16.8,8.7c-2.7,1.9-0.4,4-3.5,6.2
	c-1.4,1-8.1,2-9.5,3c-2.2,1.6,0.9,3.2-1.3,4.9c-8.4,6.3-16.5,13.1-21.8,19.3c-3.5,4.1-6.7,8.4-9.6,12.7
	c-5.9,8.7-10.8,17.9-14.9,27.5c-1.5,3.6-2.9,7.2-4.3,10.8c-4.2,11.7-7.5,23.9-10.3,36.5c-4,18.6-0.9,38.1-1.5,58
	c-4.1,120,29.9,188.3,29.9,188.3c24.8-18.3-6.6-168.2,68.5-217.8c23.9-15.8,149.7-17.3,164.1-17.3s139.6,1.6,163.2,17.3
	c75.1,49.6,43.7,199.5,68.5,217.8c0,0,34.1-68.4,29.9-188.3C983.6,271.3,986.8,251.8,982.7,233.2z"/>
<path class="st14" d="M954.3,397.1c0,0-4.6-7.7-6.1-23.5c-3.7-41-12.6-116.7-28.5-129.8c-22-18.2-65.2-7.8-76.2-8.3
	c-11-0.5-49.2-10.3-57.6-21.8c0,0-34.9,11.9-64.3,11.9s-46.1-11.5-46.1-11.5S646.9,229,637.9,229c-9.1,0-22.9-7.2-22.9-7.2
	s-1.4,8.1-11,12.4c-17,7.8-59.7-2.4-67.8,8.6c-8.1,11-33.9,40.6-35.4,93.6s-12.4-5.7-12.4-11c0-5.3,6.7-83.1,10-85.5
	s15.3-9.1,15.3-9.1s-15.5-29.9,10-53c7.2-6.5,42.5,0,42.5,0s-3.6-42,10.6-48.7c14.2-6.7,32.3,8,52.4-1.9
	c31.7-15.7,44.4,27.2,55.4,19.6c11-7.6,14.8-45.4,41.1-31.5c52.2,27.6,31.1-0.5,67.4,4.3s23.6,21.7,50.1,36.8
	c27.5,15.7,48.3,3.8,56.4,12.4c8.1,8.6,10,42.5,43.5,55.9c33.4,13.4,13.9,134.7,15.3,143.3S961.4,397.1,954.3,397.1z"/>
<path class="st15" d="M668.7,206.5c0,0-25.3,15.9-35.1,15.5s-23.1-18.4-24.4-38.4c0,0,13,26.6,20.4,28.2c7.4,1.6,6.5-15.9,13.1-12.7
	s11.6,5.7,15.1,3.7c8.7-5.1-4-68.6-23.7-100.9C634,101.9,683.4,180.8,668.7,206.5z"/>
<path class="st15" d="M788.3,162c0,0-1.1,42-16,43.8c-14.9,1.8,0-123.4,0-123.4s-12.3,81.3-13.1,91.4c-0.7,10.2-6.5,15.6-10.2,16
	c-3.6,0.4,0.7,16-3.6,18.1c-4.4,2.2-16.7,5.1-20-12.7c0,0-0.7,17.8,12.3,20.3c13.1,2.5,43.2-4,48.3-9.8S791.6,173.4,788.3,162z"/>
<path class="st15" d="M552,224c6.2-0.4,12.3-0.4,18.4-0.4c6.1,0,12.2,0.1,18.1-0.1c2.9-0.1,6-0.3,8.5-0.9c2.3-0.3,3.8-2,4.7-4.4
	c0.7-2.4,0.8-5.4,0.4-8.3c-0.3-3-1-5.9-1.9-8.9c2,2.4,3.3,5.3,4.4,8.3c1,3,1.7,6.3,1.1,9.9c-0.4,1.8-1,3.6-2.4,5.1
	c-0.7,0.7-1.4,1.4-2.3,1.9c-0.9,0.5-1.9,1-2.7,1.2c-3.4,1-6.5,1.2-9.7,1.4c-6.3,0.2-12.5-0.2-18.6-1.1C564.1,227,558,225.8,552,224z
	"/>
<path class="st15" d="M805.3,133.8c-1,14.1-1.9,28.1-2.1,42.1c0,7,0.1,14,0.8,20.8c0.4,3.4,0.9,6.8,1.7,10c0.8,3.2,2,6.3,3.7,8.6
	c0.8,1,2.1,2,3.4,3c1.3,0.9,2.7,1.7,4.1,2.3c2.8,1.2,5.8,1.5,8.9,1c1.5-0.2,3.1-0.7,4.8-1.2c1.7-0.5,3.4-1.1,5.7-1.3
	c0.5-0.1,1.2,0,1.8,0.1c0.6,0.1,1.3,0.3,1.9,0.6c0.7,0.3,1.1,0.6,1.5,0.9c0.4,0.3,0.9,0.7,1.3,1.1c0.8,0.9,1.4,2.2,1.7,3
	c0.3,0.8,0.1,0.5,0.6,0.8c1,0.5,2.8,0.7,4.4,0.9c1.7,0.1,3.4,0.2,5.1,0.3c3.3,0.1,6.7-0.4,10-1.3c6.6-1.8,12.9-5.1,18.5-9.4
	c-4.9,5.1-10.9,9.2-17.7,11.8c-3.4,1.3-7,2.1-10.8,2.3c-1.8,0.1-3.6,0.1-5.4,0.1c-1.9-0.1-3.6-0.1-5.9-0.9c-0.6-0.2-1.2-0.6-1.8-1.2
	c-0.3-0.3-0.5-0.6-0.7-0.9l-0.4-0.8c-0.4-0.9-0.6-1.2-1-1.6c-0.3-0.2-0.4-0.4-0.7-0.6c-0.3-0.2-0.6-0.4-0.8-0.4
	c-0.2-0.1-0.4-0.2-0.6-0.2c-0.2,0-0.5-0.1-0.8,0c-2.6,0.3-6.1,2.1-9.9,2.8c-3.8,0.9-8.1,0.4-11.8-1.1c-1.9-0.7-3.5-1.8-5.1-2.8
	c-1.5-1.2-3-2.2-4.5-4c-2.5-3.4-3.7-7.1-4.6-10.7c-0.8-3.6-1.4-7.2-1.6-10.8c-0.5-7.2-0.5-14.3,0-21.4
	C800,161.6,802.1,147.6,805.3,133.8z"/>
<path class="st16" d="M604.6,719.9c0,0,54.8-14.7,103.2-58.1c0,0,37.3-41.6,44-11.7c0,0,5.3,16.1-40.3,59.2L604.6,719.9z"/>
<path class="st17" d="M915.2,1020.7c0.4-0.4-11.5-88-11.5-88s2.1,85.6,0,100.6s0,41.3,0,41.3l9-4.4L915.2,1020.7z"/>
<path class="st18" d="M581.3,799.2c0,0,23.2-50.9,2.2-86.7c-4.8-8.2-21.5-22.8-18-29.6c0,0,8.5-17.9,34.3,8.3l20,22.7
	c0,0,48.7-13.1,91.8-51.7c0,0,33.2-37,39.2-10.4c0,0,4.7,14.3-35.8,52.7c0,0,13.4-10.6,21.8-2.8c0,0,5.7,10.9-0.3,17.9
	c0,0,7.2-1.3,12.9,9.6c0,0,3.5,9.8-1,17.3c0,0,22.9,3.1,5.2,28.8c0,0-23.4,27.5-64.4,48.1c0,0-76.8,81.4-93.1,115.8
	c0,0-67.3,173.4-135.9,171.9c0,0-98-5.7-56.6-99.6c0,0,28.8-53.3,86.2-104.6C489.8,906.8,576.8,809.4,581.3,799.2L581.3,799.2z"/>
<path class="st19" d="M652.6,864.2l-72.4-56.9c-18.1,23.9-87.4,101.5-87.4,101.5c-57.4,51.3-86.2,104.6-86.2,104.6
	c-41.4,93.9,56.6,99.6,56.6,99.6c68.5,1.5,135.9-171.9,135.9-171.9C607.8,922.8,630.4,889.8,652.6,864.2z"/>
<path class="st19" d="M646.6,859.2l-72.4-56.9c-18.1,23.9-87.4,101.5-87.4,101.5c-57.4,51.3-86.2,104.6-86.2,104.6
	c-41.4,93.9,56.6,99.6,56.6,99.6c68.5,1.5,135.9-171.9,135.9-171.9C601.8,917.8,624.4,884.8,646.6,859.2z"/>
<path class="st20" d="M652.7,863.8l-75.6-58.5c-18.1,23.9-87.4,101.5-87.4,101.5c-57.4,51.3-86.2,104.6-86.2,104.6
	c-41.4,93.9,56.6,99.6,56.6,99.6c68.5,1.5,135.9-171.9,135.9-171.9C604.8,920.8,630.5,889.3,652.7,863.8z"/>
<polygon class="st21" points="505.3,1146.7 415.4,1088 407.3,1101.7 500.2,1162.7 "/>
<path class="st22" d="M410.2,1096.7l81.3,53.7c0,0-0.8,2.8-1.6,5.6l-82.6-54.3L410.2,1096.7z"/>
<g>
	<path class="st23" d="M396.3,1081.4l19.1,6.5c0,0,0.7,1.9-2.1,3.6c0,0,1.4,4.2-3.1,5.1c0,0,0.3,5.2-3,5l-13.6-16.1
		C394.9,1084.7,396,1083.4,396.3,1081.4z"/>
	<path d="M396.3,1081.4c-0.2,1.9-1.4,3.3-2.6,4.1l-5.9-7.1L396.3,1081.4z"/>
</g>
<g>
	<path class="st5" d="M682.1,1106.6c-55.2,3.9-174.8,11-182.4,12c-7.7,1-15.4,3.3-20.5,14.1c-4.7,10-8.9,19.7-10.3,24.7
		c-1,4-2.3,24.5,4.2,34.9c2.2,3.5,11,3.3,15.1,2.5c7.6-1.4,8.8-4,10.6-5.4c0,0,3.7,11.9,10.7,11.9c7,0,9.4-1.7,9.4-1.7
		s3.6,12.7,9.6,14.7s9.5,1.2,9.5,1.2c0.2,0.7,0.6,1.3,1,2c2.2,4.4,7.6,10.8,13.6,10.8c2.8,0,9.2,0.5,16-1.9
		c9.7-2.7,19.9-6.6,21.7-8.1c0,0,12.2-8,8.2-14c-2.2-3.3-2.9-4.4-3.1-4.7c14-3.3,66.9-26.5,74.7-32.2
		C683.4,1157.7,732,1128.7,682.1,1106.6z M594.1,1199.8c0.3-0.1,0.7-0.1,1.1-0.2L594.1,1199.8
		C594.1,1199.9,594.1,1199.8,594.1,1199.8z M595.4,1199.6L595.4,1199.6C595.4,1199.6,595.4,1199.6,595.4,1199.6L595.4,1199.6z"/>
	<path class="st24" d="M519,1199.6c0,0,0.2-14.7-0.1-18.5s0-8.1,0-8.1s-1.6,12.5-1.4,16.4S519,1199.6,519,1199.6z"/>
	<path class="st24" d="M538,1215.6c0,0,0.2-14.7-0.1-18.5s0-8.1,0-8.1s-1.6,12.5-1.4,16.4S538,1215.6,538,1215.6z"/>
	<path class="st24" d="M499,1189.6c0,0,0.2-14.7-0.1-18.5c-0.3-3.8,0-8.1,0-8.1s-1.6,12.5-1.4,16.4S499,1189.6,499,1189.6z"/>
	<path class="st24" d="M562.6,1208.5c0,0-1.3,3.9-1.2,6.3s0.3,3.4,0.3,3.4s-1.1-6,3.9-8s28-8,29-9s1-2,1-2L562.6,1208.5z"/>
</g>
<path class="st20" d="M1015.6,958.2c-7.6-6.4-100.4,62.4-100.4,62.4l-2.5,49.5c-12-2.6-242.1,36.1-242.1,36.1
	c-11.5,1.6-22.9,1.9-32,4c8.5,15.1,23,44.1,30.9,57.7c96.6,6.4,224.2,13.4,224.2,13.4C1048.1,1203.1,1016.9,959.3,1015.6,958.2z"/>
<polygon class="st19" points="638.6,1110.2 909,1070.1 907.6,1061.2 "/>
<g>
	<path class="st21" d="M312.5,162.5c-0.2-4.3-0.5-8.6-1.1-12.8l-1.7,0.3c0.8,4.4,1.8,14.2,1.8,14.2c0.1,1.3,0.2,2.7,0.2,4
		c0.3,6.1,0.2,12.3-0.2,18.4c0.6-5.4,0.9-10.9,1-16.3l0,0L312.5,162.5z"/>
	<path class="st21" d="M346.9,249.4c3.9,0.8,9.6,0.6,16.3-4.1l3.1-2.1l-2.9-2.4c-0.1-0.1-6.2-5.8-9.7-25.4l-3.3-37.8
		c-0.3-3.7-0.7-7.4-1.2-11c-0.6-4.3-1.3-8.7-2.2-13c-0.9-4.3-1.9-8.6-3.1-12.8c-1.2-4.2-2.5-8.4-4.1-12.5c-1.5-4.1-3.3-8.1-5.3-12
		c-2-3.9-4.3-7.7-6.9-11.2c-5.1-7.1-11.8-13.2-19.6-17c7.7,4.1,14,10.4,18.8,17.6c2.4,3.6,4.5,7.4,6.3,11.3c1.8,3.9,3.4,7.9,4.8,12
		c1.4,4.1,2.5,8.3,3.6,12.5c1,4.2,1.8,8.4,2.5,12.7c0.7,4.3,1.3,8.5,1.7,12.8c0.2,1.8,0.3,3.7,0.5,5.6c0,0.4,0,0.7,0.1,1.1l0,0l0,0
		c0,0.2,0,0.4,0,0.6l0,0l0.9,36.6c2.1,15.4,5.7,24.3,8.5,29.2c-1.2,0.3-2.4,0.4-3.7,0.4c-0.6,0-1.1,0-1.7-0.1
		c-0.6-0.1-1.1-0.2-1.7-0.3c-1.1-0.3-2.2-0.7-3.2-1.3c-2-1.2-3.5-3.1-4.7-5.2c-1.1-2.1-1.9-4.5-2.3-6.9c0.2,2.4,0.8,4.8,1.8,7.1
		c1,2.3,2.5,4.4,4.6,5.9c1,0.8,2.2,1.4,3.4,1.8c0.6,0.2,1.2,0.4,1.9,0.5c0.6,0.1,1.3,0.2,1.9,0.2c1.6,0.1,3.3,0,4.9-0.3
		c0.1,0.1,0.2,0.2,0.2,0.4c-7.1,3.6-12,0.6-12.2,0.4l-5.2-3.5l0.7,6.2c2.3,19.8,7,28.4,10.6,32.2c-23.4,14-39.3-5.4-39.9-6.2
		l-4.4-5.5l-0.7,7c-0.7,6.3,0.5,12,1.4,15.4c-13.5,1-22.1-8.8-24.2-11.6v-3.4c1.8-0.4,3.7-0.9,5.5-1.4c4.3-1.3,8.4-3,12.4-5.1
		c2.7-1.4,5.3-3.1,7.8-4.9c0.4,0.6,0.8,1.3,1.2,1.9l1.4,1.8c0.4,0.6,1,1.2,1.5,1.8c0.5,0.6,1,1.2,1.6,1.7l1.7,1.6l1.8,1.5
		c1.2,0.9,2.4,1.8,3.7,2.6c2.6,1.6,5.3,2.9,8.3,3.7c-2.9-1-5.5-2.5-7.9-4.2c-1.2-0.9-2.4-1.8-3.5-2.8l-1.6-1.5l-1.5-1.6
		c-0.5-0.5-0.9-1.2-1.4-1.7c-0.5-0.6-0.9-1.2-1.3-1.8l-1.2-1.9c-0.4-0.6-0.7-1.3-1.1-1.9c0,0-0.1-0.1-0.1-0.1c0.7-0.5,1.3-1,2-1.6
		c3.4-2.9,6.7-6,9.5-9.5l1.1-1.3l1-1.4c0.7-0.9,1.3-1.8,2-2.7c1.2-1.9,2.5-3.7,3.5-5.7l1.6-2.9l1.4-3l0.7-1.5c0.2-0.5,0.4-1,0.6-1.6
		l1.2-3.1c0.4-1,0.7-2.1,1.1-3.2l1-3.2c0.6-2.1,1.1-4.3,1.6-6.5c-2.5,8.5-5.9,16.7-10.4,24.3l-0.8,1.4c-0.3,0.5-0.6,0.9-0.9,1.4
		l-1.8,2.7c-0.6,0.9-1.3,1.8-2,2.6l-1,1.3l-1.1,1.2c-2.8,3.4-5.9,6.5-9.3,9.2c-0.6,0.5-1.1,0.9-1.7,1.4c-0.4-0.8-0.7-1.6-1-2.3
		l-0.2-0.5l-0.2-0.5l-0.2-0.7c4.1-3.5,7.9-7.5,11.2-12.1c7.9-10.7,13.4-24.3,16.5-40.1l2.8-33c-0.3-27.8-6.7-49-19-63.1
		c-6.4-7.3-14.4-12.9-24-16.5c-9.4-3.6-20.5-5.4-33-5.4c-25.5,0-45.3,7.3-58.8,21.6c-13.8,14.7-20.8,36.6-20.8,65.1
		c0,29.1,7,53.7,20.2,71.2c9.1,12,20.9,20.3,34.9,24.7v14.9c0,9-6.5,14.5-24,20.3c-17.5,5.8-18.7,8.4-19.2,9.3l-9.7,25.5
		c1.6,1.2,3.2,2.4,4.8,3.5l10-26.1c0.8-0.6,4.3-2.8,15.9-6.7c2-0.7,4-1.4,5.9-2.1l6.5,9.6l6.5-0.2l-2.1,4.5l28.6,18.9l0.7,18.2h0.7
		l0.7-18.1l0,0l1.2-0.8l0,18.9h0l1-19.6l1-0.7l0.2,12.9l0.8-13.6l24.4-16.2l-2.1-4.5l6.5,0.2l5.8-8.6c0.5,0.2,1,0.4,1.6,0.6
		l-1.7,2.6c-0.2-0.1-0.4-0.1-0.6-0.2l0.6,0.2l-3.6,5.6l3.9-5.5l3.5,1.5c0.7,0.3,1.5,0.6,2.2,0.9c0.7,0.3,1.5,0.6,2.2,1
		c1.5,0.7,2.9,1.3,4.3,2.1c0.7,0.4,1.4,0.8,2,1.2c0.3,0.2,0.6,0.4,0.9,0.6c0.2,0.1,0.3,0.2,0.4,0.3l0.2,0.2l0,0.1
		c1,2.8,2.1,5.6,3.1,8.4c1.1,2.8,2.2,5.6,3.3,8.4c0.6,1.4,1.1,2.8,1.7,4.2c0.6,1.4,1.2,2.8,1.8,4.2c1.2,2.8,2.4,5.5,3.7,8.2
		c-0.9-2.9-1.8-5.8-2.7-8.6c-0.5-1.4-1-2.8-1.5-4.3c-0.5-1.4-1-2.8-1.5-4.3c-1-2.8-2.1-5.6-3.1-8.5c-1.1-2.8-2.2-5.6-3.3-8.4l0-0.1
		l0,0c-0.2-0.3-0.2-0.3-0.3-0.4c-0.1-0.1-0.2-0.2-0.3-0.2c-0.2-0.1-0.4-0.3-0.5-0.4c-0.4-0.2-0.7-0.5-1.1-0.7
		c-0.7-0.4-1.5-0.8-2.2-1.1c-1.5-0.7-3-1.3-4.5-1.8c-2.7-1-5.5-1.8-8.2-2.5l1.8-2.6c0.4,0.1,0.7,0.3,1.1,0.4
		c11.6,3.9,15.1,6,15.9,6.7l16.1,42.2h6.1l-17.1-44.8l-0.1-0.2c-0.4-0.9-1.7-3.4-19.1-9.3c-15.7-5.2-22.5-10.2-23.7-17.7
		c4.6,4.1,12.1,8.8,22,8.8c2,0,4.1-0.2,6.3-0.6l3.4-0.7l-1.3-3.2c0-0.1-1.7-4.1-2.2-9.7c2.3,1.9,5.4,4,9.2,5.7
		c8.3,3.6,21.4,5.6,36.9-5.5l6.8-4.5l-7.8-0.6C356.2,274.5,350.1,270.9,346.9,249.4z M308.2,260.5c-6,4.4-12.7,7.8-19.7,10.1
		c-1.7,0.6-3.4,1.1-5.1,1.5v-3.9c8.5-2.4,16.1-6.3,22.9-11.5l0,0.1l0.2,0.5l0.3,0.5C307.3,258.7,307.7,259.6,308.2,260.5z
		 M263.6,260.1h3.2v-1h-3.2v-13.4c4.1-0.5,8-1.7,11.6-3.5c4.7-2.3,8.8-5.6,12.1-9.5c-7.8,4.1-15.7,7.4-23.8,8.2v-37.8
		c6.2-0.1,12.4-0.3,18.5-0.7c2,4.5,6.4,7.7,11.6,7.7c6.2,0,11.4-4.5,12.5-10.4c4.4-0.7,8.8-1.5,13-2.5c-0.6,4.1-1.4,8.2-2.4,12.2
		c1.1-4,2.1-8.1,2.8-12.3c2.5-0.5,4.8-1.1,7.2-1.7c-0.1,1-0.3,2-0.5,2.9c-0.6,4-1.5,7.9-2.5,11.8c-1,3.9-2.2,7.7-3.6,11.5
		c-1.4,3.8-3,7.5-4.9,11.1c4.3-6.9,7.5-14.4,9.8-22.2c1.5-5.1,2.6-10.3,3.4-15.5l1.5-28.1c-0.1-1.6-0.2-3.2-0.3-4.7
		c-0.6-8.1-2-16.2-4.5-23.9c0.4,2,0.9,4,1.2,5.9c0.4,2,0.7,4,0.9,6c0.5,4,0.8,8,1,12c0.1,1.9,0.1,3.8,0.2,5.8l0,0l0,0.1
		c0,0.1,0,0.2,0,0.4l0,0l-1.3,24.3c0,0,0,0.1,0,0.1c-2.3,0.6-4.7,1.2-7.1,1.8c0-0.1,0-0.2,0.1-0.3c0.2-1.2,0.4-2.4,0.5-3.6l1.3-24.2
		c-0.1-6.2-0.6-12.3-1.6-18.5l-1.7,0.3c1.1,5.7,1.7,11.4,2,17.2l0.1,0V181c-0.2,4.4-0.5,8.8-1.1,13.2c0,0.2,0,0.3-0.1,0.5
		c-4.2,1-8.6,1.8-13.1,2.5c-0.1-6.9-5.7-12.6-12.7-12.6c-7,0-12.7,5.7-12.7,12.7c0,0.9,0.1,1.9,0.3,2.8c-5.8,0.4-11.8,0.6-17.8,0.7
		v-14.6h3.2v-1h-3.2v-14.3h4.9v-2h-4.9v-14.2h4.4v-1.1h-4.4v-3c3.2,0,6.5-0.1,9.7-0.3c4-0.2,8-0.4,12.1-0.9c4-0.4,8-0.9,12-1.5
		c4-0.7,7.9-1.4,11.8-2.4c-4,0.7-7.9,1.3-11.9,1.8c-4,0.5-8,0.9-12,1.2c-7.2,0.5-14.4,0.9-21.7,0.9v-10h4.9v-2h-4.9v-14.3h3.2v-1
		h-3.2v-14.3h4.9v-2h-4.9V91c45.5,0.4,68.2,26,69.1,78.1l0,0c0,0,0.2,11.8,0,18s-1.9,11-1.9,11l0,0c-2.7,16.7-8.1,30.9-16.2,41.8
		c-12.1,16.4-29.2,25-51,25.5V260.1z M289.6,191.8c1.2-0.9,2.6-1.4,4.1-1.4c3.8,0,7,3.1,7,7c0,0.3,0,0.5,0,0.8
		c-4.4,0.6-8.9,1.1-13.5,1.5c-0.3-0.7-0.4-1.5-0.4-2.3c0-0.3,0-0.7,0.1-1c0.5,0.6,1.3,1.1,2.2,1.1c1.6,0,2.8-1.3,2.8-2.9
		C291.9,193.2,290.9,192,289.6,191.8z M300,200.6c-1.2,2.2-3.5,3.8-6.2,3.8c-2.1,0-4-1-5.3-2.5C292.4,201.5,296.2,201.1,300,200.6z
		 M188.6,171.9c0-27,6.5-47.6,19.3-61.2C220.1,97.8,238,91.2,261.3,91v14.7h-4.9v2h4.9v14.3h-3.2v1h3.2v14.3h-4.9v2h4.9v10
		c0,0,0,0-0.1,0c-8,0.1-16-0.2-24.1-0.8c-4-0.3-8-0.7-12-1.1c-4-0.4-8-1.1-11.9-1.7c3.9,1,7.9,1.7,11.8,2.3c4,0.6,8,1.1,12,1.5
		c8,0.8,16.1,1.1,24.1,1.1c0,0,0,0,0.1,0v3h-4.4v1.1h4.4v14.2h-4.9v2h4.9v14.3h-3.2v1h3.2v14.6c-0.1,0-0.3,0-0.4,0
		c-6.9,0-13.7-0.2-20.4-0.7c0.2-0.9,0.3-1.8,0.3-2.8c0-7-5.7-12.7-12.7-12.7c-7,0-12.6,5.6-12.7,12.6c-4.6-0.8-9.1-1.6-13.4-2.6
		c-0.2-1.8-0.5-3.6-0.6-5.5l-0.1-0.8l-1.6,0.1l0.1,0.8c0.2,1.7,0.3,3.3,0.6,5c-1.5-0.4-3-0.7-4.4-1.1c-0.3-2.3-0.6-4.6-0.7-6.9
		l-0.1-1.5l-0.1-1.5c-0.1-1-0.1-2-0.2-3c-0.1-2-0.2-4-0.2-6c-0.1-4,0-8.1,0.1-12.1c0.2-4,0.5-8,1-12c0.3-2,0.5-4,0.9-6
		c0.4-2,0.8-4,1.2-5.9c-2.5,7.7-3.9,15.8-4.5,23.9c-0.2,2-0.3,4.1-0.3,6.1c-0.1,2-0.1,4.1-0.1,6.1c0,2,0.1,4.1,0.2,6.1
		c0,1,0.1,2,0.2,3c0.1,1,0.1,2,0.2,3c0.2,2.1,0.4,4.2,0.7,6.2c-1.5-0.4-2.9-0.8-4.4-1.3C189,185.2,188.6,178.7,188.6,171.9z
		 M221.2,198.1c0-0.3,0-0.5,0-0.8c0-0.3,0-0.7,0.1-1c0.5,0.6,1.3,1.1,2.2,1.1c1.6,0,2.8-1.3,2.8-2.9c0-1.4-1-2.5-2.3-2.8
		c1.2-0.9,2.6-1.4,4.1-1.4c3.8,0,7,3.1,7,7c0,0.8-0.1,1.6-0.4,2.3C230.1,199.3,225.6,198.8,221.2,198.1z M233.4,201.9
		c-1.3,1.5-3.2,2.4-5.3,2.4c-2.7,0-5-1.5-6.2-3.7C225.7,201.1,229.5,201.5,233.4,201.9z M207.7,239.6c-9-11.9-15-27.4-17.6-45.6
		c1.4,0.4,2.9,0.8,4.4,1.2c0.8,5.1,1.9,10.2,3.4,15.2c2.2,7.8,5.5,15.4,9.8,22.2c-1.8-3.6-3.5-7.3-4.9-11.1
		c-1.4-3.8-2.6-7.6-3.6-11.5c-1-3.9-1.9-7.8-2.5-11.8c-0.1-0.9-0.3-1.7-0.4-2.6c1.5,0.4,2.9,0.7,4.4,1.1c0.3,2.1,0.7,4.1,1.1,6.2
		l0.2,0.8l1.6-0.3l-0.2-0.8c-0.4-1.8-0.7-3.6-1-5.5c4.3,0.9,8.7,1.8,13.3,2.5c1.1,5.9,6.3,10.4,12.5,10.4c5.2,0,9.7-3.2,11.6-7.7
		c6.9,0.5,14,0.7,21.1,0.7c0.1,0,0.3,0,0.4,0V241c-0.5,0-0.9,0-1.4,0c-9.4,0.1-18.7-3.1-27.3-8.4c3,4.2,7.3,7.4,12,9.7
		c4.7,2.3,10.1,3.5,15.4,3.5c0.5,0,0.9,0,1.4-0.1V259h-3.2v1h3.2v5.4C238.9,265.3,220.4,256.4,207.7,239.6z M235.6,319.3l2.8-6.1
		l-9,0.3l-5.5-8.1c3.3-1.4,6.4-2.9,9.1-4.7l24.6,33.3L235.6,319.3z M262.4,336.5l-21-28.3c6.4,2.1,13,3.1,19.7,3.1
		c6.7,0,13.3-1.1,19.8-3.2L262.4,336.5z M288.5,300.8c3,2,6.8,3.8,11.7,5.7l-4.8,7.1l-9-0.3l2.8,6.1l-22.6,15L288.5,300.8z
		 M285.6,298.7c0.3,0.3,0.7,0.5,1,0.8l-3.3,5.1c-0.1,0-0.1,0-0.2,0.1c-7.1,2.7-14.4,4.1-21.9,4.1c-7.5,0-14.9-1.4-22-4.1
		c-0.1,0-0.3-0.1-0.4-0.1l-3.8-5.2c5.3-4.1,8.8-9.3,8.8-16.7v-13.4c5.7,1.3,11.7,1.9,18,1.9c5.6,0,10.9-0.5,16-1.5v3.8
		c-0.7,0.1-1.3,0.2-2,0.3c-4.4,0.7-8.8,1.1-13.2,1c2.2,0.3,4.4,0.3,6.7,0.3c2.2,0,4.5-0.2,6.7-0.4c0.6-0.1,1.3-0.2,1.9-0.2v8.2
		C277.7,289.1,280.3,294.3,285.6,298.7z"/>
</g>
<path class="st3" d="M352.5,434.4L352.5,434.4c-40.3-6.5-55.1-56.7-24.8-84.1l0,0c19.9-18,50.7-16.4,68.7,3.5l0,0
	C427.1,387.9,397.8,441.7,352.5,434.4z"/>
<circle class="st2" cx="366.4" cy="379" r="42.2"/>
<g>
	<path class="st3" d="M421.2,486.2L421.2,486.2c-27.3-4.4-37.3-38.4-16.8-56.9l0,0c13.5-12.2,34.3-11.1,46.5,2.4l0,0
		C471.7,454.7,451.9,491.2,421.2,486.2z"/>
	<circle class="st2" cx="431.6" cy="447.2" r="25"/>
</g>
</svg>
