<?xml version="1.0" encoding="utf-8"?>
<!-- Generator: Adobe Illustrator 27.1.0, SVG Export Plug-In . SVG Version: 6.00 Build 0)  -->
<svg version="1.1" id="_x2014_ÎÓÈ_x5F_1" xmlns="http://www.w3.org/2000/svg" xmlns:xlink="http://www.w3.org/1999/xlink"
	 x="0px" y="0px" viewBox="0 0 1386.8 1912.6" style="enable-background:new 0 0 1386.8 1912.6;" xml:space="preserve">
<style type="text/css">
	.st0{fill:#27A737;}
	.st1{fill:#259631;}
	.st2{clip-path:url(#SVGID_00000152949269100844883620000005094235128649553322_);fill:#004152;}
	.st3{clip-path:url(#SVGID_00000152949269100844883620000005094235128649553322_);fill:#015163;}
	.st4{clip-path:url(#SVGID_00000152949269100844883620000005094235128649553322_);fill:#F99D1C;}
	
		.st5{clip-path:url(#SVGID_00000152949269100844883620000005094235128649553322_);fill:url(#SVGID_00000058550178273702803180000014173291192967627192_);}
	.st6{clip-path:url(#SVGID_00000152949269100844883620000005094235128649553322_);fill:#98D0E8;}
	.st7{clip-path:url(#SVGID_00000152949269100844883620000005094235128649553322_);fill:#9ED5E8;}
	.st8{clip-path:url(#SVGID_00000152949269100844883620000005094235128649553322_);fill:#ABDCED;}
	.st9{clip-path:url(#SVGID_00000152949269100844883620000005094235128649553322_);fill:#FDDFD8;}
	.st10{clip-path:url(#SVGID_00000152949269100844883620000005094235128649553322_);fill:#82B034;}
	.st11{clip-path:url(#SVGID_00000152949269100844883620000005094235128649553322_);fill:#2A1D01;}
	.st12{clip-path:url(#SVGID_00000152949269100844883620000005094235128649553322_);fill:#FFFFFF;}
	.st13{clip-path:url(#SVGID_00000152949269100844883620000005094235128649553322_);fill:#F6A8B9;}
	.st14{clip-path:url(#SVGID_00000152949269100844883620000005094235128649553322_);fill:#E8C6AC;}
	.st15{clip-path:url(#SVGID_00000152949269100844883620000005094235128649553322_);fill:#FCB963;}
	.st16{clip-path:url(#SVGID_00000152949269100844883620000005094235128649553322_);fill:#FFD04F;}
	.st17{clip-path:url(#SVGID_00000152949269100844883620000005094235128649553322_);}
	.st18{fill:#FFDC83;}
	.st19{fill:#004752;}
	.st20{fill:#E1E1E1;}
	.st21{fill:#C8C8C8;}
	.st22{fill:#005C70;}
	.st23{fill:#00667D;}
	.st24{fill:#FFFFFF;}
	.st25{fill:url(#SVGID_00000009554198357095116520000013468962142530159015_);}
	.st26{fill:#F6E5D8;}
</style>
<g>
	<path class="st0" d="M915.3,106.2H439c-46.4,0-89.4,24.8-107.6,65L93.2,583.7c-28.2,40.2-28.2,89.8,0,130l238.2,412.5
		c18.2,40.2,61.1,65,107.6,65h476.3c46.4,0,89.4-24.8,112.6-65L1266,713.7c23.2-40.2,23.2-89.8,0-130l-238.2-412.5
		C1004.6,131,961.7,106.2,915.3,106.2z"/>
	<path class="st1" d="M1021.6,1135.4l144-249.5L245.9,324.1L84.8,594.5c-19.9,34.5-19.9,77.1,5,111.7l247.8,429.2
		c14.9,34.5,51.8,55.8,91.7,55.8h495.6C964.8,1191.2,1001.6,1169.9,1021.6,1135.4z"/>
	<g>
		<defs>
			<path id="SVGID_1_" d="M915.3,106.2H439c-46.4,0-89.4,24.8-107.6,65L93.2,583.7c-28.2,40.2-28.2,89.8,0,130l191.6,524.9
				c8.4,18.6,166,29,203,10c46.5-23.9-9-57,16-57l411.4-0.4c46.4,0,89.4-24.8,112.6-65L1266,713.7c23.2-40.2,23.2-89.8,0-130
				l-238.2-412.5C1004.6,131,961.7,106.2,915.3,106.2z"/>
		</defs>
		<clipPath id="SVGID_00000093171166734691376610000004073566615874248067_">
			<use xlink:href="#SVGID_1_"  style="overflow:visible;"/>
		</clipPath>
		<path style="clip-path:url(#SVGID_00000093171166734691376610000004073566615874248067_);fill:#004152;" d="M250.8,1085.5
			c0,0,44.1,155.1,86.3,155.1c72.7,0,134.5-169.4,134.5-169.4l-168-16L250.8,1085.5z"/>
		<path style="clip-path:url(#SVGID_00000093171166734691376610000004073566615874248067_);fill:#015163;" d="M346.2,1218.6
			c-32.9,0-66.9-94.1-80.4-135.7l-15,8.6c0,0,44.1,155.1,86.3,155.1c72.7,0,134.5-169.4,134.5-169.4l-2.4-0.2
			C448.2,1125,400.2,1218.6,346.2,1218.6z"/>
		<path style="clip-path:url(#SVGID_00000093171166734691376610000004073566615874248067_);fill:#F99D1C;" d="M460,923.6
			c0,0,7.5-32.6,59.6-49.9c52.1-17.4,107.9-39.4,107.9-76.4c0-16.5-2.4-40.2-2.4-58.6C500.7,709.1,455.7,576.5,455.7,417
			c0-180.8,151-217.2,226.1-217.2c0.4,0,0.8,0,1.2,0c0.4,0,0.8,0,1.2,0c75.2,0,162.7,45,162.7,225.7c0,156.9,13.5,246.9-107,279
			c0,18.8-26,76-26,93c0,37.1,81.1,58.7,133.2,76.1c29.6,9.9,43,79,50.6,89.9c24.2-143.2,75.3-529,38.6-642
			c-47.5-146.1-129.5-154.4-129.5-154.4L690,141.1c0,0-184.7-0.1-245.4,153.7c-51.5,130.4-7.8,531,6.7,649L460,923.6z"/>
		
			<linearGradient id="SVGID_00000128447957349439385200000008466508572323014792_" gradientUnits="userSpaceOnUse" x1="429.8243" y1="970.331" x2="1032.4226" y2="970.331">
			<stop  offset="0" style="stop-color:#FDDFD8"/>
			<stop  offset="1" style="stop-color:#EDCAC7"/>
		</linearGradient>
		
			<path style="clip-path:url(#SVGID_00000093171166734691376610000004073566615874248067_);fill:url(#SVGID_00000128447957349439385200000008466508572323014792_);" d="
			M895,916.2c0,0-6.6-32.1-58.4-49.3c-51.8-17.3-98.4-34.8-98.4-71.7c0-36.8,0-97,0-97H678h-60.1c0,0,0,60.2,0,97
			c0,36.9-46.5,54.4-98.4,71.7c-51.9,17.3-58.4,49.3-58.4,49.3l-31.3,75.4l71,72l18.1-15.6l33.2,194.2l125.9,0.4l125.9-0.4
			l42.9-216.6l95.7,216.6h89.9L895,916.2z"/>
		<path style="clip-path:url(#SVGID_00000093171166734691376610000004073566615874248067_);fill:#98D0E8;" d="M496.8,1075.6
			l-0.1,0.1l12.5,164.9h333.8l12.5-164.9l81.7,164.9h107.1l-140-355.9c0,0-2.8-6.3-20-14.2c-23.7-10.8-23.9-10.3-109.8-40.6
			c0,0-39.2,47.5-98.4,47.5c-59.2,0-98.4-47.5-98.4-47.5c-85.8,30.3-86.1,29.7-109.8,40.6c-17.2,7.9-20,14.2-20,14.2l-25.1,64.9
			L496.8,1075.6z"/>
		<path style="clip-path:url(#SVGID_00000093171166734691376610000004073566615874248067_);fill:#004152;" d="M1044.4,1240.6
			l-140-355.9c0,0-1.6-3.6-9.7-8.7c0,0-37.1,25.5-39,199.7l81.7,164.9H1044.4z"/>
		<path style="clip-path:url(#SVGID_00000093171166734691376610000004073566615874248067_);fill:#015163;" d="M894.6,875.9
			c0,0-5.5,3.8-12.4,18.5l142.2,346.1h20l-140-355.9C904.3,884.7,902.7,881.1,894.6,875.9z"/>
		<path style="clip-path:url(#SVGID_00000093171166734691376610000004073566615874248067_);fill:#9ED5E8;" d="M894.6,875.9
			c-2.7-1.7-6-3.5-10.3-5.5c-23.7-10.8-23.9-10.3-109.8-40.6c0,0-6.6,8-18.5,17.5l125.9,47C887.9,881.2,894.6,875.9,894.6,875.9z"/>
		<path style="clip-path:url(#SVGID_00000093171166734691376610000004073566615874248067_);fill:#9ED5E8;" d="M457.9,875.9
			c2.7-1.7,6-3.5,10.3-5.5c23.7-10.8,23.9-10.3,109.8-40.6c0,0,6.6,8,18.5,17.5l-125.9,47C464.6,881.2,457.9,875.9,457.9,875.9z"/>
		<path style="clip-path:url(#SVGID_00000093171166734691376610000004073566615874248067_);fill:#ABDCED;" d="M745.8,936.6
			c-33.4-21.1-95-35-134.2-5.9c-39.1,29.2-20,108.9,35.8,168.4c39,41.7-5.9,83.5-59.2,66.4c-46.7-14.9-70.1,20.7-33.6,76.5h211.8
			c-0.2-6.5-1.3-13.3-3.9-20.3c-14.2-38.4-69.1-138.6-69.1-138.6s104.1,26.3,122.7,0C834.6,1056.9,805.6,974.5,745.8,936.6z"/>
		<path style="clip-path:url(#SVGID_00000093171166734691376610000004073566615874248067_);fill:#FDDFD8;" d="M904.5,419.5
			c0,179.8-63.8,326.5-227.7,326.5c-163.9,0-224.5-148.5-224.5-328.3c0-179.8,152.5-198.4,227.3-198.4S904.5,239.7,904.5,419.5z"/>
		<path style="clip-path:url(#SVGID_00000093171166734691376610000004073566615874248067_);fill:#82B034;" d="M625.5,534.6
			c0,24.7-20.3,44.7-45.2,44.7c-25,0-45.2-20-45.2-44.7c0-24.7,20.2-44.7,45.2-44.7C605.2,489.9,625.5,509.9,625.5,534.6z"/>
		<path style="clip-path:url(#SVGID_00000093171166734691376610000004073566615874248067_);fill:#2A1D01;" d="M613.8,534.6
			c0,17.2-14,31.2-31.2,31.2c-17.2,0-31.2-14-31.2-31.2c0-17.2,14-31.2,31.2-31.2C599.8,503.4,613.8,517.4,613.8,534.6z"/>
		<path style="clip-path:url(#SVGID_00000093171166734691376610000004073566615874248067_);fill:#FFFFFF;" d="M569.5,518.4
			c0,5-4.1,9-9,9c-5,0-9-4.1-9-9c0-5,4.1-9,9-9C565.4,509.4,569.5,513.5,569.5,518.4z"/>
		<path style="clip-path:url(#SVGID_00000093171166734691376610000004073566615874248067_);fill:#F6A8B9;" d="M578.9,633.6
			c30.9,18.8,64,30.3,97.6,29.9c33.8,0,66.1-13.1,98.3-29.9c-11.8,13.9-26.6,25.5-43.3,33.8c-16.7,8.5-35.7,13.1-54.8,13.4
			c-19.1,0-38.2-4.2-55-12.5C604.8,660,589.6,648.5,578.9,633.6z"/>
		<path style="clip-path:url(#SVGID_00000093171166734691376610000004073566615874248067_);fill:#82B034;" d="M736.1,534.6
			c0,24.7,20.3,44.7,45.2,44.7c25,0,45.2-20,45.2-44.7c0-24.7-20.2-44.7-45.2-44.7C756.3,489.9,736.1,509.9,736.1,534.6z"/>
		<path style="clip-path:url(#SVGID_00000093171166734691376610000004073566615874248067_);fill:#2A1D01;" d="M747.7,534.6
			c0,17.2,14,31.2,31.2,31.2c17.2,0,31.2-14,31.2-31.2c0-17.2-14-31.2-31.2-31.2C761.7,503.4,747.7,517.4,747.7,534.6z"/>
		<path style="clip-path:url(#SVGID_00000093171166734691376610000004073566615874248067_);fill:#FFFFFF;" d="M749.5,518.4
			c0,5,4.1,9,9,9c5,0,9-4.1,9-9c0-5-4.1-9-9-9C753.5,509.4,749.5,513.5,749.5,518.4z"/>
		
			<circle style="clip-path:url(#SVGID_00000093171166734691376610000004073566615874248067_);fill:#E8C6AC;" cx="693.3" cy="574.3" r="7.6"/>
		
			<circle style="clip-path:url(#SVGID_00000093171166734691376610000004073566615874248067_);fill:#E8C6AC;" cx="647.8" cy="591.3" r="7.9"/>
		
			<circle style="clip-path:url(#SVGID_00000093171166734691376610000004073566615874248067_);fill:#E8C6AC;" cx="678.4" cy="513.2" r="7.9"/>
		
			<circle style="clip-path:url(#SVGID_00000093171166734691376610000004073566615874248067_);fill:#E8C6AC;" cx="706.3" cy="535.8" r="7.9"/>
		
			<circle style="clip-path:url(#SVGID_00000093171166734691376610000004073566615874248067_);fill:#E8C6AC;" cx="653.7" cy="534.7" r="5.1"/>
		
			<circle style="clip-path:url(#SVGID_00000093171166734691376610000004073566615874248067_);fill:#E8C6AC;" cx="725.7" cy="606.7" r="5.1"/>
		
			<circle style="clip-path:url(#SVGID_00000093171166734691376610000004073566615874248067_);fill:#E8C6AC;" cx="688.7" cy="614.2" r="7.9"/>
		
			<circle style="clip-path:url(#SVGID_00000093171166734691376610000004073566615874248067_);fill:#E8C6AC;" cx="612.6" cy="597" r="5.1"/>
		
			<circle style="clip-path:url(#SVGID_00000093171166734691376610000004073566615874248067_);fill:#E8C6AC;" cx="745" cy="593.7" r="5.1"/>
		
			<circle style="clip-path:url(#SVGID_00000093171166734691376610000004073566615874248067_);fill:#E8C6AC;" cx="656.8" cy="561.1" r="3.5"/>
		
			<circle style="clip-path:url(#SVGID_00000093171166734691376610000004073566615874248067_);fill:#E8C6AC;" cx="674.4" cy="543.5" r="3.5"/>
		<path style="clip-path:url(#SVGID_00000093171166734691376610000004073566615874248067_);fill:#F99D1C;" d="M635.4,826.7"/>
		<path style="clip-path:url(#SVGID_00000093171166734691376610000004073566615874248067_);fill:#FCB963;" d="M468.7,830.9
			c0,0-27.7-316-31.8-371.1c-4.4-59.8-32.9-156.9,58.2-255.2c43.1-46.5,221.1-113.6,345.9-23.9c119.5,85.9,47.2,556.6,6.2,654.7
			L867,454l-89-189l-89.3-15.8l-199.1,81.1L468.7,830.9z"/>
		<path style="clip-path:url(#SVGID_00000093171166734691376610000004073566615874248067_);fill:#FFD04F;" d="M824.9,296.5
			c-33.5-75.4-91.2-71.4-102.7-71.5c-27.7-0.1-43.9,21.4-44,21.8c-168.8-108.6-214.4,95-214.4,181v101.7
			c109-31.4,103.5-259.7,221.3-255.3c65.7-39,206.5,251.6,206.5,251.6S858.4,371.8,824.9,296.5z"/>
		<g style="clip-path:url(#SVGID_00000093171166734691376610000004073566615874248067_);">
			<path class="st18" d="M496.7,494.3c10.5-8.5,17.3-20.8,24.1-32.3c26.1-47.5,45-98.4,70.1-146.4c8.5-15.6,16.8-32,30-44.2
				c11.9-11.2,28.5-19.3,45.1-15c6.9,1.7,13.1,4.9,18.4,9.8c0,0-2.1,0.2-2.1,0.2c9.2-11.2,24.5-14.1,37.8-10.9
				c47,11.8,103.3,128.1,127,171c-10.6-18.5-20.8-37.2-31.6-55.6c-16.2-27.5-32.9-54.9-53.3-79.4c-6.8-8.1-14.1-15.9-22.3-22.5
				c-6.1-4.8-12.8-9.2-20.5-11c-2.3-0.5-5.4-0.9-7.7-1c-10.6-0.7-21.9,3.5-28.3,12.3c-11-10.9-28-14-42.3-8
				c-23.8,10-36.6,34-48.2,55.6c-25.2,47.9-44.7,98.6-71.6,145.7C514.5,473.8,507.5,486,496.7,494.3L496.7,494.3z"/>
		</g>
	</g>
	<g>
		<path class="st19" d="M178.2,749.1l5.4-1.4l158.9-42.1l42.4-11.2c24-6.4,48.7,8,55,32l86.9,342.6c7.1,27-8.9,54.7-35.9,61.9
			l-12.7,3.4v0L307,1179.6c-33.7,8.9-68.2-11.2-77.1-44.9l-54.6-206.5l-7.9-29.9l-21.1-94.1C139.9,780.1,154.2,755.5,178.2,749.1"/>
	</g>
	<polygon class="st20" points="256,1112 516.7,1042.9 426.4,687.5 165.7,756.5 	"/>
	<polygon class="st21" points="426.2,686.7 463.2,826.6 316.9,715.6 	"/>
	<g>
		<path class="st22" d="M205.8,868.7l-22.7-99.9c-0.8-3,1-6,4-6.8l152.3-40.4l75.4-20c3.6-0.7,5.4,1.1,6.2,3.1l78.5,311.1
			c0.8,3-1,6-4,6.8l-227.5,60.3c-3,0.8-6-1-6.8-4L205.8,868.7z M404.3,1115.6c-11.1,2.9-22.5-3.7-25.4-14.8
			c-2.9-11.1,3.7-22.5,14.8-25.4c11.1-2.9,22.5,3.7,25.4,14.8C422,1101.3,415.4,1112.7,404.3,1115.6 M189.7,729.7
			c-24,6.4-38.4,31-32,55.1l29.1,124v0l57.8,218.6c7.1,27,34.8,43.1,61.8,36l196-51.9c27-7.2,43.1-34.9,35.9-61.9l-51.2-207.9
			l-35.6-134.7c-6.4-24-31-38.4-55-32L354,686.2l-158.9,42.1L189.7,729.7"/>
	</g>
	<polygon class="st21" points="212.3,919.5 209.3,902.1 430.4,1069.8 396,1062 274.9,1106.9 244.2,1081.1 	"/>
	<g>
		<path class="st23" d="M378.9,1100.8c-2.9-11.1,3.7-22.5,14.8-25.4c11.1-2.9,22.5,3.7,25.4,14.8c2.9,11.1-3.7,22.5-14.8,25.4
			C393.2,1118.6,381.8,1111.9,378.9,1100.8 M401.2,1047.7l-133,35.2c-3,0.8-6-1-6.8-4L216,907.1l-37.2-28.2l7.9,29.9v0l57.8,218.6
			c7.1,27,34.8,43.1,61.8,36l183.3-48.6L401.2,1047.7z"/>
	</g>
	
		<rect x="234.7" y="854.6" transform="matrix(0.9702 -0.2422 0.2422 0.9702 -200.2688 92.2786)" class="st19" width="80.9" height="12.1"/>
	
		<rect x="241.7" y="867.1" transform="matrix(0.9702 -0.2422 0.2422 0.9702 -202.9814 107.9526)" class="st24" width="191.7" height="24.9"/>
	
		<rect x="257.1" y="932.7" transform="matrix(0.9702 -0.2422 0.2422 0.9702 -218.8839 96.9676)" class="st19" width="55.6" height="12.1"/>
	
		<rect x="265.3" y="954.7" transform="matrix(0.9702 -0.2422 0.2422 0.9702 -225.0501 103.6568)" class="st24" width="87.6" height="24.9"/>
	
		<rect x="352.1" y="908.7" transform="matrix(0.9702 -0.2422 0.2422 0.9702 -210.242 119.2631)" class="st19" width="55.6" height="12.1"/>
	
		<rect x="360.3" y="930.7" transform="matrix(0.9702 -0.2422 0.2422 0.9702 -216.4082 125.9523)" class="st24" width="87.6" height="24.9"/>
	
		<rect x="215.7" y="778.6" transform="matrix(0.9702 -0.2422 0.2422 0.9702 -182.4265 85.4136)" class="st19" width="80.9" height="12.1"/>
	
		<rect x="222.7" y="791.1" transform="matrix(0.9702 -0.2422 0.2422 0.9702 -185.1391 101.0876)" class="st24" width="191.7" height="24.9"/>
	
		<rect x="278.3" y="996.2" transform="matrix(0.9702 -0.2422 0.2422 0.9702 -235.746 112.528)" class="st0" width="123" height="37.8"/>
	<g>
		
			<linearGradient id="SVGID_00000117634608316548285510000009582517707365816222_" gradientUnits="userSpaceOnUse" x1="149.6791" y1="958.4429" x2="246.9253" y2="958.4429" gradientTransform="matrix(0.9989 4.751780e-02 -4.751780e-02 0.9989 28.4784 -6.7064)">
			<stop  offset="0" style="stop-color:#F6E5D8"/>
			<stop  offset="1" style="stop-color:#ECD9CE"/>
		</linearGradient>
		<path style="fill:url(#SVGID_00000117634608316548285510000009582517707365816222_);" d="M177.7,886.3c-26.2,3-50.7,21-43.8,92.1
			c0.6,6.3,2.9,19.4,6.1,34.9c13.9,28.2,53.7,23.2,73.8,11.9c20.1-11.3,13.4-31.2,10.9-63.8C222.2,928.9,220.4,881.3,177.7,886.3z"
			/>
		<path class="st26" d="M169,1010.5c-6.9-23.7-6.9-91.6-5.9-104.7c1-13.1,14.7-19.4,14.7-19.4c-26.2,3-50.7,21-43.8,92.1
			c0.6,6.3,2.9,19.4,6.1,34.9c10.4,21,35.2,23.6,55.4,18.8C189.6,1031.9,174.4,1029.3,169,1010.5z"/>
	</g>
</g>
<g>
	<g>
		<path class="st24" d="M402,1459.4v22.4c-0.2,6.7-1.6,12.6-4,17.8c-2,4.4-5.1,8.7-9.5,12c-4.4,3.6-10.4,5.5-18.4,5.5
			s-14.2-2-18.6-5.5c-4.4-3.3-7.3-7.5-9.3-12c-2.4-5.1-3.8-11.1-4-17.8v-96.1c0.2-6.4,1.6-12.4,4-17.5c2-4.4,4.9-8.9,9.3-12.2
			c4.4-3.3,10.7-5.5,18.6-5.5s14,2.2,18.4,5.5c4.4,3.3,7.5,7.8,9.5,12.2c2.4,5.1,3.8,11.1,4,17.5v22.4h-22.4v-22.4
			c0-4.4-1.1-7.5-3.6-10.2c-1.1-1.1-3.1-1.8-5.5-1.8c-4.2,0-6.2,3.1-7.3,6c-0.7,1.8-0.9,3.8-1.1,6v96.1c0.2,4.7,1.6,7.8,3.8,10.2
			c1.1,1.1,2.7,1.8,4.7,1.8c5.1,0,7.1-2.7,8.2-6c0.7-1.6,0.9-3.6,0.9-6v-22.4H402z"/>
		<path class="st24" d="M478.8,1481.8c-0.2,6.7-1.6,12.6-4,17.8c-2,4.4-5.1,8.7-9.5,12c-4.4,3.6-10.4,5.5-18.4,5.5s-14.2-2-18.6-5.5
			c-4.4-3.3-7.3-7.5-9.3-12c-2.4-5.1-3.8-11.1-4-17.8v-96.1c0.2-6.4,1.6-12.4,4-17.5c2-4.4,4.9-8.9,9.3-12.2
			c4.4-3.3,10.7-5.5,18.6-5.5s14,2.2,18.4,5.5c4.4,3.3,7.5,7.8,9.5,12.2c2.4,5.1,3.8,11.1,4,17.5V1481.8z M454.8,1385.7
			c0-4.4-0.9-7.5-3.1-10.2c-1.1-1.1-2.9-1.8-4.9-1.8c-4.2,0-6.2,3.1-7.1,6c-0.7,1.8-0.9,3.8-0.9,6v96.1c0,4.7,1.1,7.8,3.3,10.2
			c1.1,1.1,2.7,1.8,4.7,1.8c4.2,0,6.2-2.7,7.1-6c0.7-1.6,0.9-3.6,0.9-6V1385.7z"/>
		<path class="st24" d="M534.7,1515.3l-15.3-102.5l-0.9-6.9h-1.3v109.4H495v-163.1h29.3l14.2,74.6l1.1,8.7h0.4l1.1-8.7l14.2-74.6
			h29.3v163.1h-22.2v-109.4h-1.3l-0.9,6.9l-15.3,102.5H534.7z"/>
		<path class="st24" d="M642.1,1515.3l-15.3-102.5l-0.9-6.9h-1.3v109.4h-22.2v-163.1h29.3l14.2,74.6l1.1,8.7h0.4l1.1-8.7l14.2-74.6
			h29.3v163.1h-22.2v-109.4h-1.3l-0.9,6.9l-15.3,102.5H642.1z"/>
		<path class="st24" d="M773.5,1352.2v129.6c-0.2,6.7-1.6,12.6-4,17.8c-2,4.4-5.1,8.7-9.5,12c-4.4,3.6-10.4,5.5-18.4,5.5
			c-8,0-14.2-2-18.6-5.5c-4.4-3.3-7.3-7.5-9.3-12c-2.4-5.1-3.8-11.1-4-17.8v-129.6h24v129.6c0,4.7,1.1,7.8,3.3,10.2
			c1.1,1.1,2.7,1.8,4.7,1.8c4.2,0,6.2-2.7,7.1-6c0.7-1.6,0.9-3.6,0.9-6v-129.6H773.5z"/>
		<path class="st24" d="M816.3,1430.3l-2-7.5H813v92.5h-22v-163.1h21.3l23.3,85l2,7.5h1.3v-92.5h22v163.1h-21.3L816.3,1430.3z"/>
		<path class="st24" d="M878.7,1352.2h24v163.1h-24V1352.2z"/>
		<path class="st24" d="M912,1376.9v-24.6h69.2v24.6h-22.6v138.5h-24v-138.5H912z"/>
		<path class="st24" d="M1018.7,1404.4l0.7,1.6h0.4l0.7-1.6l12-52.1h23.5l-24.4,93.6v69.5h-24v-69.5l-24.4-93.6h23.5L1018.7,1404.4z
			"/>
	</g>
	<path class="st24" d="M121.1,1699.3c-0.2,6.7-1.6,12.6-4,17.8c-2,4.4-5.1,8.7-9.5,12c-4.4,3.6-10.4,5.5-18.4,5.5s-14.2-2-18.6-5.5
		c-4.4-3.3-7.3-7.5-9.3-12c-2.4-5.1-3.8-11.1-4-17.8v-96.1c0.2-6.4,1.6-12.4,4-17.5c2-4.4,4.9-8.9,9.3-12.2
		c4.4-3.3,10.7-5.5,18.6-5.5s14,2.2,18.4,5.5c4.4,3.3,7.5,7.8,9.5,12.2c2.4,5.1,3.8,11.1,4,17.5V1699.3z M97.1,1603.2
		c0-4.4-0.9-7.5-3.1-10.2c-1.1-1.1-2.9-1.8-4.9-1.8c-4.2,0-6.2,3.1-7.1,6c-0.7,1.8-0.9,3.8-0.9,6v96.1c0,4.7,1.1,7.8,3.3,10.2
		c1.1,1.1,2.7,1.8,4.7,1.8c4.2,0,6.2-2.7,7.1-6c0.7-1.6,0.9-3.6,0.9-6V1603.2z"/>
	<path class="st24" d="M162.6,1647.8l-2-7.5h-1.3v92.5h-22v-163.1h21.3l23.3,85l2,7.5h1.3v-92.5h22v163.1h-21.3L162.6,1647.8z"/>
	<path class="st24" d="M224.9,1569.7h24v140.9h31.7v22.2h-55.7V1569.7z"/>
	<path class="st24" d="M290.4,1569.7h24v163.1h-24V1569.7z"/>
	<path class="st24" d="M357.4,1647.8l-2-7.5h-1.3v92.5h-22v-163.1h21.3l23.3,85l2,7.5h1.3v-92.5h22v163.1h-21.3L357.4,1647.8z"/>
	<path class="st24" d="M419.8,1569.7h54.8v24.6h-30.8v42.8h22.2v26.2h-22.2v44.8h30.8v24.6h-54.8V1569.7z"/>
	<path class="st24" d="M579.1,1594.3H546v42.8h22.2v24.6H546v71h-24v-163.1h57V1594.3z"/>
	<path class="st24" d="M651.2,1699.3c-0.2,6.7-1.6,12.6-4,17.8c-2,4.4-5.1,8.7-9.5,12c-4.4,3.6-10.4,5.5-18.4,5.5
		c-8,0-14.2-2-18.6-5.5c-4.4-3.3-7.3-7.5-9.3-12c-2.4-5.1-3.8-11.1-4-17.8v-96.1c0.2-6.4,1.6-12.4,4-17.5c2-4.4,4.9-8.9,9.3-12.2
		c4.4-3.3,10.7-5.5,18.6-5.5c8,0,14,2.2,18.4,5.5c4.4,3.3,7.5,7.8,9.5,12.2c2.4,5.1,3.8,11.1,4,17.5V1699.3z M627.3,1603.2
		c0-4.4-0.9-7.5-3.1-10.2c-1.1-1.1-2.9-1.8-4.9-1.8c-4.2,0-6.2,3.1-7.1,6c-0.7,1.8-0.9,3.8-0.9,6v96.1c0,4.7,1.1,7.8,3.3,10.2
		c1.1,1.1,2.7,1.8,4.7,1.8c4.2,0,6.2-2.7,7.1-6c0.7-1.6,0.9-3.6,0.9-6V1603.2z"/>
	<path class="st24" d="M710.3,1732.8l-12.4-68.8h-6.4v68.8h-24v-163.1h24c28.6,0,40.8,16.2,40.8,47c0,16.2-4.2,30.8-13.3,37.1
		l15.3,79H710.3z M691.4,1641.8c3.3,0,7.8-0.4,11.3-3.6c3.6-3.1,6.4-9.1,6.4-20.6c0-11.5-2.9-17.8-6.4-20.9c-3.6-3.1-8-3.3-11.3-3.3
		V1641.8z"/>
	<path class="st24" d="M787.3,1732.8L772,1630.3l-0.9-6.9h-1.3v109.4h-22.2v-163.1h29.3l14.2,74.6l1.1,8.7h0.4l1.1-8.7l14.2-74.6
		h29.3v163.1H815v-109.4h-1.3l-0.9,6.9l-15.3,102.5H787.3z"/>
	<path class="st24" d="M918.6,1569.7v129.6c-0.2,6.7-1.6,12.6-4,17.8c-2,4.4-5.1,8.7-9.5,12c-4.4,3.6-10.4,5.5-18.4,5.5
		c-8,0-14.2-2-18.6-5.5c-4.4-3.3-7.3-7.5-9.3-12c-2.4-5.1-3.8-11.1-4-17.8v-129.6h24v129.6c0,4.7,1.1,7.8,3.3,10.2
		c1.1,1.1,2.7,1.8,4.7,1.8c4.2,0,6.2-2.7,7.1-6c0.7-1.6,0.9-3.6,0.9-6v-129.6H918.6z"/>
	<path class="st24" d="M936.2,1569.7h24v140.9h31.7v22.2h-55.7V1569.7z"/>
	<path class="st24" d="M1001.6,1569.7h24v163.1h-24V1569.7z"/>
	<path class="st24" d="M1043.4,1569.7h54.8v24.6h-30.8v42.8h22.2v26.2h-22.2v44.8h30.8v24.6h-54.8V1569.7z"/>
	<path class="st24" d="M1154.3,1732.8l-12.4-68.8h-6.4v68.8h-24v-163.1h24c28.6,0,40.8,16.2,40.8,47c0,16.2-4.2,30.8-13.3,37.1
		l15.3,79H1154.3z M1135.5,1641.8c3.3,0,7.8-0.4,11.3-3.6c3.6-3.1,6.4-9.1,6.4-20.6c0-11.5-2.9-17.8-6.4-20.9
		c-3.6-3.1-8-3.3-11.3-3.3V1641.8z"/>
	<path class="st24" d="M1191.6,1569.7h54.8v24.6h-30.8v42.8h22.2v26.2h-22.2v44.8h30.8v24.6h-54.8V1569.7z"/>
	<path class="st24" d="M1285,1647.8l-2-7.5h-1.3v92.5h-22v-163.1h21.3l23.3,85l2,7.5h1.3v-92.5h22v163.1h-21.3L1285,1647.8z"/>
</g>
</svg>
