<?xml version="1.0" encoding="utf-8"?>
<!-- Generator: Adobe Illustrator 27.1.0, SVG Export Plug-In . SVG Version: 6.00 Build 0)  -->
<svg version="1.1" xmlns="http://www.w3.org/2000/svg" xmlns:xlink="http://www.w3.org/1999/xlink" x="0px" y="0px"
	 viewBox="0 0 544.7 199.2" style="enable-background:new 0 0 544.7 199.2;" xml:space="preserve">
<style type="text/css">
	.st0{fill:#27A637;}
	.st1{fill:#259531;}
	.st2{clip-path:url(#SVGID_00000136405034211984898770000013767987712451937724_);fill:#014151;}
	.st3{clip-path:url(#SVGID_00000136405034211984898770000013767987712451937724_);fill:#035163;}
	.st4{clip-path:url(#SVGID_00000136405034211984898770000013767987712451937724_);fill:#F49B21;}
	
		.st5{clip-path:url(#SVGID_00000136405034211984898770000013767987712451937724_);fill:url(#SVGID_00000153695549738762435940000018202795628884495530_);}
	.st6{clip-path:url(#SVGID_00000136405034211984898770000013767987712451937724_);fill:#97CFE7;}
	.st7{clip-path:url(#SVGID_00000136405034211984898770000013767987712451937724_);fill:#9ED4E7;}
	.st8{clip-path:url(#SVGID_00000136405034211984898770000013767987712451937724_);fill:#ABDBEC;}
	.st9{clip-path:url(#SVGID_00000136405034211984898770000013767987712451937724_);fill:#FBDED8;}
	.st10{clip-path:url(#SVGID_00000136405034211984898770000013767987712451937724_);fill:#81AF34;}
	.st11{clip-path:url(#SVGID_00000136405034211984898770000013767987712451937724_);fill:#271F12;}
	.st12{clip-path:url(#SVGID_00000136405034211984898770000013767987712451937724_);fill:#FFFFFF;}
	.st13{clip-path:url(#SVGID_00000136405034211984898770000013767987712451937724_);fill:#F3A6B8;}
	.st14{clip-path:url(#SVGID_00000136405034211984898770000013767987712451937724_);fill:#E7C5AB;}
	.st15{clip-path:url(#SVGID_00000136405034211984898770000013767987712451937724_);fill:#F9B864;}
	.st16{clip-path:url(#SVGID_00000136405034211984898770000013767987712451937724_);fill:#FFCF50;}
	.st17{clip-path:url(#SVGID_00000136405034211984898770000013767987712451937724_);}
	.st18{fill:#FFDB81;}
	.st19{fill:#014752;}
	.st20{fill:#E0E0E0;}
	.st21{fill:#C8C8C8;}
	.st22{fill:#005D71;}
	.st23{fill:#01667D;}
	.st24{fill:#FFFFFF;}
	.st25{fill:#2BA638;}
	.st26{fill:url(#SVGID_00000031188353663948645940000009822390654165159354_);}
	.st27{fill:#F6E5D7;}
</style>
<g id="Layer_1">
</g>
<g id="Layer_2">
</g>
<g id="Layer_3">
</g>
<g id="tekst">
</g>
<g id="Layer_5">
	<g>
		<path class="st0" d="M141.8,26.9H83.3c-5.7,0-11,3-13.2,8L40.8,85.6c-3.5,4.9-3.5,11,0,16l29.3,50.7c2.2,4.9,7.5,8,13.2,8h58.6
			c5.7,0,11-3,13.8-8l29.3-50.7c2.9-4.9,2.9-11,0-16l-29.3-50.7C152.8,30,147.6,26.9,141.8,26.9z"/>
		<path class="st1" d="M154.9,153.4l17.7-30.7L59.6,53.7L39.8,86.9c-2.5,4.2-2.5,9.5,0.6,13.7l30.5,52.8c1.8,4.2,6.4,6.9,11.3,6.9
			H143C147.9,160.3,152.5,157.7,154.9,153.4z"/>
		<g>
			<defs>
				<path id="SVGID_1_" d="M141.8,26.9H83.3c-5.7,0-11,3-13.2,8L40.8,85.6c-3.5,4.9-3.5,11,0,16l23.6,64.5c1,2.3,20.4,3.6,25,1.2
					c5.7-2.9-1.1-7,2-7l50.6,0c5.7,0,11-3,13.8-8l29.3-50.7c2.9-4.9,2.9-11,0-16l-29.3-50.7C152.8,30,147.6,26.9,141.8,26.9z"/>
			</defs>
			<clipPath id="SVGID_00000181051781126566006500000006468011773913321127_">
				<use xlink:href="#SVGID_1_"  style="overflow:visible;"/>
			</clipPath>
			<path style="clip-path:url(#SVGID_00000181051781126566006500000006468011773913321127_);fill:#014151;" d="M60.2,147.3
				c0,0,5.4,19.1,10.6,19.1c8.9,0,16.5-20.8,16.5-20.8l-20.7-2L60.2,147.3z"/>
			<path style="clip-path:url(#SVGID_00000181051781126566006500000006468011773913321127_);fill:#035163;" d="M71.9,163.7
				c-4,0-8.2-11.6-9.9-16.7l-1.8,1.1c0,0,5.4,19.1,10.6,19.1c8.9,0,16.5-20.8,16.5-20.8l-0.3,0C84.4,152.2,78.5,163.7,71.9,163.7z"
				/>
			<path style="clip-path:url(#SVGID_00000181051781126566006500000006468011773913321127_);fill:#F49B21;" d="M85.9,127.4
				c0,0,0.9-4,7.3-6.1c6.4-2.1,13.3-4.8,13.3-9.4c0-2-0.3-4.9-0.3-7.2C90.9,101,85.3,84.7,85.3,65.1c0-22.2,18.6-26.7,27.8-26.7
				c0,0,0.1,0,0.1,0c0,0,0.1,0,0.2,0c9.2,0,20,5.5,20,27.7c0,19.3,1.7,30.4-13.2,34.3c0,2.3-3.2,9.3-3.2,11.4c0,4.6,10,7.2,16.4,9.4
				c3.6,1.2,5.3,9.7,6.2,11.1c3-17.6,9.3-65,4.7-78.9c-5.8-18-15.9-19-15.9-19l-14.3-3.2c0,0-22.7,0-30.2,18.9
				c-6.3,16-1,65.3,0.8,79.8L85.9,127.4z"/>
			
				<linearGradient id="SVGID_00000085214297333668144980000012481793241546702726_" gradientUnits="userSpaceOnUse" x1="82.1705" y1="133.1546" x2="156.2499" y2="133.1546">
				<stop  offset="0" style="stop-color:#FBDED8"/>
				<stop  offset="1" style="stop-color:#ECC9C6"/>
			</linearGradient>
			
				<path style="clip-path:url(#SVGID_00000181051781126566006500000006468011773913321127_);fill:url(#SVGID_00000085214297333668144980000012481793241546702726_);" d="
				M139.4,126.5c0,0-0.8-3.9-7.2-6.1c-6.4-2.1-12.1-4.3-12.1-8.8c0-4.5,0-11.9,0-11.9h-7.4h-7.4c0,0,0,7.4,0,11.9
				c0,4.5-5.7,6.7-12.1,8.8c-6.4,2.1-7.2,6.1-7.2,6.1l-3.8,9.3l8.7,8.9l2.2-1.9l4.1,23.9l15.5,0l15.5,0l5.3-26.6l11.8,26.6h11
				L139.4,126.5z"/>
			<path style="clip-path:url(#SVGID_00000181051781126566006500000006468011773913321127_);fill:#97CFE7;" d="M90.4,146.1
				L90.4,146.1l1.5,20.3h41l1.5-20.3l10,20.3h13.2l-17.2-43.7c0,0-0.3-0.8-2.5-1.7c-2.9-1.3-2.9-1.3-13.5-5c0,0-4.8,5.8-12.1,5.8
				c-7.3,0-12.1-5.8-12.1-5.8c-10.5,3.7-10.6,3.7-13.5,5c-2.1,1-2.5,1.7-2.5,1.7l-3.1,8L90.4,146.1z"/>
			<path style="clip-path:url(#SVGID_00000181051781126566006500000006468011773913321127_);fill:#014151;" d="M157.7,166.4
				l-17.2-43.7c0,0-0.2-0.4-1.2-1.1c0,0-4.6,3.1-4.8,24.6l10,20.3H157.7z"/>
			<path style="clip-path:url(#SVGID_00000181051781126566006500000006468011773913321127_);fill:#035163;" d="M139.3,121.6
				c0,0-0.7,0.5-1.5,2.3l17.5,42.5h2.5l-17.2-43.7C140.5,122.6,140.3,122.2,139.3,121.6z"/>
			<path style="clip-path:url(#SVGID_00000181051781126566006500000006468011773913321127_);fill:#9ED4E7;" d="M139.3,121.6
				c-0.3-0.2-0.7-0.4-1.3-0.7c-2.9-1.3-2.9-1.3-13.5-5c0,0-0.8,1-2.3,2.1l15.5,5.8C138.5,122.2,139.3,121.6,139.3,121.6z"/>
			<path style="clip-path:url(#SVGID_00000181051781126566006500000006468011773913321127_);fill:#9ED4E7;" d="M85.6,121.6
				c0.3-0.2,0.7-0.4,1.3-0.7c2.9-1.3,2.9-1.3,13.5-5c0,0,0.8,1,2.3,2.1l-15.5,5.8C86.4,122.2,85.6,121.6,85.6,121.6z"/>
			<path style="clip-path:url(#SVGID_00000181051781126566006500000006468011773913321127_);fill:#ABDBEC;" d="M121,129
				c-4.1-2.6-11.7-4.3-16.5-0.7c-4.8,3.6-2.5,13.4,4.4,20.7c4.8,5.1-0.7,10.3-7.3,8.2c-5.7-1.8-8.6,2.5-4.1,9.4h26
				c0-0.8-0.2-1.6-0.5-2.5c-1.7-4.7-8.5-17-8.5-17s12.8,3.2,15.1,0C131.9,143.8,128.4,133.7,121,129z"/>
			<path style="clip-path:url(#SVGID_00000181051781126566006500000006468011773913321127_);fill:#FBDED8;" d="M140.5,65.4
				c0,22.1-7.8,40.1-28,40.1c-20.2,0-27.6-18.3-27.6-40.4c0-22.1,18.8-24.4,27.9-24.4S140.5,43.3,140.5,65.4z"/>
			<path style="clip-path:url(#SVGID_00000181051781126566006500000006468011773913321127_);fill:#81AF34;" d="M106.2,79.6
				c0,3-2.5,5.5-5.6,5.5c-3.1,0-5.6-2.5-5.6-5.5c0-3,2.5-5.5,5.6-5.5C103.7,74.1,106.2,76.6,106.2,79.6z"/>
			<path style="clip-path:url(#SVGID_00000181051781126566006500000006468011773913321127_);fill:#271F12;" d="M104.8,79.6
				c0,2.1-1.7,3.8-3.8,3.8c-2.1,0-3.8-1.7-3.8-3.8c0-2.1,1.7-3.8,3.8-3.8C103.1,75.8,104.8,77.5,104.8,79.6z"/>
			<path style="clip-path:url(#SVGID_00000181051781126566006500000006468011773913321127_);fill:#FFFFFF;" d="M99.3,77.6
				c0,0.6-0.5,1.1-1.1,1.1c-0.6,0-1.1-0.5-1.1-1.1s0.5-1.1,1.1-1.1C98.8,76.5,99.3,77,99.3,77.6z"/>
			<path style="clip-path:url(#SVGID_00000181051781126566006500000006468011773913321127_);fill:#F3A6B8;" d="M100.5,91.8
				c3.8,2.3,7.9,3.7,12,3.7c4.2,0,8.1-1.6,12.1-3.7c-1.5,1.7-3.3,3.1-5.3,4.2c-2.1,1-4.4,1.6-6.7,1.6c-2.3,0-4.7-0.5-6.8-1.5
				C103.7,95,101.8,93.6,100.5,91.8z"/>
			<path style="clip-path:url(#SVGID_00000181051781126566006500000006468011773913321127_);fill:#81AF34;" d="M119.8,79.6
				c0,3,2.5,5.5,5.6,5.5c3.1,0,5.6-2.5,5.6-5.5c0-3-2.5-5.5-5.6-5.5C122.3,74.1,119.8,76.6,119.8,79.6z"/>
			<path style="clip-path:url(#SVGID_00000181051781126566006500000006468011773913321127_);fill:#271F12;" d="M121.2,79.6
				c0,2.1,1.7,3.8,3.8,3.8c2.1,0,3.8-1.7,3.8-3.8c0-2.1-1.7-3.8-3.8-3.8C123,75.8,121.2,77.5,121.2,79.6z"/>
			<path style="clip-path:url(#SVGID_00000181051781126566006500000006468011773913321127_);fill:#FFFFFF;" d="M121.5,77.6
				c0,0.6,0.5,1.1,1.1,1.1c0.6,0,1.1-0.5,1.1-1.1s-0.5-1.1-1.1-1.1C122,76.5,121.5,77,121.5,77.6z"/>
			
				<circle style="clip-path:url(#SVGID_00000181051781126566006500000006468011773913321127_);fill:#E7C5AB;" cx="114.6" cy="84.5" r="0.9"/>
			
				<circle style="clip-path:url(#SVGID_00000181051781126566006500000006468011773913321127_);fill:#E7C5AB;" cx="109" cy="86.6" r="1"/>
			
				<circle style="clip-path:url(#SVGID_00000181051781126566006500000006468011773913321127_);fill:#E7C5AB;" cx="112.7" cy="77" r="1"/>
			
				<circle style="clip-path:url(#SVGID_00000181051781126566006500000006468011773913321127_);fill:#E7C5AB;" cx="116.2" cy="79.7" r="1"/>
			
				<circle style="clip-path:url(#SVGID_00000181051781126566006500000006468011773913321127_);fill:#E7C5AB;" cx="109.7" cy="79.6" r="0.6"/>
			
				<circle style="clip-path:url(#SVGID_00000181051781126566006500000006468011773913321127_);fill:#E7C5AB;" cx="118.5" cy="88.4" r="0.6"/>
			
				<circle style="clip-path:url(#SVGID_00000181051781126566006500000006468011773913321127_);fill:#E7C5AB;" cx="114" cy="89.4" r="1"/>
			
				<circle style="clip-path:url(#SVGID_00000181051781126566006500000006468011773913321127_);fill:#E7C5AB;" cx="104.6" cy="87.3" r="0.6"/>
			
				<circle style="clip-path:url(#SVGID_00000181051781126566006500000006468011773913321127_);fill:#E7C5AB;" cx="120.9" cy="86.9" r="0.6"/>
			
				<circle style="clip-path:url(#SVGID_00000181051781126566006500000006468011773913321127_);fill:#E7C5AB;" cx="110.1" cy="82.9" r="0.4"/>
			
				<circle style="clip-path:url(#SVGID_00000181051781126566006500000006468011773913321127_);fill:#E7C5AB;" cx="112.2" cy="80.7" r="0.4"/>
			<path style="clip-path:url(#SVGID_00000181051781126566006500000006468011773913321127_);fill:#F49B21;" d="M107.4,115.5"/>
			<path style="clip-path:url(#SVGID_00000181051781126566006500000006468011773913321127_);fill:#F9B864;" d="M87,116
				c0,0-3.4-38.8-3.9-45.6C82.5,63,79,51.1,90.2,39c5.3-5.7,27.2-14,42.5-2.9c14.7,10.6,5.8,68.4,0.8,80.5l2.4-46.9L125,46.4
				l-11-1.9l-24.5,10L87,116z"/>
			<path style="clip-path:url(#SVGID_00000181051781126566006500000006468011773913321127_);fill:#FFCF50;" d="M130.7,50.3
				c-4.1-9.3-11.2-8.8-12.6-8.8c-3.4,0-5.4,2.6-5.4,2.7C92,30.9,86.4,55.9,86.4,66.5V79c13.4-3.9,12.7-31.9,27.2-31.4
				c8.1-4.8,25.4,30.9,25.4,30.9S134.9,59.6,130.7,50.3z"/>
			<g style="clip-path:url(#SVGID_00000181051781126566006500000006468011773913321127_);">
				<path class="st18" d="M90.4,74.6c2.2-2.5,3.3-5.7,4.6-8.7c2.7-6.2,4.7-12.7,8.6-18.3c2.4-3.4,7.3-5.1,10.7-1.9
					c0,0-2.1,0.2-2.1,0.2c1.1-1.4,3-2.1,4.7-2c7.5,0.6,13.7,16.2,16.6,22.4c-3-4.3-5.7-8.8-8.8-13c-2.1-2.6-4-5.5-7.1-6.6
					c-1.1-0.2-2.4,0-3.1,0.8c0,0-2.1,0.2-2.1,0.2c-5.5-3.8-9.3,6.3-11.4,10c-1.5,2.9-3,5.9-4.6,8.9C94.7,69.4,93.1,72.6,90.4,74.6
					L90.4,74.6z"/>
			</g>
		</g>
		<g>
			<path class="st19" d="M51.2,106l0.7-0.2l19.5-5.2l5.2-1.4c3-0.8,6,1,6.8,3.9l10.7,42.1c0.9,3.3-1.1,6.7-4.4,7.6l-1.6,0.4v0
				l-21.1,5.6c-4.1,1.1-8.4-1.4-9.5-5.5L50.9,128l-1-3.7l-2.6-11.6C46.5,109.8,48.3,106.7,51.2,106"/>
		</g>
		<polygon class="st20" points="60.8,150.6 92.8,142.1 81.7,98.4 49.7,106.9 		"/>
		<polygon class="st21" points="81.7,98.3 86.3,115.5 68.3,101.8 		"/>
		<g>
			<path class="st22" d="M54.6,120.7l-2.8-12.3c-0.1-0.4,0.1-0.7,0.5-0.8l18.7-5l9.3-2.5c0.4-0.1,0.7,0.1,0.8,0.4l9.7,38.2
				c0.1,0.4-0.1,0.7-0.5,0.8l-28,7.4c-0.4,0.1-0.7-0.1-0.8-0.5L54.6,120.7z M79,151c-1.4,0.4-2.8-0.5-3.1-1.8
				c-0.4-1.4,0.5-2.8,1.8-3.1c1.4-0.4,2.8,0.5,3.1,1.8C81.2,149.3,80.4,150.7,79,151 M52.6,103.6c-3,0.8-4.7,3.8-3.9,6.8l3.6,15.2v0
				l7.1,26.9c0.9,3.3,4.3,5.3,7.6,4.4l24.1-6.4c3.3-0.9,5.3-4.3,4.4-7.6l-6.3-25.6l-4.4-16.6c-0.8-3-3.8-4.7-6.8-3.9l-5.2,1.4
				l-19.5,5.2L52.6,103.6"/>
		</g>
		<polygon class="st21" points="55.4,126.9 55.1,124.8 82.2,145.4 78,144.4 63.1,149.9 59.4,146.8 		"/>
		<g>
			<path class="st23" d="M75.9,149.2c-0.4-1.4,0.5-2.8,1.8-3.1c1.4-0.4,2.8,0.5,3.1,1.8c0.4,1.4-0.5,2.8-1.8,3.1
				C77.7,151.4,76.3,150.6,75.9,149.2 M78.7,142.7L62.3,147c-0.4,0.1-0.7-0.1-0.8-0.5l-5.6-21.1l-4.6-3.5l1,3.7v0l7.1,26.9
				c0.9,3.3,4.3,5.3,7.6,4.4l22.5-6L78.7,142.7z"/>
		</g>
		
			<rect x="58.2" y="118.9" transform="matrix(0.9702 -0.2422 0.2422 0.9702 -27.1055 18.8613)" class="st19" width="9.9" height="1.5"/>
		
			<rect x="59" y="120.5" transform="matrix(0.9702 -0.2422 0.2422 0.9702 -27.4389 20.7882)" class="st24" width="23.6" height="3.1"/>
		
			<rect x="60.9" y="128.5" transform="matrix(0.9702 -0.2422 0.2422 0.9702 -29.3939 19.4378)" class="st19" width="6.8" height="1.5"/>
		
			<rect x="61.9" y="131.2" transform="matrix(0.9702 -0.2422 0.2422 0.9702 -30.1519 20.2601)" class="st24" width="10.8" height="3.1"/>
		
			<rect x="72.6" y="125.6" transform="matrix(0.9702 -0.2422 0.2422 0.9702 -28.3315 22.1786)" class="st19" width="6.8" height="1.5"/>
		
			<rect x="73.6" y="128.3" transform="matrix(0.9702 -0.2422 0.2422 0.9702 -29.0895 23.001)" class="st24" width="10.8" height="3.1"/>
		
			<rect x="55.9" y="109.6" transform="matrix(0.9702 -0.2422 0.2422 0.9702 -24.9121 18.0174)" class="st19" width="9.9" height="1.5"/>
		
			<rect x="56.7" y="111.1" transform="matrix(0.9702 -0.2422 0.2422 0.9702 -25.2455 19.9443)" class="st24" width="23.6" height="3.1"/>
		
			<rect x="63.5" y="136.3" transform="matrix(0.9702 -0.2422 0.2422 0.9702 -31.4668 21.3507)" class="st25" width="15.1" height="4.6"/>
		<g>
			
				<linearGradient id="SVGID_00000024682695583231849370000013421970347130485417_" gradientUnits="userSpaceOnUse" x1="117.6575" y1="7.7882" x2="129.6123" y2="7.7882" gradientTransform="matrix(0.9989 4.751780e-02 -4.751780e-02 0.9989 -71.5418 118.2398)">
				<stop  offset="0" style="stop-color:#F6E5D7"/>
				<stop  offset="1" style="stop-color:#EBD8CE"/>
			</linearGradient>
			<path style="fill:url(#SVGID_00000024682695583231849370000013421970347130485417_);" d="M51.2,122.8c-3.2,0.4-6.2,2.6-5.4,11.3
				c0.1,0.8,0.4,2.4,0.7,4.3c1.7,3.5,6.6,2.9,9.1,1.5c2.5-1.4,1.6-3.8,1.3-7.8C56.6,128.1,56.4,122.2,51.2,122.8z"/>
			<path class="st27" d="M50.1,138.1c-0.8-2.9-0.8-11.3-0.7-12.9c0.1-1.6,1.8-2.4,1.8-2.4c-3.2,0.4-6.2,2.6-5.4,11.3
				c0.1,0.8,0.4,2.4,0.7,4.3c1.3,2.6,4.3,2.9,6.8,2.3C52.6,140.7,50.8,140.4,50.1,138.1z"/>
		</g>
	</g>
	<g>
		<path class="st24" d="M231.4,74.4v5.1c-0.1,1.5-0.4,2.9-0.9,4c-0.5,1-1.2,2-2.2,2.7c-1,0.8-2.4,1.3-4.2,1.3
			c-1.8,0-3.2-0.5-4.2-1.3c-1-0.8-1.7-1.7-2.1-2.7c-0.6-1.2-0.9-2.5-0.9-4V57.7c0.1-1.5,0.4-2.8,0.9-4c0.5-1,1.1-2,2.1-2.8
			c1-0.8,2.4-1.3,4.2-1.3c1.8,0,3.2,0.5,4.2,1.3c1,0.8,1.7,1.8,2.2,2.8c0.6,1.2,0.9,2.5,0.9,4v5.1h-5.1v-5.1c0-1-0.3-1.7-0.8-2.3
			c-0.3-0.3-0.7-0.4-1.3-0.4c-1,0-1.4,0.7-1.7,1.4c-0.2,0.4-0.2,0.9-0.3,1.4v21.8c0.1,1.1,0.4,1.8,0.9,2.3c0.3,0.3,0.6,0.4,1.1,0.4
			c1.2,0,1.6-0.6,1.9-1.4c0.2-0.4,0.2-0.8,0.2-1.4v-5.1H231.4z"/>
		<path class="st24" d="M248.9,79.5c-0.1,1.5-0.4,2.9-0.9,4c-0.5,1-1.2,2-2.2,2.7c-1,0.8-2.4,1.3-4.2,1.3c-1.8,0-3.2-0.5-4.2-1.3
			c-1-0.8-1.7-1.7-2.1-2.7c-0.6-1.2-0.9-2.5-0.9-4V57.7c0.1-1.5,0.4-2.8,0.9-4c0.5-1,1.1-2,2.1-2.8c1-0.8,2.4-1.3,4.2-1.3
			c1.8,0,3.2,0.5,4.2,1.3c1,0.8,1.7,1.8,2.2,2.8c0.6,1.2,0.9,2.5,0.9,4V79.5z M243.4,57.7c0-1-0.2-1.7-0.7-2.3
			c-0.3-0.3-0.7-0.4-1.1-0.4c-1,0-1.4,0.7-1.6,1.4c-0.2,0.4-0.2,0.9-0.2,1.4v21.8c0,1.1,0.3,1.8,0.8,2.3c0.3,0.3,0.6,0.4,1.1,0.4
			c1,0,1.4-0.6,1.6-1.4c0.2-0.4,0.2-0.8,0.2-1.4V57.7z"/>
		<path class="st24" d="M261.6,87.1l-3.5-23.3l-0.2-1.6h-0.3v24.8h-5v-37h6.7l3.2,16.9l0.3,2h0.1l0.3-2l3.2-16.9h6.7v37h-5V62.3
			h-0.3l-0.2,1.6l-3.5,23.3H261.6z"/>
		<path class="st24" d="M286,87.1l-3.5-23.3l-0.2-1.6H282v24.8h-5v-37h6.7l3.2,16.9l0.3,2h0.1l0.3-2l3.2-16.9h6.7v37h-5V62.3H292
			l-0.2,1.6l-3.5,23.3H286z"/>
		<path class="st24" d="M315.8,50.1v29.4c-0.1,1.5-0.4,2.9-0.9,4c-0.5,1-1.2,2-2.2,2.7c-1,0.8-2.4,1.3-4.2,1.3
			c-1.8,0-3.2-0.5-4.2-1.3c-1-0.8-1.7-1.7-2.1-2.7c-0.6-1.2-0.9-2.5-0.9-4V50.1h5.4v29.4c0,1.1,0.3,1.8,0.8,2.3
			c0.3,0.3,0.6,0.4,1.1,0.4c1,0,1.4-0.6,1.6-1.4c0.2-0.4,0.2-0.8,0.2-1.4V50.1H315.8z"/>
		<path class="st24" d="M325.5,67.8l-0.5-1.7h-0.3v21h-5v-37h4.8l5.3,19.3l0.5,1.7h0.3v-21h5v37h-4.8L325.5,67.8z"/>
		<path class="st24" d="M339.7,50.1h5.4v37h-5.4V50.1z"/>
		<path class="st24" d="M347.2,55.7v-5.6H363v5.6h-5.1v31.4h-5.4V55.7H347.2z"/>
		<path class="st24" d="M371.5,61.9l0.2,0.4h0.1l0.2-0.4l2.7-11.8h5.3l-5.5,21.3v15.8H369V71.4l-5.5-21.3h5.3L371.5,61.9z"/>
		<path class="st24" d="M231.4,129.9c-0.1,1.5-0.4,2.9-0.9,4c-0.5,1-1.2,2-2.2,2.7c-1,0.8-2.4,1.3-4.2,1.3c-1.8,0-3.2-0.5-4.2-1.3
			c-1-0.8-1.7-1.7-2.1-2.7c-0.6-1.2-0.9-2.5-0.9-4v-21.8c0.1-1.5,0.4-2.8,0.9-4c0.5-1,1.1-2,2.1-2.8s2.4-1.3,4.2-1.3
			c1.8,0,3.2,0.5,4.2,1.3c1,0.8,1.7,1.8,2.2,2.8c0.6,1.2,0.9,2.5,0.9,4V129.9z M226,108.1c0-1-0.2-1.7-0.7-2.3
			c-0.3-0.3-0.7-0.4-1.1-0.4c-1,0-1.4,0.7-1.6,1.4c-0.2,0.4-0.2,0.9-0.2,1.4v21.8c0,1.1,0.3,1.8,0.8,2.3c0.3,0.3,0.6,0.4,1.1,0.4
			c1,0,1.4-0.6,1.6-1.4c0.2-0.4,0.2-0.8,0.2-1.4V108.1z"/>
		<path class="st24" d="M240.9,118.2l-0.5-1.7h-0.3v21h-5v-37h4.8l5.3,19.3l0.5,1.7h0.3v-21h5v37h-4.8L240.9,118.2z"/>
		<path class="st24" d="M255,100.5h5.4v32h7.2v5H255V100.5z"/>
		<path class="st24" d="M269.9,100.5h5.4v37h-5.4V100.5z"/>
		<path class="st24" d="M285.1,118.2l-0.5-1.7h-0.3v21h-5v-37h4.8l5.3,19.3l0.5,1.7h0.3v-21h5v37h-4.8L285.1,118.2z"/>
		<path class="st24" d="M299.3,100.5h12.4v5.6h-7v9.7h5v5.9h-5v10.2h7v5.6h-12.4V100.5z"/>
		<path class="st24" d="M335.4,106.1h-7.5v9.7h5v5.6h-5v16.1h-5.4v-37h13V106.1z"/>
		<path class="st24" d="M351.8,129.9c-0.1,1.5-0.4,2.9-0.9,4c-0.5,1-1.2,2-2.2,2.7c-1,0.8-2.4,1.3-4.2,1.3c-1.8,0-3.2-0.5-4.2-1.3
			c-1-0.8-1.7-1.7-2.1-2.7c-0.6-1.2-0.9-2.5-0.9-4v-21.8c0.1-1.5,0.4-2.8,0.9-4c0.5-1,1.1-2,2.1-2.8c1-0.8,2.4-1.3,4.2-1.3
			c1.8,0,3.2,0.5,4.2,1.3s1.7,1.8,2.2,2.8c0.6,1.2,0.9,2.5,0.9,4V129.9z M346.4,108.1c0-1-0.2-1.7-0.7-2.3c-0.3-0.3-0.7-0.4-1.1-0.4
			c-1,0-1.4,0.7-1.6,1.4c-0.2,0.4-0.2,0.9-0.2,1.4v21.8c0,1.1,0.3,1.8,0.8,2.3c0.3,0.3,0.6,0.4,1.1,0.4c1,0,1.4-0.6,1.6-1.4
			c0.2-0.4,0.2-0.8,0.2-1.4V108.1z"/>
		<path class="st24" d="M365.2,137.5l-2.8-15.6h-1.5v15.6h-5.4v-37h5.4c6.5,0,9.3,3.7,9.3,10.7c0,3.7-1,7-3,8.4l3.5,17.9H365.2z
			 M360.9,116.9c0.8,0,1.8-0.1,2.6-0.8c0.8-0.7,1.5-2.1,1.5-4.7s-0.7-4-1.5-4.7c-0.8-0.7-1.8-0.8-2.6-0.8V116.9z"/>
		<path class="st24" d="M382.7,137.5l-3.5-23.3l-0.2-1.6h-0.3v24.8h-5v-37h6.7l3.2,16.9l0.3,2h0.1l0.3-2l3.2-16.9h6.7v37h-5v-24.8
			h-0.3l-0.2,1.6l-3.5,23.3H382.7z"/>
		<path class="st24" d="M412.5,100.5v29.4c-0.1,1.5-0.4,2.9-0.9,4c-0.5,1-1.2,2-2.2,2.7c-1,0.8-2.4,1.3-4.2,1.3s-3.2-0.5-4.2-1.3
			c-1-0.8-1.7-1.7-2.1-2.7c-0.6-1.2-0.9-2.5-0.9-4v-29.4h5.4v29.4c0,1.1,0.3,1.8,0.8,2.3c0.3,0.3,0.6,0.4,1.1,0.4
			c1,0,1.4-0.6,1.6-1.4c0.2-0.4,0.2-0.8,0.2-1.4v-29.4H412.5z"/>
		<path class="st24" d="M416.5,100.5h5.4v32h7.2v5h-12.7V100.5z"/>
		<path class="st24" d="M431.4,100.5h5.4v37h-5.4V100.5z"/>
		<path class="st24" d="M440.9,100.5h12.4v5.6h-7v9.7h5v5.9h-5v10.2h7v5.6h-12.4V100.5z"/>
		<path class="st24" d="M466.1,137.5l-2.8-15.6h-1.5v15.6h-5.4v-37h5.4c6.5,0,9.3,3.7,9.3,10.7c0,3.7-1,7-3,8.4l3.5,17.9H466.1z
			 M461.8,116.9c0.8,0,1.8-0.1,2.6-0.8c0.8-0.7,1.5-2.1,1.5-4.7s-0.7-4-1.5-4.7c-0.8-0.7-1.8-0.8-2.6-0.8V116.9z"/>
		<path class="st24" d="M474.5,100.5H487v5.6h-7v9.7h5v5.9h-5v10.2h7v5.6h-12.4V100.5z"/>
		<path class="st24" d="M495.7,118.2l-0.5-1.7H495v21h-5v-37h4.8l5.3,19.3l0.5,1.7h0.3v-21h5v37H501L495.7,118.2z"/>
	</g>
</g>
</svg>
