<?xml version="1.0" encoding="utf-8"?>
<!-- Generator: Adobe Illustrator 26.5.0, SVG Export Plug-In . SVG Version: 6.00 Build 0)  -->
<svg version="1.1" id="_x2014_ÎÓÈ_x5F_1" xmlns="http://www.w3.org/2000/svg" xmlns:xlink="http://www.w3.org/1999/xlink"
	 x="0px" y="0px" viewBox="0 0 1231.8 1240.6" style="enable-background:new 0 0 1231.8 1240.6;" xml:space="preserve">
<style type="text/css">
	.st0{fill:#F05A24;}
	.st1{clip-path:url(#SVGID_00000054265415645397422680000018276764135893865136_);fill:#D94721;}
	.st2{fill:none;stroke:#FFFFFF;stroke-width:3;stroke-miterlimit:10;}
	.st3{clip-path:url(#SVGID_00000085236729188692482110000001062799571024740280_);fill:#737578;}
	.st4{clip-path:url(#SVGID_00000085236729188692482110000001062799571024740280_);fill:#878F94;}
	.st5{fill:#FFFFFF;}
	.st6{fill:#FFDEC7;}
	.st7{fill:#A68F87;}
	.st8{fill:#ABB8BA;}
	.st9{fill:#291C00;}
	.st10{fill:#E3C7B5;}
	.st11{fill:#B2CCDB;}
	.st12{fill:#E8EDF2;}
	.st13{fill:#CCD9E0;}
	.st14{fill:#F2F5FA;}
	.st15{fill:#7599AB;}
	.st16{fill:#5C6982;}
	.st17{fill:#F0F0ED;}
	.st18{fill:#697894;}
	.st19{fill:#7D8CA8;}
	.st20{fill:#ABADB0;}
	.st21{fill:#C2C7C9;}
	.st22{fill:#455266;}
	.st23{fill:#91A1B8;}
	.st24{fill:#DBDBD6;}
	.st25{fill:#453D3B;}
	.st26{fill:#14211A;}
	.st27{fill:#FBBC3D;}
	.st28{opacity:0.3;}
	.st29{fill:#F6B12B;}
	.st30{fill:#FDC75A;}
	.st31{fill:#FED58D;}
	.st32{fill:#A69E9C;}
	.st33{fill:#C9C9C2;}
</style>
<g>
	<path class="st0" d="M854.1,121.1H377.7c-46.4,0-89.4,24.8-112.6,65L27,598.6c-23.2,40.2-23.2,89.8,0,130l238.2,412.5
		c23.2,40.2,66.1,65,112.6,65h476.3c46.4,0,89.4-24.8,112.6-65l238.2-412.5c23.2-40.2,23.2-89.8,0-130L966.6,186.1
		C943.4,145.8,900.5,121.1,854.1,121.1z"/>
	<g>
		<defs>
			<path id="SVGID_1_" d="M854.1,121.1H377.7c-46.4,0-89.4,24.8-112.6,65L27,598.6c-23.2,40.2-23.2,89.8,0,130l238.2,412.5
				c23.2,40.2,66.1,65,112.6,65h476.3c46.4,0,89.4-24.8,112.6-65l238.2-412.5c23.2-40.2,23.2-89.8,0-130L966.6,186.1
				C943.4,145.8,900.5,121.1,854.1,121.1z"/>
		</defs>
		<clipPath id="SVGID_00000113334705749801709580000013377812416005422480_">
			<use xlink:href="#SVGID_1_"  style="overflow:visible;"/>
		</clipPath>
		<path style="clip-path:url(#SVGID_00000113334705749801709580000013377812416005422480_);fill:#D94721;" d="M961.4,1150.2
			l144-249.5L167.3,330.6l-158,265c-19.9,34.5-4.7,90.9,15.3,125.5l247.8,429.2c19.9,34.5,56.8,55.8,96.7,55.8h495.6
			C904.6,1206.1,941.4,1184.8,961.4,1150.2z"/>
	</g>
	<path class="st2" d="M503.4,965.9"/>
	<g>
		<defs>
			<polygon id="SVGID_00000036215661876549377350000006027651231266424249_" points="247.7,1182.7 986.3,1182.7 984.2,34.6 
				245.6,34.6 			"/>
		</defs>
		<clipPath id="SVGID_00000068662537598900791310000010684101578570658449_">
			<use xlink:href="#SVGID_00000036215661876549377350000006027651231266424249_"  style="overflow:visible;"/>
		</clipPath>
		<path style="clip-path:url(#SVGID_00000068662537598900791310000010684101578570658449_);fill:#737578;" d="M516.7,929.5
			c0,0-40.7-61.9-27.2-76.3c13.5-14.4,42.5-42.6,127.8-45.2c85.3-2.6,126.9,33.4,129.8,67.8C749.9,910.2,516.7,929.5,516.7,929.5"/>
		<path style="clip-path:url(#SVGID_00000068662537598900791310000010684101578570658449_);fill:#878F94;" d="M531.8,866.4
			c0,0-1.4-24.1,6-29.9c7.5-5.8,25.4-12.5,25.4-12.5l114.5,5.2c0,0,13.3-1.3,14.8,9.2c1.5,10.6-6.3,24.6-6.3,24.6L531.8,866.4z"/>
	</g>
	<path class="st5" d="M540.6,843.5c0,0,65.3,91.9,149.1-2.4l-79.8,216.4L540.6,843.5z"/>
	<g>
		<defs>
			<path id="SVGID_00000038375980664402800410000007384190261513986953_" d="M614.9,717h-63.6v98.5c0,37.4-40.1,55.2-92.7,72.8
				c-52.6,17.5-59.3,50.1-59.3,50.1l-86,230.2l51.7,26.1l66.4-113.8l31.5,101.1l299.9-1l35.5-100.1l58,99.7l62-25l-87.8-217.2
				c0,0-6.7-32.6-59.3-50.1c-52.6-17.5-92.7-35.4-92.7-72.8V717H614.9z"/>
		</defs>
		<use xlink:href="#SVGID_00000038375980664402800410000007384190261513986953_"  style="overflow:visible;fill:#FCD5BB;"/>
		<clipPath id="SVGID_00000113338974974286176440000013877528987266687884_">
			<use xlink:href="#SVGID_00000038375980664402800410000007384190261513986953_"  style="overflow:visible;"/>
		</clipPath>
	</g>
	<path class="st6" d="M844.4,433.4c0,182.5-64.7,331.5-231.1,331.5c-166.4,0-227.9-150.8-227.9-333.2
		c0-182.5,154.8-219.3,230.7-219.3S844.4,250.9,844.4,433.4"/>
	<path class="st7" d="M533.5,655.4c25.2,15.3,52.2,17.5,79.5,17.1c27.5,0,53.8-3.4,80-17.1c-9.6,11.3-36.7,31.2-79.9,31.2
		C570,686.6,542.3,667.5,533.5,655.4"/>
	<path class="st8" d="M561.1,550.2c0,25.1-20.6,45.4-45.9,45.4c-25.4,0-45.9-20.3-45.9-45.4c0-25.1,20.5-45.4,45.9-45.4
		C540.6,504.8,561.1,525.2,561.1,550.2"/>
	<path class="st9" d="M549.3,550.2c0,17.5-14.2,31.7-31.7,31.7c-17.5,0-31.7-14.2-31.7-31.7c0-17.5,14.2-31.7,31.7-31.7
		C535.1,518.5,549.3,532.8,549.3,550.2"/>
	<path class="st5" d="M504.3,533.8c0,5.1-4.1,9.2-9.2,9.2c-5.1,0-9.2-4.1-9.2-9.2c0-5.1,4.1-9.1,9.2-9.1
		C500.2,524.7,504.3,528.7,504.3,533.8"/>
	<path class="st8" d="M673.4,550.2c0,25.1,20.6,45.4,45.9,45.4c25.4,0,45.9-20.3,45.9-45.4c0-25.1-20.5-45.4-45.9-45.4
		C694,504.8,673.4,525.2,673.4,550.2"/>
	<path class="st9" d="M685.2,550.2c0,17.5,14.2,31.7,31.7,31.7c17.5,0,31.7-14.2,31.7-31.7c0-17.5-14.2-31.7-31.7-31.7
		C699.4,518.5,685.2,532.8,685.2,550.2"/>
	<path class="st5" d="M687,533.8c0,5.1,4.1,9.2,9.2,9.2c5.1,0,9.2-4.1,9.2-9.2c0-5.1-4.1-9.1-9.2-9.1
		C691.1,524.7,687,528.7,687,533.8"/>
	<path class="st10" d="M522,680.7c0.8-3.9,2.1-7.6,3.5-11.2c1.5-3.6,3.1-7.1,4.9-10.5c1.8-3.4,3.8-6.7,6-9.9
		c2.2-3.2,4.5-6.3,7.3-9.2c-1,3.8-2.5,7.4-4,11c-1.6,3.5-3.2,7-5,10.4c-1.8,3.4-3.8,6.7-5.8,9.9C526.8,674.5,524.6,677.7,522,680.7"
		/>
	<path class="st10" d="M704.7,680.7c-2.4-2.6-4.4-5.4-6.3-8.2c-1.9-2.8-3.6-5.7-5.2-8.7c-1.6-3-3.1-6-4.4-9.2
		c-1.3-3.1-2.5-6.3-3.4-9.8c2.6,2.5,4.7,5.2,6.6,8c2,2.8,3.8,5.7,5.4,8.7c1.6,3,3.1,6.1,4.3,9.3C703,673.9,704.1,677.2,704.7,680.7"
		/>
	<path class="st10" d="M656.2,710.4c-6.8,2.2-13.8,3.6-20.9,4.5c-7.1,0.9-14.2,1.2-21.4,1.2c-7.1-0.1-14.3-0.6-21.3-1.5
		c-3.5-0.5-7-1-10.5-1.7c-1.7-0.4-3.5-0.7-5.2-1.1l-2.6-0.6l-1.3-0.4l-0.6-0.2l-0.3-0.1c-0.1,0-0.3-0.1-0.1-0.1l2.4,0.4l2.6,0.4
		c1.8,0.3,3.5,0.5,5.3,0.7c3.5,0.5,7,0.9,10.6,1.2c7,0.7,14.1,1.1,21.2,1.1c7.1,0.1,14.1-0.2,21.2-0.8c3.5-0.3,7-0.7,10.5-1.3
		C649.2,711.8,652.7,711.1,656.2,710.4"/>
	<path class="st11" d="M572.7,887.4l-7.2-6.1l-43.3-20.4c0,0-99.4,40-110.8,47.3l27.3,107.8l-7.9,82l28,84l156.2-1l2.3-201.2
		L572.7,887.4z"/>
	<path class="st12" d="M617.3,1096.6c-37.6,2.1-113.1,6.6-129.6,9.7l-0.6,18.4c24.1-3.3,91.4-7.1,130.2-9.1V1096.6z"/>
	<path class="st12" d="M577.1,896.5L577.1,896.5C544.7,907,473,930.8,457.8,939l5.1,17.7c23.3-11.3,88.6-34.4,121.2-45.7
		L577.1,896.5z"/>
	<path class="st12" d="M617.3,1057.7c-29.6,2.8-114.4,11-132.2,16l1.1,18.4c25.9-6.1,97.9-14.6,131.1-18.4V1057.7z"/>
	<path class="st13" d="M575.4,1182h20.8c0,0-7.6-185.8-31.7-301.1l-22.1-10.4"/>
	<path class="st13" d="M617.3,995.8c-0.6-6.8-1.4-13.5-2.1-20.1l-25.1-51.9c8.3,60.4,16.1,86.8,20.7,258.3l6.2-1L617.3,995.8z"/>
	<path class="st12" d="M555.2,865.4c0,0-88.1,31.9-107.6,43.3l5.7,17.6c31-16.3,112.4-47.9,112.4-47.9L555.2,865.4z"/>
	<path class="st12" d="M594.2,931.9c-27.9,7.6-111.5,30.5-128.3,38.7l4.3,18c25.9-11.1,102.2-33.6,131.1-42L594.2,931.9z"/>
	<path class="st12" d="M611.5,967.8c-29.3,6.8-119.9,27.8-137.6,34.4l2.6,18.3c26.4-8.5,140.8-34.5,140.8-34.5v-6.2L611.5,967.8z"/>
	<path class="st12" d="M617.1,1016c-30.9,4.3-121.2,17-139.2,21.9l0.9,18.4c25.9-5.8,102.5-16.4,138.4-21.2L617.1,1016z"/>
	<path class="st14" d="M555.5,942.6c0.7,5.3,1.4,11,2,16.9c6.4-1.9,12.5-3.8,18.3-5.5c-0.7-5.6-1.4-11.1-2.1-16.5
		C568.1,939.1,562,940.8,555.5,942.6"/>
	<path class="st14" d="M559.8,979.9c0.6,6,1.2,12.3,1.8,18.9c6.4-1.5,12.7-3,18.7-4.4c-0.6-6.4-1.3-12.7-2-18.9
		C572.4,976.9,566.1,978.4,559.8,979.9"/>
	<path class="st14" d="M520.9,970.8c6-1.9,12.1-3.8,18.3-5.7c-0.7-5.9-1.5-11.6-2.2-17.3c-6.1,1.7-12.2,3.5-18.2,5.3
		C519.5,958.7,520.2,964.6,520.9,970.8"/>
	<path class="st14" d="M481.4,948.7c5.5-2.2,11.5-4.6,17.9-7c-0.9-6.2-1.9-12.2-2.9-17.9c-6.5,2.3-12.5,4.5-17.9,6.6
		C479.4,935.9,480.4,942.1,481.4,948.7"/>
	<path class="st14" d="M513.4,917.8c0.9,5.3,1.9,11.2,2.9,17.5c5.9-2.2,12-4.4,18-6.6c-0.9-5.9-1.9-11.6-2.8-17.1
		C525.4,913.6,519.3,915.7,513.4,917.8"/>
	<path class="st14" d="M563.7,1023.6c0.5,6,1,12.3,1.4,18.7c6.6-0.9,13-1.8,19.2-2.7c-0.5-6.3-1.1-12.5-1.6-18.8
		C576.6,1021.7,570.2,1022.6,563.7,1023.6"/>
	<path class="st14" d="M550.2,1081.9c-0.4-5.8-0.9-11.5-1.3-17.3c-6.6,0.7-13.1,1.5-19.4,2.2c0.4,5.8,0.8,11.7,1.2,17.8
		C537.1,1083.7,543.6,1082.8,550.2,1081.9"/>
	<path class="st14" d="M603.8,1075.3c4.9-0.6,9.4-1.1,13.4-1.5v-16.1c-3.9,0.4-8.8,0.8-14.4,1.4
		C603.1,1064.3,603.4,1069.8,603.8,1075.3"/>
	<path class="st14" d="M597.5,990.5c7.1-1.6,13.5-3.1,18.7-4.2c-0.4-3.5-0.7-7.3-1-10.8l-3.8-7.6c-4.2,1-9.5,2.2-15.7,3.6
		C596.3,977.5,596.9,983.9,597.5,990.5"/>
	<path class="st14" d="M567.6,1079.7c6.7-0.8,13.3-1.7,19.6-2.4c-0.4-5.5-0.8-11-1.2-16.6c-6.2,0.6-12.8,1.3-19.5,2
		C566.9,1068.2,567.3,1073.9,567.6,1079.7"/>
	<path class="st14" d="M522.9,988.9c0.6,6,1.2,12.2,1.9,18.7c6.1-1.5,12.3-3,18.6-4.5c-0.6-6.3-1.3-12.6-2-18.7
		C535.2,985.9,528.9,987.4,522.9,988.9"/>
	<path class="st14" d="M547.3,1044.9c-0.5-6.2-1.1-12.5-1.7-18.7c-6.4,1-12.8,1.9-19,2.9c0.5,6,1,12.2,1.5,18.6
		C534.4,1046.8,540.8,1045.8,547.3,1044.9"/>
	<path class="st14" d="M504,976.3c-0.8-6.2-1.5-12.2-2.3-18.1c-6.6,2-12.8,4-18.2,5.8c0.8,5.8,1.5,12,2.3,18.5
		C491.3,980.6,497.4,978.5,504,976.3"/>
	<path class="st14" d="M551.6,1100.6c-6.8,0.5-13.4,0.9-19.8,1.4c0.4,6,0.7,12.2,1.1,18.6c6.5-0.5,13.2-0.9,20-1.3
		C552.4,1113,552,1106.8,551.6,1100.6"/>
	<path class="st14" d="M550,905.4c0.9,5.1,1.8,10.7,2.7,16.7c6.3-2.2,12.4-4.4,18-6.3c-0.9-5.6-1.7-11.1-2.7-16.3
		C562.5,901.2,556.4,903.2,550,905.4"/>
	<path class="st14" d="M546.2,886c6.9-2.8,12.5-5,15.9-6.3l-19.7-9.3C543.6,874.8,544.9,880,546.2,886"/>
	<path class="st14" d="M599.9,1018.4c0.5,6.1,0.9,12.4,1.4,18.9c5.8-0.8,11.3-1.5,16-2.2V1016
		C612.7,1016.6,606.6,1017.4,599.9,1018.4"/>
	<path class="st14" d="M591.3,932.7c0.7,5.1,1.3,10.5,2,16.1c2.9-0.8,5.5-1.6,7.9-2.3l-7-14.6C593.2,932.2,592.3,932.5,591.3,932.7"
		/>
	<path class="st14" d="M510.1,900.7c6.1-2.5,12.1-5,17.8-7.3c-1.3-5.9-2.6-11.4-3.9-16.4c-5.7,2.1-11.8,4.5-18,6.9
		C507.3,888.5,508.6,894.1,510.1,900.7"/>
	<path class="st14" d="M475.6,915.6c5.6-2.5,11.6-5.1,17.7-7.8c-1.3-6.3-2.6-12.1-4-17.5c-6.2,2.5-12.3,4.9-17.9,7.3
		C472.8,902.6,474.2,908.6,475.6,915.6"/>
	<path class="st14" d="M511.6,1050.3c-0.5-6.2-1.1-12.4-1.7-18.6c-7.1,1.2-13.5,2.3-18.9,3.3c0.5,6,1,12.1,1.5,18.5
		C498.2,1052.6,504.6,1051.5,511.6,1050.3"/>
	<path class="st14" d="M514.6,1087c-0.5-6-0.9-12-1.4-18.1c-7.5,1-14.1,2-19.2,2.9c0.4,6,0.8,12.1,1.3,18.4
		C500.8,1089.2,507.3,1088.1,514.6,1087"/>
	<path class="st14" d="M507.9,1011.8c-0.6-6.3-1.3-12.5-2-18.7c-6.9,1.8-13.2,3.4-18.4,4.9c0.6,5.9,1.2,12.2,1.9,18.7
		C494.8,1015.2,501.1,1013.6,507.9,1011.8"/>
	<path class="st14" d="M515.8,1103.2c-7.7,0.6-14.4,1.3-19.7,1.9c0.4,6,0.7,12.1,1.1,18.4c5.7-0.6,12.5-1.2,19.9-1.8
		C516.6,1115.6,516.2,1109.4,515.8,1103.2"/>
	<path class="st14" d="M588.7,1098.2c-6.4,0.4-13.1,0.8-19.9,1.2c0.3,6.1,0.7,12.3,1,18.7c6.8-0.4,13.6-0.8,20.1-1.2
		C589.5,1110.8,589.1,1104.5,588.7,1098.2"/>
	<path class="st14" d="M617.1,1096.6c-3.7,0.2-7.8,0.4-12.1,0.7c0.3,6.1,0.7,12.4,1,18.9c3.9-0.2,7.6-0.4,11.1-0.6V1096.6z"/>
	<path class="st11" d="M548.7,830.8c0,0-8.2,3.5-8.7,10.2c-0.5,6.7,33.3,44.8,32.6,46.3c0,0-2.8-4.9-7.3,8.3
		c-5.4,15.8-14.8,37.2-14.8,37.2s-40.2-54.9-40.2-67.2c0-2.8,20-31.6,39.6-39c0,0-0.3,1.3-0.6,2.3C549,830,548.7,830.8,548.7,830.8"
		/>
	<path class="st12" d="M566.5,892.8c-6.7-8.8-31.6-41.9-34-48.4c-0.5-1.5-0.6-3.7-0.3-6c-3.6,3.3-7,6.9-10,10.3
		c0.6,1.6,1.4,3.6,2.7,6.1c4,7.8,27.6,40.5,36.3,52.4c1.5-3.9,3-7.9,4.2-11.5C565.8,894.6,566.1,893.7,566.5,892.8"/>
	<path class="st12" d="M556.1,919.9c-8.9-12.8-36.9-53.4-39.2-59.6c-0.4-1.1-0.5-2.8-0.4-4.5c-3.8,5.1-6.1,9-6.1,10
		c0,12.3,40.2,67.2,40.2,67.2S553,927.4,556.1,919.9"/>
	<path class="st13" d="M557.3,867.2c-2.8-3.5-5.6-7.1-8.1-10.5c-1,0.1-2.4,0.6-4.1,1.8c-2.2,1.5-13.8,20.8-21.1,35.4
		c3.1,5,6.5,10.2,9.7,15C537.9,899.5,550.1,872.6,557.3,867.2"/>
	<path class="st13" d="M565.4,895.7c4.5-13.2,7.3-8.3,7.3-8.3c0.2-0.5-2.6-4.1-6.6-9.1h-0.3c0,0-2.6-0.5-5.5,3.5
		c-2.2,3-12.6,25.7-17.7,40c4.7,6.7,8,11.2,8,11.2S559.9,911.5,565.4,895.7"/>
	<path class="st13" d="M510.4,865.7c0,2.4,1.6,6.5,4,11.4c7.1-10.1,20.3-27.4,28.4-29.7c-1.7-2.9-2.8-5.1-2.7-6.3
		c0.1-1.9,0.9-3.5,1.9-4.9c-0.7-0.7-2.4-2.1-4.7-2C522.6,845.5,510.4,863.5,510.4,865.7"/>
	<path class="st14" d="M524.9,854.8c0.6,1.1,1.6,2.9,3,4.9c2.9-3.3,5.8-6.3,8.5-8.6c-2-3.1-3.4-5.5-3.9-6.8c-0.5-1.5-0.6-3.7-0.3-6
		c-3.7,3.3-7,6.9-10,10.3C522.7,850.3,523.6,852.3,524.9,854.8"/>
	<path class="st14" d="M559.4,883.4c-1.4,2.5-3.7,7.2-6.2,12.9c3.2,4.4,6,8.3,8,11c0.3-0.7,0.6-1.4,0.8-2.2c0-0.1,0.1-0.2,0.1-0.3
		c0.7-1.8,1.4-3.6,2-5.4c0.2-0.5,0.4-1,0.5-1.5c0.3-0.7,0.5-1.5,0.8-2.2c0.4-1.1,0.7-2.1,1.1-2.9
		C564.9,890.7,562.4,887.4,559.4,883.4"/>
	<path class="st14" d="M521.2,867.9c-2.2-3.6-3.8-6.4-4.3-7.7c-0.4-1.1-0.5-2.8-0.4-4.5c-3.3,4.4-5.5,8-6,9.4c0,0,0,0.1,0,0.1
		c0,0.2-0.1,0.3-0.1,0.4c0,0,0,0.1,0,0.1c0,0.3,0,0.6,0.1,0.9c0,0.2,0.1,0.5,0.1,0.7c0,0.2,0.1,0.3,0.1,0.5c0.1,0.3,0.2,0.7,0.3,1
		c0,0,0,0,0,0.1c0.7,2.2,1.9,4.9,3.4,8C516.3,874.4,518.6,871.2,521.2,867.9"/>
	<path class="st14" d="M548,908.1c-2,4.8-3.9,9.6-5.4,13.7c4.7,6.7,8,11.2,8,11.2s2.4-5.6,5.5-13.1C554.1,917,551.3,912.9,548,908.1
		"/>
	<path class="st14" d="M535.8,890.3l-1.9-2.8l0,0c-1.3-1.9-2.5-3.7-3.7-5.6c-2.2,4-4.4,8.1-6.3,11.9c3.1,5,6.5,10.2,9.7,15
		c1.3-3,3.4-7.7,5.9-12.9C538.4,894.1,537.1,892.2,535.8,890.3L535.8,890.3z"/>
	<path class="st14" d="M543,860.9c-1.7,2.4-4.2,6.4-7,11l9.2,13.1c2.3-4.3,4.6-8.4,6.8-11.6C548.9,869.2,545.8,864.9,543,860.9"/>
	<path class="st15" d="M511.7,871.3c2.4,5.6,5.5,10.8,8.7,16c3.2,5.1,6.6,10.2,10,15.3c6.8,10.1,13.9,19.9,21,29.8l-1.8,0.2
		c4.5-11.5,9-23.1,13.8-34.5c1.2-2.9,2.4-5.7,3.8-8.5c0.3-0.7,0.7-1.4,1.1-2.1c0.6-1,1.2-1.6,2.5-2c0.6-0.2,1.5-0.1,2,0.4
		c0.3,0.2,0.5,0.4,0.7,0.7c0.2,0.2,0.3,0.6,0.4,0.7l1,2.1l8,16.8c5.4,11.2,10.5,22.4,15.8,33.6c5.3,11.2,10.4,22.5,15.5,33.8
		c-5.6-11-11.3-22.1-16.7-33.2c-5.5-11.1-11-22.2-16.4-33.3l-8.1-16.7l-1-2.1c-0.1-0.2-0.1-0.2-0.2-0.3c0-0.1-0.1-0.1-0.1-0.1
		c-0.1,0,0,0-0.2,0c-0.1,0-0.4,0.1-0.6,0.3c-0.2,0.2-0.2,0.4-0.4,0.6c-0.3,0.6-0.7,1.3-1,2c-1.3,2.7-2.5,5.6-3.7,8.4
		c-4.8,11.4-9.5,22.9-14.1,34.3l-0.7,1.8l-1.1-1.6c-7.1-9.9-13.9-20-20.5-30.3c-3.3-5.1-6.5-10.3-9.5-15.6
		C516.7,882.4,513.7,877,511.7,871.3"/>
	<path class="st11" d="M657.1,887.4l7.2-6.1l43.3-20.4c0,0,99.4,40,110.8,47.3L791.1,1016l-0.1,80.8l-20.8,86.3l-157.2-1l-0.4-202.2
		L657.1,887.4z"/>
	<path class="st12" d="M612.4,1096.6c37.6,2.1,113.1,6.6,129.6,9.7l0.6,18.4c-24.1-3.3-91.4-7.1-130.2-9.1V1096.6z"/>
	<path class="st12" d="M652.7,896.5L652.7,896.5C685.1,907,756.8,930.8,772,939l-5.1,17.7c-23.3-11.3-88.6-34.4-121.2-45.7
		L652.7,896.5z"/>
	<path class="st12" d="M612.4,1057.7c29.6,2.8,114.4,11,132.2,16l-1.1,18.4c-25.9-6.1-97.9-14.6-131.1-18.4V1057.7z"/>
	<path class="st13" d="M656.4,1180.4h-21.8c0,0,6.5-184.2,30.7-299.5l22.1-10.4C676.4,909.8,663.3,923.8,656.4,1180.4"/>
	<path class="st13" d="M704.5,1182c3-76.1,14.8-232.7,40.2-306c5.8,2.4,12,4.9,18.1,7.5c-10.7,27.9-28.4,27.7-36.5,298.5H704.5z"/>
	<path class="st13" d="M710.5,862c3.5,1.4,10,4.1,18.3,7.4c-10.7,25.2-27.5,24.1-35.7,313.3h-21.7C673.5,1123.3,682.9,936,710.5,862
		"/>
	<path class="st13" d="M612.5,995.8c0.6-6.8,1.4-13.5,2.1-20.1l25.1-51.9c-8.3,60.4-14.9,86.8-19.5,258.3l-6.2-1L612.5,995.8z"/>
	<path class="st12" d="M674.5,865.4c0,0,88.1,31.9,107.6,43.3l-5.7,17.6c-31-16.3-112.4-47.9-112.4-47.9L674.5,865.4z"/>
	<path class="st12" d="M635.6,931.9c27.9,7.6,111.5,30.5,128.3,38.7l-4.3,18c-25.9-11.1-102.2-33.6-131.1-42L635.6,931.9z"/>
	<path class="st12" d="M618.3,967.8c29.3,6.8,119.9,27.8,137.6,34.4l-2.6,18.3C726.9,1012,612.5,986,612.5,986v-6.2L618.3,967.8z"/>
	<path class="st12" d="M612.6,1016c30.9,4.3,121.2,17,139.2,21.9l-0.9,18.4c-25.9-5.8-102.5-16.4-138.3-21.2L612.6,1016z"/>
	<path class="st14" d="M674.3,942.6c-0.7,5.3-1.4,11-2,16.9c-6.4-1.9-12.5-3.8-18.3-5.5c0.7-5.6,1.4-11.1,2.1-16.5
		C661.6,939.1,667.8,940.8,674.3,942.6"/>
	<path class="st14" d="M670,979.9c-0.6,6-1.2,12.3-1.8,18.9c-6.4-1.5-12.7-3-18.7-4.4c0.6-6.4,1.3-12.7,2-18.9
		C657.4,976.9,663.6,978.4,670,979.9"/>
	<path class="st14" d="M708.8,970.8c-6-1.9-12.1-3.8-18.2-5.7c0.7-5.9,1.5-11.6,2.2-17.3c6.1,1.7,12.2,3.5,18.2,5.3
		C710.3,958.7,709.6,964.6,708.8,970.8"/>
	<path class="st14" d="M748.4,948.7c-5.5-2.2-11.5-4.6-17.9-7c0.9-6.2,1.9-12.2,2.9-17.9c6.5,2.3,12.5,4.5,17.9,6.6
		C750.4,935.9,749.4,942.1,748.4,948.7"/>
	<path class="st14" d="M716.4,917.8c-0.9,5.3-1.9,11.2-2.9,17.5c-5.9-2.2-12-4.4-18-6.6c0.9-5.9,1.9-11.6,2.8-17.1
		C704.4,913.6,710.4,915.7,716.4,917.8"/>
	<path class="st14" d="M666.1,1023.6c-0.5,6-1,12.3-1.4,18.7c-6.6-0.9-13-1.8-19.2-2.7c0.5-6.3,1.1-12.5,1.6-18.8
		C653.1,1021.7,659.5,1022.6,666.1,1023.6"/>
	<path class="st14" d="M679.5,1081.9c0.4-5.8,0.9-11.5,1.3-17.3c6.6,0.7,13.1,1.5,19.4,2.2c-0.4,5.8-0.8,11.7-1.2,17.8
		C692.7,1083.7,686.1,1082.8,679.5,1081.9"/>
	<path class="st14" d="M626,1075.3c-4.9-0.6-9.4-1.1-13.4-1.5v-16.1c3.9,0.4,8.8,0.8,14.4,1.4C626.7,1064.3,626.3,1069.8,626,1075.3
		"/>
	<path class="st14" d="M632.3,990.5c-7.1-1.6-13.5-3.1-18.7-4.2c0.3-3.5,0.7-7.3,1-10.8l3.8-7.6c4.2,1,9.5,2.2,15.7,3.6
		C633.5,977.5,632.9,983.9,632.3,990.5"/>
	<path class="st14" d="M662.1,1079.7c-6.7-0.8-13.3-1.7-19.6-2.4c0.4-5.5,0.8-11,1.2-16.6c6.2,0.6,12.8,1.3,19.5,2
		C662.8,1068.2,662.5,1073.9,662.1,1079.7"/>
	<path class="st14" d="M706.8,988.9c-0.6,6-1.2,12.2-1.9,18.7c-6.1-1.5-12.3-3-18.6-4.5c0.6-6.3,1.3-12.6,2-18.7
		C694.6,985.9,700.8,987.4,706.8,988.9"/>
	<path class="st14" d="M682.5,1044.9c0.5-6.2,1.1-12.5,1.7-18.7c6.4,1,12.8,1.9,19,2.9c-0.5,6-1,12.2-1.5,18.6
		C695.4,1046.8,689,1045.8,682.5,1044.9"/>
	<path class="st14" d="M725.8,976.3c0.8-6.2,1.5-12.2,2.3-18.1c6.6,2,12.8,4,18.2,5.8c-0.8,5.8-1.5,12-2.3,18.5
		C738.5,980.6,732.4,978.5,725.8,976.3"/>
	<path class="st14" d="M678.2,1100.6c6.8,0.5,13.4,0.9,19.8,1.4c-0.4,6-0.7,12.2-1.1,18.6c-6.5-0.5-13.2-0.9-20-1.3
		C677.3,1113,677.7,1106.8,678.2,1100.6"/>
	<path class="st14" d="M679.8,905.4c-0.9,5.1-1.8,10.7-2.7,16.7c-6.3-2.2-12.4-4.4-18-6.3c0.9-5.6,1.7-11.1,2.7-16.3
		C667.2,901.2,673.3,903.2,679.8,905.4"/>
	<path class="st14" d="M683.6,886c-6.9-2.8-12.5-5-15.9-6.3l19.7-9.3C686.1,874.8,684.9,880,683.6,886"/>
	<path class="st14" d="M629.9,1018.4c-0.5,6.1-0.9,12.4-1.4,18.9c-5.8-0.8-11.3-1.5-16-2.2V1016
		C617.1,1016.6,623.1,1017.4,629.9,1018.4"/>
	<path class="st14" d="M638.5,932.7c-0.7,5.1-1.3,10.5-2,16.1c-2.9-0.8-5.5-1.6-7.9-2.3l7-14.6C636.6,932.2,637.5,932.5,638.5,932.7
		"/>
	<path class="st14" d="M719.7,900.7c-6.1-2.5-12.1-5-17.8-7.3c1.3-5.9,2.6-11.4,3.9-16.4c5.7,2.1,11.8,4.5,18,6.9
		C722.5,888.5,721.1,894.1,719.7,900.7"/>
	<path class="st14" d="M754.2,915.6c-5.6-2.5-11.6-5.1-17.7-7.8c1.3-6.3,2.6-12.1,4-17.5c6.2,2.5,12.3,4.9,17.9,7.3
		C757,902.6,755.6,908.6,754.2,915.6"/>
	<path class="st14" d="M718.2,1050.3c0.5-6.2,1.1-12.4,1.7-18.6c7.1,1.2,13.5,2.3,18.9,3.3c-0.5,6-1,12.1-1.5,18.5
		C731.6,1052.6,725.2,1051.5,718.2,1050.3"/>
	<path class="st14" d="M715.2,1087c0.5-6,0.9-12,1.4-18.1c7.5,1,14.1,2,19.2,2.9c-0.4,6-0.8,12.1-1.3,18.4
		C729,1089.2,722.4,1088.1,715.2,1087"/>
	<path class="st14" d="M721.8,1011.8c0.6-6.3,1.3-12.5,2-18.7c6.9,1.8,13.2,3.4,18.4,4.9c-0.6,5.9-1.2,12.2-1.9,18.7
		C734.9,1015.2,728.6,1013.6,721.8,1011.8"/>
	<path class="st14" d="M714,1103.2c7.7,0.6,14.4,1.3,19.7,1.9c-0.4,6-0.7,12.1-1.1,18.4c-5.7-0.6-12.5-1.2-19.9-1.8
		C713.1,1115.6,713.5,1109.4,714,1103.2"/>
	<path class="st14" d="M641.1,1098.2c6.4,0.4,13.1,0.8,19.9,1.2c-0.3,6.1-0.7,12.3-1,18.7c-6.8-0.4-13.6-0.8-20.1-1.2
		C640.2,1110.8,640.6,1104.5,641.1,1098.2"/>
	<path class="st14" d="M612.6,1096.6c3.7,0.2,7.8,0.4,12.1,0.7c-0.3,6.1-0.7,12.4-1,18.9c-3.9-0.2-7.6-0.4-11.1-0.6V1096.6z"/>
	<path class="st11" d="M681,830.8c0,0,8.2,3.5,8.7,10.2c0.5,6.7-33.3,44.8-32.6,46.3c0,0,2.8-4.9,7.3,8.3
		c5.4,15.8,14.8,37.2,14.8,37.2s40.2-54.9,40.2-67.2c0-2.8-20-31.6-39.6-39c0,0,0.3,1.3,0.6,2.3C680.7,830,681,830.8,681,830.8"/>
	<path class="st12" d="M663.3,892.8c6.7-8.8,31.6-41.9,34-48.4c0.5-1.5,0.6-3.7,0.3-6c3.6,3.3,7,6.9,10,10.3
		c-0.6,1.6-1.4,3.6-2.7,6.1c-4,7.8-27.6,40.5-36.3,52.4c-1.5-3.9-3-7.9-4.2-11.5C664,894.6,663.6,893.7,663.3,892.8"/>
	<path class="st12" d="M673.7,919.9c8.9-12.8,36.9-53.4,39.2-59.6c0.4-1.1,0.5-2.8,0.4-4.5c3.8,5.1,6.1,9,6.1,10
		c0,12.3-40.2,67.2-40.2,67.2S676.8,927.4,673.7,919.9"/>
	<path class="st13" d="M672.5,867.2c2.8-3.5,5.6-7.1,8.1-10.5c1,0.1,2.4,0.6,4.1,1.8c2.2,1.5,13.8,20.8,21.1,35.4
		c-3.1,5-6.5,10.2-9.7,15C691.9,899.5,679.7,872.6,672.5,867.2"/>
	<path class="st13" d="M664.4,895.7c-4.5-13.2-7.3-8.3-7.3-8.3c-0.2-0.5,2.6-4.1,6.6-9.1h0.3c0,0,2.6-0.5,5.5,3.5
		c2.2,3,12.6,25.7,17.7,40c-4.7,6.7-8,11.2-8,11.2S669.8,911.5,664.4,895.7"/>
	<path class="st13" d="M719.4,865.7c0,2.4-1.6,6.5-4,11.4c-7.1-10.1-20.3-27.4-28.4-29.7c1.7-2.9,2.8-5.1,2.7-6.3
		c-0.1-1.9-0.9-3.5-1.9-4.9c0.7-0.7,2.4-2.1,4.7-2C707.2,845.5,719.4,863.5,719.4,865.7"/>
	<path class="st14" d="M704.9,854.8c-0.6,1.1-1.6,2.9-3,4.9c-2.9-3.3-5.8-6.3-8.5-8.6c2-3.1,3.4-5.5,3.9-6.8c0.5-1.5,0.6-3.7,0.3-6
		c3.7,3.3,7,6.9,10,10.3C707,850.3,706.2,852.3,704.9,854.8"/>
	<path class="st14" d="M670.4,883.4c1.4,2.5,3.7,7.2,6.2,12.9c-3.2,4.4-6,8.3-8,11c-0.3-0.7-0.6-1.4-0.8-2.2c0-0.1-0.1-0.2-0.1-0.3
		c-0.7-1.8-1.4-3.6-2-5.4c-0.2-0.5-0.4-1-0.5-1.5c-0.3-0.7-0.5-1.5-0.8-2.2c-0.4-1.1-0.7-2.1-1.1-2.9
		C664.8,890.7,667.4,887.4,670.4,883.4"/>
	<path class="st14" d="M708.6,867.9c2.2-3.6,3.8-6.4,4.3-7.7c0.4-1.1,0.5-2.8,0.4-4.5c3.3,4.4,5.5,8,6,9.4c0,0,0,0.1,0,0.1
		c0,0.2,0.1,0.3,0.1,0.4c0,0,0,0.1,0,0.1c0,0.3,0,0.6-0.1,0.9c0,0.2-0.1,0.5-0.1,0.7c0,0.2-0.1,0.3-0.1,0.5c-0.1,0.3-0.2,0.7-0.3,1
		c0,0,0,0,0,0.1c-0.7,2.2-1.9,4.9-3.4,8C713.5,874.4,711.1,871.2,708.6,867.9"/>
	<path class="st14" d="M681.8,908.1c2,4.8,3.9,9.6,5.4,13.7c-4.7,6.7-8,11.2-8,11.2s-2.4-5.6-5.5-13.1
		C675.6,917,678.5,912.9,681.8,908.1"/>
	<path class="st14" d="M693.9,890.3l1.9-2.8l0,0c1.3-1.9,2.5-3.7,3.7-5.6c2.2,4,4.4,8.1,6.3,11.9c-3.1,5-6.5,10.2-9.7,15
		c-1.3-3-3.4-7.7-5.9-12.9C691.4,894.1,692.7,892.2,693.9,890.3L693.9,890.3z"/>
	<path class="st14" d="M686.8,860.9c1.7,2.4,4.2,6.4,7,11l-9.2,13.1c-2.3-4.3-4.6-8.4-6.8-11.6C680.8,869.2,683.9,864.9,686.8,860.9
		"/>
	<path class="st16" d="M612.5,1066.5l0-4c-4.7-15.8-142.2-178.4-174.8-172.1c-32.6,6.2-43.9,25.8-47.3,39.2
		c-2.2,8.5-60.4,144.3-102.4,241.6c20.8,22,50,34.9,81.1,34.9h36l30.9-72.6l3.4,72.6h174.7L612.5,1066.5z"/>
	<path class="st15" d="M718.1,871.3c-2,5.8-5,11.1-8,16.4c-3,5.3-6.2,10.5-9.5,15.6c-6.6,10.2-13.4,20.4-20.5,30.3l-1.1,1.6
		l-0.7-1.8c-4.5-11.2-9-22.4-13.7-33.5c-1.2-2.8-2.3-5.6-3.6-8.3c-0.3-0.7-0.6-1.4-1-2l-0.5-1c-0.2-0.2-0.2-0.4-0.4-0.6
		c-0.5-0.4-0.8-0.4-0.8-0.4c0,0-0.2,0.1-0.2,0.3l-0.5,1l-7.9,16.3c-5.2,10.9-10.7,21.7-16,32.5c-5.4,10.8-10.8,21.6-16.4,32.3
		c5-11,10-22,15.1-32.9c5.1-10.9,10.2-21.9,15.4-32.8l7.8-16.3l0.5-1c0.2-0.5,0.6-1,1.2-1.4c0.6-0.4,1.4-0.4,2-0.2
		c0.6,0.2,1,0.5,1.4,0.8c0.4,0.3,0.7,0.8,1,1.2l0.5,1c0.4,0.7,0.7,1.4,1,2.1c1.3,2.8,2.5,5.5,3.7,8.3c4.7,11.2,9.1,22.4,13.5,33.7
		l-1.8-0.2c7.1-9.8,14.2-19.7,21-29.8c3.4-5,6.7-10.1,10-15.3C712.5,882.1,715.7,876.9,718.1,871.3"/>
	<path class="st17" d="M837,524.7c0,0-21.5-14.6-28.8-45.8c-13.5-56.9,2.3-117.1-45.1-129c-68.1-17-220.3-34.1-302.9,0.4
		c-42.2,17.6-27,69.5-40.3,120.5c-9.6,37.1-29,47.8-29,47.8s-3.7-13.9-8.1-34c-0.3-1.2-1.6-0.6-1.9-1.8c-0.2-0.8,0.7-3.3,0.6-4.1
		c-0.5-2.5-1.6-7.8-1.6-7.8l-3.5-8.9l-1,2.2l-0.6-3.7l-2.2-3.6l0.1-9.7l-0.3-2.4l-2.7-0.3l1.1-13l-0.4-3.7l-2.7-8.5l1.3-10.1
		l-2.4-4.3l2.1-5.8l-3-2l3.5-11.4l-1.6-3.1l4.7-15.2l-2.8-6.2l3.8-4.7l-2.3-4.3l3.9-16.9l-0.8-6l3.3-2.7l-0.5-5.7l3.5-4.8l-1-5.9
		l4-4.8l-3.2-4.2l5.5-4l-0.2-5.4l10.5-8.9l54.7-45.1l102.6-42l16.9,5l67.2-10.2l6.6,10.2l71.7,6.5l19.5,12.1l56.5,11l-4.9,5.7
		l43.7,36.4l6.7,3.2l20.9,70l7.5,9.9l-7.1,7.2l-5.1,57.1l-3.4,3.8l0.6,56.1l5.3,2.1l-11.4-26.9C849.4,481,837,524.7,837,524.7"/>
	<path class="st18" d="M612.4,1062.5c0,0-8-20.7-21.1-47.4c-7.6-15.4-17.1-33.2-27.6-50.2c-11.6-18.7-24.6-36.6-38.1-49.3
		c-55-52-24.3-73.6-8.7-84.4l-3.5-4.4c0,0-28.3-9.8-49.2,19.5c-4.4,6.2-17.2,9.4-20.6,25.1c-3.5,15.8-13.5-4.3-14.7,27.2
		c-1.2,31.5,46.7,45.3,84.5,67.1c29.8,17.1,74.1,67.4,91.6,87.9C609.7,1059.1,612.4,1062.5,612.4,1062.5"/>
	<path class="st19" d="M591.3,1015.1c-7.6-15.4-17-33.2-27.6-50.2c-11.6-18.7-24.6-36.6-38.1-49.3c-55-52-24.3-73.6-8.7-84.4
		l3.8-14.4c0,0-25.2,5.3-34.9,9.9c-6,7.5-10.2,28.2-7.8,43.7c5.5,35.1,59.2,80.7,73.3,107.8c4,7.6,13,24.4,19.9,37.6
		c15.6,16.1,25.7,28.1,33.8,37.6c4.7,5.5,7.4,8.9,7.4,8.9S604.4,1041.8,591.3,1015.1"/>
	<path class="st20" d="M551.3,799.5c0,0-60.3,20.7-60.3,56.3c0,29.2,31.8,59.5,43.2,70.5c11.4,11,23.4,29.1,23.4,29.1
		c-8.3-22.5-43.3-72-43.3-91.4c0-16-4-28.8,36.9-46.1C551.2,817.9,551.3,808.4,551.3,799.5"/>
	<path class="st21" d="M499.3,847.4c9-17.9,31.6-33,52-39.5c0-4.3,0-4.5,0-8.4c0,0-19.3,4-36.1,18.4c-0.8,3.8-1.9,7.3-3.5,8.8
		c-4.5,4.3-6.9,2.6-14,18.3c-7.1,15.7,4.3,38.7,10.4,47.1l0.3-1.8C508.4,890.3,490.3,865.3,499.3,847.4"/>
	<path class="st22" d="M582.6,1025c3.4,0.3,6,2.6,5.8,5c-0.2,2.4-3.2,4.1-6.6,3.8c-3.4-0.3-6-2.6-5.8-5
		C576.2,1026.4,579.1,1024.6,582.6,1025"/>
	<path class="st22" d="M581,1026.8c-13.8-14.3-27.9-28.5-42.7-41.8c-3.7-3.3-7.5-6.6-11.5-9.3c-4.1-2.7-8.6-5-13-7.3l-26.7-13.4
		c-8.9-4.5-17.8-9.1-26.4-14.3c-4.3-2.6-8.5-5.3-12.5-8.3c-1-0.7-2-1.6-3-2.4c-1-0.8-2-1.6-2.9-2.5c-0.9-0.9-1.8-1.8-2.7-2.7
		l-2.5-2.8c-1.6-1.9-3.2-3.8-4.8-5.8c-1.5-2-3.1-4-4.3-6.4c-0.6-1.2-0.9-2.6-0.9-4c0-1.4,0.2-2.6,0.3-3.9l0.9-7.4
		c0.3-2.5,0.6-5,1.1-7.5c0.6-2.4,1.1-5.1,3.2-7.1c0.5-0.5,1.2-0.8,1.9-1l1.8-0.4c1.2-0.2,2.4-0.5,3.5-1c2.2-1.1,3-3.7,3.5-6.1l0.2,0
		c-0.3,2.4-1,5.2-3.4,6.6c-1.1,0.7-2.4,1-3.6,1.3l-1.8,0.5c-0.5,0.2-1,0.4-1.4,0.8c-1.6,1.6-2.1,4.1-2.5,6.5
		c-0.4,2.4-0.6,4.9-0.8,7.4c-0.2,2.5-0.3,5-0.6,7.5c-0.1,1.2-0.2,2.4-0.2,3.6c0.1,1.1,0.3,2.2,0.8,3.2c1,2.1,2.6,4,4.1,5.9
		c1.6,1.9,3.2,3.8,4.8,5.6c6.1,7.8,14.5,13.1,22.9,18.4c8.4,5.2,17.2,9.9,26,14.6l26.6,13.7c4.4,2.4,8.8,4.7,13,7.5
		c4.1,2.9,7.9,6.3,11.6,9.6c14.7,13.5,28.4,28,42.1,42.5L581,1026.8z"/>
	<rect x="579.7" y="1032.4" class="st22" width="4.8" height="161.9"/>
	<path class="st23" d="M484.9,830.3c-2.2,5.4-3.6,11-4.3,16.6c-1.1,5.6-1.5,11.3-1.2,16.9c0.3,5.6,1.9,11,4.1,16.3
		c2.4,5.2,5,10.3,8.1,15.1c6,9.7,13,18.9,20.2,27.9c3.6,4.5,7.3,8.9,11,13.4c3.4,4.7,6.9,9.3,10.1,14.1L521,938.1
		c-3.7-4.4-7.4-8.9-11-13.4c-7.2-9-14.3-18.3-20.4-28.1c-3.1-4.9-5.8-10.1-8.2-15.4c-2.2-5.4-4-11.2-4.3-17.1
		c-0.3-5.9,0.1-11.8,1.3-17.5c0.7-2.9,1.7-5.6,2.7-8.3C482.1,835.4,483.4,832.8,484.9,830.3"/>
	<path class="st18" d="M615.2,1062.5c0,0,8.2-20.6,21.6-47.2c7.8-15.3,17.4-33,28.1-49.9c11.8-18.6,25-36.3,38.6-48.9
		c55.6-51.4,25-73.3,9.6-84.3l3.6-4.4c0,0,28.4-9.5,49,20c4.3,6.2,17.1,9.5,20.4,25.4c3.3,15.8,13.5-4.2,14.4,27.3
		c0.9,31.5-47.2,44.9-85.2,66.2c-30,16.8-74.8,66.6-92.5,86.9C618,1059.1,615.2,1062.5,615.2,1062.5"/>
	<path class="st16" d="M938.1,1178.5c-41-98-99.5-238-101.5-246.7c-3.2-13.4-14.3-33.1-46.9-39.7c-32.6-6.6-171.7,154.6-176.6,170.3
		l-0.1,4l-127.2,139.5h298.7l4.3-70.7l29.3,70.7h46.6C892.1,1206.1,918.1,1196,938.1,1178.5z"/>
	<path class="st19" d="M636.9,1015.3c7.8-15.3,17.4-33,28.1-49.9c11.8-18.6,25-36.3,38.6-48.9c55.6-51.4,25-73.3,9.6-84.3l-3.6-14.4
		c0,0,25.1,5.5,34.8,10.3c6,7.6,9.9,28.3,7.3,43.8c-5.9,35.1-60,80-74.4,107.1c-4.1,7.6-13.3,24.3-20.3,37.4
		c-15.8,15.9-25.9,27.8-34.2,37.3c-4.8,5.5-7.5,8.8-7.5,8.8S623.4,1041.8,636.9,1015.3"/>
	<path class="st20" d="M679.1,797.8c0,0,60,23.7,59.7,59.3c-0.3,29.2-32.4,59.2-43.9,70.1c-11.5,10.9-23.7,28.8-23.7,28.8
		c8.6-22.4,44.1-71.6,44.3-90.9c0.2-16,4.2-28.8-36.4-46.5C678.9,818.6,679,806.6,679.1,797.8"/>
	<path class="st21" d="M730.6,848.6c-8.8-18-31.2-33.3-51.6-40c0-4.3,0-6.9,0.1-10.8c0,0,19.2,5.5,35.8,20.1c0.7,3.8,1.9,8.4,3.4,10
		c4.4,4.3,6.9,2.7,13.8,18.5c6.9,15.8-4.7,38.6-10.9,47l-0.3-1.8C721,891.4,739.4,866.6,730.6,848.6"/>
	<path class="st22" d="M643.4,1025.3c-3.4,0.3-6,2.5-5.8,4.9c0.2,2.4,3.1,4.2,6.6,3.9c3.4-0.3,6-2.5,5.8-4.9
		C649.7,1026.7,646.8,1025,643.4,1025.3"/>
	<path class="st22" d="M646.8,1027c13.8-14.4,27.7-28.7,42.5-42.1c3.8-3.3,7.5-6.6,11.7-9.5c4.2-2.8,8.7-5.1,13.1-7.4l26.7-13.5
		c8.9-4.5,17.7-9.2,26.2-14.3c8.5-5.1,16.9-10.4,23.1-18.1c1.7-1.9,3.3-3.7,4.9-5.6c1.6-1.9,3.1-3.8,4.2-5.9c0.5-1,0.8-2.1,0.9-3.2
		c0-1.1-0.1-2.4-0.2-3.6c-0.3-2.5-0.4-5-0.6-7.5c-0.2-2.5-0.4-4.9-0.7-7.4c-0.4-2.4-0.9-4.9-2.5-6.5c-0.4-0.4-0.9-0.6-1.4-0.8
		l-1.8-0.5c-1.2-0.3-2.5-0.7-3.6-1.4c-2.4-1.4-3-4.2-3.3-6.6l0.2,0c0.4,2.4,1.3,5,3.4,6.1c1,0.6,2.2,0.8,3.4,1.1l1.8,0.4
		c0.7,0.2,1.3,0.5,1.9,1c2,2,2.5,4.7,3.1,7.1c0.5,2.5,0.8,5,1,7.5l0.8,7.4c0.1,1.3,0.3,2.5,0.3,3.9c0,1.4-0.4,2.8-1,4
		c-1.2,2.4-2.8,4.4-4.3,6.4c-1.6,2-3.2,3.9-4.8,5.8l-2.5,2.8c-0.9,0.9-1.8,1.8-2.7,2.7c-0.9,0.9-1.9,1.7-2.9,2.5
		c-1,0.8-1.9,1.6-3,2.3c-4.1,3-8.3,5.7-12.6,8.2c-8.7,5-17.6,9.6-26.5,14l-26.9,13.1c-4.4,2.3-8.9,4.5-13,7.2
		c-4.1,2.7-7.9,6-11.6,9.2c-15,13.1-29.1,27.2-43.1,41.4L646.8,1027z"/>
	<rect x="645.2" y="1032.4" class="st22" width="4.8" height="161.9"/>
	<path class="st22" d="M788.4,1135.8c-0.9-5.4-20.8-133.4-3-169.7c9.3-19.1,22.1-28.7,31.1-33.3c9.8-5.1,17.4-5.6,17.7-5.6l0.2,2.4
		c-0.3,0-29.5,2.3-46.8,37.6c-17.4,35.6,3,167,3.2,168.3L788.4,1135.8z"/>
	<path class="st23" d="M740.9,833.7c1.5,2.5,2.8,5.1,3.8,7.8c1.1,2.7,2,5.5,2.7,8.4c1.1,5.8,1.4,11.7,1.1,17.5
		c-0.4,6-2.2,11.7-4.5,17.1c-2.5,5.3-5.2,10.5-8.4,15.3c-6.2,9.8-13.4,19-20.7,27.9c-3.7,4.5-7.4,8.9-11.1,13.3l-12.1,12.5
		c3.3-4.8,6.8-9.4,10.2-14c3.7-4.4,7.5-8.8,11.1-13.3c7.3-8.9,14.4-18,20.5-27.7c3.2-4.8,5.8-9.9,8.2-15c2.2-5.2,3.9-10.6,4.3-16.2
		c0.3-5.7,0-11.4-1.1-16.9C744.4,844.7,743.1,839.1,740.9,833.7"/>
	<polygon class="st8" points="428.1,506.5 417.2,499.6 388.7,531.9 390.6,543.5 421.3,513.8 	"/>
	<polygon class="st8" points="800.1,506.5 811,499.6 839.5,531.9 837.6,543.5 806.9,513.8 	"/>
	<polygon class="st24" points="815.4,336.5 839.7,355.4 836.8,346 841.7,346 834.2,342 848.7,342 832,332.8 842.7,332.8 
		834.2,326.3 837.3,326.3 826.8,317.1 843.7,317.1 828.8,309.2 843,303.4 833.6,300.4 844.6,292.6 829.6,292.8 833.1,290 829,285.1 
		833.5,278.6 814.2,278.3 817.1,267.5 787.6,270.6 804.3,280.4 798.5,283.4 802,285.3 798.5,288.3 811.9,290.4 795.5,293.8 
		812.3,297.6 808.7,302 815.9,302 799.5,305.2 812.3,313 804.3,311.2 826.3,326.3 818.1,326.3 822.4,332.8 812.3,332.8 	"/>
	<polygon class="st24" points="455.7,290.4 451.9,286.3 452.7,291.3 444.7,285.2 446.6,290.4 430.3,277.7 441.9,292.8 432.1,288.5 
		437.3,297.8 426.9,292.5 431.8,302.4 419.5,292.5 427.5,309.9 416.3,299.5 417.5,309.3 405.8,302.5 412.2,316.1 408.3,314.1 
		405.5,319.8 397.8,318.5 405.6,336.1 394.5,338 409.8,363.5 411.6,344.3 416.7,348.2 417.1,344.2 421.2,346.2 417.5,333.2 
		427.5,346.6 423.9,329.8 429.4,331.2 424.2,318.4 440.8,324.5 438.5,309.6 452.2,311.7 444.5,301 452,304.3 451.5,295.5 
		457.6,298.4 	"/>
	<path class="st25" d="M595.7,537.4l3.1-3.8c0,0,3-15,5.3-16.4c2.3-1.4,10-2.8,10-2.8s8.2,2.4,9.7,2.8c1.4,0.4,3.2,4.9,5.6,16.4
		c2.4,11.6,7.6-3.2,7.6-3.2l-2.4-21.5l-34.3-1.7l-6.8,11.4L595.7,537.4z"/>
	<path class="st26" d="M760.1,594c-28.5,24.9-76.6,14.7-90.1,2.1c-13.5-12.7-28.9-37.2-28.5-54.2c0.4-17,4.6-33.4,21.4-40.8
		c0,0,22.2-14.2,57.4-12.7c35.2,1.6,52.7,19.3,56.3,25.4C781.1,521.5,787.9,569.7,760.1,594 M558,596.1
		c-13.4,12.7-61.6,22.8-90.1-2.1c-27.8-24.3-20.9-72.6-16.5-80.1c3.6-6.1,21.1-23.8,56.3-25.4c35.2-1.6,57.4,12.7,57.4,12.7
		c16.8,7.4,21,23.8,21.4,40.8C586.9,558.9,571.5,583.4,558,596.1 M774.9,490.1c-23.3-9.2-57.2-11.5-82.2-7.7
		c-30.5,4.7-54.7,23.9-54.7,23.9s-4-4.4-7.9-4.7c-2.4-0.2-14.5-1.1-16.1-1.1c-1.5,0-13.6,0.8-16.1,1.1c-4,0.4-7.9,4.7-7.9,4.7
		s-24.2-19.2-54.7-23.9c-25-3.8-58.9-1.5-82.2,7.7c-7.6,3-36,9.5-36,9.5V517c0,0,11.7-3.3,16.6,7.1c2.4,5.1,2.1,40.8,21.1,67.5
		c15.5,21.8,39.6,27.3,66.8,26.1c44.5-2,65.6-37.4,77.1-84c0,0-14.2-17.4,15.3-17.3c29.5,0.1,15.3,17.3,15.3,17.3
		c11.4,46.6,32.6,82,77.1,84c27.2,1.2,51.3-4.3,66.8-26.1c19-26.7,18.7-62.3,21.1-67.5c5-10.4,16.6-7.1,16.6-7.1v-17.4
		C810.9,499.6,782.5,493,774.9,490.1"/>
	<path class="st27" d="M672.3,145.3L608.6,34.8l-71.2,105l-72.2-42.9l-12.9,9.3l35.4,123.9l-0.7,25.6c1.7-0.2,3.4-0.4,5.2-0.6
		c0.5-0.1,1.2-0.1,1.7-0.2c1.2-0.1,2.5-0.3,3.7-0.4c0.7-0.1,1.5-0.2,2.2-0.3c1-0.1,2.2-0.3,3.4-0.4c0.7-0.1,1.7-0.2,2.7-0.3
		c1-0.1,2.2-0.3,3.2-0.4c1-0.1,2-0.2,3-0.3c1-0.1,2.2-0.3,3.2-0.1c1-0.1,2-0.2,3-0.1c1-0.1,2.2-0.3,3.2-0.1c1-0.1,2-0.2,3.2-0.1
		c1.2-0.1,2.2,0,3.5-0.2c1-0.1,2.2,0,3.2-0.1c21.4-1,45.5-1.4,71.3-0.7c45.8,1.3,87,5.4,115.1,10.8l0.7-25.5l41.5-121.7l-13.1-9.4
		L672.3,145.3z"/>
	<polygon class="st28" points="738.5,179 760.5,114.4 747.2,105.3 672.3,145.3 666.1,172.5 	"/>
	<g>
		<path class="st27" d="M486.6,273.9c28.5-3.9,69.7-5.7,115.5-4.7c45.8,1.3,87,5.4,115.1,10.9l0.7-25.6l42.3-140.1l-92.6,48.9
			l-60-104.2L542.3,160l-89.7-53.8l34.8,142.2L486.6,273.9z"/>
	</g>
	<polygon class="st28" points="537.6,139.6 543.7,168 607.7,58.9 608.6,34.6 	"/>
	<g>
		<path class="st29" d="M602.9,242.4c-46.1-1.3-87.5,0.6-116,4.7l0.4,1.4l-0.7,25.5c28.5-3.9,69.7-5.8,115.5-4.7
			c45.8,1.3,87,5.4,115.1,10.8l0.7-25.5l0.3-1.3C690.4,247.8,649,243.7,602.9,242.4"/>
		<path class="st30" d="M531,269.9l127.5-123.2L608,59.1l-65.5,100.9l-90-53.8l34.8,142.2l-0.7,25.5
			C499.1,272.2,514.2,270.6,531,269.9"/>
		<path class="st27" d="M531,269.9l28.7-27.9c-28.4,0.4-53.7,2.1-72.8,4.9l0.4,1.4l-0.7,25.5C499.1,272.2,514.2,270.6,531,269.9"/>
		<path class="st31" d="M487.3,248.4l-0.7,25.5c7.1-1.1,15.3-1.8,23.7-2.5l1.2-2.1l0.5-25L481.6,124l-29.1-17.8L487.3,248.4z"/>
		<path class="st30" d="M486.9,246.9l0.4,1.4l-0.7,25.5c7.1-1.1,15.3-1.8,23.9-2.6l1-2.1l0.6-24.8C502.9,245,494.5,246,486.9,246.9"
			/>
		<path class="st24" d="M427.8,410l-10.8-37.1h5.4l-5.4-6h5.4l5.4-11.6l-10.8-10.5l17.5,5.4v-7.7h12.8l-25.5-30.3l38.8,26.2l-5.2-14
			l9,8.9v-4.3l5,3.5l14.3,1.6l-19.6-61.5l21.9,26.8c0,0-0.3-39.3,2.5-48.3c0,0,0,25,4.1,32.6l8.1-17.4l3.6,26.8
			c0,0-1.2-18.6,18.5-37.2l-5.2,17.4l43.4-37.2l-4.5,15.1l12.2-3.5V260l48.9-32l1.2,19.2l39.5-11.1l-14.5,10.5l46.8-15.3l-7.9,21.1
			H693l-6,5.8l45.2-1.7l-7.6,7.6l7.6,2.3l-5.2,4.1c0,0,32.8,3.5,38.2,3.5c5.4,0,12.4,5.8,12.4,5.8l-25.6,4.7l15.6,4l7.1,1.8
			l6.4,10.5h-15.9l28.7,12.8l9,12.8l-13.7-7l16.9,19.2l-12.8-5.8l18,25v11.6l12.2,6.4l9.3,15.7l-7.6-4.7l1.2,5.6l1.7,8.4l-7.6-3.5
			l9.3,26.7l-12.2-13.3l-4.1,13.3l1.1,13.8l0.6,7.2l-12.5-11v11.3c0,0-4-69.7-18.9-84.5c-16.6-16.5-52-35.1-131.1-36.2
			c-79.1-1.2-115.2,0.8-153.4,13.8C465.1,349.8,431.3,349.3,427.8,410"/>
		<path class="st32" d="M784.4,344.7c-3.8-2.6-16.7-7.9-16.7-7.9l1.6-3.2l-43.2-4.6l17.6-6.5l-48.8,1.6l21.2-14.3
			c0,0-42.2,3.8-49.3,2.4l10.7-13.8l-79.8,10.1l11.3-25.1l-51.7,26.4l-3.7-30.8l-26,38.4l-32.6-39.2l1.7,45.7c-2.5,0.6,1,0.9,1,0.9
			l-22.1-30.5l15.3,44.5l-19.5-14.1l10.6,16.6l-17.8-8.1l9.8,10l-16-2.3l2.2,8.7l-18,2.1l2.5,7.1l-6,6.3l-10.4,0.8l5.1,6.6l-6.1,2.7
			l4.6,4.2l-5.4,2.8l5.6,0.1c0,0,5.3-17.6,18-25.7c17.3-11,45.9-17,46.7-17.2c119.9-21.1,245.4,4.9,274,14.5
			c25.9,8.6,30,69.9,30,69.9S807.4,360.4,784.4,344.7"/>
		<path class="st17" d="M504.3,332.8c0,0,7.6-54.3,9.4-61.5v51.6l13.8-35.8l-2.3,29.6l7.3-14.6v18.9l19.6-46.6l-2.8,42.7
			c0,0,11.3-16.5,11.7-17.7c0.4-1.2-3.5,17.3-3.5,17.3l41.9-54.3l-17.2,42.4l5.4-2.7l-4.6,16.6l21.5-3.8c0,0-27.3,12.7-41.5,13.8
			C548.7,329.7,517.3,328.5,504.3,332.8"/>
		<path class="st33" d="M595.6,320.8c0,0,32,20.7,52.6,22.2l-34-18.6l62.7,16.1l-36.3-17l53.7,4C694.2,327.5,654,314.6,595.6,320.8"
			/>
		<path class="st17" d="M624.9,285.6c0,0,25-22,34.2-27.7c9.2-5.7,21.8-18.6,21.8-18.6l-22,32l46.4-19.1l-20.1,19.1
			c0,0,53.3-4.2,63.4-5.2c10-1.1,0,10.6,0,10.6l32.8,9l-56.8,12.8L687,302v-15.7L624.9,285.6z"/>
	</g>
	<path class="st22" d="M436.4,1136l-2.4-0.4c0.2-1.3,22-132.4,5-168.2c-16.9-35.5-46.1-38.1-46.4-38.1l0.2-2.4
		c0.3,0,7.9,0.6,17.6,5.8c9,4.8,21.6,14.5,30.8,33.7C458.6,1002.8,437.3,1130.6,436.4,1136"/>
	<path class="st18" d="M618.2,1056.8c-8.6,14.8-5.4,114.7-5.2,125.4h5.5c-4.9-167.8,2.4-126.2,2.4-126.2L618.2,1056.8z"/>
	<path class="st18" d="M604.5,1182h4.2c0,0,5.8-109.5-2.9-124.9l-2.7-0.9"/>
</g>
</svg>
