<?xml version="1.0" encoding="utf-8"?>
<!-- Generator: Adobe Illustrator 23.1.1, SVG Export Plug-In . SVG Version: 6.00 Build 0)  -->
<svg version="1.1" id="Layer_1" xmlns="http://www.w3.org/2000/svg" xmlns:xlink="http://www.w3.org/1999/xlink" x="0px" y="0px"
	 viewBox="0 0 831.6 831.6" style="enable-background:new 0 0 831.6 831.6;" xml:space="preserve">
<style type="text/css">
	.st0{fill:#00A39C;}
	.st1{fill:#00B3AB;}
	.st2{opacity:0.3;fill:#213A38;}
	.st3{fill:#FFFFFF;}
	.st4{opacity:0.3;fill:#231F20;}
	.st5{fill:#4C2974;}
	.st6{fill:#E9BE40;}
	.st7{fill:#452369;}
	.st8{fill:#B7EAE6;}
	.st9{fill:#DDEED6;}
	.st10{fill:#6DAAAA;}
	.st11{fill:#DADBDC;}
	.st12{fill:#858789;}
	.st13{fill:#C32C76;}
	.st14{fill:#B0256B;}
	.st15{clip-path:url(#SVGID_2_);}
	.st16{fill:#AFB1B4;}
	.st17{fill:#BFA573;}
	.st18{fill:#D0B37D;}
	.st19{fill:#494032;}
	.st20{fill:#896B4E;}
	.st21{fill:#2A1D01;}
	.st22{fill:#00B4AC;}
	.st23{fill:#F4F4F4;}
	.st24{fill:#DBDCDD;}
	.st25{fill:#272524;}
	.st26{fill:#393735;}
	.st27{fill:#4F4C49;}
	.st28{fill:#0095DA;}
	.st29{fill:#1B88C0;}
	.st30{clip-path:url(#SVGID_4_);}
	.st31{fill:#F05A24;}
	.st32{fill:#DA5222;}
	.st33{clip-path:url(#SVGID_6_);}
</style>
<g id="Layer_3">
</g>
<g>
	<g>
		<g>
			<circle class="st0" cx="414.5" cy="414.5" r="414.5"/>
		</g>
		<circle class="st0" cx="414.5" cy="414.5" r="414.5"/>
	</g>
	<path class="st1" d="M707.6,121.4c-161.9-161.9-424.3-161.9-586.2,0l586.2,586.2C869.5,545.7,869.5,283.3,707.6,121.4z"/>
</g>
<g>
	<g>
		<rect x="182.6" y="167" class="st2" width="308.8" height="379.2"/>
		<rect x="194.2" y="177.6" class="st3" width="308.8" height="377.4"/>
		<g>
			<path class="st4" d="M450.3,426.7h-79.2V319.5h78.7c1.5,0,2.6,1.2,2.6,2.6v102.4C452.5,425.7,451.5,426.7,450.3,426.7z"/>
			<path class="st5" d="M449,425.4h-79.1V318.3h77.9c1.9,0,3.4,1.5,3.4,3.4v101.5C451.3,424.4,450.3,425.4,449,425.4z"/>
			<rect x="387.8" y="346.5" class="st6" width="45.5" height="5.9"/>
			<path class="st7" d="M451.3,419.6v-32.7L369.9,356v69.3h75.6C448.7,425.4,451.3,422.8,451.3,419.6z"/>
			<rect x="399.1" y="334.5" class="st6" width="22.8" height="1.6"/>
			<rect x="405" y="407.3" class="st6" width="10.9" height="5.9"/>
			<g>
				<path class="st4" d="M394.6,394.9l11.1-42.9c0.5-1.9,2.5-3.1,4.4-2.6l61.1,15.8c1.9,0.5,3.1,2.5,2.6,4.4l-11.1,42.9
					c-0.5,1.9-2.5,3.1-4.4,2.6l-61.1-15.8C395.2,398.8,394.1,396.8,394.6,394.9z"/>
				<path class="st8" d="M393.9,394.1l11.2-43.4c0.5-1.8,2.3-2.9,4.1-2.4l61.6,15.9c1.8,0.5,2.9,2.3,2.4,4.1l-11.2,43.4
					c-0.5,1.8-2.3,2.9-4.1,2.4l-61.6-15.9C394.5,397.8,393.4,395.9,393.9,394.1z"/>
				<path class="st9" d="M409.6,348.4c-2-0.5-4.1,0.7-4.6,2.7l-11,42.5c-0.5,2,0.7,4.1,2.7,4.6l0.7,0.2l56.9-38.6L409.6,348.4z"/>
				
					<rect x="435.1" y="361.8" transform="matrix(0.2444 -0.9697 0.9697 0.2444 -40.9091 712.2862)" class="st10" width="3.1" height="41.2"/>
				
					<rect x="426.7" y="375.9" transform="matrix(0.2444 -0.9697 0.9697 0.2444 -55.6756 710.6963)" class="st10" width="3.1" height="30.4"/>
			</g>
		</g>
		<g>
			<rect x="235.6" y="454.9" class="st11" width="84.6" height="11.6"/>
		</g>
		<g>
			<rect x="235.6" y="487" class="st11" width="70.5" height="11.6"/>
		</g>
		<g>
			<rect x="369.9" y="454.9" class="st11" width="84.6" height="11.6"/>
		</g>
		<g>
			<rect x="369.9" y="487" class="st11" width="70.5" height="11.6"/>
		</g>
		<g>
			<rect x="235.6" y="227.7" class="st12" width="114.2" height="11.6"/>
		</g>
		<g>
			<rect x="235.6" y="265.4" class="st11" width="207.5" height="11.6"/>
		</g>
		<g>
			<rect x="235.6" y="317.7" class="st13" width="87.1" height="107.3"/>
			<polygon class="st14" points="235.6,373.9 235.6,426.7 322.7,426.7 322.7,378 			"/>
			<g>
				<defs>
					<rect id="SVGID_1_" x="235.6" y="319.4" width="87.1" height="107.3"/>
				</defs>
				<clipPath id="SVGID_2_">
					<use xlink:href="#SVGID_1_"  style="overflow:visible;"/>
				</clipPath>
				<g class="st15">
					<path class="st16" d="M272.4,405.1c0,0-1.3-6.5-0.5-7c0.8-0.6,10.5-2,14.6-0.3l0.7,7.3l-12.9,5.8L272.4,405.1z"/>
					<path class="st17" d="M299.1,408.9c0,0-0.6-3-5.5-4.6c-4.9-1.6-8.6-3.3-8.6-6.7c0-3.5,0-9.1,0-9.1h-5.9h-5.9c0,0,0,5.7,0,9.1
						c0,3.5-3.7,5.1-8.6,6.7c-4.9,1.6-5.5,4.6-5.5,4.6l-13.4,30.6h8.4l8-17.4l3.3,17.4h13.7h13.7l3.3-17.4l8,17.4h8.4L299.1,408.9z"
						/>
					<path class="st18" d="M300.4,362.1c0,16.9-6,30.7-21.4,30.7c-15.4,0-21.1-14-21.1-30.8c0-16.9,14.3-20.3,21.4-20.3
						C286.3,341.7,300.4,345.2,300.4,362.1z"/>
					<path class="st19" d="M271.4,382.6c2.3,1.4,4.8,1.6,7.4,1.6c2.5,0,5-0.3,7.4-1.6c-0.9,1-3.4,2.9-7.4,2.9
						S272.2,383.8,271.4,382.6z"/>
					<path class="st20" d="M274,372.9c0,2.3-1.9,4.2-4.2,4.2c-2.3,0-4.2-1.9-4.2-4.2c0-2.3,1.9-4.2,4.2-4.2
						C272.1,368.7,274,370.6,274,372.9z"/>
					<path class="st21" d="M272.9,372.9c0,1.6-1.3,2.9-2.9,2.9c-1.6,0-2.9-1.3-2.9-2.9c0-1.6,1.3-2.9,2.9-2.9
						C271.5,370,272.9,371.3,272.9,372.9z"/>
					<path class="st3" d="M268.7,371.4c0,0.5-0.4,0.9-0.8,0.9c-0.5,0-0.8-0.4-0.8-0.9s0.4-0.8,0.8-0.8
						C268.3,370.5,268.7,370.9,268.7,371.4z"/>
					<path class="st20" d="M284.3,372.9c0,2.3,1.9,4.2,4.2,4.2c2.3,0,4.2-1.9,4.2-4.2c0-2.3-1.9-4.2-4.2-4.2
						C286.3,368.7,284.3,370.6,284.3,372.9z"/>
					<path class="st21" d="M285.4,372.9c0,1.6,1.3,2.9,2.9,2.9c1.6,0,2.9-1.3,2.9-2.9c0-1.6-1.3-2.9-2.9-2.9
						C286.8,370,285.4,371.3,285.4,372.9z"/>
					<path class="st3" d="M285.6,371.4c0,0.5,0.4,0.9,0.8,0.9c0.5,0,0.8-0.4,0.8-0.9s-0.4-0.8-0.8-0.8
						C286,370.5,285.6,370.9,285.6,371.4z"/>
					<path class="st22" d="M300.5,406.1c0,0-0.3-0.6-1.9-1.3c-2.2-1-2.2-1-10.3-3.8l-9.2,6.9l-9.2-6.9c-8,2.8-8,2.8-10.3,3.8
						c-1.6,0.7-1.9,1.3-1.9,1.3l-12.7,33.4h9.6l7.3-15.5l1.2,15.5l15.7,0.4l0,0l0.3,0l0.3,0l0,0l15.7-0.4l1.2-15.5l7.3,15.5h9.6
						L300.5,406.1z"/>
					<path class="st23" d="M271.8,398.1c0.2,2.6,7.4,9.7,7.4,9.7s7.6-6.3,7.3-10l3.4,3.7c0,2.8-6.5,11.9-6.5,11.9l-4.1-5.4l-4,5.6
						c0,0-6.9-8.2-6.9-12.1L271.8,398.1z"/>
					<g>
						<path class="st24" d="M275.3,414l-0.2-0.2c-0.3-0.3-7-8.3-7-12.3h0.5c0,3.4,5.5,10.4,6.7,11.7l4-5.6l4.1,5.4
							c1.1-1.4,6.6-9,6.6-11.5l0.5,0.2c0,2.9-6.6,11.5-6.8,11.8l-0.2,0.2l-4.1-5.4L275.3,414z"/>
					</g>
					<path class="st25" d="M301,355.6c-0.1-0.7-0.3-1.3-0.5-2c-0.2-0.6-0.4-2-0.4-2s-0.3-0.1-0.4-0.2c-0.2-0.4-0.3-1.5-0.3-1.5
						s-1.1-0.9-1.6-1.6c-0.4-0.4-1.5-1.8-1.5-1.8l-0.5,0l-1.4-1c0,0-0.7-1.1-1.1-1.5c-0.2-0.1-0.6,0.2-0.7,0
						c-0.3-0.2-0.8-0.6-0.8-0.6l-0.6-0.8l-1.9-0.5c0,0-0.4-0.3-0.7-0.4c-0.4-0.1-1.4,0.1-1.4,0.1l-0.5-0.5l-1.7,0.2l-1.2-0.6
						l-0.5,0.4l-1.1-0.1c0,0-0.5-0.3-0.7-0.3c-0.3,0-1,0.1-1,0.1s-0.8-0.3-1.2-0.3c-0.6,0-2.2,0.4-2.2,0.4l-0.8-0.1l-1.3,0.4
						c0,0-0.7-0.1-1-0.1c-0.4,0.1-1.1,0.4-1.1,0.4l-1.2,0l-0.5,0.2l-1.1-0.1l-0.8,0.4c0,0-0.5-0.1-0.7,0c-0.1,0-0.3-0.1-0.3-0.1
						l-1.2,0.9l-1,0.7l-0.5,0c0,0-0.3,0.7-0.6,0.9c-0.3,0.3-1.1,0.5-1.4,0.7c-0.2,0.2,0,0.3-0.3,0.5c-0.1,0.1-0.7,0.2-0.8,0.2
						c-0.2,0.1,0.1,0.3-0.1,0.4c-0.7,0.5-1.4,1.1-1.8,1.6c-0.3,0.3-0.6,0.7-0.8,1.1c-0.5,0.7-0.9,1.5-1.2,2.3
						c-0.1,0.3-0.2,0.6-0.4,0.9c-0.4,1-0.6,2-0.9,3.1c-0.3,1.6-0.1,3.2-0.1,4.9c-0.3,10.1,2.5,15.8,2.5,15.8
						c2.1-1.5-0.6-14.1,5.7-18.3c2-1.3,12.6-1.4,13.8-1.4s11.7,0.1,13.7,1.4c6.3,4.2,3.7,16.7,5.7,18.3c0,0,2.9-5.7,2.5-15.8
						C301.1,358.8,301.4,357.1,301,355.6z"/>
					<path class="st26" d="M298.7,369.3c0,0-0.4-0.6-0.5-2c-0.3-3.4-1.1-9.8-2.4-10.9c-1.8-1.5-5.5-0.7-6.4-0.7
						c-0.9,0-4.1-0.9-4.8-1.8c0,0-2.9,1-5.4,1c-2.5,0-3.9-1-3.9-1s-2.4,1.2-3.2,1.2s-1.9-0.6-1.9-0.6s-0.1,0.7-0.9,1
						c-1.4,0.7-5-0.2-5.7,0.7c-0.7,0.9-2.8,3.4-3,7.9c-0.1,4.4-1-0.5-1-0.9s0.6-7,0.8-7.2c0.3-0.2,1.3-0.8,1.3-0.8s-1.3-2.5,0.8-4.4
						c0.6-0.5,3.6,0,3.6,0s-0.3-3.5,0.9-4.1c1.2-0.6,2.7,0.7,4.4-0.2c2.7-1.3,3.7,2.3,4.6,1.6c0.9-0.6,1.2-3.8,3.4-2.6
						c4.4,2.3,2.6,0,5.7,0.4s2,1.8,4.2,3.1c2.3,1.3,4.1,0.3,4.7,1s0.8,3.6,3.6,4.7c2.8,1.1,1.2,11.3,1.3,12
						C299.1,367.6,299.3,369.3,298.7,369.3z"/>
					<path class="st27" d="M274.7,353.3c0,0-2.1,1.3-2.9,1.3s-1.9-1.5-2-3.2c0,0,1.1,2.2,1.7,2.4c0.6,0.1,0.5-1.3,1.1-1.1
						s1,0.5,1.3,0.3c0.7-0.4-0.3-5.8-2-8.5C271.8,344.6,275.9,351.2,274.7,353.3z"/>
					<path class="st27" d="M284.7,349.6c0,0-0.1,3.5-1.3,3.7s0-10.3,0-10.3s-1,6.8-1.1,7.7c-0.1,0.9-0.5,1.3-0.9,1.3
						c-0.3,0,0.1,1.3-0.3,1.5c-0.4,0.2-1.4,0.4-1.7-1.1c0,0-0.1,1.5,1,1.7s3.6-0.3,4-0.8C285,352.8,285,350.5,284.7,349.6z"/>
					<path class="st27" d="M264.9,354.8c0.5,0,1,0,1.5,0c0.5,0,1,0,1.5,0c0.2,0,0.5,0,0.7-0.1c0.2,0,0.3-0.2,0.4-0.4
						c0.1-0.2,0.1-0.5,0-0.7c0-0.2-0.1-0.5-0.2-0.7c0.2,0.2,0.3,0.4,0.4,0.7c0.1,0.3,0.1,0.5,0.1,0.8c0,0.1-0.1,0.3-0.2,0.4
						c-0.1,0.1-0.1,0.1-0.2,0.2c-0.1,0-0.2,0.1-0.2,0.1c-0.3,0.1-0.5,0.1-0.8,0.1c-0.5,0-1,0-1.6-0.1
						C265.9,355,265.4,354.9,264.9,354.8z"/>
					<path class="st27" d="M286.2,347.2c-0.1,1.2-0.2,2.4-0.2,3.5c0,0.6,0,1.2,0.1,1.7c0,0.3,0.1,0.6,0.1,0.8
						c0.1,0.3,0.2,0.5,0.3,0.7c0.1,0.1,0.2,0.2,0.3,0.3c0.1,0.1,0.2,0.1,0.3,0.2c0.2,0.1,0.5,0.1,0.7,0.1c0.1,0,0.3-0.1,0.4-0.1
						c0.1,0,0.3-0.1,0.5-0.1c0,0,0.1,0,0.2,0c0.1,0,0.1,0,0.2,0.1c0.1,0,0.1,0.1,0.1,0.1c0,0,0.1,0.1,0.1,0.1
						c0.1,0.1,0.1,0.2,0.1,0.2c0,0.1,0,0,0.1,0.1c0.1,0,0.2,0.1,0.4,0.1c0.1,0,0.3,0,0.4,0c0.3,0,0.6,0,0.8-0.1
						c0.6-0.1,1.1-0.4,1.6-0.8c-0.4,0.4-0.9,0.8-1.5,1c-0.3,0.1-0.6,0.2-0.9,0.2c-0.2,0-0.3,0-0.5,0c-0.2,0-0.3,0-0.5-0.1
						c0,0-0.1-0.1-0.2-0.1c0,0,0-0.1-0.1-0.1l0-0.1c0-0.1,0-0.1-0.1-0.1c0,0,0,0-0.1,0c0,0,0,0-0.1,0c0,0,0,0-0.1,0c0,0,0,0-0.1,0
						c-0.2,0-0.5,0.2-0.8,0.2c-0.3,0.1-0.7,0-1-0.1c-0.2-0.1-0.3-0.1-0.4-0.2c-0.1-0.1-0.3-0.2-0.4-0.3c-0.2-0.3-0.3-0.6-0.4-0.9
						c-0.1-0.3-0.1-0.6-0.1-0.9c0-0.6,0-1.2,0-1.8C285.7,349.6,285.9,348.4,286.2,347.2z"/>
				</g>
			</g>
		</g>
	</g>
	<g>
		<rect x="254.3" y="220.5" class="st2" width="308.8" height="379.2"/>
		<rect x="265.9" y="231.1" class="st3" width="308.8" height="377.4"/>
		<g>
			<path class="st4" d="M522,480.2h-79.2V373h78.7c1.5,0,2.6,1.2,2.6,2.6V478C524.2,479.2,523.2,480.2,522,480.2z"/>
			<path class="st5" d="M520.7,479h-79.1V371.8h77.9c1.9,0,3.4,1.5,3.4,3.4v101.5C523,478,522,479,520.7,479z"/>
			<rect x="459.5" y="400.1" class="st6" width="45.5" height="5.9"/>
			<path class="st7" d="M523,473.1v-32.7l-81.4-30.9v69.3h75.6C520.4,478.9,523,476.3,523,473.1z"/>
			<rect x="470.8" y="388.1" class="st6" width="22.8" height="1.6"/>
			<rect x="476.7" y="460.9" class="st6" width="10.9" height="5.9"/>
			<g>
				<path class="st4" d="M466.3,448.4l11.1-42.9c0.5-1.9,2.5-3.1,4.4-2.6l61.1,15.8c1.9,0.5,3.1,2.5,2.6,4.4L534.5,466
					c-0.5,1.9-2.5,3.1-4.4,2.6l-61.1-15.8C466.9,452.3,465.8,450.4,466.3,448.4z"/>
				<path class="st8" d="M465.6,447.7l11.2-43.4c0.5-1.8,2.3-2.9,4.1-2.4l61.6,15.9c1.8,0.5,2.9,2.3,2.4,4.1l-11.2,43.4
					c-0.5,1.8-2.3,2.9-4.1,2.4L468,451.8C466.2,451.3,465.1,449.5,465.6,447.7z"/>
				<path class="st9" d="M481.3,402c-2-0.5-4.1,0.7-4.6,2.7l-11,42.5c-0.5,2,0.7,4.1,2.7,4.6l0.7,0.2l56.9-38.6L481.3,402z"/>
				
					<rect x="506.8" y="415.3" transform="matrix(0.2444 -0.9697 0.9697 0.2444 -38.6294 822.2664)" class="st10" width="3.1" height="41.2"/>
				
					<rect x="498.4" y="429.4" transform="matrix(0.2444 -0.9697 0.9697 0.2444 -53.3958 820.6766)" class="st10" width="3.1" height="30.4"/>
			</g>
		</g>
		<g>
			<rect x="307.3" y="508.4" class="st11" width="84.6" height="11.6"/>
		</g>
		<g>
			<rect x="307.3" y="540.5" class="st11" width="70.5" height="11.6"/>
		</g>
		<g>
			<rect x="441.6" y="508.4" class="st11" width="84.6" height="11.6"/>
		</g>
		<g>
			<rect x="441.6" y="540.5" class="st11" width="70.5" height="11.6"/>
		</g>
		<g>
			<rect x="307.3" y="281.2" class="st12" width="114.2" height="11.6"/>
		</g>
		<g>
			<rect x="307.3" y="318.9" class="st11" width="207.5" height="11.6"/>
		</g>
		<g>
			<rect x="307.3" y="371.3" class="st28" width="87.1" height="107.3"/>
			<polygon class="st29" points="307.3,427.4 307.3,480.2 394.4,480.2 394.4,431.6 			"/>
			<g>
				<defs>
					<rect id="SVGID_3_" x="307.3" y="372.9" width="87.1" height="107.3"/>
				</defs>
				<clipPath id="SVGID_4_">
					<use xlink:href="#SVGID_3_"  style="overflow:visible;"/>
				</clipPath>
				<g class="st30">
					<path class="st16" d="M344.1,458.7c0,0-1.3-6.5-0.5-7c0.8-0.6,10.5-2,14.6-0.3l0.7,7.3l-12.9,5.8L344.1,458.7z"/>
					<path class="st17" d="M370.8,462.4c0,0-0.6-3-5.5-4.6c-4.9-1.6-8.6-3.3-8.6-6.7c0-3.5,0-9.1,0-9.1h-5.9H345c0,0,0,5.7,0,9.1
						c0,3.5-3.7,5.1-8.6,6.7c-4.9,1.6-5.5,4.6-5.5,4.6L317.5,493h8.4l8-17.4l3.3,17.4h13.7h13.7l3.3-17.4l8,17.4h8.4L370.8,462.4z"
						/>
					<path class="st18" d="M372.1,415.6c0,16.9-6,30.7-21.4,30.7c-15.4,0-21.1-14-21.1-30.8c0-16.9,14.3-20.3,21.4-20.3
						C358,395.2,372.1,398.7,372.1,415.6z"/>
					<path class="st19" d="M343.1,436.2c2.3,1.4,4.8,1.6,7.4,1.6c2.5,0,5-0.3,7.4-1.6c-0.9,1-3.4,2.9-7.4,2.9
						S343.9,437.3,343.1,436.2z"/>
					<path class="st20" d="M345.7,426.4c0,2.3-1.9,4.2-4.2,4.2c-2.3,0-4.2-1.9-4.2-4.2c0-2.3,1.9-4.2,4.2-4.2
						C343.8,422.2,345.7,424.1,345.7,426.4z"/>
					<path class="st21" d="M344.6,426.4c0,1.6-1.3,2.9-2.9,2.9c-1.6,0-2.9-1.3-2.9-2.9c0-1.6,1.3-2.9,2.9-2.9
						C343.3,423.5,344.6,424.8,344.6,426.4z"/>
					<path class="st3" d="M340.4,424.9c0,0.5-0.4,0.9-0.8,0.9c-0.5,0-0.8-0.4-0.8-0.9s0.4-0.8,0.8-0.8
						C340,424.1,340.4,424.4,340.4,424.9z"/>
					<path class="st20" d="M356.1,426.4c0,2.3,1.9,4.2,4.2,4.2c2.3,0,4.2-1.9,4.2-4.2c0-2.3-1.9-4.2-4.2-4.2
						C358,422.2,356.1,424.1,356.1,426.4z"/>
					<path class="st21" d="M357.2,426.4c0,1.6,1.3,2.9,2.9,2.9c1.6,0,2.9-1.3,2.9-2.9c0-1.6-1.3-2.9-2.9-2.9
						C358.5,423.5,357.2,424.8,357.2,426.4z"/>
					<path class="st3" d="M357.3,424.9c0,0.5,0.4,0.9,0.8,0.9c0.5,0,0.8-0.4,0.8-0.9s-0.4-0.8-0.8-0.8
						C357.7,424.1,357.3,424.4,357.3,424.9z"/>
					<path class="st22" d="M372.2,459.6c0,0-0.3-0.6-1.9-1.3c-2.2-1-2.2-1-10.3-3.8l-9.2,6.9l-9.2-6.9c-8,2.8-8,2.8-10.3,3.8
						c-1.6,0.7-1.9,1.3-1.9,1.3L316.8,493h9.6l7.3-15.5l1.2,15.5l15.7,0.4l0,0l0.3,0l0.3,0l0,0l15.7-0.4l1.2-15.5l7.3,15.5h9.6
						L372.2,459.6z"/>
					<path class="st23" d="M343.5,451.6c0.2,2.6,7.4,9.7,7.4,9.7s7.6-6.3,7.3-10l3.4,3.7c0,2.8-6.5,11.9-6.5,11.9l-4.1-5.4l-4,5.6
						c0,0-6.9-8.2-6.9-12.1L343.5,451.6z"/>
					<g>
						<path class="st24" d="M347,467.5l-0.2-0.2c-0.3-0.3-7-8.3-7-12.3h0.5c0,3.4,5.5,10.4,6.7,11.7l4-5.6l4.1,5.4
							c1.1-1.4,6.6-9,6.6-11.5l0.5,0.2c0,2.9-6.6,11.5-6.8,11.8l-0.2,0.2l-4.1-5.4L347,467.5z"/>
					</g>
					<path class="st25" d="M372.8,409.1c-0.1-0.7-0.3-1.3-0.5-2c-0.2-0.6-0.4-2-0.4-2s-0.3-0.1-0.4-0.2c-0.2-0.4-0.3-1.5-0.3-1.5
						s-1.1-0.9-1.6-1.6c-0.4-0.4-1.5-1.8-1.5-1.8l-0.5,0l-1.4-1c0,0-0.7-1.1-1.1-1.5c-0.2-0.1-0.6,0.2-0.7,0
						c-0.3-0.2-0.8-0.6-0.8-0.6l-0.6-0.8l-1.9-0.5c0,0-0.4-0.3-0.7-0.4c-0.4-0.1-1.4,0.1-1.4,0.1l-0.5-0.5l-1.7,0.2l-1.2-0.6
						l-0.5,0.4l-1.1-0.1c0,0-0.5-0.3-0.7-0.3c-0.3,0-1,0.1-1,0.1s-0.8-0.3-1.2-0.3c-0.6,0-2.2,0.4-2.2,0.4l-0.8-0.1l-1.3,0.4
						c0,0-0.7-0.1-1-0.1c-0.4,0.1-1.1,0.4-1.1,0.4l-1.2,0l-0.5,0.2l-1.1-0.1l-0.8,0.4c0,0-0.5-0.1-0.7,0c-0.1,0-0.3-0.1-0.3-0.1
						l-1.2,0.9l-1,0.7l-0.5,0c0,0-0.3,0.7-0.6,0.9c-0.3,0.3-1.1,0.5-1.4,0.7c-0.2,0.2,0,0.3-0.3,0.5c-0.1,0.1-0.7,0.2-0.8,0.2
						c-0.2,0.1,0.1,0.3-0.1,0.4c-0.7,0.5-1.4,1.1-1.8,1.6c-0.3,0.3-0.6,0.7-0.8,1.1c-0.5,0.7-0.9,1.5-1.2,2.3
						c-0.1,0.3-0.2,0.6-0.4,0.9c-0.4,1-0.6,2-0.9,3.1c-0.3,1.6-0.1,3.2-0.1,4.9c-0.3,10.1,2.5,15.8,2.5,15.8
						c2.1-1.5-0.6-14.1,5.7-18.3c2-1.3,12.6-1.4,13.8-1.4c1.2,0,11.7,0.1,13.7,1.4c6.3,4.2,3.7,16.7,5.7,18.3c0,0,2.9-5.7,2.5-15.8
						C372.8,412.3,373.1,410.7,372.8,409.1z"/>
					<path class="st26" d="M370.4,422.8c0,0-0.4-0.6-0.5-2c-0.3-3.4-1.1-9.8-2.4-10.9c-1.8-1.5-5.5-0.7-6.4-0.7
						c-0.9,0-4.1-0.9-4.8-1.8c0,0-2.9,1-5.4,1c-2.5,0-3.9-1-3.9-1s-2.4,1.2-3.2,1.2s-1.9-0.6-1.9-0.6s-0.1,0.7-0.9,1
						c-1.4,0.7-5-0.2-5.7,0.7c-0.7,0.9-2.8,3.4-3,7.9c-0.1,4.4-1-0.5-1-0.9c0-0.4,0.6-7,0.8-7.2c0.3-0.2,1.3-0.8,1.3-0.8
						s-1.3-2.5,0.8-4.4c0.6-0.5,3.6,0,3.6,0s-0.3-3.5,0.9-4.1c1.2-0.6,2.7,0.7,4.4-0.2c2.7-1.3,3.7,2.3,4.6,1.6
						c0.9-0.6,1.2-3.8,3.4-2.6c4.4,2.3,2.6,0,5.7,0.4s2,1.8,4.2,3.1c2.3,1.3,4.1,0.3,4.7,1c0.7,0.7,0.8,3.6,3.6,4.7s1.2,11.3,1.3,12
						C370.8,421.1,371,422.8,370.4,422.8z"/>
					<path class="st27" d="M346.4,406.9c0,0-2.1,1.3-2.9,1.3c-0.8,0-1.9-1.5-2-3.2c0,0,1.1,2.2,1.7,2.4c0.6,0.1,0.5-1.3,1.1-1.1
						c0.5,0.3,1,0.5,1.3,0.3c0.7-0.4-0.3-5.8-2-8.5C343.5,398.1,347.7,404.7,346.4,406.9z"/>
					<path class="st27" d="M356.5,403.1c0,0-0.1,3.5-1.3,3.7s0-10.3,0-10.3s-1,6.8-1.1,7.7s-0.5,1.3-0.9,1.3c-0.3,0,0.1,1.3-0.3,1.5
						c-0.4,0.2-1.4,0.4-1.7-1.1c0,0-0.1,1.5,1,1.7s3.6-0.3,4-0.8C356.7,406.3,356.7,404.1,356.5,403.1z"/>
					<path class="st27" d="M336.6,408.3c0.5,0,1,0,1.5,0c0.5,0,1,0,1.5,0c0.2,0,0.5,0,0.7-0.1c0.2,0,0.3-0.2,0.4-0.4
						c0.1-0.2,0.1-0.5,0-0.7c0-0.2-0.1-0.5-0.2-0.7c0.2,0.2,0.3,0.4,0.4,0.7c0.1,0.3,0.1,0.5,0.1,0.8c0,0.1-0.1,0.3-0.2,0.4
						c-0.1,0.1-0.1,0.1-0.2,0.2c-0.1,0-0.2,0.1-0.2,0.1c-0.3,0.1-0.5,0.1-0.8,0.1c-0.5,0-1,0-1.6-0.1
						C337.6,408.6,337.1,408.5,336.6,408.3z"/>
					<path class="st27" d="M357.9,400.8c-0.1,1.2-0.2,2.4-0.2,3.5c0,0.6,0,1.2,0.1,1.7c0,0.3,0.1,0.6,0.1,0.8
						c0.1,0.3,0.2,0.5,0.3,0.7c0.1,0.1,0.2,0.2,0.3,0.3c0.1,0.1,0.2,0.1,0.3,0.2c0.2,0.1,0.5,0.1,0.7,0.1c0.1,0,0.3-0.1,0.4-0.1
						c0.1,0,0.3-0.1,0.5-0.1c0,0,0.1,0,0.2,0c0.1,0,0.1,0,0.2,0.1c0.1,0,0.1,0.1,0.1,0.1c0,0,0.1,0.1,0.1,0.1
						c0.1,0.1,0.1,0.2,0.1,0.2c0,0.1,0,0,0.1,0.1c0.1,0,0.2,0.1,0.4,0.1c0.1,0,0.3,0,0.4,0c0.3,0,0.6,0,0.8-0.1
						c0.6-0.1,1.1-0.4,1.6-0.8c-0.4,0.4-0.9,0.8-1.5,1c-0.3,0.1-0.6,0.2-0.9,0.2c-0.2,0-0.3,0-0.5,0c-0.2,0-0.3,0-0.5-0.1
						c0,0-0.1-0.1-0.2-0.1c0,0,0-0.1-0.1-0.1l0-0.1c0-0.1,0-0.1-0.1-0.1c0,0,0,0-0.1,0c0,0,0,0-0.1,0c0,0,0,0-0.1,0c0,0,0,0-0.1,0
						c-0.2,0-0.5,0.2-0.8,0.2c-0.3,0.1-0.7,0-1-0.1c-0.2-0.1-0.3-0.1-0.4-0.2c-0.1-0.1-0.3-0.2-0.4-0.3c-0.2-0.3-0.3-0.6-0.4-0.9
						c-0.1-0.3-0.1-0.6-0.1-0.9c0-0.6,0-1.2,0-1.8C357.4,403.1,357.6,401.9,357.9,400.8z"/>
				</g>
			</g>
		</g>
	</g>
	<g>
		<rect x="326" y="274" class="st2" width="308.8" height="379.2"/>
		<rect x="337.6" y="284.7" class="st3" width="308.8" height="377.4"/>
		<g>
			<path class="st4" d="M593.7,533.8h-79.2V426.6h78.7c1.5,0,2.6,1.2,2.6,2.6v102.4C595.9,532.8,595,533.8,593.7,533.8z"/>
			<path class="st5" d="M592.4,532.5h-79.1V425.3h77.9c1.9,0,3.4,1.5,3.4,3.4v101.5C594.7,531.5,593.7,532.5,592.4,532.5z"/>
			<rect x="531.2" y="453.6" class="st6" width="45.5" height="5.9"/>
			<path class="st7" d="M594.7,526.7V494l-81.4-30.9v69.3h75.6C592.1,532.4,594.7,529.8,594.7,526.7z"/>
			<rect x="542.5" y="441.6" class="st6" width="22.8" height="1.6"/>
			<rect x="548.5" y="514.4" class="st6" width="10.9" height="5.9"/>
			<g>
				<path class="st4" d="M538,501.9l11.1-42.9c0.5-1.9,2.5-3.1,4.4-2.6l61.1,15.8c1.9,0.5,3.1,2.5,2.6,4.4l-11.1,42.9
					c-0.5,1.9-2.5,3.1-4.4,2.6l-61.1-15.8C538.7,505.9,537.5,503.9,538,501.9z"/>
				<path class="st8" d="M537.3,501.2l11.2-43.4c0.5-1.8,2.3-2.9,4.1-2.4l61.6,15.9c1.8,0.5,2.9,2.3,2.4,4.1l-11.2,43.4
					c-0.5,1.8-2.3,2.9-4.1,2.4l-61.6-15.9C537.9,504.8,536.9,503,537.3,501.2z"/>
				<path class="st9" d="M553.1,455.5c-2-0.5-4.1,0.7-4.6,2.7l-11,42.5c-0.5,2,0.7,4.1,2.7,4.6l0.7,0.2l56.9-38.6L553.1,455.5z"/>
				
					<rect x="578.5" y="468.9" transform="matrix(0.2444 -0.9697 0.9697 0.2444 -36.3497 932.2466)" class="st10" width="3.1" height="41.2"/>
				
					<rect x="570.1" y="482.9" transform="matrix(0.2444 -0.9697 0.9697 0.2444 -51.116 930.6569)" class="st10" width="3.1" height="30.4"/>
			</g>
		</g>
		<g>
			<rect x="379" y="562" class="st11" width="84.6" height="11.6"/>
		</g>
		<g>
			<rect x="379" y="594" class="st11" width="70.5" height="11.6"/>
		</g>
		<g>
			<rect x="513.3" y="562" class="st11" width="84.6" height="11.6"/>
		</g>
		<g>
			<rect x="513.3" y="594" class="st11" width="70.5" height="11.6"/>
		</g>
		<g>
			<rect x="379" y="334.8" class="st12" width="114.2" height="11.6"/>
		</g>
		<g>
			<rect x="379" y="372.4" class="st11" width="207.5" height="11.6"/>
		</g>
		<g>
			<rect x="379" y="424.8" class="st31" width="87.1" height="107.3"/>
			<polygon class="st32" points="379,480.9 379,533.8 466.1,533.8 466.1,485.1 			"/>
			<g>
				<defs>
					<rect id="SVGID_5_" x="379" y="426.5" width="87.1" height="107.3"/>
				</defs>
				<clipPath id="SVGID_6_">
					<use xlink:href="#SVGID_5_"  style="overflow:visible;"/>
				</clipPath>
				<g class="st33">
					<path class="st16" d="M415.8,512.2c0,0-1.3-6.5-0.5-7c0.8-0.6,10.5-2,14.6-0.3l0.7,7.3l-12.9,5.8L415.8,512.2z"/>
					<path class="st17" d="M442.5,515.9c0,0-0.6-3-5.5-4.6c-4.9-1.6-8.6-3.3-8.6-6.7c0-3.5,0-9.1,0-9.1h-5.9h-5.9c0,0,0,5.7,0,9.1
						c0,3.5-3.7,5.1-8.6,6.7c-4.9,1.6-5.5,4.6-5.5,4.6l-13.4,30.6h8.4l8-17.4l3.3,17.4h13.7h13.7l3.3-17.4l8,17.4h8.4L442.5,515.9z"
						/>
					<path class="st18" d="M443.8,469.2c0,16.9-6,30.7-21.4,30.7c-15.4,0-21.1-14-21.1-30.8c0-16.9,14.3-20.3,21.4-20.3
						C429.7,448.7,443.8,452.3,443.8,469.2z"/>
					<path class="st19" d="M414.8,489.7c2.3,1.4,4.8,1.6,7.4,1.6c2.5,0,5-0.3,7.4-1.6c-0.9,1-3.4,2.9-7.4,2.9
						C418.2,492.6,415.6,490.8,414.8,489.7z"/>
					<path class="st20" d="M417.4,480c0,2.3-1.9,4.2-4.2,4.2c-2.3,0-4.2-1.9-4.2-4.2c0-2.3,1.9-4.2,4.2-4.2
						C415.5,475.8,417.4,477.6,417.4,480z"/>
					<path class="st21" d="M416.3,480c0,1.6-1.3,2.9-2.9,2.9c-1.6,0-2.9-1.3-2.9-2.9c0-1.6,1.3-2.9,2.9-2.9
						C415,477,416.3,478.3,416.3,480z"/>
					<path class="st3" d="M412.1,478.4c0,0.5-0.4,0.9-0.8,0.9c-0.5,0-0.8-0.4-0.8-0.9s0.4-0.8,0.8-0.8
						C411.7,477.6,412.1,478,412.1,478.4z"/>
					<path class="st20" d="M427.8,480c0,2.3,1.9,4.2,4.2,4.2c2.3,0,4.2-1.9,4.2-4.2c0-2.3-1.9-4.2-4.2-4.2
						C429.7,475.8,427.8,477.6,427.8,480z"/>
					<path class="st21" d="M428.9,480c0,1.6,1.3,2.9,2.9,2.9c1.6,0,2.9-1.3,2.9-2.9c0-1.6-1.3-2.9-2.9-2.9
						C430.2,477,428.9,478.3,428.9,480z"/>
					<path class="st3" d="M429,478.4c0,0.5,0.4,0.9,0.8,0.9c0.5,0,0.8-0.4,0.8-0.9s-0.4-0.8-0.8-0.8C429.4,477.6,429,478,429,478.4z
						"/>
					<path class="st22" d="M443.9,513.2c0,0-0.3-0.6-1.9-1.3c-2.2-1-2.2-1-10.3-3.8l-9.2,6.9l-9.2-6.9c-8,2.8-8,2.8-10.3,3.8
						c-1.6,0.7-1.9,1.3-1.9,1.3l-12.7,33.4h9.6l7.3-15.5l1.2,15.5l15.7,0.4l0,0l0.3,0l0.3,0l0,0l15.7-0.4l1.2-15.5l7.3,15.5h9.6
						L443.9,513.2z"/>
					<path class="st23" d="M415.2,505.2c0.2,2.6,7.4,9.7,7.4,9.7s7.6-6.3,7.3-10l3.4,3.7c0,2.8-6.5,11.9-6.5,11.9l-4.1-5.4l-4,5.6
						c0,0-6.9-8.2-6.9-12.1L415.2,505.2z"/>
					<g>
						<path class="st24" d="M418.7,521l-0.2-0.2c-0.3-0.3-7-8.3-7-12.3h0.5c0,3.4,5.5,10.4,6.7,11.7l4-5.6l4.1,5.4
							c1.1-1.4,6.6-9,6.6-11.5l0.5,0.2c0,2.9-6.6,11.5-6.8,11.8l-0.2,0.2l-4.1-5.4L418.7,521z"/>
					</g>
					<path class="st25" d="M444.5,462.6c-0.1-0.7-0.3-1.3-0.5-2c-0.2-0.6-0.4-2-0.4-2s-0.3-0.1-0.4-0.2c-0.2-0.4-0.3-1.5-0.3-1.5
						s-1.1-0.9-1.6-1.6c-0.4-0.4-1.5-1.8-1.5-1.8l-0.5,0l-1.4-1c0,0-0.7-1.1-1.1-1.5c-0.2-0.1-0.6,0.2-0.7,0
						c-0.3-0.2-0.8-0.6-0.8-0.6l-0.6-0.8l-1.9-0.5c0,0-0.4-0.3-0.7-0.4c-0.4-0.1-1.4,0.1-1.4,0.1l-0.5-0.5l-1.7,0.2L427,448
						l-0.5,0.4l-1.1-0.1c0,0-0.5-0.3-0.7-0.3c-0.3,0-1,0.1-1,0.1s-0.8-0.3-1.2-0.3c-0.6,0-2.2,0.4-2.2,0.4l-0.8-0.1l-1.3,0.4
						c0,0-0.7-0.1-1-0.1c-0.4,0.1-1.1,0.4-1.1,0.4l-1.2,0l-0.5,0.2l-1.1-0.1l-0.8,0.4c0,0-0.5-0.1-0.7,0c-0.1,0-0.3-0.1-0.3-0.1
						l-1.2,0.9l-1,0.7l-0.5,0c0,0-0.3,0.7-0.6,0.9c-0.3,0.3-1.1,0.5-1.4,0.7c-0.2,0.2,0,0.3-0.3,0.5c-0.1,0.1-0.7,0.2-0.8,0.2
						c-0.2,0.1,0.1,0.3-0.1,0.4c-0.7,0.5-1.4,1.1-1.8,1.6c-0.3,0.3-0.6,0.7-0.8,1.1c-0.5,0.7-0.9,1.5-1.2,2.3
						c-0.1,0.3-0.2,0.6-0.4,0.9c-0.4,1-0.6,2-0.9,3.1c-0.3,1.6-0.1,3.2-0.1,4.9c-0.3,10.1,2.5,15.8,2.5,15.8
						c2.1-1.5-0.6-14.1,5.7-18.3c2-1.3,12.6-1.4,13.8-1.4s11.7,0.1,13.7,1.4c6.3,4.2,3.7,16.7,5.7,18.3c0,0,2.9-5.7,2.5-15.8
						C444.5,465.8,444.8,464.2,444.5,462.6z"/>
					<path class="st26" d="M442.1,476.4c0,0-0.4-0.6-0.5-2c-0.3-3.4-1.1-9.8-2.4-10.9c-1.8-1.5-5.5-0.7-6.4-0.7s-4.1-0.9-4.8-1.8
						c0,0-2.9,1-5.4,1s-3.9-1-3.9-1s-2.4,1.2-3.2,1.2s-1.9-0.6-1.9-0.6s-0.1,0.7-0.9,1c-1.4,0.7-5-0.2-5.7,0.7
						c-0.7,0.9-2.8,3.4-3,7.9c-0.1,4.4-1-0.5-1-0.9s0.6-7,0.8-7.2c0.3-0.2,1.3-0.8,1.3-0.8s-1.3-2.5,0.8-4.4c0.6-0.5,3.6,0,3.6,0
						s-0.3-3.5,0.9-4.1s2.7,0.7,4.4-0.2c2.7-1.3,3.7,2.3,4.6,1.6c0.9-0.6,1.2-3.8,3.4-2.6c4.4,2.3,2.6,0,5.7,0.4s2,1.8,4.2,3.1
						c2.3,1.3,4.1,0.3,4.7,1s0.8,3.6,3.6,4.7c2.8,1.1,1.2,11.3,1.3,12S442.7,476.4,442.1,476.4z"/>
					<path class="st27" d="M418.1,460.4c0,0-2.1,1.3-2.9,1.3c-0.8,0-1.9-1.5-2-3.2c0,0,1.1,2.2,1.7,2.4c0.6,0.1,0.5-1.3,1.1-1.1
						c0.5,0.3,1,0.5,1.3,0.3c0.7-0.4-0.3-5.8-2-8.5C415.2,451.6,419.4,458.2,418.1,460.4z"/>
					<path class="st27" d="M428.2,456.6c0,0-0.1,3.5-1.3,3.7s0-10.3,0-10.3s-1,6.8-1.1,7.7s-0.5,1.3-0.9,1.3s0.1,1.3-0.3,1.5
						c-0.4,0.2-1.4,0.4-1.7-1.1c0,0-0.1,1.5,1,1.7c1.1,0.2,3.6-0.3,4-0.8C428.4,459.8,428.4,457.6,428.2,456.6z"/>
					<path class="st27" d="M408.3,461.8c0.5,0,1,0,1.5,0c0.5,0,1,0,1.5,0c0.2,0,0.5,0,0.7-0.1c0.2,0,0.3-0.2,0.4-0.4
						c0.1-0.2,0.1-0.5,0-0.7c0-0.2-0.1-0.5-0.2-0.7c0.2,0.2,0.3,0.4,0.4,0.7c0.1,0.3,0.1,0.5,0.1,0.8c0,0.1-0.1,0.3-0.2,0.4
						c-0.1,0.1-0.1,0.1-0.2,0.2c-0.1,0-0.2,0.1-0.2,0.1c-0.3,0.1-0.5,0.1-0.8,0.1c-0.5,0-1,0-1.6-0.1
						C409.4,462.1,408.8,462,408.3,461.8z"/>
					<path class="st27" d="M429.6,454.3c-0.1,1.2-0.2,2.4-0.2,3.5c0,0.6,0,1.2,0.1,1.7c0,0.3,0.1,0.6,0.1,0.8
						c0.1,0.3,0.2,0.5,0.3,0.7c0.1,0.1,0.2,0.2,0.3,0.3c0.1,0.1,0.2,0.1,0.3,0.2c0.2,0.1,0.5,0.1,0.7,0.1c0.1,0,0.3-0.1,0.4-0.1
						c0.1,0,0.3-0.1,0.5-0.1c0,0,0.1,0,0.2,0c0.1,0,0.1,0,0.2,0.1c0.1,0,0.1,0.1,0.1,0.1c0,0,0.1,0.1,0.1,0.1
						c0.1,0.1,0.1,0.2,0.1,0.2c0,0.1,0,0,0.1,0.1c0.1,0,0.2,0.1,0.4,0.1c0.1,0,0.3,0,0.4,0c0.3,0,0.6,0,0.8-0.1
						c0.6-0.1,1.1-0.4,1.6-0.8c-0.4,0.4-0.9,0.8-1.5,1c-0.3,0.1-0.6,0.2-0.9,0.2c-0.2,0-0.3,0-0.5,0c-0.2,0-0.3,0-0.5-0.1
						c0,0-0.1-0.1-0.2-0.1c0,0,0-0.1-0.1-0.1l0-0.1c0-0.1,0-0.1-0.1-0.1c0,0,0,0-0.1,0c0,0,0,0-0.1,0c0,0,0,0-0.1,0c0,0,0,0-0.1,0
						c-0.2,0-0.5,0.2-0.8,0.2c-0.3,0.1-0.7,0-1-0.1c-0.2-0.1-0.3-0.1-0.4-0.2c-0.1-0.1-0.3-0.2-0.4-0.3c-0.2-0.3-0.3-0.6-0.4-0.9
						c-0.1-0.3-0.1-0.6-0.1-0.9c0-0.6,0-1.2,0-1.8C429.1,456.6,429.3,455.4,429.6,454.3z"/>
				</g>
			</g>
		</g>
	</g>
</g>
</svg>
