<?xml version="1.0" encoding="utf-8"?>
<!-- Generator: Adobe Illustrator 24.3.0, SVG Export Plug-In . SVG Version: 6.00 Build 0)  -->
<svg version="1.1" xmlns="http://www.w3.org/2000/svg" xmlns:xlink="http://www.w3.org/1999/xlink" x="0px" y="0px"
	 viewBox="0 0 512 512" style="enable-background:new 0 0 512 512;" xml:space="preserve">
<style type="text/css">
	.st0{fill:#E77E14;}
	.st1{fill:#F49D1D;}
	.st2{fill:#A44E10;}
	.st3{fill:#F8EFD9;}
	.st4{fill:#FFFFFF;}
	.st5{fill:#BB8D62;}
	.st6{fill:#E6CAB3;}
	.st7{opacity:5.000000e-02;}
	.st8{fill:#0E3C49;}
	.st9{fill:#0D313A;}
	.st10{fill:#134C5F;}
	.st11{fill:#18596B;}
	.st12{fill:#19677A;}
</style>
<g id="Layer_2">
	<circle class="st0" cx="256.5" cy="256" r="255.5"/>
	<path class="st1" d="M437.2,75.3c-99.8-99.8-261.6-99.8-361.4,0l361.4,361.4C536.9,336.9,536.9,175.1,437.2,75.3z"/>
</g>
<g id="Layer_3">
	<rect x="118" y="113.1" class="st2" width="245.9" height="298.5"/>
	<rect x="99.4" y="94.4" class="st3" width="245.9" height="298.5"/>
	<path class="st4" d="M99.4,94.4v263.1h22.8c103.6,0,187.7-84,187.7-187.7V94.4H99.4z"/>
	<g>
		<rect x="143.3" y="161.8" class="st5" width="139.7" height="22.5"/>
		<rect x="143.3" y="227.3" class="st5" width="139.7" height="22.5"/>
		<rect x="143.3" y="292.8" class="st5" width="105" height="22.5"/>
	</g>
	<path class="st4" d="M222.3,320.3l26.3-11.1c0,0,45.4-62.4,51.8-104.1c6.5-41.6,4.4-68.7,4.4-68.7l-86.1,13.3l-36,76.2l36.1,95.7"
		/>
	<path class="st4" d="M186.4,292.8l66.8,36.9c0,0,37.1-19.7,59.7-80S327.8,149,327.8,149l-33.9-19.1L186.4,292.8z"/>
	<rect x="182.7" y="212.3" class="st6" width="104.2" height="51.1"/>
</g>
<g id="Layer_4">
</g>
<g id="Layer_1">
	<g>
		<g>
			<g class="st7">
				<circle class="st4" cx="285.8" cy="236.1" r="77.5"/>
			</g>
			<g class="st7">
				<path class="st4" d="M252.7,166c15.4-7.3,31.9-9,47.4-6.1L248.5,304c-13.8-7.6-25.5-19.5-32.8-34.9
					C197.4,230.4,214,184.2,252.7,166z"/>
			</g>
		</g>
		<path class="st8" d="M298.5,342.6c24.4-2.3,46-12.6,62.5-28.2l0.8,8.2c0.3,3.2,1.9,6.2,4.3,8.2l20.8-27
			c-2.5-2.1,2.1-10.4-1.2-10.1l-8.2,0.8c12.3-19.1,18.4-42.3,16.2-66.6c-2.3-24.1-28.6-109.9-127.2-97.3c-6,0.8-25.3,4-14.9,8.4
			c-43.4,16.3-72.3,60-67.8,108.4C189.2,305.4,240.5,348,298.5,342.6z M211.6,244.9c-4-42.6,27.2-80.3,69.9-84.3
			c42.6-4,80.3,27.2,84.3,69.9c4,42.6-27.2,80.3-69.9,84.3C253.3,318.7,215.6,287.5,211.6,244.9z"/>
		<path class="st9" d="M361.7,263.6l5.3,0.2c0,0,1.5,3,5,5.1c4.9,2.9,12.6,5,16.3,3.4c-2.7,7.6-6.2,14.8-10.6,21.5l-45.1,7.1
			C346,291.9,356.2,278.8,361.7,263.6z"/>
		<path class="st8" d="M185.7,245.4c-2-43.6,22.8-82.1,59.7-99.8l4.8,12.5l49.3-14.6l23.3,24.4c-32.4-15.5-70.2,5.5-70.2,5.5l0,0
			c-24.4,13.9-40.3,40.7-39,70.7c1.9,42.8,38.1,75.7,80.8,73.8c5.4-0.2,56.2-25.5,61.2-26.8l4.1,26.4c-26,22-56.4,26.1-64.9,26.5
			C236.7,346.7,188.3,303.6,185.7,245.4z"/>
		<path class="st9" d="M218.3,267.4C218.3,267.4,218.3,267.4,218.3,267.4c10.8,29.9,40.4,48.6,73.4,47.1c5.4-0.2,10.7-1.1,15.8-2.4
			c0,0-60.7,35.6-99.8-46.8C211,268.4,215.4,269.7,218.3,267.4z"/>
		<g>
			<path class="st8" d="M404.5,294.5c2.3,1.5,32.6,27.6,42.3,35.8c0,0,5.9,4.6,7.3,7c2.7,4.7,0.4,9.8-1.1,14.7c0.1-0.7,0-2-1-3.7
				c-0.2,1.3-0.4,2.5-0.7,3.7c-1.7,7.1-55.6-31.1-55.6-31.1l-14.9-20l-11.4-9C369.3,291.9,381.3,279.7,404.5,294.5z"/>
			<path class="st8" d="M452.7,352.7c0.1-0.2,0.1-0.4,0.2-0.7C452.8,352.5,452.7,352.7,452.7,352.7z"/>
		</g>
		<g>
			<path class="st10" d="M441.4,339.5l-55-45.6c-2.5-2.1-5.7-3-8.9-2.7l-8.2,0.8c12.3-19.1,18.4-42.3,16.2-66.6
				c-5.4-58-56.8-100.5-114.7-95.1s-100.5,56.8-95.1,114.7s56.8,100.5,114.7,95.1c24.4-2.3,46-12.6,62.5-28.2l0.8,8.2
				c0.3,3.2,1.8,6.2,4.3,8.2l55,45.6c5.2,4.3,12.9,3.6,17.1-1.6l12.9-15.6C447.3,351.5,446.6,343.8,441.4,339.5z M287.9,313.7
				c-43.4,4.1-81.9-27.8-85.9-71.2c-4.1-43.4,27.8-81.9,71.2-85.9c43.4-4.1,81.9,27.8,85.9,71.2
				C363.2,271.2,331.4,309.6,287.9,313.7z"/>
		</g>
		<g>
			<path class="st11" d="M431.2,376.8c-4.6,5.3-12.6,5.8-17.8,1.3l-55.8-48.7c-2.5-2.2-4-5.3-4.3-8.7l-0.6-8.5
				c5.4-5.6,8.8-10.6,8.8-10.6s-0.2,5.3,2.2,8.8c2.3,3.5,63.4,57.8,67.2,60.5c2.9,2,4.7,0.8,5.5,0L431.2,376.8z"/>
		</g>
		<g>
			<path class="st12" d="M409,361.7c0.1,0.7-0.2,1.5-0.7,2.1c-1.1,1.2-2.9,1.3-4,0.2l-45-40.7c-1.2-1.1-1.3-2.9-0.2-4
				c1.1-1.2,2.9-1.3,4-0.2l45,40.7C408.6,360.3,409,361,409,361.7z"/>
		</g>
		
			<ellipse transform="matrix(0.6128 -0.7902 0.7902 0.6128 -113.8213 483.5885)" class="st9" cx="436.6" cy="357.9" rx="26.7" ry="11.2"/>
		<g>
			<path class="st11" d="M185.7,257.5c-9.9-55.9,27.3-109.2,83.2-119.2c39.2-7,77.1,9.3,99.7,38.8c-20.7-31.4-57.7-50.7-97.8-47
				c-58,5.4-100.5,56.8-95.1,114.7c4.3,46.3,37.9,82.7,80.8,92.8C220.9,326.6,192.7,296.6,185.7,257.5z"/>
		</g>
	</g>
</g>
</svg>
