<?xml version="1.0" encoding="utf-8"?>
<!-- Generator: Adobe Illustrator 23.0.2, SVG Export Plug-In . SVG Version: 6.00 Build 0)  -->
<svg version="1.1" id="Layer_1" xmlns="http://www.w3.org/2000/svg" xmlns:xlink="http://www.w3.org/1999/xlink" x="0px" y="0px"
	 viewBox="0 0 507.9 507.9" style="enable-background:new 0 0 507.9 507.9;" xml:space="preserve">
<style type="text/css">
	.st0{fill:#D84827;}
	.st1{fill:#F05A26;}
	.st2{fill:none;}
	.st3{fill:#B73D26;}
	.st4{fill:#FDBD3A;}
	.st5{fill:#FFC858;}
	.st6{fill:none;stroke:#FFD791;stroke-linecap:square;stroke-miterlimit:10;}
	.st7{fill:#FFD791;}
	.st8{fill:none;stroke:#F48123;stroke-width:10;stroke-miterlimit:10;}
	.st9{fill:#F48123;}
	.st10{fill:#737778;}
	.st11{fill:#858D94;}
	.st12{fill:url(#SVGID_1_);}
	.st13{fill:#FFFFFF;}
	.st14{fill:#FDDCC7;}
	.st15{fill:#A48E87;}
	.st16{fill:#A9B7B9;}
	.st17{fill:#2A2010;}
	.st18{fill:#E4C7B6;}
	.st19{fill:#B2CBD9;}
	.st20{fill:#E8EDF0;}
	.st21{fill:#CCD8DF;}
	.st22{fill:#F2F5F8;}
	.st23{fill:#7599AA;}
	.st24{fill:#EFEFED;}
	.st25{fill:#6A7894;}
	.st26{fill:#5C6881;}
	.st27{fill:#7E8CA7;}
	.st28{fill:#AAADAF;}
	.st29{fill:#C2C5C7;}
	.st30{fill:#475266;}
	.st31{fill:#92A0B6;}
	.st32{fill:#DBDAD6;}
	.st33{fill:#A49E99;}
	.st34{fill:#C8C7C2;}
	.st35{fill:#443E3B;}
	.st36{fill:#15201A;}
	.st37{fill:#AFB0B3;}
	.st38{fill:#BFA473;}
	.st39{fill:#D0B37D;}
	.st40{fill:#494032;}
	.st41{fill:#886B4F;}
	.st42{fill:#00B2AB;}
	.st43{fill:#F3F3F3;}
	.st44{fill:none;stroke:#DADCDC;stroke-miterlimit:10;}
	.st45{fill:#272524;}
	.st46{fill:#393735;}
	.st47{fill:#4F4C49;}
</style>
<g id="Layer_3">
</g>
<g id="Layer_5">
</g>
<g>
	<circle class="st0" cx="253.2" cy="253.2" r="253.2"/>
	<path class="st1" d="M32.8,128.5l422.4,277.3c32.1-42.5,51.1-95.3,51.1-152.6C506.4,113.4,393,0,253.2,0
		C158.6,0,76.3,51.8,32.8,128.5z"/>
</g>
<circle class="st2" cx="253.2" cy="253.2" r="253.2"/>
<path class="st2" d="M253.2,0c139.8,0,253.2,113.4,253.2,253.2S392.9,506.3,253.2,506.3c-62.2,0-119.2-22.4-163.3-59.7
	c-2.7-2.3-5.3-4.6-7.9-6.9C31.6,393.3,0,326.9,0,253.2C0,113.4,113.4,0,253.2,0z"/>
<g>
	<ellipse class="st3" cx="253.1" cy="156.2" rx="60.1" ry="9.1"/>
	<g>
		<polygon class="st0" points="219.5,94.6 175.3,70.1 172.9,72.5 219.6,117.2 229,106.6 230.8,107.8 232.7,102.4 232.9,102.1 
			232.8,102.1 253.1,45.8 253.1,42.1 		"/>
		<polygon class="st0" points="333.5,72.5 331,70.1 286.7,94.7 253.1,42.1 253.1,45.8 275.3,107.8 277.3,106.4 286.9,117.2 		"/>
	</g>
	<g>
		<path class="st4" d="M285.8,99.2l-32.7-53.4l-32.7,53.4l-47.5-26.7l20,73.5v10.3c0,0,9.8-9.1,60.1-9.1s60.1,9.1,60.1,9.1V146
			l20-73.5L285.8,99.2z"/>
	</g>
	<path class="st5" d="M253.1,45.8l-32.7,53.4l-47.5-26.7l20,73.5v10.3c0,0,7.1-6.6,40.5-8.5l40.3-68.3L253.1,45.8z"/>
	<path class="st6" d="M196.8,144.5c0,0,55.6-16.9,113,0"/>
	<g>
		<g>
			<g>
				<path class="st7" d="M192.9,156.2c2-1.7,4.4-2.8,6.8-3.8c2.4-1,4.9-1.8,7.4-2.5c5.1-1.1,10.2-1.8,15.3-2.4
					c10.3-1,20.5-1.4,30.8-1.4s20.5,0.4,30.8,1.4c5.1,0.6,10.2,1.3,15.3,2.4c2.5,0.7,5,1.5,7.4,2.5c2.4,1,4.8,2.1,6.8,3.8
					c-1.1-0.7-2.3-1.2-3.5-1.6c-1.2-0.4-2.4-0.8-3.6-1.1c-2.5-0.7-5-1.1-7.5-1.5c-5-1.1-10-1.8-15.1-2.4c-10.2-1-20.3-1.4-30.5-1.4
					c-10.2,0-20.4,0.4-30.5,1.4c-5.1,0.6-10.1,1.3-15.1,2.4c-2.5,0.4-5,0.9-7.5,1.6c-1.2,0.3-2.5,0.7-3.6,1.1
					C195.1,155,194,155.5,192.9,156.2z"/>
			</g>
		</g>
	</g>
	<g>
		<path class="st7" d="M180.8,82.2c3.5,1.8,7.1,3.7,10.6,5.6l10.6,5.6l10.5,5.6l10.5,5.7l-1.5,0.4l7.6-13.3l7.7-13.2L252,52.2
			l1.3-2.2l1.3,2.2l15.4,26.3l7.7,13.2l7.6,13.3l-1.5-0.4l10.4-5.7l10.4-5.6l10.5-5.6c3.5-1.9,7-3.7,10.5-5.6
			c-3.4,2.1-6.8,4.1-10.2,6.2L305,94.4l-10.2,6.1l-10.2,6l-0.9,0.5l-0.6-0.9L275.3,93L267.4,80l-15.6-26.2h2.6L238.9,80L231,93
			l-7.9,13.1l-0.6,0.9l-0.9-0.5l-10.3-6l-10.3-6.1l-10.3-6.1C187.6,86.3,184.2,84.3,180.8,82.2z"/>
	</g>
	<path class="st8" d="M253.2,164"/>
</g>
<g>
	<g>
		
			<rect x="124.9" y="104.4" transform="matrix(0.7701 -0.6379 0.6379 0.7701 -57.2902 115.1527)" class="st9" width="12.4" height="65.3"/>
	</g>
	<g>
		
			<rect x="85.7" y="167.8" transform="matrix(0.4384 -0.8988 0.8988 0.4384 -116.9818 187.9338)" class="st9" width="12.4" height="39.6"/>
	</g>
	<g>
		
			<rect x="342.7" y="130.8" transform="matrix(0.6379 -0.7701 0.7701 0.6379 30.4148 338.6587)" class="st9" width="65.3" height="12.4"/>
	</g>
	<g>
		
			<rect x="394.7" y="181.4" transform="matrix(0.8988 -0.4384 0.4384 0.8988 -40.2634 200.7119)" class="st9" width="39.6" height="12.4"/>
	</g>
</g>
<g>
	<path class="st10" d="M131.1,416.5c0,0-10.8-16.4-7.2-20.2s11.3-11.3,33.9-12c22.6-0.7,33.7,8.9,34.4,18
		C192.9,411.4,131.1,416.5,131.1,416.5z"/>
	<path class="st11" d="M135.1,399.8c0,0-0.4-6.4,1.6-7.9s6.7-3.3,6.7-3.3l30.4,1.4c0,0,3.5-0.4,3.9,2.5c0.4,2.8-1.7,6.5-1.7,6.5
		L135.1,399.8z"/>
	<linearGradient id="SVGID_1_" gradientUnits="userSpaceOnUse" x1="157.0925" y1="478.823" x2="157.0925" y2="360.0952">
		<stop  offset="0" style="stop-color:#FDDCC7"/>
		<stop  offset="1" style="stop-color:#E9CCBA"/>
	</linearGradient>
	<path class="st12" d="M214.3,418.8c0,0-1.8-8.6-15.7-13.3c-14-4.7-24.6-9.4-24.6-19.3c0-9.9,0-26.1,0-26.1h-16.9h-16.9
		c0,0,0,16.2,0,26.1c0,9.9-10.6,14.7-24.6,19.3c-14,4.7-15.7,13.3-15.7,13.3l8.5,37.8l20,1l34.6,21.2l27.6-0.4l15.2-21.7
		L214.3,418.8z"/>
	<path class="st13" d="M137.4,393.7c0,0,17.3,24.4,39.6-0.6l-21.2,57.4L137.4,393.7z"/>
	<path class="st14" d="M218,284.8c0,48.4-17.2,88-61.3,88c-44.2,0-60.5-40-60.5-88.4c0-48.4,41.1-58.2,61.2-58.2
		S218,236.4,218,284.8z"/>
	<path class="st15" d="M135.5,343.8c6.7,4.1,13.8,4.6,21.1,4.5c7.3,0,14.3-0.9,21.2-4.5c-2.6,3-9.8,8.3-21.2,8.3
		S137.8,347,135.5,343.8z"/>
	<path class="st16" d="M142.8,315.8c0,6.7-5.5,12-12.2,12c-6.7,0-12.2-5.4-12.2-12c0-6.7,5.4-12,12.2-12
		C137.4,303.8,142.8,309.2,142.8,315.8z"/>
	<path class="st17" d="M139.7,315.8c0,4.6-3.8,8.4-8.4,8.4c-4.6,0-8.4-3.8-8.4-8.4c0-4.6,3.8-8.4,8.4-8.4
		C135.9,307.4,139.7,311.2,139.7,315.8z"/>
	<path class="st13" d="M127.8,311.5c0,1.3-1.1,2.4-2.4,2.4c-1.3,0-2.4-1.1-2.4-2.4s1.1-2.4,2.4-2.4
		C126.7,309.1,127.8,310.1,127.8,311.5z"/>
	<path class="st16" d="M172.6,315.8c0,6.7,5.5,12,12.2,12c6.7,0,12.2-5.4,12.2-12c0-6.7-5.4-12-12.2-12
		C178.1,303.8,172.6,309.2,172.6,315.8z"/>
	<path class="st17" d="M175.8,315.8c0,4.6,3.8,8.4,8.4,8.4c4.6,0,8.4-3.8,8.4-8.4c0-4.6-3.8-8.4-8.4-8.4
		C179.5,307.4,175.8,311.2,175.8,315.8z"/>
	<path class="st13" d="M176.2,311.5c0,1.3,1.1,2.4,2.4,2.4c1.3,0,2.4-1.1,2.4-2.4s-1.1-2.4-2.4-2.4
		C177.3,309.1,176.2,310.1,176.2,311.5z"/>
	<path class="st18" d="M132.5,350.5c0.2-1,0.6-2,0.9-3c0.4-1,0.8-1.9,1.3-2.8c0.5-0.9,1-1.8,1.6-2.6c0.6-0.9,1.2-1.7,1.9-2.4
		c-0.3,1-0.7,2-1.1,2.9c-0.4,0.9-0.9,1.9-1.3,2.8c-0.5,0.9-1,1.8-1.5,2.6C133.7,348.8,133.1,349.7,132.5,350.5z"/>
	<path class="st18" d="M180.9,350.5c-0.6-0.7-1.2-1.4-1.7-2.2c-0.5-0.8-1-1.5-1.4-2.3c-0.4-0.8-0.8-1.6-1.2-2.4
		c-0.4-0.8-0.7-1.7-0.9-2.6c0.7,0.7,1.2,1.4,1.8,2.1c0.5,0.7,1,1.5,1.4,2.3c0.4,0.8,0.8,1.6,1.1,2.5
		C180.5,348.7,180.8,349.5,180.9,350.5z"/>
	<path class="st18" d="M168.1,358.3c-1.8,0.6-3.7,0.9-5.5,1.2c-1.9,0.2-3.8,0.3-5.7,0.3c-1.9,0-3.8-0.2-5.7-0.4
		c-0.9-0.1-1.9-0.3-2.8-0.4c-0.5-0.1-0.9-0.2-1.4-0.3l-0.7-0.2l-0.3-0.1l-0.2,0l-0.1,0c0,0-0.1,0,0,0l0.6,0.1l0.7,0.1
		c0.5,0.1,0.9,0.1,1.4,0.2c0.9,0.1,1.9,0.2,2.8,0.3c1.9,0.2,3.7,0.3,5.6,0.3c1.9,0,3.8,0,5.6-0.2c0.9-0.1,1.9-0.2,2.8-0.3
		C166.2,358.7,167.1,358.5,168.1,358.3z"/>
	<g>
		<path class="st19" d="M145.9,405.3l-1.9-1.6l-11.5-5.4c0,0-26.4,10.6-29.4,12.5l7.2,28.6l9.3,16.9l26.6,8.9l23.7,1.3l-12.2-36.7
			L145.9,405.3z"/>
		<path class="st20" d="M157.8,460.8c-10,0.6-30,1.8-34.4,2.6l-0.2,4.9c6.4-0.9,24.3-1.9,34.6-2.4V460.8z"/>
		<path class="st20" d="M147.1,407.7L147.1,407.7c-8.6,2.8-27.6,9.1-31.7,11.3l1.4,4.7c6.2-3,23.5-9.1,32.2-12.1l0,0L147.1,407.7z"
			/>
		<path class="st20" d="M157.8,450.5c-7.8,0.7-30.4,2.9-35.1,4.3l0.3,4.9c6.9-1.6,26-3.9,34.8-4.9V450.5z"/>
		<g>
			<g>
				<path class="st21" d="M150.9,473c-1.3-23-3.6-52.5-7.2-69.4l-5.9-2.8c2.3,8.2,5.3,26.6,7.4,67.5
					C145.8,479.2,152,491.6,150.9,473z"/>
				<path class="st21" d="M157.7,434.1c-0.2-1.8-0.4-3.6-0.6-5.3l-6.6-13.8c1.5,10.6,2.9,25.9,4.1,48.2c0.6,11.5,3.1,0.8,3.1,0.8
					L157.7,434.1z"/>
			</g>
			<g>
				<path class="st20" d="M141.3,399.5c0,0-23.4,8.5-28.5,11.5l1.5,4.7c8.2-4.3,29.8-12.7,29.8-12.7L141.3,399.5z"/>
				<path class="st20" d="M151.6,417.1c-7.4,2-29.6,8.1-34.1,10.3l1.1,4.8c6.9-2.9,27.1-8.9,34.8-11.2L151.6,417.1z"/>
				<path class="st20" d="M156.2,426.7c-7.8,1.8-31.8,7.4-36.5,9.1l0.7,4.8c7-2.2,37.4-9.2,37.4-9.2v-1.7L156.2,426.7z"/>
				<path class="st20" d="M157.7,439.4c-8.2,1.1-32.2,4.5-36.9,5.8l0.2,4.9c6.9-1.5,27.2-4.3,36.7-5.6L157.7,439.4z"/>
			</g>
			<g>
				<path class="st22" d="M141.3,420c0.2,1.4,0.4,2.9,0.5,4.5c1.7-0.5,3.3-1,4.9-1.5c-0.2-1.5-0.4-2.9-0.6-4.4
					C144.7,419,143.1,419.5,141.3,420z"/>
				<path class="st22" d="M142.5,429.9c0.2,1.6,0.3,3.3,0.5,5c1.7-0.4,3.4-0.8,5-1.2c-0.2-1.7-0.3-3.4-0.5-5
					C145.8,429.1,144.2,429.5,142.5,429.9z"/>
				<path class="st22" d="M132.2,427.5c1.6-0.5,3.2-1,4.8-1.5c-0.2-1.6-0.4-3.1-0.6-4.6c-1.6,0.5-3.2,0.9-4.8,1.4
					C131.8,424.3,132,425.8,132.2,427.5z"/>
				<path class="st22" d="M121.7,421.6c1.4-0.6,3.1-1.2,4.8-1.9c-0.3-1.7-0.5-3.2-0.8-4.8c-1.7,0.6-3.3,1.2-4.8,1.7
					C121.1,418.2,121.4,419.8,121.7,421.6z"/>
				<path class="st22" d="M130.2,413.4c0.3,1.4,0.5,3,0.8,4.7c1.6-0.6,3.2-1.2,4.8-1.7c-0.2-1.6-0.5-3.1-0.7-4.5
					C133.4,412.3,131.7,412.8,130.2,413.4z"/>
				<path class="st22" d="M143.5,441.5c0.1,1.6,0.3,3.3,0.4,5c1.7-0.2,3.5-0.5,5.1-0.7c-0.1-1.7-0.3-3.3-0.4-5
					C147,441,145.2,441.2,143.5,441.5z"/>
				<path class="st22" d="M139.9,456.9c-0.1-1.5-0.2-3.1-0.4-4.6c-1.7,0.2-3.5,0.4-5.1,0.6c0.1,1.5,0.2,3.1,0.3,4.7
					C136.4,457.4,138.2,457.2,139.9,456.9z"/>
				<path class="st22" d="M154.1,455.2c1.3-0.2,2.5-0.3,3.5-0.4v-4.3c-1,0.1-2.3,0.2-3.8,0.4C154,452.3,154.1,453.7,154.1,455.2z"/>
				<path class="st22" d="M152.5,432.7c1.9-0.4,3.6-0.8,5-1.1c-0.1-0.9-0.2-1.9-0.3-2.9l-1-2c-1.1,0.3-2.5,0.6-4.2,1
					C152.2,429.2,152.3,430.9,152.5,432.7z"/>
				<path class="st22" d="M144.6,456.4c1.8-0.2,3.5-0.4,5.2-0.6c-0.1-1.5-0.2-2.9-0.3-4.4c-1.6,0.2-3.4,0.3-5.2,0.5
					C144.4,453.3,144.5,454.8,144.6,456.4z"/>
				<path class="st22" d="M132.7,432.3c0.2,1.6,0.3,3.2,0.5,5c1.6-0.4,3.3-0.8,4.9-1.2c-0.2-1.7-0.3-3.3-0.5-5
					C135.9,431.5,134.3,431.9,132.7,432.3z"/>
				<path class="st22" d="M139.2,447.1c-0.1-1.7-0.3-3.3-0.4-5c-1.7,0.3-3.4,0.5-5,0.8c0.1,1.6,0.3,3.2,0.4,4.9
					C135.7,447.6,137.4,447.4,139.2,447.1z"/>
				<path class="st22" d="M127.7,428.9c-0.2-1.6-0.4-3.2-0.6-4.8c-1.8,0.5-3.4,1.1-4.8,1.5c0.2,1.5,0.4,3.2,0.6,4.9
					C124.3,430.1,125.9,429.5,127.7,428.9z"/>
				<path class="st22" d="M140.3,461.9c-1.8,0.1-3.6,0.2-5.2,0.4c0.1,1.6,0.2,3.2,0.3,4.9c1.7-0.1,3.5-0.2,5.3-0.4
					C140.5,465.2,140.4,463.6,140.3,461.9z"/>
				<path class="st22" d="M139.9,410.1c0.2,1.4,0.5,2.8,0.7,4.4c1.7-0.6,3.3-1.2,4.8-1.7c-0.2-1.5-0.5-2.9-0.7-4.3
					C143.2,409,141.6,409.5,139.9,410.1z"/>
				<path class="st22" d="M138.9,405c1.8-0.7,3.3-1.3,4.2-1.7l-5.2-2.5C138.2,402,138.5,403.4,138.9,405z"/>
				<path class="st22" d="M153.1,440.1c0.1,1.6,0.3,3.3,0.4,5c1.5-0.2,3-0.4,4.2-0.6v-5.1C156.5,439.6,154.9,439.8,153.1,440.1z"/>
				<path class="st22" d="M150.8,417.4c0.2,1.4,0.3,2.8,0.5,4.3c0.8-0.2,1.5-0.4,2.1-0.6l-1.9-3.9
					C151.3,417.2,151.1,417.3,150.8,417.4z"/>
				<path class="st22" d="M129.3,408.9c1.6-0.7,3.2-1.3,4.7-1.9c-0.3-1.6-0.7-3-1-4.4c-1.5,0.6-3.1,1.2-4.8,1.8
					C128.5,405.6,128.9,407.1,129.3,408.9z"/>
				<path class="st22" d="M120.1,412.8c1.5-0.7,3.1-1.4,4.7-2.1c-0.3-1.7-0.7-3.2-1.1-4.6c-1.7,0.7-3.3,1.3-4.7,1.9
					C119.4,409.4,119.8,410.9,120.1,412.8z"/>
				<path class="st22" d="M129.7,448.6c-0.1-1.6-0.3-3.3-0.4-4.9c-1.9,0.3-3.6,0.6-5,0.9c0.1,1.6,0.3,3.2,0.4,4.9
					C126.1,449.2,127.8,448.9,129.7,448.6z"/>
				<path class="st22" d="M130.5,458.3c-0.1-1.6-0.2-3.2-0.4-4.8c-2,0.3-3.7,0.5-5.1,0.8c0.1,1.6,0.2,3.2,0.3,4.9
					C126.8,458.9,128.6,458.6,130.5,458.3z"/>
				<path class="st22" d="M128.7,438.3c-0.2-1.7-0.3-3.3-0.5-5c-1.8,0.5-3.5,0.9-4.9,1.3c0.2,1.6,0.3,3.2,0.5,5
					C125.2,439.2,126.9,438.8,128.7,438.3z"/>
				<path class="st22" d="M130.8,462.6c-2,0.2-3.8,0.3-5.2,0.5c0.1,1.6,0.2,3.2,0.3,4.9c1.5-0.2,3.3-0.3,5.3-0.5
					C131,465.9,130.9,464.2,130.8,462.6z"/>
				<path class="st22" d="M150.2,461.3c-1.7,0.1-3.5,0.2-5.3,0.3c0.1,1.6,0.2,3.3,0.3,5c1.8-0.1,3.6-0.2,5.3-0.3
					C150.4,464.6,150.3,463,150.2,461.3z"/>
				<path class="st22" d="M157.7,460.8c-1,0.1-2.1,0.1-3.2,0.2c0.1,1.6,0.2,3.3,0.3,5c1-0.1,2-0.1,3-0.2V460.8z"/>
			</g>
		</g>
		<path class="st19" d="M139.5,390.3c0,0-2.2,0.9-2.3,2.7s8.8,11.9,8.7,12.3c0,0-0.7-1.3-1.9,2.2c-1.4,4.2-3.9,9.9-3.9,9.9
			s-10.7-14.6-10.7-17.8c0-0.8,5.3-8.4,10.5-10.3c0,0-0.1,0.4-0.2,0.6C139.6,390.1,139.5,390.3,139.5,390.3z"/>
		<g>
			<path class="st20" d="M144.3,406.8c-1.8-2.3-8.4-11.1-9-12.8c-0.1-0.4-0.2-1-0.1-1.6c-1,0.9-1.9,1.8-2.7,2.7
				c0.2,0.4,0.4,1,0.7,1.6c1.1,2.1,7.3,10.8,9.6,13.9c0.4-1,0.8-2.1,1.1-3.1C144.1,407.2,144.2,407,144.3,406.8z"/>
			<path class="st20" d="M141.5,413.9c-2.4-3.4-9.8-14.2-10.4-15.8c-0.1-0.3-0.1-0.7-0.1-1.2c-1,1.3-1.6,2.4-1.6,2.6
				c0,3.3,10.7,17.8,10.7,17.8S140.7,415.9,141.5,413.9z"/>
		</g>
		<g>
			<path class="st21" d="M141.8,400c-0.7-0.9-1.5-1.9-2.2-2.8c-0.3,0-0.6,0.2-1.1,0.5c-0.6,0.4-3.6,5.5-5.6,9.4
				c0.8,1.3,1.7,2.7,2.6,4C136.7,408.5,139.9,401.4,141.8,400z"/>
			<path class="st21" d="M144,407.5c1.2-3.5,1.9-2.2,1.9-2.2c0.1-0.1-0.7-1.1-1.7-2.4l-0.1,0c0,0-0.7-0.1-1.5,0.9
				c-0.6,0.8-3.3,6.8-4.7,10.6c1.2,1.8,2.1,3,2.1,3S142.5,411.7,144,407.5z"/>
			<path class="st21" d="M129.4,399.6c0,0.6,0.4,1.7,1.1,3c1.9-2.7,5.4-7.3,7.5-7.9c-0.5-0.8-0.7-1.4-0.7-1.7c0-0.5,0.2-0.9,0.5-1.3
				c-0.2-0.2-0.6-0.6-1.3-0.5C132.6,394.2,129.4,399,129.4,399.6z"/>
		</g>
		<g>
			<path class="st22" d="M133.2,396.7c0.2,0.3,0.4,0.8,0.8,1.3c0.8-0.9,1.5-1.7,2.3-2.3c-0.5-0.8-0.9-1.5-1-1.8
				c-0.1-0.4-0.2-1-0.1-1.6c-1,0.9-1.9,1.8-2.7,2.7C132.6,395.5,132.9,396,133.2,396.7z"/>
			<path class="st22" d="M142.4,404.3c-0.4,0.7-1,1.9-1.7,3.4c0.8,1.2,1.6,2.2,2.1,2.9c0.1-0.2,0.1-0.4,0.2-0.6c0,0,0-0.1,0-0.1
				c0.2-0.5,0.4-1,0.5-1.4c0-0.1,0.1-0.3,0.1-0.4c0.1-0.2,0.1-0.4,0.2-0.6c0.1-0.3,0.2-0.5,0.3-0.8
				C143.8,406.2,143.2,405.3,142.4,404.3z"/>
			<path class="st22" d="M132.2,400.1c-0.6-1-1-1.7-1.1-2c-0.1-0.3-0.1-0.7-0.1-1.2c-0.9,1.2-1.5,2.1-1.6,2.5c0,0,0,0,0,0
				c0,0,0,0.1,0,0.1c0,0,0,0,0,0c0,0.1,0,0.2,0,0.3c0,0.1,0,0.1,0,0.2c0,0,0,0.1,0,0.1c0,0.1,0,0.2,0.1,0.3c0,0,0,0,0,0
				c0.2,0.6,0.5,1.3,0.9,2.1C130.9,401.9,131.6,401,132.2,400.1z"/>
			<path class="st22" d="M139.3,410.8c-0.5,1.3-1,2.5-1.4,3.6c1.2,1.8,2.1,3,2.1,3s0.6-1.5,1.5-3.5
				C141,413.2,140.2,412.1,139.3,410.8z"/>
		</g>
		<g>
			<path class="st22" d="M136.1,406.1l-0.5-0.7l0,0c-0.3-0.5-0.7-1-1-1.5c-0.6,1.1-1.2,2.2-1.7,3.2c0.8,1.3,1.7,2.7,2.6,4
				c0.3-0.8,0.9-2,1.6-3.4C136.8,407.1,136.5,406.6,136.1,406.1L136.1,406.1z"/>
			<path class="st22" d="M138,398.3c-0.5,0.6-1.1,1.7-1.9,2.9l2.4,3.5c0.6-1.1,1.2-2.2,1.8-3.1C139.6,400.5,138.8,399.4,138,398.3z"
				/>
		</g>
		<g>
			<path class="st23" d="M129.7,401c0.6,1.5,1.5,2.9,2.4,4.2c0.9,1.4,1.8,2.7,2.7,4c1.8,2.7,3.7,5.3,5.6,7.9l-0.8,0.1
				c1.2-3.1,2.4-6.1,3.6-9.2c0.3-0.8,0.7-1.5,1-2.3c0.1-0.2,0.2-0.4,0.3-0.6c0.2-0.3,0.4-0.5,0.8-0.6c0.2-0.1,0.5,0,0.7,0.1
				c0.1,0.1,0.2,0.1,0.2,0.2c0.1,0.1,0.1,0.2,0.1,0.2l0.3,0.6l2.1,4.5c1.4,3,2.8,6,4.1,8.9c1.4,3,2.7,6,4,9
				c-1.5-2.9-3.1-5.8-4.5-8.8c-1.5-2.9-3-5.9-4.4-8.8l-2.2-4.4l-0.3-0.6c0-0.1,0-0.1,0-0.1s0,0,0,0c0,0,0.1,0,0.1,0c0,0,0,0-0.1,0.1
				c-0.1,0,0,0.1-0.1,0.1l-0.3,0.5c-0.3,0.7-0.7,1.5-1,2.2c-1.3,3-2.5,6.1-3.7,9.1l-0.3,0.7l-0.5-0.6c-1.9-2.6-3.7-5.3-5.4-8.1
				c-0.9-1.4-1.7-2.8-2.5-4.2C131,404,130.2,402.6,129.7,401z"/>
		</g>
	</g>
	<g>
		<path class="st19" d="M168.3,405.3l1.9-1.6l11.5-5.4c0,0,26.4,10.6,29.4,12.5l-7.2,28.6l2.1,21.8l-14,20.2L154.7,466l1.7-36.2
			L168.3,405.3z"/>
		<path class="st20" d="M156.4,460.8c10,0.6,30,1.8,34.4,2.6l0.2,4.9c-6.4-0.9-24.3-1.9-34.6-2.4V460.8z"/>
		<path class="st20" d="M167.1,407.7L167.1,407.7c8.6,2.8,27.6,9.1,31.7,11.3l-1.4,4.7c-6.2-3-23.5-9.1-32.2-12.1l0,0L167.1,407.7z"
			/>
		<path class="st20" d="M156.4,450.5c7.8,0.7,30.4,2.9,35.1,4.3l-0.3,4.9c-6.9-1.6-26-3.9-34.8-4.9V450.5z"/>
		<g>
			<g>
				<path class="st21" d="M163.1,477.5c1.3-23.5,3.6-55.9,7.4-73.9l5.9-2.8c-2.5,9.1-5.9,30.4-8,80.6
					C168.1,488.9,162.2,493.9,163.1,477.5z"/>
				<path class="st21" d="M156.5,434.1c0.2-1.8,0.4-3.6,0.6-5.3l6.6-13.8c-1.6,11.3-3.1,28-4.3,52.8c-0.5,10.4-2.9-0.8-2.9-0.8
					L156.5,434.1z"/>
			</g>
			<g>
				<path class="st20" d="M172.9,399.5c0,0,23.4,8.5,28.5,11.5l-1.5,4.7c-8.2-4.3-29.8-12.7-29.8-12.7L172.9,399.5z"/>
				<path class="st20" d="M162.6,417.1c7.4,2,29.6,8.1,34.1,10.3l-1.1,4.8c-6.9-2.9-27.1-8.9-34.8-11.2L162.6,417.1z"/>
				<path class="st20" d="M158,426.7c7.8,1.8,31.8,7.4,36.5,9.1l-0.7,4.8c-7-2.2-37.4-9.2-37.4-9.2v-1.7L158,426.7z"/>
				<path class="st20" d="M156.5,439.4c8.2,1.1,32.2,4.5,36.9,5.8l-0.2,4.9c-6.9-1.5-27.2-4.3-36.7-5.6L156.5,439.4z"/>
			</g>
			<g>
				<path class="st22" d="M172.9,420c-0.2,1.4-0.4,2.9-0.5,4.5c-1.7-0.5-3.3-1-4.9-1.5c0.2-1.5,0.4-2.9,0.6-4.4
					C169.5,419,171.1,419.5,172.9,420z"/>
				<path class="st22" d="M171.7,429.9c-0.2,1.6-0.3,3.3-0.5,5c-1.7-0.4-3.4-0.8-5-1.2c0.2-1.7,0.3-3.4,0.5-5
					C168.4,429.1,170,429.5,171.7,429.9z"/>
				<path class="st22" d="M182,427.5c-1.6-0.5-3.2-1-4.8-1.5c0.2-1.6,0.4-3.1,0.6-4.6c1.6,0.5,3.2,0.9,4.8,1.4
					C182.4,424.3,182.2,425.8,182,427.5z"/>
				<path class="st22" d="M192.5,421.6c-1.4-0.6-3.1-1.2-4.8-1.9c0.3-1.7,0.5-3.2,0.8-4.8c1.7,0.6,3.3,1.2,4.8,1.7
					C193.1,418.2,192.8,419.8,192.5,421.6z"/>
				<path class="st22" d="M184,413.4c-0.3,1.4-0.5,3-0.8,4.7c-1.6-0.6-3.2-1.2-4.8-1.7c0.2-1.6,0.5-3.1,0.7-4.5
					C180.8,412.3,182.5,412.8,184,413.4z"/>
				<path class="st22" d="M170.7,441.5c-0.1,1.6-0.3,3.3-0.4,5c-1.7-0.2-3.5-0.5-5.1-0.7c0.1-1.7,0.3-3.3,0.4-5
					C167.2,441,169,441.2,170.7,441.5z"/>
				<path class="st22" d="M174.3,456.9c0.1-1.5,0.2-3.1,0.4-4.6c1.7,0.2,3.5,0.4,5.1,0.6c-0.1,1.5-0.2,3.1-0.3,4.7
					C177.8,457.4,176,457.2,174.3,456.9z"/>
				<path class="st22" d="M160.1,455.2c-1.3-0.2-2.5-0.3-3.5-0.4v-4.3c1,0.1,2.3,0.2,3.8,0.4C160.2,452.3,160.1,453.7,160.1,455.2z"
					/>
				<path class="st22" d="M161.7,432.7c-1.9-0.4-3.6-0.8-5-1.1c0.1-0.9,0.2-1.9,0.3-2.9l1-2c1.1,0.3,2.5,0.6,4.2,1
					C162,429.2,161.9,430.9,161.7,432.7z"/>
				<path class="st22" d="M169.6,456.4c-1.8-0.2-3.5-0.4-5.2-0.6c0.1-1.5,0.2-2.9,0.3-4.4c1.6,0.2,3.4,0.3,5.2,0.5
					C169.8,453.3,169.7,454.8,169.6,456.4z"/>
				<path class="st22" d="M181.5,432.3c-0.2,1.6-0.3,3.2-0.5,5c-1.6-0.4-3.3-0.8-4.9-1.2c0.2-1.7,0.3-3.3,0.5-5
					C178.3,431.5,179.9,431.9,181.5,432.3z"/>
				<path class="st22" d="M175,447.1c0.1-1.7,0.3-3.3,0.4-5c1.7,0.3,3.4,0.5,5,0.8c-0.1,1.6-0.3,3.2-0.4,4.9
					C178.5,447.6,176.8,447.4,175,447.1z"/>
				<path class="st22" d="M186.5,428.9c0.2-1.6,0.4-3.2,0.6-4.8c1.8,0.5,3.4,1.1,4.8,1.5c-0.2,1.5-0.4,3.2-0.6,4.9
					C189.9,430.1,188.3,429.5,186.5,428.9z"/>
				<path class="st22" d="M173.9,461.9c1.8,0.1,3.6,0.2,5.2,0.4c-0.1,1.6-0.2,3.2-0.3,4.9c-1.7-0.1-3.5-0.2-5.3-0.4
					C173.7,465.2,173.8,463.6,173.9,461.9z"/>
				<path class="st22" d="M174.3,410.1c-0.2,1.4-0.5,2.8-0.7,4.4c-1.7-0.6-3.3-1.2-4.8-1.7c0.2-1.5,0.5-2.9,0.7-4.3
					C171,409,172.6,409.5,174.3,410.1z"/>
				<path class="st22" d="M175.3,405c-1.8-0.7-3.3-1.3-4.2-1.7l5.2-2.5C176,402,175.7,403.4,175.3,405z"/>
				<path class="st22" d="M161.1,440.1c-0.1,1.6-0.3,3.3-0.4,5c-1.5-0.2-3-0.4-4.2-0.6v-5.1C157.7,439.6,159.3,439.8,161.1,440.1z"
					/>
				<path class="st22" d="M163.4,417.4c-0.2,1.4-0.3,2.8-0.5,4.3c-0.8-0.2-1.5-0.4-2.1-0.6l1.9-3.9
					C162.9,417.2,163.1,417.3,163.4,417.4z"/>
				<path class="st22" d="M184.9,408.9c-1.6-0.7-3.2-1.3-4.7-1.9c0.3-1.6,0.7-3,1-4.4c1.5,0.6,3.1,1.2,4.8,1.8
					C185.7,405.6,185.3,407.1,184.9,408.9z"/>
				<path class="st22" d="M194.1,412.8c-1.5-0.7-3.1-1.4-4.7-2.1c0.3-1.7,0.7-3.2,1.1-4.6c1.7,0.7,3.3,1.3,4.7,1.9
					C194.8,409.4,194.4,410.9,194.1,412.8z"/>
				<path class="st22" d="M184.5,448.6c0.1-1.6,0.3-3.3,0.4-4.9c1.9,0.3,3.6,0.6,5,0.9c-0.1,1.6-0.3,3.2-0.4,4.9
					C188.1,449.2,186.4,448.9,184.5,448.6z"/>
				<path class="st22" d="M183.7,458.3c0.1-1.6,0.2-3.2,0.4-4.8c2,0.3,3.7,0.5,5.1,0.8c-0.1,1.6-0.2,3.2-0.3,4.9
					C187.4,458.9,185.6,458.6,183.7,458.3z"/>
				<path class="st22" d="M185.5,438.3c0.2-1.7,0.3-3.3,0.5-5c1.8,0.5,3.5,0.9,4.9,1.3c-0.2,1.6-0.3,3.2-0.5,5
					C189,439.2,187.3,438.8,185.5,438.3z"/>
				<path class="st22" d="M183.4,462.6c2,0.2,3.8,0.3,5.2,0.5c-0.1,1.6-0.2,3.2-0.3,4.9c-1.5-0.2-3.3-0.3-5.3-0.5
					C183.2,465.9,183.3,464.2,183.4,462.6z"/>
				<path class="st22" d="M164,461.3c1.7,0.1,3.5,0.2,5.3,0.3c-0.1,1.6-0.2,3.3-0.3,5c-1.8-0.1-3.6-0.2-5.3-0.3
					C163.8,464.6,163.9,463,164,461.3z"/>
				<path class="st22" d="M156.5,460.8c1,0.1,2.1,0.1,3.2,0.2c-0.1,1.6-0.2,3.3-0.3,5c-1-0.1-2-0.1-3-0.2V460.8z"/>
			</g>
		</g>
		<path class="st19" d="M174.7,390.3c0,0,2.2,0.9,2.3,2.7s-8.8,11.9-8.7,12.3c0,0,0.7-1.3,1.9,2.2c1.4,4.2,3.9,9.9,3.9,9.9
			s10.7-14.6,10.7-17.8c0-0.8-5.3-8.4-10.5-10.3c0,0,0.1,0.4,0.2,0.6C174.6,390.1,174.7,390.3,174.7,390.3z"/>
		<g>
			<path class="st20" d="M169.9,406.8c1.8-2.3,8.4-11.1,9-12.8c0.1-0.4,0.2-1,0.1-1.6c1,0.9,1.9,1.8,2.7,2.7c-0.2,0.4-0.4,1-0.7,1.6
				c-1.1,2.1-7.3,10.8-9.6,13.9c-0.4-1-0.8-2.1-1.1-3.1C170.1,407.2,170,407,169.9,406.8z"/>
			<path class="st20" d="M172.7,413.9c2.4-3.4,9.8-14.2,10.4-15.8c0.1-0.3,0.1-0.7,0.1-1.2c1,1.3,1.6,2.4,1.6,2.6
				c0,3.3-10.7,17.8-10.7,17.8S173.5,415.9,172.7,413.9z"/>
		</g>
		<g>
			<path class="st21" d="M172.4,400c0.7-0.9,1.5-1.9,2.2-2.8c0.3,0,0.6,0.2,1.1,0.5c0.6,0.4,3.6,5.5,5.6,9.4c-0.8,1.3-1.7,2.7-2.6,4
				C177.5,408.5,174.3,401.4,172.4,400z"/>
			<path class="st21" d="M170.2,407.5c-1.2-3.5-1.9-2.2-1.9-2.2c-0.1-0.1,0.7-1.1,1.7-2.4l0.1,0c0,0,0.7-0.1,1.5,0.9
				c0.6,0.8,3.3,6.8,4.7,10.6c-1.2,1.8-2.1,3-2.1,3S171.7,411.7,170.2,407.5z"/>
			<path class="st21" d="M184.8,399.6c0,0.6-0.4,1.7-1.1,3c-1.9-2.7-5.4-7.3-7.5-7.9c0.5-0.8,0.7-1.4,0.7-1.7c0-0.5-0.2-0.9-0.5-1.3
				c0.2-0.2,0.6-0.6,1.3-0.5C181.6,394.2,184.8,399,184.8,399.6z"/>
		</g>
		<g>
			<path class="st22" d="M181,396.7c-0.2,0.3-0.4,0.8-0.8,1.3c-0.8-0.9-1.5-1.7-2.3-2.3c0.5-0.8,0.9-1.5,1-1.8
				c0.1-0.4,0.2-1,0.1-1.6c1,0.9,1.9,1.8,2.7,2.7C181.6,395.5,181.3,396,181,396.7z"/>
			<path class="st22" d="M171.8,404.3c0.4,0.7,1,1.9,1.7,3.4c-0.8,1.2-1.6,2.2-2.1,2.9c-0.1-0.2-0.1-0.4-0.2-0.6c0,0,0-0.1,0-0.1
				c-0.2-0.5-0.4-1-0.5-1.4c0-0.1-0.1-0.3-0.1-0.4c-0.1-0.2-0.1-0.4-0.2-0.6c-0.1-0.3-0.2-0.5-0.3-0.8
				C170.4,406.2,171,405.3,171.8,404.3z"/>
			<path class="st22" d="M182,400.1c0.6-1,1-1.7,1.1-2c0.1-0.3,0.1-0.7,0.1-1.2c0.9,1.2,1.5,2.1,1.6,2.5c0,0,0,0,0,0
				c0,0,0,0.1,0,0.1c0,0,0,0,0,0c0,0.1,0,0.2,0,0.3c0,0.1,0,0.1,0,0.2c0,0,0,0.1,0,0.1c0,0.1,0,0.2-0.1,0.3c0,0,0,0,0,0
				c-0.2,0.6-0.5,1.3-0.9,2.1C183.3,401.9,182.6,401,182,400.1z"/>
			<path class="st22" d="M174.9,410.8c0.5,1.3,1,2.5,1.4,3.6c-1.2,1.8-2.1,3-2.1,3s-0.6-1.5-1.5-3.5
				C173.2,413.2,174,412.1,174.9,410.8z"/>
		</g>
		<g>
			<path class="st22" d="M178.1,406.1l0.5-0.7l0,0c0.3-0.5,0.7-1,1-1.5c0.6,1.1,1.2,2.2,1.7,3.2c-0.8,1.3-1.7,2.7-2.6,4
				c-0.3-0.8-0.9-2-1.6-3.4C177.4,407.1,177.7,406.6,178.1,406.1L178.1,406.1z"/>
			<path class="st22" d="M176.2,398.3c0.5,0.6,1.1,1.7,1.9,2.9l-2.4,3.5c-0.6-1.1-1.2-2.2-1.8-3.1
				C174.6,400.5,175.4,399.4,176.2,398.3z"/>
		</g>
		<g>
			<path class="st23" d="M184.5,401c-0.5,1.5-1.3,3-2.1,4.4c-0.8,1.4-1.6,2.8-2.5,4.2c-1.7,2.7-3.5,5.4-5.4,8.1l-0.5,0.6l-0.3-0.7
				c-1.2-3-2.4-5.9-3.7-8.9c-0.3-0.7-0.6-1.5-0.9-2.2c-0.1-0.2-0.2-0.4-0.2-0.5l-0.1-0.3c0,0,0-0.1-0.1-0.1c0,0-0.1-0.1-0.1-0.1
				c0,0,0,0,0.1,0c0,0,0,0,0,0l-0.1,0.3l-2.1,4.3c-1.4,2.9-2.9,5.7-4.3,8.6c-1.4,2.9-2.9,5.7-4.4,8.5c1.3-2.9,2.6-5.9,3.9-8.8
				c1.3-2.9,2.6-5.8,4-8.7l2.1-4.3l0.1-0.3c0.1-0.2,0.2-0.3,0.4-0.4c0.2-0.1,0.5-0.1,0.7-0.1c0.2,0.1,0.3,0.1,0.4,0.2
				c0.1,0.1,0.2,0.2,0.3,0.4l0.1,0.3c0.1,0.2,0.2,0.4,0.3,0.6c0.3,0.7,0.7,1.5,1,2.2c1.2,3,2.4,6,3.6,9l-0.8-0.1
				c1.9-2.6,3.8-5.2,5.6-7.9c0.9-1.3,1.8-2.7,2.7-4C183,403.9,183.8,402.5,184.5,401z"/>
		</g>
	</g>
	<path class="st24" d="M216,309.1c0,0-5.7-3.9-7.7-12.2c-3.6-15.1,0.6-31.1-12-34.2c-18.1-4.5-58.5-9-80.4,0.1
		c-11.2,4.7-7.2,18.5-10.7,32c-2.6,9.9-7.7,12.7-7.7,12.7s-1-3.7-2.2-9c-0.1-0.3-0.4-0.2-0.5-0.5c0-0.2,0.2-0.9,0.2-1.1
		c-0.1-0.7-0.4-2.1-0.4-2.1l-0.9-2.4l-0.3,0.6l-0.2-1l-0.6-0.9l0-2.6l-0.1-0.6l-0.7-0.1l0.3-3.5l-0.1-1l-0.7-2.3l0.3-2.7l-0.6-1.1
		l0.6-1.5l-0.8-0.5l0.9-3l-0.4-0.8l1.3-4l-0.8-1.6l1-1.2l-0.6-1.2l1-4.5l-0.2-1.6l0.9-0.7l-0.1-1.5l0.9-1.3l-0.3-1.6l1.1-1.3
		l-0.9-1.1l1.4-1.1l-0.1-1.4l2.8-2.4l14.5-12l27.2-11.2l4.5,1.3l17.8-2.7l1.8,2.7l19,1.7l5.2,3.2l15,2.9l-1.3,1.5l11.6,9.6l1.8,0.8
		l5.6,18.6l2,2.6l-1.9,1.9l-1.3,15.2l-0.9,1l0.2,14.9l1.4,0.6l-3-7.1C219.3,297.5,216,309.1,216,309.1z"/>
	<g>
		<path class="st25" d="M156.4,451.8c0,0-2.1-5.5-5.6-12.6c-2-4.1-4.5-8.8-7.3-13.3c-3.1-5-6.5-9.7-10.1-13.1
			c-14.6-13.8-6.4-19.5-2.3-22.4l-0.9-1.2c0,0-7.5-2.6-13.1,5.2c-1.2,1.6-4.6,2.5-5.5,6.7s-3.6-1.1-3.9,7.2
			c-0.3,8.4,12.4,12,22.4,17.8c7.9,4.6,19.7,17.9,24.3,23.3C155.7,450.9,156.4,451.8,156.4,451.8z"/>
	</g>
	<path class="st26" d="M254.9,506.3c-2.7-6.2-37.4-86.4-38.2-89.8c-0.9-3.5-3.9-8.7-12.5-10.4c-8.7-1.7-45.1,41.5-46.4,45.7l0,1.1
		l-1.2,5.2l-0.1-5.2l0-1.1c-1.2-4.2-37.7-47.3-46.4-45.7c-8.7,1.7-11.6,6.9-12.5,10.4c-0.3,1.2-5.1,12.7-11.2,27
		c32.6,28.6,72.7,49,116.9,57.9l1.4-30.7l14.2,33.3c11.2,1.5,22.7,2.3,34.4,2.3C253.8,506.3,254.3,506.3,254.9,506.3z"/>
	<g>
		<path class="st27" d="M150.8,439.2c-2-4.1-4.5-8.8-7.3-13.3c-3.1-5-6.5-9.7-10.1-13.1c-14.6-13.8-6.4-19.5-2.3-22.4l1-3.8
			c0,0-6.7,1.4-9.3,2.6c-1.6,2-2.7,7.5-2.1,11.6c1.5,9.3,15.7,21.4,19.5,28.6c1.1,2,3.5,6.5,5.3,10c4.1,4.3,6.8,7.5,9,10
			c1.2,1.5,2,2.4,2,2.4S154.3,446.3,150.8,439.2z"/>
	</g>
	<g>
		<path class="st28" d="M140.2,382c0,0-16,5.5-16,14.9c0,7.8,8.4,15.8,11.5,18.7c3,2.9,6.2,7.7,6.2,7.7c-2.2-6-11.5-19.1-11.5-24.2
			c0-4.2-1-7.6,9.8-12.2C140.2,386.9,140.2,384.3,140.2,382z"/>
	</g>
	<g>
		<path class="st29" d="M126.4,394.7c2.4-4.8,8.4-8.8,13.8-10.5c0-1.2,0-1.2,0-2.2c0,0-5.1,1.1-9.6,4.9c-0.2,1-0.5,1.9-0.9,2.3
			c-1.2,1.1-1.8,0.7-3.7,4.9c-1.9,4.2,1.1,10.3,2.8,12.5l0.1-0.5C128.8,406.1,124,399.5,126.4,394.7z"/>
	</g>
	<g>
		
			<ellipse transform="matrix(9.357350e-02 -0.9956 0.9956 9.357350e-02 -306.5319 549.3143)" class="st30" cx="148.4" cy="443" rx="1.2" ry="1.7"/>
	</g>
	<g>
		<path class="st30" d="M148.1,442.3c-3.7-3.8-7.4-7.6-11.3-11.1c-1-0.9-2-1.7-3.1-2.5c-1.1-0.7-2.3-1.3-3.4-1.9l-7.1-3.6
			c-2.4-1.2-4.7-2.4-7-3.8c-1.1-0.7-2.3-1.4-3.3-2.2c-0.3-0.2-0.5-0.4-0.8-0.6c-0.3-0.2-0.5-0.4-0.8-0.7c-0.2-0.2-0.5-0.5-0.7-0.7
			l-0.7-0.8c-0.4-0.5-0.9-1-1.3-1.5c-0.4-0.5-0.8-1.1-1.1-1.7c-0.1-0.3-0.2-0.7-0.2-1.1c0-0.4,0-0.7,0.1-1l0.2-2
			c0.1-0.7,0.2-1.3,0.3-2c0.2-0.6,0.3-1.4,0.8-1.9c0.1-0.1,0.3-0.2,0.5-0.3l0.5-0.1c0.3-0.1,0.6-0.1,0.9-0.3c0.6-0.3,0.8-1,0.9-1.6
			l0.1,0c-0.1,0.6-0.3,1.4-0.9,1.8c-0.3,0.2-0.6,0.3-1,0.4l-0.5,0.1c-0.1,0-0.3,0.1-0.4,0.2c-0.4,0.4-0.6,1.1-0.7,1.7
			c-0.1,0.6-0.2,1.3-0.2,2c-0.1,0.7-0.1,1.3-0.2,2c0,0.3-0.1,0.6-0.1,1c0,0.3,0.1,0.6,0.2,0.9c0.3,0.5,0.7,1.1,1.1,1.6
			c0.4,0.5,0.9,1,1.3,1.5c1.6,2.1,3.8,3.5,6.1,4.9c2.2,1.4,4.6,2.6,6.9,3.9l7.1,3.6c1.2,0.6,2.3,1.2,3.5,2c1.1,0.8,2.1,1.7,3.1,2.5
			C140.9,434.6,144.6,438.4,148.1,442.3L148.1,442.3z"/>
	</g>
	<g>
		<polygon class="st30" points="147.8,483.4 147.8,443.8 149.1,443.8 149.1,484 		"/>
	</g>
	<g>
		<path class="st30" d="M110.4,462.3c0,0,2.9-29.8-0.3-36.4c-4.6-9.4-12.3-10-12.4-10l0-0.6c0.1,0,2.1,0.1,4.7,1.5
			c2.4,1.2,5.8,3.8,8.3,8.8c3.4,6.9,0.3,37,0.3,37L110.4,462.3z"/>
	</g>
	<g>
		<path class="st31" d="M123.1,390.5c-0.6,1.4-0.9,2.9-1.1,4.4c-0.3,1.5-0.4,3-0.3,4.5c0.1,1.5,0.5,2.9,1.1,4.3
			c0.6,1.4,1.3,2.7,2.2,4c1.6,2.6,3.5,5,5.4,7.4c1,1.2,2,2.4,2.9,3.5c0.9,1.2,1.8,2.5,2.7,3.7L133,419c-1-1.2-2-2.3-3-3.5
			c-1.9-2.4-3.8-4.8-5.5-7.4c-0.8-1.3-1.6-2.7-2.2-4.1c-0.6-1.4-1.1-2.9-1.2-4.5c-0.1-1.6,0-3.1,0.3-4.7c0.2-0.8,0.4-1.5,0.7-2.2
			C122.4,391.9,122.7,391.2,123.1,390.5z"/>
	</g>
	<g>
		<path class="st25" d="M157.8,451.8c0,0,2.1-5.5,5.6-12.6c2-4.1,4.5-8.8,7.3-13.3c3.1-5,6.5-9.7,10.1-13.1
			c14.6-13.8,6.4-19.5,2.3-22.4l0.9-1.2c0,0,7.5-2.6,13.1,5.2c1.2,1.6,4.6,2.5,5.5,6.7c0.9,4.2,3.6-1.1,3.9,7.2s-12.4,12-22.4,17.8
			c-7.9,4.6-19.7,17.9-24.3,23.3C158.5,450.9,157.8,451.8,157.8,451.8z"/>
	</g>
	<g>
		<path class="st27" d="M163.4,439.2c2-4.1,4.5-8.8,7.3-13.3c3.1-5,6.5-9.7,10.1-13.1c14.6-13.8,6.4-19.5,2.3-22.4l-1-3.8
			c0,0,6.7,1.4,9.3,2.6c1.6,2,2.7,7.5,2.1,11.6c-1.5,9.3-15.7,21.4-19.5,28.6c-1.1,2-3.5,6.5-5.3,10c-4.1,4.3-6.8,7.5-9,10
			c-1.2,1.5-2,2.4-2,2.4S159.9,446.3,163.4,439.2z"/>
	</g>
	<g>
		<path class="st28" d="M174,381.4c0,0,16,6.1,16,15.6c0,7.8-8.4,15.8-11.5,18.7c-3,2.9-6.2,7.7-6.2,7.7c2.2-6,11.5-19.1,11.5-24.2
			c0-4.2,1-7.6-9.8-12.2C174,386.9,174,383.7,174,381.4z"/>
	</g>
	<g>
		<path class="st29" d="M187.8,394.7c-2.4-4.8-8.4-8.8-13.8-10.5c0-1.2,0-1.8,0-2.9c0,0,5.1,1.4,9.6,5.2c0.2,1,0.5,2.2,0.9,2.6
			c1.2,1.1,1.8,0.7,3.7,4.9c1.9,4.2-1.1,10.3-2.8,12.5l-0.1-0.5C185.4,406.1,190.2,399.5,187.8,394.7z"/>
	</g>
	<g>
		
			<ellipse transform="matrix(0.9956 -9.357350e-02 9.357350e-02 0.9956 -40.7259 17.4574)" class="st30" cx="165.8" cy="443" rx="1.7" ry="1.2"/>
	</g>
	<g>
		<path class="st30" d="M166,442.3c3.6-3.9,7.3-7.7,11.2-11.3c1-0.9,2-1.8,3.1-2.5c1.1-0.8,2.3-1.4,3.5-2l7.1-3.6
			c2.3-1.2,4.7-2.5,6.9-3.9c2.2-1.4,4.5-2.8,6.1-4.9c0.4-0.5,0.9-1,1.3-1.5c0.4-0.5,0.8-1,1.1-1.6c0.1-0.3,0.2-0.6,0.2-0.9
			c0-0.3,0-0.6-0.1-1c-0.1-0.7-0.1-1.3-0.2-2c-0.1-0.7-0.1-1.3-0.2-2c-0.1-0.6-0.3-1.3-0.7-1.7c-0.1-0.1-0.2-0.2-0.4-0.2l-0.5-0.1
			c-0.3-0.1-0.7-0.2-1-0.4c-0.6-0.4-0.8-1.1-0.9-1.8l0.1,0c0.1,0.6,0.4,1.3,0.9,1.6c0.3,0.1,0.6,0.2,0.9,0.3l0.5,0.1
			c0.2,0,0.4,0.1,0.5,0.3c0.5,0.5,0.7,1.2,0.8,1.9c0.1,0.7,0.2,1.3,0.3,2l0.2,2c0,0.3,0.1,0.7,0.1,1c0,0.4-0.1,0.7-0.2,1.1
			c-0.3,0.7-0.7,1.2-1.1,1.7c-0.4,0.5-0.8,1-1.3,1.5l-0.7,0.8c-0.2,0.2-0.5,0.5-0.7,0.7c-0.2,0.3-0.5,0.5-0.8,0.7
			c-0.3,0.2-0.5,0.4-0.8,0.6c-1.1,0.8-2.2,1.5-3.3,2.2c-2.3,1.4-4.6,2.6-7,3.8l-7.1,3.6c-1.2,0.6-2.3,1.2-3.4,1.9
			c-1.1,0.7-2.1,1.6-3.1,2.5C173.5,434.7,169.8,438.5,166,442.3L166,442.3z"/>
	</g>
	<g>
		<rect x="165.2" y="443.8" class="st30" width="1.3" height="43"/>
	</g>
	<path class="st25" d="M159.1,450.1l-0.7,0.2c-0.7,1.2-1.1,6.6-1.3,13.7c-0.2-7-0.6-12.5-1.3-13.7l-0.7-0.2c0,0,1.4,8.3,1.1,36.9
		l1.8,0.8C157.9,458.6,159.1,450.1,159.1,450.1z"/>
	<g>
		<path class="st30" d="M204.3,470.7c-0.2-1.4-5.5-35.4-0.8-45c2.5-5.1,5.9-7.6,8.3-8.8c2.6-1.3,4.6-1.5,4.7-1.5l0,0.6
			c-0.1,0-7.8,0.6-12.4,10c-4.6,9.5,0.8,44.3,0.9,44.7L204.3,470.7z"/>
	</g>
	<g>
		<path class="st31" d="M191.1,390.5c0.4,0.7,0.7,1.4,1,2.1c0.3,0.7,0.5,1.5,0.7,2.2c0.3,1.5,0.4,3.1,0.3,4.7
			c-0.1,1.6-0.6,3.1-1.2,4.5c-0.7,1.4-1.4,2.8-2.2,4.1c-1.6,2.6-3.5,5-5.5,7.4c-1,1.2-2,2.4-3,3.5l-3.2,3.3c0.9-1.3,1.8-2.5,2.7-3.7
			c1-1.2,2-2.3,2.9-3.5c1.9-2.4,3.8-4.8,5.4-7.4c0.8-1.3,1.5-2.6,2.2-4c0.6-1.4,1-2.8,1.1-4.3c0.1-1.5,0-3-0.3-4.5
			C192,393.4,191.7,392,191.1,390.5z"/>
	</g>
	<path class="st32" d="M107.4,278.6l-2.9-9.9h1.4l-1.4-1.6h1.4l1.4-3.1l-2.9-2.8l4.6,1.4v-2h3.4l-6.8-8l10.3,7l-1.4-3.7l2.4,2.4
		v-1.1l1.3,0.9l3.8,0.4l-5.2-16.3l5.8,7.1c0,0-0.1-10.4,0.7-12.8c0,0,0,6.6,1.1,8.6l2.2-4.6l0.9,7.1c0,0-0.3-4.9,4.9-9.9l-1.4,4.6
		l11.5-9.9l-1.2,4l3.2-0.9v3.2l13-8.5l0.3,5.1l10.5-2.9l-3.9,2.8l12.4-4.1l-2.1,5.6h2.7l-1.6,1.5l12-0.5l-2,2l2,0.6l-1.4,1.1
		c0,0,8.7,0.9,10.1,0.9c1.4,0,3.3,1.5,3.3,1.5l-6.8,1.2l4.1,1.1l1.9,0.5l1.7,2.8H197l7.6,3.4l2.4,3.4l-3.6-1.9l4.5,5.1l-3.4-1.5
		l4.8,6.6v3.1l3.2,1.7l2.5,4.2l-2-1.2l0.3,1.5l0.5,2.2l-2-0.9l2.5,7.1l-3.2-3.5l-1.1,3.5l0.3,3.7l0.2,1.9L207,285v3
		c0,0-1.1-18.5-5-22.4c-4.4-4.4-13.8-9.3-34.8-9.6c-21-0.3-30.6,0.2-40.7,3.7C117.3,262.7,108.4,262.5,107.4,278.6z"/>
	<path class="st33" d="M202.1,261.3c-1-0.7-4.4-2.1-4.4-2.1l0.4-0.9l-11.5-1.2l4.7-1.7l-12.9,0.4l5.6-3.8c0,0-11.2,1-13.1,0.6
		l2.8-3.7l-21.2,2.7l3-6.7l-13.7,7l-1-8.2l-6.9,10.2l-8.6-10.4l0.4,12.1c-0.7,0.2,0.3,0.2,0.3,0.2l-5.9-8.1l4.1,11.8l-5.2-3.7
		l2.8,4.4l-4.7-2.2l2.6,2.7l-4.2-0.6l0.6,2.3l-4.8,0.5l0.7,1.9l-1.6,1.7l-2.8,0.2l1.4,1.8l-1.6,0.7l1.2,1.1l-1.4,0.8l1.5,0
		c0,0,1.4-4.7,4.8-6.8c4.6-2.9,12.2-4.5,12.4-4.6c31.8-5.6,65.1,1.3,72.7,3.8c6.9,2.3,8,18.5,8,18.5S208.2,265.5,202.1,261.3z"/>
	<path class="st24" d="M127.8,258.1c0,0,2-14.4,2.5-16.3v13.7l3.7-9.5l-0.6,7.9l1.9-3.9v5l5.2-12.4l-0.7,11.3c0,0,3-4.4,3.1-4.7
		s-0.9,4.6-0.9,4.6l11.1-14.4l-4.6,11.2l1.4-0.7l-1.2,4.4l5.7-1c0,0-7.2,3.4-11,3.7C139.5,257.3,131.2,257,127.8,258.1z"/>
	<path class="st34" d="M152,255c0,0,8.5,5.5,14,5.9l-9-4.9l16.6,4.3l-9.6-4.5l14.2,1.1C178.2,256.7,167.5,253.3,152,255z"/>
	<path class="st24" d="M159.8,245.6c0,0,6.6-5.8,9.1-7.4c2.5-1.5,5.8-4.9,5.8-4.9l-5.8,8.5l12.3-5.1l-5.3,5.1c0,0,14.1-1.1,16.8-1.4
		s0,2.8,0,2.8l8.7,2.4l-15.1,3.4l-10,1v-4.2L159.8,245.6z"/>
	<polygon class="st16" points="107.5,304.2 104.6,302.4 97.1,311 97.6,314 105.7,306.2 	"/>
	<polygon class="st16" points="206.3,304.2 209.1,302.4 216.7,311 216.2,314 208,306.2 	"/>
	<polygon class="st32" points="210.3,259.1 216.8,264.1 216,261.6 217.3,261.6 215.3,260.6 219.1,260.6 214.7,258.1 217.6,258.1 
		215.3,256.4 216.1,256.4 213.3,254 217.8,254 213.9,251.9 217.6,250.3 215.1,249.5 218.1,247.5 214.1,247.5 215,246.8 213.9,245.5 
		215.1,243.8 210,243.7 210.8,240.8 202.9,241.6 207.4,244.2 205.8,245 206.8,245.5 205.8,246.3 209.4,246.9 205,247.8 209.5,248.8 
		208.5,250 210.5,250 206.1,250.8 209.5,252.9 207.4,252.4 213.2,256.4 211,256.4 212.2,258.1 209.5,258.1 	"/>
	<polygon class="st32" points="114.8,246.9 113.8,245.8 114.1,247.1 111.9,245.5 112.4,246.9 108.1,243.5 111.2,247.5 108.6,246.4 
		110,248.9 107.2,247.4 108.5,250.1 105.3,247.4 107.4,252.1 104.4,249.3 104.7,251.9 101.6,250.1 103.3,253.7 102.3,253.2 
		101.5,254.7 99.5,254.3 101.6,259 98.6,259.5 102.7,266.3 103.2,261.2 104.5,262.2 104.6,261.2 105.7,261.7 104.7,258.2 
		107.4,261.8 106.4,257.3 107.9,257.7 106.5,254.3 110.9,255.9 110.3,252 113.9,252.5 111.9,249.7 113.9,250.6 113.7,248.2 
		115.4,249 	"/>
	<path class="st35" d="M152,312.4l0.8-1c0,0,0.8-4,1.4-4.4c0.6-0.4,2.6-0.7,2.6-0.7s2.2,0.6,2.6,0.7c0.4,0.1,0.9,1.3,1.5,4.4
		s2-0.9,2-0.9l-0.6-5.7l-9.1-0.4l-1.8,3L152,312.4z"/>
	<path class="st36" d="M199.6,299.9c-6.2-2.4-15.2-3.1-21.8-2c-8.1,1.2-14.5,6.3-14.5,6.3s-1.1-1.2-2.1-1.3
		c-0.6-0.1-3.9-0.3-4.3-0.3c-0.4,0-3.6,0.2-4.3,0.3c-1,0.1-2.1,1.3-2.1,1.3s-6.4-5.1-14.5-6.3c-6.6-1-15.6-0.4-21.8,2
		c-2,0.8-9.6,2.5-9.6,2.5v4.6c0,0,3.1-0.9,4.4,1.9c0.6,1.4,0.6,10.8,5.6,17.9c4.1,5.8,10.5,7.2,17.7,6.9
		c11.8-0.5,17.4-9.9,20.5-22.3c0,0-3.8-4.6,4.1-4.6c7.8,0,4.1,4.6,4.1,4.6c3,12.4,8.6,21.8,20.5,22.3c7.2,0.3,13.6-1.1,17.7-6.9
		c5-7.1,5-16.5,5.6-17.9c1.3-2.8,4.4-1.9,4.4-1.9v-4.6C209.1,302.4,201.6,300.7,199.6,299.9z M142,328c-3.6,3.4-16.4,6.1-23.9-0.6
		c-7.4-6.5-5.6-19.3-4.4-21.3c1-1.6,5.6-6.3,14.9-6.7c9.3-0.4,15.2,3.4,15.2,3.4c4.5,2,5.6,6.3,5.7,10.8
		C149.7,318.1,145.6,324.7,142,328z M195.6,327.5c-7.6,6.6-20.3,3.9-23.9,0.6c-3.6-3.4-7.7-9.9-7.6-14.4c0.1-4.5,1.2-8.9,5.7-10.8
		c0,0,5.9-3.8,15.2-3.4c9.3,0.4,14,5.1,14.9,6.7C201.2,308.2,203,321,195.6,327.5z"/>
</g>
<g>
	<path class="st37" d="M319.8,408.5c0,0-3.8-18.8-1.6-20.4c2.2-1.6,30.4-5.7,42.5-0.9l1.9,21.3l-37.4,16.9L319.8,408.5z"/>
	<path class="st38" d="M397.4,419.4c0,0-1.8-8.8-15.9-13.5c-14.1-4.7-24.9-9.5-24.9-19.6c0-10.1,0-26.5,0-26.5h-17.1h-17.1
		c0,0,0,16.4,0,26.5c0,10.1-10.8,14.8-24.9,19.6c-14.2,4.7-15.9,13.5-15.9,13.5l8.6,38.3h98.6L397.4,419.4z"/>
	<path class="st39" d="M401.1,283.6c0,49.1-17.4,89.1-62.1,89.1c-44.7,0-61.3-40.5-61.3-89.6c0-49.1,41.6-58.9,62-58.9
		S401.1,234.6,401.1,283.6z"/>
	<path class="st40" d="M316.9,343.2c6.8,4.1,14,4.7,21.4,4.6c7.4,0,14.5-0.9,21.5-4.6c-2.6,3-9.9,8.4-21.5,8.4
		S319.2,346.5,316.9,343.2z"/>
	<path class="st41" d="M324.3,315c0,6.7-5.5,12.2-12.3,12.2c-6.8,0-12.3-5.5-12.3-12.2c0-6.7,5.5-12.2,12.3-12.2
		C318.8,302.8,324.3,308.2,324.3,315z"/>
	<path class="st17" d="M321.1,314.9c0,4.7-3.8,8.5-8.5,8.5c-4.7,0-8.5-3.8-8.5-8.5c0-4.7,3.8-8.5,8.5-8.5
		C317.3,306.4,321.1,310.3,321.1,314.9z"/>
	<path class="st13" d="M309,310.5c0,1.4-1.1,2.5-2.5,2.5c-1.4,0-2.5-1.1-2.5-2.5s1.1-2.5,2.5-2.5C307.9,308.1,309,309.2,309,310.5z"
		/>
	<path class="st41" d="M354.5,315c0,6.7,5.5,12.2,12.3,12.2c6.8,0,12.3-5.5,12.3-12.2c0-6.7-5.5-12.2-12.3-12.2
		C360,302.8,354.5,308.2,354.5,315z"/>
	<path class="st17" d="M357.7,314.9c0,4.7,3.8,8.5,8.5,8.5c4.7,0,8.5-3.8,8.5-8.5c0-4.7-3.8-8.5-8.5-8.5
		C361.5,306.4,357.7,310.3,357.7,314.9z"/>
	<path class="st13" d="M358.1,310.5c0,1.4,1.1,2.5,2.5,2.5c1.4,0,2.5-1.1,2.5-2.5s-1.1-2.5-2.5-2.5
		C359.3,308.1,358.1,309.2,358.1,310.5z"/>
	<path class="st42" d="M401.3,411.4c0,0-0.8-1.7-5.4-3.9c-6.4-2.9-6.5-2.8-29.8-11l-26.7,20l-26.7-20c-23.3,8.2-23.4,8.1-29.8,11
		c-4.7,2.1-5.4,3.9-5.4,3.9l-36,94.6c3.9,0.2,7.8,0.3,11.7,0.3c5.5,0,10.9-0.2,16.3-0.5l19.9-42.5l3,40.1
		c35.1-5.5,67.9-18.2,96.7-36.5l0.3-3.5l1.2,2.6c8.6-5.5,16.8-11.6,24.6-18.1L401.3,411.4z"/>
	<path class="st43" d="M318,388.2c0.6,7.7,21.6,28.2,21.6,28.2s22.1-18.3,21.2-29.1l10.5,12.2c0,8.2-19.7,33.1-19.7,33.1l-11.8-15.7
		l-11.5,16.4c0,0-20.1-23.7-20.1-35.2L318,388.2z"/>
	<path class="st44" d="M371.1,399.4c0,8.2-19.7,33.1-19.7,33.1l-11.8-15.7l-11.5,16.4c0,0-20-23.7-20-35.2"/>
	<path class="st45" d="M403,264.6c-0.4-2-0.9-3.9-1.5-5.8c-0.5-1.8-1.2-5.8-1.2-5.8s-1-0.2-1.2-0.7c-0.5-1.1-0.9-4.5-0.9-4.5
		s-3.1-2.7-4.7-4.6c-1.1-1.3-4.5-5.4-4.5-5.4l-1.5,0.1l-4.1-2.9c0,0-1.9-3.2-3.3-4.3c-0.5-0.4-1.7,0.5-2.2,0.1
		c-0.8-0.6-2.4-1.8-2.4-1.8l-1.8-2.3l-5.5-1.5c0,0-1.3-1-1.9-1.1c-1.3-0.2-4.1,0.3-4.1,0.3l-1.5-1.3l-5,0.6l-3.5-1.8l-1.4,1.1
		l-3.3-0.4c0,0-1.3-0.8-2-0.9c-1-0.1-2.8,0.4-2.8,0.4s-2.4-0.8-3.4-0.8c-1.7,0-6.3,1.1-6.3,1.1l-2.3-0.4l-3.7,1.2
		c0,0-1.9-0.3-2.8-0.2c-1.1,0.2-3.1,1.2-3.1,1.2l-3.5,0.1l-1.5,0.7l-3.1-0.4l-2.4,1.2c0,0-1.4-0.2-2.1,0.1c-0.3,0.1-0.8-0.3-0.8-0.3
		l-3.4,2.6l-2.9,2.1l-1.5,0c0,0-0.9,1.9-1.7,2.5c-1,0.8-3.2,1.5-4.1,2.1c-0.7,0.5-0.1,1-0.8,1.5c-0.3,0.2-2,0.5-2.3,0.7
		c-0.5,0.4,0.2,0.8-0.3,1.2c-2,1.5-4,3.2-5.3,4.7c-0.9,1-1.6,2-2.3,3.1c-1.4,2.1-2.6,4.4-3.6,6.7c-0.4,0.9-0.7,1.7-1,2.6
		c-1,2.8-1.8,5.8-2.5,8.9c-1,4.5-0.2,9.3-0.4,14.1c-1,29.2,7.3,45.9,7.3,45.9c6-4.5-1.6-41,16.7-53.1c5.8-3.8,36.5-4.2,40-4.2
		c3.5,0,34,0.4,39.8,4.2c18.3,12.1,10.7,48.6,16.7,53.1c0,0,8.3-16.7,7.3-45.9C403.2,273.9,404,269.1,403,264.6z"/>
	<path class="st46" d="M396.1,304.5c0,0-1.1-1.9-1.5-5.7c-0.9-10-3.1-28.4-6.9-31.6c-5.4-4.4-15.9-1.9-18.6-2
		c-2.7-0.1-12-2.5-14-5.3c0,0-8.5,2.9-15.7,2.9s-11.2-2.8-11.2-2.8s-7,3.6-9.2,3.6s-5.6-1.7-5.6-1.7s-0.3,2-2.7,3
		c-4.1,1.9-14.5-0.6-16.5,2.1c-2,2.7-8.3,9.9-8.6,22.8c-0.3,12.9-3-1.4-3-2.7s1.6-20.2,2.4-20.8c0.8-0.6,3.7-2.2,3.7-2.2
		s-3.8-7.3,2.4-12.9c1.8-1.6,10.4,0,10.4,0s-0.9-10.2,2.6-11.9c3.5-1.6,7.9,2,12.8-0.5c7.7-3.8,10.8,6.6,13.5,4.8
		c2.7-1.9,3.6-11.1,10-7.7c12.7,6.7,7.6-0.1,16.4,1c8.8,1.2,5.8,5.3,12.2,9c6.7,3.8,11.8,0.9,13.7,3c2,2.1,2.4,10.4,10.6,13.6
		c8.1,3.3,3.4,32.8,3.7,34.9S397.8,304.5,396.1,304.5z"/>
	<path class="st47" d="M326.5,258.1c0,0-6.2,3.9-8.6,3.8c-2.4-0.1-5.6-4.5-6-9.4c0,0,3.2,6.5,5,6.9c1.8,0.4,1.6-3.9,3.2-3.1
		c1.6,0.8,2.8,1.4,3.7,0.9c2.1-1.2-1-16.7-5.8-24.6C318,232.6,330.1,251.8,326.5,258.1z"/>
	<path class="st47" d="M355.6,247.3c0,0-0.3,10.2-3.9,10.7c-3.6,0.4,0-30.1,0-30.1s-3,19.8-3.2,22.3s-1.6,3.8-2.5,3.9
		s0.2,3.9-0.9,4.4c-1.1,0.5-4.1,1.2-4.9-3.1c0,0-0.2,4.3,3,5c3.2,0.6,10.5-1,11.8-2.4C356.3,256.5,356.4,250,355.6,247.3z"/>
	<path class="st47" d="M298.1,262.4c1.5-0.1,3-0.1,4.5-0.1c1.5,0,3,0,4.4,0c0.7,0,1.5-0.1,2.1-0.2c0.6-0.1,0.9-0.5,1.1-1.1
		c0.2-0.6,0.2-1.3,0.1-2c-0.1-0.7-0.2-1.4-0.5-2.2c0.5,0.6,0.8,1.3,1.1,2c0.2,0.7,0.4,1.5,0.3,2.4c-0.1,0.4-0.3,0.9-0.6,1.2
		c-0.2,0.2-0.3,0.4-0.6,0.5c-0.2,0.1-0.5,0.2-0.7,0.3c-0.8,0.3-1.6,0.3-2.4,0.3c-1.5,0-3-0.1-4.5-0.3
		C301,263.1,299.5,262.8,298.1,262.4z"/>
	<path class="st47" d="M359.8,240.4c-0.3,3.4-0.5,6.9-0.5,10.3c0,1.7,0,3.4,0.2,5.1c0.1,0.8,0.2,1.7,0.4,2.4
		c0.2,0.8,0.5,1.5,0.9,2.1c0.2,0.2,0.5,0.5,0.8,0.7c0.3,0.2,0.6,0.4,1,0.6c0.7,0.3,1.4,0.4,2.2,0.2c0.4-0.1,0.8-0.2,1.2-0.3
		c0.4-0.1,0.8-0.3,1.4-0.3c0.1,0,0.3,0,0.4,0c0.2,0,0.3,0.1,0.5,0.1c0.2,0.1,0.3,0.1,0.4,0.2c0.1,0.1,0.2,0.2,0.3,0.3
		c0.2,0.2,0.3,0.5,0.4,0.7c0.1,0.2,0,0.1,0.1,0.2c0.2,0.1,0.7,0.2,1.1,0.2c0.4,0,0.8,0.1,1.3,0.1c0.8,0,1.6-0.1,2.4-0.3
		c1.6-0.4,3.1-1.2,4.5-2.3c-1.2,1.3-2.7,2.3-4.3,2.9c-0.8,0.3-1.7,0.5-2.6,0.6c-0.4,0-0.9,0-1.3,0c-0.5,0-0.9,0-1.4-0.2
		c-0.1-0.1-0.3-0.2-0.4-0.3c-0.1-0.1-0.1-0.1-0.2-0.2l-0.1-0.2c-0.1-0.2-0.1-0.3-0.2-0.4c-0.1,0-0.1-0.1-0.2-0.1
		c-0.1,0-0.1-0.1-0.2-0.1c0,0-0.1,0-0.2,0c-0.1,0-0.1,0-0.2,0c-0.6,0.1-1.5,0.5-2.4,0.7c-0.9,0.2-2,0.1-2.9-0.3
		c-0.5-0.2-0.9-0.4-1.3-0.7c-0.4-0.3-0.7-0.5-1.1-1c-0.6-0.8-0.9-1.7-1.1-2.6c-0.2-0.9-0.3-1.8-0.4-2.6c-0.1-1.8-0.1-3.5,0-5.2
		C358.5,247.2,359,243.7,359.8,240.4z"/>
</g>
</svg>
