<?xml version="1.0" encoding="utf-8"?>
<!-- Generator: Adobe Illustrator 26.2.1, SVG Export Plug-In . SVG Version: 6.00 Build 0)  -->
<svg version="1.1" xmlns="http://www.w3.org/2000/svg" xmlns:xlink="http://www.w3.org/1999/xlink" x="0px" y="0px"
	 viewBox="0 0 570.8 323.4" style="enable-background:new 0 0 570.8 323.4;" xml:space="preserve">
<style type="text/css">
	.st0{fill:#004152;}
	.st1{fill:#00303D;}
	.st2{fill:#AEB0B3;}
	.st3{fill:#BEA373;}
	.st4{fill:#D0B27D;}
	.st5{fill:#494032;}
	.st6{fill:#896C4F;}
	.st7{fill:#271F12;}
	.st8{fill:#FFFFFF;}
	.st9{fill:#0EB1AA;}
	.st10{fill:#F3F2F3;}
	.st11{fill:#262524;}
	.st12{fill:#393735;}
	.st13{fill:#504C4A;}
	.st14{fill:#DADCDC;}
	.st15{fill:url(#SVGID_1_);}
	.st16{fill:#F4E5EC;}
	.st17{fill:#CA90AF;}
	.st18{fill:#DDB6CC;}
	.st19{fill:#DFB2C7;}
	.st20{fill:#D0A9BE;}
	.st21{fill:#FCF1F7;}
	.st22{fill:#BD9AA8;}
	.st23{fill:#FBDCC7;}
	.st24{fill:#CB9780;}
	.st25{fill:#E3C7B5;}
	.st26{fill:#A4693C;}
	.st27{fill:#D3D4D5;}
	.st28{fill:#E8E7E7;}
	.st29{fill:#C1C3C6;}
	.st30{fill:#4B3715;}
	.st31{fill:url(#SVGID_00000178920715680248652170000010702059660848073875_);}
	.st32{fill:#F3D799;}
	.st33{fill:#C32D77;}
	.st34{fill:#5F4015;}
	.st35{fill:#754C1D;}
	.st36{fill:#A16526;}
	.st37{fill:url(#SVGID_00000059289954940174714720000014298701506946286256_);}
	.st38{fill:url(#SVGID_00000127025128823590638880000006121891208048277414_);}
	.st39{fill:#1BABE3;}
	.st40{fill:#234471;}
	.st41{opacity:0.2;fill:#FFFCEF;}
	.st42{fill:#F49B21;}
</style>
<g id="Layer_1">
</g>
<g id="Layer_2">
</g>
<g id="Layer_4">
	<g>
		<path class="st0" d="M520.4,323.4H50.4C22.6,323.4,0,300.8,0,273V50.4C0,22.6,22.6,0,50.4,0h470.1c27.8,0,50.4,22.6,50.4,53.3
			v222.6C570.8,300.8,548.3,323.4,520.4,323.4z"/>
		<path class="st1" d="M570.8,275.9v-98.5L1.2,143.7v140.1c4.9,22.7,25.1,39.7,49.2,39.7h470.1C548.3,323.4,570.8,300.8,570.8,275.9
			z"/>
		<g>
			<path class="st2" d="M481.8,227.1c0,5.1-10.5,33.7-23.5,33.7s-23.5-28.6-23.5-33.7c0-1.4,11.6-3.7,23.3-3.7
				C469.9,223.4,481.8,225.6,481.8,227.1z"/>
			<path class="st3" d="M521.2,260.9c0,0-1.9-9.5-17.4-14.7c-15.4-5.1-27.1-10.4-27.1-21.3c0-10.9,0-28.8,0-28.8h-18.6h-18.6
				c0,0,0,17.9,0,28.8c0,11-11.7,16.2-27.1,21.3c-15.4,5.1-17.4,14.7-17.4,14.7l9.4,41.7h107.4L521.2,260.9z"/>
			<path class="st4" d="M525.3,113.1c0,53.4-18.9,97-67.7,97c-48.7,0-66.7-44.1-66.7-97.6c0-53.4,45.3-64.2,67.5-64.2
				S525.3,59.7,525.3,113.1z"/>
			<path class="st5" d="M433.5,178c7.4,4.5,15.3,5.1,23.3,5c8.1,0,15.8-1,23.4-5c-2.8,3.3-10.8,9.1-23.4,9.1S436.1,181.6,433.5,178z
				"/>
			<path class="st6" d="M441.6,147.2c0,7.3-6,13.3-13.4,13.3c-7.4,0-13.4-6-13.4-13.3c0-7.3,6-13.3,13.4-13.3
				C435.6,133.9,441.6,139.9,441.6,147.2z"/>
			<path class="st7" d="M438.2,147.2c0,5.1-4.2,9.3-9.3,9.3c-5.1,0-9.3-4.2-9.3-9.3c0-5.1,4.2-9.3,9.3-9.3
				C434,137.9,438.2,142.1,438.2,147.2z"/>
			<path class="st8" d="M425,142.4c0,1.5-1.2,2.7-2.7,2.7c-1.5,0-2.7-1.2-2.7-2.7s1.2-2.7,2.7-2.7C423.8,139.7,425,140.9,425,142.4z
				"/>
			<path class="st6" d="M474.5,147.2c0,7.3,6,13.3,13.4,13.3c7.4,0,13.4-6,13.4-13.3c0-7.3-6-13.3-13.4-13.3
				C480.5,133.9,474.5,139.9,474.5,147.2z"/>
			<path class="st7" d="M478,147.2c0,5.1,4.2,9.3,9.3,9.3c5.1,0,9.3-4.2,9.3-9.3c0-5.1-4.2-9.3-9.3-9.3
				C482.1,137.9,478,142.1,478,147.2z"/>
			<path class="st8" d="M478.5,142.4c0,1.5,1.2,2.7,2.7,2.7c1.5,0,2.7-1.2,2.7-2.7s-1.2-2.7-2.7-2.7
				C479.7,139.7,478.5,140.9,478.5,142.4z"/>
			<path class="st9" d="M525.5,252.2c0,0-0.8-1.9-5.9-4.2c-7-3.2-7.1-3-32.4-12L458,257.8L428.9,236c-25.4,9-25.5,8.8-32.4,12
				c-5.1,2.3-5.9,4.2-5.9,4.2l-27.1,71.2h33.2l6.9-14.7l1.1,14.7h106.7l1.1-14.7l6.9,14.7h1.1c10.7,0,20.6-3.3,28.7-8.8L525.5,252.2
				z"/>
			<path class="st10" d="M434.8,227c0.7,8.4,23.5,30.7,23.5,30.7l-12.4,18.3c0,0-21.8-25.9-21.8-38.3L434.8,227z"/>
			<path class="st10" d="M481.7,227c-0.7,8.4-23.5,30.7-23.5,30.7l12.4,18.3c0,0,21.8-25.9,21.8-38.3L481.7,227z"/>
			<path class="st11" d="M527.3,92.4c-0.5-2.1-1-4.3-1.6-6.3c-0.6-1.9-1.3-6.3-1.3-6.3s-1.1-0.2-1.3-0.7c-0.5-1.2-1-4.8-1-4.8
				s-3.4-3-5.1-5c-1.2-1.4-4.9-5.8-4.9-5.8l-1.7,0.2l-4.4-3.2c0,0-2.1-3.5-3.6-4.7c-0.5-0.4-1.8,0.5-2.4,0.1c-0.9-0.7-2.7-2-2.7-2
				l-2-2.5l-5.9-1.6c0,0-1.4-1.1-2.1-1.2c-1.4-0.2-4.4,0.4-4.4,0.4l-1.7-1.4l-5.4,0.7l-3.8-1.9l-1.5,1.2l-3.6-0.4
				c0,0-1.4-0.9-2.1-0.9c-1.1-0.1-3.1,0.4-3.1,0.4s-2.6-0.9-3.7-0.9c-1.8,0-6.8,1.2-6.8,1.2l-2.5-0.4l-4.1,1.3c0,0-2.1-0.4-3.1-0.2
				c-1.2,0.2-3.4,1.3-3.4,1.3l-3.8,0.1l-1.6,0.7l-3.3-0.5l-2.7,1.3c0,0-1.5-0.2-2.3,0.1c-0.3,0.1-0.9-0.3-0.9-0.3L420,53l-3.1,2.3
				l-1.6,0c0,0-1,2.1-1.8,2.7c-1,0.8-3.5,1.6-4.5,2.3c-0.7,0.5-0.1,1.1-0.9,1.6c-0.4,0.3-2.1,0.5-2.5,0.8c-0.6,0.4,0.2,0.8-0.3,1.3
				c-2.2,1.7-4.4,3.5-5.8,5.1c-0.9,1.1-1.8,2.2-2.6,3.4c-1.6,2.3-2.9,4.7-3.9,7.3c-0.4,0.9-0.8,1.9-1.1,2.9c-1.1,3.1-2,6.3-2.7,9.7
				c-1.1,4.9-0.2,10.1-0.4,15.4c-1.1,31.8,7.9,50,7.9,50c6.6-4.8-1.8-44.6,18.2-57.8c6.3-4.2,39.7-4.6,43.5-4.6s37,0.4,43.3,4.6
				c19.9,13.2,11.6,52.9,18.2,57.8c0,0,9-18.1,7.9-50C527.5,102.5,528.4,97.3,527.3,92.4z"/>
			<path class="st12" d="M519.8,135.9c0,0-1.2-2.1-1.6-6.2c-1-10.9-3.3-31-7.6-34.4c-5.8-4.8-17.3-2.1-20.2-2.2
				c-2.9-0.1-13.1-2.7-15.3-5.8c0,0-9.3,3.2-17,3.2s-12.2-3-12.2-3s-7.6,3.9-10,3.9s-6.1-1.9-6.1-1.9s-0.4,2.1-2.9,3.3
				c-4.5,2.1-15.8-0.6-18,2.3s-9,10.8-9.4,24.8c-0.4,14.1-3.3-1.5-3.3-2.9c0-1.4,1.8-22.1,2.7-22.7c0.9-0.6,4.1-2.4,4.1-2.4
				s-4.1-7.9,2.7-14.1c1.9-1.7,11.3,0,11.3,0s-1-11.2,2.8-12.9c3.8-1.8,8.6,2.1,13.9-0.5c8.4-4.2,11.8,7.2,14.7,5.2
				c2.9-2,3.9-12.1,10.9-8.4c13.9,7.3,8.2-0.1,17.9,1.1c9.6,1.3,6.3,5.7,13.3,9.8c7.3,4.2,12.8,1,15,3.3c2.2,2.3,2.7,11.3,11.5,14.8
				c8.9,3.5,3.7,35.7,4.1,38C521.3,130.4,521.7,135.9,519.8,135.9z"/>
			<path class="st13" d="M444,85.3c0,0-6.7,4.2-9.3,4.1c-2.6-0.1-6.1-4.9-6.5-10.2c0,0,3.4,7,5.4,7.5s1.7-4.2,3.5-3.4
				c1.7,0.9,3.1,1.5,4,1c2.3-1.3-1-18.2-6.3-26.8C434.8,57.6,447.9,78.5,444,85.3z"/>
			<path class="st13" d="M475.8,73.5c0,0-0.3,11.1-4.2,11.6c-3.9,0.5,0-32.7,0-32.7s-3.3,21.6-3.5,24.3c-0.2,2.7-1.7,4.1-2.7,4.2
				s0.2,4.2-1,4.8c-1.2,0.6-4.4,1.3-5.3-3.4c0,0-0.2,4.7,3.3,5.4c3.5,0.7,11.5-1.1,12.8-2.6C476.5,83.6,476.6,76.5,475.8,73.5z"/>
			<path class="st13" d="M413.1,90c1.6-0.1,3.3-0.1,4.9-0.1c1.6,0,3.2,0,4.8,0c0.8,0,1.6-0.1,2.3-0.2c0.6-0.1,1-0.5,1.2-1.2
				c0.2-0.6,0.2-1.4,0.1-2.2c-0.1-0.8-0.3-1.6-0.5-2.4c0.5,0.6,0.9,1.4,1.2,2.2c0.3,0.8,0.4,1.7,0.3,2.6c-0.1,0.5-0.3,1-0.6,1.4
				c-0.2,0.2-0.4,0.4-0.6,0.5c-0.2,0.1-0.5,0.3-0.7,0.3c-0.9,0.3-1.7,0.3-2.6,0.4c-1.7,0-3.3-0.1-4.9-0.3
				C416.3,90.7,414.6,90.4,413.1,90z"/>
			<path class="st13" d="M480.3,66c-0.3,3.7-0.5,7.5-0.6,11.2c0,1.9,0,3.7,0.2,5.5c0.1,0.9,0.2,1.8,0.4,2.7c0.2,0.8,0.5,1.7,1,2.3
				c0.2,0.3,0.6,0.5,0.9,0.8c0.4,0.2,0.7,0.5,1.1,0.6c0.7,0.3,1.5,0.4,2.4,0.3c0.4-0.1,0.8-0.2,1.3-0.3c0.4-0.1,0.9-0.3,1.5-0.3
				c0.1,0,0.3,0,0.5,0c0.2,0,0.3,0.1,0.5,0.2c0.2,0.1,0.3,0.2,0.4,0.2c0.1,0.1,0.2,0.2,0.3,0.3c0.2,0.2,0.4,0.6,0.4,0.8
				c0.1,0.2,0,0.1,0.2,0.2c0.3,0.1,0.7,0.2,1.2,0.2c0.4,0,0.9,0.1,1.4,0.1c0.9,0,1.8-0.1,2.7-0.3c1.8-0.5,3.4-1.4,4.9-2.5
				c-1.3,1.4-2.9,2.5-4.7,3.1c-0.9,0.3-1.9,0.6-2.9,0.6c-0.5,0-1,0-1.4,0c-0.5,0-1,0-1.6-0.2c-0.2-0.1-0.3-0.2-0.5-0.3
				c-0.1-0.1-0.1-0.2-0.2-0.2l-0.1-0.2c-0.1-0.2-0.2-0.3-0.3-0.4c-0.1,0-0.1-0.1-0.2-0.2c-0.1,0-0.2-0.1-0.2-0.1
				c-0.1,0-0.1-0.1-0.2,0c-0.1,0-0.1,0-0.2,0c-0.7,0.1-1.6,0.6-2.6,0.7c-1,0.2-2.2,0.1-3.1-0.3c-0.5-0.2-0.9-0.5-1.4-0.7
				c-0.4-0.3-0.8-0.6-1.2-1.1c-0.7-0.9-1-1.9-1.2-2.8c-0.2-1-0.4-1.9-0.4-2.9c-0.1-1.9-0.1-3.8,0-5.7
				C478.9,73.4,479.4,69.7,480.3,66z"/>
			<g>
				<path class="st14" d="M470.6,276.7l-12.3-18.2l-12.3,18.2l-0.4-0.5c-0.9-1.1-21.6-25.8-21.9-38.3c0.4-0.2,0.8-0.6,0.8-0.6
					c0.1,0.1,0.1,0.2,0.1,0.3c0,11.2,18.4,33.9,21.3,37.5l12.1-17.9l0.3,0.3l0.4-0.3l12.1,17.9c3-3.6,21.3-26.3,21.3-37.5
					c0-0.1,0.1-0.3,0.1-0.3s0.3,0.4,0.8,0.7c-0.4,12.6-21.1,37.1-21.9,38.2L470.6,276.7z"/>
			</g>
		</g>
		<g>
			<linearGradient id="SVGID_1_" gradientUnits="userSpaceOnUse" x1="115.5566" y1="302.4886" x2="115.5566" y2="196.2337">
				<stop  offset="0" style="stop-color:#FBDCC7"/>
				<stop  offset="1" style="stop-color:#E9CCB9"/>
			</linearGradient>
			<path class="st15" d="M178.5,260.9c0,0-1.9-9.5-17.3-14.6c-15.4-5.1-27.1-10.3-27.1-21.3c0-10.9,0-28.8,0-28.8h-18.6H97
				c0,0,0,17.8,0,28.8c0,10.9-11.7,16.1-27.1,21.3c-15.4,5.1-17.3,14.6-17.3,14.6l9.4,41.6h107.1L178.5,260.9z"/>
			<g>
				<circle class="st16" cx="93.5" cy="235.4" r="3.5"/>
				<circle class="st8" cx="92.9" cy="233.7" r="0.9"/>
			</g>
			<g>
				<circle class="st16" cx="99.2" cy="239.4" r="3.5"/>
				<circle class="st8" cx="98.6" cy="237.7" r="0.9"/>
			</g>
			<g>
				<circle class="st16" cx="105.6" cy="242" r="3.5"/>
				<circle class="st8" cx="105" cy="240.5" r="0.9"/>
			</g>
			<g>
				<circle class="st16" cx="119.5" cy="242.9" r="3.5"/>
				<circle class="st8" cx="118.9" cy="241.5" r="0.9"/>
			</g>
			<g>
				<circle class="st16" cx="112.5" cy="243" r="3.5"/>
				<circle class="st8" cx="112.2" cy="241.2" r="0.9"/>
			</g>
			<path class="st17" d="M180.9,262.1c0,0-1-9.5-11-14.4c-10-4.9-22.1-6.8-22.1-6.8s-2.5,25.6-32.8,25.6
				c-30.3-0.1-32.8-25.6-32.8-25.6s-12,1.9-22.1,6.8c-10,4.9-11,14.4-11,14.4c-10.5,14.5-21.5,33-30.7,49.8
				c8.5,7,19.4,11.2,31.2,11.4l11.5-15.6l3.1,15.6h101.7l3.1-15.6l11.5,15.6h37.4C207.5,304,193.9,280.1,180.9,262.1z"/>
			<g>
				<circle class="st16" cx="126.3" cy="242" r="3.5"/>
				<circle class="st8" cx="125.7" cy="240.5" r="0.9"/>
			</g>
			<g>
				<circle class="st16" cx="132.8" cy="239.4" r="3.5"/>
				<circle class="st8" cx="132.2" cy="237.9" r="0.9"/>
			</g>
			<g>
				<circle class="st16" cx="138.4" cy="235.4" r="3.5"/>
				<circle class="st8" cx="137.8" cy="233.9" r="0.9"/>
			</g>
			<g>
				<g>
					<path class="st18" d="M76.5,269.7c-0.9,0-1.9,0.1-2.9,0.4c0.6-0.5,1.1-1.1,1.6-1.6c1.5-1.8,1.2-2.6,0.5-3.2
						c-0.7-0.6-1.6-0.7-3.1,1c-0.4,0.5-0.9,1.1-1.2,1.7c-0.1-0.8-0.2-1.6-0.3-2.3c-0.5-2.2-1.4-2.5-2.3-2.3c-0.9,0.2-1.5,0.8-1,3.1
						c0.2,0.7,0.5,1.6,0.8,2.3c-0.7-0.5-1.4-0.9-2.1-1.2c-2.1-0.9-2.8-0.5-3.2,0.4c-0.4,0.8-0.3,1.7,1.8,2.7
						c0.7,0.3,1.5,0.6,2.2,0.8c-0.8,0.2-1.6,0.5-2.2,0.9c-2.1,1-2.1,1.9-1.7,2.7c0.4,0.8,1.2,1.3,3.2,0.3c0.6-0.3,1.3-0.7,1.9-1.2
						c-0.3,0.7-0.5,1.5-0.6,2.2c-0.4,2.3,0.3,2.8,1.2,3c0.9,0.2,1.7-0.1,2.1-2.4c0.1-0.8,0.2-1.7,0.2-2.6c0.5,0.7,1,1.5,1.5,2.1
						c1.5,1.7,2.4,1.5,3.1,0.9c0.7-0.6,0.9-1.5-0.6-3.2c-0.4-0.5-0.9-0.9-1.5-1.4c0.8,0.1,1.7,0.2,2.5,0.2c2.3,0,2.7-0.8,2.7-1.7
						C79.2,270.4,78.8,269.7,76.5,269.7z M71.2,272.5c-0.8,0.2-1.6-0.3-1.7-1.1c-0.2-0.8,0.3-1.6,1.1-1.7c0.8-0.2,1.6,0.3,1.7,1.1
						S71.9,272.3,71.2,272.5z"/>
					<path class="st18" d="M82.4,292.3c-1,0-2.2,0.2-3.2,0.4c0.7-0.6,1.3-1.2,1.8-1.8c1.7-2,1.4-2.9,0.6-3.6
						c-0.8-0.7-1.8-0.8-3.4,1.1c-0.5,0.6-1,1.2-1.4,1.9c-0.1-0.9-0.2-1.8-0.4-2.5c-0.6-2.5-1.5-2.8-2.5-2.6c-1,0.2-1.7,0.9-1.1,3.4
						c0.2,0.8,0.5,1.8,0.9,2.6c-0.7-0.5-1.6-1-2.3-1.3c-2.3-1.1-3.1-0.5-3.6,0.4c-0.4,0.9-0.3,1.9,2,3c0.7,0.3,1.6,0.6,2.5,0.9
						c-0.9,0.3-1.7,0.6-2.5,1c-2.3,1.1-2.4,2.1-1.9,3c0.5,0.9,1.3,1.5,3.6,0.3c0.7-0.3,1.5-0.8,2.2-1.3c-0.3,0.8-0.5,1.7-0.7,2.5
						c-0.5,2.5,0.3,3.2,1.3,3.4c1,0.2,1.9-0.2,2.4-2.7c0.2-0.9,0.2-1.9,0.2-2.9c0.5,0.8,1.1,1.7,1.7,2.3c1.7,1.9,2.7,1.7,3.5,1
						c0.8-0.7,1-1.6-0.7-3.5c-0.5-0.5-1-1.1-1.6-1.5c0.9,0.1,1.9,0.2,2.8,0.2c2.6,0,3.1-0.9,3-1.9C85.5,293.1,85,292.3,82.4,292.3z
						 M76.5,295.5c-0.9,0.2-1.8-0.3-2-1.2s0.3-1.8,1.2-2c0.9-0.2,1.8,0.3,2,1.2C77.9,294.4,77.4,295.3,76.5,295.5z"/>
					<path class="st18" d="M83.8,313.5c-0.5,0.5-1,1.1-1.4,1.6c0.1-0.6,0.1-1.1,0.1-1.7c-0.1-1.7-0.6-2-1.3-2
						c-0.7,0-1.2,0.4-1.1,2.1c0,0.5,0.1,1,0.2,1.5c-0.4-0.4-0.9-0.8-1.3-1.1c-1.4-0.9-2-0.7-2.4-0.1c-0.4,0.6-0.4,1.2,1,2.2
						c0.5,0.3,1,0.6,1.6,0.9c-0.6,0.1-1.2,0.2-1.7,0.4c-1.6,0.5-1.7,1.2-1.5,1.8c0.2,0.6,0.7,1.1,2.3,0.5c0.5-0.2,1.1-0.4,1.6-0.7
						c-0.3,0.5-0.6,1.1-0.8,1.6c-0.6,1.6-0.2,2.1,0.4,2.3c0.6,0.2,1.3,0.1,1.9-1.5c0.2-0.5,0.3-1,0.5-1.6c0.2,0.5,0.5,1,0.8,1.5
						c0.9,1.4,1.6,1.4,2.1,1c0.6-0.4,0.9-1-0.1-2.4c-0.3-0.5-0.7-1-1.2-1.5c0.6,0.2,1.3,0.3,1.9,0.3c1.7,0.1,2.1-0.4,2.1-1.1
						c0.1-0.7-0.2-1.3-1.9-1.4c-0.5,0-1,0-1.5,0c0.5-0.3,1-0.8,1.4-1.1c1.2-1.2,1.1-1.8,0.6-2.3C85.7,312.5,85.1,312.3,83.8,313.5z
						 M82.4,317.7c-0.3,0.5-1,0.6-1.5,0.3c-0.5-0.3-0.6-1-0.3-1.5c0.3-0.5,1-0.6,1.5-0.3C82.6,316.5,82.7,317.2,82.4,317.7z"/>
					<path class="st18" d="M101.1,279.7c-0.7,0-1.5,0.1-2.3,0.3c0.5-0.4,0.9-0.8,1.3-1.2c1.2-1.4,0.9-2,0.4-2.5
						c-0.6-0.5-1.2-0.6-2.4,0.8c-0.3,0.4-0.7,0.9-1,1.3c0-0.6-0.1-1.2-0.3-1.8c-0.4-1.8-1.1-2-1.8-1.8c-0.7,0.2-1.2,0.6-0.8,2.4
						c0.1,0.6,0.4,1.2,0.6,1.8c-0.5-0.4-1.1-0.7-1.6-0.9c-1.6-0.7-2.2-0.4-2.5,0.3c-0.3,0.7-0.2,1.3,1.4,2.1
						c0.5,0.2,1.1,0.4,1.7,0.6c-0.6,0.2-1.2,0.4-1.7,0.7c-1.6,0.8-1.7,1.5-1.3,2.1c0.3,0.7,0.9,1,2.5,0.2c0.5-0.2,1-0.6,1.5-0.9
						c-0.2,0.6-0.4,1.2-0.5,1.7c-0.3,1.8,0.2,2.2,0.9,2.4c0.7,0.1,1.4-0.1,1.7-1.9c0.1-0.6,0.2-1.3,0.2-2c0.4,0.6,0.8,1.2,1.2,1.6
						c1.2,1.3,1.9,1.2,2.4,0.7c0.5-0.5,0.7-1.1-0.5-2.5c-0.3-0.4-0.7-0.7-1.1-1.1c0.7,0.1,1.3,0.2,1.9,0.1c1.8,0,2.1-0.6,2.1-1.4
						C103.3,280.2,102.9,279.7,101.1,279.7z M96.9,281.9c-0.6,0.1-1.2-0.2-1.4-0.9c-0.1-0.6,0.2-1.2,0.9-1.4s1.2,0.2,1.4,0.9
						S97.6,281.7,96.9,281.9z"/>
					<path class="st18" d="M108.6,301.8c-1.1,0-2.3,0.2-3.4,0.4c0.7-0.6,1.4-1.3,1.9-1.9c1.8-2.1,1.4-3.1,0.6-3.8
						c-0.8-0.7-1.9-0.9-3.7,1.2c-0.5,0.6-1,1.3-1.5,2.1c-0.1-0.9-0.2-1.9-0.4-2.7c-0.6-2.7-1.6-3-2.7-2.7c-1.1,0.3-1.8,1-1.2,3.7
						c0.2,0.9,0.5,1.9,0.9,2.8c-0.8-0.5-1.7-1-2.5-1.4c-2.5-1.1-3.4-0.5-3.8,0.5c-0.5,1-0.3,2.1,2.2,3.2c0.8,0.4,1.7,0.7,2.7,0.9
						c-0.9,0.3-1.9,0.6-2.6,1c-2.5,1.2-2.5,2.3-2.1,3.3c0.5,1,1.4,1.6,3.8,0.3c0.7-0.4,1.6-0.9,2.3-1.4c-0.3,0.9-0.6,1.8-0.7,2.6
						c-0.5,2.7,0.3,3.4,1.4,3.6c1.1,0.2,2.1-0.2,2.6-2.9c0.2-0.9,0.3-2,0.3-3.1c0.5,0.9,1.2,1.8,1.8,2.5c1.8,2,2.9,1.8,3.7,1.1
						c0.8-0.7,1.1-1.7-0.7-3.8c-0.5-0.6-1.1-1.1-1.7-1.6c1,0.2,2,0.2,3,0.2c2.7,0,3.3-1,3.3-2.1
						C111.9,302.7,111.4,301.8,108.6,301.8z M102.3,305.2c-0.9,0.2-1.9-0.4-2.1-1.3c-0.2-0.9,0.4-1.9,1.3-2.1s1.9,0.4,2.1,1.3
						C103.8,304,103.2,304.9,102.3,305.2z"/>
					<g>
						<path class="st18" d="M108.3,322.6c-0.5-0.5-1.2-0.6-2.4,0.8h2.8C108.7,323.1,108.6,322.8,108.3,322.6z"/>
						<path class="st18" d="M104.7,323c-0.4-1.7-1.1-2-1.8-1.8c-0.7,0.2-1.2,0.6-0.8,2.2h2.7C104.8,323.3,104.8,323.1,104.7,323z"/>
					</g>
					<g>
						<path class="st18" d="M70.2,322.3c-0.8-0.7-1.8-0.9-3.5,1.1h4.2C70.8,323,70.5,322.6,70.2,322.3z"/>
						<path class="st18" d="M64.8,323.4c0-0.2-0.1-0.4-0.1-0.5c-0.3-1.2-0.7-2-1.1-2.4l0.6,2.9H64.8z"/>
					</g>
					<path class="st18" d="M31.6,294c0.7,0.8,1.7,1.1,3.7-0.7c0.7-0.6,1.4-1.4,2.1-2.2c-0.1,1-0.1,2.1-0.1,3
						c0.2,2.7,1.1,3.2,2.2,3.1c1.1-0.1,1.9-0.7,1.7-3.4c-0.1-0.7-0.2-1.5-0.4-2.3c0.7,0.7,1.4,1.4,2.2,2c2.2,1.6,3.1,1.2,3.8,0.4
						c0.7-0.9,0.8-1.9-1.4-3.5c-0.8-0.6-1.9-1.3-2.9-1.8c0.9,0,1.8-0.1,2.6-0.3c2.7-0.5,3-1.5,2.8-2.6c-0.2-1.1-0.9-1.8-3.6-1.3
						c-0.8,0.2-1.6,0.4-2.4,0.7c0.5-0.8,1-1.6,1.4-2.4c1.1-2.5,0.6-3.3-0.4-3.8s-2-0.4-3.2,2.1c-0.4,0.8-0.7,1.8-1,2.7
						c-0.3-0.9-0.7-1.8-1.1-2.6c-0.2-0.4-0.4-0.7-0.6-1c-0.8,1.3-1.6,2.5-2.4,3.8c0.3,0.5,0.6,0.9,0.9,1.4c-0.5-0.2-1-0.4-1.5-0.5
						c-0.7,1.2-1.4,2.4-2.2,3.5c0.1,0,0.1,0,0.2,0c0.8,0.2,1.7,0.3,2.6,0.3c-0.8,0.5-1.5,1.1-2.1,1.6
						C30.6,292.1,30.8,293.1,31.6,294z M37.7,286.7c0.4-0.9,1.4-1.2,2.3-0.8s1.2,1.4,0.8,2.3c-0.4,0.9-1.4,1.2-2.3,0.8
						C37.6,288.6,37.3,287.6,37.7,286.7z"/>
					<path class="st18" d="M26.2,311c-0.1-0.7-0.2-1.5-0.3-2.2c0.6,0.7,1.4,1.4,2.1,1.9c2,1.5,3,1.2,3.6,0.4
						c0.6-0.8,0.7-1.8-1.3-3.4c-0.8-0.6-1.8-1.2-2.8-1.7c0.9,0,1.7-0.1,2.5-0.3c2.5-0.5,2.8-1.4,2.6-2.5c-0.2-1-0.9-1.7-3.4-1.2
						c-0.7,0.1-1.5,0.4-2.3,0.7c0.5-0.7,0.9-1.5,1.3-2.2c1.1-2.3,0.5-3.1-0.4-3.6c-0.2-0.1-0.5-0.2-0.7-0.2
						c-3,5.1-5.8,10.1-8.5,15.1c0.5-0.1,1.2-0.5,2-1.2c0.7-0.6,1.4-1.3,2-2.1c-0.1,1-0.1,2-0.1,2.9c0.2,2.6,1.1,3,2.1,2.9
						C25.6,314.1,26.4,313.6,26.2,311z M23.6,306.5c-0.8-0.4-1.2-1.3-0.8-2.2c0.4-0.8,1.3-1.2,2.2-0.8c0.8,0.4,1.2,1.3,0.8,2.2
						C25.4,306.5,24.4,306.9,23.6,306.5z"/>
					<path class="st18" d="M52.7,309.3c-0.6-0.4-1.3-0.8-1.9-1.2c0.6,0,1.2-0.1,1.8-0.2c1.8-0.4,2-1,1.8-1.7
						c-0.1-0.7-0.6-1.2-2.4-0.9c-0.5,0.1-1.1,0.3-1.6,0.5c0.3-0.5,0.7-1.1,0.9-1.6c0.8-1.6,0.4-2.2-0.3-2.5
						c-0.7-0.3-1.3-0.2-2.1,1.4c-0.3,0.5-0.5,1.2-0.6,1.8c-0.2-0.6-0.4-1.2-0.7-1.7c-0.8-1.6-1.5-1.6-2.2-1.3
						c-0.6,0.3-1,0.9-0.2,2.5c0.3,0.5,0.6,1.1,1,1.6c-0.6-0.2-1.2-0.4-1.8-0.5c-1.8-0.4-2.2,0.1-2.4,0.8c-0.1,0.7,0.1,1.4,1.8,1.7
						c0.5,0.1,1.1,0.2,1.7,0.2c-0.5,0.3-1,0.7-1.4,1.1c-1.3,1.2-1.2,1.9-0.7,2.4c0.5,0.5,1.1,0.7,2.5-0.5c0.5-0.4,1-0.9,1.4-1.5
						c-0.1,0.7-0.1,1.4,0,2c0.1,1.8,0.7,2.1,1.5,2.1c0.7-0.1,1.3-0.4,1.2-2.2c0-0.5-0.1-1-0.2-1.6c0.4,0.5,1,1,1.4,1.3
						c1.4,1.1,2.1,0.8,2.5,0.3C54.1,311,54.2,310.3,52.7,309.3z M48.1,308.4c-0.6-0.3-0.8-0.9-0.6-1.5c0.3-0.6,0.9-0.8,1.5-0.6
						s0.8,0.9,0.6,1.5S48.7,308.7,48.1,308.4z"/>
					<g>
						<path class="st18" d="M42.4,319.8c-1-0.5-2-0.4-3.2,2.1c0,0.1-0.1,0.1-0.1,0.2c1.3,0.3,2.7,0.6,4,0.8
							C43.8,321,43.3,320.2,42.4,319.8z"/>
						<path class="st18" d="M33.8,320.1c-0.2,0.1-0.4,0.2-0.5,0.4c1.2,0.4,2.3,0.8,3.5,1.1C35.7,319.6,34.7,319.6,33.8,320.1z"/>
					</g>
					<path class="st18" d="M164.2,269.7c-0.9,0-1.9,0.1-2.9,0.4c0.6-0.5,1.1-1.1,1.6-1.6c1.5-1.8,1.2-2.6,0.5-3.2
						c-0.7-0.6-1.6-0.7-3.1,1c-0.4,0.5-0.9,1.1-1.2,1.7c-0.1-0.8-0.2-1.6-0.3-2.3c-0.5-2.2-1.4-2.5-2.3-2.3c-0.9,0.2-1.5,0.8-1,3.1
						c0.2,0.7,0.5,1.6,0.8,2.3c-0.7-0.5-1.4-0.9-2.1-1.2c-2.1-0.9-2.8-0.5-3.2,0.4c-0.4,0.8-0.3,1.7,1.8,2.7
						c0.7,0.3,1.5,0.6,2.2,0.8c-0.8,0.2-1.6,0.5-2.2,0.9c-2.1,1-2.1,1.9-1.7,2.7c0.4,0.8,1.2,1.3,3.2,0.3c0.6-0.3,1.3-0.7,1.9-1.2
						c-0.3,0.7-0.5,1.5-0.6,2.2c-0.4,2.3,0.3,2.8,1.2,3c0.9,0.2,1.7-0.1,2.1-2.4c0.1-0.8,0.2-1.7,0.2-2.6c0.5,0.7,1,1.5,1.5,2.1
						c1.5,1.7,2.4,1.5,3.1,0.9c0.7-0.6,0.9-1.5-0.6-3.2c-0.4-0.5-0.9-0.9-1.5-1.4c0.8,0.1,1.7,0.2,2.5,0.2c2.3,0,2.7-0.8,2.7-1.7
						C166.9,270.4,166.5,269.7,164.2,269.7z M158.9,272.5c-0.8,0.2-1.6-0.3-1.7-1.1c-0.2-0.8,0.3-1.6,1.1-1.7
						c0.8-0.2,1.6,0.3,1.7,1.1C160.1,271.5,159.7,272.3,158.9,272.5z"/>
					<g>
						<path class="st18" d="M173.9,313c-0.3-0.3-0.7-0.5-1.3-0.2l1.3,1.8C174.4,313.8,174.2,313.4,173.9,313z"/>
						<path class="st18" d="M166.6,314.1c-1.4-0.9-2-0.7-2.4-0.1c-0.4,0.6-0.4,1.2,1,2.2c0.5,0.3,1,0.6,1.6,0.9
							c-0.6,0.1-1.2,0.2-1.7,0.4c-1.6,0.5-1.7,1.2-1.5,1.8c0.2,0.6,0.7,1.1,2.3,0.5c0.2-0.1,0.5-0.2,0.7-0.3l0.9-4.7
							C167.3,314.6,167,314.3,166.6,314.1z"/>
						<path class="st18" d="M167.8,313.6c0,0.1,0,0.1,0,0.2l0.4-2C167.9,312.1,167.7,312.6,167.8,313.6z"/>
					</g>
					<path class="st18" d="M164,245.2c-1.4-0.5-2.8-1-4.2-1.4c-0.6,0.7-1.2,1.4-1.8,2.2c0.1-0.9,0.1-1.8,0.1-2.7
						c-1.4-0.4-2.8-0.8-4-1.1c0,0.4,0,0.8,0,1.2c0,0.8,0.2,1.7,0.3,2.5c-0.7-0.6-1.4-1.3-2.2-1.7c-2.3-1.5-3.2-1.1-3.9-0.2
						c-0.6,0.9-0.7,2,1.6,3.5c0.8,0.5,1.7,1,2.6,1.4c-1,0.2-1.9,0.4-2.8,0.7c-2.6,0.9-2.8,1.9-2.5,3c0.4,1.1,1.2,1.7,3.8,0.9
						c0.8-0.3,1.7-0.7,2.6-1.1c-0.5,0.8-0.9,1.7-1.2,2.6c-1,2.6-0.3,3.4,0.7,3.8c1,0.4,2.1,0.2,3-2.4c0.3-0.8,0.6-1.7,0.7-2.6
						c0.4,0.9,0.8,1.7,1.3,2.4c1.5,2.3,2.5,2.3,3.5,1.7c0.9-0.6,1.4-1.5-0.1-3.9c-0.5-0.8-1.2-1.7-1.9-2.4c1,0.3,2.1,0.5,3,0.6
						c2.7,0.2,3.4-0.6,3.5-1.7c0.1-1.1-0.4-2.1-3.1-2.3c-0.7-0.1-1.6-0.1-2.4,0c0.8-0.6,1.7-1.2,2.3-1.9
						C163.5,245.8,163.8,245.5,164,245.2z M157.9,250.1c-0.5,0.8-1.6,1-2.4,0.5c-0.8-0.5-1-1.6-0.5-2.4c0.5-0.8,1.6-1,2.4-0.5
						C158.2,248.2,158.5,249.3,157.9,250.1z"/>
					<path class="st18" d="M188.8,279.7c-0.7,0-1.5,0.1-2.3,0.3c0.5-0.4,0.9-0.8,1.3-1.2c1.2-1.4,0.9-2,0.4-2.5
						c-0.6-0.5-1.2-0.6-2.4,0.8c-0.3,0.4-0.7,0.9-1,1.3c0-0.6-0.1-1.2-0.3-1.8c-0.4-1.8-1.1-2-1.8-1.8c-0.7,0.2-1.2,0.6-0.8,2.4
						c0.1,0.6,0.4,1.2,0.6,1.8c-0.5-0.4-1.1-0.7-1.6-0.9c-1.6-0.7-2.2-0.4-2.5,0.3c-0.3,0.7-0.2,1.3,1.4,2.1
						c0.5,0.2,1.1,0.4,1.7,0.6c-0.6,0.2-1.2,0.4-1.7,0.7c-1.6,0.8-1.7,1.5-1.3,2.1c0.3,0.7,0.9,1,2.5,0.2c0.5-0.2,1-0.6,1.5-0.9
						c-0.2,0.6-0.4,1.2-0.5,1.7c-0.3,1.8,0.2,2.2,0.9,2.4c0.7,0.1,1.4-0.1,1.7-1.9c0.1-0.6,0.2-1.3,0.2-2c0.4,0.6,0.8,1.2,1.2,1.6
						c1.2,1.3,1.9,1.2,2.4,0.7c0.5-0.5,0.7-1.1-0.5-2.5c-0.3-0.4-0.7-0.7-1.1-1.1c0.7,0.1,1.3,0.2,1.9,0.1c1.8,0,2.1-0.6,2.1-1.4
						C191,280.2,190.6,279.7,188.8,279.7z M184.7,281.9c-0.6,0.1-1.2-0.2-1.4-0.9c-0.1-0.6,0.2-1.2,0.9-1.4s1.2,0.2,1.4,0.9
						S185.3,281.7,184.7,281.9z"/>
					<path class="st18" d="M196.3,301.8c-1.1,0-2.3,0.2-3.4,0.4c0.7-0.6,1.4-1.3,1.9-1.9c1.8-2.1,1.4-3.1,0.6-3.8
						c-0.8-0.7-1.9-0.9-3.7,1.2c-0.5,0.6-1,1.3-1.5,2.1c-0.1-0.9-0.2-1.9-0.4-2.7c-0.6-2.7-1.6-3-2.7-2.7c-1.1,0.3-1.8,1-1.2,3.7
						c0.2,0.9,0.5,1.9,0.9,2.8c-0.8-0.5-1.7-1-2.5-1.4c-2.5-1.1-3.4-0.5-3.8,0.5c-0.5,1-0.3,2.1,2.2,3.2c0.8,0.4,1.7,0.7,2.7,0.9
						c-0.9,0.3-1.9,0.6-2.6,1c-2.5,1.2-2.5,2.3-2.1,3.3c0.5,1,1.4,1.6,3.8,0.3c0.7-0.4,1.6-0.9,2.3-1.4c-0.3,0.9-0.6,1.8-0.7,2.6
						c-0.5,2.7,0.3,3.4,1.4,3.6c1.1,0.2,2.1-0.2,2.6-2.9c0.2-0.9,0.3-2,0.3-3.1c0.5,0.9,1.2,1.8,1.8,2.5c1.8,2,2.9,1.8,3.7,1.1
						c0.8-0.7,1.1-1.7-0.7-3.8c-0.5-0.6-1.1-1.1-1.7-1.6c1,0.2,2,0.2,3,0.2c2.7,0,3.3-1,3.3-2.1
						C199.6,302.7,199.1,301.8,196.3,301.8z M190,305.2c-0.9,0.2-1.9-0.4-2.1-1.3s0.4-1.9,1.3-2.1s1.9,0.4,2.1,1.3
						S190.9,304.9,190,305.2z"/>
					<g>
						<path class="st18" d="M190,323.4h0.5C190.3,323.4,190.2,323.4,190,323.4z"/>
						<path class="st18" d="M198.9,321.9c-0.6-0.5-1.2-0.6-2.4,0.8c-0.2,0.2-0.4,0.4-0.5,0.7h3.2
							C199.5,322.7,199.2,322.3,198.9,321.9z"/>
						<path class="st18" d="M195.3,322.3c-0.4-1.7-1.1-2-1.8-1.8c-0.7,0.2-1.2,0.6-0.8,2.4c0,0.2,0.1,0.4,0.2,0.5h2.6
							C195.4,323,195.3,322.6,195.3,322.3z"/>
					</g>
					<path class="st18" d="M208.9,316.6c-0.3,0.7-0.5,1.5-0.6,2.2c-0.4,2.3,0.3,2.8,1.2,3c0.9,0.2,1.7-0.1,2.1-2.4
						c0.1-0.8,0.2-1.7,0.2-2.6c0.5,0.7,1,1.5,1.5,2.1c1.3,1.4,2.1,1.5,2.7,1.2c-1.1-2.1-2.3-4.2-3.4-6.3c-0.1,0.5-0.5,1-1.1,1.1
						c-0.8,0.2-1.6-0.3-1.7-1.1c-0.2-0.8,0.3-1.6,1.1-1.7c0.3-0.1,0.6,0,0.8,0.1c-1.1-1.9-2.2-3.9-3.3-5.9c-0.4,0.4-0.6,1.2-0.3,2.7
						c0.2,0.7,0.5,1.6,0.8,2.3c-0.7-0.5-1.4-0.9-2.1-1.2c-2.1-0.9-2.8-0.5-3.2,0.4s-0.3,1.7,1.8,2.7c0.7,0.3,1.5,0.6,2.2,0.8
						c-0.8,0.2-1.6,0.5-2.2,0.9c-2.1,1-2.1,1.9-1.7,2.7c0.4,0.8,1.2,1.3,3.2,0.3C207.6,317.5,208.3,317.1,208.9,316.6z"/>
					<path class="st18" d="M156.7,317.3c-0.8,0-1.8,0.1-2.7,0.3c0.5-0.5,1.1-1,1.5-1.5c1.4-1.6,1.1-2.4,0.5-2.9
						c-0.7-0.6-1.5-0.7-2.8,0.9c-0.4,0.5-0.8,1-1.1,1.6c0-0.7-0.2-1.5-0.3-2.1c-0.5-2.1-1.3-2.3-2.1-2.1c-0.8,0.2-1.4,0.8-0.9,2.8
						c0.2,0.7,0.4,1.4,0.7,2.2c-0.6-0.4-1.3-0.8-1.9-1.1c-1.9-0.9-2.6-0.4-3,0.4c-0.4,0.8-0.3,1.6,1.7,2.5c0.6,0.3,1.3,0.5,2.1,0.7
						c-0.7,0.2-1.4,0.5-2,0.8c-1.9,0.9-2,1.7-1.6,2.5c0.4,0.8,1.1,1.2,3,0.3c0.6-0.3,1.2-0.7,1.8-1.1c-0.2,0.7-0.4,1.3-0.5,2h3.1
						c0.1-0.6,0.1-1.2,0.1-1.8c0.4,0.6,0.8,1.2,1.3,1.8h3.5c0-0.5-0.3-1.1-1-1.9c-0.4-0.4-0.9-0.9-1.3-1.3c0.8,0.1,1.6,0.2,2.3,0.2
						c2.1,0,2.5-0.7,2.5-1.6C159.2,317.9,158.8,317.2,156.7,317.3z M151.8,319.9c-0.7,0.2-1.4-0.3-1.6-1c-0.2-0.7,0.3-1.4,1-1.6
						c0.7-0.2,1.4,0.3,1.6,1C153,319,152.5,319.7,151.8,319.9z"/>
					<path class="st18" d="M147,290.6c-0.5-0.3-1-0.7-1.6-1c0.5,0,1-0.1,1.4-0.2c1.4-0.3,1.6-0.8,1.5-1.4c-0.1-0.6-0.5-1-2-0.7
						c-0.4,0.1-0.9,0.2-1.3,0.4c0.3-0.4,0.5-0.9,0.7-1.3c0.6-1.3,0.3-1.8-0.2-2.1c-0.5-0.3-1.1-0.2-1.7,1.1c-0.2,0.4-0.4,1-0.5,1.5
						c-0.2-0.5-0.4-1-0.6-1.4c-0.7-1.3-1.2-1.3-1.8-1.1c-0.5,0.3-0.8,0.8-0.1,2.1c0.2,0.4,0.5,0.9,0.8,1.3c-0.5-0.2-1-0.3-1.5-0.4
						c-1.4-0.3-1.8,0.1-2,0.7c-0.1,0.6,0.1,1.1,1.5,1.4c0.4,0.1,0.9,0.2,1.4,0.2c-0.4,0.3-0.8,0.6-1.2,0.9c-1.1,1-1,1.5-0.6,2
						c0.4,0.4,0.9,0.6,2-0.4c0.4-0.3,0.8-0.8,1.1-1.2c-0.1,0.6-0.1,1.1,0,1.7c0.1,1.5,0.6,1.7,1.2,1.7c0.6,0,1.1-0.4,1-1.8
						c0-0.4-0.1-0.8-0.2-1.3c0.4,0.4,0.8,0.8,1.2,1.1c1.2,0.9,1.7,0.7,2.1,0.2C148.1,292.1,148.2,291.5,147,290.6z M143.2,290
						c-0.5-0.2-0.7-0.8-0.5-1.2c0.2-0.5,0.8-0.7,1.2-0.5c0.5,0.2,0.7,0.8,0.5,1.2C144.3,290,143.7,290.2,143.2,290z"/>
					<path class="st18" d="M140.4,309.3c-0.6-0.4-1.3-0.8-1.9-1.2c0.6,0,1.2-0.1,1.8-0.2c1.8-0.4,2-1,1.8-1.7
						c-0.1-0.7-0.6-1.2-2.4-0.9c-0.5,0.1-1.1,0.3-1.6,0.5c0.3-0.5,0.7-1.1,0.9-1.6c0.8-1.6,0.4-2.2-0.3-2.5
						c-0.7-0.3-1.3-0.2-2.1,1.4c-0.3,0.5-0.5,1.2-0.6,1.8c-0.2-0.6-0.4-1.2-0.7-1.7c-0.8-1.6-1.5-1.6-2.2-1.3
						c-0.6,0.3-1,0.9-0.2,2.5c0.3,0.5,0.6,1.1,1,1.6c-0.6-0.2-1.2-0.4-1.8-0.5c-1.8-0.4-2.2,0.1-2.4,0.8c-0.1,0.7,0.1,1.4,1.8,1.7
						c0.5,0.1,1.1,0.2,1.7,0.2c-0.5,0.3-1,0.7-1.4,1.1c-1.3,1.2-1.2,1.9-0.7,2.4c0.5,0.5,1.1,0.7,2.5-0.5c0.5-0.4,1-0.9,1.4-1.5
						c-0.1,0.7-0.1,1.4,0,2c0.1,1.8,0.7,2.1,1.5,2.1c0.7-0.1,1.3-0.4,1.2-2.2c0-0.5-0.1-1-0.2-1.6c0.4,0.5,1,1,1.4,1.3
						c1.4,1.1,2.1,0.8,2.5,0.3C141.8,311,141.9,310.3,140.4,309.3z M135.8,308.4c-0.6-0.3-0.8-0.9-0.6-1.5s0.9-0.8,1.5-0.6
						c0.6,0.3,0.8,0.9,0.6,1.5C137.1,308.4,136.4,308.7,135.8,308.4z"/>
					<path class="st18" d="M127.4,283.4c-0.2-1.1-0.9-1.8-3.6-1.3c-0.8,0.2-1.6,0.4-2.4,0.7c0.5-0.8,1-1.6,1.4-2.4
						c1.1-2.5,0.6-3.3-0.4-3.8c-1-0.5-2-0.4-3.2,2.1c-0.4,0.8-0.7,1.8-1,2.7c-0.3-0.9-0.7-1.8-1.1-2.6c-0.4-0.7-0.7-1.2-1.1-1.6
						v12.4c0.3-0.3,0.5-0.6,0.8-0.9c-0.1,1-0.1,2.1-0.1,3c0.2,2.7,1.1,3.2,2.2,3.1c1.1-0.1,1.9-0.7,1.7-3.4
						c-0.1-0.7-0.2-1.5-0.4-2.3c0.7,0.7,1.4,1.4,2.2,2c2.2,1.6,3.1,1.2,3.8,0.4c0.7-0.9,0.8-1.9-1.4-3.5c-0.8-0.6-1.9-1.3-2.9-1.8
						c0.9,0,1.8-0.1,2.6-0.3C127.3,285.5,127.7,284.5,127.4,283.4z M120.3,286c-0.4,0.9-1.4,1.2-2.3,0.8c-0.9-0.4-1.2-1.4-0.8-2.3
						c0.4-0.9,1.4-1.2,2.3-0.8C120.3,284.1,120.7,285.1,120.3,286z"/>
					<path class="st18" d="M52.1,268.5c-0.5-0.5-1.2-1-1.9-1.5c1,0.1,2.1,0.1,3,0c0.5-0.1,0.9-0.1,1.3-0.2c-1-1.8-2.1-3.1-2.7-3.6
						c-0.8,0.1-1.6,0.3-2.4,0.6c0.5-0.5,0.9-0.9,1.3-1.4c-0.5-0.2-1-0.4-1.4-0.4c0,0.1,0,0.2,0,0.2c-0.5,0.7-1,1.4-1.6,2.2
						c0.1,0.1,0.1,0.2,0.2,0.4c0.3,0.9-0.2,1.9-1.1,2.2c-0.3,0.1-0.6,0.1-0.9,0c-0.8,1.1-1.5,2.2-2.3,3.3c-0.1,0.6-0.2,1.1-0.3,1.6
						c-0.3,2.7,0.6,3.4,1.7,3.5c1.1,0.1,2.1-0.4,2.3-3.1c0.1-1,0.1-2.1,0-3.1c0.6,0.8,1.4,1.7,2.1,2.3c2,1.9,3,1.6,3.8,0.8
						C53.9,271.4,54.1,270.4,52.1,268.5z"/>
					<path class="st18" d="M59.3,290.6c-0.5-0.3-1-0.7-1.6-1c0.5,0,1-0.1,1.4-0.2c0.3-0.1,0.5-0.1,0.7-0.2l-0.3-2
						c-0.2,0-0.5,0-0.8,0.1c-0.4,0.1-0.9,0.2-1.3,0.4c0.3-0.4,0.5-0.9,0.7-1.3c0.6-1.3,0.3-1.8-0.2-2.1c-0.5-0.3-1.1-0.2-1.7,1.1
						c-0.2,0.4-0.4,1-0.5,1.5c-0.2-0.5-0.4-1-0.6-1.4c-0.7-1.3-1.2-1.3-1.8-1.1c-0.5,0.3-0.8,0.8-0.1,2.1c0.2,0.4,0.5,0.9,0.8,1.3
						c-0.5-0.2-1-0.3-1.5-0.4c-1.4-0.3-1.8,0.1-2,0.7c-0.1,0.6,0.1,1.1,1.5,1.4c0.4,0.1,0.9,0.2,1.4,0.2c-0.4,0.3-0.8,0.6-1.2,0.9
						c-1.1,1-1,1.5-0.6,2s0.9,0.6,2-0.4c0.4-0.3,0.8-0.8,1.1-1.2c-0.1,0.6-0.1,1.1,0,1.7c0.1,1.5,0.6,1.7,1.2,1.7
						c0.6,0,1.1-0.4,1-1.8c0-0.4-0.1-0.8-0.2-1.3c0.4,0.4,0.8,0.8,1.2,1.1c1.2,0.9,1.7,0.7,2.1,0.2
						C60.4,292.1,60.5,291.5,59.3,290.6z M56.8,289.5c-0.2,0.5-0.8,0.7-1.2,0.5c-0.5-0.2-0.7-0.8-0.5-1.2c0.2-0.5,0.8-0.7,1.2-0.5
						C56.8,288.5,57,289,56.8,289.5z"/>
					<g>
						<path class="st18" d="M175.7,266.6c0.6-1.1,1.5-2.4,2.6-3.4c-0.5-0.2-1-0.7-1.1-1.3c-0.2-1,0.4-2,1.4-2.2
							c0.8-0.2,1.7,0.2,2.1,0.9c-0.5-2-1.7-5.5-4.8-8.7c-0.8,0.4-1.2,1.4-0.7,3.7c0.2,1,0.6,2,1,3c-0.9-0.6-1.8-1.1-2.6-1.5
							c-2.7-1.2-3.6-0.6-4.1,0.5c-0.5,1.1-0.4,2.2,2.3,3.4c0.9,0.4,1.9,0.7,2.8,1c-1,0.3-2,0.7-2.8,1.1c-2.6,1.3-2.7,2.4-2.2,3.5
							c0.5,1.1,1.5,1.7,4.1,0.4c0.8-0.4,1.7-0.9,2.5-1.5C175.9,265.9,175.8,266.2,175.7,266.6z"/>
						<path class="st18" d="M180.8,261.7C180.8,261.7,180.8,261.6,180.8,261.7C180.8,261.6,180.8,261.7,180.8,261.7
							C180.8,261.7,180.8,261.7,180.8,261.7z"/>
					</g>
					<g>
						<path class="st18" d="M169.5,292.6c-0.2,0-0.4,0.1-0.5,0.1c0.2-0.2,0.4-0.3,0.6-0.5c0.2-1.7,0.4-3.5,0.6-5.3
							c-0.6,0-1.3,0.5-2.2,1.6c-0.5,0.6-1,1.2-1.4,1.9c-0.1-0.9-0.2-1.8-0.4-2.5c-0.6-2.5-1.5-2.8-2.5-2.6c-1,0.2-1.7,0.9-1.1,3.4
							c0.2,0.8,0.5,1.8,0.9,2.6c-0.7-0.5-1.6-1-2.3-1.3c-2.3-1.1-3.1-0.5-3.6,0.4c-0.4,0.9-0.3,1.9,2,3c0.7,0.3,1.6,0.6,2.5,0.9
							c-0.9,0.3-1.7,0.6-2.5,1c-2.3,1.1-2.4,2.1-1.9,3c0.5,0.9,1.3,1.5,3.6,0.3c0.7-0.3,1.5-0.8,2.2-1.3c-0.3,0.8-0.5,1.7-0.7,2.5
							c-0.5,2.5,0.3,3.2,1.3,3.4c1,0.2,1.9-0.2,2.4-2.7c0.2-0.9,0.2-1.9,0.2-2.9c0.5,0.8,1.1,1.7,1.7,2.3c0.2,0.2,0.4,0.4,0.6,0.6
							C169.1,298.2,169.2,295.5,169.5,292.6z M166.3,295.5c-0.9,0.2-1.8-0.3-2-1.2c-0.2-0.9,0.3-1.8,1.2-2c0.9-0.2,1.8,0.3,2,1.2
							C167.7,294.4,167.1,295.3,166.3,295.5z"/>
					</g>
					<path class="st18" d="M140.9,267c2.7-0.3,3.2-1.2,3.1-2.3c-0.1-1.1-0.7-1.9-3.5-1.7c-1.1,0.1-2.3,0.4-3.4,0.7
						c0.6-0.7,1.3-1.4,1.7-2.1c1.6-2.2,1.2-3.2,0.3-3.9c0,0-0.1-0.1-0.1-0.1c-1,0.9-2.3,1.7-3.9,2.3c-0.3,0.5-0.6,1-0.8,1.5
						c-0.1-0.3-0.1-0.7-0.2-1c-1.1,0.5-2.4,0.9-3.6,1.2c0.2,0.4,0.3,0.7,0.5,1.1c-0.5-0.3-1.1-0.6-1.6-0.8c-1.6,0.4-3.3,0.8-4.9,1.1
						c0,0.8,0.6,1.6,2.6,2.3c0.8,0.3,1.8,0.5,2.7,0.7c-0.9,0.4-1.8,0.8-2.6,1.3c-2.4,1.4-2.4,2.5-1.8,3.4c0.6,1,1.5,1.4,3.9,0
						c0.7-0.4,1.5-1,2.2-1.6c-0.2,0.9-0.4,1.8-0.5,2.7c-0.3,2.7,0.6,3.4,1.7,3.5c1.1,0.1,2.1-0.4,2.3-3.1c0.1-1,0.1-2.1,0-3.1
						c0.6,0.8,1.4,1.7,2.1,2.3c2,1.9,3,1.6,3.8,0.8c0.8-0.8,1-1.8-1-3.7c-0.5-0.5-1.2-1-1.9-1.5C138.9,267.1,139.9,267.1,140.9,267z
						 M134.4,266.9c-0.9,0.3-1.9-0.2-2.2-1.1c-0.3-0.9,0.2-1.9,1.1-2.2c0.9-0.3,1.9,0.2,2.2,1.1
						C135.8,265.6,135.3,266.6,134.4,266.9z"/>
					<path class="st18" d="M95.4,263.8c1.1,0.2,2.2,0.3,3.2,0.2c1.1,0,1.9-0.2,2.4-0.4c-1.9-0.9-3.7-2.2-5.2-3.6
						c-0.3,0.1-0.6,0.1-0.9,0.2c0.2-0.2,0.4-0.3,0.6-0.5c-1-0.9-2-1.9-2.9-2.9c-0.2,0.3-0.3,0.5-0.5,0.8c0-0.5-0.1-1-0.2-1.5
						c-1.3-1.6-2.5-3.1-3.3-4.3c-1.1,0.3-1.8,1.1-1.2,3.9c0.2,1,0.6,2,1,3c-0.9-0.6-1.8-1.1-2.6-1.5c-2.7-1.2-3.6-0.6-4.1,0.5
						c-0.5,1.1-0.4,2.2,2.3,3.4c0.9,0.4,1.9,0.7,2.8,1c-1,0.3-2,0.7-2.8,1.1c-2.6,1.3-2.7,2.4-2.2,3.5c0.5,1.1,1.5,1.7,4.1,0.4
						c0.8-0.4,1.7-0.9,2.5-1.5c-0.3,0.9-0.6,1.9-0.8,2.8c-0.5,2.9,0.3,3.6,1.5,3.8c1.2,0.2,2.2-0.2,2.7-3.1c0.2-1,0.3-2.2,0.3-3.3
						c0.6,0.9,1.3,1.9,2,2.6c2,2.2,3.1,2,4,1.2c0.9-0.8,1.2-1.9-0.8-4.1C96.7,265,96,264.3,95.4,263.8z M91.7,263.3
						c-1,0.2-2-0.4-2.2-1.4c-0.2-1,0.4-2,1.4-2.2c1-0.2,2,0.4,2.2,1.4C93.3,262.1,92.7,263.1,91.7,263.3z"/>
				</g>
				<path class="st18" d="M75.5,248.1c-0.7-0.1-1.6-0.1-2.4,0c0.8-0.6,1.7-1.2,2.3-1.9c2-1.9,1.7-2.9,1-3.7
					c-0.1-0.1-0.2-0.2-0.3-0.3c-1,0.2-2.1,0.5-3.1,0.8c-0.1,0.1-0.3,0.2-0.4,0.4c-0.8,0.7-1.6,1.7-2.2,2.7c0.1-0.8,0.1-1.6,0.1-2.3
					c-1.4,0.4-2.7,0.9-3.9,1.3c0,0.3,0.1,0.7,0.2,1c-0.3-0.3-0.5-0.5-0.8-0.7c-1.8,0.7-3.3,1.3-4.3,1.8c0.2,0.2,0.5,0.4,0.8,0.6
					c0.8,0.5,1.7,1,2.6,1.4c-1,0.2-1.9,0.4-2.8,0.7c-2.6,0.9-2.8,1.9-2.5,3c0.4,1.1,1.2,1.7,3.8,0.9c0.8-0.3,1.7-0.7,2.6-1.1
					c-0.5,0.8-0.9,1.7-1.2,2.6c-1,2.6-0.3,3.4,0.7,3.8c1,0.4,2.1,0.2,3-2.4c0.3-0.8,0.6-1.7,0.7-2.6c0.4,0.9,0.8,1.7,1.3,2.4
					c1.5,2.3,2.5,2.3,3.5,1.7c0.9-0.6,1.4-1.5-0.1-3.9c-0.5-0.8-1.2-1.7-1.9-2.4c1,0.3,2.1,0.5,3,0.6c2.7,0.2,3.4-0.6,3.5-1.7
					C78.7,249.2,78.2,248.3,75.5,248.1z M70.2,250.1c-0.5,0.8-1.6,1-2.4,0.5c-0.8-0.5-1-1.6-0.5-2.4c0.5-0.8,1.6-1,2.4-0.5
					C70.5,248.2,70.7,249.3,70.2,250.1z"/>
			</g>
			<g>
				<g>
					<g>
						<g>
							<rect x="115.8" y="266.5" class="st19" width="0.7" height="56.9"/>
						</g>
						<g>
							<circle class="st20" cx="125.3" cy="280.7" r="4.3"/>
						</g>
						<g>
							<circle class="st20" cx="125.3" cy="302.3" r="4.3"/>
						</g>
						<path class="st20" d="M129.6,323.4c-0.2-2.2-2-3.9-4.3-3.9s-4,1.7-4.3,3.9H129.6z"/>
					</g>
					<g>
						<path class="st19" d="M49.3,261.6l-0.1,0.4c0,0.1,0,0.2,0,0.2c0,0,0,0,0,0l0,0.1c11.1,2.1,11.6,45.7,11.6,46.1l0.2-0.3
							l0.2-0.2l0,0.2l0.1,0.4C61.6,308.7,60.9,263.8,49.3,261.6z"/>
					</g>
					<g>
						<path class="st19" d="M180.8,261.6l0.1,0.4c0,0.1,0,0.2,0,0.2c0,0,0,0,0,0l0,0.1c-11.1,2.1-11.6,45.7-11.6,46.1l-0.2-0.3
							l-0.2-0.2l0,0.2l-0.1,0.4C168.5,308.7,169.1,263.8,180.8,261.6z"/>
					</g>
				</g>
				<circle class="st21" cx="124" cy="279.1" r="1.1"/>
				<circle class="st21" cx="124" cy="300.6" r="1.1"/>
				<circle class="st21" cx="124" cy="322.3" r="1.1"/>
			</g>
			<g>
				<g>
					<path class="st8" d="M115.6,261c-14.2,0-26.1-9.4-29.2-21.9c-1.5,0.7-5.6,2.5-5.6,2.5c-1.7,4.1,2.7,5.1,2.7,5.1l0,0
						c-1.3,2.8,0.6,6.1,3.7,6.4l0,0l-0.2,0.8c-0.6,2.6,1.6,5.1,4.3,4.7l0.9-0.1l0,1.1c0,2.6,2.5,4.4,4.9,3.6l1.1-0.4l0.2,1.3
						c0.5,2.4,3.2,3.7,5.4,2.4l1.1-0.7l0.4,1c1,2.4,4,3,5.9,1.3l0.8-0.8l0.6,0.8c1.5,2.2,4.7,2.2,6.2,0l0.6-0.8l1.1,1
						c1.8,1.6,4.6,1,5.5-1.2l0.6-1.4l1.1,0.7c2.1,1.3,4.9,0.1,5.4-2.4l0.2-1.2l1.1,0.4c2.4,0.8,4.9-1,4.8-3.5l0-1.2l0.7,0.1
						c2.7,0.3,5-2.2,4.4-4.8L144,253l0.8-0.1c2.7-0.2,4.4-3.1,3.2-5.6l-0.3-0.7c0,0,4.4-1.5,3-5.5c0,0-4.4-1.4-5.9-2.1
						C141.6,251.6,129.8,261,115.6,261z"/>
				</g>
				<g>
					<path class="st22" d="M144.8,239c-0.7,3.2-2.1,6.3-3.9,9c-1.8,2.7-4.1,5.2-6.8,7.2c-5.3,4-11.9,6.1-18.5,6.1
						c-6.6,0-13.3-2.1-18.5-6.1c-2.6-2-5-4.4-6.8-7.2c-1.8-2.8-3.2-5.8-3.9-9c1.7,6.3,5.7,11.9,11,15.7c5.3,3.8,11.7,5.9,18.2,5.9
						c6.5,0,13-2,18.2-5.9C139.1,251,143.1,245.4,144.8,239z"/>
				</g>
			</g>
			<path class="st23" d="M182.6,113.4c0,53.3-18.9,96.8-67.5,96.8c-48.6,0-66.6-44-66.6-97.3c0-53.3,45.2-64,67.4-64
				S182.6,60.1,182.6,113.4z"/>
			<path class="st24" d="M91.8,178.3c7.4,4.5,15.2,7.2,23.2,7.1c8,0,15.7-3.1,23.4-7.1c-2.8,3.3-6.3,6.1-10.3,8c-4,2-8.5,3.1-13,3.2
				c-4.5,0-9.1-1-13.1-3C98,184.5,94.4,181.8,91.8,178.3z"/>
			<g>
				<polygon class="st25" points="74.8,144.1 67.1,139.4 75.9,141.4 				"/>
			</g>
			<g>
				<polygon class="st25" points="76,155 67.1,157.7 74.7,152.3 				"/>
			</g>
			<g>
				<polygon class="st25" points="75.4,149.7 61.1,148.9 75.3,146.7 				"/>
			</g>
			<g>
				<polygon class="st25" points="156.5,141.4 165.4,139.4 157.6,144.1 				"/>
			</g>
			<g>
				<polygon class="st25" points="157.7,152.3 165.4,157.7 156.4,155 				"/>
			</g>
			<g>
				<polygon class="st25" points="157.1,146.7 171.3,148.9 157,149.7 				"/>
			</g>
			<path class="st26" d="M99.9,147.5c0,7.3-6,13.3-13.4,13.3c-7.4,0-13.4-5.9-13.4-13.3c0-7.3,6-13.3,13.4-13.3
				C93.9,134.3,99.9,140.2,99.9,147.5z"/>
			<path class="st7" d="M96.4,147.5c0,5.1-4.1,9.3-9.3,9.3c-5.1,0-9.2-4.1-9.2-9.3c0-5.1,4.1-9.2,9.2-9.2
				C92.3,138.3,96.4,142.4,96.4,147.5z"/>
			<path class="st8" d="M83.3,142.7c0,1.5-1.2,2.7-2.7,2.7c-1.5,0-2.7-1.2-2.7-2.7s1.2-2.7,2.7-2.7
				C82.1,140.1,83.3,141.3,83.3,142.7z"/>
			<path class="st26" d="M132.7,147.5c0,7.3,6,13.3,13.4,13.3c7.4,0,13.4-5.9,13.4-13.3c0-7.3-6-13.3-13.4-13.3
				C138.7,134.3,132.7,140.2,132.7,147.5z"/>
			<path class="st7" d="M136.1,147.5c0,5.1,4.1,9.3,9.3,9.3c5.1,0,9.2-4.1,9.2-9.3c0-5.1-4.1-9.2-9.2-9.2
				C140.2,138.3,136.1,142.4,136.1,147.5z"/>
			<path class="st8" d="M136.6,142.7c0,1.5,1.2,2.7,2.7,2.7c1.5,0,2.7-1.2,2.7-2.7s-1.2-2.7-2.7-2.7
				C137.8,140.1,136.6,141.3,136.6,142.7z"/>
			<g>
				<path class="st25" d="M89.2,181.6c0.4-0.9,0.8-1.6,1.3-2.4c0.4-0.7,0.9-1.5,1.4-2.1c0.5-0.7,1-1.4,1.6-2c0.6-0.6,1.2-1.3,2-1.8
					c-0.1,1-0.4,1.8-0.7,2.7c-0.4,0.8-0.8,1.6-1.3,2.3c-0.5,0.7-1.1,1.4-1.8,2C91,180.8,90.2,181.3,89.2,181.6z"/>
			</g>
			<g>
				<path class="st25" d="M141.6,181.6c-1-0.2-1.7-0.8-2.5-1.4c-0.7-0.6-1.3-1.3-1.8-2c-0.5-0.7-1-1.5-1.3-2.3
					c-0.3-0.8-0.6-1.7-0.7-2.7c0.8,0.6,1.4,1.2,2,1.8c0.6,0.6,1.1,1.3,1.6,2c0.5,0.7,1,1.4,1.4,2.1
					C140.7,179.9,141.1,180.7,141.6,181.6z"/>
			</g>
			<path class="st27" d="M187.5,92c-1.6-13.6-37.1-51.6-72.6-51.6S44,78.4,42.3,92c-3.7,31.3,9.3,60.4,9.3,60.4
				c0-51.2,32.8-62.5,63.3-62.5s63.3,11.4,63.3,62.5C178.2,152.5,191.2,123.3,187.5,92z"/>
			<path class="st28" d="M117.7,86.2c-1.6-2.8-2.2-5.9-2.3-9.1c-0.1-3.1,0.6-6.2,1.4-9.2c0.8-3,1.7-5.9,2.6-8.9
				c0.9-3,1.9-5.9,2.6-8.9c-0.6,3-1.6,6-2.4,8.9c-0.9,3-1.7,5.9-2.5,8.9c-0.7,3-1.4,6-1.2,9.1c0.1,3,0.9,6.1,2.4,8.7L117.7,86.2z"/>
			<path class="st28" d="M50.6,77.5c0.1,1.4-1.7,30.9,10.5,31.9c0,0,7.4-12.5,16.8-15.4c0,0-8,1-10.9-7c-2.9-8.1-3.2-23.5-3.2-23.5
				S57.4,68.8,50.6,77.5z"/>
			<path class="st28" d="M140,76.4c-2.9,8.1-7.6,10.6-7.6,10.6c9.4,2.9,16.8,6.7,16.8,6.7c10-0.9,7.3-28.9,6-39
				c-4.6-3.1-9.6-6-14.7-8.3C141.1,53.9,142.2,70.2,140,76.4z"/>
			<path class="st28" d="M52.2,115.9c1.8,2.2,4,1.8,4,1.8c3.7-0.7,1.2-4.2,1.2-4.2c-2.3,1-5.6-3.6-8.4-10.5
				c-1.9-4.7-3.3-12.4-4-16.7c-0.3,0.6-0.6,1.2-0.8,1.8C45.4,102.4,50.5,113.9,52.2,115.9z"/>
			<path class="st28" d="M169.5,66.1c-0.6,4-2.1,12.6-4.2,17.8c-2.8,6.8-8.5,13.4-10.8,12.4c0,0,3,1.7,4.1,3c0,0,1.6-0.4,3.4-2.5
				c1.8-2.1,7.3-14.7,8.3-29.8C170,66.6,169.7,66.4,169.5,66.1z"/>
			<path class="st28" d="M86.6,88.7c1.5,1.3,3.9,1,4.8,0.7c0.9-0.4,3.6-0.9,3.6-0.9c-4-1.4-4.8-5.4-4.8-5.4c1.6,3.8,6.6,5.2,7.4,5
				s5.6-1.1,7.1-1.1c1.5-0.1,3.7-0.8,3.7-0.8c0.5-1.2-2.5-3.1-6.2-8.5c-4.4-6.5-5.1-25.9-5.2-34.1c-5.3,1.7-10.4,4.1-15.2,6.9
				c-0.7,6.2-1.6,16.3-1.3,23.1C81.1,84.2,85.1,87.5,86.6,88.7z"/>
			<path class="st28" d="M119.7,64.8c-1.6,10.5-0.4,21.1-0.4,21.1c1.1,0,5.1,0.3,5.1,0.3c1.7-6.7,2.5-12.5,1.7-16.9
				c-0.7-4.4,0.7-12.4,1.8-18.1c0.7-3.8,0.5-7.3,0.2-9.2c-1.2-0.3-2.4-0.5-3.6-0.7C125.1,49.2,121.2,54.9,119.7,64.8z"/>
			<path class="st27" d="M106.7,87.2c-2.3-2.4-4.5-4.9-6.4-7.6c-1-1.3-1.9-2.7-2.5-4.3c-0.6-1.6-1-3.2-1.3-4.8
				c-0.6-3.3-0.9-6.6-1.1-9.9c-0.2-3.3-0.2-6.6-0.1-9.9c0,3.3,0.1,6.6,0.3,9.9c0.3,3.3,0.6,6.6,1.3,9.8c0.3,1.6,0.7,3.2,1.3,4.7
				c0.6,1.5,1.5,2.9,2.5,4.2c2,2.6,4.2,5.1,6.5,7.4L106.7,87.2z"/>
			<path class="st28" d="M184.2,83.8c-1.6-2.8-3.8-5.9-6.5-9c0,8.7-0.7,29.1-8,34.4c0,0,3.2,3.4,5.7,10
				C175.4,119.1,184.6,120.8,184.2,83.8z"/>
			<path class="st27" d="M135.1,88.8c1.1-0.7,2.2-1.7,3-2.8c0.9-1.1,1.6-2.4,2.2-3.6c0.6-1.3,1.1-2.6,1.5-4l0.6-2.1l0.4-2.1
				c0.1-0.4,0.1-0.7,0.2-1.1l0.1-1.1l0.3-2.1c0.1-1.4,0.2-2.9,0.2-4.3c0-1.4,0-2.9,0-4.3l-0.3-4.3l0.4,4.3c0.1,1.4,0.1,2.9,0.1,4.3
				c0,1.4-0.1,2.9-0.1,4.3l-0.2,2.2l-0.1,1.1c0,0.4-0.1,0.7-0.2,1.1l-0.4,2.1l-0.5,2.1c-0.4,1.4-0.9,2.8-1.5,4.1
				c-0.6,1.3-1.3,2.6-2.2,3.8l-0.7,0.9l-0.8,0.8c-0.5,0.5-1.1,1-1.8,1.4L135.1,88.8z"/>
			<path class="st27" d="M173.6,117.9c0.4,0,0.9-0.2,1.2-0.5c0.4-0.3,0.8-0.6,1.1-1c0.2-0.2,0.3-0.4,0.5-0.6
				c0.2-0.2,0.3-0.4,0.5-0.6c0.3-0.4,0.6-0.8,0.8-1.3c1-1.8,1.6-3.8,2.2-5.7c0.3-1,0.5-2,0.7-3c0.2-1,0.4-2,0.6-3
				c0.4-2,0.6-4.1,0.8-6.1c-0.2,2.1-0.3,4.1-0.6,6.2c-0.1,1-0.3,2-0.5,3.1c-0.2,1-0.4,2-0.6,3c-0.5,2-1.1,4-2,5.9
				c-0.2,0.5-0.5,0.9-0.8,1.4c-0.1,0.2-0.3,0.4-0.5,0.6c-0.2,0.2-0.3,0.4-0.5,0.6c-0.4,0.4-0.7,0.8-1.2,1.1
				c-0.2,0.2-0.5,0.3-0.7,0.4c-0.3,0.1-0.5,0.2-0.9,0.2L173.6,117.9z"/>
			<path class="st29" d="M177.6,126.5c-1.7-1.7-1.9-2.1-2.7-6.6c-0.8-4.6-7.4-12.5-9.8-14.7c-2.4-2.2,0.3-2.8-1.4-4.3
				c-1.7-1.5-1.7,0.9-5.1-0.9c-3.3-1.7-14.5-7.6-15.5-7.6s0-3-1.1-2.6c-1.1,0.4-1.4,1.7-3,0.9c-1.6-0.8-10.7-2.1-11.4-2.1
				c-0.6,0-3.2-2.4-2.1-6.4c-1.9,2.4-3.3,5.3-10.1,4.9c-6.8-0.4-16.9,2.5-20.4,2.7c-3.5,0.2-9.8,2.4-13.7-9.9
				c1.3,8.8,6.7,12.5,4.5,13c-2.2,0.5-2.7-1.1-4.1-1.9c0.3,2.7-0.9,3.6-3.3,4.6c-2.4,0.9-13.9,9.5-14.7,10.9
				c-0.8,1.4-2.7,4.7-4.9,4.7c-2.2,0-0.1,3.4-0.1,5c0,1.6-3.1,2.3-3.1,2.3s-5.2,13.7-3.5,30.5c0,0,0,0,0,0
				C53.8,100.8,85.8,90,115.6,90c28.9,0,59.9,10.2,63,54.8c0.6-7.8-0.9-13.4-1-13.9C177.5,130.3,179.3,128.2,177.6,126.5z"/>
			<path class="st28" d="M111.6,84.7c0,0-12.2-3.5-6.3,9.6s-1.3,12.4-1.3,12.4s3.4-1,2.1-4.6c-1.3-3.5-5.6-11.4-5-15.2
				C101.7,83.1,108.5,78.4,111.6,84.7z"/>
			<path class="st28" d="M130.4,86c-0.1-0.6,0.1-1.2,0.4-1.7c0.3-0.5,0.9-1,1.4-1.2c0.6-0.3,1.1-0.5,1.9-0.5c0.8,0,1.5,0.3,2,0.8
				c1.1,0.9,1.6,2.1,1.9,3.3c0.2,1.2,0.2,2.4,0.1,3.5c-0.2,1.2-0.6,2.3-1.1,3.3l-0.4,0.7l-0.4,0.7c-0.3,0.4-0.5,0.9-0.7,1.4
				c-0.4,0.9-0.7,1.9-0.7,2.9c0,0.5,0.1,1,0.5,1.3c0.3,0.3,0.8,0.5,1.3,0.4l0.1,0.2c-0.5,0.2-1.2,0.1-1.7-0.3
				c-0.5-0.4-0.7-1-0.8-1.6c-0.2-1.2,0-2.3,0.3-3.3c0.2-0.5,0.4-1,0.6-1.5l0.4-0.7l0.3-0.7c0.4-0.9,0.6-1.9,0.7-2.8
				c0-1-0.1-1.9-0.4-2.8c-0.3-0.9-0.7-1.7-1.2-2.2c-0.3-0.3-0.5-0.4-0.8-0.5c-0.2-0.1-0.8,0-1.2,0.1c-0.9,0.2-1.7,0.6-2.1,1.6
				L130.4,86z"/>
			<path class="st29" d="M176.6,124c0.1-0.6,0.5-1.1,1-1.5c0.5-0.4,1.2-0.6,1.8-0.6c0.6,0,1.2,0,2,0.2c0.7,0.3,1.3,0.9,1.6,1.5
				c0.7,1.2,0.8,2.5,0.6,3.7c-0.2,1.2-0.6,2.3-1.2,3.3c-0.6,1-1.4,1.9-2.2,2.6l-0.7,0.5l-0.6,0.5c-0.4,0.3-0.8,0.6-1.1,1
				c-0.7,0.7-1.4,1.5-1.7,2.4c-0.2,0.5-0.2,1-0.1,1.4c0.1,0.4,0.6,0.8,1.1,0.9l0,0.2c-0.6,0-1.2-0.3-1.4-0.9
				c-0.3-0.5-0.3-1.2-0.2-1.7c0.2-1.1,0.9-2.1,1.5-3c0.3-0.4,0.7-0.8,1.1-1.2l0.6-0.6l0.5-0.5c0.7-0.7,1.3-1.5,1.7-2.4
				c0.4-0.9,0.6-1.8,0.6-2.8c0-0.9-0.1-1.8-0.4-2.5c-0.1-0.4-0.3-0.6-0.6-0.8c-0.2-0.2-0.7-0.3-1.2-0.4c-0.9-0.2-1.8-0.1-2.6,0.7
				L176.6,124z"/>
			<path class="st8" d="M97.2,86.3c-0.9,0.1-1.8-0.2-2.6-0.5c-0.4-0.2-0.8-0.4-1.2-0.6c-0.4-0.2-0.7-0.5-1.1-0.8
				c-1.4-1.2-2.2-2.8-2.9-4.4c-0.4-0.8-0.6-1.6-0.9-2.5c-0.2-0.8-0.4-1.7-0.6-2.5c-0.1-0.9-0.2-1.7-0.3-2.6l-0.1-2.6l0.1,0l0.4,2.5
				c0.2,0.8,0.4,1.7,0.5,2.5c0.2,0.8,0.5,1.6,0.7,2.4c0.3,0.8,0.6,1.6,1,2.3c0.7,1.5,1.8,2.7,2.9,3.9c1.1,1.1,2.4,2.2,3.9,2.8
				L97.2,86.3z"/>
			<path class="st8" d="M91.4,88.5c-1.4-0.1-2.7-0.7-3.8-1.5c-1.1-0.8-2-2-2.7-3.1c-0.7-1.2-1.3-2.4-1.7-3.7c-0.2-0.6-0.3-1.3-0.5-2
				c-0.1-0.7-0.2-1.3-0.3-2l0.1,0c0.2,0.6,0.3,1.3,0.5,1.9c0.2,0.6,0.4,1.2,0.7,1.8c0.5,1.2,1.2,2.3,1.9,3.3c0.8,1,1.8,1.8,2.6,2.7
				c0.9,0.9,1.9,1.7,3,2.5L91.4,88.5z"/>
			<path class="st8" d="M171.3,109.3c1.7-1.6,2.9-3.6,3.8-5.7c0.2-0.5,0.5-1,0.7-1.6c0.2-0.5,0.5-1.1,0.6-1.6l0.6-1.6l0.4-1.7
				c0.2-0.6,0.3-1.1,0.4-1.7l0.3-1.7c0.1-1.2,0.3-2.3,0.4-3.5c0.1-1.2,0.2-2.3,0.2-3.5l0-3.5l0.1,0l0.2,3.5c0.1,1.2,0,2.4,0.1,3.6
				c0,1.2-0.1,2.4-0.2,3.6l-0.2,1.8c-0.1,0.6-0.1,1.2-0.3,1.8c-0.4,2.4-1,4.7-2.1,6.9c-0.6,1.1-1.3,2.1-2.1,3
				c-0.8,0.9-1.8,1.7-2.9,2.2L171.3,109.3z"/>
			<path class="st8" d="M61.6,107c-0.7,0.1-1.3-0.1-2-0.4c-0.6-0.3-1.1-0.7-1.6-1.2c-0.9-1-1.4-2.2-1.9-3.4
				c-0.2-0.6-0.4-1.2-0.6-1.8c-0.1-0.6-0.3-1.2-0.4-1.8c-0.1-0.6-0.2-1.2-0.3-1.8l-0.2-1.8l0.1,0l0.4,1.8c0.1,0.6,0.3,1.2,0.5,1.8
				c0.2,0.6,0.4,1.1,0.6,1.7c0.2,0.6,0.5,1.1,0.7,1.6c0.5,1.1,1.3,2,1.9,2.9c0.7,0.9,1.4,1.8,2.5,2.4L61.6,107z"/>
			<path class="st8" d="M149,89.6c0.5-0.4,0.9-1,1.3-1.6c0.3-0.6,0.6-1.2,0.8-1.9c0.2-0.6,0.4-1.3,0.6-2c0.1-0.7,0.3-1.3,0.4-2
				c0.5-2.7,0.8-5.5,1-8.3c0-1.4,0.1-2.8,0.1-4.2c0-1.4,0-2.8-0.1-4.2c-0.1-2.8-0.3-5.7-0.6-8.5l0.1,0c0.4,2.8,0.9,5.6,1.1,8.5
				c0.2,1.4,0.2,2.8,0.3,4.3c0.1,1.4,0.1,2.9,0.1,4.3c0,2.9,0,5.8-0.7,8.6c-0.2,0.7-0.4,1.4-0.6,2.1c-0.1,0.3-0.3,0.7-0.4,1
				c-0.1,0.3-0.3,0.7-0.5,1c-0.2,0.3-0.3,0.7-0.5,1c-0.2,0.3-0.4,0.6-0.7,0.9c-0.5,0.5-1,1.1-1.7,1.4L149,89.6z"/>
		</g>
		<g>
			<g>
				<path class="st30" d="M335.6,104c0,0-16-31-67-20.5s-65.8,60.3-64.2,89.1s8.1,45.8,21.4,65.9c13.1,19.8,7.4,32.6-2.6,35.9
					c0,0,57,40.4,116.2,0.6c0,0-14.4-4.4-12.7-16c1.7-11.6,22.7-26,35.4-50.4S380.4,115.6,335.6,104z"/>
				
					<linearGradient id="SVGID_00000174562656589646537060000001869019382551892377_" gradientUnits="userSpaceOnUse" x1="281.5981" y1="314.5258" x2="281.5981" y2="236.3186">
					<stop  offset="0.293" style="stop-color:#F3D799"/>
					<stop  offset="0.3714" style="stop-color:#F2D698"/>
					<stop  offset="1" style="stop-color:#DFC38D"/>
				</linearGradient>
				<path style="fill:url(#SVGID_00000174562656589646537060000001869019382551892377_);" d="M237.7,314.5l90.6-7.4
					c0,0,14.7-10.8,13.4-12.9c-1.7-2.8-4-9.4-8-9.2c-8.6,0.3-33.5-15.2-33.2-23.5c0.3-9.6,0-25.2,0-25.2h-32.1c0,0,0,15.6,0,25.2
					c0,9.6-12.8,17.7-26.3,22.2c-13.5,4.5-20.6,9.6-20.6,9.6L237.7,314.5z"/>
				<path class="st32" d="M349.1,163.6c0,46.7-22,85-64.6,85c-42.6,0-66.2-38.7-66.2-85.4c0-46.7,24.4-51.5,67-51.5
					C327.8,111.7,349.1,116.9,349.1,163.6z"/>
				<path class="st33" d="M259.1,219.4c8,4.9,16.6,7.9,25.4,7.8c8.8,0,17.2-3.4,25.5-7.8c-3.1,3.6-6.9,6.6-11.3,8.8
					c-4.3,2.2-9.3,3.4-14.2,3.5c-5,0-9.9-1.1-14.3-3.3C265.8,226.2,261.8,223.2,259.1,219.4z"/>
				<path class="st34" d="M324.2,126.2c0,0-2,14.6,6,36.2c8.7,23.7,18.1,32.5,27,26.2c0,0-9.6,3.3-6.9-6.9
					c3.6-13.8,11-37.2-0.1-53.2c-9.5-13.8-19.8-11.6-19.8-11.6s-8.3-28.2-45.8-28.6c-53.9-0.5-90.9,67.3-62.9,114.1
					c0,0-9.1-35.9,10-38.2c19.1-2.2,87.4-26.1,92.6-39.2"/>
				<path class="st35" d="M326.7,129.9c0,0-7.1,13.8-30.9,25.5c-18.9,9.3-40.8,10.8-61.8,10.2c0,0-7.2,12.2-6.6,32.1
					s10.6,41,10.6,41s-39.3-59.2-8.6-107.1c35.9-56,91.9-28.5,100.4-11.9C329.8,119.7,329.9,125.1,326.7,129.9z"/>
				<path class="st36" d="M323.8,118.1c-6.5-2.3-13.1-3.9-19.7-5.1c-6.6-1.1-13.3-1.8-19.9-1.6c-13.3,0.2-26.2,4-38.2,10.9
					c4.9-4.8,10.9-8.8,17.4-11.3c6.5-2.6,13.6-3.9,20.6-4.1C298.2,106.7,312.2,110.5,323.8,118.1z"/>
				<path class="st36" d="M344.5,160.7c-2.3-2.8-4.1-5.9-5.8-9.1c-1.7-3.2-3-6.6-4.1-10.1c-2-7-4.2-21.6-4.2-21.6s11.1,3,15.5,11.3
					c4.4,8.4,4.1,17.8,4.1,17.8s-2.4-8.4-6.1-14.1c-3.7-5.7-7.3-6.7-8.9-8.3c0,0,1.4,8.7,2.8,15.5
					C339.2,148.7,341.8,154,344.5,160.7z"/>
				
					<radialGradient id="SVGID_00000180362764041830288880000017025906920786571157_" cx="247.5525" cy="211.738" r="10.9198" gradientUnits="userSpaceOnUse">
					<stop  offset="0" style="stop-color:#EEB597"/>
					<stop  offset="1" style="stop-color:#F2D8A5"/>
				</radialGradient>
				<path style="fill:url(#SVGID_00000180362764041830288880000017025906920786571157_);" d="M258.5,211.7c0,6-4.9,10.9-10.9,10.9
					c-6,0-10.9-4.9-10.9-10.9c0-6,4.9-10.9,10.9-10.9C253.6,200.8,258.5,205.7,258.5,211.7z"/>
				
					<radialGradient id="SVGID_00000103977886983837403640000015870508931982582429_" cx="317.3384" cy="211.738" r="10.9198" gradientUnits="userSpaceOnUse">
					<stop  offset="0" style="stop-color:#EEB597"/>
					<stop  offset="1" style="stop-color:#F2D8A5"/>
				</radialGradient>
				<path style="fill:url(#SVGID_00000103977886983837403640000015870508931982582429_);" d="M328.3,211.7c0,6-4.9,10.9-10.9,10.9
					c-6,0-10.9-4.9-10.9-10.9c0-6,4.9-10.9,10.9-10.9C323.4,200.8,328.3,205.7,328.3,211.7z"/>
				<g>
					<path class="st39" d="M269.3,190.9c0,6.4-5.3,11.6-11.7,11.6c-6.5,0-11.7-5.2-11.7-11.6c0-6.4,5.3-11.6,11.7-11.6
						C264.1,179.3,269.3,184.5,269.3,190.9z"/>
					<path class="st40" d="M266.3,190.9c0,4.5-3.6,8.1-8.1,8.1c-4.5,0-8.1-3.6-8.1-8.1c0-4.5,3.6-8.1,8.1-8.1
						C262.7,182.8,266.3,186.4,266.3,190.9z"/>
					<path class="st8" d="M254.8,186.7c0,1.3-1.1,2.4-2.3,2.4c-1.3,0-2.3-1.1-2.3-2.4s1.1-2.3,2.3-2.3
						C253.7,184.4,254.8,185.4,254.8,186.7z"/>
					<path class="st39" d="M300.8,190.9c0,6.4,5.3,11.6,11.7,11.6c6.5,0,11.7-5.2,11.7-11.6c0-6.4-5.3-11.6-11.7-11.6
						C306.1,179.3,300.8,184.5,300.8,190.9z"/>
					<path class="st40" d="M303.8,190.9c0,4.5,3.6,8.1,8.1,8.1c4.5,0,8.1-3.6,8.1-8.1c0-4.5-3.6-8.1-8.1-8.1
						C307.5,182.8,303.8,186.4,303.8,190.9z"/>
					<path class="st8" d="M304.3,186.7c0,1.3,1.1,2.4,2.3,2.4c1.3,0,2.3-1.1,2.3-2.4s-1.1-2.3-2.3-2.3
						C305.3,184.4,304.3,185.4,304.3,186.7z"/>
				</g>
				<circle class="st39" cx="285" cy="277.1" r="4.3"/>
				<circle class="st41" cx="286.5" cy="276.1" r="1.1"/>
				<circle class="st39" cx="276.9" cy="276.5" r="3.7"/>
				<circle class="st41" cx="278.3" cy="275.6" r="0.9"/>
				<circle class="st39" cx="270.3" cy="274.3" r="3.3"/>
				<circle class="st41" cx="271.5" cy="273.5" r="0.9"/>
				<circle class="st39" cx="265.6" cy="270.1" r="2.9"/>
				<circle class="st41" cx="266.6" cy="269.4" r="0.7"/>
				<circle class="st39" cx="292.8" cy="275.6" r="3.7"/>
				<circle class="st41" cx="293.4" cy="274" r="0.9"/>
				<circle class="st39" cx="299.5" cy="273.4" r="3.3"/>
				<circle class="st41" cx="299.4" cy="271.7" r="0.9"/>
				<circle class="st39" cx="304.2" cy="269.3" r="2.9"/>
				<circle class="st41" cx="303.9" cy="267.9" r="0.7"/>
			</g>
			<polygon class="st33" points="297.8,323.4 305.7,308.2 262,308.2 273.1,323.4 			"/>
			<g>
				<path class="st42" d="M282.5,323.4c-6-11.9-18.8-38.5-20.3-50.6c-5,4.5-8.8,6.2-16.5,8.7c-3.8,1.2-12.9,3.3-19.9,6.3
					c-4.6,1.9-15.2,22-21.9,35.6H282.5z"/>
				<path class="st42" d="M368,323.4c-10.6-15.3-23.1-33-24.3-35.1c-2.4-4.4-13-5.8-16.8-7.2c-7.7-2.9-10.7-3.3-17.6-8.2
					c-3.9,14.3-15.4,39.1-20.8,50.5H368z"/>
			</g>
		</g>
	</g>
</g>
<g id="Layer_3">
</g>
<g id="Layer_5">
</g>
</svg>
