<?xml version="1.0" encoding="utf-8"?>
<!-- Generator: Adobe Illustrator 24.3.0, SVG Export Plug-In . SVG Version: 6.00 Build 0)  -->
<svg version="1.1" xmlns="http://www.w3.org/2000/svg" xmlns:xlink="http://www.w3.org/1999/xlink" x="0px" y="0px"
	 viewBox="0 0 500 500" style="enable-background:new 0 0 500 500;" xml:space="preserve">
<style type="text/css">
	.st0{fill:#281D0A;}
	.st1{fill:url(#SVGID_1_);}
	.st2{fill:#CAAA6E;}
	.st3{fill:#C88E2F;}
	.st4{fill:#3E2C09;}
	.st5{fill:#FFFFFF;}
	.st6{fill:url(#SVGID_2_);}
	.st7{fill:url(#SVGID_3_);}
	.st8{fill:none;stroke:#231C1E;stroke-linecap:round;stroke-miterlimit:10;}
	.st9{fill:#FEF3F7;}
	.st10{fill:#687167;}
	.st11{opacity:0.2;fill:#FFFEEF;}
	.st12{fill:#542F82;}
	.st13{fill:#542F82;stroke:#231F20;stroke-miterlimit:10;}
	.st14{fill:#6F2C87;}
	.st15{fill:#3A2C1C;}
	.st16{fill:#745B45;}
	.st17{display:none;}
	.st18{display:inline;fill:none;stroke:#231F20;stroke-width:0.5;stroke-miterlimit:10;}
</style>
<g id="Layer_5">
</g>
<g id="Layer_2">
</g>
<g id="Layer_4">
</g>
<g id="Layer_1">
	<path class="st0" d="M269.9,45.8c-36.4-13.8-79.4-5.8-114.4,27s-52.5,118-21.9,167.6s-15.3,57.6-15.3,57.6s17.5,9.5,28.4-2.2
		c0,0,1.7,22.6-10.2,45.2c-15.3,29.1-9.1,47.1,8,87.4c8,18.9,27.7,40.8,15.3,50.3l80.1-35l86.7-48.1l-42.3-34.2l-19.7-199.6
		L269.9,45.8z"/>
	<path class="st0" d="M223.3,52.3c0,0,29.1-13.1,57.6-13.8c28.4-0.7,72.6,21.4,93,65.8s-7,136-3.4,150.6
		c3.6,14.6,15.3,18.2,21.1,11.7c0,0-4.4,18.2-27,8c0,0-2.9,11.7,5.1,34.2c8,22.6,9.5,49.6,8.7,74.3c-1.5,50.3-53.2,78-48.1,88.9
		c5.1,10.9,13.1,5.8,13.1,5.8s-3.6,10.2-17.5,5.1c-13.8-5.1-20.4-40.1-20.4-40.1l-99.1-1.5l-11.7-48.1L223.3,52.3z"/>
	<linearGradient id="SVGID_1_" gradientUnits="userSpaceOnUse" x1="246.7422" y1="499.662" x2="246.7422" y2="274.3792">
		<stop  offset="0" style="stop-color:#CAAA6E"/>
		<stop  offset="1" style="stop-color:#A58C5B"/>
	</linearGradient>
	<path class="st1" d="M126.2,499.7l51-76.9c0,0,27.8,12.9,41.4,76.9H287c15-63.2,44.9-75.5,44.9-75.5l39.9,75.5h31.3l-67.6-131.9
		c0,0,6.2-10.7-15.3-17.8c-21.5-7.2-41.9-20.1-41.9-35.4c0-15.3,0-40.2,0-40.2h-26h-0.1h-26c0,0,0,24.9,0,40.2
		c0,15.3-13.4,22.5-34.9,29.7c-21.5,7.2-24.2,20.4-24.2,20.4l-76.7,135H126.2z"/>
	<path class="st2" d="M345.7,158.7c0,74.4-26.4,135.2-94.3,135.2c-67.9,0-93-61.5-93-135.9c0-74.4,26.2-82.1,94.1-82.1
		C320.4,75.8,345.7,84.3,345.7,158.7z"/>
	<path class="st3" d="M227.3,202c0,10.2-8.4,18.5-18.7,18.5c-10.3,0-18.7-8.3-18.7-18.5c0-10.2,8.4-18.5,18.7-18.5
		C218.9,183.5,227.3,191.8,227.3,202z"/>
	<path class="st4" d="M222.4,202c0,7.1-5.8,12.9-12.9,12.9c-7.1,0-12.9-5.8-12.9-12.9c0-7.1,5.8-12.9,12.9-12.9
		C216.7,189.1,222.4,194.9,222.4,202z"/>
	<path class="st5" d="M204.1,195.3c0,2.1-1.7,3.7-3.7,3.7c-2.1,0-3.7-1.7-3.7-3.7s1.7-3.7,3.7-3.7
		C202.4,191.6,204.1,193.2,204.1,195.3z"/>
	<path class="st4" d="M210.9,247.3c12.8,7.8,26.5,12.6,40.4,12.4c14,0,27.4-5.4,40.7-12.4c-4.9,5.8-11,10.5-17.9,14
		c-6.9,3.5-14.8,5.4-22.7,5.5c-7.9,0-15.8-1.7-22.8-5.2C221.6,258.3,215.3,253.5,210.9,247.3z"/>
	<radialGradient id="SVGID_2_" cx="192.5576" cy="235.2075" r="17.4018" gradientUnits="userSpaceOnUse">
		<stop  offset="0" style="stop-color:#C88C66"/>
		<stop  offset="1" style="stop-color:#CAAA6E"/>
	</radialGradient>
	<path class="st6" d="M210,235.2c0,9.6-7.8,17.4-17.4,17.4c-9.6,0-17.4-7.8-17.4-17.4c0-9.6,7.8-17.4,17.4-17.4
		C202.2,217.8,210,225.6,210,235.2z"/>
	<radialGradient id="SVGID_3_" cx="303.7685" cy="235.2075" r="17.4018" gradientUnits="userSpaceOnUse">
		<stop  offset="0" style="stop-color:#C88C66"/>
		<stop  offset="1" style="stop-color:#CAAA6E"/>
	</radialGradient>
	<path class="st7" d="M321.2,235.2c0,9.6-7.8,17.4-17.4,17.4c-9.6,0-17.4-7.8-17.4-17.4c0-9.6,7.8-17.4,17.4-17.4
		C313.4,217.8,321.2,225.6,321.2,235.2z"/>
	<path class="st3" d="M277.4,202c0,10.2,8.4,18.5,18.7,18.5c10.3,0,18.7-8.3,18.7-18.5c0-10.2-8.4-18.5-18.7-18.5
		C285.8,183.5,277.4,191.8,277.4,202z"/>
	<path class="st4" d="M282.2,202c0,7.1,5.8,12.9,12.9,12.9c7.1,0,12.9-5.8,12.9-12.9c0-7.1-5.8-12.9-12.9-12.9
		C288,189.1,282.2,194.9,282.2,202z"/>
	<path class="st5" d="M283,195.3c0,2.1,1.7,3.7,3.7,3.7c2.1,0,3.7-1.7,3.7-3.7s-1.7-3.7-3.7-3.7C284.6,191.6,283,193.2,283,195.3z"
		/>
	<path class="st8" d="M220.4,327c0,0,2.2,32.1,32.1,31.3c27-0.7,32.1-30.6,32.1-30.6"/>
	<path class="st9" d="M99,490.9l71.5-68.1c9.6,13.3,22.3,49,25.7,76.9h110.4c4.9-22.6,6-82.6,6-82.6l52.1,82.6h47.2l-87.5-151.5
		l-28.2-13.6c0,0-4.9,51.5-41.8,54.4c-44.6,3.5-44.7-54.4-44.7-54.4s-39.8,23.3-42.7,24.3c-2.9,1-79.7,139.9-79.7,139.9
		C111.6,492.9,99,490.9,99,490.9z"/>
	<path class="st10" d="M137.4,499.7l36.4-58.3c0,0,11.2,38.3,15.2,58.3h50.7l1.1-101c-38.9-2.9-42.7-62.2-42.7-62.2
		S167,349.1,166.5,351c-0.9,3.7-61.5,101.9-90.4,148.6H137.4z"/>
	<path class="st10" d="M313.6,499.7c2.7-19.9,10.3-57.8,10.3-57.8l36,57.8H415c-27.7-51.9-79.3-149-80-152.5l-30.1-10.7
		c0,0-3.9,59.3-42.7,62.2l1.1,101H313.6z"/>
	<path class="st5" d="M275.9,499.7l-1.3-90.5c4.9-1.4,38.9-13.1,43-64.6c0-0.4-0.3-0.8-0.7-0.8c-0.4,0-0.8,0.3-0.8,0.7
		c-4.3,54.2-42,63.4-42.4,63.5l-0.6,0.1l1.3,91.6H275.9z"/>
	<polygon class="st9" points="292.7,499.7 289.1,402.5 287.7,402.5 291.3,499.7 	"/>
	<path class="st5" d="M227.7,409.1l-1.3,90.5h1.5l1.3-91.7l-0.6-0.1c-0.4-0.1-38.1-9.3-42.4-63.5c0-0.4-0.4-0.7-0.8-0.7
		c-0.4,0-0.7,0.4-0.7,0.8C188.8,396.1,222.8,407.7,227.7,409.1z"/>
	<polygon class="st9" points="214.8,402.5 213.3,402.5 209.7,499.7 211.2,499.7 	"/>
	<path class="st11" d="M241.5,338.5c-0.8,0-1.5-0.7-1.5-1.5"/>
	<path class="st2" d="M267.1,334.4c0-0.8-0.7-1.5-1.5-1.5s-1.5,0.7-1.5,1.5"/>
	<path class="st12" d="M251.9,387.4c5.8,0,7.7-3.9,7.7-8.2c0-4.8-4.5-11.2-6.2-15.4c-1.3-3.4-1.5-5.1-1.5-5.1s-0.1,1.3-1.4,4.7
		c-1.7,4.7-6.6,11.8-6.3,16.8C244.5,383.9,246.5,387.4,251.9,387.4z"/>
	<circle class="st13" cx="251.9" cy="358.6" r="1.7"/>
	<path class="st14" d="M252.7,367.4c-2.1,2.1-5.6,11.2-4,14.9c1.5,3.7,5.6,3.6,7,2.7c1.4-0.8,3.2-3.2,2.3-8c-0.9-4.8-3.5-8.7-4-9.3
		S253.3,366.9,252.7,367.4z"/>
	<circle class="st5" cx="247.7" cy="382.7" r="1.4"/>
	<circle class="st5" cx="250.6" cy="384.5" r="0.8"/>
	<path class="st12" d="M267.4,373.5c3.9,0,5.2-2.6,5.2-5.5c0-3.2-3.1-7.6-4.2-10.5c-0.9-2.3-1-3.5-1-3.5s-0.1,0.9-0.9,3.2
		c-1.2,3.2-4.5,8-4.3,11.4C262.4,371.2,263.7,373.5,267.4,373.5z"/>
	<circle class="st13" cx="267.4" cy="354" r="1.2"/>
	<path class="st14" d="M267.9,360c-1.4,1.4-3.8,7.6-2.7,10.1c1,2.5,3.8,2.4,4.8,1.9s2.2-2.2,1.5-5.4c-0.6-3.3-2.3-5.9-2.7-6.3
		C268.4,359.8,268.3,359.6,267.9,360z"/>
	<circle class="st5" cx="264.5" cy="370.4" r="0.9"/>
	<circle class="st5" cx="266.5" cy="371.6" r="0.5"/>
	<path class="st12" d="M236.6,374.3c3.9,0,5.2-2.6,5.2-5.5c0-3.2-3.1-7.6-4.2-10.5c-0.9-2.3-1-3.5-1-3.5s-0.1,0.9-0.9,3.2
		c-1.2,3.2-4.5,8-4.3,11.4C231.6,372,232.9,374.3,236.6,374.3z"/>
	<circle class="st13" cx="236.6" cy="354.8" r="1.2"/>
	<path class="st14" d="M237.2,360.8c-1.4,1.4-3.8,7.6-2.7,10.1c1,2.5,3.8,2.4,4.8,1.9c0.9-0.6,2.2-2.2,1.5-5.4
		c-0.6-3.3-2.3-5.9-2.7-6.3C237.7,360.6,237.5,360.5,237.2,360.8z"/>
	<circle class="st5" cx="233.8" cy="371.2" r="0.9"/>
	<circle class="st5" cx="235.7" cy="372.4" r="0.5"/>
	<path class="st12" d="M226.1,356.4c2.3,0,3-1.5,3-3.2c0-1.9-1.8-4.4-2.4-6.1c-0.5-1.3-0.6-2-0.6-2s0,0.5-0.5,1.8
		c-0.7,1.9-2.6,4.7-2.5,6.6C223.2,355.1,224,356.4,226.1,356.4z"/>
	<path class="st14" d="M226.5,348.6c-0.8,0.8-2.2,4.4-1.6,5.9c0.6,1.5,2.2,1.4,2.8,1.1c0.5-0.3,1.3-1.3,0.9-3.1
		c-0.4-1.9-1.4-3.4-1.6-3.7C226.7,348.5,226.7,348.4,226.5,348.6z"/>
	<circle class="st5" cx="224.5" cy="354.6" r="0.5"/>
	<circle class="st5" cx="225.6" cy="355.3" r="0.3"/>
	<path class="st12" d="M277.5,356.4c2.3,0,3-1.5,3-3.2c0-1.9-1.8-4.4-2.4-6.1c-0.5-1.3-0.6-2-0.6-2s0,0.5-0.5,1.8
		c-0.7,1.9-2.6,4.7-2.5,6.6C274.6,355.1,275.4,356.4,277.5,356.4z"/>
	<path class="st14" d="M277.8,348.6c-0.8,0.8-2.2,4.4-1.6,5.9c0.6,1.5,2.2,1.4,2.8,1.1s1.3-1.3,0.9-3.1c-0.4-1.9-1.4-3.4-1.6-3.7
		C278.1,348.5,278,348.4,277.8,348.6z"/>
	<circle class="st5" cx="275.8" cy="354.6" r="0.5"/>
	<circle class="st5" cx="277" cy="355.3" r="0.3"/>
	<path class="st15" d="M286.7,129.8c0,0,11.7-2.9,21.1,5.1c9.5,8,13.1,33.5-3.6,37.9c0,0,26.2,4.4,28.9-26
		C335.7,116.8,290.3,111.6,286.7,129.8z"/>
	<path class="st15" d="M278.9,77.1l7.8,52.7c0,0,16-4.4,29.1,0.7c13.1,5.1,25.5,15.7,9.7,55.4c-9.7,24.3-24.8,79.7-8.3,112
		c13.8,27,46.1,10.4,46.1,10.4s-33,9.2-30.1-17.7c2.9-27,69.9-156.6,10.7-207.6C312.9,56.2,278.9,77.1,278.9,77.1z"/>
	<path class="st15" d="M282.6,78.1l4.1,51.7c0,0-15.3-18.9-38.6-4.4C224.8,140,235,173.3,184,180.6c0,0-2.9,48.8-32.1,53.2
		s-38.6-9.5-38.6-9.5s12.4,9.5,28.4-8s-3.6-89.6,29.9-132.6S276.7,59.1,282.6,78.1z"/>
	<path class="st16" d="M286.7,129.8c-1.7-7.2-6.8-13.2-13.1-16.6c-3.1-1.8-6.5-3-10-3.8c-3.5-0.8-7.1-1.3-10.7-1.4
		c-7.2-0.3-14.5,0.2-21.3,2.3c-3.4,1-6.6,2.4-9.6,4.3c-3,1.9-5.7,4.1-7.9,6.7c-4.7,5.2-7.6,11.8-9.1,18.8c-0.4,1.7-0.7,3.5-0.9,5.3
		c-0.2,1.7-0.4,3.7-0.7,5.6c-0.6,3.8-1.7,7.5-3.3,11c-3.2,7-8.8,13.1-16,16.1c-3.6,1.4-7.4,2.2-11.2,1.9c-1.9-0.1-3.8-0.4-5.6-0.9
		c-1.8-0.5-3.5-1.2-5.2-2c3.5,1.2,7.2,1.8,10.8,1.7c3.6-0.1,7.2-1.1,10.3-2.7c6.4-3.2,11.1-9,13.8-15.5c1.3-3.3,2.2-6.7,2.7-10.3
		c0.3-1.8,0.3-3.5,0.5-5.4c0.2-1.9,0.4-3.8,0.8-5.7c1.5-7.5,4.7-14.9,9.8-20.8c2.6-3,5.7-5.4,9-7.5c3.3-2,7-3.5,10.7-4.6
		c7.5-2.1,15.2-2.5,22.7-1.8c7.5,0.7,15.2,2.6,21.6,6.8C281.1,115.5,286,122.3,286.7,129.8z"/>
	<path class="st16" d="M291.3,127.6c2.8-3.3,6.5-5.8,10.6-7.5c4.1-1.7,8.5-2.6,12.9-2.8c4.4-0.1,8.9,0.3,13.2,1.5
		c4.3,1.2,8.5,3.3,12,6.3c3.5,3,6.3,6.9,7.9,11.2c1.7,4.3,2.3,8.9,2.3,13.4c-0.1,4.5-0.9,9-2.1,13.3c-0.6,2.1-1.3,4.3-2,6.3
		l-2.1,6.1c-5.6,16.3-11,32.7-16,49.1c-2.5,8.2-4.9,16.5-7,24.8c-1.1,4.2-2,8.4-2.7,12.6c-0.4,2.1-0.7,4.2-0.8,6.4
		c-0.1,2.1-0.2,4.3,0.6,6.3c-1-1.9-1.2-4.2-1.3-6.3c0-2.2,0.1-4.4,0.3-6.5c0.4-4.3,1.1-8.6,1.9-12.9c1.6-8.5,3.6-16.9,5.9-25.3
		c4.4-16.7,9.6-33.2,15.1-49.6c1.3-4.1,2.9-8.2,4.1-12.2c1.2-4,1.9-8.1,2-12.2c0.1-4.1-0.3-8.2-1.7-12c-1.4-3.8-3.6-7.2-6.6-9.9
		c-3-2.7-6.6-4.8-10.5-6.1c-3.9-1.3-8.1-2-12.3-2.1c-4.2-0.1-8.4,0.4-12.5,1.7c-2,0.7-4,1.5-5.8,2.6
		C294.6,124.9,292.8,126.1,291.3,127.6z"/>
	<path class="st16" d="M289.4,115c-0.5-4.2-1.6-8.3-2.9-12.3c-1.4-4-3.1-7.8-5.3-11.3c-2.2-3.5-4.8-6.7-7.9-9.4
		c-3.1-2.6-6.6-4.8-10.3-6.3c-3.8-1.5-7.8-2.3-11.8-2.7c-4.1-0.4-8.2-0.3-12.2,0.2c-8,1.1-15.7,4.3-22,9.4
		c-6.3,5.1-11.3,11.7-14.9,19.1c-3.7,7.3-6,15.4-7.4,23.5c-0.4,2.1-0.6,4.1-0.9,6.2c-0.3,2.1-0.6,4.3-1.2,6.4
		c-1.1,4.2-2.8,8.4-5.6,11.9c-2.8,3.5-7,5.8-11.3,6.5c-4.3,0.7-8.7,0.1-12.6-1.4c4.1,1.1,8.4,1.2,12.4,0.2c4-1,7.5-3.3,9.8-6.6
		c2.4-3.2,3.7-7.1,4.5-11.1c0.4-2,0.7-4,0.8-6.1c0.2-2.1,0.3-4.3,0.6-6.4c1.1-8.5,3.3-17,7-24.9c3.8-7.8,9-15.1,16-20.6
		c6.9-5.5,15.4-9,24.2-10c4.4-0.5,8.8-0.4,13.1,0.1c4.3,0.5,8.7,1.6,12.7,3.4c4,1.8,7.7,4.3,10.9,7.3c3.2,3,5.8,6.6,7.8,10.4
		c2,3.8,3.6,7.8,4.7,12C288.6,106.5,289.2,110.8,289.4,115z"/>
</g>
<g id="Layer_3">
</g>
<g id="BEELD">
</g>
<g id="Layer_7" class="st17">
	<line class="st18" x1="-394.5" y1="572.2" x2="-394.5" y2="1602.8"/>
</g>
<g id="Layer_8">
</g>
</svg>
