<?xml version="1.0" encoding="utf-8"?>
<!-- Generator: Adobe Illustrator 24.3.0, SVG Export Plug-In . SVG Version: 6.00 Build 0)  -->
<svg version="1.1" xmlns="http://www.w3.org/2000/svg" xmlns:xlink="http://www.w3.org/1999/xlink" x="0px" y="0px"
	 viewBox="0 0 500 500" style="enable-background:new 0 0 500 500;" xml:space="preserve">
<style type="text/css">
	.st0{fill:#BBC0C5;}
	.st1{fill:#DCB995;}
	.st2{fill:#EECBA1;}
	.st3{fill:#895929;}
	.st4{fill:#53BDE4;}
	.st5{fill:#FFFFFF;}
	.st6{fill:#A06833;}
	.st7{fill:#744B20;}
	.st8{fill:#94662E;}
	.st9{fill:#835526;}
	.st10{fill:#494032;}
	.st11{fill:#5A7B44;}
	.st12{fill:#2A1D01;}
	.st13{fill:#A27135;}
	.st14{fill:#EBEBEC;}
	.st15{fill:#5292A8;}
	.st16{fill:none;stroke:#D5D5D7;stroke-miterlimit:10;}
	.st17{display:none;}
	.st18{display:inline;fill:none;stroke:#231F20;stroke-width:0.5;stroke-miterlimit:10;}
</style>
<g id="Layer_5">
</g>
<g id="Layer_2">
</g>
<g id="Layer_4">
</g>
<g id="Layer_1">
	<path class="st0" d="M152.5,420.6c0,0-27.9,10.6-29.4,15.9s6.1,11.9,14.7,16.8c8.6,5,22.8,8.1,24.4,4.3s-0.7-18.8-0.7-18.8
		L152.5,420.6z"/>
	<path class="st0" d="M342.8,420.6c0,0,27.9,10.6,29.4,15.9s-6.1,11.9-14.7,16.8c-8.6,5-22.8,8.1-24.4,4.3s0.7-18.8,0.7-18.8
		L342.8,420.6z"/>
	<path class="st1" d="M172.2,422.9h152.2l13.3-59.1c0,0-2.8-13.5-24.6-20.8c-21.8-7.3-38.5-14.7-38.5-30.2c0-15.5,0-40.9,0-40.9
		h-26.4H222c0,0,0,25.3,0,40.9c0,15.5-16.6,22.9-38.5,30.2c-21.8,7.3-24.6,20.8-24.6,20.8L172.2,422.9z"/>
	<path class="st2" d="M343.6,154.2c0,75.7-26.9,137.5-95.9,137.5c-69,0-94.6-62.6-94.6-138.3c0-75.7,64.2-91,95.7-91
		S343.6,78.5,343.6,154.2z"/>
	<path class="st3" d="M340.5,117.9l-5.6,2.8c10.2,25.6,3.4,76.6-7.4,110c-6.5,20.2-18.5,26-28.6,26.2c-6.5,0.2-15.7-28.8-50.7-28.8
		s-44.1,29-50.7,28.8c-10-0.3-22-6-28.6-26.2c-10.7-33.4-17.5-84.3-7.4-110l-5.6-2.8c0,0-7.1,23-3,58.1c4.1,35.1,6.6,74.9,28.5,103
		c14.5,18.7,29,30.1,37,32.9c7.2,6.3,17.4,10,29.8,10c12.4,0,22.6-3.7,29.8-10c8-2.8,22.5-14.1,37-32.9
		c21.8-28.2,24.4-67.9,28.5-103C347.7,140.8,340.5,117.9,340.5,117.9z M220.3,263c-5.2-1.8-5.5-8-5.5-8s12.7-14.7,33.5-13.8
		c20.9-0.9,33.5,13.8,33.5,13.8s-0.2,6.2-5.5,8c-5.9,2-16.3-6-28-6C236.6,257,226.3,265,220.3,263z"/>
	<path class="st4" d="M206.5,234.8c0,2.8-2.2,5-5,5s-5-2.2-5-5s5-9.2,5-9.2S206.5,232.1,206.5,234.8z"/>
	<circle class="st5" cx="200" cy="235.7" r="1.4"/>
	<path class="st6" d="M227.2,266.6c0,0-0.1,7.7,3.8,11.1l1.8-5.7c0,0,2.6,13.4,12.7,13.4c7.6,0,11.9-7.3,12.9-13.3
		c0,0,1.7,3.6,2.3,9.6c0,0,2.8-4.4,4.1-9c0,0,0.6-0.5,0.6,1.9c0,0,3.4-2.6,2.9-9.4c0,0-9.6-3.2-13.7-3.6c0,0,0.1,2.2-1.3,2.6
		c-1.4,0.4-2.1-0.7-2.1-0.7l-0.6,4.3l-0.6-1.5c0,0-1.9,2.1-3.2,0.6c-1.3-1.5-2-4.2-2-4.2l0.6,3.4c0,0-2.4-1.1-3-4.4
		c0,0-3.8,0.6-8.2,2.6C229.8,266.1,227.2,266.6,227.2,266.6z"/>
	<g>
		<path class="st7" d="M227.2,268.6c-0.1,1.1,0,2.3,0.2,3.4c0.2,1.1,0.4,2.2,0.8,3.2c0.4,1,0.9,1.9,1.6,2.7c0.7,0.8,1.5,1.4,2.4,1.8
			l-1.3,0.6c0.3-1.2,0.5-2.4,0.8-3.5l1-4l1,4.1c0.4,1.4,0.9,2.9,1.6,4.3c0.7,1.4,1.4,2.7,2.3,3.8c1.8,2.3,4.3,3.9,7.1,4
			c2.9,0.2,5.8-0.6,8-2.3c2.2-1.7,3.7-4.4,4.2-7.3l1.4-7.4l1.1,7.4c0.1,0.7,0.2,1.4,0.2,2.1c0,0.7,0,1.4-0.1,2.1
			c-0.1,1.4-0.4,2.8-1.3,4.2l-1.3-1.6c0.9-0.4,2-1.1,2.8-1.8c0.9-0.8,1.6-1.7,2.3-2.7c0.6-1,1.2-2.1,1.5-3.3
			c0.2-0.6,0.3-1.2,0.5-1.8c0.1-0.6,0.2-1.2,0.3-1.8l0-0.1l0.1,0c0.2-0.1,0.4-0.1,0.5,0c0.1,0.1,0.2,0.2,0.2,0.3
			c0.1,0.2,0.1,0.4,0.1,0.6c0,0.4,0,0.8,0,1.1c0-0.4-0.1-0.7-0.2-1.1c0-0.2-0.1-0.3-0.2-0.5c0-0.1-0.1-0.1-0.1-0.1c0,0,0,0,0,0
			l0.1-0.2c0,0.6,0,1.3,0,1.9c-0.1,0.6-0.1,1.3-0.2,1.9c-0.2,1.3-0.7,2.5-1.2,3.7c-0.6,1.2-1.3,2.3-2.2,3.3c-0.9,1-1.9,1.8-3.3,2.5
			l-3,1.5l1.7-3.1c0.5-0.9,0.7-2,0.7-3.2c0-0.6,0-1.2-0.1-1.8c0-0.6-0.1-1.2-0.2-1.7l2.6,0c-0.5,3.4-2.1,6.8-5,9.1
			c-1.4,1.1-3,2-4.8,2.5c-0.9,0.2-1.7,0.4-2.6,0.5c-0.4,0.1-0.9,0-1.3,0.1c-0.4,0-0.9,0-1.3-0.1c-1.8-0.1-3.6-0.7-5.2-1.6
			c-1.6-0.9-2.8-2.3-3.8-3.7c-1-1.4-1.8-2.9-2.5-4.5c-0.6-1.6-1.1-3.1-1.4-4.9l2.1,0.1c-0.4,1.1-0.8,2.3-1.2,3.4l-0.4,1.1l-0.9-0.6
			c-1.1-0.7-2-1.5-2.7-2.5c-0.7-1-1.1-2.2-1.4-3.3c-0.3-1.1-0.4-2.3-0.4-3.5C226.9,270.9,227,269.7,227.2,268.6z"/>
	</g>
	<path class="st7" d="M326.8,254.7c-2.7,8.8-10.7,19.6-10.7,19.6l-3.1-11c0,0,1.4,12.7,1.1,14.2c-0.3,1.5-14.2,15.1-14.2,15.1
		l-1.3-4.2c0,0-1,5.2-4.9,10c-3.9,4.8-18.5,9.6-18.5,9.6l-1-3.2c0,0-1.5,4.2-3.2,6.5c-1.7,2.2-5.2,2.4-5.2,2.4
		c1.1-8.1,0.2-11.8,0.2-11.8s-0.7,7.9-3.7,11.8c-2.9,3.9-13,2.7-13,2.7l-1.1-6.2c-0.6,5.4-5.9,8.4-11.7,4.3c-5.8-4-7-10.6-7-10.6
		c0.2,6.2,3.5,13.6,3.5,13.6c-7.2-1.4-8.7-8.9-8.7-8.9s-13.9-3.6-19.2-8.4c-12.9-11.8-10.6-28.6-10.6-28.6l-5,11.7
		c-11.1-8.6-21.1-30.3-27.5-46.8c3.9,15.5,9.8,30,19.4,42.4c14.5,18.7,29,30.1,37,32.9c7.2,6.3,17.4,10,29.8,10
		c12.4,0,22.6-3.7,29.8-10c8-2.8,22.5-14.1,37-32.9c8.1-10.5,13.5-22.5,17.4-35.3C330.1,247.4,327.8,251.4,326.8,254.7z"/>
	<g>
		<path class="st2" d="M98.8,499.5h37.9l35-76.6c-1.4-26.5-9.5-41.9-17.1-50.5L98.8,499.5z"/>
		<path class="st2" d="M334,357.2c-17.1,27.4-10.1,65.6-10.1,65.6l35,76.6h37.9l-59.5-135.7C337.2,363.8,336.7,361,334,357.2z"/>
	</g>
	<path class="st8" d="M274.1,52.6c0,14.4-14.6,31.1-29,31.1S216,67,216,52.6s14.6-21.1,29-21.1S274.1,38.2,274.1,52.6z"/>
	<path class="st9" d="M260.7,34.4c3.3,3,7.1,7.1,7.3,10c0.4,5.2-3.4,7.4-4.9,6.2c-1.5-1.1-4-8.5-4-8.5s0.5,6.1-1.7,6.1
		c-2.2,0-7.4-11.7-7.4-11.7s2.8,16.4-1.6,18c-4.5,1.7-9.4-2.4-9.4-2.4s-0.6,5.3-3,2.4c-2.4-2.9-1.8-8.6-1.8-8.6s-3.3,4.1-2.6,9.5
		c0.7,5.4-7.5,4.7-8.5-0.9c-1-5.6,3.4-11.9,6.8-15.2c0,0-8.4,2-9.9,10.9c-1.5,8.9-3.3,6.3-3.2,1.3c0.1-1.9,0.4-4.2,0.7-6.3
		c-0.9,2.2-1.4,4.6-1.4,7.3c0,8.2,4.7,17.1,11.5,23.3l34,1c7.3-6.2,12.6-15.7,12.6-24.3C274.1,43.6,268.4,37.7,260.7,34.4z"/>
	<path class="st10" d="M273,256.9c-8.3-5.1-17.2-5.8-26.3-5.7c-9.1,0-17.8,1.1-26.4,5.7c3.2-3.8,12.1-10.4,26.4-10.4
		C261,246.5,270.1,252.9,273,256.9z"/>
	<path class="st11" d="M225,202.6c0,10.4-8.5,18.8-19,18.8c-10.5,0-19-8.4-19-18.8c0-10.4,8.5-18.8,19-18.8
		C216.5,183.8,225,192.2,225,202.6z"/>
	<path class="st12" d="M220.2,202.6c0,7.3-5.9,13.2-13.1,13.2c-7.3,0-13.1-5.9-13.1-13.2c0-7.2,5.9-13.1,13.1-13.1
		C214.3,189.4,220.2,195.3,220.2,202.6z"/>
	<path class="st5" d="M201.5,195.8c0,2.1-1.7,3.8-3.8,3.8c-2.1,0-3.8-1.7-3.8-3.8c0-2.1,1.7-3.8,3.8-3.8
		C199.8,192,201.5,193.7,201.5,195.8z"/>
	<path class="st11" d="M271.6,202.6c0,10.4,8.5,18.8,19,18.8c10.5,0,19-8.4,19-18.8c0-10.4-8.5-18.8-19-18.8
		C280.2,183.8,271.6,192.2,271.6,202.6z"/>
	<path class="st12" d="M276.5,202.6c0,7.3,5.9,13.2,13.1,13.2c7.3,0,13.1-5.9,13.1-13.2c0-7.2-5.9-13.1-13.1-13.1
		C282.4,189.4,276.5,195.3,276.5,202.6z"/>
	<path class="st5" d="M277.3,195.8c0,2.1,1.7,3.8,3.8,3.8c2.1,0,3.8-1.7,3.8-3.8c0-2.1-1.7-3.8-3.8-3.8
		C279,192,277.3,193.7,277.3,195.8z"/>
	<path class="st13" d="M341.6,125.1c-5.4-54.5-64.2-66.2-92.8-66.2s-87.5,11.7-92.8,66.2c-5.7,57.7,1.8,44.2,1.8,44.2
		s11-38.7,93.6-39c82.6,0.3,88.4,39,88.4,39S347.3,182.8,341.6,125.1z"/>
	<path class="st8" d="M339.4,169.3c0,0,7.5,13.5,1.8-44.2c-0.8-8.3-2.9-15.6-5.9-22.1c1.9,12.2,3.2,22.2,0.8,21.5
		c-3.1-0.9-4.5-11.7-12.5-25.4c-8-13.8-24.7-25.9-24.7-25.9c19,15.1,21.4,44.2,21.4,44.2s-12.2-0.9-16-17.8s-24.9-32.9-24.9-32.9
		c8.4,7.3,13.8,31.9,8.7,33.4s-11.9-7.7-11.9-7.7c0.8,19.1-24.8,29.9-25.8,8.3c-1-21.6-12.5-36.2-12.5-36.2
		c0.3,14.7-4.2,36.7-4.2,36.7c-20.1,10.3-19.6-13.2-24-13.2s-6.4,10.3-13.7,9.3c-7.3-1-2.6-17.3-2.6-17.3c-17.8,15-15,36.9-17,45.3
		c-2,8.4-12.7,8.7-12.7,8.7c0-31.6,15.7-51.4,30.4-63c-19.4,9.7-36,26.3-38.7,54c-5.7,57.7,1.8,44.2,1.8,44.2s11-38.7,93.6-39
		C333.5,130.6,339.4,169.3,339.4,169.3z"/>
	<path class="st9" d="M339.8,169.3c0,0,3.7,6.7,3.9-9.7c-0.6,2.4-1.1,4.6-1.3,5.5c-0.4,2.1-2.2,1-3.6-14.6
		c-1.3-15.6-2.9-20.2-2.9-20.2c1.4,17.5-4,13.6-5.7,13.4c-1.7-0.2-3.1-6.5-4-23.7S314.8,91,314.8,91c12.8,20.3,9.3,49,9.3,49
		c-7.1-5.5-13.9-8-13.9-8l-2.4-10.5c-1.2,10.7-9,10.8-8.7-6.7c0.3-17.5-7-32.8-7-32.8c4.1,18.7,1.7,40.6,1.7,40.6
		c-0.7-8.6-5.1-13.8-5.1-13.8c0,10.4,0.4,17.5-10.8,15.7c-11.2-1.9-31.7-2.2-31.7-2.2c1.1-38.8-4.5-42.2-4.5-42.2
		c0.7,12.7-2.2,42.5-2.2,42.5c-14.9,0-37.3,6.3-37.3,6.3l-1.9-11.2c0,0-1.9,19.8-9.3,14.5c-7.5-5.3,0-45.9,0-45.9
		c-9,21.6-6,48.5-6,48.5c-17.5,8.6-25.4,20.5-25.4,20.5c-3.3-10-1.5-31.6,0.8-49.1c-2.2,5.6-3.8,11.8-4.5,18.8
		c-5.7,57.7,1.8,44.2,1.8,44.2s11-38.7,93.6-39C333.9,130.6,339.8,169.3,339.8,169.3z"/>
	<g>
		<path class="st14" d="M123.1,436.5c0,0.1,0,0.1,0,0.1S123.1,436.6,123.1,436.5z"/>
		<path class="st14" d="M333.4,347.4c-1.7-1.3-44.3-17.3-44.3-17.3c-4.8,7.2-20.8,20.5-41.3,20.5c-20.6,0-36.6-13.3-41.3-20.5
			c0,0-42.6,15.9-44.3,17.3c-1.7,1.3-37.7,85.8-39.1,89.2c0.2-0.4,1.4-2,7.1-1.7c6.6,0.3,34.5,12.5,32,22.9l9.5-22.1l6,63.9h140.2
			l6-63.9l9.5,22.1c-2.5-10.4,25.3-22.6,32-22.9c5.7-0.2,6.9,1.3,7.1,1.7C371.1,433.2,335,348.7,333.4,347.4z"/>
		<path class="st14" d="M372.5,436.5c0,0.1,0,0.1,0,0.1S372.5,436.6,372.5,436.5z"/>
	</g>
	<g>
		<g>
			<path class="st15" d="M134,411c0,1,0.8,1.9,1.9,1.9c1,0,1.9-0.8,1.9-1.9c0-1-0.8-1.9-1.9-1.9c-0.5,0-1,0.2-1.3,0.5
				C134.4,410.1,134.2,410.6,134,411C134,411,134,411,134,411z"/>
			<path class="st15" d="M135.9,426.2c-1,0-1.9,0.8-1.9,1.9s0.8,1.9,1.9,1.9s1.9-0.8,1.9-1.9S136.9,426.2,135.9,426.2z"/>
			<path class="st15" d="M152.6,370.2c1,0,1.9-0.8,1.9-1.9c0-0.8-0.5-1.5-1.2-1.7c-0.5,1.1-1,2.3-1.5,3.4
				C152,370.2,152.3,370.2,152.6,370.2z"/>
			<path class="st15" d="M152.6,383.5c-1,0-1.9,0.8-1.9,1.9c0,1,0.8,1.9,1.9,1.9c1,0,1.9-0.8,1.9-1.9
				C154.5,384.4,153.6,383.5,152.6,383.5z"/>
			<path class="st15" d="M152.6,400.6c-1,0-1.9,0.8-1.9,1.9s0.8,1.9,1.9,1.9c1,0,1.9-0.8,1.9-1.9S153.6,400.6,152.6,400.6z"/>
			<path class="st15" d="M152.6,417.7c-1,0-1.9,0.8-1.9,1.9c0,1,0.8,1.9,1.9,1.9c1,0,1.9-0.8,1.9-1.9
				C154.5,418.5,153.6,417.7,152.6,417.7z"/>
			<path class="st15" d="M152.6,434.7c-1,0-1.9,0.8-1.9,1.9s0.8,1.9,1.9,1.9c1,0,1.9-0.8,1.9-1.9S153.6,434.7,152.6,434.7z"/>
			<path class="st15" d="M168.7,344.6c0.2,0.1,0.4,0.1,0.6,0.1c0.7,0,1.3-0.4,1.6-1C170.1,344,169.4,344.3,168.7,344.6z"/>
			<path class="st15" d="M169.2,358c-1,0-1.9,0.8-1.9,1.9c0,1,0.8,1.9,1.9,1.9c1,0,1.9-0.8,1.9-1.9C171.1,358.8,170.3,358,169.2,358
				z"/>
			<path class="st15" d="M169.2,375c-1,0-1.9,0.8-1.9,1.9c0,1,0.8,1.9,1.9,1.9c1,0,1.9-0.8,1.9-1.9C171.1,375.9,170.3,375,169.2,375
				z"/>
			<path class="st15" d="M169.2,392.1c-1,0-1.9,0.8-1.9,1.9c0,1,0.8,1.9,1.9,1.9c1,0,1.9-0.8,1.9-1.9
				C171.1,392.9,170.3,392.1,169.2,392.1z"/>
			<path class="st15" d="M169.2,409.2c-1,0-1.9,0.8-1.9,1.9c0,1,0.8,1.9,1.9,1.9c1,0,1.9-0.8,1.9-1.9
				C171.1,410,170.3,409.2,169.2,409.2z"/>
			<circle class="st15" cx="169.2" cy="428.1" r="1.9"/>
			<path class="st15" d="M167.4,445.1c0,0.1,0,0.3,0,0.4l0.9-2C167.7,443.9,167.4,444.4,167.4,445.1z"/>
			<path class="st15" d="M185.9,349.4c-1,0-1.9,0.8-1.9,1.9c0,1,0.8,1.9,1.9,1.9c1,0,1.9-0.8,1.9-1.9
				C187.8,350.3,187,349.4,185.9,349.4z"/>
			<path class="st15" d="M185.9,366.5c-1,0-1.9,0.8-1.9,1.9c0,1,0.8,1.9,1.9,1.9c1,0,1.9-0.8,1.9-1.9
				C187.8,367.3,187,366.5,185.9,366.5z"/>
			<path class="st15" d="M185.9,383.5c-1,0-1.9,0.8-1.9,1.9c0,1,0.8,1.9,1.9,1.9c1,0,1.9-0.8,1.9-1.9
				C187.8,384.4,187,383.5,185.9,383.5z"/>
			<path class="st15" d="M185.9,400.6c-1,0-1.9,0.8-1.9,1.9s0.8,1.9,1.9,1.9c1,0,1.9-0.8,1.9-1.9S187,400.6,185.9,400.6z"/>
			<circle class="st15" cx="185.9" cy="419.6" r="1.9"/>
			<path class="st15" d="M185.9,434.7c-1,0-1.9,0.8-1.9,1.9s0.8,1.9,1.9,1.9c1,0,1.9-0.8,1.9-1.9S187,434.7,185.9,434.7z"/>
			<path class="st15" d="M185.9,451.8c-1,0-1.9,0.8-1.9,1.9c0,1,0.8,1.9,1.9,1.9c1,0,1.9-0.8,1.9-1.9
				C187.8,452.6,187,451.8,185.9,451.8z"/>
			<path class="st15" d="M185.9,468.9c-1,0-1.9,0.8-1.9,1.9c0,1,0.8,1.9,1.9,1.9c1,0,1.9-0.8,1.9-1.9
				C187.8,469.7,187,468.9,185.9,468.9z"/>
			<path class="st15" d="M185.9,485.9c-1,0-1.9,0.8-1.9,1.9s0.8,1.9,1.9,1.9c1,0,1.9-0.8,1.9-1.9S187,485.9,185.9,485.9z"/>
			<path class="st15" d="M202.6,340.9c-1,0-1.9,0.8-1.9,1.9c0,1,0.8,1.9,1.9,1.9c1,0,1.9-0.8,1.9-1.9
				C204.5,341.7,203.6,340.9,202.6,340.9z"/>
			<path class="st15" d="M202.6,358c-1,0-1.9,0.8-1.9,1.9c0,1,0.8,1.9,1.9,1.9c1,0,1.9-0.8,1.9-1.9C204.5,358.8,203.6,358,202.6,358
				z"/>
			<path class="st15" d="M202.6,375c-1,0-1.9,0.8-1.9,1.9c0,1,0.8,1.9,1.9,1.9c1,0,1.9-0.8,1.9-1.9C204.5,375.9,203.6,375,202.6,375
				z"/>
			<path class="st15" d="M202.6,392.1c-1,0-1.9,0.8-1.9,1.9c0,1,0.8,1.9,1.9,1.9c1,0,1.9-0.8,1.9-1.9
				C204.5,392.9,203.6,392.1,202.6,392.1z"/>
			<path class="st15" d="M202.6,409.2c-1,0-1.9,0.8-1.9,1.9c0,1,0.8,1.9,1.9,1.9c1,0,1.9-0.8,1.9-1.9
				C204.5,410,203.6,409.2,202.6,409.2z"/>
			<path class="st15" d="M202.6,426.2c-1,0-1.9,0.8-1.9,1.9s0.8,1.9,1.9,1.9c1,0,1.9-0.8,1.9-1.9S203.6,426.2,202.6,426.2z"/>
			<path class="st15" d="M202.6,443.3c-1,0-1.9,0.8-1.9,1.9c0,1,0.8,1.9,1.9,1.9c1,0,1.9-0.8,1.9-1.9
				C204.5,444.1,203.6,443.3,202.6,443.3z"/>
			<path class="st15" d="M202.6,460.3c-1,0-1.9,0.8-1.9,1.9c0,1,0.8,1.9,1.9,1.9c1,0,1.9-0.8,1.9-1.9
				C204.5,461.2,203.6,460.3,202.6,460.3z"/>
			<path class="st15" d="M202.6,477.4c-1,0-1.9,0.8-1.9,1.9s0.8,1.9,1.9,1.9c1,0,1.9-0.8,1.9-1.9S203.6,477.4,202.6,477.4z"/>
			<path class="st15" d="M202.6,494.5c-1,0-1.9,0.8-1.9,1.9s0.8,1.9,1.9,1.9c1,0,1.9-0.8,1.9-1.9S203.6,494.5,202.6,494.5z"/>
			<path class="st15" d="M219.2,366.5c-1,0-1.9,0.8-1.9,1.9c0,1,0.8,1.9,1.9,1.9c1,0,1.9-0.8,1.9-1.9
				C221.1,367.3,220.3,366.5,219.2,366.5z"/>
			<path class="st15" d="M219.2,383.5c-1,0-1.9,0.8-1.9,1.9c0,1,0.8,1.9,1.9,1.9c1,0,1.9-0.8,1.9-1.9
				C221.1,384.4,220.3,383.5,219.2,383.5z"/>
			<path class="st15" d="M219.2,400.6c-1,0-1.9,0.8-1.9,1.9s0.8,1.9,1.9,1.9c1,0,1.9-0.8,1.9-1.9S220.3,400.6,219.2,400.6z"/>
			<path class="st15" d="M219.2,417.7c-1,0-1.9,0.8-1.9,1.9c0,1,0.8,1.9,1.9,1.9c1,0,1.9-0.8,1.9-1.9
				C221.1,418.5,220.3,417.7,219.2,417.7z"/>
			<path class="st15" d="M219.2,434.7c-1,0-1.9,0.8-1.9,1.9s0.8,1.9,1.9,1.9c1,0,1.9-0.8,1.9-1.9S220.3,434.7,219.2,434.7z"/>
			<path class="st15" d="M219.2,451.8c-1,0-1.9,0.8-1.9,1.9c0,1,0.8,1.9,1.9,1.9c1,0,1.9-0.8,1.9-1.9
				C221.1,452.6,220.3,451.8,219.2,451.8z"/>
			<path class="st15" d="M219.2,468.9c-1,0-1.9,0.8-1.9,1.9c0,1,0.8,1.9,1.9,1.9c1,0,1.9-0.8,1.9-1.9
				C221.1,469.7,220.3,468.9,219.2,468.9z"/>
			<path class="st15" d="M219.2,485.9c-1,0-1.9,0.8-1.9,1.9s0.8,1.9,1.9,1.9c1,0,1.9-0.8,1.9-1.9S220.3,485.9,219.2,485.9z"/>
			<path class="st15" d="M235.9,375c-1,0-1.9,0.8-1.9,1.9c0,1,0.8,1.9,1.9,1.9c1,0,1.9-0.8,1.9-1.9C237.8,375.9,237,375,235.9,375z"
				/>
			<path class="st15" d="M235.9,392.1c-1,0-1.9,0.8-1.9,1.9c0,1,0.8,1.9,1.9,1.9c1,0,1.9-0.8,1.9-1.9
				C237.8,392.9,237,392.1,235.9,392.1z"/>
			<path class="st15" d="M235.9,409.2c-1,0-1.9,0.8-1.9,1.9c0,1,0.8,1.9,1.9,1.9c1,0,1.9-0.8,1.9-1.9
				C237.8,410,237,409.2,235.9,409.2z"/>
			<path class="st15" d="M235.9,426.2c-1,0-1.9,0.8-1.9,1.9s0.8,1.9,1.9,1.9c1,0,1.9-0.8,1.9-1.9S237,426.2,235.9,426.2z"/>
			<path class="st15" d="M235.9,443.3c-1,0-1.9,0.8-1.9,1.9c0,1,0.8,1.9,1.9,1.9c1,0,1.9-0.8,1.9-1.9
				C237.8,444.1,237,443.3,235.9,443.3z"/>
			<path class="st15" d="M235.9,460.3c-1,0-1.9,0.8-1.9,1.9c0,1,0.8,1.9,1.9,1.9c1,0,1.9-0.8,1.9-1.9
				C237.8,461.2,237,460.3,235.9,460.3z"/>
			<path class="st15" d="M235.9,477.4c-1,0-1.9,0.8-1.9,1.9s0.8,1.9,1.9,1.9c1,0,1.9-0.8,1.9-1.9S237,477.4,235.9,477.4z"/>
			<path class="st15" d="M235.9,494.5c-1,0-1.9,0.8-1.9,1.9s0.8,1.9,1.9,1.9c1,0,1.9-0.8,1.9-1.9S237,494.5,235.9,494.5z"/>
			<path class="st15" d="M252.6,366.5c-1,0-1.9,0.8-1.9,1.9c0,1,0.8,1.9,1.9,1.9c1,0,1.9-0.8,1.9-1.9
				C254.5,367.3,253.6,366.5,252.6,366.5z"/>
			<path class="st15" d="M252.6,383.5c-1,0-1.9,0.8-1.9,1.9c0,1,0.8,1.9,1.9,1.9c1,0,1.9-0.8,1.9-1.9
				C254.5,384.4,253.6,383.5,252.6,383.5z"/>
			<path class="st15" d="M252.6,400.6c-1,0-1.9,0.8-1.9,1.9s0.8,1.9,1.9,1.9c1,0,1.9-0.8,1.9-1.9S253.6,400.6,252.6,400.6z"/>
			<path class="st15" d="M252.6,417.7c-1,0-1.9,0.8-1.9,1.9c0,1,0.8,1.9,1.9,1.9c1,0,1.9-0.8,1.9-1.9
				C254.5,418.5,253.6,417.7,252.6,417.7z"/>
			<path class="st15" d="M252.6,434.7c-1,0-1.9,0.8-1.9,1.9s0.8,1.9,1.9,1.9c1,0,1.9-0.8,1.9-1.9S253.6,434.7,252.6,434.7z"/>
			<path class="st15" d="M252.6,451.8c-1,0-1.9,0.8-1.9,1.9c0,1,0.8,1.9,1.9,1.9c1,0,1.9-0.8,1.9-1.9
				C254.5,452.6,253.6,451.8,252.6,451.8z"/>
			<path class="st15" d="M252.6,468.9c-1,0-1.9,0.8-1.9,1.9c0,1,0.8,1.9,1.9,1.9c1,0,1.9-0.8,1.9-1.9
				C254.5,469.7,253.6,468.9,252.6,468.9z"/>
			<path class="st15" d="M252.6,485.9c-1,0-1.9,0.8-1.9,1.9s0.8,1.9,1.9,1.9c1,0,1.9-0.8,1.9-1.9S253.6,485.9,252.6,485.9z"/>
			<path class="st15" d="M269.3,358c-1,0-1.9,0.8-1.9,1.9c0,1,0.8,1.9,1.9,1.9c1,0,1.9-0.8,1.9-1.9C271.1,358.8,270.3,358,269.3,358
				z"/>
			<path class="st15" d="M269.3,375c-1,0-1.9,0.8-1.9,1.9c0,1,0.8,1.9,1.9,1.9c1,0,1.9-0.8,1.9-1.9C271.1,375.9,270.3,375,269.3,375
				z"/>
			<path class="st15" d="M269.3,392.1c-1,0-1.9,0.8-1.9,1.9c0,1,0.8,1.9,1.9,1.9c1,0,1.9-0.8,1.9-1.9
				C271.1,392.9,270.3,392.1,269.3,392.1z"/>
			<path class="st15" d="M269.3,409.2c-1,0-1.9,0.8-1.9,1.9c0,1,0.8,1.9,1.9,1.9c1,0,1.9-0.8,1.9-1.9
				C271.1,410,270.3,409.2,269.3,409.2z"/>
			<circle class="st15" cx="269.3" cy="428.1" r="1.9"/>
			<path class="st15" d="M269.3,443.3c-1,0-1.9,0.8-1.9,1.9c0,1,0.8,1.9,1.9,1.9c1,0,1.9-0.8,1.9-1.9
				C271.1,444.1,270.3,443.3,269.3,443.3z"/>
			<path class="st15" d="M269.3,460.3c-1,0-1.9,0.8-1.9,1.9c0,1,0.8,1.9,1.9,1.9c1,0,1.9-0.8,1.9-1.9
				C271.1,461.2,270.3,460.3,269.3,460.3z"/>
			<path class="st15" d="M269.3,477.4c-1,0-1.9,0.8-1.9,1.9s0.8,1.9,1.9,1.9c1,0,1.9-0.8,1.9-1.9S270.3,477.4,269.3,477.4z"/>
			<path class="st15" d="M269.3,494.5c-1,0-1.9,0.8-1.9,1.9s0.8,1.9,1.9,1.9c1,0,1.9-0.8,1.9-1.9S270.3,494.5,269.3,494.5z"/>
			<path class="st15" d="M285.9,349.4c-1,0-1.9,0.8-1.9,1.9c0,1,0.8,1.9,1.9,1.9c1,0,1.9-0.8,1.9-1.9
				C287.8,350.3,287,349.4,285.9,349.4z"/>
			<path class="st15" d="M285.9,366.5c-1,0-1.9,0.8-1.9,1.9c0,1,0.8,1.9,1.9,1.9c1,0,1.9-0.8,1.9-1.9
				C287.8,367.3,287,366.5,285.9,366.5z"/>
			<path class="st15" d="M285.9,383.5c-1,0-1.9,0.8-1.9,1.9c0,1,0.8,1.9,1.9,1.9c1,0,1.9-0.8,1.9-1.9
				C287.8,384.4,287,383.5,285.9,383.5z"/>
			<path class="st15" d="M285.9,400.6c-1,0-1.9,0.8-1.9,1.9s0.8,1.9,1.9,1.9c1,0,1.9-0.8,1.9-1.9S287,400.6,285.9,400.6z"/>
			<circle class="st15" cx="285.9" cy="419.6" r="1.9"/>
			<path class="st15" d="M285.9,434.7c-1,0-1.9,0.8-1.9,1.9s0.8,1.9,1.9,1.9c1,0,1.9-0.8,1.9-1.9S287,434.7,285.9,434.7z"/>
			<path class="st15" d="M285.9,451.8c-1,0-1.9,0.8-1.9,1.9c0,1,0.8,1.9,1.9,1.9c1,0,1.9-0.8,1.9-1.9
				C287.8,452.6,287,451.8,285.9,451.8z"/>
			<path class="st15" d="M285.9,468.9c-1,0-1.9,0.8-1.9,1.9c0,1,0.8,1.9,1.9,1.9c1,0,1.9-0.8,1.9-1.9
				C287.8,469.7,287,468.9,285.9,468.9z"/>
			<path class="st15" d="M285.9,485.9c-1,0-1.9,0.8-1.9,1.9s0.8,1.9,1.9,1.9c1,0,1.9-0.8,1.9-1.9S287,485.9,285.9,485.9z"/>
			<path class="st15" d="M302.6,340.9c-1,0-1.9,0.8-1.9,1.9c0,1,0.8,1.9,1.9,1.9c1,0,1.9-0.8,1.9-1.9
				C304.5,341.7,303.6,340.9,302.6,340.9z"/>
			<path class="st15" d="M302.6,358c-1,0-1.9,0.8-1.9,1.9c0,1,0.8,1.9,1.9,1.9c1,0,1.9-0.8,1.9-1.9C304.5,358.8,303.6,358,302.6,358
				z"/>
			<path class="st15" d="M302.6,375c-1,0-1.9,0.8-1.9,1.9c0,1,0.8,1.9,1.9,1.9c1,0,1.9-0.8,1.9-1.9C304.5,375.9,303.6,375,302.6,375
				z"/>
			<path class="st15" d="M302.6,392.1c-1,0-1.9,0.8-1.9,1.9c0,1,0.8,1.9,1.9,1.9c1,0,1.9-0.8,1.9-1.9
				C304.5,392.9,303.6,392.1,302.6,392.1z"/>
			<path class="st15" d="M302.6,409.2c-1,0-1.9,0.8-1.9,1.9c0,1,0.8,1.9,1.9,1.9c1,0,1.9-0.8,1.9-1.9
				C304.5,410,303.6,409.2,302.6,409.2z"/>
			<path class="st15" d="M302.6,426.2c-1,0-1.9,0.8-1.9,1.9s0.8,1.9,1.9,1.9c1,0,1.9-0.8,1.9-1.9S303.6,426.2,302.6,426.2z"/>
			<path class="st15" d="M302.6,443.3c-1,0-1.9,0.8-1.9,1.9c0,1,0.8,1.9,1.9,1.9c1,0,1.9-0.8,1.9-1.9
				C304.5,444.1,303.6,443.3,302.6,443.3z"/>
			<path class="st15" d="M302.6,460.3c-1,0-1.9,0.8-1.9,1.9c0,1,0.8,1.9,1.9,1.9c1,0,1.9-0.8,1.9-1.9
				C304.5,461.2,303.6,460.3,302.6,460.3z"/>
			<path class="st15" d="M302.6,477.4c-1,0-1.9,0.8-1.9,1.9s0.8,1.9,1.9,1.9c1,0,1.9-0.8,1.9-1.9S303.6,477.4,302.6,477.4z"/>
			<path class="st15" d="M302.6,494.5c-1,0-1.9,0.8-1.9,1.9s0.8,1.9,1.9,1.9c1,0,1.9-0.8,1.9-1.9S303.6,494.5,302.6,494.5z"/>
			<path class="st15" d="M319.3,349.4c-1,0-1.9,0.8-1.9,1.9c0,1,0.8,1.9,1.9,1.9s1.9-0.8,1.9-1.9
				C321.1,350.3,320.3,349.4,319.3,349.4z"/>
			<path class="st15" d="M319.3,366.5c-1,0-1.9,0.8-1.9,1.9c0,1,0.8,1.9,1.9,1.9s1.9-0.8,1.9-1.9
				C321.1,367.3,320.3,366.5,319.3,366.5z"/>
			<path class="st15" d="M319.3,383.5c-1,0-1.9,0.8-1.9,1.9c0,1,0.8,1.9,1.9,1.9s1.9-0.8,1.9-1.9
				C321.1,384.4,320.3,383.5,319.3,383.5z"/>
			<path class="st15" d="M319.3,400.6c-1,0-1.9,0.8-1.9,1.9s0.8,1.9,1.9,1.9s1.9-0.8,1.9-1.9S320.3,400.6,319.3,400.6z"/>
			<path class="st15" d="M319.3,417.7c-1,0-1.9,0.8-1.9,1.9c0,1,0.8,1.9,1.9,1.9s1.9-0.8,1.9-1.9
				C321.1,418.5,320.3,417.7,319.3,417.7z"/>
			<path class="st15" d="M319.3,434.7c-1,0-1.9,0.8-1.9,1.9s0.8,1.9,1.9,1.9s1.9-0.8,1.9-1.9S320.3,434.7,319.3,434.7z"/>
			<path class="st15" d="M319.3,451.8c-1,0-1.9,0.8-1.9,1.9c0,1,0.8,1.9,1.9,1.9s1.9-0.8,1.9-1.9
				C321.1,452.6,320.3,451.8,319.3,451.8z"/>
			<path class="st15" d="M319.3,468.9c-1,0-1.9,0.8-1.9,1.9c0,1,0.8,1.9,1.9,1.9c0.5,0,0.9-0.2,1.2-0.5l0.2-2.6
				C320.4,469.1,319.8,468.9,319.3,468.9z"/>
			<path class="st15" d="M317.4,487.8c0,0.9,0.6,1.6,1.5,1.8l0.3-3.7C318.2,486,317.4,486.8,317.4,487.8z"/>
			<path class="st15" d="M335.9,358c-1,0-1.9,0.8-1.9,1.9c0,1,0.8,1.9,1.9,1.9s1.9-0.8,1.9-1.9C337.8,358.8,337,358,335.9,358z"/>
			<path class="st15" d="M335.9,375c-1,0-1.9,0.8-1.9,1.9c0,1,0.8,1.9,1.9,1.9s1.9-0.8,1.9-1.9C337.8,375.9,337,375,335.9,375z"/>
			<path class="st15" d="M335.9,392.1c-1,0-1.9,0.8-1.9,1.9c0,1,0.8,1.9,1.9,1.9s1.9-0.8,1.9-1.9C337.8,392.9,337,392.1,335.9,392.1
				z"/>
			<path class="st15" d="M335.9,409.2c-1,0-1.9,0.8-1.9,1.9c0,1,0.8,1.9,1.9,1.9s1.9-0.8,1.9-1.9C337.8,410,337,409.2,335.9,409.2z"
				/>
			<path class="st15" d="M335.9,426.2c-1,0-1.9,0.8-1.9,1.9s0.8,1.9,1.9,1.9s1.9-0.8,1.9-1.9S337,426.2,335.9,426.2z"/>
			<path class="st15" d="M335.9,443.3c-1,0-1.9,0.8-1.9,1.9c0,1,0.8,1.9,1.9,1.9s1.9-0.8,1.9-1.9C337.8,444.1,337,443.3,335.9,443.3
				z"/>
			<path class="st15" d="M352.6,400.6c-1,0-1.9,0.8-1.9,1.9s0.8,1.9,1.9,1.9c1,0,1.9-0.8,1.9-1.9S353.6,400.6,352.6,400.6z"/>
			<path class="st15" d="M352.6,417.7c-1,0-1.9,0.8-1.9,1.9c0,1,0.8,1.9,1.9,1.9c1,0,1.9-0.8,1.9-1.9
				C354.5,418.5,353.6,417.7,352.6,417.7z"/>
			<path class="st15" d="M352.6,434.7c-1,0-1.9,0.8-1.9,1.9s0.8,1.9,1.9,1.9c1,0,1.9-0.8,1.9-1.9S353.6,434.7,352.6,434.7z"/>
			<path class="st15" d="M368.1,426.5c-0.5,0.3-0.8,0.9-0.8,1.6c0,1,0.8,1.9,1.9,1.9c0.1,0,0.3,0,0.4,0
				C369.1,428.9,368.6,427.8,368.1,426.5z"/>
		</g>
		<path class="st15" d="M217.4,351.3c0,1,0.9,1.8,1.9,1.8c0.3,0,0.6-0.1,0.9-0.2L217.4,351.3z"/>
		<path class="st15" d="M234.5,358.6c-0.3,0.3-0.4,0.7-0.4,1.2c0,1,0.8,1.9,1.9,1.9c1,0,1.9-0.8,1.9-1.9c0-0.2,0-0.3-0.1-0.5
			L234.5,358.6z"/>
	</g>
	<path class="st16" d="M196.9,333.7c8.3,9.6,26.2,26.5,49.8,26.5c25.3,0,44.2-14.5,53.2-26.1"/>
</g>
<g id="Layer_3">
</g>
<g id="BEELD">
</g>
<g id="Layer_7" class="st17">
	<line class="st18" x1="-394.5" y1="572.2" x2="-394.5" y2="1602.8"/>
</g>
<g id="Layer_8">
</g>
</svg>
