<?xml version="1.0" encoding="utf-8"?>
<!-- Generator: Adobe Illustrator 24.3.0, SVG Export Plug-In . SVG Version: 6.00 Build 0)  -->
<svg version="1.1" xmlns="http://www.w3.org/2000/svg" xmlns:xlink="http://www.w3.org/1999/xlink" x="0px" y="0px"
	 viewBox="0 0 500 500" style="enable-background:new 0 0 500 500;" xml:space="preserve">
<style type="text/css">
	.st0{fill:url(#SVGID_1_);}
	.st1{fill:#CC92B0;}
	.st2{fill:#F4E6ED;}
	.st3{fill:#FFFFFF;}
	.st4{fill:#DDB6CC;}
	.st5{fill:#E0B3C8;}
	.st6{fill:#D1AABF;}
	.st7{fill:#FFF3F9;}
	.st8{fill:#BE9BA9;}
	.st9{fill:#FEDEC8;}
	.st10{fill:#CD9881;}
	.st11{fill:#E4C8B6;}
	.st12{fill:#A5693C;}
	.st13{fill:#2A1D01;}
	.st14{fill:#D3D5D6;}
	.st15{fill:#E8E8E8;}
	.st16{fill:#C2C4C6;}
	.st17{display:none;}
	.st18{display:inline;fill:none;stroke:#231F20;stroke-width:0.5;stroke-miterlimit:10;}
</style>
<g id="Layer_5">
</g>
<g id="Layer_2">
</g>
<g id="Layer_4">
</g>
<g id="Layer_1">
	<linearGradient id="SVGID_1_" gradientUnits="userSpaceOnUse" x1="247.8886" y1="500.1321" x2="247.8886" y2="270.9756">
		<stop  offset="0" style="stop-color:#FEDEC8"/>
		<stop  offset="1" style="stop-color:#EACDBA"/>
	</linearGradient>
	<path class="st0" d="M337.3,362.8c0,0-2.8-13.5-24.6-20.8c-21.8-7.3-38.5-14.7-38.5-30.2c0-15.5,0-40.9,0-40.9h-26.4h-26.4
		c0,0,0,25.3,0,40.9c0,15.5-16.6,22.9-38.5,30.2c-21.8,7.3-24.6,20.8-24.6,20.8L78.2,500.1h37.8l55.7-78.2l14.7,78.2h61.4h61.4
		l14.7-78.2l55.7,78.2h37.8L337.3,362.8z"/>
	<path class="st1" d="M340.7,364.6c0,0-1.4-13.6-15.6-20.5c-14.2-6.9-31.3-9.7-31.3-9.7s-3.6,36.3-46.7,36.4
		c-43.1-0.1-46.7-36.4-46.7-36.4s-17.1,2.7-31.3,9.7c-14.2,6.9-15.6,20.5-15.6,20.5c-36.8,50.8-77.1,135.5-77.1,135.5h42l52-70.6
		l13.9,70.6h61.2h3.1h61.2l13.9-70.6l52,70.6h42C417.8,500.1,377.5,415.4,340.7,364.6z"/>
	<g>
		<circle class="st2" cx="216.5" cy="326.6" r="4.9"/>
		<circle class="st3" cx="215.7" cy="324.3" r="1.3"/>
	</g>
	<g>
		<circle class="st2" cx="224.6" cy="332.3" r="4.9"/>
		<circle class="st3" cx="223.8" cy="329.9" r="1.3"/>
	</g>
	<g>
		<circle class="st2" cx="233.8" cy="336" r="4.9"/>
		<circle class="st3" cx="232.9" cy="333.8" r="1.3"/>
	</g>
	<g>
		<circle class="st2" cx="253.4" cy="337.3" r="4.9"/>
		<circle class="st3" cx="252.6" cy="335.2" r="1.3"/>
	</g>
	<g>
		<circle class="st2" cx="243.6" cy="337.4" r="4.9"/>
		<circle class="st3" cx="243.1" cy="334.8" r="1.3"/>
	</g>
	<g>
		<circle class="st2" cx="263.2" cy="335.9" r="4.9"/>
		<circle class="st3" cx="262.4" cy="333.8" r="1.3"/>
	</g>
	<g>
		<circle class="st2" cx="272.4" cy="332.3" r="4.9"/>
		<circle class="st3" cx="271.5" cy="330.1" r="1.3"/>
	</g>
	<g>
		<circle class="st2" cx="280.3" cy="326.6" r="4.9"/>
		<circle class="st3" cx="279.5" cy="324.5" r="1.3"/>
	</g>
	<g>
		<g>
			<path class="st4" d="M192.4,375.4c-1.3,0-2.8,0.2-4.1,0.5c0.8-0.7,1.6-1.5,2.3-2.3c2.1-2.5,1.7-3.7,0.7-4.5
				c-1-0.9-2.2-1.1-4.4,1.4c-0.6,0.7-1.2,1.6-1.8,2.4c-0.1-1.1-0.2-2.3-0.5-3.2c-0.7-3.2-1.9-3.6-3.2-3.3c-1.3,0.3-2.2,1.2-1.4,4.4
				c0.2,1.1,0.6,2.2,1.1,3.3c-0.9-0.6-2-1.2-2.9-1.7c-3-1.3-4-0.6-4.5,0.6c-0.5,1.2-0.4,2.4,2.6,3.8c0.9,0.4,2.1,0.8,3.2,1.1
				c-1.1,0.3-2.2,0.8-3.1,1.2c-2.9,1.4-3,2.7-2.4,3.9c0.6,1.2,1.6,1.9,4.6,0.4c0.9-0.4,1.8-1,2.7-1.7c-0.4,1-0.7,2.1-0.8,3.1
				c-0.6,3.2,0.4,4,1.7,4.3c1.3,0.2,2.5-0.2,3-3.4c0.2-1.1,0.3-2.4,0.3-3.7c0.7,1.1,1.4,2.1,2.2,2.9c2.2,2.4,3.4,2.2,4.4,1.3
				c1-0.9,1.3-2.1-0.9-4.5c-0.6-0.7-1.3-1.3-2.1-2c1.2,0.2,2.4,0.3,3.5,0.3c3.3-0.1,3.9-1.1,3.9-2.5
				C196.3,376.4,195.6,375.3,192.4,375.4z M184.8,379.3c-1.1,0.3-2.2-0.4-2.5-1.5c-0.3-1.1,0.4-2.2,1.5-2.5c1.1-0.3,2.2,0.4,2.5,1.5
				C186.6,378,185.9,379.1,184.8,379.3z"/>
			<path class="st4" d="M200.8,407.5c-1.4,0-3.1,0.2-4.6,0.6c0.9-0.8,1.8-1.7,2.5-2.5c2.4-2.8,1.9-4.1,0.8-5.1
				c-1.1-1-2.5-1.2-4.9,1.6c-0.7,0.8-1.4,1.7-2,2.7c-0.1-1.2-0.3-2.5-0.5-3.6c-0.8-3.6-2.2-4-3.6-3.6c-1.4,0.3-2.4,1.3-1.6,4.9
				c0.3,1.2,0.7,2.5,1.2,3.7c-1.1-0.7-2.2-1.4-3.3-1.9c-3.3-1.5-4.5-0.7-5.1,0.6c-0.6,1.3-0.4,2.7,2.9,4.2c1.1,0.5,2.3,0.9,3.5,1.2
				c-1.2,0.4-2.5,0.8-3.5,1.4c-3.3,1.6-3.4,3-2.7,4.3c0.7,1.3,1.8,2.1,5.1,0.5c1-0.5,2.1-1.1,3.1-1.9c-0.4,1.2-0.7,2.4-0.9,3.5
				c-0.6,3.6,0.4,4.5,1.9,4.8c1.5,0.3,2.8-0.2,3.4-3.8c0.2-1.2,0.3-2.7,0.3-4.1c0.7,1.2,1.6,2.3,2.5,3.3c2.5,2.7,3.8,2.4,4.9,1.4
				c1.1-1,1.5-2.3-1-5c-0.7-0.7-1.5-1.5-2.3-2.2c1.3,0.2,2.7,0.3,3.9,0.3c3.6-0.1,4.3-1.3,4.3-2.7
				C205.2,408.6,204.5,407.5,200.8,407.5z M192.4,412c-1.2,0.3-2.5-0.5-2.8-1.7s0.5-2.5,1.7-2.8c1.2-0.3,2.5,0.5,2.8,1.7
				C194.4,410.4,193.6,411.7,192.4,412z"/>
			<path class="st4" d="M202.8,437.6c-0.7,0.7-1.4,1.5-2,2.3c0.1-0.8,0.1-1.6,0.1-2.4c-0.1-2.4-0.9-2.8-1.9-2.8c-1,0-1.7,0.6-1.6,3
				c0,0.7,0.1,1.5,0.3,2.2c-0.6-0.6-1.3-1.1-1.9-1.5c-2-1.3-2.8-1-3.4-0.1c-0.5,0.8-0.6,1.7,1.4,3.1c0.7,0.4,1.5,0.9,2.3,1.2
				c-0.8,0.1-1.7,0.3-2.4,0.6c-2.3,0.8-2.5,1.7-2.2,2.6c0.3,0.9,1,1.5,3.3,0.7c0.7-0.2,1.5-0.6,2.3-1c-0.4,0.7-0.8,1.5-1.1,2.2
				c-0.9,2.3-0.3,3,0.6,3.3c0.9,0.3,1.8,0.2,2.7-2.1c0.3-0.7,0.5-1.5,0.6-2.3c0.3,0.7,0.7,1.5,1.1,2.1c1.3,2,2.2,2,3,1.5
				c0.8-0.5,1.2-1.4-0.1-3.4c-0.5-0.7-1.1-1.5-1.7-2.1c0.9,0.2,1.8,0.4,2.7,0.5c2.4,0.2,2.9-0.5,3-1.5c0.1-1-0.3-1.8-2.7-2
				c-0.7-0.1-1.4-0.1-2.1,0c0.7-0.5,1.5-1.1,2-1.6c1.7-1.7,1.5-2.6,0.9-3.3C205.5,436.2,204.6,435.9,202.8,437.6z M200.8,443.5
				c-0.5,0.7-1.4,0.9-2.1,0.4c-0.7-0.5-0.9-1.4-0.4-2.1c0.5-0.7,1.4-0.9,2.1-0.4C201,441.9,201.2,442.8,200.8,443.5z"/>
			<path class="st4" d="M215.1,472.7c-1.3,0-2.8,0.2-4.1,0.5c0.8-0.7,1.6-1.5,2.3-2.3c2.1-2.5,1.7-3.7,0.7-4.5
				c-1-0.9-2.2-1.1-4.4,1.4c-0.6,0.7-1.2,1.6-1.8,2.4c-0.1-1.1-0.2-2.3-0.5-3.2c-0.7-3.2-1.9-3.6-3.2-3.3c-1.3,0.3-2.2,1.2-1.4,4.4
				c0.2,1.1,0.6,2.2,1.1,3.3c-0.9-0.6-2-1.2-2.9-1.7c-3-1.3-4-0.6-4.5,0.6c-0.5,1.2-0.4,2.4,2.6,3.8c0.9,0.4,2.1,0.8,3.2,1.1
				c-1.1,0.3-2.2,0.8-3.1,1.2c-2.9,1.4-3,2.7-2.4,3.9c0.6,1.2,1.6,1.9,4.6,0.4c0.9-0.4,1.8-1,2.7-1.7c-0.4,1-0.7,2.1-0.8,3.1
				c-0.6,3.2,0.4,4,1.7,4.3c1.3,0.2,2.5-0.2,3-3.4c0.2-1.1,0.3-2.4,0.3-3.7c0.7,1.1,1.4,2.1,2.2,2.9c2.2,2.4,3.4,2.2,4.4,1.3
				c1-0.9,1.3-2.1-0.9-4.5c-0.6-0.7-1.3-1.3-2.1-2c1.2,0.2,2.4,0.3,3.5,0.3c3.3-0.1,3.9-1.1,3.9-2.5
				C219,473.7,218.4,472.6,215.1,472.7z M207.6,476.7c-1.1,0.3-2.2-0.4-2.5-1.5c-0.3-1.1,0.4-2.2,1.5-2.5c1.1-0.3,2.2,0.4,2.5,1.5
				C209.4,475.3,208.7,476.4,207.6,476.7z"/>
			<path class="st4" d="M227.4,389.6c-1,0-2.2,0.2-3.2,0.4c0.7-0.6,1.3-1.2,1.8-1.8c1.7-1.9,1.3-2.9,0.6-3.5
				c-0.8-0.7-1.8-0.8-3.4,1.1c-0.5,0.6-1,1.2-1.4,1.9c-0.1-0.9-0.2-1.8-0.4-2.5c-0.6-2.5-1.5-2.8-2.5-2.6c-1,0.2-1.7,0.9-1.1,3.4
				c0.2,0.8,0.5,1.7,0.9,2.6c-0.7-0.5-1.5-1-2.3-1.3c-2.3-1.1-3.1-0.5-3.6,0.4c-0.4,0.9-0.3,1.9,2,3c0.7,0.3,1.6,0.6,2.5,0.9
				c-0.9,0.3-1.7,0.6-2.5,1c-2.3,1.1-2.4,2.1-1.9,3c0.5,0.9,1.3,1.5,3.6,0.3c0.7-0.3,1.4-0.8,2.1-1.3c-0.3,0.8-0.5,1.7-0.7,2.4
				c-0.5,2.5,0.3,3.2,1.3,3.3c1,0.2,1.9-0.2,2.4-2.7c0.2-0.9,0.2-1.9,0.2-2.9c0.5,0.8,1.1,1.6,1.7,2.3c1.7,1.9,2.7,1.7,3.4,1
				c0.8-0.7,1-1.6-0.7-3.5c-0.5-0.5-1-1-1.6-1.5c0.9,0.1,1.9,0.2,2.8,0.2c2.6,0,3-0.9,3-1.9C230.4,390.3,229.9,389.5,227.4,389.6z
				 M221.4,392.7c-0.9,0.2-1.7-0.3-1.9-1.2c-0.2-0.9,0.3-1.7,1.2-1.9c0.9-0.2,1.7,0.3,1.9,1.2C222.9,391.6,222.3,392.5,221.4,392.7z
				"/>
			<path class="st4" d="M238,421c-1.5,0-3.3,0.3-4.9,0.6c1-0.8,1.9-1.8,2.7-2.7c2.5-3,2-4.4,0.8-5.4c-1.2-1-2.7-1.3-5.2,1.7
				c-0.7,0.8-1.4,1.9-2.1,2.9c-0.1-1.3-0.3-2.7-0.6-3.9c-0.9-3.8-2.3-4.3-3.8-3.9c-1.5,0.4-2.6,1.4-1.7,5.2c0.3,1.3,0.8,2.7,1.3,4
				c-1.1-0.8-2.4-1.5-3.5-2c-3.6-1.6-4.8-0.8-5.4,0.7c-0.7,1.4-0.5,2.9,3.1,4.5c1.1,0.5,2.5,1,3.8,1.3c-1.3,0.4-2.6,0.9-3.8,1.5
				c-3.5,1.7-3.6,3.2-2.9,4.6c0.7,1.4,2,2.2,5.4,0.5c1.1-0.5,2.2-1.2,3.3-2c-0.4,1.2-0.8,2.6-1,3.7c-0.7,3.8,0.4,4.8,2,5.1
				c1.6,0.3,2.9-0.3,3.6-4.1c0.2-1.3,0.4-2.9,0.4-4.4c0.8,1.3,1.7,2.5,2.6,3.5c2.6,2.9,4.1,2.6,5.2,1.5c1.2-1.1,1.6-2.5-1-5.4
				c-0.7-0.8-1.6-1.6-2.5-2.3c1.4,0.2,2.9,0.3,4.2,0.3c3.9-0.1,4.6-1.4,4.6-2.9C242.7,422.2,241.9,420.9,238,421z M229,425.7
				c-1.3,0.3-2.7-0.5-3-1.8c-0.3-1.3,0.5-2.7,1.8-3s2.7,0.5,3,1.8C231.2,424.1,230.3,425.4,229,425.7z"/>
			<path class="st4" d="M238.5,455.5c-1,0-2.1,0.2-3.2,0.4c0.6-0.6,1.3-1.2,1.8-1.8c1.6-1.9,1.3-2.9,0.6-3.5
				c-0.8-0.7-1.7-0.8-3.4,1.1c-0.5,0.6-0.9,1.2-1.4,1.9c-0.1-0.9-0.2-1.8-0.4-2.5c-0.6-2.5-1.5-2.8-2.5-2.5c-1,0.2-1.7,0.9-1.1,3.4
				c0.2,0.8,0.5,1.7,0.9,2.6c-0.7-0.5-1.5-1-2.3-1.3c-2.3-1.1-3.1-0.5-3.5,0.4c-0.4,0.9-0.3,1.9,2,3c0.7,0.3,1.6,0.6,2.5,0.9
				c-0.9,0.3-1.7,0.6-2.4,0.9c-2.3,1.1-2.4,2.1-1.9,3c0.5,0.9,1.3,1.4,3.6,0.3c0.7-0.3,1.4-0.8,2.1-1.3c-0.3,0.8-0.5,1.7-0.7,2.4
				c-0.5,2.5,0.3,3.1,1.3,3.3c1,0.2,1.9-0.2,2.4-2.7c0.2-0.9,0.2-1.9,0.2-2.8c0.5,0.8,1.1,1.6,1.7,2.3c1.7,1.9,2.7,1.7,3.4,1
				c0.8-0.7,1-1.6-0.7-3.5c-0.5-0.5-1-1-1.6-1.5c0.9,0.1,1.9,0.2,2.7,0.2c2.5,0,3-0.9,3-1.9C241.5,456.2,241,455.4,238.5,455.5z
				 M232.6,458.5c-0.9,0.2-1.7-0.3-1.9-1.2c-0.2-0.9,0.3-1.7,1.2-1.9c0.9-0.2,1.7,0.3,1.9,1.2C234,457.5,233.5,458.3,232.6,458.5z"
				/>
			<path class="st4" d="M251,488.7c0-1.6-0.8-2.9-4.8-2.8c-1.5,0-3.3,0.3-4.9,0.6c1-0.9,2-1.8,2.7-2.7c2.5-3,2.1-4.4,0.9-5.4
				c-1.2-1-2.7-1.3-5.2,1.7c-0.7,0.9-1.5,1.9-2.1,2.9c-0.1-1.3-0.3-2.7-0.6-3.9c-0.9-3.8-2.3-4.3-3.9-3.9s-2.6,1.4-1.7,5.2
				c0.3,1.3,0.8,2.7,1.3,4c-1.1-0.8-2.4-1.5-3.5-2c-3.6-1.6-4.8-0.8-5.5,0.7c-0.7,1.4-0.5,2.9,3.1,4.6c1.1,0.5,2.5,1,3.8,1.3
				c-1.3,0.4-2.7,0.9-3.8,1.5c-3.5,1.7-3.6,3.2-2.9,4.7c0.7,1.4,2,2.2,5.5,0.5c1.1-0.5,2.2-1.2,3.3-2c-0.4,1.3-0.8,2.6-1,3.8
				c-0.2,1.2-0.3,2.1-0.2,2.8h5.4c0.2-0.5,0.3-1.1,0.4-1.8c0.2-1.3,0.4-2.9,0.4-4.4c0.8,1.3,1.7,2.5,2.6,3.5
				c2.6,2.9,4.1,2.6,5.3,1.6c1.2-1.1,1.6-2.5-1-5.4c-0.7-0.8-1.6-1.6-2.5-2.4c1.4,0.2,2.9,0.3,4.2,0.3
				C250.3,491.6,251,490.3,251,488.7z M237.2,490.7c-1.3,0.3-2.7-0.5-3-1.9c-0.3-1.3,0.5-2.7,1.9-3c1.3-0.3,2.7,0.5,3,1.9
				C239.3,489.1,238.5,490.4,237.2,490.7z"/>
			<path class="st4" d="M183.1,465.4c-0.7-0.8-1.6-1.6-2.5-2.3c1.4,0.2,2.9,0.3,4.2,0.3c3.9-0.1,4.6-1.4,4.6-2.9
				c0-1.6-0.8-2.8-4.7-2.8c-1.5,0-3.3,0.3-4.9,0.6c1-0.8,1.9-1.8,2.7-2.7c2.5-3,2-4.4,0.8-5.4c-1.2-1-2.7-1.3-5.2,1.7
				c-0.7,0.8-1.4,1.9-2.1,2.9c-0.1-1.3-0.3-2.7-0.6-3.9c-0.4-1.7-0.9-2.8-1.5-3.4l2,10.1c0.7,0.3,1.3,0.9,1.5,1.7
				c0.2,0.9-0.1,1.8-0.7,2.4l1.3,6.5c0.2,0.3,0.5,0.6,0.7,0.9c2.6,2.9,4.1,2.6,5.2,1.5C185.3,469.7,185.7,468.2,183.1,465.4z"/>
			<path class="st4" d="M188.8,499.7c0.8-0.7,1-1.6-0.7-3.5c-0.5-0.5-1-1-1.6-1.5c0.9,0.1,1.9,0.2,2.7,0.2c2.5,0,3-0.9,3-1.9
				c0-1-0.5-1.8-3.1-1.8c-1,0-2.1,0.2-3.2,0.4c0.6-0.6,1.3-1.2,1.8-1.8c1.6-1.9,1.3-2.9,0.6-3.5c-0.8-0.7-1.7-0.8-3.4,1.1
				c-0.5,0.6-0.9,1.2-1.4,1.9c-0.1-0.9-0.2-1.8-0.4-2.5c-0.5-2-1.2-2.6-2-2.6l1.4,6.9c0.9-0.2,1.7,0.3,1.9,1.2
				c0.2,0.9-0.3,1.7-1.2,1.9c0,0-0.1,0-0.1,0l0.4,2.3c0,0,0-0.1,0-0.1c0.5,0.8,1.1,1.6,1.7,2.3c0.8,0.9,1.5,1.3,2,1.4h0.6
				C188.3,500.1,188.6,499.9,188.8,499.7z"/>
			<path class="st4" d="M128.5,409.8c1,1.2,2.4,1.6,5.3-1c1-0.9,2-2,2.9-3.2c-0.2,1.4-0.2,3-0.1,4.3c0.3,3.8,1.6,4.5,3.1,4.4
				c1.5-0.1,2.8-1,2.5-4.8c-0.1-1-0.3-2.2-0.5-3.3c1,1,2,2,3.1,2.8c3.1,2.3,4.4,1.8,5.4,0.5c0.9-1.2,1.1-2.7-2-5
				c-1.2-0.9-2.7-1.8-4.2-2.5c1.3-0.1,2.6-0.2,3.7-0.4c3.8-0.8,4.3-2.2,3.9-3.7c-0.3-1.5-1.3-2.6-5.1-1.8c-1.1,0.2-2.3,0.6-3.4,1
				c0.7-1.1,1.4-2.3,1.9-3.3c1.6-3.5,0.8-4.7-0.6-5.4s-2.9-0.5-4.5,3c-0.5,1.2-1,2.5-1.4,3.9c-0.4-1.3-0.9-2.6-1.5-3.7
				c-0.3-0.6-0.6-1-0.9-1.4c-1.1,1.8-2.2,3.6-3.4,5.4c0.4,0.7,0.9,1.3,1.3,2c-0.7-0.3-1.4-0.5-2.1-0.7c-1,1.7-2,3.3-3.1,5
				c0.1,0,0.1,0,0.2,0c1.1,0.2,2.5,0.4,3.7,0.5c-1.1,0.7-2.2,1.5-3.1,2.3C127.2,407.2,127.5,408.7,128.5,409.8z M137.2,399.6
				c0.6-1.2,2-1.8,3.2-1.2s1.8,2,1.2,3.2c-0.6,1.2-2,1.8-3.2,1.2C137.2,402.2,136.6,400.8,137.2,399.6z"/>
			<path class="st4" d="M121,434.1c-0.1-1-0.2-2.1-0.5-3.2c0.9,1,1.9,1.9,2.9,2.7c2.9,2.2,4.2,1.7,5.1,0.5c0.9-1.2,1-2.6-1.9-4.8
				c-1.1-0.9-2.6-1.7-4-2.4c1.2-0.1,2.5-0.2,3.6-0.4c3.6-0.7,4-2,3.7-3.5c-0.3-1.4-1.2-2.5-4.8-1.7c-1,0.2-2.1,0.5-3.2,0.9
				c0.7-1,1.3-2.1,1.8-3.2c1.5-3.3,0.8-4.5-0.6-5.1c-0.3-0.2-0.7-0.3-1-0.3c-4.2,7.2-8.3,14.4-12.1,21.4c0.8-0.1,1.7-0.7,2.9-1.7
				c0.9-0.8,1.9-1.9,2.8-3c-0.2,1.4-0.2,2.8-0.1,4.1c0.3,3.6,1.5,4.3,3,4.2C120.1,438.5,121.2,437.7,121,434.1z M117.3,427.6
				c-1.2-0.5-1.7-1.9-1.1-3.1c0.5-1.2,1.9-1.7,3.1-1.1c1.2,0.5,1.7,1.9,1.1,3.1S118.4,428.1,117.3,427.6z"/>
			<path class="st4" d="M101.4,454c-0.4-0.2-0.8-0.4-1.2-0.6c-0.5,1-1.1,2.1-1.6,3.1c0.6,0.2,1.2,0.3,1.8,0.4
				c-0.8,0.3-1.6,0.7-2.2,1.1c-0.2,0.1-0.4,0.3-0.6,0.4c-0.4,0.8-0.8,1.5-1.2,2.2c0,0.1,0.1,0.3,0.2,0.4c0.5,0.8,1.3,1.3,3.4,0
				c0.6-0.4,1.3-0.9,1.9-1.4c-0.2,0.8-0.4,1.6-0.4,2.3c-0.2,2.4,0.5,2.9,1.5,3c1,0.1,1.8-0.3,2-2.7c0.1-0.8,0.1-1.8,0-2.7
				c0.5,0.7,1.2,1.5,1.8,2c1.8,1.6,2.7,1.4,3.3,0.7c0.7-0.7,0.8-1.6-0.9-3.3c-0.5-0.4-1.1-0.9-1.7-1.3c0.9,0.1,1.8,0.1,2.6,0
				c2.4-0.2,2.8-1.1,2.7-2.1c-0.1-1-0.7-1.7-3.1-1.5c-0.9,0.1-2,0.3-3,0.6c0.6-0.6,1.1-1.2,1.5-1.8c1.4-2,1-2.8,0.2-3.4
				c-0.8-0.6-1.7-0.6-3.1,1.3c-0.4,0.6-0.8,1.2-1.1,1.9c-0.1-0.8-0.3-1.6-0.5-2.4c-0.3-0.9-0.6-1.5-1-1.9c-0.7,1.3-1.4,2.5-2,3.8
				C100.9,453,101.1,453.5,101.4,454z M103.4,454.7c0.8-0.3,1.7,0.2,1.9,1c0.3,0.8-0.2,1.7-1,1.9c-0.8,0.3-1.7-0.2-1.9-1
				C102.2,455.9,102.6,455,103.4,454.7z"/>
			<path class="st4" d="M85.9,483.4c-0.3-0.1-0.7-0.2-1-0.4c-0.7,1.5-1.5,2.9-2.1,4.2c0.7,0.1,1.4,0.2,2.1,0.2
				c-0.9,0.6-1.8,1.3-2.6,1.9c-0.6,0.5-1,0.9-1.3,1.4c-0.2,0.4-0.4,0.9-0.6,1.3c-0.1,0.7,0.1,1.3,0.6,1.7c0.9,1,2.1,1.4,4.5-0.8
				c0.8-0.8,1.7-1.7,2.5-2.7c-0.1,1.2-0.2,2.5-0.1,3.7c0.2,3.3,1.3,3.8,2.7,3.7s2.3-0.8,2.1-4.1c-0.1-0.9-0.2-1.9-0.4-2.8
				c0.8,0.9,1.7,1.7,2.6,2.4c2.6,2,3.8,1.5,4.6,0.5s0.9-2.3-1.7-4.3c-1-0.8-2.3-1.5-3.5-2.1c1.1,0,2.2-0.2,3.2-0.4
				c3.2-0.7,3.6-1.8,3.4-3.1c-0.3-1.3-1.1-2.2-4.3-1.6c-0.9,0.2-1.9,0.5-2.9,0.8c0.6-0.9,1.2-1.9,1.6-2.8c1.4-3,0.7-4-0.5-4.6
				c-1.2-0.6-2.4-0.4-3.8,2.5c-0.5,1-0.9,2.2-1.2,3.3c-0.4-1.1-0.8-2.2-1.3-3.1c-0.2-0.4-0.4-0.7-0.6-1c-0.9,1.8-1.7,3.4-2.5,5
				C85.4,482.8,85.6,483.1,85.9,483.4z M88.3,485.1c0.5-1,1.7-1.5,2.7-1s1.5,1.7,1,2.7s-1.7,1.5-2.7,1S87.8,486.2,88.3,485.1z"/>
			<path class="st4" d="M158.6,431.6c-0.8-0.6-1.8-1.2-2.8-1.7c0.9,0,1.7-0.1,2.5-0.3c2.5-0.5,2.8-1.4,2.6-2.4
				c-0.2-1-0.9-1.7-3.4-1.2c-0.7,0.1-1.5,0.4-2.3,0.7c0.5-0.7,0.9-1.5,1.3-2.2c1.1-2.3,0.5-3.1-0.4-3.6c-0.9-0.4-1.9-0.3-3,2
				c-0.4,0.8-0.7,1.7-0.9,2.6c-0.3-0.9-0.6-1.7-1-2.4c-1.2-2.3-2.2-2.3-3.1-1.9c-0.9,0.5-1.4,1.3-0.2,3.6c0.4,0.7,0.9,1.5,1.4,2.2
				c-0.8-0.3-1.7-0.6-2.5-0.8c-2.5-0.5-3.2,0.2-3.4,1.2c-0.2,1,0.1,1.9,2.6,2.5c0.8,0.2,1.6,0.3,2.5,0.3c-0.7,0.5-1.4,1-2,1.5
				c-1.9,1.7-1.7,2.7-1,3.4c0.7,0.8,1.6,1.1,3.5-0.6c0.7-0.6,1.4-1.3,1.9-2.1c-0.1,1-0.1,2-0.1,2.9c0.2,2.6,1.1,3,2.1,2.9
				c1-0.1,1.8-0.6,1.6-3.2c-0.1-0.7-0.2-1.5-0.3-2.2c0.6,0.7,1.4,1.4,2,1.9c2,1.5,2.9,1.2,3.6,0.4
				C160.5,434.1,160.7,433.1,158.6,431.6z M152,430.4c-0.8-0.4-1.2-1.3-0.8-2.2s1.3-1.2,2.2-0.8s1.2,1.3,0.8,2.2
				C153.8,430.4,152.9,430.7,152,430.4z"/>
			<path class="st4" d="M146,454.3c-1.1,0.2-2.3,0.6-3.4,1c0.8-1.1,1.4-2.3,2-3.4c1.6-3.5,0.8-4.8-0.6-5.4c-1.4-0.7-2.9-0.5-4.6,3
				c-0.5,1.2-1,2.6-1.4,3.9c-0.4-1.3-1-2.6-1.5-3.7c-1.8-3.5-3.3-3.6-4.7-2.8c-1.4,0.7-2.2,2-0.4,5.5c0.6,1.1,1.3,2.3,2.2,3.4
				c-1.3-0.5-2.6-0.9-3.8-1.2c-3.8-0.8-4.8,0.3-5.2,1.8c-0.3,1.5,0.2,2.9,4,3.7c1.2,0.2,2.5,0.4,3.8,0.5c-1.1,0.7-2.2,1.5-3.1,2.3
				c-2.9,2.6-2.6,4.1-1.6,5.2c1,1.2,2.5,1.6,5.4-1c1-0.9,2.1-2,3-3.2c-0.2,1.5-0.2,3-0.1,4.4c0.3,3.5,1.4,4.4,2.7,4.5l3-4.1
				c0-0.3,0-0.5,0-0.8c-0.1-1.1-0.3-2.2-0.5-3.4c0.7,0.7,1.4,1.4,2.1,2l3.3-4.5c-1-0.6-2.1-1.3-3.1-1.8c1.3-0.1,2.6-0.2,3.8-0.4
				c0.4-0.1,0.8-0.2,1.1-0.3l2.8-3.8C150.7,454.5,149.6,453.6,146,454.3z M140.9,459.9c-0.6,1.2-2,1.8-3.3,1.2s-1.8-2-1.2-3.3
				s2-1.8,3.3-1.2S141.5,458.6,140.9,459.9z"/>
			<path class="st4" d="M317,375.4c-1.3,0-2.8,0.2-4.1,0.5c0.8-0.7,1.6-1.5,2.3-2.3c2.1-2.5,1.7-3.7,0.7-4.5c-1-0.9-2.2-1.1-4.4,1.4
				c-0.6,0.7-1.2,1.6-1.8,2.4c-0.1-1.1-0.2-2.3-0.5-3.2c-0.7-3.2-1.9-3.6-3.2-3.3c-1.3,0.3-2.2,1.2-1.4,4.4c0.2,1.1,0.6,2.2,1.1,3.3
				c-0.9-0.6-2-1.2-2.9-1.7c-3-1.3-4-0.6-4.5,0.6c-0.5,1.2-0.4,2.4,2.6,3.8c0.9,0.4,2.1,0.8,3.2,1.1c-1.1,0.3-2.2,0.8-3.1,1.2
				c-2.9,1.4-3,2.7-2.4,3.9c0.6,1.2,1.6,1.9,4.6,0.4c0.9-0.4,1.8-1,2.7-1.7c-0.4,1-0.7,2.1-0.8,3.1c-0.6,3.2,0.4,4,1.7,4.3
				c1.3,0.2,2.5-0.2,3-3.4c0.2-1.1,0.3-2.4,0.3-3.7c0.7,1.1,1.4,2.1,2.2,2.9c2.2,2.4,3.4,2.2,4.4,1.3c1-0.9,1.3-2.1-0.9-4.5
				c-0.6-0.7-1.3-1.3-2.1-2c1.2,0.2,2.4,0.3,3.5,0.3c3.3-0.1,3.9-1.1,3.9-2.5C320.9,376.4,320.2,375.3,317,375.4z M309.4,379.3
				c-1.1,0.3-2.2-0.4-2.5-1.5c-0.3-1.1,0.4-2.2,1.5-2.5c1.1-0.3,2.2,0.4,2.5,1.5C311.2,378,310.5,379.1,309.4,379.3z"/>
			<g>
				<path class="st4" d="M330.8,436.9c-0.4-0.5-1-0.7-1.8-0.3l1.9,2.6C331.5,438.1,331.3,437.4,330.8,436.9z"/>
				<path class="st4" d="M320.5,438.4c-2-1.3-2.8-1-3.4-0.1c-0.5,0.8-0.6,1.7,1.4,3.1c0.7,0.4,1.5,0.9,2.3,1.2
					c-0.8,0.1-1.7,0.3-2.4,0.6c-2.3,0.8-2.5,1.7-2.2,2.6c0.3,0.9,1,1.5,3.3,0.7c0.3-0.1,0.7-0.2,1-0.4l1.3-6.6
					C321.4,439.1,320.9,438.7,320.5,438.4z"/>
				<path class="st4" d="M322.1,437.8c0,0.1,0,0.2,0,0.3l0.6-2.8C322.3,435.6,322,436.3,322.1,437.8z"/>
			</g>
			<path class="st4" d="M316.7,340.5c-2-0.7-4-1.4-5.9-2c-0.9,0.9-1.8,2-2.5,3.1c0.1-1.3,0.2-2.6,0.2-3.8c-2-0.6-4-1.1-5.7-1.5
				c0,0.5-0.1,1.1,0,1.7c0.1,1.1,0.2,2.4,0.5,3.6c-1-0.9-2-1.8-3.1-2.5c-3.3-2.2-4.6-1.5-5.5-0.2c-0.9,1.3-1,2.8,2.3,5
				c1.1,0.7,2.4,1.4,3.7,2c-1.4,0.2-2.7,0.5-3.9,0.9c-3.7,1.2-4,2.7-3.5,4.2c0.5,1.5,1.6,2.5,5.4,1.2c1.2-0.4,2.5-1,3.7-1.6
				c-0.7,1.2-1.3,2.5-1.8,3.6c-1.4,3.7-0.5,4.8,1,5.4c1.5,0.6,3,0.3,4.3-3.4c0.4-1.1,0.8-2.4,1-3.7c0.5,1.2,1.2,2.4,1.8,3.4
				c2.1,3.3,3.6,3.2,4.9,2.4c1.3-0.9,2-2.2-0.1-5.5c-0.7-1.1-1.7-2.4-2.7-3.4c1.4,0.4,3,0.7,4.3,0.8c3.9,0.3,4.8-0.9,4.9-2.5
				c0.1-1.6-0.5-2.9-4.4-3.2c-1.1-0.1-2.2-0.1-3.4,0c1.2-0.8,2.4-1.7,3.3-2.6C316,341.4,316.4,341,316.7,340.5z M308.1,347.5
				c-0.8,1.1-2.3,1.4-3.4,0.7c-1.1-0.8-1.4-2.3-0.7-3.4c0.8-1.1,2.3-1.4,3.4-0.7C308.5,344.8,308.8,346.3,308.1,347.5z"/>
			<path class="st4" d="M352,389.6c-1,0-2.2,0.2-3.2,0.4c0.7-0.6,1.3-1.2,1.8-1.8c1.7-1.9,1.3-2.9,0.6-3.5c-0.8-0.7-1.8-0.8-3.4,1.1
				c-0.5,0.6-1,1.2-1.4,1.9c-0.1-0.9-0.2-1.8-0.4-2.5c-0.6-2.5-1.5-2.8-2.5-2.6c-1,0.2-1.7,0.9-1.1,3.4c0.2,0.8,0.5,1.7,0.9,2.6
				c-0.7-0.5-1.5-1-2.3-1.3c-2.3-1.1-3.1-0.5-3.6,0.4c-0.4,0.9-0.3,1.9,2,3c0.7,0.3,1.6,0.6,2.5,0.9c-0.9,0.3-1.7,0.6-2.5,1
				c-2.3,1.1-2.4,2.1-1.9,3c0.5,0.9,1.3,1.5,3.6,0.3c0.7-0.3,1.4-0.8,2.1-1.3c-0.3,0.8-0.5,1.7-0.7,2.4c-0.5,2.5,0.3,3.2,1.3,3.3
				c1,0.2,1.9-0.2,2.4-2.7c0.2-0.9,0.2-1.9,0.2-2.9c0.5,0.8,1.1,1.6,1.7,2.3c1.7,1.9,2.7,1.7,3.4,1c0.8-0.7,1-1.6-0.7-3.5
				c-0.5-0.5-1-1-1.6-1.5c0.9,0.1,1.9,0.2,2.8,0.2c2.6,0,3-0.9,3-1.9C355.1,390.3,354.5,389.5,352,389.6z M346.1,392.7
				c-0.9,0.2-1.7-0.3-1.9-1.2c-0.2-0.9,0.3-1.7,1.2-1.9c0.9-0.2,1.7,0.3,1.9,1.2C347.5,391.6,346.9,392.5,346.1,392.7z"/>
			<path class="st4" d="M362.6,421c-1.5,0-3.3,0.3-4.9,0.6c1-0.8,1.9-1.8,2.7-2.7c2.5-3,2-4.4,0.8-5.4c-1.2-1-2.7-1.3-5.2,1.7
				c-0.7,0.8-1.4,1.9-2.1,2.9c-0.1-1.3-0.3-2.7-0.6-3.9c-0.9-3.8-2.3-4.3-3.8-3.9c-1.5,0.4-2.6,1.4-1.7,5.2c0.3,1.3,0.8,2.7,1.3,4
				c-1.1-0.8-2.4-1.5-3.5-2c-3.6-1.6-4.8-0.8-5.4,0.7c-0.7,1.4-0.5,2.9,3.1,4.5c1.1,0.5,2.5,1,3.8,1.3c-1.3,0.4-2.6,0.9-3.8,1.5
				c-3.5,1.7-3.6,3.2-2.9,4.6c0.7,1.4,2,2.2,5.4,0.5c1.1-0.5,2.2-1.2,3.3-2c-0.4,1.2-0.8,2.6-1,3.7c-0.7,3.8,0.4,4.8,2,5.1
				c1.6,0.3,2.9-0.3,3.6-4.1c0.2-1.3,0.4-2.9,0.4-4.4c0.8,1.3,1.7,2.5,2.6,3.5c2.6,2.9,4.1,2.6,5.2,1.5c1.2-1.1,1.6-2.5-1-5.4
				c-0.7-0.8-1.6-1.6-2.5-2.3c1.4,0.2,2.9,0.3,4.2,0.3c3.9-0.1,4.6-1.4,4.6-2.9C367.3,422.2,366.5,420.9,362.6,421z M353.6,425.7
				c-1.3,0.3-2.7-0.5-3-1.8c-0.3-1.3,0.5-2.7,1.8-3c1.3-0.3,2.7,0.5,3,1.8C355.8,424.1,355,425.4,353.6,425.7z"/>
			<path class="st4" d="M367.1,454.5c-1,0-2.1,0.2-3.2,0.4c0.6-0.6,1.3-1.2,1.8-1.8c1.6-1.9,1.3-2.9,0.6-3.5
				c-0.8-0.7-1.7-0.8-3.4,1.1c-0.5,0.6-0.9,1.2-1.4,1.9c-0.1-0.9-0.2-1.8-0.4-2.5c-0.6-2.5-1.5-2.8-2.5-2.5c-1,0.2-1.7,0.9-1.1,3.4
				c0.2,0.8,0.5,1.7,0.9,2.6c-0.7-0.5-1.5-1-2.3-1.3c-2.3-1.1-3.1-0.5-3.5,0.4c-0.4,0.9-0.3,1.9,2,3c0.7,0.3,1.6,0.6,2.5,0.9
				c-0.9,0.3-1.7,0.6-2.4,0.9c-2.3,1.1-2.4,2.1-1.9,3c0.5,0.9,1.3,1.4,3.6,0.3c0.7-0.3,1.4-0.8,2.1-1.3c-0.3,0.8-0.5,1.7-0.7,2.4
				c-0.5,2.5,0.3,3.1,1.3,3.3c1,0.2,1.9-0.2,2.4-2.7c0.2-0.9,0.2-1.9,0.2-2.8c0.5,0.8,1.1,1.6,1.7,2.3c1.7,1.9,2.7,1.7,3.4,1
				c0.8-0.7,1-1.6-0.7-3.5c-0.5-0.5-1-1-1.6-1.5c0.9,0.1,1.9,0.2,2.7,0.2c2.5,0,3-0.9,3-1.9C370.2,455.2,369.6,454.4,367.1,454.5z
				 M361.2,457.5c-0.9,0.2-1.7-0.3-1.9-1.2c-0.2-0.9,0.3-1.7,1.2-1.9c0.9-0.2,1.7,0.3,1.9,1.2C362.6,456.5,362.1,457.3,361.2,457.5z
				"/>
			<path class="st4" d="M375,492.8c-0.6-0.7-1.3-1.3-2.1-2c1.2,0.2,2.4,0.3,3.5,0.3c3.3-0.1,3.9-1.1,3.9-2.5c0-1.3-0.7-2.4-4-2.3
				c-1.3,0-2.8,0.2-4.1,0.5c0.8-0.7,1.6-1.5,2.3-2.3c2.1-2.5,1.7-3.7,0.7-4.5c-1-0.9-2.2-1.1-4.4,1.4c-0.6,0.7-1.2,1.6-1.8,2.4
				c-0.1-1.1-0.2-2.3-0.5-3.2c-0.7-3.2-1.9-3.6-3.2-3.3c-1.3,0.3-2.2,1.2-1.4,4.4c0.2,1.1,0.6,2.2,1.1,3.3c-0.2-0.2-0.5-0.3-0.7-0.5
				l2,2.8c0.3-0.6,0.8-1,1.4-1.2c1.1-0.3,2.2,0.4,2.5,1.5c0.3,1.1-0.4,2.2-1.5,2.5c-0.1,0-0.1,0-0.2,0l5.6,7.6
				c0.7,0.1,1.2-0.2,1.7-0.6C376.8,496.5,377.2,495.3,375,492.8z"/>
			<path class="st4" d="M380.5,442.1c-0.4,1-0.7,2.1-0.8,3.1c-0.6,3.2,0.4,4,1.7,4.3c1.3,0.2,2.5-0.2,3-3.4c0.2-1.1,0.3-2.4,0.3-3.7
				c0.7,1.1,1.4,2.1,2.2,2.9c1.8,2,2.9,2.2,3.8,1.7c-1.6-3-3.2-6-4.9-9c-0.2,0.8-0.7,1.4-1.6,1.6c-1.1,0.3-2.2-0.4-2.5-1.5
				c-0.3-1.1,0.4-2.2,1.5-2.5c0.4-0.1,0.8-0.1,1.2,0.1c-1.5-2.8-3.1-5.6-4.7-8.4c-0.6,0.6-0.9,1.7-0.4,3.8c0.2,1.1,0.6,2.2,1.1,3.3
				c-0.9-0.6-2-1.2-2.9-1.7c-3-1.3-4-0.6-4.5,0.6s-0.4,2.4,2.6,3.8c0.9,0.4,2.1,0.8,3.2,1.1c-1.1,0.3-2.2,0.8-3.1,1.2
				c-2.9,1.4-3,2.7-2.4,3.9c0.6,1.2,1.6,1.9,4.6,0.4C378.7,443.3,379.7,442.7,380.5,442.1z"/>
			<path class="st4" d="M393.2,465.9c-1,0-2.1,0.2-3.2,0.4c0.6-0.6,1.3-1.2,1.8-1.8c1.6-1.9,1.3-2.9,0.6-3.5
				c-0.8-0.7-1.7-0.8-3.4,1.1c-0.5,0.6-0.9,1.2-1.4,1.9c-0.1-0.9-0.2-1.8-0.4-2.5c-0.6-2.5-1.5-2.8-2.5-2.5c-1,0.2-1.7,0.9-1.1,3.4
				c0.2,0.8,0.5,1.7,0.9,2.6c-0.7-0.5-1.5-1-2.3-1.3c-2.3-1.1-3.1-0.5-3.5,0.4c-0.4,0.9-0.3,1.9,2,3c0.7,0.3,1.6,0.6,2.5,0.9
				c-0.9,0.3-1.7,0.6-2.4,0.9c-2.3,1.1-2.4,2.1-1.9,3c0.5,0.9,1.3,1.4,3.6,0.3c0.7-0.3,1.4-0.8,2.1-1.3c-0.3,0.8-0.5,1.7-0.7,2.4
				c-0.5,2.5,0.3,3.1,1.3,3.3c1,0.2,1.9-0.2,2.4-2.7c0.2-0.9,0.2-1.9,0.2-2.8c0.5,0.8,1.1,1.6,1.7,2.3c1.7,1.9,2.7,1.7,3.4,1
				c0.8-0.7,1-1.6-0.7-3.5c-0.5-0.5-1-1-1.6-1.5c0.9,0.1,1.9,0.2,2.7,0.2c2.5,0,3-0.9,3-1.9C396.3,466.7,395.8,465.8,393.2,465.9z
				 M387.3,469c-0.9,0.2-1.7-0.3-1.9-1.2c-0.2-0.9,0.3-1.7,1.2-1.9c0.9-0.2,1.7,0.3,1.9,1.2S388.2,468.8,387.3,469z"/>
			<path class="st4" d="M415.5,495.3c-0.6-1.3-1.4-2.9-2.3-4.6c-0.9,0.1-1.8,0.2-2.6,0.4c0.7-0.6,1.4-1.2,1.9-1.9
				c-0.7-1.4-1.5-2.9-2.3-4.5c-0.3,0.3-0.7,0.6-1,1.1c-0.6,0.7-1.2,1.6-1.8,2.4c-0.1-1.1-0.2-2.3-0.5-3.2c-0.7-3.2-1.9-3.6-3.2-3.3
				c-1.3,0.3-2.2,1.2-1.4,4.4c0.2,1.1,0.6,2.2,1.1,3.3c-0.9-0.6-2-1.2-2.9-1.7c-3-1.3-4-0.6-4.5,0.6s-0.4,2.4,2.6,3.8
				c0.9,0.4,2.1,0.8,3.2,1.1c-1.1,0.3-2.2,0.8-3.1,1.2c-2.9,1.4-3,2.7-2.4,3.9c0.6,1.2,1.6,1.9,4.6,0.4c0.9-0.4,1.8-1,2.7-1.7
				c-0.4,1-0.7,2.1-0.8,3.1h4.8c0.1-0.9,0.2-1.9,0.2-2.8c0.6,1,1.3,2,2.1,2.8h5.3c0-0.7-0.4-1.7-1.6-3.1c-0.6-0.7-1.3-1.3-2.1-2
				c1.2,0.2,2.4,0.3,3.5,0.3C415,495.4,415.3,495.4,415.5,495.3z M407.1,494.6c-1.1,0.3-2.2-0.4-2.5-1.5c-0.3-1.1,0.4-2.2,1.5-2.5
				s2.2,0.4,2.5,1.5C408.9,493.2,408.3,494.3,407.1,494.6z"/>
			<path class="st4" d="M306.3,443c-1.2,0-2.5,0.2-3.8,0.5c0.8-0.7,1.5-1.4,2.1-2.1c2-2.3,1.6-3.4,0.7-4.2c-0.9-0.8-2.1-1-4,1.3
				c-0.6,0.7-1.1,1.4-1.6,2.3c-0.1-1-0.2-2.1-0.4-3c-0.7-2.9-1.8-3.3-3-3c-1.2,0.3-2,1.1-1.3,4c0.2,1,0.6,2.1,1,3.1
				c-0.9-0.6-1.8-1.1-2.7-1.5c-2.7-1.2-3.7-0.6-4.2,0.5c-0.5,1.1-0.4,2.3,2.4,3.5c0.9,0.4,1.9,0.8,2.9,1c-1,0.3-2,0.7-2.9,1.1
				c-2.7,1.3-2.8,2.5-2.3,3.6c0.5,1.1,1.5,1.7,4.2,0.4c0.8-0.4,1.7-0.9,2.5-1.5c-0.3,1-0.6,2-0.8,2.9c-0.5,3,0.3,3.7,1.5,3.9
				c1.2,0.2,2.3-0.2,2.8-3.2c0.2-1,0.3-2.2,0.3-3.4c0.6,1,1.3,1.9,2,2.7c2,2.2,3.2,2,4.1,1.2c0.9-0.8,1.2-1.9-0.8-4.1
				c-0.6-0.6-1.2-1.2-1.9-1.8c1.1,0.2,2.2,0.3,3.3,0.2c3-0.1,3.6-1,3.6-2.3C310,443.9,309.3,442.9,306.3,443z M299.4,446.6
				c-1,0.2-2.1-0.4-2.3-1.4s0.4-2.1,1.4-2.3c1-0.2,2.1,0.4,2.3,1.4C301,445.4,300.4,446.4,299.4,446.6z"/>
			<path class="st4" d="M310.9,481.7c-1.4,0-2.5,0.8-2.4,4.2c0,1,0.2,2.1,0.3,3.2c-0.8-0.8-1.8-1.6-2.7-2.2c-2.8-2-4-1.4-4.8-0.3
				c-0.8,1.1-0.9,2.5,1.9,4.4c0.9,0.7,2.1,1.3,3.2,1.8c-1.2,0.2-2.4,0.4-3.5,0.8c-3.3,1-3.6,2.3-3.2,3.7c0.4,1.3,1.4,2.2,4.7,1.2
				c1-0.3,2.2-0.8,3.3-1.4c-0.6,1-1.2,2.1-1.6,3.1h3.7l1-4.9c-0.3-0.1-0.6-0.2-0.9-0.4c-1-0.7-1.2-2.1-0.5-3
				c0.5-0.7,1.4-1.1,2.2-0.9l1.5-7.5C312.7,482,311.9,481.7,310.9,481.7z"/>
			<path class="st4" d="M292.6,405.1c-0.7-0.5-1.5-1-2.3-1.4c0.7,0,1.4-0.1,2-0.2c2.1-0.4,2.3-1.2,2.2-2c-0.2-0.8-0.7-1.4-2.8-1
				c-0.6,0.1-1.2,0.3-1.9,0.5c0.4-0.6,0.8-1.2,1.1-1.8c0.9-1.9,0.4-2.6-0.3-2.9c-0.8-0.4-1.6-0.3-2.5,1.6c-0.3,0.6-0.6,1.4-0.8,2.1
				c-0.2-0.7-0.5-1.4-0.8-2c-1-1.9-1.8-1.9-2.5-1.5c-0.8,0.4-1.2,1.1-0.2,2.9c0.3,0.6,0.7,1.2,1.2,1.8c-0.7-0.3-1.4-0.5-2.1-0.6
				c-2.1-0.4-2.6,0.2-2.8,1c-0.2,0.8,0.1,1.6,2.1,2c0.6,0.1,1.3,0.2,2,0.2c-0.6,0.4-1.2,0.8-1.7,1.2c-1.6,1.4-1.4,2.2-0.9,2.8
				c0.6,0.6,1.3,0.9,2.9-0.5c0.5-0.5,1.1-1.1,1.6-1.7c-0.1,0.8-0.1,1.6-0.1,2.4c0.2,2.1,0.9,2.5,1.7,2.4c0.8-0.1,1.5-0.5,1.4-2.6
				c0-0.6-0.1-1.2-0.3-1.8c0.5,0.6,1.1,1.1,1.7,1.5c1.7,1.3,2.4,1,2.9,0.3C294.2,407.2,294.3,406.4,292.6,405.1z M287.2,404.1
				c-0.7-0.3-1-1.1-0.6-1.8c0.3-0.7,1.1-1,1.8-0.6c0.7,0.3,1,1.1,0.6,1.8C288.7,404.2,287.9,404.4,287.2,404.1z"/>
			<path class="st4" d="M283.2,431.6c-0.8-0.6-1.8-1.2-2.8-1.7c0.9,0,1.7-0.1,2.5-0.3c2.5-0.5,2.8-1.4,2.6-2.4
				c-0.2-1-0.9-1.7-3.4-1.2c-0.7,0.1-1.5,0.4-2.3,0.7c0.5-0.7,0.9-1.5,1.3-2.2c1.1-2.3,0.5-3.1-0.4-3.6c-0.9-0.4-1.9-0.3-3,2
				c-0.4,0.8-0.7,1.7-0.9,2.6c-0.3-0.9-0.6-1.7-1-2.4c-1.2-2.3-2.2-2.3-3.1-1.9c-0.9,0.5-1.4,1.3-0.2,3.6c0.4,0.7,0.9,1.5,1.4,2.2
				c-0.8-0.3-1.7-0.6-2.5-0.8c-2.5-0.5-3.2,0.2-3.4,1.2c-0.2,1,0.1,1.9,2.6,2.5c0.8,0.2,1.6,0.3,2.5,0.3c-0.7,0.5-1.4,1-2,1.5
				c-1.9,1.7-1.7,2.7-1,3.4c0.7,0.8,1.6,1.1,3.5-0.6c0.7-0.6,1.4-1.3,1.9-2.1c-0.1,1-0.1,2-0.1,2.9c0.2,2.6,1.1,3,2.1,2.9
				c1-0.1,1.8-0.6,1.6-3.2c-0.1-0.7-0.2-1.5-0.3-2.2c0.6,0.7,1.4,1.4,2,1.9c2,1.5,2.9,1.2,3.6,0.4
				C285.2,434.1,285.3,433.1,283.2,431.6z M276.7,430.4c-0.8-0.4-1.2-1.3-0.8-2.2s1.3-1.2,2.2-0.8c0.8,0.4,1.2,1.3,0.8,2.2
				C278.4,430.4,277.5,430.7,276.7,430.4z"/>
			<path class="st4" d="M306.3,471.3c-0.6-0.5-1.4-0.9-2.1-1.3c0.7,0,1.3-0.1,1.9-0.2c1.9-0.4,2.2-1.1,2-1.9
				c-0.2-0.8-0.7-1.3-2.6-0.9c-0.6,0.1-1.2,0.3-1.7,0.5c0.4-0.6,0.7-1.2,1-1.7c0.8-1.8,0.4-2.4-0.3-2.7c-0.7-0.3-1.5-0.3-2.3,1.5
				c-0.3,0.6-0.5,1.3-0.7,2c-0.2-0.7-0.5-1.3-0.8-1.9c-0.9-1.7-1.7-1.8-2.4-1.4c-0.7,0.4-1.1,1-0.2,2.8c0.3,0.6,0.7,1.2,1.1,1.7
				c-0.6-0.3-1.3-0.5-1.9-0.6c-1.9-0.4-2.4,0.1-2.6,0.9c-0.2,0.8,0.1,1.5,2,1.9c0.6,0.1,1.3,0.2,1.9,0.2c-0.6,0.4-1.1,0.8-1.6,1.2
				c-1.5,1.3-1.3,2.1-0.8,2.6c0.5,0.6,1.2,0.8,2.7-0.5c0.5-0.5,1-1,1.5-1.6c-0.1,0.7-0.1,1.5-0.1,2.2c0.1,2,0.8,2.3,1.6,2.2
				c0.8-0.1,1.4-0.5,1.3-2.5c0-0.5-0.1-1.1-0.3-1.7c0.5,0.5,1,1,1.6,1.4c1.6,1.2,2.3,0.9,2.8,0.3
				C307.8,473.2,307.8,472.5,306.3,471.3z M301.2,470.4c-0.6-0.3-0.9-1-0.6-1.7c0.3-0.6,1-0.9,1.7-0.6s0.9,1,0.6,1.7
				S301.8,470.7,301.2,470.4z"/>
			<path class="st4" d="M285.1,497.4c-0.1-0.7-0.2-1.5-0.3-2.3c0.7,0.7,1.4,1.4,2.1,1.9c2.1,1.6,3,1.2,3.7,0.4s0.7-1.8-1.4-3.4
				c-0.8-0.6-1.9-1.2-2.9-1.7c0.9,0,1.8-0.1,2.6-0.3c2.6-0.5,2.9-1.5,2.7-2.5c-0.2-1-0.9-1.8-3.5-1.3c-0.7,0.2-1.5,0.4-2.3,0.7
				c0.5-0.7,1-1.5,1.3-2.3c1.1-2.4,0.5-3.2-0.4-3.7c-1-0.4-2-0.3-3.1,2c-0.4,0.8-0.7,1.7-0.9,2.7c-0.3-0.9-0.6-1.8-1-2.5
				c-1.2-2.3-2.2-2.4-3.2-1.9c-0.9,0.5-1.5,1.3-0.3,3.7c0.4,0.7,0.9,1.5,1.5,2.3c-0.9-0.3-1.8-0.6-2.6-0.8c-2.6-0.5-3.3,0.2-3.5,1.2
				c-0.2,1,0.1,2,2.7,2.5c0.8,0.2,1.7,0.3,2.6,0.3c-0.8,0.5-1.5,1-2.1,1.6c-2,1.8-1.8,2.7-1.1,3.5s1.7,1.1,3.6-0.7
				c0.7-0.6,1.4-1.4,2-2.2c-0.1,1-0.1,2-0.1,3c0.1,1.3,0.4,2,0.7,2.5h2.6C285,499.7,285.2,498.9,285.1,497.4z M282.4,492.7
				c-0.8-0.4-1.2-1.4-0.8-2.2c0.4-0.8,1.4-1.2,2.2-0.8c0.8,0.4,1.2,1.4,0.8,2.2C284.3,492.7,283.3,493.1,282.4,492.7z"/>
			<path class="st4" d="M277.5,468.4c-1.2-0.9-2.8-1.8-4.2-2.5c1.3-0.1,2.6-0.2,3.8-0.4c3.8-0.8,4.3-2.2,4-3.7
				c-0.3-1.5-1.3-2.6-5.1-1.9c-1.1,0.2-2.3,0.6-3.4,1c0.8-1.1,1.4-2.3,2-3.4c1.6-3.5,0.8-4.8-0.6-5.4c-1.4-0.7-2.9-0.5-4.6,3
				c-0.5,1.2-1,2.6-1.4,3.9c-0.4-1.3-1-2.6-1.5-3.7c-1.8-3.5-3.3-3.6-4.7-2.8c-1.4,0.7-2.2,2-0.4,5.5c0.6,1.1,1.3,2.3,2.2,3.4
				c-1.3-0.5-2.6-0.9-3.8-1.2c-3.8-0.8-4.8,0.3-5.2,1.8c-0.3,1.5,0.2,2.9,4,3.7c1.2,0.2,2.5,0.4,3.8,0.5c-1.1,0.7-2.2,1.5-3.1,2.3
				c-2.9,2.6-2.6,4.1-1.6,5.2c1,1.2,2.5,1.6,5.4-1c1-0.9,2.1-2,3-3.2c-0.2,1.5-0.2,3-0.1,4.4c0.3,3.9,1.6,4.6,3.2,4.5
				c1.6-0.1,2.8-1,2.5-4.9c-0.1-1.1-0.3-2.2-0.5-3.4c1,1,2.1,2.1,3.1,2.9c3.1,2.4,4.5,1.8,5.4,0.5
				C280.4,472.2,280.6,470.7,277.5,468.4z M267.5,466.5c-1.2-0.6-1.8-2-1.2-3.3c0.6-1.2,2-1.8,3.3-1.2c1.2,0.6,1.8,2,1.2,3.3
				C270.2,466.6,268.7,467.1,267.5,466.5z"/>
			<path class="st4" d="M120.8,478.1c-0.6-0.5-1.4-0.9-2.1-1.3c0.7,0,1.3-0.1,1.9-0.2c1.9-0.4,2.2-1.1,2-1.9
				c-0.2-0.8-0.7-1.3-2.6-0.9c-0.5,0.1-1.1,0.3-1.7,0.5c0.4-0.5,0.7-1.1,1-1.7c0.8-1.8,0.4-2.4-0.3-2.7c-0.7-0.3-1.5-0.3-2.3,1.5
				c-0.3,0.6-0.5,1.3-0.7,2c-0.2-0.7-0.5-1.3-0.8-1.9c-0.9-1.7-1.6-1.8-2.3-1.4c-0.7,0.4-1.1,1-0.2,2.7c0.3,0.5,0.7,1.1,1.1,1.7
				c-0.6-0.2-1.3-0.5-1.9-0.6c-1.9-0.4-2.4,0.1-2.6,0.9c-0.2,0.8,0.1,1.5,2,1.9c0.6,0.1,1.2,0.2,1.9,0.2c-0.6,0.4-1.1,0.8-1.5,1.2
				c-1.5,1.3-1.3,2-0.8,2.6c0.5,0.6,1.2,0.8,2.7-0.5c0.5-0.4,1-1,1.5-1.6c-0.1,0.7-0.1,1.5-0.1,2.2c0.1,1.9,0.8,2.3,1.6,2.2
				c0.8-0.1,1.4-0.5,1.3-2.4c0-0.5-0.1-1.1-0.3-1.7c0.5,0.5,1,1,1.6,1.4c1.6,1.2,2.2,0.9,2.7,0.3C122.3,480,122.4,479.3,120.8,478.1
				z M115.8,477.2c-0.6-0.3-0.9-1-0.6-1.6c0.3-0.6,1-0.9,1.6-0.6c0.6,0.3,0.9,1,0.6,1.6C117.2,477.2,116.4,477.5,115.8,477.2z"/>
			<path class="st4" d="M264.8,394.9c-0.3-1.5-1.3-2.6-5.1-1.8c-1.1,0.2-2.3,0.6-3.4,1c0.7-1.1,1.4-2.3,1.9-3.3
				c1.6-3.5,0.8-4.7-0.6-5.4c-1.4-0.7-2.9-0.5-4.5,3c-0.5,1.2-1,2.5-1.4,3.9c-0.4-1.3-0.9-2.6-1.5-3.7c-0.5-1-1.1-1.8-1.5-2.3v17.6
				c0.4-0.4,0.7-0.9,1.1-1.3c-0.2,1.4-0.2,3-0.1,4.3c0.3,3.8,1.6,4.5,3.1,4.4c1.5-0.1,2.8-1,2.5-4.8c-0.1-1-0.3-2.2-0.5-3.3
				c1,1,2,2,3.1,2.8c3.1,2.3,4.4,1.8,5.4,0.5c0.9-1.2,1.1-2.7-2-5c-1.2-0.9-2.7-1.8-4.2-2.5c1.3-0.1,2.6-0.2,3.7-0.4
				C264.6,397.8,265.1,396.4,264.8,394.9z M254.6,398.5c-0.6,1.2-2,1.8-3.2,1.2c-1.2-0.6-1.8-2-1.2-3.2c0.6-1.2,2-1.8,3.2-1.2
				C254.6,395.8,255.2,397.3,254.6,398.5z"/>
			<path class="st4" d="M157.7,373.7c-0.8-0.7-1.7-1.5-2.7-2.1c1.4,0.1,2.9,0.1,4.2,0c0.7-0.1,1.3-0.2,1.8-0.3
				c-1.4-2.6-3-4.4-3.9-5.2c-1.1,0.2-2.3,0.5-3.4,0.8c0.6-0.6,1.3-1.3,1.8-2c-0.7-0.4-1.5-0.5-2-0.6c0,0.2,0,0.3,0,0.3
				c-0.7,1-1.5,2-2.2,3.1c0.1,0.2,0.2,0.3,0.3,0.5c0.4,1.3-0.3,2.7-1.6,3.1c-0.4,0.1-0.9,0.1-1.3,0.1c-1.1,1.6-2.1,3.1-3.2,4.7
				c-0.2,0.8-0.3,1.6-0.4,2.3c-0.4,3.9,0.8,4.8,2.4,4.9c1.6,0.1,2.9-0.5,3.3-4.4c0.1-1.4,0.1-2.9,0-4.4c0.9,1.2,1.9,2.4,2.9,3.3
				c2.9,2.7,4.3,2.2,5.4,1.1C160.2,377.8,160.5,376.4,157.7,373.7z"/>
			<path class="st4" d="M168,405.1c-0.7-0.5-1.5-1-2.3-1.4c0.7,0,1.4-0.1,2-0.2c0.4-0.1,0.7-0.2,1-0.3l-0.4-2.9
				c-0.3,0-0.7,0-1.2,0.1c-0.6,0.1-1.2,0.3-1.9,0.5c0.4-0.6,0.8-1.2,1.1-1.8c0.9-1.9,0.4-2.6-0.3-2.9c-0.8-0.4-1.6-0.3-2.5,1.6
				c-0.3,0.6-0.6,1.4-0.8,2.1c-0.2-0.7-0.5-1.4-0.8-2c-1-1.9-1.8-1.9-2.5-1.5s-1.2,1.1-0.2,2.9c0.3,0.6,0.7,1.2,1.2,1.8
				c-0.7-0.3-1.4-0.5-2.1-0.6c-2.1-0.4-2.6,0.2-2.8,1c-0.2,0.8,0.1,1.6,2.1,2c0.6,0.1,1.3,0.2,2,0.2c-0.6,0.4-1.2,0.8-1.7,1.2
				c-1.6,1.4-1.4,2.2-0.9,2.8s1.3,0.9,2.9-0.5c0.5-0.5,1.1-1.1,1.6-1.7c-0.1,0.8-0.1,1.6-0.1,2.4c0.2,2.1,0.9,2.5,1.7,2.4
				c0.8-0.1,1.5-0.5,1.4-2.6c0-0.6-0.1-1.2-0.3-1.8c0.5,0.6,1.1,1.1,1.7,1.5c1.7,1.3,2.4,1,2.9,0.3S169.7,406.4,168,405.1z
				 M164.3,403.5c-0.3,0.7-1.1,1-1.8,0.6s-1-1.1-0.6-1.8c0.3-0.7,1.1-1,1.8-0.6C164.4,402,164.7,402.8,164.3,403.5z"/>
			<g>
				<path class="st4" d="M333.3,371c0.9-1.5,2.1-3.4,3.7-4.8c-0.8-0.3-1.4-1-1.6-1.9c-0.3-1.4,0.6-2.8,2-3.2
					c1.2-0.3,2.4,0.3,2.9,1.3c-0.7-2.8-2.5-7.8-6.9-12.3c-1.1,0.6-1.8,1.9-1,5.3c0.3,1.4,0.8,2.9,1.4,4.3c-1.2-0.8-2.5-1.6-3.7-2.1
					c-3.8-1.7-5.1-0.8-5.8,0.7c-0.7,1.5-0.5,3.1,3.3,4.8c1.2,0.5,2.6,1,4,1.4c-1.4,0.4-2.8,1-4,1.6c-3.7,1.9-3.9,3.4-3.1,5
					c0.7,1.5,2.1,2.4,5.8,0.5c1.1-0.6,2.4-1.3,3.5-2.1C333.7,369.9,333.5,370.5,333.3,371z"/>
				<path class="st4" d="M340.6,364c0,0,0-0.1,0-0.1C340.6,363.9,340.6,363.9,340.6,364C340.6,364,340.6,364,340.6,364z"/>
			</g>
			<g>
				<path class="st4" d="M324.6,408c-0.3,0-0.5,0.1-0.8,0.2c0.3-0.2,0.6-0.5,0.8-0.7c0.2-2.4,0.5-4.9,0.8-7.5
					c-0.8,0.1-1.9,0.7-3.2,2.2c-0.7,0.8-1.4,1.7-2,2.7c-0.1-1.2-0.3-2.5-0.5-3.6c-0.8-3.6-2.2-4-3.6-3.6c-1.4,0.3-2.4,1.3-1.6,4.9
					c0.3,1.2,0.7,2.5,1.2,3.7c-1.1-0.7-2.2-1.4-3.3-1.9c-3.3-1.5-4.5-0.7-5.1,0.6c-0.6,1.3-0.4,2.7,2.9,4.2c1.1,0.5,2.3,0.9,3.5,1.2
					c-1.2,0.4-2.5,0.8-3.5,1.4c-3.3,1.6-3.4,3-2.7,4.3s1.8,2.1,5.1,0.5c1-0.5,2.1-1.1,3.1-1.9c-0.4,1.2-0.7,2.4-0.9,3.5
					c-0.6,3.6,0.4,4.5,1.9,4.8c1.5,0.3,2.8-0.2,3.4-3.8c0.2-1.2,0.3-2.7,0.3-4.1c0.7,1.2,1.6,2.3,2.5,3.3c0.3,0.3,0.6,0.6,0.9,0.9
					C323.9,415.9,324.2,412.1,324.6,408z M319.9,412c-1.2,0.3-2.5-0.5-2.8-1.7c-0.3-1.2,0.5-2.5,1.7-2.8c1.2-0.3,2.5,0.5,2.8,1.7
					C321.9,410.4,321.2,411.7,319.9,412z"/>
			</g>
			<path class="st4" d="M283.8,371.5c3.9-0.4,4.5-1.8,4.4-3.3c-0.2-1.6-1.1-2.8-5-2.4c-1.5,0.2-3.3,0.5-4.8,1c0.9-0.9,1.8-2,2.5-2.9
				c2.3-3.2,1.7-4.6,0.4-5.5c-0.1-0.1-0.1-0.1-0.2-0.1c-1.4,1.2-3.3,2.4-5.5,3.3c-0.4,0.7-0.8,1.4-1.2,2.1c-0.1-0.5-0.2-1-0.3-1.5
				c-1.6,0.6-3.3,1.2-5.1,1.7c0.2,0.5,0.5,1,0.8,1.5c-0.7-0.4-1.5-0.8-2.3-1.1c-2.3,0.6-4.7,1.2-7,1.6c0,1.1,0.8,2.2,3.7,3.2
				c1.2,0.4,2.5,0.8,3.9,1c-1.3,0.5-2.6,1.1-3.6,1.8c-3.3,2-3.3,3.5-2.5,4.9c0.8,1.4,2.1,2,5.5,0c1-0.6,2.1-1.4,3.1-2.3
				c-0.3,1.3-0.6,2.6-0.7,3.8c-0.4,3.9,0.8,4.8,2.4,4.9c1.6,0.1,2.9-0.5,3.3-4.4c0.1-1.4,0.1-2.9,0-4.4c0.9,1.2,1.9,2.4,2.9,3.3
				c2.9,2.7,4.3,2.2,5.4,1.1c1.1-1.2,1.4-2.6-1.5-5.3c-0.8-0.7-1.7-1.5-2.7-2.1C281,371.7,282.5,371.7,283.8,371.5z M274.6,371.4
				c-1.3,0.4-2.7-0.3-3.1-1.6c-0.4-1.3,0.3-2.7,1.6-3.1c1.3-0.4,2.7,0.3,3.1,1.6S275.9,370.9,274.6,371.4z"/>
			<path class="st4" d="M219.2,367c1.5,0.2,3.1,0.4,4.5,0.3c1.6,0,2.7-0.2,3.4-0.6c-2.7-1.3-5.2-3.1-7.5-5.1
				c-0.4,0.1-0.9,0.2-1.3,0.3c0.3-0.2,0.5-0.5,0.8-0.7c-1.5-1.3-2.8-2.7-4.1-4.1c-0.2,0.4-0.5,0.7-0.7,1.1c0-0.7-0.1-1.5-0.2-2.2
				c-1.9-2.2-3.5-4.4-4.7-6.1c-1.5,0.4-2.5,1.6-1.6,5.5c0.3,1.4,0.8,2.9,1.4,4.3c-1.2-0.8-2.5-1.6-3.7-2.1c-3.8-1.7-5.1-0.8-5.8,0.7
				c-0.7,1.5-0.5,3.1,3.3,4.8c1.2,0.5,2.6,1,4,1.4c-1.4,0.4-2.8,1-4,1.6c-3.7,1.9-3.9,3.4-3.1,5c0.7,1.5,2.1,2.4,5.8,0.5
				c1.1-0.6,2.4-1.3,3.5-2.1c-0.5,1.3-0.9,2.7-1.1,4c-0.7,4.1,0.5,5.2,2.1,5.5c1.7,0.3,3.2-0.3,3.9-4.4c0.3-1.4,0.4-3.1,0.4-4.7
				c0.8,1.3,1.8,2.7,2.8,3.8c2.8,3.1,4.4,2.8,5.6,1.6c1.2-1.1,1.7-2.7-1.1-5.8C221.1,368.6,220.2,367.8,219.2,367z M214,366.3
				c-1.4,0.3-2.8-0.6-3.2-2c-0.3-1.4,0.6-2.8,2-3.2c1.4-0.3,2.8,0.6,3.2,2C216.3,364.5,215.4,365.9,214,366.3z"/>
		</g>
		<path class="st4" d="M190.9,344.6c-1.1-0.1-2.2-0.1-3.4,0c1.2-0.8,2.4-1.7,3.3-2.6c2.8-2.7,2.5-4.2,1.4-5.3
			c-0.1-0.2-0.3-0.3-0.5-0.4c-1.5,0.3-2.9,0.7-4.3,1.1c-0.2,0.2-0.4,0.3-0.6,0.5c-1.1,1.1-2.2,2.4-3.2,3.8c0.1-1.1,0.2-2.2,0.2-3.3
			c-2,0.6-3.8,1.3-5.5,1.9c0.1,0.5,0.1,0.9,0.2,1.4c-0.4-0.4-0.8-0.7-1.2-1c-2.6,1-4.7,1.9-6.1,2.5c0.3,0.3,0.7,0.5,1.1,0.8
			c1.1,0.7,2.4,1.4,3.7,2c-1.4,0.2-2.7,0.5-3.9,0.9c-3.7,1.2-4,2.7-3.5,4.2c0.5,1.5,1.6,2.5,5.4,1.2c1.2-0.4,2.5-1,3.7-1.6
			c-0.7,1.2-1.3,2.5-1.8,3.6c-1.4,3.7-0.5,4.8,1,5.4c1.5,0.6,3,0.3,4.3-3.4c0.4-1.1,0.8-2.4,1-3.7c0.5,1.2,1.2,2.4,1.8,3.4
			c2.1,3.3,3.6,3.2,4.9,2.4c1.3-0.9,2-2.2-0.1-5.5c-0.7-1.1-1.7-2.4-2.7-3.4c1.4,0.4,3,0.7,4.3,0.8c3.9,0.3,4.8-0.9,4.9-2.5
			S194.8,345,190.9,344.6z M183.5,347.5c-0.8,1.1-2.3,1.4-3.4,0.7c-1.1-0.8-1.4-2.3-0.7-3.4c0.8-1.1,2.3-1.4,3.4-0.7
			S184.2,346.4,183.5,347.5z"/>
	</g>
	<g>
		<g>
			<g>
				<g>
					<rect x="248.2" y="370.9" class="st5" width="1" height="129.3"/>
				</g>
				<g>
					<circle class="st6" cx="261.7" cy="390.9" r="6.1"/>
				</g>
				<g>
					<circle class="st6" cx="261.7" cy="421.6" r="6.1"/>
				</g>
				<g>
					<circle class="st6" cx="261.7" cy="452.3" r="6.1"/>
				</g>
				<g>
					<circle class="st6" cx="261.7" cy="483" r="6.1"/>
				</g>
			</g>
			<g>
				<path class="st5" d="M153.7,363.8l-0.1,0.6c0,0.1,0,0.2,0,0.2c0,0,0,0,0,0l0,0.1c15.8,3,16.4,64.9,16.4,65.5l0.3-0.4l0.2-0.3
					l0.1,0.3l0.1,0.5C171.2,430.7,170.3,366.9,153.7,363.8z"/>
			</g>
			<g>
				<path class="st5" d="M340.6,363.8l0.1,0.6c0,0.1,0,0.2,0,0.2c0,0,0,0,0,0l0,0.1c-15.8,3-16.4,64.9-16.4,65.5l-0.3-0.4l-0.2-0.3
					l-0.1,0.3l-0.1,0.5C323.1,430.7,324,366.9,340.6,363.8z"/>
			</g>
		</g>
		<circle class="st7" cx="259.9" cy="388.8" r="1.6"/>
		<circle class="st7" cx="259.9" cy="419.3" r="1.6"/>
		<circle class="st7" cx="259.9" cy="450.1" r="1.6"/>
		<circle class="st7" cx="259.9" cy="480.9" r="1.6"/>
	</g>
	<g>
		<g>
			<path class="st3" d="M247.9,363c-20.1,0-37-13.3-41.5-31.2c-2.1,1-7.9,3.5-7.9,3.5c-2.4,5.8,3.8,7.3,3.8,7.3h0
				c-1.9,4,0.8,8.7,5.2,9l0,0l-0.3,1.2c-0.9,3.7,2.2,7.2,6,6.7l1.2-0.1l0,1.6c-0.1,3.6,3.5,6.2,7,5.1l1.5-0.5l0.3,1.8
				c0.7,3.5,4.6,5.2,7.6,3.4l1.6-0.9l0.6,1.5c1.4,3.4,5.7,4.3,8.4,1.8l1.2-1.1l0.8,1.1c2.2,3.1,6.7,3.1,8.8,0l0.8-1.1l1.5,1.4
				c2.5,2.3,6.5,1.5,7.9-1.7l0.8-1.9l1.5,0.9c3,1.8,7,0.1,7.7-3.4l0.3-1.8l1.6,0.6c3.4,1.2,6.9-1.4,6.9-5l0-1.7l1,0.1
				c3.9,0.5,7.1-3.1,6.2-6.9l-0.2-1l1.1-0.1c3.9-0.3,6.2-4.4,4.6-7.9l-0.5-1c0,0,6.2-2.1,4.3-7.9c0,0-6.3-2-8.4-3
				C284.9,349.7,268.1,363,247.9,363z"/>
		</g>
		<g>
			<path class="st8" d="M289.4,331.8c-1,4.5-3,8.9-5.5,12.8c-2.6,3.9-5.9,7.3-9.6,10.2c-7.5,5.7-16.9,8.7-26.3,8.7
				c-9.4,0-18.8-3-26.3-8.7c-3.8-2.8-7-6.3-9.6-10.2c-2.6-3.9-4.5-8.3-5.5-12.8c2.5,9,8.1,16.9,15.6,22.3c7.5,5.4,16.7,8.4,25.9,8.3
				c9.2,0,18.4-2.9,25.9-8.3C281.3,348.7,287,340.8,289.4,331.8z"/>
		</g>
	</g>
	<path class="st9" d="M343.1,153.3c0,75.7-26.9,137.5-95.9,137.5c-69,0-94.6-62.6-94.6-138.3c0-75.7,64.2-91,95.7-91
		S343.1,77.6,343.1,153.3z"/>
	<path class="st10" d="M214.1,245.4c10.5,6.3,21.6,10.3,33,10.1c11.4,0,22.3-4.4,33.2-10.1c-4,4.7-9,8.6-14.6,11.4
		c-5.7,2.9-12.1,4.4-18.5,4.5c-6.4,0-12.9-1.4-18.6-4.2C222.9,254.4,217.8,250.5,214.1,245.4z"/>
	<g>
		<polygon class="st11" points="190.2,196.4 179,190.2 191.4,193.6 		"/>
	</g>
	<g>
		<polygon class="st11" points="191.4,211.9 179,216.3 190.1,209.2 		"/>
	</g>
	<g>
		<polygon class="st11" points="190.9,204.2 170.5,203.7 190.7,201.2 		"/>
	</g>
	<g>
		<polygon class="st11" points="306.3,193.6 318.7,190.2 307.4,196.4 		"/>
	</g>
	<g>
		<polygon class="st11" points="307.5,209.2 318.7,216.3 306.2,211.9 		"/>
	</g>
	<g>
		<polygon class="st11" points="307,201.2 327.1,203.7 306.8,204.2 		"/>
	</g>
	<path class="st12" d="M225.6,201.8c0,10.4-8.5,18.8-19,18.8c-10.5,0-19-8.4-19-18.8c0-10.4,8.5-18.8,19-18.8
		C217.1,183,225.6,191.4,225.6,201.8z"/>
	<path class="st13" d="M220.7,201.8c0,7.3-5.9,13.2-13.1,13.2c-7.3,0-13.1-5.9-13.1-13.2c0-7.2,5.9-13.1,13.1-13.1
		C214.8,188.6,220.7,194.5,220.7,201.8z"/>
	<path class="st3" d="M202,195c0,2.1-1.7,3.8-3.8,3.8c-2.1,0-3.8-1.7-3.8-3.8c0-2.1,1.7-3.8,3.8-3.8C200.3,191.2,202,192.9,202,195z
		"/>
	<path class="st12" d="M272.2,201.8c0,10.4,8.5,18.8,19,18.8c10.5,0,19-8.4,19-18.8c0-10.4-8.5-18.8-19-18.8
		C280.7,183,272.2,191.4,272.2,201.8z"/>
	<path class="st13" d="M277.1,201.8c0,7.3,5.9,13.2,13.1,13.2c7.3,0,13.1-5.9,13.1-13.2c0-7.2-5.9-13.1-13.1-13.1
		C283,188.6,277.1,194.5,277.1,201.8z"/>
	<path class="st3" d="M277.8,195c0,2.1,1.7,3.8,3.8,3.8c2.1,0,3.8-1.7,3.8-3.8c0-2.1-1.7-3.8-3.8-3.8
		C279.5,191.2,277.8,192.9,277.8,195z"/>
	<g>
		<path class="st11" d="M210.5,250.1c0.7-1.1,1.4-2.1,2.1-3.2c0.7-1,1.4-2,2.1-3c0.7-1,1.5-2,2.3-2.9c0.8-1,1.6-1.9,2.6-2.8
			c-0.3,1.3-0.7,2.5-1.3,3.6c-0.6,1.1-1.2,2.2-2,3.3c-0.7,1-1.6,2-2.5,2.9C212.8,248.9,211.7,249.7,210.5,250.1z"/>
	</g>
	<g>
		<path class="st11" d="M284.8,250.1c-1.2-0.5-2.3-1.3-3.2-2.1c-0.9-0.9-1.8-1.8-2.5-2.9c-0.8-1-1.4-2.1-2-3.3
			c-0.6-1.1-1-2.3-1.3-3.6c1,0.9,1.8,1.8,2.6,2.8c0.8,1,1.5,1.9,2.3,2.9c0.7,1,1.4,2,2.1,3C283.5,248,284.1,249,284.8,250.1z"/>
	</g>
	<path class="st14" d="M350,122.9c-2.3-19.4-52.8-73.3-103.1-73.3s-100.7,53.9-103,73.3c-5.3,44.4,13.2,85.9,13.2,85.9
		c-0.1-72.7,46.7-88.8,89.9-88.8s90,16.1,89.9,88.8C336.9,208.8,355.3,167.3,350,122.9z"/>
	<path class="st15" d="M250.9,114.6c-2.2-4-3.2-8.4-3.3-12.9c-0.2-4.5,0.9-8.8,2-13.1c1.1-4.3,2.4-8.4,3.7-12.6
		c1.3-4.2,2.7-8.4,3.7-12.6c-0.9,4.3-2.2,8.5-3.4,12.7c-1.2,4.2-2.5,8.4-3.5,12.7c-1,4.3-1.9,8.6-1.7,12.9c0.2,4.3,1.2,8.7,3.4,12.3
		L250.9,114.6z"/>
	<path class="st15" d="M155.6,102.3c0.1,2-2.4,43.9,14.9,45.3c0,0,10.5-17.7,23.9-21.8c0,0-11.4,1.5-15.4-10
		c-4.1-11.5-4.6-33.4-4.6-33.4S165.2,89.9,155.6,102.3z"/>
	<path class="st15" d="M282.6,100.7c-4.1,11.5-10.8,15.1-10.8,15.1c13.4,4.1,23.9,9.5,23.9,9.5c14.2-1.2,10.4-41.1,8.6-55.4
		c-6.6-4.5-13.6-8.5-21-11.7C284.2,68.7,285.7,91.9,282.6,100.7z"/>
	<path class="st15" d="M157.8,156.9c2.6,3.1,5.6,2.6,5.6,2.6c5.2-1,1.8-5.9,1.8-5.9c-3.3,1.4-8-5.1-12-14.9
		c-2.7-6.7-4.7-17.6-5.7-23.7c-0.4,0.9-0.8,1.8-1.2,2.6C148.2,137.6,155.5,154,157.8,156.9z"/>
	<path class="st15" d="M324.5,86.1c-0.9,5.7-3,18-5.9,25.2c-4,9.7-12.1,19-15.3,17.6c0,0,4.3,2.4,5.9,4.2c0,0,2.3-0.5,4.8-3.6
		c2.5-3,10.4-20.9,11.7-42.4C325.3,86.8,324.9,86.4,324.5,86.1z"/>
	<path class="st15" d="M206.7,118.3c2.1,1.8,5.5,1.5,6.8,0.9c1.3-0.5,5.2-1.2,5.2-1.2c-5.7-1.9-6.8-7.7-6.8-7.7
		c2.3,5.5,9.4,7.3,10.5,7.1s8-1.5,10.1-1.6s5.2-1.1,5.2-1.1c0.6-1.7-3.6-4.5-8.8-12.1c-6.3-9.2-7.2-36.8-7.3-48.5
		c-7.5,2.5-14.7,5.8-21.6,9.8c-1,8.8-2.2,23.1-1.8,32.9C198.9,111.8,204.6,116.4,206.7,118.3z"/>
	<path class="st15" d="M253.8,84.2c-2.3,14.9-0.5,30-0.5,30c1.5,0,7.3,0.4,7.3,0.4c2.4-9.5,3.5-17.7,2.5-24
		c-1.1-6.3,1.1-17.6,2.5-25.7c1-5.4,0.7-10.4,0.3-13.1c-1.7-0.4-3.4-0.7-5.1-1C261.4,62,255.9,70.1,253.8,84.2z"/>
	<path class="st14" d="M235.3,116.1c-3.2-3.4-6.4-7-9.2-10.8c-1.4-1.9-2.8-3.9-3.6-6.2c-0.8-2.2-1.4-4.5-1.8-6.9
		c-0.9-4.6-1.3-9.3-1.6-14c-0.3-4.7-0.3-9.4-0.2-14.1c-0.1,4.7,0.1,9.4,0.4,14.1c0.4,4.7,0.9,9.4,1.9,13.9c0.5,2.3,1.1,4.6,1.9,6.7
		c0.8,2.2,2.2,4.1,3.6,5.9c2.8,3.7,6,7.2,9.3,10.5L235.3,116.1z"/>
	<path class="st15" d="M345.4,111.2c-2.3-4-5.5-8.3-9.2-12.9c0,12.4-1,41.4-11.4,48.8c0,0,4.5,4.8,8.1,14.3
		C332.8,161.4,346,163.7,345.4,111.2z"/>
	<path class="st14" d="M275.6,118.3c1.6-1,3.1-2.4,4.3-4c1.2-1.6,2.3-3.3,3.1-5.2c0.9-1.8,1.6-3.7,2.2-5.7l0.8-3l0.6-3
		c0.1-0.5,0.2-1,0.3-1.5l0.2-1.5l0.4-3c0.1-2,0.3-4.1,0.3-6.1c0-2,0-4.1-0.1-6.2l-0.4-6.1l0.5,6.1c0.1,2,0.1,4.1,0.2,6.2
		c0,2.1-0.1,4.1-0.2,6.2l-0.3,3.1l-0.2,1.5c-0.1,0.5-0.2,1-0.3,1.5l-0.5,3l-0.8,3c-0.6,2-1.2,4-2.1,5.8c-0.8,1.9-1.9,3.7-3.1,5.4
		l-1,1.2l-1.1,1.2c-0.8,0.7-1.5,1.4-2.5,2L275.6,118.3z"/>
	<path class="st14" d="M330.3,159.7c0.5,0,1.2-0.3,1.8-0.7c0.6-0.4,1.1-0.8,1.6-1.4c0.3-0.2,0.5-0.5,0.7-0.8
		c0.2-0.3,0.4-0.6,0.6-0.9c0.4-0.6,0.8-1.2,1.1-1.9c1.4-2.5,2.3-5.3,3.1-8.1c0.4-1.4,0.8-2.8,1-4.3c0.3-1.4,0.6-2.9,0.8-4.3
		c0.5-2.9,0.8-5.8,1.1-8.7c-0.3,2.9-0.5,5.9-0.9,8.8c-0.2,1.5-0.4,2.9-0.7,4.4c-0.2,1.5-0.6,2.9-0.9,4.3c-0.7,2.9-1.6,5.7-2.9,8.4
		c-0.3,0.7-0.7,1.3-1.1,2c-0.2,0.3-0.4,0.6-0.7,0.9c-0.2,0.3-0.4,0.6-0.7,0.9c-0.5,0.6-1.1,1.1-1.7,1.5c-0.3,0.2-0.7,0.4-1,0.6
		c-0.4,0.2-0.7,0.3-1.2,0.3L330.3,159.7z"/>
	<path class="st16" d="M336.1,171.9c-2.5-2.5-2.7-2.9-3.8-9.4c-1.1-6.5-10.5-17.7-13.9-20.9c-3.4-3.1,0.4-4-2-6.2
		c-2.5-2.1-2.5,1.2-7.2-1.2c-4.7-2.5-20.6-10.8-22-10.8s0-4.3-1.6-3.7c-1.6,0.5-2,2.4-4.3,1.3c-2.2-1.1-15.3-2.9-16.2-2.9
		c-0.9,0-4.5-3.4-2.9-9.1c-2.7,3.4-4.7,7.5-14.3,6.9c-9.6-0.6-24.1,3.6-29,3.9c-4.9,0.3-13.9,3.4-19.4-14
		c1.9,12.4,9.6,17.8,6.4,18.4c-3.1,0.7-3.9-1.6-5.8-2.7c0.4,3.9-1.3,5.2-4.7,6.5c-3.4,1.3-19.7,13.5-20.9,15.5s-3.8,6.7-6.9,6.7
		c-3.1,0-0.1,4.8-0.1,7.1s-4.4,3.3-4.4,3.3s-7.4,19.5-5,43.3c0,0,0,0,0,0c2.1-68.4,47.6-83.8,89.9-83.8c41,0,85.1,14.5,89.6,77.8
		c0.9-11-1.2-19-1.4-19.7C335.8,177.3,338.5,174.3,336.1,171.9z"/>
	<path class="st15" d="M242.3,112.4c0,0-17.4-5-9,13.6c8.4,18.6-1.8,17.7-1.8,17.7s4.8-1.4,3-6.5c-1.9-5-8-16.2-7.1-21.6
		C228.2,110.3,237.8,103.5,242.3,112.4z"/>
	<path class="st15" d="M269,114.4c-0.2-0.8,0.1-1.7,0.6-2.5c0.5-0.8,1.2-1.4,2-1.8c0.8-0.4,1.5-0.7,2.7-0.7c1.1,0.1,2.1,0.5,2.9,1.1
		c1.6,1.2,2.3,3,2.7,4.6c0.3,1.7,0.3,3.4,0.1,5c-0.3,1.6-0.8,3.2-1.6,4.6l-0.6,1l-0.6,0.9c-0.4,0.6-0.7,1.3-1,1.9
		c-0.6,1.3-1.1,2.7-1,4.1c0,0.7,0.2,1.4,0.6,1.9c0.4,0.5,1.1,0.7,1.8,0.6l0.1,0.3c-0.7,0.3-1.7,0.2-2.4-0.4c-0.7-0.6-1-1.4-1.1-2.2
		c-0.3-1.6,0-3.2,0.5-4.8c0.2-0.8,0.5-1.5,0.9-2.2l0.5-1.1l0.4-1c0.5-1.3,0.9-2.7,1-4c0.1-1.4-0.1-2.7-0.6-4c-0.4-1.2-1-2.4-1.8-3.1
		c-0.4-0.4-0.8-0.6-1.2-0.7c-0.3-0.1-1.1,0-1.7,0.1c-1.2,0.2-2.4,0.9-3,2.3L269,114.4z"/>
	<path class="st16" d="M334.7,168.3c0.2-0.8,0.7-1.6,1.4-2.1c0.7-0.5,1.6-0.8,2.5-0.9c0.9-0.1,1.7-0.1,2.8,0.3
		c1,0.4,1.8,1.2,2.3,2.1c1,1.7,1.1,3.6,0.8,5.3c-0.3,1.7-0.9,3.3-1.7,4.7c-0.8,1.4-1.9,2.7-3.2,3.7l-0.9,0.7l-0.9,0.7
		c-0.6,0.5-1.1,0.9-1.6,1.4c-1,1-2,2.1-2.4,3.5c-0.2,0.6-0.3,1.4-0.1,2c0.2,0.6,0.8,1.1,1.5,1.2l0,0.3c-0.8,0-1.6-0.5-2-1.3
		c-0.4-0.8-0.4-1.7-0.2-2.5c0.3-1.6,1.2-3,2.2-4.2c0.5-0.6,1-1.2,1.6-1.7l0.9-0.8l0.8-0.7c1-1,1.8-2.2,2.4-3.4
		c0.6-1.3,0.9-2.6,0.9-3.9c0-1.3-0.1-2.6-0.5-3.5c-0.2-0.5-0.5-0.8-0.8-1.1c-0.3-0.2-1-0.4-1.6-0.6c-1.2-0.2-2.6-0.1-3.6,1
		L334.7,168.3z"/>
	<path class="st3" d="M221.8,114.7c-1.3,0.1-2.5-0.2-3.7-0.7c-0.6-0.2-1.1-0.6-1.7-0.9c-0.5-0.3-1-0.8-1.5-1.1c-2-1.7-3.2-4-4.1-6.3
		c-0.5-1.1-0.8-2.3-1.2-3.5c-0.3-1.2-0.6-2.4-0.8-3.6c-0.1-1.2-0.3-2.4-0.4-3.6l-0.1-3.6l0.2,0l0.5,3.6c0.2,1.2,0.5,2.3,0.8,3.5
		c0.3,1.1,0.7,2.3,1.1,3.4c0.5,1.1,0.8,2.2,1.4,3.2c1.1,2.1,2.5,3.9,4.1,5.5c1.6,1.6,3.4,3.1,5.6,4L221.8,114.7z"/>
	<path class="st3" d="M213.6,117.9c-2-0.1-3.8-1-5.4-2.2c-1.6-1.2-2.8-2.8-3.8-4.5c-1-1.7-1.8-3.4-2.4-5.3c-0.3-0.9-0.4-1.9-0.7-2.8
		c-0.2-0.9-0.3-1.9-0.4-2.8l0.2,0c0.3,0.9,0.5,1.8,0.8,2.7c0.3,0.9,0.6,1.8,1,2.6c0.7,1.7,1.7,3.3,2.7,4.7c1.1,1.4,2.5,2.6,3.8,3.8
		c1.3,1.2,2.7,2.4,4.2,3.5L213.6,117.9z"/>
	<path class="st3" d="M327.1,147.5c2.5-2.2,4.1-5.1,5.4-8.1c0.3-0.7,0.7-1.5,0.9-2.3c0.3-0.8,0.6-1.5,0.9-2.3l0.8-2.3l0.6-2.4
		c0.2-0.8,0.4-1.6,0.5-2.4l0.4-2.5c0.2-1.7,0.4-3.3,0.5-5c0.1-1.7,0.3-3.3,0.3-5l0.1-5l0.2,0l0.3,5c0.1,1.7,0.1,3.4,0.1,5.1
		c0,1.7-0.2,3.4-0.3,5.1l-0.3,2.5c-0.1,0.8-0.2,1.7-0.4,2.5c-0.5,3.4-1.4,6.7-3,9.8c-0.8,1.5-1.8,3-2.9,4.3
		c-1.2,1.3-2.5,2.4-4.1,3.1L327.1,147.5z"/>
	<path class="st3" d="M171.2,144.2c-1,0.2-1.9-0.1-2.8-0.5c-0.8-0.4-1.6-1-2.3-1.7c-1.3-1.4-2-3.1-2.6-4.8c-0.3-0.8-0.6-1.7-0.8-2.6
		c-0.2-0.9-0.4-1.7-0.6-2.6c-0.1-0.9-0.3-1.7-0.4-2.6l-0.2-2.6l0.2,0l0.6,2.5c0.2,0.8,0.5,1.7,0.7,2.5c0.2,0.8,0.6,1.6,0.8,2.4
		c0.3,0.8,0.7,1.6,1,2.3c0.8,1.5,1.8,2.8,2.7,4.1c0.9,1.3,2,2.5,3.5,3.4L171.2,144.2z"/>
	<path class="st3" d="M295.4,119.5c0.8-0.6,1.3-1.4,1.8-2.3c0.5-0.9,0.8-1.8,1.2-2.7c0.3-0.9,0.6-1.9,0.8-2.8c0.2-1,0.4-1.9,0.6-2.9
		c0.7-3.9,1.2-7.8,1.4-11.8c0.1-2,0.2-4,0.1-6c0-2,0-4-0.2-6c-0.1-4-0.5-8-0.8-12.1l0.2,0c0.6,4,1.2,8,1.6,12c0.2,2,0.3,4,0.5,6.1
		c0.2,2,0.2,4.1,0.2,6.1c0,4.1,0,8.2-1,12.2c-0.2,1-0.6,2-0.9,3c-0.2,0.5-0.4,1-0.6,1.5c-0.2,0.5-0.4,1-0.7,1.4
		c-0.3,0.5-0.5,0.9-0.8,1.4c-0.3,0.4-0.6,0.9-0.9,1.3c-0.7,0.8-1.5,1.6-2.5,1.9L295.4,119.5z"/>
</g>
<g id="Layer_3">
</g>
<g id="BEELD">
</g>
<g id="Layer_7" class="st17">
	<line class="st18" x1="-394.5" y1="572.2" x2="-394.5" y2="1602.8"/>
</g>
<g id="Layer_8">
</g>
</svg>
