<?xml version="1.0" encoding="utf-8"?>
<!-- Generator: Adobe Illustrator 24.3.0, SVG Export Plug-In . SVG Version: 6.00 Build 0)  -->
<svg version="1.1" xmlns="http://www.w3.org/2000/svg" xmlns:xlink="http://www.w3.org/1999/xlink" x="0px" y="0px"
	 viewBox="0 0 450 500" style="enable-background:new 0 0 450 500;" xml:space="preserve">
<style type="text/css">
	.st0{fill:#AFB1B4;}
	.st1{fill:#BFA573;}
	.st2{fill:#D0B37D;}
	.st3{fill:#877A45;}
	.st4{fill:#494032;}
	.st5{fill:#896B4E;}
	.st6{fill:#2A1D01;}
	.st7{fill:#FFFFFF;}
	.st8{fill:#00B4AC;}
	.st9{fill:#360000;}
	.st10{fill:#F4F4F4;}
	.st11{fill:none;stroke:#DBDCDD;stroke-miterlimit:10;}
	.st12{fill:#272524;}
	.st13{fill:#393735;}
	.st14{fill:#4F4C49;}
	.st15{fill:none;stroke:#CDDDC0;stroke-width:1.5;stroke-miterlimit:10;}
	.st16{display:none;}
	.st17{display:inline;fill:none;stroke:#231F20;stroke-width:0.5;stroke-miterlimit:10;}
</style>
<g id="Layer_5">
	<path class="st0" d="M204.8,347.5c0,0-5.9-29.1-2.4-31.6c3.5-2.5,46.8-8.7,65.6-1.4l2.9,32.9l-57.7,26.1L204.8,347.5z"/>
</g>
<g id="Layer_2">
	<path class="st1" d="M324.5,364.3c0,0-2.8-13.5-24.6-20.8c-21.8-7.3-38.5-14.7-38.5-30.2c0-15.5,0-40.9,0-40.9H235h-26.4
		c0,0,0,25.3,0,40.9c0,15.5-16.6,22.9-38.5,30.2c-21.8,7.3-24.6,20.8-24.6,20.8L85.4,501.6h37.8l35.7-78.2l14.7,78.2H235h61.4
		l14.7-78.2l35.7,78.2h37.8L324.5,364.3z"/>
	<path class="st2" d="M330.2,154.7c0,75.7-26.9,137.5-95.9,137.5c-69,0-94.6-62.6-94.6-138.3c0-75.7,64.2-91,95.7-91
		S330.2,79,330.2,154.7z"/>
</g>
<g id="Layer_4">
	<path class="st3" d="M2313.8-121"/>
	<polygon class="st3" points="2323.4,-106.2 2320.8,-102.4 2318.2,-102.2 2310.8,-116.2 2313.8,-121 	"/>
	<path class="st4" d="M200.3,246.7c10.5,6.3,21.6,7.3,33,7.1c11.4,0,22.3-1.4,33.2-7.1c-4,4.7-15.2,12.9-33.2,12.9
		S203.9,251.8,200.3,246.7z"/>
	<path class="st5" d="M211.7,203.1c0,10.4-8.5,18.8-19,18.8c-10.5,0-19-8.4-19-18.8c0-10.4,8.5-18.8,19-18.8
		C203.2,184.3,211.7,192.7,211.7,203.1z"/>
	<path class="st6" d="M206.8,203.1c0,7.3-5.9,13.2-13.1,13.2c-7.3,0-13.1-5.9-13.1-13.2c0-7.2,5.9-13.1,13.1-13.1
		C200.9,189.9,206.8,195.8,206.8,203.1z"/>
	<path class="st7" d="M188.2,196.3c0,2.1-1.7,3.8-3.8,3.8c-2.1,0-3.8-1.7-3.8-3.8s1.7-3.8,3.8-3.8
		C186.4,192.5,188.2,194.2,188.2,196.3z"/>
	<path class="st5" d="M258.3,203.1c0,10.4,8.5,18.8,19,18.8c10.5,0,19-8.4,19-18.8c0-10.4-8.5-18.8-19-18.8
		C266.8,184.3,258.3,192.7,258.3,203.1z"/>
	<path class="st6" d="M263.2,203.1c0,7.3,5.9,13.2,13.1,13.2c7.3,0,13.1-5.9,13.1-13.2c0-7.2-5.9-13.1-13.1-13.1
		C269.1,189.9,263.2,195.8,263.2,203.1z"/>
	<path class="st7" d="M263.9,196.3c0,2.1,1.7,3.8,3.8,3.8c2.1,0,3.8-1.7,3.8-3.8s-1.7-3.8-3.8-3.8
		C265.7,192.5,263.9,194.2,263.9,196.3z"/>
	<path class="st8" d="M330.5,351.9c0,0-1.2-2.7-8.4-6c-9.9-4.5-10-4.3-46-17l-41.2,30.9L193.7,329c-36,12.7-36.1,12.4-46,17
		c-7.2,3.3-8.4,6-8.4,6L82.4,501.6h42.8l32.5-69.6l5.3,69.6l70.3,2l0,0.1l1.6,0l1.6,0l0-0.1l70.3-2l5.3-69.6l32.5,69.6h42.8
		L330.5,351.9z"/>
	<circle class="st9" cx="2813.2" cy="-110.3" r="2.7"/>
</g>
<g id="Layer_1">
	<path class="st10" d="M202,316.1c1,11.8,33.3,43.5,33.3,43.5s34.2-28.2,32.7-44.9l16.2,18.8c0,12.7-30.4,51.1-30.4,51.1l-18.3-24.3
		l-17.7,25.3c0,0-30.9-36.7-30.9-54.3L202,316.1z"/>
	<path class="st11" d="M283.9,333.4c0,12.7-30.4,51.1-30.4,51.1l-18.3-24.3l-17.7,25.3c0,0-30.9-36.7-30.9-54.3"/>
	<path class="st12" d="M333.1,125.4c-0.7-3-1.4-6-2.3-8.9c-0.8-2.7-1.8-9-1.8-9s-1.6-0.3-1.9-1c-0.7-1.7-1.4-6.9-1.4-6.9
		s-4.8-4.2-7.3-7.1c-1.7-2-6.9-8.3-6.9-8.3l-2.4,0.2L303,80c0,0-2.9-5-5-6.7c-0.8-0.6-2.6,0.8-3.4,0.1c-1.2-1-3.8-2.8-3.8-2.8
		L288,67l-8.4-2.2c0,0-1.9-1.5-2.9-1.7c-2-0.3-6.3,0.5-6.3,0.5l-2.4-2.1l-7.7,1l-5.4-2.8l-2.2,1.7l-5.1-0.6c0,0-2-1.2-3-1.3
		c-1.5-0.2-4.4,0.6-4.4,0.6s-3.7-1.2-5.2-1.2c-2.6,0-9.7,1.7-9.7,1.7l-3.5-0.5l-5.8,1.9c0,0-3-0.5-4.4-0.3c-1.7,0.3-4.8,1.8-4.8,1.8
		l-5.3,0.1l-2.3,1l-4.7-0.6l-3.8,1.8c0,0-2.2-0.3-3.2,0.2c-0.4,0.2-1.3-0.4-1.3-0.4l-5.3,4.1l-4.4,3.2l-2.3,0c0,0-1.4,2.9-2.6,3.9
		c-1.5,1.2-4.9,2.3-6.3,3.3c-1,0.7-0.1,1.5-1.3,2.3c-0.5,0.4-3,0.7-3.6,1.1c-0.8,0.6,0.3,1.2-0.5,1.8c-3.2,2.4-6.2,4.9-8.2,7.2
		c-1.3,1.5-2.5,3.1-3.6,4.8c-2.2,3.3-4,6.7-5.6,10.3c-0.6,1.3-1.1,2.7-1.6,4.1c-1.6,4.4-2.8,9-3.9,13.7c-1.5,7-0.3,14.3-0.6,21.8
		c-1.5,45.1,11.3,70.8,11.3,70.8c9.3-6.9-2.5-63.2,25.8-81.9c9-5.9,56.3-6.5,61.7-6.5s52.5,0.6,61.4,6.5
		c28.3,18.7,16.4,75,25.8,81.9c0,0,12.8-25.7,11.3-70.8C333.5,139.7,334.7,132.4,333.1,125.4z"/>
	<path class="st13" d="M322.5,187c0,0-1.7-2.9-2.3-8.8c-1.4-15.4-4.7-43.9-10.7-48.8c-8.3-6.8-24.5-2.9-28.6-3.1
		c-4.1-0.2-18.5-3.9-21.6-8.2c0,0-13.1,4.5-24.2,4.5c-11,0-17.3-4.3-17.3-4.3s-10.8,5.6-14.2,5.6c-3.4,0-8.6-2.7-8.6-2.7
		s-0.5,3-4.1,4.7c-6.4,2.9-22.5-0.9-25.5,3.2c-3.1,4.1-12.8,15.3-13.3,35.2c-0.5,19.9-4.7-2.2-4.7-4.1s2.5-31.3,3.8-32.2
		c1.3-0.9,5.7-3.4,5.7-3.4s-5.8-11.2,3.8-19.9c2.7-2.5,16,0,16,0s-1.4-15.8,4-18.3c5.3-2.5,12.1,3,19.7-0.7
		c11.9-5.9,16.7,10.2,20.8,7.4c4.1-2.9,5.6-17.1,15.4-11.9c19.6,10.4,11.7-0.2,25.3,1.6c13.7,1.8,8.9,8.1,18.8,13.8
		c10.3,5.9,18.2,1.4,21.2,4.7c3.1,3.2,3.8,16,16.3,21c12.6,5,5.2,50.7,5.7,53.9S325.2,187,322.5,187z"/>
</g>
<g id="Layer_3">
	<path class="st14" d="M215.1,115.4c0,0-9.5,6-13.2,5.8c-3.7-0.2-8.7-6.9-9.2-14.4c0,0,4.9,10,7.7,10.6c2.8,0.6,2.5-6,4.9-4.8
		c2.5,1.2,4.4,2.1,5.7,1.4c3.3-1.9-1.5-25.8-8.9-38C202,76,220.6,105.7,215.1,115.4z"/>
	<path class="st14" d="M260.1,98.6c0,0-0.4,15.8-6,16.5c-5.6,0.7,0-46.4,0-46.4s-4.6,30.6-4.9,34.4s-2.5,5.9-3.8,6
		c-1.4,0.1,0.3,6-1.4,6.8c-1.6,0.8-6.3,1.9-7.5-4.8c0,0-0.3,6.7,4.6,7.6c4.9,1,16.2-1.5,18.1-3.7
		C261.2,112.9,261.3,102.9,260.1,98.6z"/>
	<path class="st14" d="M171.2,121.9c2.3-0.1,4.6-0.1,6.9-0.1c2.3,0,4.6,0,6.8,0c1.1,0,2.3-0.1,3.2-0.3c0.9-0.1,1.4-0.7,1.8-1.6
		c0.3-0.9,0.3-2,0.2-3.1c-0.1-1.1-0.4-2.2-0.7-3.3c0.7,0.9,1.3,2,1.7,3.1c0.4,1.1,0.6,2.4,0.4,3.7c-0.1,0.7-0.4,1.4-0.9,1.9
		c-0.3,0.3-0.5,0.5-0.8,0.7c-0.3,0.2-0.7,0.4-1,0.4c-1.3,0.4-2.5,0.4-3.6,0.5c-2.4,0.1-4.7-0.1-7-0.4
		C175.8,123.1,173.5,122.6,171.2,121.9z"/>
	<path class="st14" d="M266.4,88c-0.4,5.3-0.7,10.6-0.8,15.8c0,2.6,0,5.3,0.3,7.8c0.1,1.3,0.3,2.6,0.6,3.8c0.3,1.2,0.7,2.4,1.4,3.2
		c0.3,0.4,0.8,0.7,1.3,1.1c0.5,0.3,1,0.7,1.5,0.9c1.1,0.5,2.2,0.6,3.3,0.4c0.6-0.1,1.2-0.3,1.8-0.5c0.6-0.2,1.3-0.4,2.2-0.5
		c0.2,0,0.4,0,0.7,0c0.2,0,0.5,0.1,0.7,0.2c0.3,0.1,0.4,0.2,0.6,0.3c0.2,0.1,0.3,0.3,0.5,0.4c0.3,0.3,0.5,0.8,0.6,1.1
		c0.1,0.3,0.1,0.2,0.2,0.3c0.4,0.2,1.1,0.3,1.7,0.3c0.6,0,1.3,0.1,1.9,0.1c1.3,0,2.5-0.1,3.8-0.5c2.5-0.7,4.8-1.9,7-3.5
		c-1.8,1.9-4.1,3.5-6.7,4.5c-1.3,0.5-2.6,0.8-4,0.9c-0.7,0-1.3,0-2,0c-0.7,0-1.4,0-2.2-0.3c-0.2-0.1-0.5-0.2-0.7-0.5
		c-0.1-0.1-0.2-0.2-0.3-0.3l-0.1-0.3c-0.1-0.3-0.2-0.4-0.4-0.6c-0.1-0.1-0.2-0.1-0.3-0.2c-0.1-0.1-0.2-0.2-0.3-0.2
		c-0.1,0-0.1-0.1-0.2-0.1c-0.1,0-0.2,0-0.3,0c-1,0.1-2.3,0.8-3.7,1.1c-1.4,0.3-3.1,0.2-4.4-0.4c-0.7-0.3-1.3-0.7-1.9-1.1
		c-0.6-0.4-1.1-0.8-1.7-1.5c-1-1.3-1.4-2.7-1.7-4c-0.3-1.4-0.5-2.7-0.6-4.1c-0.2-2.7-0.2-5.4,0-8.1C264.5,98.5,265.2,93.2,266.4,88z
		"/>
	<path class="st15" d="M-478.6-121.1"/>
</g>
<g id="BEELD">
</g>
<g id="Layer_7" class="st16">
	<line class="st17" x1="-419.5" y1="-29.8" x2="-419.5" y2="1000.8"/>
</g>
</svg>
