<?xml version="1.0" encoding="utf-8"?>
<!-- Generator: Adobe Illustrator 24.3.0, SVG Export Plug-In . SVG Version: 6.00 Build 0)  -->
<svg version="1.1" xmlns="http://www.w3.org/2000/svg" xmlns:xlink="http://www.w3.org/1999/xlink" x="0px" y="0px"
	 viewBox="0 0 500 500" style="enable-background:new 0 0 500 500;" xml:space="preserve">
<style type="text/css">
	.st0{fill:#634E42;}
	.st1{fill:#887D5D;}
	.st2{fill:#47372D;}
	.st3{fill:#D1BDA3;}
	.st4{fill:#3A3730;}
	.st5{fill:#1F1D16;}
	.st6{fill:#E7D1B5;}
	.st7{fill:#658171;}
	.st8{fill:#2A1D01;}
	.st9{fill:#FFFFFF;}
	.st10{fill:#937F74;}
	.st11{fill:#BBACA3;}
	.st12{fill:none;stroke:#1F1D16;stroke-miterlimit:10;}
	.st13{fill:#565148;}
	.st14{fill:none;stroke:#1F1D16;stroke-linecap:round;stroke-miterlimit:10;}
	.st15{fill:#CBD0D4;}
	.st16{fill:#AE9F77;}
	.st17{fill:#EAD49D;}
	.st18{fill:#FFF5CC;}
	.st19{fill:#FFFCF5;}
	.st20{fill:none;stroke:#FFFFFF;stroke-width:3;stroke-miterlimit:10;}
	.st21{fill:#5C564C;}
	.st22{fill:#7C7469;}
	.st23{fill:#002F3E;}
	.st24{fill:#001E2C;}
	.st25{fill:#7E6355;}
	.st26{fill:#004152;}
	.st27{fill:#187489;}
	.st28{fill:#FEF9EA;}
	.st29{fill:#EFE3BD;}
	.st30{display:none;}
	.st31{display:inline;fill:none;stroke:#231F20;stroke-width:0.5;stroke-miterlimit:10;}
</style>
<g id="Layer_5">
</g>
<g id="Layer_2">
</g>
<g id="Layer_4">
</g>
<g id="Layer_1">
	<g>
		<path class="st0" d="M134.7,156.1c0,0-0.1,21.7-2.6,25c-2.4,3.3-10.4,13.6-3.4,33.6c7,20,20.6,43.9,17.8,54.7
			c-2.8,10.8-11.9,32.3-11.9,32.3l17.7-6.8c0,0-13.5,16.6,15.3,27.5c28.8,11,70.9-8,94.1-5.8c23.2,2.2,48.5,11.5,52.5,9.3
			c4-2.2,15.2-20.1,15.2-20.1s6,9.2,14.3,10.8c12.6,2.4,23.9-6.3,23.9-6.3s-12.7,4.2-19.3-2.3c-6.6-6.5-4.5-24.4,7.8-42.3
			s31.1-54.5,13-115.5c-18.1-61-93.7-66.5-127-63.3C209,90,123.5,107.8,134.7,156.1z"/>
	</g>
	<g>
		<path class="st1" d="M230.2,344.9c0,0-16.5-4.3-24.3-11.9c-7.7-7.6-11.4-12.5-3.7-17.1s34-11.7,43.9-11.7c9.9,0,38.4-0.8,45.6,8.4
			s7.6,28.5-2.9,31.3C278.3,346.6,230.2,344.9,230.2,344.9z"/>
	</g>
	<g>
		<path class="st2" d="M340.8,161c2.7-1,5.8-0.6,8.3,0.8c2.6,1.4,4.6,3.8,6,6.3c1.4,2.5,2.3,5.2,3,7.9c0.7,2.7,1.1,5.5,1.3,8.2
			c0.5,5.5,0.4,11-0.1,16.4c-0.6,5.4-1.6,10.9-3.3,16.2c-0.9,2.6-1.9,5.3-3.4,7.7c-0.7,1.2-1.5,2.4-2.5,3.5c-0.9,1.1-2,2.1-3,3.1
			c-0.5,0.4-1,0.9-1.3,1.2c-0.1,0.1-0.1,0.1-0.1,0.2c0,0.1,0,0-0.1,0.1c0,0.1-0.1,0.3-0.1,0.5c0,0.9,0.5,2.1,1,3.2
			c1.1,2.3,2.5,4.5,4.1,6.6c0.8,1,1.6,2.1,2.4,3.1c0.2,0.3,0.4,0.5,0.7,0.8c0.2,0.3,0.4,0.7,0.6,1c0.3,0.7,0.6,1.4,0.7,2.1
			c0.6,2.9,0.3,5.7-0.4,8.4c-0.7,2.7-1.9,5.3-3.9,7.3c-1,1-2.3,1.7-3.7,2c-1.4,0.3-2.9,0-4.1-0.5l0.2-0.5c1.2,0.4,2.6,0.5,3.8,0.2
			c1.2-0.3,2.3-1,3.1-2c1.7-1.9,2.7-4.4,3.2-6.9c0.5-2.5,0.6-5.2-0.1-7.5c-0.2-0.6-0.4-1.1-0.7-1.6c-0.3-0.5-0.6-0.8-1.1-1.3
			c-0.9-1-1.9-2-2.7-3.1c-1.7-2.1-3.4-4.3-4.7-6.8c-0.6-1.3-1.3-2.6-1.5-4.4c0-0.4,0-0.9,0.1-1.5c0-0.2,0.2-0.6,0.3-0.8
			c0.1-0.2,0.3-0.5,0.4-0.6c0.6-0.7,1.1-1.2,1.5-1.7c1.9-1.8,3.3-3.7,4.5-6c1.2-2.2,2-4.6,2.7-7.1c1.3-5,1.9-10.2,2.2-15.4
			c0.3-5.2,0.6-10.5,0.4-15.7c-0.2-5.2-0.8-10.4-2.5-15c-0.9-2.3-2.2-4.4-4.1-6c-1.9-1.5-4.4-2.4-7-2.2L340.8,161z"/>
	</g>
	<g>
		<path class="st2" d="M161.7,217.1c-2.1,0.5-3.8,1.8-4.9,3.4c-1.1,1.6-1.6,3.6-1.8,5.6c-0.3,4,0.5,8.2,1.6,12.3
			c1.1,4.1,2.5,8.2,3.9,12.2c1.4,4,3,8.1,5.1,11.6c1.1,1.8,2.3,3.5,3.7,5c1.4,1.5,2.9,2.7,4.8,3.7c0.5,0.3,1,0.5,1.6,1
			c0.2,0.1,0.3,0.3,0.5,0.5c0.2,0.2,0.4,0.4,0.5,0.6c0.2,0.4,0.4,0.8,0.4,1.2c0.3,1.5,0,2.7-0.2,3.9c-0.5,2.3-1.3,4.4-2.2,6.5
			c-0.5,1-1,2-1.5,3c-0.3,0.6-0.4,0.8-0.6,1.3c-0.1,0.4-0.2,0.9-0.2,1.4c0,2,0.6,4,1.6,5.9c1,1.9,2.3,3.6,4,4.7
			c0.9,0.5,1.9,0.9,2.9,0.9c1,0,2-0.4,2.9-1l0.3,0.4c-0.9,0.7-2,1.3-3.1,1.4c-1.2,0.1-2.4-0.2-3.5-0.7c-2.1-1.1-3.7-2.9-4.9-4.9
			c-1.2-2-2.1-4.2-2.3-6.6c0-0.6,0-1.2,0.1-1.9c0.1-0.6,0.4-1.4,0.6-1.8c0.4-1,0.8-2,1.2-3c0.7-2,1.4-4.1,1.7-6.1c0.1-1,0.2-2,0-2.7
			c0-0.2-0.1-0.3-0.1-0.3c0,0,0,0,0,0l-0.1-0.1c-0.2-0.2-0.7-0.4-1.2-0.6c-2.1-1-4.2-2.3-5.9-4c-1.7-1.6-3.2-3.5-4.5-5.4
			c-2.6-3.8-4.7-7.9-6.4-12.1c-1.7-4.2-3-8.5-3.9-13c-0.4-2.2-0.7-4.5-0.8-6.9c-0.1-2.3,0.1-4.7,0.6-7c0.6-2.3,1.6-4.7,3.4-6.4
			c1.8-1.7,4.2-2.7,6.5-2.5L161.7,217.1z"/>
	</g>
	<g>
		<path class="st3" d="M350.9,376.9c0,0-12.1-8.7-35-16.3c-22.9-7.6-38.6-21.4-38.6-37.7c0-16.2,0-42.8,0-42.8h-27.5h-0.7h-27.5
			c0,0,0,26.5,0,42.8c0,16.3-15.8,30-38.6,37.7c-22.9,7.6-35,16.3-35,16.3l-47.7,121.7h46.2l24-58.8c0,0,9.6,17.1,17.1,58.8h61.5
			h0.7h61.5c7.5-41.7,17.1-58.8,17.1-58.8l24,58.8h46.2L350.9,376.9z"/>
	</g>
	<path class="st4" d="M246.9,498.6V342c0,0-93.8,17.5-101.4,29.8L93.6,498.6h59.6l17.7-45.5l2.4,45.5H246.9z"/>
	<path class="st4" d="M236.2,498.6V342c0,0,109,18.5,116.5,30.8l50.9,125.9H344l-17.7-45.5l-2.4,45.5H236.2z"/>
	<path class="st5" d="M347.3,375.1c1.8-2.4,3-3.4,3.8-3.9c-0.5-0.4-1.1-0.8-1.7-1.2c-1.1,0.8-2.3,2.1-3.7,3.9
		c-5.2,6.8-21.7,59.7-20.5,81.9l1,0l0.1-2.6l0.9,2.2C326.2,433.4,342.6,381.2,347.3,375.1z"/>
	<path class="st5" d="M149.9,375.1c-1.8-2.4-3.1-3.5-3.8-4c0.3-0.3,0.8-1,1.5-1.4c1.1,0.8,2.6,2.4,3.9,4.1
		c5.2,6.8,23.8,65.4,19.7,85.1l-0.2-3.2l-0.1-2.6l-0.9,2.2C171,433.4,154.6,381.2,149.9,375.1z"/>
	<path class="st6" d="M354.2,157.4c0,30.5-13.7,58.9-23.1,82.2c-15.1,37.4-38.4,62-80.4,62c-41.6,0-65.8-24.3-81.7-61.2
		c-10.2-23.7-24.6-52.7-24.6-83.7c0-79.3,39.1-87.3,107.4-87.3C320.1,69.4,354.2,78.1,354.2,157.4z"/>
	<g>
		<path class="st7" d="M223.7,203.8c0,10.9-8.9,19.7-19.9,19.7c-11,0-19.9-8.8-19.9-19.7c0-10.9,8.9-19.7,19.9-19.7
			C214.7,184,223.7,192.9,223.7,203.8z"/>
		<path class="st8" d="M218.5,203.8c0,7.6-6.2,13.8-13.8,13.8c-7.6,0-13.8-6.2-13.8-13.8c0-7.6,6.2-13.8,13.8-13.8
			C212.4,190,218.5,196.2,218.5,203.8z"/>
		<path class="st9" d="M199,196.6c0,2.2-1.8,4-4,4c-2.2,0-4-1.8-4-4s1.8-4,4-4C197.2,192.7,199,194.4,199,196.6z"/>
	</g>
	<path class="st10" d="M214.7,258.1c10.9,1.9,22.7,3.1,34.5,3c11.9,0,23.4-1.3,34.8-3c-4.2,1.4-13.7,7.8-34.7,7.8
		S218.6,259.6,214.7,258.1z"/>
	<polygon class="st11" points="187.1,198.1 175.1,191.6 188.3,195.2 	"/>
	<polygon class="st11" points="188.4,214.6 175.1,219.3 187,211.8 	"/>
	<polygon class="st11" points="187.7,206.4 166.1,205.9 187.6,203.2 	"/>
	<polygon class="st11" points="310.7,195.2 323.9,191.6 311.9,198.1 	"/>
	<polygon class="st11" points="312,211.8 323.9,219.3 310.6,214.6 	"/>
	<polygon class="st11" points="311.4,203.2 332.9,205.9 311.2,206.4 	"/>
	<path class="st7" d="M277.1,203.8c0,10.9,8.9,19.7,19.9,19.7c11,0,19.9-8.8,19.9-19.7c0-10.9-8.9-19.7-19.9-19.7
		C286,184,277.1,192.9,277.1,203.8z"/>
	<path class="st8" d="M282.2,203.8c0,7.6,6.2,13.8,13.8,13.8c7.6,0,13.8-6.2,13.8-13.8c0-7.6-6.2-13.8-13.8-13.8
		C288.4,190,282.2,196.2,282.2,203.8z"/>
	<path class="st9" d="M283,196.6c0,2.2,1.8,4,4,4c2.2,0,4-1.8,4-4s-1.8-4-4-4C284.8,192.7,283,194.4,283,196.6z"/>
	<line class="st12" x1="246.9" y1="498.6" x2="246.9" y2="381.2"/>
	<circle class="st5" cx="264.7" cy="427.9" r="6.8"/>
	<circle class="st5" cx="264.7" cy="459.8" r="6.8"/>
	<circle class="st5" cx="264.7" cy="485.2" r="6.8"/>
	<path class="st13" d="M368.2,436.1l-13.7,6.5c-0.8,0.4-1.6,0.2-2-0.5l-9-17.8c-0.3-0.6,0.1-1.5,0.8-1.9l14.3-7.3
		c0.8-0.4,1.7-0.2,2,0.5l8.3,18.5C369.3,434.9,368.9,435.7,368.2,436.1z"/>
	<line class="st14" x1="345.3" y1="420.7" x2="347.2" y2="424.3"/>
	<line class="st14" x1="350.6" y1="417.6" x2="352.5" y2="421.2"/>
	<line class="st14" x1="356.8" y1="414.9" x2="358.1" y2="418.9"/>
	<line class="st14" x1="368.4" y1="438" x2="366.6" y2="435.3"/>
	<line class="st14" x1="363" y1="441" x2="361.2" y2="438.3"/>
	<line class="st14" x1="356.7" y1="443.5" x2="355.6" y2="440.5"/>
	<line class="st14" x1="348.9" y1="441.3" x2="353.5" y2="438.3"/>
	<line class="st14" x1="345.7" y1="436" x2="349.6" y2="433.5"/>
	<line class="st14" x1="343" y1="429.7" x2="348" y2="427.5"/>
	<line class="st14" x1="365.3" y1="418.2" x2="360.5" y2="420.9"/>
	<line class="st14" x1="368.2" y1="423.6" x2="363.4" y2="426.3"/>
	<line class="st14" x1="370.5" y1="430" x2="365.4" y2="432"/>
	<path class="st13" d="M215.4,473.6l-23.8-4c-1.4-0.2-2.3-1.3-2.2-2.4l4.5-31.5c0.2-1.1,1.4-1.9,2.8-1.7l25.4,3.6
		c1.4,0.2,2.4,1.3,2.2,2.5l-6.1,31.8C218,473.1,216.7,473.9,215.4,473.6z"/>
	<line class="st14" x1="199.5" y1="432.6" x2="198.8" y2="439.1"/>
	<line class="st14" x1="209.3" y1="433.3" x2="208.5" y2="439.8"/>
	<line class="st14" x1="220" y1="435.6" x2="217.9" y2="441.9"/>
	<line class="st14" x1="213.9" y1="476.3" x2="214" y2="471.1"/>
	<line class="st14" x1="204.2" y1="475.3" x2="204.2" y2="470.1"/>
	<line class="st14" x1="193.6" y1="472.8" x2="194.9" y2="467.8"/>
	<line class="st14" x1="185.4" y1="462.7" x2="194.1" y2="463.1"/>
	<line class="st14" x1="186.1" y1="452.9" x2="193.4" y2="453.3"/>
	<line class="st14" x1="188.4" y1="442.3" x2="196.9" y2="443.9"/>
	<line class="st14" x1="228" y1="447.6" x2="219.3" y2="446.8"/>
	<line class="st14" x1="226.8" y1="457.3" x2="218.1" y2="456.5"/>
	<line class="st14" x1="224" y1="467.8" x2="215.5" y2="465.8"/>
	<g>
		<path class="st15" d="M249.5,369.9c30,0,45.2-13.9,50.9-20.6c-0.3-0.2-0.6-0.3-0.9-0.5c-5.6,6.6-20.6,20.1-50,20.1
			c-30.6,0-46.1-13.6-51.4-19.4c-0.3,0.2-0.6,0.3-0.9,0.5C202.4,355.9,218.2,369.9,249.5,369.9z"/>
	</g>
	<g>
		<path class="st16" d="M227.9,388.4l-9.7,4c0,0,23.4,36.1,25.6,40.3c2.2,4.2,3.2,16.7,3.2,16.7s-0.9-10.6,3.4-17.3
			c4.3-6.7,23.2-30,23.2-30l-22.5-8.5L227.9,388.4z"/>
	</g>
	<g>
		<path class="st17" d="M199.2,372c0,0,50,63.1,89.8,28.9c18.4-15.8,45.1-34.9,44-40c-1.7-8.4-9.7-22.3-16.2-23.1
			C310.2,337,211.2,379.9,199.2,372z"/>
	</g>
	<g>
		<path class="st18" d="M196.1,314.9c-4.9,5.6-13.8,13.9-17.7,30.3c-3.8,16.1,7.6,36.7,58.6,41.5c24.1,2.3,47.2-21.5,61.9-31
			c16.5-10.7,19.4-5,18.9-13.5c-0.9-16-6.5-18.7-12.2-24.6c-5.9-6.1-28.3-14.2-28.3-14.2v9.5c0,0,9.3,6.2,4.7,8.6
			c-5.2,2.8-50,16.1-62.2,4c-10-9.9,1.7-13.2,1.7-13.2v-9C221.6,303.5,201,309.3,196.1,314.9z"/>
	</g>
	<g>
		<path class="st19" d="M280.1,315c1.4,1,2.8,2.1,3.6,3.9c0.2,0.4,0.3,1,0.1,1.5c-0.1,0.6-0.5,1-0.9,1.3c-0.8,0.6-1.6,0.9-2.4,1.3
			c-3.2,1.4-6.5,2.5-9.8,3.6c-6.6,2-13.4,3.6-20.3,4.5c-6.9,0.9-13.9,1.3-20.9-0.1c-3.4-0.8-7-2-9.6-4.6c-1.3-1.3-2.3-2.7-3.2-4.3
			c-0.4-0.8-0.7-1.6-0.9-2.5c-0.1-0.9-0.1-1.8,0.3-2.6c-0.3,1.7,0.4,3.4,1.3,4.7c1,1.3,2.1,2.6,3.4,3.6c1.2,1,2.7,1.7,4.3,2.3
			c1.5,0.6,3.2,0.9,4.8,1.1c3.3,0.4,6.7,0.5,10,0.3c3.4-0.1,6.7-0.5,10.1-0.9c3.4-0.4,6.7-1,10.1-1.7c3.4-0.6,6.7-1.4,10-2.1
			c3.3-0.8,6.6-1.6,9.9-2.7c0.8-0.3,1.7-0.5,2.2-0.9c0.6-0.4,0.8-0.9,0.6-1.7c-0.2-0.7-0.6-1.5-1.1-2.2
			C281.2,316.3,280.7,315.7,280.1,315z"/>
	</g>
	<path class="st0" d="M188.7,54.9c-7.8,5.3-4.9,12.5-12.4,17.6c-20.6,14.2-42.2,36.9-44.6,46c-14.9,54.5,21.4,101.2,21.4,101.2
		c17.1-94.2,49.4-104.3,97.4-104.3s63.6,3.1,99.7,89.2c0,0,20.4-41.6,14.6-86.2c-2.6-19.4-58.5-73.6-114.3-73.6"/>
	<path class="st0" d="M250.4,44.7c-16.6,0-33.3,4.8-48.5,12.1c0,0-9.2-4.5-13.2-1.8"/>
	<g>
		<path class="st20" d="M204.6,381.2"/>
	</g>
	<g>
		<path class="st21" d="M246.4,445c0,0,0.1-10.9-2.6-19.8c-3.2-10.7-62.3-89.5-62.3-89.5l1.9-3.9c0,0-2.5,0-4.6,2.5
			c-6.2,7.4-17.4,24.1-17.1,28.2c0,0,19.7,32.1,43,44.6S246.2,428.1,246.4,445z"/>
	</g>
	<g>
		<path class="st22" d="M166.8,351.3c-1,1.8-2,3.6-2.9,5.4c-0.4,0.9-0.9,1.9-1.2,2.8c-0.3,0.9-0.7,2-0.7,2.9l0-0.1
			c5.6,8.4,11.8,16.5,18.5,24c0.8,1,1.7,1.8,2.6,2.8c0.9,0.9,1.7,1.8,2.6,2.7l2.7,2.7l2.8,2.5c3.8,3.3,7.8,6.5,12.2,8.9
			c8.8,5,17.9,9.5,26.4,15.1c4.2,2.8,8.3,6,11.5,10c1.6,2,2.9,4.2,3.8,6.6c0.9,2.4,1.3,4.9,1.3,7.5l-0.1,0c-0.1-2.5-0.5-5-1.4-7.4
			c-0.9-2.3-2.3-4.5-3.9-6.5c-3.2-3.9-7.3-7-11.5-9.7c-8.5-5.5-17.7-9.9-26.5-14.8c-4.5-2.5-8.5-5.6-12.4-8.9
			c-3.9-3.3-7.5-6.9-10.9-10.7c-3.4-3.7-6.6-7.7-9.7-11.8c-3-4.1-6-8.2-8.6-12.6l0-0.1l0-0.1c0-1.2,0.4-2.1,0.8-3.1
			c0.4-1,0.9-1.9,1.4-2.8C164.5,354.7,165.6,353,166.8,351.3L166.8,351.3z"/>
	</g>
	<g>
		<path class="st21" d="M247.5,445.4c0,0,0.1-10,4.5-20.3s65-89.9,65-89.9l-1.4-5c0,0,1.4,0.3,2.9,2.3c5.5,7.3,17.8,25.6,17.5,29.9
			c0,0-19.7,32.1-43,44.6S247.6,428.5,247.5,445.4z"/>
	</g>
	<g>
		<path class="st22" d="M331.3,351.1c1.1,1.8,2.1,3.6,3,5.4c0.5,0.9,0.9,1.9,1.3,2.8c0.4,1,0.8,2,0.7,3.1l0,0.1l0,0.1
			c-2.7,4.5-5.6,8.7-8.7,12.9c-3.1,4.2-6.4,8.2-9.9,12c-3.5,3.8-7.2,7.5-11.2,10.8c-2,1.7-4,3.3-6.2,4.7c-2.1,1.5-4.3,2.9-6.7,4.1
			c-9.2,4.7-18.7,9-27.5,14.3c-4.4,2.7-8.7,5.6-12.2,9.4c-1.8,1.9-3.2,4-4.3,6.4c-1.1,2.3-1.7,4.9-1.8,7.5l-0.1,0
			c0.1-2.6,0.7-5.2,1.7-7.5c1.1-2.4,2.6-4.5,4.3-6.5c3.5-3.9,7.8-6.9,12.2-9.6c8.9-5.4,18.3-9.7,27.4-14.5
			c9.1-4.9,16.7-12.1,23.6-19.7c6.9-7.7,13.2-15.9,18.8-24.5l0,0.1c0.1-0.9-0.3-1.9-0.6-2.9c-0.3-1-0.7-1.9-1.2-2.8
			C333.2,354.8,332.2,353,331.3,351.1L331.3,351.1z"/>
	</g>
	<g>
		<path class="st2" d="M344.1,172.4c-2.7-2.5-3-2.9-4.2-9.5c-1.2-6.5-6.6-22.8-10.3-26c-3.7-3.2,0.5-4.1-2.2-6.2
			c-2.7-2.1-2.7,1.2-8-1.3c-5.2-2.5-22.9-10.8-24.4-10.8c-1.5,0,0-4.3-1.7-3.7c-1.7,0.5-2.2,2.4-4.7,1.3c-2.5-1.1-16.9-2.9-17.9-2.9
			c-1,0-5-3.4-3.2-9.1c-3,3.4-5.2,7.6-15.9,6.9c-10.7-0.6-26.7,3.6-32.1,3.9c-5.5,0.3-15.4,3.4-21.5-14.1
			c2.1,12.5,10.6,17.8,7.1,18.5c-3.5,0.7-4.3-1.6-6.5-2.7c0.5,3.9-1.5,5.2-5.2,6.5c-3.7,1.4-21.9,13.5-23.1,15.5
			c-1.2,2-4.2,6.7-7.7,6.7c-3.5,0-0.2,4.8-0.2,7.1s1.3,8.7,1.3,8.7s-4.5,16.1-8.2,34.7c0,0,0.6,9.4,0.6,9.4
			c15.8-76.4,48.8-90.1,95.6-90.1c45.4,0,65.4,7.2,98.6,89.1c1-11.1-5.9-25.1-6-25.7C343.8,177.8,346.8,174.9,344.1,172.4z"/>
	</g>
	<g>
		<path class="st2" d="M200.5,115.3c-1.9-1.8-4-3.4-6.2-4.3c-2.2-1-4.6-1.4-7-1.5c-1.2,0-2.4,0-3.6,0.2c-0.6,0.1-1.2,0.2-1.8,0.3
			c-0.4,0-0.5,0.1-0.7,0.2c-0.2,0-0.4,0.1-0.5,0.2c-0.7,0.4-1.3,0.9-1.9,1.7c-0.6,0.8-1.1,1.7-1.6,2.7c-1.8,4.1-2.7,9-2.8,13.8
			c-0.2,4.9,0.3,9.8,1.4,14.4c0.5,2.3,1.2,4.6,2.1,6.7c0.5,1,0.9,2.1,1.5,3l2,3.4c2.9,5.5,4.2,10.9,5.3,16.4
			c2,10.9,2.5,21.8,1.9,32.7c-0.3,5.5-1,10.9-2.3,16.3c-1.3,5.4-3.1,10.8-6.2,15.7c-0.7,1.3-1.7,2.4-2.6,3.6c-1,1.1-2,2.2-3.2,3.2
			c-1.1,1-2.4,1.8-3.7,2.7c-1.4,0.7-2.7,1.4-4.2,1.8c-1.6,0.5-2.6,0.8-3.9,1.1c-1.2,0.4-2.4,0.7-3.5,1.2c-2.3,0.9-4.5,2-6.6,3.3
			c-4.1,2.6-7.6,6.3-9.1,10.8c-0.8,2.2-1.1,4.6-0.7,6.9c0.3,2.3,1.4,4.4,3.2,5.7c0.4,0.3,0.9,0.6,1.4,0.8c0.5,0.2,1.2,0.4,1.8,0.6
			c1.2,0.3,2.4,0.7,3.6,0.7c1.2,0.1,2.2-0.1,3.1-0.6c0.9-0.5,1.6-1.5,2.2-2.6c0.6-1.1,1.2-2.2,1.8-3.4c0.3-0.6,0.6-1.2,0.9-1.8
			l0.4-0.8c0.1-0.3,0.2-0.6,0.3-0.9c0.2-0.6,0.2-1.1,0.1-1.6c-0.1-0.4-0.4-0.8-0.9-1c-1-0.5-2.4-0.4-3.5-0.2l-0.2-1
			c0.7-0.2,1.4-0.3,2.1-0.3c0.7,0,1.4,0,2.2,0.3c0.7,0.3,1.5,0.9,1.8,1.7c0.3,0.8,0.2,1.6,0.1,2.3c-0.1,0.4-0.1,0.7-0.3,1.1l-0.4,1
			c-0.2,0.7-0.5,1.2-0.7,1.9c-0.5,1.2-1,2.5-1.6,3.7c-0.6,1.2-1.4,2.5-2.8,3.5c-1.3,1-3,1.3-4.5,1.3c-1.5,0-2.9-0.3-4.2-0.6
			c-0.7-0.2-1.3-0.3-2-0.6c-0.7-0.2-1.5-0.6-2.1-1c-2.7-1.7-4.3-4.6-4.9-7.5c-0.6-2.9-0.4-6,0.4-8.8c1.6-5.7,5.6-10.3,10.2-13.7
			c2.3-1.7,4.8-3,7.4-4.2c1.3-0.6,2.6-1.1,3.9-1.6c1.3-0.4,2.8-0.9,3.7-1.3c1.1-0.3,2-1,3-1.5c0.9-0.7,1.8-1.3,2.6-2.1
			c0.9-0.7,1.5-1.7,2.3-2.6c0.6-1,1.4-1.9,1.9-3c2.4-4.1,3.8-9,4.8-13.9c0.9-4.9,1.4-10,1.5-15.1c0.1-10.2-1.1-20.5-3.6-30.3
			c-0.6-2.4-1.3-4.8-2.1-7.1c-0.8-2.3-1.7-4.5-2.7-6.4l-2-3.4c-0.7-1.4-1.4-2.7-1.9-4.1c-1.1-2.8-1.8-5.7-2.4-8.5
			c-1-5.7-1.1-11.5-0.4-17.2c0.4-2.8,1-5.6,1.8-8.4c0.9-2.8,2-5.5,3.7-8.1c0.9-1.3,1.9-2.6,3.1-3.7c1.2-1.1,2.8-2.2,4.6-2.7
			c0.5-0.1,0.9-0.3,1.4-0.3c0.5-0.1,1-0.1,1.3-0.1c0.7,0,1.4,0,2.1,0c1.4,0.1,2.9,0.2,4.3,0.5c2.8,0.6,5.6,1.7,8,3.5
			c1.2,0.9,2.2,1.8,3.1,2.9c0.9,1.1,1.7,2.2,2.4,3.4L200.5,115.3z"/>
	</g>
	<path class="st2" d="M158,230.2l0.7-1.5c2-4.4,2.6-9,2.8-13.6c0.1-0.1,0.3-0.1,0.4-0.2c1.3-0.8,2.4-1.8,3.3-2.9
		c3.7-4.3,5.3-9.2,6.3-14.1c0.2-1.2,0.4-2.4,0.5-3.7c0.1-0.7,0.1-1.4,0.1-2.1l0-1l-0.1-1c-0.3-2.8-1.3-5.5-2.7-7.8
		c-2.9-4.6-6.8-7.7-10.3-10.6c-3.6-2.8-7.1-5.6-8.8-8.8c-0.1-0.2-0.2-0.4-0.3-0.6c-0.1-0.2-0.2-0.4-0.2-0.6l-0.2-0.6l-0.1-0.7
		c-0.2-1-0.2-1.9-0.3-2.9c0-2,0.6-3.9,1.6-5.7c1-1.8,2.5-3.4,4.2-4.7c1.7-1.3,3.7-2.4,5.8-2.9l0-0.7c-2.4,0-4.8,0.7-6.9,1.8
		c-2.2,1.1-4.1,2.7-5.7,4.6c-1.6,2-2.7,4.4-3.1,7c-0.2,1.3-0.3,2.6-0.1,3.9l0.1,1l0.2,1c0.1,0.4,0.2,0.7,0.3,1
		c0.1,0.3,0.2,0.7,0.3,1c1,2.6,2.6,4.7,4.2,6.5c1.7,1.8,3.4,3.4,5.1,5c3.3,3.1,6.5,6.1,8.3,9.4c0.9,1.6,1.5,3.3,1.6,5.1
		c0,0.4,0.1,0.9,0.1,1.3c0,0.4,0,0.9-0.1,1.4c-0.1,0.9-0.3,2.1-0.5,3.1c-0.6,3.2-1.6,6.4-3.1,9c-0.2-1.7-0.4-3.4-0.6-5.1
		c-0.4-2.3-0.9-4.6-1.6-7c-0.2-0.6-0.4-1.2-0.7-1.8c-0.1-0.3-0.3-0.6-0.5-1c-0.1-0.2-0.2-0.4-0.4-0.6c-0.1-0.1-0.1-0.2-0.3-0.3
		c-0.1-0.1-0.3-0.3-0.5-0.4l-0.1-0.1c0,0-0.1-0.1-0.2-0.1c-0.2-0.1-0.4-0.2-0.6-0.3c-0.2-0.1-0.4-0.1-0.6-0.2c-0.1,0-0.2,0-0.3,0
		c-0.3,0-0.5,0-0.7,0c-0.4,0-0.8,0.1-1.1,0.1c-0.7,0.1-1.3,0.2-2,0.4c-2.5,0.7-4.9,1.6-7.2,3.5c-1.1,0.9-2.1,2.1-2.8,3.5
		c-0.7,1.4-1,3.1-0.9,4.7c0.1,1.6,0.5,3,1.1,4.3c0.5,1.3,1.2,2.4,2,3.5c1.5,2.1,3.1,4.1,5.4,5.7c1.2,0.8,2.4,1.6,4,2
		c1.5,0.5,3.2,0.6,4.8,0.3c0,0,0,0,0,0c-0.1,3.7-0.6,7.4-2,10.7l-0.7,1.7c-0.2,0.6-0.4,1.2-0.5,1.8c-0.3,1.2-0.4,2.5-0.4,3.8
		c0,2.5,0.7,5,1.6,7.2c2,4.5,5,8.1,8.2,11.5c1.6,1.7,3.3,3.2,4.9,4.9c0.2,0.2,0.3,0.4,0.5,0.6c0.1,0.2,0.3,0.4,0.4,0.6l0.3,0.6
		c0.1,0.2,0.1,0.5,0.2,0.7c0.2,0.9,0,1.9-0.4,2.9c-0.9,1.9-2.4,3.6-4.1,4.9c-0.4,0.3-0.9,0.6-1.3,0.8c-0.2,0.1-0.3,0.1-0.5,0.1
		c-0.2-0.1-0.4-0.2-0.6-0.3c-0.8-0.6-1.3-1.7-1.8-2.7l-0.7,0.3c0.4,1.1,0.9,2.2,1.9,3.1c0.2,0.2,0.5,0.4,0.9,0.6
		c0.4,0.1,0.8,0.1,1.1,0c0.6-0.2,1.1-0.5,1.6-0.9c2-1.3,3.7-3,4.9-5.2c0.5-1.1,0.9-2.4,0.7-3.8c-0.1-0.3-0.1-0.7-0.2-1l-0.4-0.9
		c-0.1-0.3-0.4-0.5-0.5-0.8c-0.2-0.3-0.4-0.5-0.6-0.7c-1.5-1.7-3.1-3.4-4.6-5.1c-3-3.4-5.7-7-7.2-11.1c-0.8-2-1.2-4.1-1.1-6.1
		c0-1,0.2-2,0.5-3C157.6,231.1,157.8,230.7,158,230.2z M152.1,209.2c-1.5-0.9-2.9-2.4-4.1-4c-1.2-1.6-2.1-3.3-2.2-4.7
		c-0.1-0.7,0-1.4,0.3-2c0.3-0.6,0.7-1.2,1.4-1.8c1.3-1.2,3.1-2.1,5-2.6c0.5-0.1,0.9-0.2,1.4-0.3c0,0,0,0,0,0
		c0.2,0.4,0.4,0.9,0.6,1.4c0.7,2,1.2,4.1,1.7,6.3c0.6,2.8,0.9,5.6,1.2,8.5c-0.3,0.2-0.7,0.3-1,0.3
		C155,210.5,153.6,210.2,152.1,209.2z"/>
	<g>
		<path class="st2" d="M161.3,112.1c-2.4-1-5.1-1-7.3,0c-2.3,0.9-4.1,2.5-5.7,4.4c-3.1,3.9-5.2,8.7-6.9,13.6c-1.7,4.9-3,10-4.3,15.1
			c-1.3,5.1-2.3,10.2-2.6,15.4c-0.1,2.6,0,5.1,0.4,7.6c0.4,2.5,1.2,4.8,2.5,7c0.3,0.6,0.6,1.2,1,2.1c0.1,0.2,0.1,0.5,0.2,0.7
			c0,0.3,0.1,0.6,0,0.9c0,0.6-0.2,1-0.3,1.4c-0.7,1.6-1.7,2.7-2.7,3.7c-2,2-4.3,3.6-6.6,5.1c-1.1,0.7-2.3,1.4-3.5,2.1
			c-0.7,0.4-1,0.5-1.4,0.9c-0.4,0.4-0.8,0.8-1.1,1.3c-1.3,2-2.1,4.6-2.4,7.2c-0.3,2.5-0.1,5.2,1,7.5c0.5,1.1,1.3,2.2,2.4,2.8
			c1.1,0.7,2.4,0.9,3.7,0.9l0,0.5c-1.4,0.1-2.8-0.1-4.1-0.7c-1.3-0.7-2.3-1.8-3-3c-1.3-2.5-1.7-5.4-1.6-8.1c0.2-2.8,0.7-5.6,2.2-8.1
			c0.4-0.6,0.8-1.3,1.3-1.8c0.3-0.3,0.6-0.6,0.9-0.8c0.4-0.3,0.6-0.4,0.9-0.6c1.1-0.7,2.2-1.5,3.3-2.2c2.1-1.5,4.2-3.2,5.9-5
			c0.8-0.9,1.6-1.9,1.9-2.8c0.1-0.2,0.1-0.4,0.1-0.5c0-0.1,0-0.1,0-0.1c0-0.1,0-0.1-0.1-0.2c-0.2-0.4-0.5-1-0.8-1.5
			c-0.7-1.2-1.4-2.5-1.9-3.8c-0.5-1.3-1-2.7-1.3-4.1c-0.6-2.8-0.9-5.6-0.9-8.4c0-5.6,0.6-11.1,1.7-16.4c1.1-5.3,2.7-10.6,4.8-15.7
			c1.1-2.5,2.3-5.1,3.8-7.4c1.5-2.4,3.2-4.7,5.3-6.7c2.1-2,4.7-3.6,7.6-4.2c2.9-0.6,6,0,8.2,1.7L161.3,112.1z"/>
	</g>
	<g>
		<path class="st2" d="M263.1,99.7c0.5-1.4,0.9-2.8,1.6-4.2c0.7-1.4,1.6-2.9,3-4.1c1.4-1.2,3.2-2.2,5.2-2.6c1-0.2,1.9-0.3,2.9-0.3
			c1,0,1.9,0.1,2.8,0.3c0.2,0,0.4,0.1,0.7,0.1l0.3,0.1c0.1,0,0.2,0,0.4,0.1c0.8,0.3,1.6,0.6,2.2,1.1c1.3,1,2.1,2.1,2.7,3.2
			c1.1,2.1,1.4,3.8,1.8,5.5c0.6,3.3,0.7,6.3,0.7,9.2c-0.1,5.8-0.8,11.3-0.5,16.6c0.4,5.2,1.6,10.3,4.9,13.3c0.8,0.8,1.7,1.4,2.7,1.9
			c0.5,0.3,1,0.5,1.6,0.7c0.7,0.2,1.5,0.5,2.2,0.7c2.9,1,5.7,2.4,8.3,4.1c2.6,1.8,4.9,4,6.7,6.7c1.7,2.7,2.9,5.9,2.9,9.2
			c0,1.6-0.3,3.3-0.9,4.9c-0.6,1.6-1.7,3-3.1,4.1c-0.7,0.5-1.5,0.9-2.4,1.2c-0.7,0.2-1.4,0.4-2.2,0.5c-1.5,0.3-3.1,0.5-4.9,0
			c-0.9-0.3-1.7-0.8-2.3-1.5c-0.6-0.6-1-1.3-1.4-2c-0.7-1.4-1.2-2.7-1.7-4c-0.3-0.6-0.6-1.4-0.7-2.2c-0.1-0.8-0.2-1.8,0.4-2.6
			c0.6-0.9,1.6-1.1,2.4-1.1c0.8,0,1.5,0.1,2.3,0.3l-0.2,1c-0.6-0.1-1.3-0.1-2-0.1c-0.6,0.1-1.2,0.3-1.3,0.7c-0.2,0.3-0.2,0.9,0,1.5
			c0.2,0.6,0.5,1.2,0.8,1.8c0.7,1.3,1.3,2.6,2,3.7c0.7,1.1,1.5,1.9,2.5,2.1c1,0.2,2.3,0,3.6-0.3c0.6-0.2,1.3-0.4,1.9-0.6
			c0.5-0.2,1-0.5,1.4-0.8c1.7-1.4,2.4-3.9,2.2-6.3c-0.2-2.4-1.2-4.8-2.7-6.8c-1.5-2-3.5-3.7-5.7-5c-2.2-1.3-4.7-2.3-7.3-3.1
			c-0.6-0.2-1.3-0.3-1.9-0.5c-0.8-0.2-1.6-0.4-2.4-0.7c-1.6-0.6-3.2-1.4-4.6-2.4c-2.9-2.1-4.9-5.1-6.2-8.1c-1.4-3-2.1-6.1-2.7-9.1
			c-1.1-6.1-1.6-12-1.7-17.7c-0.1-2.8,0-5.6,0-8c0-1.2-0.2-2.3-0.3-2.8c-0.1-0.3-0.1-0.3,0.1-0.3c0.1,0,0.2,0.1,0.3,0.1
			c0.1,0-0.1,0-0.1-0.1l-0.2-0.1c-0.1-0.1-0.2-0.1-0.4-0.2c-2-0.9-3.6-1.4-5.7-0.7c-1,0.3-2.1,0.9-3.2,1.8c-1.1,0.8-2.2,1.8-3.5,2.7
			L263.1,99.7z"/>
	</g>
	<path class="st23" d="M246.9,26.9c107.5-6.1,123.3,82.3,123.3,82.5l-240.6,9.3C129.6,118.8,136.8,33.1,246.9,26.9"/>
	<path class="st24" d="M186.3,53.3c-7.3,5.8-14,12.4-19.7,19.7l-1.1,1.4l-1,1.4c-0.7,0.9-1.4,1.9-2,2.8c-1.2,2-2.6,3.8-3.7,5.9
		c-2.4,3.9-4.4,8.1-6.3,12.4l0,0.1c-0.5,1-1.6,1.5-2.6,1c-1-0.5-1.5-1.6-1-2.6c0,0,0,0,0-0.1c2.1-4.3,4.3-8.6,7-12.6
		c1.2-2.1,2.7-4,4-5.9c0.7-1,1.5-1.9,2.2-2.8l1.1-1.4l1.2-1.4c6.1-7.3,13.2-13.8,20.8-19.4"/>
	<path class="st24" d="M196.4,53.4c-3,2.7-5.9,5.6-8.6,8.5c-2.7,3-5.3,6.1-7.7,9.3c-4.8,6.5-8.8,13.5-12.1,20.8l0,0
		c-0.5,1-1.6,1.5-2.6,1s-1.5-1.6-1-2.6c0,0,0-0.1,0-0.1c3.7-7.4,8.2-14.5,13.4-20.9c2.6-3.2,5.4-6.3,8.3-9.2c2.9-2.9,6-5.7,9.1-8.3"
		/>
	<path class="st24" d="M207.8,53.4c-2.7,2.5-5.1,5.4-7.5,8.1l-3.5,4.3c-0.6,0.7-1.2,1.4-1.7,2.2l-1.6,2.3
		c-4.4,5.9-7.9,12.4-11.2,18.9l0,0.1c-0.5,1-1.7,1.4-2.7,0.9s-1.4-1.7-0.9-2.7c0,0,0-0.1,0-0.1c3.7-6.6,7.6-13.1,12.4-18.9l1.7-2.2
		c0.6-0.7,1.2-1.4,1.8-2.1l3.7-4.2c2.7-2.7,5.2-5.4,8-7.9"/>
	<path class="st24" d="M218.2,53.5c-2,2.6-4,5.2-5.8,7.9c-0.9,1.4-1.9,2.7-2.7,4.1l-2.6,4.2c-0.9,1.4-1.7,2.8-2.5,4.2l-2.4,4.3
		c-1.5,2.9-2.9,5.8-4.4,8.7l-0.1,0.1c-0.5,1-1.7,1.4-2.7,0.9c-1-0.5-1.4-1.7-0.9-2.7c0,0,0-0.1,0-0.1c1.6-2.9,3.2-5.8,4.9-8.7
		l2.6-4.2c0.9-1.4,1.7-2.8,2.7-4.2l2.8-4.1c0.9-1.4,2-2.7,3-4c2-2.7,4.1-5.2,6.3-7.7"/>
	<path class="st24" d="M228.4,54.1c-1.5,2.5-2.8,5-4.2,7.5c-1.3,2.6-2.7,5.1-3.9,7.7c-1.2,2.6-2.5,5.2-3.7,7.8L213,85l0,0
		c-0.5,1-1.6,1.5-2.6,1s-1.5-1.6-1-2.6c0,0,0-0.1,0.1-0.1l4-7.7c1.4-2.6,2.8-5.1,4.2-7.6c1.4-2.5,2.9-5,4.4-7.5
		c1.6-2.4,3-4.9,4.7-7.3"/>
	<path class="st24" d="M238.9,54.2c-1.6,4.7-3.2,9.5-4.6,14.2c-0.7,2.4-1.5,4.8-2.1,7.2l-2.1,7.2l0,0c-0.3,1.1-1.4,1.7-2.5,1.4
		c-1.1-0.3-1.7-1.4-1.4-2.5c0,0,0-0.1,0-0.1l2.5-7.1c0.9-2.4,1.8-4.7,2.6-7c1.8-4.7,3.7-9.3,5.6-14"/>
	<path class="st24" d="M247.4,54.5c-0.4,4.6-0.8,9.3-1.1,13.9c-0.3,4.6-0.5,9.3-0.7,13.9l0,0c0,1.1-1,2-2.1,1.9s-2-1-1.9-2.1
		c0,0,0-0.1,0-0.1c0.5-4.6,1.1-9.3,1.7-13.9c0.6-4.6,1.3-9.3,2.1-13.9"/>
	<path class="st24" d="M321.4,52.6c3.3,2.7,6.4,5.6,9.5,8.6c3,3,5.9,6.2,8.7,9.5c5.4,6.6,10.3,13.8,14.4,21.4c0.5,1,0.2,2.2-0.8,2.7
		c-1,0.5-2.2,0.2-2.7-0.8c0,0,0,0,0-0.1l0,0c-3.7-7.5-8.1-14.7-13.1-21.3c-2.6-3.3-5.2-6.6-8.1-9.6c-2.9-3.1-5.8-6-9-8.8"/>
	<path class="st24" d="M309,51.4c3,2.6,5.9,5.4,8.7,8.3c2.8,2.9,5.4,6,7.9,9.1c4.9,6.4,9.3,13.2,12.9,20.5c0.5,1,0.1,2.2-0.9,2.7
		c-1,0.5-2.2,0.1-2.7-0.9c0,0,0,0,0-0.1l0,0c-3.2-7.1-7.1-14-11.6-20.4c-2.3-3.2-4.7-6.3-7.3-9.3c-2.6-2.9-5.3-5.8-8.2-8.5"/>
	<path class="st24" d="M298.6,52c5,5,9.8,10.4,14,16.2l1.6,2.1l0.8,1.1l0.7,1.1l2.9,4.5c1,1.5,1.9,3.1,2.8,4.6l2.7,4.7
		c0.5,1,0.2,2.2-0.7,2.7c-1,0.5-2.2,0.2-2.7-0.7c0,0,0-0.1,0-0.1l-0.1-0.1l-2.4-4.7c-0.8-1.5-1.5-3.1-2.5-4.6l-2.7-4.5l-0.7-1.1
		l-0.7-1.1l-1.5-2.2c-3.8-5.8-8.3-11.3-13-16.5"/>
	<path class="st24" d="M291.2,55.3c1.1,1.2,2,2.6,3,3.9c2,2.6,3.8,5.3,5.7,8c1,1.3,1.8,2.7,2.7,4.1l2.6,4.2c1.6,2.8,3.2,5.7,4.8,8.5
		c0.5,1,0.2,2.2-0.8,2.7s-2.2,0.2-2.7-0.8c0,0,0-0.1,0-0.1l-0.1-0.1c-1.4-2.9-2.8-5.8-4.3-8.6l-2.3-4.2c-0.8-1.4-1.5-2.8-2.4-4.2
		c-1.7-2.7-3.3-5.5-5.2-8.1c-0.9-1.3-1.8-2.7-2.7-4l-2.9-3.9"/>
	<path class="st24" d="M280.2,55.1l2.1,3.6l1.1,1.8l1,1.9l2,3.7c1.3,2.5,2.5,5.1,3.7,7.6l3.4,7.7c0.4,1,0,2.2-1,2.6s-2.2,0-2.6-1
		c0,0,0-0.1,0-0.1l0-0.1l-2.8-7.8c-1.1-2.5-2.1-5.1-3.2-7.7l-1.7-3.8l-0.9-1.9l-0.9-1.8l-1.9-3.7l-2-3.6"/>
	<path class="st24" d="M267,53.6c1.9,4.6,3.7,9.3,5.4,13.9c1.8,4.7,3.4,9.4,5.1,14.1c0.4,1-0.2,2.2-1.2,2.6c-1,0.4-2.2-0.2-2.6-1.2
		c0,0,0-0.1,0-0.1l0,0c-1.3-4.8-2.7-9.5-4.1-14.3c-1.4-4.8-2.9-9.5-4.5-14.2"/>
	<path class="st24" d="M258.2,54.2c1.5,9.2,2.8,18.5,4,27.8c0.1,1.1-0.6,2.1-1.7,2.2c-1.1,0.1-2.1-0.6-2.2-1.7c0,0,0-0.1,0-0.1
		c-0.5-9.3-1.2-18.6-2-27.9"/>
	<path class="st2" d="M356.7,191.4c-0.6-1.6-1.7-2.8-2.9-3.6c-2.3-1.6-4.6-2.1-6.9-2.5c-1.1-0.2-2.3-0.3-3.4-0.3c-0.6,0-1.1,0-2,0.1
		c-0.1,0-0.1,0-0.5,0.1c-0.3,0.1-0.6,0.3-0.8,0.4c-0.3,0.2-0.6,0.5-0.7,0.7c-0.1,0.2-0.3,0.4-0.4,0.6l-0.3,0.5
		c-0.6,1.2-0.9,2.3-1.2,3.4c-0.3,1.1-0.5,2.1-0.6,3.2c-0.3,2.1-0.5,4.2-0.6,6.3c-0.8-0.8-1.4-1.7-2-2.8c-0.9-1.5-1.5-3.1-2-4.8
		c-0.1-0.4-0.2-0.9-0.4-1.3c-0.1-0.2-0.1-0.4-0.1-0.6l-0.1-0.5c-0.1-0.7-0.1-1.4,0-2.1c0.1-1.4,0.8-2.8,1.7-4.2
		c1.8-2.9,4.7-5.6,7.7-8.4c1.5-1.4,3-2.9,4.5-4.6c1.5-1.7,2.9-3.5,3.8-5.9c0.1-0.3,0.2-0.6,0.3-0.9c0.1-0.3,0.2-0.6,0.2-1
		c0-0.3,0.1-0.7,0.1-1l0-0.9c0-0.6,0-1.2-0.1-1.9c-0.1-0.6-0.2-1.2-0.4-1.8c-0.8-2.4-2.4-4.4-4.2-5.8c-1.9-1.4-4-2.2-6.1-2.7
		c-2.1-0.5-4.3-0.6-6.4-0.3l0.1,0.7c2,0.2,3.9,0.7,5.7,1.6c1.8,0.8,3.4,1.9,4.6,3.2c1.3,1.3,2.1,2.8,2.3,4.4
		c0.1,0.4,0.1,0.8,0.1,1.2c0,0.4,0,0.8-0.1,1.2l-0.1,0.6c0,0.2-0.1,0.3-0.1,0.5c0,0.2-0.1,0.3-0.2,0.5c-0.1,0.2-0.1,0.3-0.2,0.5
		c-0.3,0.7-0.8,1.4-1.4,2c-0.6,0.7-1.2,1.3-1.9,2c-1.4,1.3-2.9,2.5-4.5,3.8c-3.2,2.6-6.5,5.3-9.4,9.2c-1.4,2-2.6,4.3-3,7
		c-0.3,1.3-0.2,2.7-0.1,4c0.1,0.6,0.2,1.4,0.4,1.9c0.1,0.6,0.3,1.1,0.4,1.7c1.3,4.4,3.6,8.8,7.8,12c1.1,0.8,2.3,1.5,3.6,1.9
		c0.2,1.5,0.5,3,0.9,4.5c0.6,2.1,1.5,4.2,2.8,6.1l0.4,0.6c0.1,0.2,0.3,0.4,0.4,0.5c0.2,0.4,0.4,0.8,0.6,1.2c0.3,0.8,0.5,1.6,0.6,2.5
		c0.1,1.7-0.3,3.6-1,5.3c-1.5,3.5-4,6.7-6.6,9.8l-4.1,4.6c-0.7,0.9-1.5,1.9-1.5,3.3c-0.1,1.3,0.5,2.5,1.2,3.3
		c0.7,0.9,1.6,1.6,2.5,2.1c0.9,0.6,1.9,1,2.9,1.4c0.5,0.2,1,0.3,1.7,0.4c0.7,0,1.3-0.4,1.7-0.8c0.8-0.8,1.3-1.8,1.7-2.8l-0.7-0.2
		c-0.4,0.9-0.9,1.8-1.6,2.4c-0.3,0.3-0.7,0.5-1,0.4c-0.4-0.1-0.9-0.2-1.3-0.4c-0.9-0.4-1.8-0.9-2.6-1.5c-0.8-0.6-1.5-1.2-2-2
		c-0.5-0.7-0.8-1.6-0.7-2.3c0-0.8,0.6-1.5,1.2-2.2l4.3-4.3c2.9-3,5.7-6.1,7.6-10.1c0.9-2,1.6-4.2,1.6-6.6c0-1.2-0.2-2.4-0.6-3.5
		c-0.2-0.6-0.4-1.1-0.7-1.6c-0.1-0.3-0.3-0.5-0.4-0.8l-0.4-0.7c-1-1.5-1.6-3.3-2.1-5.1c-0.2-0.9-0.4-1.8-0.5-2.8
		c2.8,0.1,5.4-0.9,7.5-2.2c2.1-1.4,3.8-3.1,5.2-4.9c1.4-1.8,2.7-3.8,3.4-6.5C357.3,194.7,357.3,193,356.7,191.4z M343.2,189.7
		C343.2,189.7,343.2,189.7,343.2,189.7L343.2,189.7C343.2,189.7,343.2,189.7,343.2,189.7z M343.2,189.6
		C343.2,189.6,343.2,189.6,343.2,189.6C343.2,189.6,343.2,189.6,343.2,189.6z M351.5,194.8c-0.4,1.2-1.4,2.7-2.5,4.1
		c-1.2,1.4-2.5,2.5-3.9,3.3c-1.6,0.9-3.1,1.2-4.6,0.9c0.1-2.7,0.4-5.4,0.9-8c0.2-0.9,0.4-1.9,0.7-2.8c0.2-0.8,0.5-1.6,0.8-2.2
		c0.2,0,0.3,0,0.5,0c0.9,0,1.8,0.1,2.7,0.3c1.8,0.3,3.5,0.9,4.6,1.8c0.5,0.4,0.8,0.8,0.9,1.2C351.7,193.7,351.7,194.1,351.5,194.8z"
		/>
	<g>
		<path class="st25" d="M161.4,115.5c-1.5-0.3-3-0.2-4.3,0.3c-1.3,0.5-2.4,1.3-3.2,2.4c-0.8,1.1-1.2,2.3-1.8,3.9
			c-0.6,1.5-1.2,2.9-1.8,4.3c-1.2,2.8-2.5,5.6-3.7,8.4c-1.2,2.8-2.3,5.6-3.3,8.5c-1,2.8-1.9,5.7-2.6,8.5c-0.3,1.4-0.6,2.8-0.8,4.3
			c-0.2,1.4-0.3,2.8-0.3,4.2c0,1.4,0.2,2.7,0.5,3.9c0.3,1.1,1,2.6,1.7,4c1.3,2.8,2.7,5.4,4,8.4c0.3,0.7,0.7,1.5,1,2.4
			c0.2,0.4,0.3,1,0.3,1.5c0,0.6,0.1,1.2-0.2,1.9c-0.2,0.6-0.6,1.3-0.9,1.7c-0.2,0.2-0.4,0.4-0.6,0.6c-0.2,0.2-0.4,0.3-0.6,0.5
			c-0.8,0.5-1.5,0.9-2.1,1.3c-2.6,1.5-5.1,3.1-7.1,5.2c-2.1,2-3.6,4.4-4.3,7.1c-0.1,0.7-0.3,1.3-0.2,2l0,1l0.1,1
			c0,0.7,0.2,1.4,0.4,2.2c0.1,0.7,0.4,1.5,0.5,2.2c1.6,5.9,3.7,11.7,5.8,17.5c2.2,5.8,4.4,11.5,6.7,17.2l-0.5,0.2
			c-2.7-5.6-5.2-11.2-7.7-16.9c-1.2-2.8-2.4-5.7-3.6-8.6c-1.2-2.9-2.2-5.8-3.2-8.8c-0.2-0.8-0.5-1.5-0.7-2.3
			c-0.2-0.8-0.4-1.5-0.5-2.4l-0.2-1.3l0-1.3c-0.1-0.9,0.1-1.7,0.2-2.6c0.6-3.4,2.5-6.4,4.8-8.8c2.3-2.4,4.9-4.3,7.6-6
			c0.7-0.4,1.3-0.8,1.8-1.2c0.5-0.4,0.7-0.7,0.7-0.8c0-0.1,0-0.2,0-0.4c-0.1-0.2-0.1-0.5-0.2-0.8c-0.2-0.6-0.5-1.2-0.8-1.9
			c-1.4-2.6-3-5.4-4.4-8.1c-0.7-1.4-1.5-2.7-2.2-4.5c-0.6-1.7-0.9-3.5-1-5.2c-0.2-3.4,0.2-6.7,1-9.9c0.8-3.2,1.8-6.2,3-9.1
			c2.4-5.9,5.4-11.4,8.5-16.7l2.3-4c0.7-1.2,1.5-2.9,2.8-4.1c1.2-1.2,2.9-2.1,4.6-2.4c1.7-0.2,3.3,0,4.8,0.7L161.4,115.5z"/>
	</g>
	<g>
		<path class="st25" d="M327.9,139.7c1.4-1,3-1.8,4.9-2c1.8-0.3,3.7,0,5.5,0.6c3.5,1.2,6.4,3.5,8.9,6c5,5,8.6,10.8,12,16.7
			c1.7,3,3.2,6,4.7,9l2.1,4.5l1,2.3l0.5,1.1l0.5,1.3c2.8,6.8,3.6,14,3.5,20.9c-0.1,3.5-0.4,7-0.9,10.4c-0.6,3.5-1.3,6.9-2.8,10.4
			c-0.4,0.9-0.8,1.7-1.3,2.6c-0.5,0.9-1.2,1.8-2.1,2.7c-0.2,0.2-0.5,0.4-0.8,0.7l-0.5,0.4l-1.1,0.7l-2,1.3c-1.3,0.9-2.6,1.8-3.6,2.7
			c-0.5,0.5-0.9,0.9-1.2,1.4c-0.3,0.4-0.4,0.8-0.5,1c0,0.3,0,0.5,0.2,0.9c0.2,0.4,0.5,0.9,1,1.3l0.4,0.4l0.5,0.5
			c0.3,0.3,0.7,0.7,1,1.1c0.6,0.8,1.2,1.6,1.7,2.6c1,2,1.1,4.4,0.7,6.3c-0.2,1-0.5,1.8-0.7,2.6c-0.2,0.7-0.3,1.4-0.3,1.5
			c0,0,0,0,0,0c0-0.1,0.1,0.2,0.1,0.3c0.1,0.3,0.2,0.6,0.2,0.9c0.1,0.6,0.1,1.1,0.1,1.6c0,1-0.2,2-0.4,2.9c-0.5,1.9-1.3,3.6-2.6,5.1
			c-1.2,1.5-2.8,2.7-4.5,3.5c-1.7,0.8-3.5,1.2-5.3,1.4l1.2-1.5c0.1,2.6-0.3,5-0.8,7.4c-0.6,2.4-1.5,4.7-2.8,6.8
			c-1.3,2.1-3,4-4.9,5.4c-2,1.5-4.2,2.5-6.5,3.1l-0.2-0.8c2.2-0.8,4.2-1.9,5.9-3.4c1.7-1.5,3.1-3.3,4.1-5.3c1-2,1.7-4.2,2.1-6.4
			c0.4-2.2,0.5-4.6,0.3-6.7l-0.1-1.3l1.3-0.2c3-0.5,5.8-1.9,7.4-4.2c0.8-1.1,1.4-2.5,1.6-3.8c0.1-0.7,0.2-1.4,0.1-2
			c0-0.3-0.1-0.6-0.1-0.9c0-0.1-0.1-0.2-0.1-0.3c0-0.1,0,0-0.1-0.3c-0.1-0.2-0.1-0.4-0.2-0.6c-0.3-1.6,0-2.5,0.2-3.4
			c0.2-0.9,0.4-1.6,0.4-2.3c0.2-1.4,0-2.4-0.6-3.4c-0.3-0.5-0.7-1-1.1-1.5c-0.2-0.2-0.5-0.5-0.7-0.7l-1-0.8
			c-0.8-0.7-1.5-1.5-2.1-2.5c-0.6-1-1-2.4-1-3.9c0.1-1.4,0.6-2.6,1.2-3.6c0.6-1,1.3-1.8,1.9-2.5c1.4-1.4,2.8-2.5,4.1-3.5l2-1.5
			l1-0.7l0.5-0.4c0,0,0.1-0.1,0.1-0.1c0.2-0.2,0.6-0.7,0.9-1.3c0.3-0.6,0.6-1.2,0.8-1.9c0.9-2.7,1.5-5.8,1.8-8.9
			c0.3-3.1,0.3-6.3,0.2-9.4c-0.3-6.3-1.3-12.5-3.3-18.1l-0.4-1l-0.5-1.2l-0.9-2.3l-1.8-4.6c-1.2-3-2.5-6-3.8-9
			c-1.3-3-2.7-5.9-4.2-8.7c-1.5-2.8-3.2-5.6-5-8.1c-1.9-2.5-4-4.8-6.6-6.3c-1.3-0.7-2.7-1.2-4.2-1.3c-1.5-0.1-3.1,0.2-4.6,0.8
			L327.9,139.7z"/>
	</g>
	<g>
		<path class="st25" d="M179.9,213.6c-0.3-9.1-0.7-18-2.3-26.6c-1.6-8.6-4.2-16.9-7.8-25c-1.8-4.1-3.8-8.2-5.3-12.6
			c-0.8-2.2-1.4-4.5-1.8-6.8c-0.4-2.3-0.6-4.7-0.5-7c0.1-4.7,1-9.3,2.4-13.7c1.5-4.4,3.3-8.5,5.8-12.5l0-0.1l0,0
			c1.1-1.2,2.3-2.1,3.7-3c1.3-0.8,2.7-1.5,4.2-2c1.5-0.5,3.1-0.7,4.6-0.6c1.6,0,3.1,0.4,4.5,0.9l-0.2,0.5c-1.4-0.4-2.9-0.6-4.4-0.6
			c-1.5,0.1-2.9,0.4-4.3,0.9c-1.4,0.5-2.6,1.2-3.8,2.1c-1.2,0.8-2.3,1.8-3.2,2.9l0.1-0.1c-2.1,3.8-3.7,8.1-4.8,12.3
			c-1.1,4.3-1.8,8.6-1.6,12.9c0.1,2.2,0.3,4.3,0.8,6.4c0.5,2.1,1.2,4.1,2,6.1c1.6,4,3.8,7.9,5.9,12c2.1,4,4.1,8.2,5.5,12.7
			c1.4,4.4,2.4,9,2.9,13.6c1,9.2,0.2,18.5-1.8,27.3L179.9,213.6z"/>
	</g>
	<g>
		<path class="st26" d="M131.5,172.5c0,0,47.4-13.4,121.3-13.4s118.2,6.8,122.5,13.4c0,0,5,1.3,4.9-5.4c-0.1-5.8,0.3-55.9-11.4-61.9
			c-5.7-2.9-70.9-13.8-120.4-12s-115.2,10.5-121,21.6c-4.7,9-1.3,54.1-1,55.1C126.8,171,126.4,173.7,131.5,172.5z"/>
	</g>
	<g>
		<path class="st27" d="M125.3,153.1c0.2,2.8,0.4,5.6,0.6,8.4c0.2,2.8,0.4,5.7,0.8,8.3c0.2,0.7,0.2,1.4,0.6,1.9
			c0.4,0.5,1,0.7,1.7,0.7c1.3,0.1,2.7-0.4,4-0.8c2.7-0.7,5.5-1.4,8.2-2.1c11-2.5,22.1-4.5,33.3-6.1c2.8-0.4,5.6-0.8,8.4-1.2l8.4-1
			c5.6-0.6,11.2-1.1,16.9-1.5c5.6-0.5,11.3-0.8,16.9-1.1c2.8-0.2,5.6-0.2,8.5-0.3c2.8-0.1,5.6-0.2,8.5-0.2
			c11.3-0.2,22.6-0.1,33.8,0.1c11.3,0.3,22.5,0.7,33.8,1.4c11.3,0.7,22.5,1.8,33.7,3.3c5.6,0.8,11.2,1.7,16.7,2.9
			c2.8,0.6,5.5,1.3,8.2,2.2c1.3,0.4,2.7,1,4,1.6c1.3,0.6,2.6,1.3,3.5,2.6l-0.2-0.1c0.8,0.2,1.8,0.1,2.6-0.3c0.8-0.4,1.3-1.2,1.6-2
			c0.6-1.8,0.3-3.7,0.3-5.7l-0.1-11.6l0.4,11.6l0.1,2.9c0,1,0,2-0.3,2.9c-0.3,0.9-0.9,1.9-1.8,2.4c-0.9,0.5-2,0.6-3,0.4l-0.1,0
			l-0.1-0.1c-0.8-1-2-1.7-3.3-2.3c-1.3-0.6-2.6-1-3.9-1.4c-2.7-0.8-5.4-1.4-8.2-2c-5.5-1.1-11.1-1.9-16.6-2.6
			c-11.2-1.4-22.4-2.2-33.6-2.8c-22.5-1.3-45-1.6-67.5-1.3c-2.8,0-5.6,0.1-8.4,0.2c-2.8,0.1-5.6,0.1-8.4,0.3
			c-5.6,0.3-11.2,0.5-16.8,1c-11.2,0.8-22.4,1.9-33.6,3.4c-11.2,1.5-22.3,3.3-33.3,5.6c-2.8,0.6-5.5,1.2-8.2,1.8
			c-1.3,0.3-2.7,0.8-4.2,0.7c-0.7,0-1.6-0.3-2.1-1c-0.5-0.7-0.5-1.5-0.7-2.1c-0.2-1.5-0.3-2.8-0.4-4.3l-0.2-4.2
			C125.5,158.7,125.4,155.9,125.3,153.1z"/>
	</g>
	<g>
		<path class="st27" d="M369.5,104.9l-1.8-0.6l-1.9-0.4c-1.2-0.3-2.5-0.5-3.8-0.8c-2.5-0.5-5-0.9-7.6-1.4
			c-5.1-0.8-10.1-1.6-15.2-2.2c-10.1-1.4-20.3-2.5-30.5-3.4c-10.2-0.9-20.4-1.6-30.6-2c-10.2-0.4-20.4-0.4-30.6,0
			c-20.4,0.8-40.8,2.5-61.1,5c-10.1,1.3-20.3,2.8-30.3,4.8c-5,1-10,2.2-14.9,3.6c-2.4,0.8-4.9,1.6-7.2,2.7c-1.2,0.5-2.3,1.1-3.4,1.8
			c-1.1,0.7-2.1,1.5-2.7,2.7c0.6-1.1,1.6-2,2.6-2.8c1-0.8,2.2-1.4,3.3-2c2.3-1.1,4.7-2.1,7.1-2.9c4.9-1.6,9.8-2.9,14.8-4.1
			c10-2.2,20.1-3.9,30.3-5.4c10.2-1.5,20.4-2.5,30.6-3.4c10.2-0.9,20.4-1.6,30.7-2c10.3-0.3,20.5-0.2,30.8,0.2
			c10.2,0.5,20.5,1.2,30.7,2.3c10.2,1.1,20.4,2.4,30.5,4c5.1,0.8,10.1,1.7,15.1,2.7c2.5,0.5,5,1,7.5,1.6c1.2,0.3,2.5,0.6,3.7,0.9
			l1.8,0.5L369.5,104.9z"/>
	</g>
	<g>
		<path class="st23" d="M133.1,167.4c-1,0-1.9-0.8-2-1.8c-0.1-1.3-3.4-32.4-0.6-49.3c0.2-1.1,1.2-1.8,2.3-1.6
			c1.1,0.2,1.8,1.2,1.6,2.3c-2.8,16.4,0.6,47.9,0.6,48.2c0.1,1.1-0.7,2.1-1.8,2.2C133.3,167.4,133.2,167.4,133.1,167.4z"/>
	</g>
	<g>
		<path class="st23" d="M143.3,165.4c-1,0-1.9-0.8-2-1.8c-0.1-1.3-3.4-32.4-0.6-49.3c0.2-1.1,1.2-1.8,2.3-1.6
			c1.1,0.2,1.8,1.2,1.6,2.3c-2.8,16.4,0.6,47.9,0.6,48.2c0.1,1.1-0.7,2.1-1.8,2.2C143.4,165.4,143.3,165.4,143.3,165.4z"/>
	</g>
	<g>
		<path class="st23" d="M152.3,162.4c-1,0-1.9-0.8-2-1.8c-0.1-1.3-3.4-32.4-0.6-49.3c0.2-1.1,1.2-1.8,2.3-1.6
			c1.1,0.2,1.8,1.2,1.6,2.3c-2.8,16.4,0.6,47.9,0.6,48.2c0.1,1.1-0.7,2.1-1.8,2.2C152.5,162.4,152.4,162.4,152.3,162.4z"/>
	</g>
	<g>
		<path class="st23" d="M161.5,160.4c-1,0-1.9-0.8-2-1.8c-0.1-1.3-3.4-32.4-0.6-49.3c0.2-1.1,1.2-1.8,2.3-1.6
			c1.1,0.2,1.8,1.2,1.6,2.3c-2.8,16.4,0.6,47.9,0.6,48.2c0.1,1.1-0.7,2.1-1.8,2.2C161.6,160.4,161.5,160.4,161.5,160.4z"/>
	</g>
	<g>
		<path class="st23" d="M171.4,159.4c-1,0-1.9-0.8-2-1.8c-0.1-1.3-3.4-32.4-0.6-49.3c0.2-1.1,1.2-1.8,2.3-1.6
			c1.1,0.2,1.8,1.2,1.6,2.3c-2.8,16.4,0.6,47.9,0.6,48.2c0.1,1.1-0.7,2.1-1.8,2.2C171.5,159.4,171.4,159.4,171.4,159.4z"/>
	</g>
	<g>
		<path class="st23" d="M180.5,157.4c-1,0-1.9-0.8-2-1.8c-0.1-1.3-3.4-32.4-0.6-49.3c0.2-1.1,1.2-1.8,2.3-1.6
			c1.1,0.2,1.8,1.2,1.6,2.3c-2.8,16.4,0.6,47.9,0.6,48.2c0.1,1.1-0.7,2.1-1.8,2.2C180.7,157.4,180.6,157.4,180.5,157.4z"/>
	</g>
	<g>
		<path class="st23" d="M190.9,156.4c-1,0-1.9-0.8-2-1.8c-0.1-1.3-3.4-32.4-0.6-49.3c0.2-1.1,1.2-1.8,2.3-1.6
			c1.1,0.2,1.8,1.2,1.6,2.3c-2.8,16.4,0.6,47.9,0.6,48.2c0.1,1.1-0.7,2.1-1.8,2.2C191.1,156.4,191,156.4,190.9,156.4z"/>
	</g>
	<g>
		<path class="st23" d="M201.1,154.4c-1,0-1.9-0.8-2-1.8c-0.1-1.3-3.4-32.4-0.6-49.3c0.2-1.1,1.2-1.8,2.3-1.6
			c1.1,0.2,1.8,1.2,1.6,2.3c-2.8,16.4,0.6,47.9,0.6,48.2c0.1,1.1-0.7,2.1-1.8,2.2C201.3,154.4,201.2,154.4,201.1,154.4z"/>
	</g>
	<g>
		<path class="st23" d="M211.1,153.4c-1,0-1.9-0.8-2-1.8c-0.1-1.3-3.4-32.4-0.6-49.3c0.2-1.1,1.2-1.8,2.3-1.6
			c1.1,0.2,1.8,1.2,1.6,2.3c-2.8,16.4,0.6,47.9,0.6,48.2c0.1,1.1-0.7,2.1-1.8,2.2C211.3,153.4,211.2,153.4,211.1,153.4z"/>
	</g>
	<g>
		<path class="st23" d="M220.3,152.4c-1,0-1.9-0.8-2-1.8c-0.1-1.3-3.4-32.4-0.6-49.3c0.2-1.1,1.2-1.8,2.3-1.6
			c1.1,0.2,1.8,1.2,1.6,2.3c-2.8,16.4,0.6,47.9,0.6,48.2c0.1,1.1-0.7,2.1-1.8,2.2C220.4,152.4,220.4,152.4,220.3,152.4z"/>
	</g>
	<g>
		<path class="st23" d="M230.2,151.4c-1,0-1.9-0.8-2-1.8c-0.1-1.3-3.4-32.4-0.6-49.3c0.2-1.1,1.2-1.8,2.3-1.6
			c1.1,0.2,1.8,1.2,1.6,2.3c-2.8,16.4,0.6,47.9,0.6,48.2c0.1,1.1-0.7,2.1-1.8,2.2C230.3,151.4,230.3,151.4,230.2,151.4z"/>
	</g>
	<g>
		<path class="st23" d="M240.3,151.4c-1,0-1.9-0.8-2-1.8c-0.1-1.3-3.4-32.4-0.6-49.3c0.2-1.1,1.2-1.8,2.3-1.6
			c1.1,0.2,1.8,1.2,1.6,2.3c-2.8,16.4,0.6,47.9,0.6,48.2c0.1,1.1-0.7,2.1-1.8,2.2C240.5,151.4,240.4,151.4,240.3,151.4z"/>
	</g>
	<g>
		<path class="st23" d="M373,164.4C373,164.4,373,164.4,373,164.4c-1.2,0-2-0.9-2-2c0-0.4,0.8-35.3-6.1-51.3c-0.4-1,0-2.2,1.1-2.6
			c1-0.4,2.2,0,2.6,1.1c7.2,16.8,6.4,51.5,6.4,53C375,163.5,374.1,164.4,373,164.4z"/>
	</g>
	<g>
		<path class="st23" d="M364.8,160.4c-1,0-1.9-0.8-2-1.9c0-0.3-2.3-33-6.2-49.2c-0.3-1.1,0.4-2.2,1.5-2.4c1.1-0.3,2.2,0.4,2.4,1.5
			c3.9,16.6,6.2,48.5,6.3,49.9c0.1,1.1-0.8,2.1-1.9,2.1C364.9,160.4,364.9,160.4,364.8,160.4z"/>
	</g>
	<g>
		<path class="st23" d="M353.5,158.1c-1.1,0-2-0.9-2-2c0-0.3-0.2-33-4-49.2c-0.3-1.1,0.4-2.2,1.5-2.4c1.1-0.3,2.2,0.4,2.4,1.5
			c4,16.6,4.1,48.8,4.1,50.1C355.5,157.2,354.6,158.1,353.5,158.1C353.5,158.1,353.5,158.1,353.5,158.1z"/>
	</g>
	<g>
		<path class="st23" d="M342.7,155.7C342.7,155.7,342.7,155.7,342.7,155.7c-1.2,0-2-1-2-2.1c0-0.3,1.3-32-2.5-48.1
			c-0.3-1.1,0.4-2.2,1.5-2.4c1.1-0.3,2.2,0.4,2.4,1.5c4,16.7,2.7,47.9,2.6,49.2C344.7,154.9,343.8,155.7,342.7,155.7z"/>
	</g>
	<g>
		<path class="st23" d="M332.8,155.4C332.8,155.4,332.7,155.4,332.8,155.4c-1.2,0-2-1-2-2.1c0-0.3,1.3-32-2.5-48.1
			c-0.3-1.1,0.4-2.2,1.5-2.4c1.1-0.3,2.2,0.4,2.4,1.5c4,16.7,2.7,47.9,2.6,49.2C334.7,154.5,333.8,155.4,332.8,155.4z"/>
	</g>
	<g>
		<path class="st23" d="M323.5,154C323.5,154,323.5,154,323.5,154c-1.2,0-2-1-2-2.1c0-0.3,1.3-32-2.5-48.1c-0.3-1.1,0.4-2.2,1.5-2.4
			c1.1-0.3,2.2,0.4,2.4,1.5c4,16.7,2.7,47.9,2.6,49.2C325.5,153.1,324.6,154,323.5,154z"/>
	</g>
	<g>
		<path class="st23" d="M313,153.6C313,153.6,313,153.6,313,153.6c-1.2,0-2-1-2-2.1c0-0.3,1.3-32-2.5-48.1c-0.3-1.1,0.4-2.2,1.5-2.4
			c1.1-0.3,2.2,0.4,2.4,1.5c4,16.7,2.7,47.9,2.6,49.2C315,152.8,314.1,153.6,313,153.6z"/>
	</g>
	<g>
		<path class="st23" d="M302.8,152.3C302.7,152.3,302.7,152.3,302.8,152.3c-1.2,0-2-1-2-2.1c0-0.3,1.3-32-2.5-48.1
			c-0.3-1.1,0.4-2.2,1.5-2.4c1.1-0.3,2.2,0.4,2.4,1.5c4,16.7,2.7,47.9,2.6,49.2C304.7,151.5,303.8,152.3,302.8,152.3z"/>
	</g>
	<g>
		<path class="st23" d="M293.7,151.9C293.7,151.9,293.6,151.9,293.7,151.9c-1.2,0-2-1-2-2.1c0-0.3,1.3-32-2.5-48.1
			c-0.3-1.1,0.4-2.2,1.5-2.4c1.1-0.3,2.2,0.4,2.4,1.5c4,16.7,2.7,47.9,2.6,49.2C295.6,151,294.7,151.9,293.7,151.9z"/>
	</g>
	<g>
		<path class="st23" d="M282.5,151.5C282.5,151.5,282.4,151.5,282.5,151.5c-1.2,0-2-1-2-2.1c0-0.3,1.3-32-2.5-48.1
			c-0.3-1.1,0.4-2.2,1.5-2.4c1.1-0.3,2.2,0.4,2.4,1.5c4,16.7,2.7,47.9,2.6,49.2C284.4,150.7,283.5,151.5,282.5,151.5z"/>
	</g>
	<g>
		<path class="st23" d="M272.5,151.2C272.5,151.2,272.5,151.2,272.5,151.2c-1.1,0-2-0.9-2-2c0-0.3,0.2-32.6-2.5-48.3
			c-0.2-1.1,0.5-2.1,1.6-2.3c1.1-0.2,2.1,0.5,2.3,1.6c2.8,16.1,2.6,47.7,2.6,49.1C274.5,150.3,273.6,151.2,272.5,151.2z"/>
	</g>
	<g>
		<path class="st23" d="M262.4,151.8c-1.1,0-2-0.9-2-2c0-21.8-0.8-37.1-2.6-49.4c-0.2-1.1,0.6-2.1,1.7-2.3c1.1-0.2,2.1,0.6,2.3,1.7
			c1.8,12.7,2.6,27.7,2.6,50C264.4,150.9,263.5,151.8,262.4,151.8C262.4,151.8,262.4,151.8,262.4,151.8z"/>
	</g>
	<g>
		<path class="st23" d="M251.7,151.8c-1,0-1.9-0.8-2-1.8c0-0.3-2.6-33.3-2.6-49.9c0-1.1,0.9-2,2-2s2,0.9,2,2
			c0,16.4,2.5,49.2,2.6,49.5c0.1,1.1-0.7,2.1-1.8,2.1C251.8,151.8,251.8,151.8,251.7,151.8z"/>
	</g>
	<g>
		<path class="st28" d="M314.3,337.8c0,0-3.7,7.5-9,16.4c-5.4,8.9-5.8,115.7-5.8,115.7s-0.6,3.6-3.4,3.6h-32.1
			c-2.4,0-4.4-1.9-4.4-4.3c-0.2-17.3,0-80.8,10.5-95.5C280.1,359.5,306.6,350.6,314.3,337.8z"/>
	</g>
	<g>
		<path class="st28" d="M199.3,353.5c-2.4-1.5-4.8-0.4-5-0.5c5.4,8.9,9.3,96.9,9.3,96.9s0.6,3.6,3.4,3.6h27.1c2.4,0,4.4-1.9,4.4-4.3
			c0.2-17.3,0-60.8-10.5-75.5C217.9,359.5,201.7,355,199.3,353.5z"/>
	</g>
	<g>
		<path class="st9" d="M234.2,453.4c1.3,0,2.5-0.6,3.3-1.6c0.4-0.5,0.7-1.1,0.8-1.7c0.2-0.6,0.1-1.2,0.1-1.9l-0.1-7.8
			c-0.1-5.2-0.3-10.4-0.5-15.6c-0.5-10.3-1.4-20.7-3.4-30.8c-1-5-2.3-10.1-4.3-14.7c-1-2.3-2.2-4.5-3.9-6.4c-1.5-2-3.3-3.9-5.1-5.6
			c-1.9-1.7-3.8-3.4-5.9-4.8c-2.1-1.5-4.3-2.8-6.6-4c-2.3-1.2-4.6-2.3-7-3.4c-0.6-0.3-1.2-0.6-1.8-0.9c-0.6-0.4-1.1-0.7-1.7-0.9
			c-0.6-0.2-1.2-0.3-1.8-0.3c-0.3,0-0.6,0-0.9,0.1l-0.5,0.1c-0.2,0-0.3,0.1-0.6,0l0.1-0.2l0.9-0.2c0.3-0.1,0.6-0.1,1-0.2
			c0.7-0.1,1.4,0,2,0.2c0.7,0.2,1.3,0.6,1.8,0.8c0.6,0.2,1.2,0.5,1.8,0.7c2.4,0.9,4.9,1.9,7.2,3c4.7,2.2,9.2,5.1,13.2,8.6
			c1.9,1.8,3.8,3.7,5.4,5.8c0.4,0.5,0.8,1,1.2,1.6c0.4,0.6,0.8,1.1,1.1,1.7c0.7,1.2,1.2,2.4,1.8,3.6c2,4.9,3.2,10.1,4.1,15.2
			c1.8,10.3,2.5,20.7,2.8,31.1c0.1,5.2,0.2,10.4,0.1,15.6l-0.1,7.8c0,0.6,0,1.3-0.2,2c-0.2,0.7-0.5,1.3-0.9,1.8
			c-0.9,1-2.2,1.6-3.5,1.6V453.4z"/>
	</g>
	<g>
		<path class="st29" d="M204,318.3c-1,1.7-1.4,3.7-1.2,5.6c0.2,1.9,1,3.7,2.1,5.3c2.3,3.1,5.7,5.2,9.1,7c6.8,3.9,14.9,4,22.6,3
			c3.9-0.5,7.7-1.2,11.5-2.2c3.8-0.9,7.6-2.1,11.4-3.2c3.8-1.2,7.5-2.5,11.2-3.8l5.6-2c1.9-0.6,3.7-1.4,5.7-1.8
			c-1,0.2-1.9,0.7-2.8,1.1l-2.7,1.2l-5.4,2.4c-3.6,1.6-7.3,3.1-11.1,4.4c-7.5,2.7-15.2,4.9-23.1,5.9c-4,0.5-8,0.7-12.1,0.2
			c-1-0.2-2-0.3-3-0.5c-0.5-0.1-1-0.2-1.5-0.3l-1.5-0.4c-0.5-0.1-1-0.3-1.4-0.5c-0.5-0.2-1-0.4-1.4-0.6l-2.7-1.4
			c-3.5-2-6.9-4.4-9.2-7.8c-1.1-1.7-1.8-3.7-1.8-5.8C202.2,321.9,202.9,319.9,204,318.3z"/>
	</g>
	<g>
		<path class="st29" d="M303.2,323.8c0.7,0.8,1.5,1.6,2,2.6c0.5,1,0.6,2.2,0.1,3.3c-0.5,1-1.3,1.9-2.3,2.5c-0.5,0.3-0.9,0.6-1.4,0.9
			c-0.5,0.3-1,0.5-1.4,0.8c-0.4,0.3-0.9,0.5-1.3,0.8l-1.3,0.9c-0.9,0.6-1.7,1.3-2.5,2c-1.6,1.4-3.3,2.8-4.9,4.2
			c-6.4,5.7-12.8,11.6-19.3,17.3c-1.7,1.4-3.3,2.8-5,4.1c-1.7,1.4-3.5,2.7-5.4,3.8l-1.6,0.8c-0.5,0.2-1,0.4-1.5,0.6
			c-1,0.4-2.1,0.7-3.1,1.1c-2.1,0.7-4.3,1.1-6.5,1.4c-2.2,0.3-4.4,0.2-6.6-0.1l-1.6-0.3c-0.5-0.1-1.1-0.3-1.6-0.4
			c-1.1-0.3-2.1-0.7-3.1-1.1c-1-0.4-2-1-2.9-1.5c-0.9-0.6-1.8-1.2-2.7-1.8c-0.8-0.7-1.7-1.3-2.5-2l-2.3-2.3
			c3.3,2.8,6.9,5.3,10.9,6.7c4,1.5,8.3,1.9,12.4,1.3c2.1-0.3,4.1-0.8,6.1-1.5c1-0.3,2-0.7,3-1.1c0.5-0.2,1-0.4,1.5-0.6l1.3-0.7
			c3.5-2.2,6.8-5.1,10.1-7.8c6.6-5.6,12.9-11.4,19.6-16.9c1.7-1.4,3.4-2.7,5.1-4.1c0.9-0.6,1.7-1.3,2.7-1.9l1.4-0.9
			c0.5-0.3,1-0.5,1.5-0.8c0.5-0.3,1-0.4,1.5-0.7c0.5-0.2,0.9-0.5,1.4-0.8c0.9-0.5,1.7-1.2,2.2-2.1c0.5-0.9,0.5-2,0.1-3
			C304.6,325.5,303.9,324.6,303.2,323.8z"/>
	</g>
	<g>
		<path class="st19" d="M218.4,353.6l8.2,3.7c2.7,1.3,5.5,2.6,8.1,4.1l3.8,2.3c1.1,0.6,2.5,0.9,3.9,1c2.8,0.2,5.8-0.4,8.6-1.2
			c2.8-0.8,5.6-1.9,8.2-3.3c1.3-0.7,2.6-1.5,3.7-2.3l3.6-2.7c4.8-3.6,9.6-7.3,14.9-10.2c-5.2,3.1-9.8,7-14.4,10.7l-3.5,2.9
			c-1.2,1-2.5,1.8-3.8,2.6c-2.6,1.5-5.4,2.8-8.3,3.8c-2.9,1-5.9,1.7-9.1,1.6c-1.6,0-3.2-0.3-4.8-1.1l-4-2.2
			c-2.6-1.4-5.3-2.5-8.1-3.7l-8.4-3.3l0,0c-0.8-0.3-1.1-1.2-0.8-1.9S217.6,353.2,218.4,353.6C218.4,353.5,218.4,353.5,218.4,353.6z"
			/>
	</g>
</g>
<g id="Layer_3">
</g>
<g id="BEELD">
</g>
<g id="Layer_7" class="st30">
	<line class="st31" x1="-394.5" y1="572.2" x2="-394.5" y2="1602.8"/>
</g>
<g id="Layer_8">
</g>
</svg>
