<?xml version="1.0" encoding="utf-8"?>
<!-- Generator: Adobe Illustrator 26.2.1, SVG Export Plug-In . SVG Version: 6.00 Build 0)  -->
<svg version="1.1" id="Layer_1" xmlns="http://www.w3.org/2000/svg" xmlns:xlink="http://www.w3.org/1999/xlink" x="0px" y="0px"
	 viewBox="0 0 507.9 507.9" style="enable-background:new 0 0 507.9 507.9;" xml:space="preserve">
<style type="text/css">
	.st0{fill:#E49225;}
	.st1{fill:#F99D1C;}
	.st2{fill:#B16B24;}
	.st3{fill:#F9F2E5;}
	.st4{fill:#FFFFFF;}
	.st5{fill:#C8A280;}
	.st6{fill:#EAD6C8;}
	.st7{opacity:5.000000e-02;}
	.st8{fill:#00303D;}
	.st9{fill:#002F3D;}
	.st10{fill:#003F4D;}
	.st11{fill:#10505B;}
	.st12{fill:#1C6067;}
</style>
<g>
	<circle class="st0" cx="253.9" cy="254" r="253.6"/>
	<path class="st1" d="M433.2,74.7c-99-99-259.6-99-358.6,0l358.6,358.6C532.3,334.2,532.3,173.7,433.2,74.7z"/>
	<rect x="116.6" y="112.1" class="st2" width="244" height="296.2"/>
	<rect x="98" y="93.6" class="st3" width="244" height="296.2"/>
	<path class="st4" d="M98,93.6v261.1h22.6c102.8,0,186.2-83.4,186.2-186.2V93.6H98z"/>
	<g>
		<rect x="141.7" y="160.5" class="st5" width="138.6" height="22.3"/>
		<rect x="141.7" y="225.5" class="st5" width="138.6" height="22.3"/>
		<rect x="141.7" y="290.5" class="st5" width="104.2" height="22.3"/>
	</g>
	<path class="st4" d="M220,317.7l26.1-11c0,0,45-62,51.4-103.3s4.3-68.1,4.3-68.1l-85.4,13.2l-35.8,75.7l35.8,95"/>
	<path class="st4" d="M184.4,290.5l66.3,36.6c0,0,36.8-19.6,59.3-79.3c22.5-59.7,14.8-100,14.8-100l-33.7-18.9L184.4,290.5z"/>
	<rect x="180.7" y="210.6" class="st6" width="103.4" height="50.7"/>
	<g>
		<g class="st7">
			<circle class="st4" cx="283.1" cy="234.1" r="76.9"/>
		</g>
		<g class="st7">
			<path class="st4" d="M250.2,164.6c15.3-7.2,31.7-8.9,47.1-6l-51.3,143c-13.7-7.5-25.3-19.3-32.5-34.6
				C195.4,228.5,211.8,182.7,250.2,164.6z"/>
		</g>
	</g>
	<path class="st8" d="M295.6,339.9c24.2-2.3,45.6-12.5,62-28l0.8,8.2c0.3,3.2,1.8,6.1,4.3,8.2l20.6-26.8c-2.5-2,2-10.3-1.2-10
		l-8.2,0.8c12.2-19,18.3-41.9,16-66.1c-2.2-23.9-28.4-109.1-126.2-96.5c-5.9,0.8-25.1,4-14.8,8.4c-43,16.2-71.7,59.6-67.3,107.6
		C187.2,303,238.1,345.2,295.6,339.9z M209.5,242.9c-3.9-42.2,27-79.7,69.3-83.6c42.2-3.9,79.7,27,83.6,69.3
		c3.9,42.2-27,79.7-69.3,83.6C250.8,316.2,213.4,285.2,209.5,242.9z"/>
	<path class="st9" d="M358.4,261.5l5.3,0.2c0,0,1.5,3,4.9,5c4.9,2.9,12.5,5,16.2,3.4c-2.7,7.5-6.2,14.7-10.5,21.4l-44.8,7.1
		C342.7,289.5,352.9,276.6,358.4,261.5z"/>
	<path class="st8" d="M183.7,243.5c-2-43.2,22.6-81.4,59.3-99l4.7,12.4l48.9-14.5l23.1,24.2c-32.2-15.4-69.7,5.4-69.7,5.4l0,0
		c-24.2,13.8-40,40.4-38.7,70.2c1.9,42.4,37.8,75.2,80.2,73.2c5.4-0.2,55.7-25.3,60.8-26.6l4.1,26.2c-25.8,21.9-56,25.9-64.4,26.3
		C234.4,343.9,186.3,301.2,183.7,243.5z"/>
	<path class="st9" d="M216,265.2C216,265.2,216,265.2,216,265.2c10.7,29.6,40.1,48.2,72.8,46.7c5.4-0.2,10.6-1,15.7-2.3
		c0,0-60.3,35.3-99-46.4C208.9,266.2,213.2,267.6,216,265.2z"/>
	<g>
		<path class="st8" d="M400.8,292.2c2.3,1.5,32.4,27.4,41.9,35.5c0,0,5.8,4.6,7.2,6.9c2.7,4.7,0.4,9.7-1.1,14.6c0.1-0.7,0-2-1-3.6
			c-0.2,1.2-0.4,2.5-0.7,3.6c-1.7,7-55.2-30.9-55.2-30.9l-14.8-19.8l-11.3-8.9C365.9,289.6,377.9,277.5,400.8,292.2z"/>
		<path class="st9" d="M448.7,349.9c0.1-0.2,0.1-0.4,0.2-0.7C448.8,349.7,448.7,349.9,448.7,349.9z"/>
	</g>
	<g>
		<path class="st10" d="M437.5,336.8l-54.6-45.2c-2.5-2-5.6-3-8.8-2.7l-8.2,0.8c12.2-19,18.3-41.9,16-66.1
			c-5.4-57.5-56.3-99.8-113.8-94.4s-99.8,56.3-94.4,113.8s56.3,99.8,113.8,94.4c24.2-2.3,45.6-12.5,62-28l0.8,8.2
			c0.3,3.2,1.8,6.1,4.3,8.2l54.6,45.2c5.1,4.3,12.8,3.6,17-1.6l12.8-15.5C443.3,348.7,442.6,341.1,437.5,336.8z M285.1,311.2
			c-43.1,4-81.2-27.6-85.3-70.7c-4-43.1,27.6-81.2,70.7-85.3c43.1-4,81.2,27.6,85.3,70.7C359.9,269,328.3,307.1,285.1,311.2z"/>
	</g>
	<g>
		<path class="st11" d="M427.3,373.8c-4.6,5.2-12.5,5.8-17.7,1.2l-55.3-48.3c-2.5-2.2-4-5.3-4.2-8.6l-0.6-8.5
			c5.4-5.6,8.7-10.5,8.7-10.5s-0.2,5.2,2.2,8.7c2.3,3.5,62.9,57.4,66.7,60c2.8,2,4.7,0.8,5.4,0L427.3,373.8z"/>
	</g>
	<g>
		<path class="st12" d="M405.3,358.9c0,0.7-0.2,1.5-0.7,2.1c-1,1.2-2.8,1.2-4,0.2l-44.7-40.3c-1.2-1-1.2-2.8-0.2-4s2.8-1.2,4-0.2
			l44.7,40.3C405,357.5,405.3,358.2,405.3,358.9z"/>
	</g>
	
		<ellipse transform="matrix(0.6128 -0.7902 0.7902 0.6128 -113.0871 479.3969)" class="st8" cx="432.7" cy="355.1" rx="26.5" ry="11.1"/>
	<g>
		<path class="st11" d="M183.8,255.5c-9.9-55.5,27.1-108.4,82.5-118.3c38.9-6.9,76.5,9.2,98.9,38.5c-20.6-31.2-57.2-50.3-97.1-46.6
			c-57.5,5.4-99.8,56.3-94.4,113.8c4.3,45.9,37.6,82,80.1,92.1C218.7,324,190.7,294.3,183.8,255.5z"/>
	</g>
</g>
</svg>
