<?xml version="1.0" encoding="utf-8"?>
<!-- Generator: Adobe Illustrator 23.0.2, SVG Export Plug-In . SVG Version: 6.00 Build 0)  -->
<svg version="1.1" xmlns="http://www.w3.org/2000/svg" xmlns:xlink="http://www.w3.org/1999/xlink" x="0px" y="0px"
	 viewBox="0 0 731.2 414.2" style="enable-background:new 0 0 731.2 414.2;" xml:space="preserve">
<style type="text/css">
	.st0{fill:#20B24B;}
	.st1{fill:#1CA345;}
	.st2{fill:#AFB1B4;}
	.st3{fill:#BFA573;}
	.st4{fill:#D0B37D;}
	.st5{fill:#494032;}
	.st6{fill:#896B4E;}
	.st7{fill:#2A1D01;}
	.st8{fill:#FFFFFF;}
	.st9{fill:#00B4AC;}
	.st10{fill:#F4F4F4;}
	.st11{fill:#272524;}
	.st12{fill:#393735;}
	.st13{fill:#4F4C49;}
	.st14{fill:#DBDCDD;}
	.st15{fill:url(#SVGID_1_);}
	.st16{fill:#F4E6ED;}
	.st17{fill:#CC92B0;}
	.st18{fill:#DDB6CC;}
	.st19{fill:#E0B3C8;}
	.st20{fill:#D1AABF;}
	.st21{fill:#FFF3F9;}
	.st22{fill:#BE9BA9;}
	.st23{fill:#FEDEC8;}
	.st24{fill:#CD9881;}
	.st25{fill:#E4C8B6;}
	.st26{fill:#A5693C;}
	.st27{fill:#D3D5D6;}
	.st28{fill:#E8E8E8;}
	.st29{fill:#C2C4C6;}
	.st30{fill:#4C360D;}
	.st31{fill:url(#SVGID_2_);}
	.st32{fill:#F4D89A;}
	.st33{fill:#C42C76;}
	.st34{fill:#5F3F12;}
	.st35{fill:#754B1D;}
	.st36{fill:#A26527;}
	.st37{fill:url(#SVGID_3_);}
	.st38{fill:url(#SVGID_4_);}
	.st39{fill:#00ADE9;}
	.st40{fill:#234471;}
	.st41{opacity:0.2;fill:#FFFEEF;}
	.st42{fill:#F99D1C;}
</style>
<g id="Layer_1">
	<path class="st0" d="M666.6,414.2H64.5C28.9,414.2,0,385.3,0,349.7V64.5C0,28.9,28.9,0,64.5,0h602.1c35.6,0,64.5,28.9,64.5,68.2
		v285.2C731.2,385.3,702.3,414.2,666.6,414.2z"/>
	<path class="st1" d="M731.2,353.3V227.2L1.5,184v179.4c6.3,29.1,32.1,50.8,63.1,50.8h602.1C702.3,414.2,731.2,385.3,731.2,353.3z"
		/>
</g>
<g id="Layer_2">
</g>
<g id="Layer_4">
	<g>
		<path class="st2" d="M617.1,290.8c0,6.6-13.5,43.2-30.1,43.2c-16.6,0-30.1-36.6-30.1-43.2c0-1.7,14.9-4.7,29.9-4.7
			C601.9,286.1,617.1,288.9,617.1,290.8z"/>
		<path class="st3" d="M667.6,334.2c0,0-2.5-12.2-22.2-18.8c-19.7-6.6-34.8-13.3-34.8-27.3c0-14,0-36.9,0-36.9h-23.8h-23.8
			c0,0,0,22.9,0,36.9c0,14-15,20.7-34.8,27.3c-19.7,6.6-22.2,18.8-22.2,18.8l12.1,53.4h137.6L667.6,334.2z"/>
		<path class="st4" d="M672.8,144.8c0,68.4-24.3,124.3-86.7,124.3c-62.4,0-85.5-56.5-85.5-125c0-68.4,58.1-82.2,86.5-82.2
			S672.8,76.4,672.8,144.8z"/>
		<path class="st5" d="M555.3,228c9.4,5.7,19.6,6.6,29.8,6.4c10.3,0,20.2-1.3,30-6.4c-3.6,4.3-13.8,11.7-30,11.7
			S558.6,232.5,555.3,228z"/>
		<path class="st6" d="M565.7,188.5c0,9.4-7.7,17-17.2,17c-9.5,0-17.2-7.6-17.2-17c0-9.4,7.7-17,17.2-17
			C558,171.5,565.7,179.1,565.7,188.5z"/>
		<path class="st7" d="M561.3,188.5c0,6.6-5.3,11.9-11.9,11.9c-6.6,0-11.9-5.3-11.9-11.9c0-6.5,5.3-11.9,11.9-11.9
			C555.9,176.7,561.3,182,561.3,188.5z"/>
		<path class="st8" d="M544.4,182.4c0,1.9-1.5,3.4-3.4,3.4c-1.9,0-3.4-1.5-3.4-3.4c0-1.9,1.5-3.4,3.4-3.4
			C542.8,178.9,544.4,180.5,544.4,182.4z"/>
		<path class="st6" d="M607.8,188.5c0,9.4,7.7,17,17.2,17c9.5,0,17.2-7.6,17.2-17c0-9.4-7.7-17-17.2-17
			C615.5,171.5,607.8,179.1,607.8,188.5z"/>
		<path class="st7" d="M612.2,188.5c0,6.6,5.3,11.9,11.9,11.9c6.6,0,11.9-5.3,11.9-11.9c0-6.5-5.3-11.9-11.9-11.9
			C617.5,176.7,612.2,182,612.2,188.5z"/>
		<path class="st8" d="M612.9,182.4c0,1.9,1.5,3.4,3.4,3.4c1.9,0,3.4-1.5,3.4-3.4c0-1.9-1.5-3.4-3.4-3.4
			C614.4,178.9,612.9,180.5,612.9,182.4z"/>
		<path class="st9" d="M673.1,323.1c0,0-1.1-2.4-7.6-5.4c-9-4.1-9.1-3.9-41.6-15.4l-37.3,27.9l-37.3-27.9
			c-32.5,11.5-32.6,11.3-41.6,15.4c-6.5,3-7.6,5.4-7.6,5.4l-34.7,91.2h42.5l8.8-18.8l1.4,18.8H655l1.4-18.8l8.8,18.8h1.5
			c13.7,0,26.3-4.3,36.8-11.3L673.1,323.1z"/>
		<path class="st10" d="M556.9,290.7C557.8,301.4,587,330,587,330l-15.9,23.4c0,0-28-33.1-28-49.1L556.9,290.7z"/>
		<path class="st10" d="M617.1,290.7C616.2,301.4,587,330,587,330l15.9,23.4c0,0,28-33.1,28-49.1L617.1,290.7z"/>
		<path class="st11" d="M675.4,118.3c-0.6-2.8-1.3-5.5-2.1-8.1c-0.7-2.5-1.6-8.1-1.6-8.1s-1.4-0.3-1.7-0.9c-0.7-1.5-1.3-6.2-1.3-6.2
			s-4.4-3.8-6.6-6.4c-1.5-1.8-6.2-7.5-6.2-7.5l-2.1,0.2l-5.7-4c0,0-2.7-4.5-4.5-6c-0.7-0.6-2.3,0.7-3,0.1c-1.1-0.9-3.4-2.6-3.4-2.6
			l-2.6-3.3l-7.6-2c0,0-1.7-1.4-2.7-1.5c-1.8-0.3-5.7,0.5-5.7,0.5l-2.1-1.9l-6.9,0.9l-4.9-2.5l-2,1.5l-4.6-0.6c0,0-1.9-1.1-2.7-1.2
			c-1.4-0.1-4,0.5-4,0.5s-3.4-1.1-4.7-1.1c-2.3,0-8.7,1.6-8.7,1.6l-3.1-0.5l-5.2,1.7c0,0-2.7-0.5-4-0.3c-1.5,0.3-4.3,1.7-4.3,1.7
			l-4.8,0.1l-2.1,0.9l-4.3-0.6l-3.4,1.6c0,0-2-0.2-2.9,0.2c-0.4,0.2-1.1-0.4-1.1-0.4l-4.8,3.7l-4,2.9l-2.1,0c0,0-1.3,2.6-2.3,3.5
			c-1.3,1.1-4.4,2.1-5.7,3c-0.9,0.6-0.1,1.4-1.2,2.1c-0.5,0.3-2.7,0.7-3.2,1c-0.7,0.5,0.3,1.1-0.4,1.6c-2.9,2.2-5.6,4.4-7.4,6.6
			c-1.2,1.4-2.3,2.8-3.3,4.3c-2,3-3.7,6.1-5.1,9.3c-0.5,1.2-1,2.4-1.5,3.7c-1.4,4-2.6,8.1-3.5,12.4c-1.4,6.3-0.3,12.9-0.5,19.7
			c-1.4,40.8,10.2,64,10.2,64c8.4-6.2-2.3-57.2,23.3-74c8.1-5.4,50.9-5.9,55.8-5.9c4.9,0,47.4,0.6,55.5,5.9
			c25.5,16.9,14.9,67.8,23.3,74c0,0,11.6-23.2,10.2-64C675.7,131.2,676.8,124.6,675.4,118.3z"/>
		<path class="st12" d="M665.8,174c0,0-1.6-2.6-2.1-8c-1.3-13.9-4.3-39.7-9.7-44.1c-7.5-6.2-22.2-2.7-25.9-2.8s-16.7-3.5-19.6-7.4
			c0,0-11.9,4.1-21.8,4.1c-10,0-15.7-3.9-15.7-3.9s-9.7,5-12.8,5s-7.8-2.4-7.8-2.4s-0.5,2.7-3.7,4.2c-5.8,2.6-20.3-0.8-23.1,2.9
			c-2.8,3.7-11.5,13.8-12,31.8c-0.5,18-4.2-1.9-4.2-3.7s2.3-28.2,3.4-29.1s5.2-3.1,5.2-3.1s-5.3-10.2,3.4-18c2.5-2.2,14.4,0,14.4,0
			s-1.2-14.3,3.6-16.6s11,2.7,17.8-0.6c10.8-5.3,15.1,9.3,18.8,6.7c3.7-2.6,5-15.4,14-10.7c17.7,9.4,10.6-0.2,22.9,1.5
			c12.3,1.6,8,7.4,17,12.5c9.3,5.3,16.4,1.3,19.2,4.2c2.8,2.9,3.4,14.4,14.8,19c11.4,4.5,4.7,45.8,5.2,48.7
			C667.7,167,668.2,174,665.8,174z"/>
		<path class="st13" d="M568.7,109.2c0,0-8.6,5.4-11.9,5.3s-7.9-6.2-8.3-13.1c0,0,4.4,9,6.9,9.6s2.2-5.4,4.4-4.3
			c2.2,1.1,4,1.9,5.1,1.3c3-1.7-1.3-23.3-8.1-34.3C556.9,73.7,573.7,100.5,568.7,109.2z"/>
		<path class="st13" d="M609.4,94.1c0,0-0.4,14.3-5.4,14.9c-5.1,0.6,0-41.9,0-41.9s-4.2,27.6-4.4,31.1c-0.2,3.5-2.2,5.3-3.5,5.4
			c-1.2,0.1,0.2,5.4-1.2,6.2c-1.5,0.7-5.7,1.7-6.8-4.3c0,0-0.2,6,4.2,6.9c4.4,0.9,14.7-1.4,16.4-3.3C610.4,107,610.5,98,609.4,94.1z
			"/>
		<path class="st13" d="M529.1,115.2c2.1-0.1,4.2-0.1,6.3-0.1c2.1,0,4.1,0,6.2,0c1,0,2-0.1,2.9-0.3c0.8-0.1,1.3-0.7,1.6-1.5
			c0.2-0.8,0.3-1.8,0.1-2.8c-0.1-1-0.3-2-0.6-3c0.7,0.8,1.1,1.8,1.5,2.8c0.3,1,0.6,2.1,0.4,3.4c-0.1,0.6-0.3,1.2-0.8,1.7
			c-0.2,0.2-0.5,0.5-0.8,0.7c-0.3,0.2-0.6,0.3-0.9,0.4c-1.2,0.3-2.2,0.4-3.3,0.5c-2.1,0.1-4.2-0.1-6.3-0.4
			C533.2,116.2,531.1,115.8,529.1,115.2z"/>
		<path class="st13" d="M615.2,84.5c-0.4,4.8-0.7,9.6-0.7,14.3c0,2.4,0,4.7,0.3,7.1c0.1,1.2,0.3,2.3,0.6,3.4
			c0.3,1.1,0.7,2.2,1.3,2.9c0.3,0.3,0.7,0.7,1.2,1c0.4,0.3,0.9,0.6,1.4,0.8c1,0.4,2,0.5,3,0.3c0.5-0.1,1.1-0.2,1.6-0.4
			c0.6-0.2,1.2-0.4,1.9-0.4c0.2,0,0.4,0,0.6,0c0.2,0,0.4,0.1,0.6,0.2c0.2,0.1,0.4,0.2,0.5,0.3c0.1,0.1,0.3,0.3,0.4,0.4
			c0.3,0.3,0.5,0.7,0.6,1c0.1,0.3,0,0.2,0.2,0.3c0.3,0.2,1,0.2,1.5,0.3c0.6,0,1.2,0.1,1.7,0.1c1.1,0,2.3-0.1,3.4-0.4
			c2.2-0.6,4.4-1.7,6.3-3.2c-1.7,1.7-3.7,3.1-6,4c-1.2,0.4-2.4,0.7-3.7,0.8c-0.6,0-1.2,0-1.8,0c-0.6,0-1.2,0-2-0.3
			c-0.2-0.1-0.4-0.2-0.6-0.4c-0.1-0.1-0.2-0.2-0.2-0.3l-0.1-0.3c-0.1-0.3-0.2-0.4-0.3-0.5c-0.1-0.1-0.1-0.1-0.2-0.2
			c-0.1-0.1-0.2-0.1-0.3-0.1c-0.1,0-0.1-0.1-0.2-0.1c-0.1,0-0.2,0-0.3,0c-0.9,0.1-2.1,0.7-3.4,1c-1.3,0.3-2.8,0.1-4-0.4
			c-0.6-0.2-1.2-0.6-1.7-1c-0.5-0.4-1-0.8-1.5-1.3c-0.9-1.1-1.3-2.4-1.6-3.6c-0.3-1.2-0.5-2.5-0.6-3.7c-0.2-2.4-0.2-4.9,0-7.3
			C613.4,94,614.1,89.2,615.2,84.5z"/>
		<g>
			<path class="st14" d="M602.8,354.4L587,331.1l-15.8,23.4l-0.5-0.6c-1.1-1.3-27.7-33-28.1-49.1c0.5-0.3,1-0.8,1-0.8
				c0.1,0.1,0.2,0.3,0.2,0.4c0,14.3,23.5,43.4,27.3,48l15.5-22.9l0.4,0.4l0.5-0.4l15.5,22.9c3.8-4.6,27.3-33.7,27.3-48
				c0-0.2,0.2-0.4,0.2-0.4s0.4,0.5,1,1c-0.6,16.1-27,47.6-28.1,48.9L602.8,354.4z"/>
		</g>
	</g>
	<g>
		<linearGradient id="SVGID_1_" gradientUnits="userSpaceOnUse" x1="148.0168" y1="387.4233" x2="148.0168" y2="251.3211">
			<stop  offset="0" style="stop-color:#FEDEC8"/>
			<stop  offset="1" style="stop-color:#EACDBA"/>
		</linearGradient>
		<path class="st15" d="M228.7,334.1c0,0-2.5-12.2-22.2-18.7c-19.7-6.6-34.7-13.2-34.7-27.2c0-14,0-36.8,0-36.8H148h-23.8
			c0,0,0,22.9,0,36.8c0,14-15,20.7-34.7,27.2c-19.7,6.6-22.2,18.7-22.2,18.7l12,53.3h137.2L228.7,334.1z"/>
		<g>
			<circle class="st16" cx="119.8" cy="301.5" r="4.4"/>
			<circle class="st8" cx="119" cy="299.4" r="1.1"/>
		</g>
		<g>
			<circle class="st16" cx="127" cy="306.6" r="4.4"/>
			<circle class="st8" cx="126.3" cy="304.4" r="1.1"/>
		</g>
		<g>
			<circle class="st16" cx="135.3" cy="309.9" r="4.4"/>
			<circle class="st8" cx="134.5" cy="308" r="1.1"/>
		</g>
		<g>
			<circle class="st16" cx="153" cy="311.1" r="4.4"/>
			<circle class="st8" cx="152.3" cy="309.2" r="1.1"/>
		</g>
		<g>
			<circle class="st16" cx="144.1" cy="311.2" r="4.4"/>
			<circle class="st8" cx="143.7" cy="308.9" r="1.1"/>
		</g>
		<path class="st17" d="M231.7,335.8c0,0-1.2-12.2-14.1-18.5c-12.8-6.3-28.2-8.7-28.2-8.7s-3.2,32.8-42.1,32.8
			c-38.8-0.1-42.1-32.8-42.1-32.8S89.9,311,77,317.3C64.2,323.5,63,335.8,63,335.8c-13.5,18.6-27.5,42.3-39.4,63.8
			c10.9,9,24.8,14.4,39.9,14.6l14.7-19.9l3.9,20h130.3l3.9-20l14.7,20H279C265.8,389.4,248.3,358.7,231.7,335.8z"/>
		<g>
			<circle class="st16" cx="161.8" cy="309.9" r="4.4"/>
			<circle class="st8" cx="161.1" cy="308" r="1.1"/>
		</g>
		<g>
			<circle class="st16" cx="170.1" cy="306.6" r="4.4"/>
			<circle class="st8" cx="169.3" cy="304.7" r="1.1"/>
		</g>
		<g>
			<circle class="st16" cx="177.3" cy="301.5" r="4.4"/>
			<circle class="st8" cx="176.5" cy="299.6" r="1.1"/>
		</g>
		<g>
			<g>
				<path class="st18" d="M97.9,345.4c-1.2,0-2.5,0.2-3.7,0.5c0.7-0.6,1.5-1.4,2.1-2c1.9-2.2,1.5-3.3,0.6-4.1c-0.9-0.8-2-1-3.9,1.3
					c-0.5,0.6-1.1,1.4-1.6,2.2c-0.1-1-0.2-2-0.4-2.9c-0.7-2.9-1.7-3.2-2.9-2.9c-1.2,0.3-2,1.1-1.3,3.9c0.2,1,0.6,2,1,3
					c-0.9-0.6-1.8-1.1-2.6-1.5c-2.7-1.2-3.6-0.6-4.1,0.5c-0.5,1.1-0.4,2.2,2.3,3.4c0.9,0.4,1.9,0.7,2.9,1c-1,0.3-2,0.7-2.8,1.1
					c-2.6,1.3-2.7,2.4-2.2,3.5c0.5,1.1,1.5,1.7,4.1,0.4c0.8-0.4,1.7-0.9,2.5-1.5c-0.3,0.9-0.6,1.9-0.8,2.8c-0.5,2.9,0.3,3.6,1.5,3.9
					c1.2,0.2,2.2-0.2,2.7-3.1c0.2-1,0.3-2.2,0.3-3.3c0.6,0.9,1.3,1.9,2,2.7c2,2.2,3.1,2,4,1.2c0.9-0.8,1.2-1.9-0.8-4.1
					c-0.5-0.6-1.2-1.2-1.9-1.8c1.1,0.2,2.2,0.3,3.2,0.2c2.9-0.1,3.5-1,3.5-2.2C101.5,346.3,100.9,345.4,97.9,345.4z M91.1,349
					c-1,0.2-2-0.4-2.2-1.4c-0.2-1,0.4-2,1.4-2.2s2,0.4,2.2,1.4C92.8,347.8,92.2,348.8,91.1,349z"/>
				<path class="st18" d="M105.6,374.4c-1.3,0-2.8,0.2-4.1,0.5c0.8-0.7,1.6-1.5,2.3-2.3c2.1-2.5,1.7-3.7,0.7-4.6
					c-1-0.9-2.3-1.1-4.4,1.4c-0.6,0.7-1.2,1.6-1.8,2.5c-0.1-1.1-0.2-2.3-0.5-3.3c-0.7-3.2-1.9-3.6-3.2-3.3c-1.3,0.3-2.2,1.2-1.4,4.4
					c0.2,1.1,0.6,2.2,1.1,3.3c-1-0.6-2-1.2-3-1.7c-3-1.4-4-0.6-4.6,0.6c-0.5,1.2-0.4,2.5,2.6,3.8c1,0.4,2.1,0.8,3.2,1.1
					c-1.1,0.3-2.2,0.8-3.2,1.2c-2.9,1.5-3.1,2.7-2.5,3.9c0.6,1.2,1.6,1.9,4.6,0.4c0.9-0.4,1.9-1,2.8-1.7c-0.4,1-0.7,2.2-0.9,3.1
					c-0.6,3.2,0.4,4.1,1.7,4.3c1.3,0.2,2.5-0.2,3.1-3.5c0.2-1.1,0.3-2.4,0.3-3.7c0.7,1.1,1.4,2.1,2.2,3c2.2,2.4,3.4,2.2,4.4,1.3
					c1-0.9,1.3-2.1-0.9-4.5c-0.6-0.7-1.3-1.3-2.1-2c1.2,0.2,2.5,0.3,3.6,0.3c3.3-0.1,3.9-1.1,3.9-2.5
					C109.5,375.4,108.9,374.4,105.6,374.4z M98,378.4c-1.1,0.3-2.2-0.4-2.5-1.6c-0.3-1.1,0.4-2.2,1.6-2.5s2.2,0.4,2.5,1.6
					C99.8,377,99.1,378.2,98,378.4z"/>
				<path class="st18" d="M107.4,401.5c-0.6,0.6-1.2,1.4-1.8,2.1c0.1-0.7,0.1-1.5,0.1-2.1c-0.1-2.2-0.8-2.6-1.7-2.5
					c-0.9,0-1.6,0.5-1.5,2.7c0,0.6,0.1,1.3,0.3,2c-0.5-0.5-1.1-1-1.7-1.4c-1.8-1.2-2.6-0.9-3-0.1c-0.5,0.7-0.5,1.6,1.3,2.8
					c0.6,0.4,1.3,0.8,2,1.1c-0.8,0.1-1.5,0.3-2.2,0.5c-2.1,0.7-2.2,1.5-2,2.3c0.3,0.8,0.9,1.4,3,0.7c0.7-0.2,1.4-0.5,2-0.9
					c-0.4,0.7-0.7,1.4-1,2c-0.8,2-0.3,2.7,0.6,3c0.8,0.3,1.6,0.2,2.4-1.9c0.2-0.6,0.4-1.3,0.6-2c0.3,0.7,0.6,1.3,1,1.9
					c1.2,1.8,2,1.8,2.7,1.3c0.7-0.5,1.1-1.2-0.1-3c-0.4-0.6-0.9-1.3-1.5-1.9c0.8,0.2,1.6,0.4,2.4,0.4c2.2,0.2,2.7-0.5,2.7-1.4
					c0.1-0.9-0.3-1.6-2.5-1.8c-0.6,0-1.2-0.1-1.9,0c0.7-0.4,1.3-1,1.8-1.5c1.6-1.5,1.4-2.3,0.8-2.9C109.8,400.2,109,400,107.4,401.5
					z M105.5,406.9c-0.4,0.6-1.3,0.8-1.9,0.4c-0.6-0.4-0.8-1.3-0.4-1.9c0.4-0.6,1.3-0.8,1.9-0.4C105.8,405.4,106,406.3,105.5,406.9z
					"/>
				<path class="st18" d="M129.5,358.2c-0.9,0-1.9,0.1-2.9,0.4c0.6-0.5,1.2-1.1,1.6-1.6c1.5-1.8,1.2-2.6,0.5-3.2
					c-0.7-0.6-1.6-0.7-3.1,1c-0.4,0.5-0.9,1.1-1.2,1.7c-0.1-0.8-0.2-1.6-0.3-2.3c-0.5-2.2-1.4-2.5-2.3-2.3c-0.9,0.2-1.5,0.8-1,3.1
					c0.2,0.7,0.5,1.6,0.8,2.3c-0.7-0.5-1.4-0.9-2.1-1.2c-2.1-1-2.8-0.5-3.2,0.4c-0.4,0.8-0.3,1.7,1.8,2.7c0.7,0.3,1.5,0.6,2.2,0.8
					c-0.8,0.2-1.6,0.5-2.2,0.9c-2.1,1-2.1,1.9-1.7,2.7c0.4,0.8,1.2,1.3,3.2,0.3c0.6-0.3,1.3-0.7,1.9-1.2c-0.3,0.7-0.5,1.5-0.6,2.2
					c-0.4,2.3,0.3,2.8,1.2,3c0.9,0.2,1.7-0.1,2.1-2.4c0.1-0.8,0.2-1.7,0.2-2.6c0.5,0.7,1,1.5,1.5,2.1c1.5,1.7,2.4,1.5,3.1,0.9
					c0.7-0.6,0.9-1.5-0.6-3.2c-0.4-0.5-0.9-0.9-1.5-1.4c0.8,0.1,1.7,0.2,2.5,0.2c2.3,0,2.7-0.8,2.7-1.7
					C132.3,358.9,131.8,358.2,129.5,358.2z M124.2,361c-0.8,0.2-1.6-0.3-1.8-1.1c-0.2-0.8,0.3-1.6,1.1-1.8c0.8-0.2,1.6,0.3,1.8,1.1
					C125.5,360.1,125,360.8,124.2,361z"/>
				<path class="st18" d="M139.1,386.6c-1.4,0-3,0.2-4.4,0.6c0.9-0.8,1.8-1.6,2.4-2.4c2.3-2.7,1.8-4,0.8-4.9
					c-1.1-0.9-2.4-1.1-4.7,1.5c-0.6,0.8-1.3,1.7-1.9,2.6c-0.1-1.2-0.3-2.4-0.5-3.5c-0.8-3.4-2.1-3.8-3.5-3.5
					c-1.4,0.3-2.3,1.3-1.5,4.7c0.3,1.1,0.7,2.4,1.2,3.6c-1-0.7-2.1-1.3-3.2-1.8c-3.2-1.5-4.3-0.7-4.9,0.6c-0.6,1.3-0.4,2.6,2.8,4.1
					c1,0.5,2.2,0.9,3.4,1.2c-1.2,0.4-2.4,0.8-3.4,1.3c-3.2,1.6-3.3,2.9-2.6,4.2c0.6,1.3,1.8,2,4.9,0.4c1-0.5,2-1.1,2.9-1.8
					c-0.4,1.1-0.7,2.3-0.9,3.4c-0.6,3.5,0.4,4.3,1.8,4.6c1.4,0.3,2.7-0.2,3.3-3.7c0.2-1.2,0.3-2.6,0.3-3.9c0.7,1.1,1.5,2.3,2.4,3.2
					c2.4,2.6,3.7,2.3,4.7,1.4c1.1-1,1.4-2.2-0.9-4.8c-0.6-0.7-1.4-1.4-2.2-2.1c1.3,0.2,2.6,0.3,3.8,0.3c3.5-0.1,4.2-1.2,4.2-2.6
					C143.3,387.6,142.6,386.5,139.1,386.6z M131,390.8c-1.2,0.3-2.4-0.5-2.7-1.7s0.5-2.4,1.7-2.7s2.4,0.5,2.7,1.7
					S132.2,390.6,131,390.8z"/>
				<g>
					<path class="st18" d="M138.8,413.2c-0.7-0.6-1.6-0.7-3,1h3.6C139.3,413.8,139.1,413.5,138.8,413.2z"/>
					<path class="st18" d="M134.1,413.7c-0.5-2.2-1.4-2.5-2.3-2.3c-0.9,0.2-1.5,0.8-1,2.8h3.4C134.2,414,134.2,413.8,134.1,413.7z"
						/>
				</g>
				<g>
					<path class="st18" d="M89.9,412.8c-1.1-0.9-2.4-1.1-4.5,1.4h5.4C90.7,413.7,90.3,413.2,89.9,412.8z"/>
					<path class="st18" d="M83,414.2c0-0.2-0.1-0.5-0.1-0.7c-0.4-1.6-0.8-2.5-1.4-3l0.7,3.7H83z"/>
				</g>
				<path class="st18" d="M40.4,376.5c0.9,1,2.2,1.4,4.8-0.9c0.9-0.8,1.8-1.8,2.6-2.9c-0.1,1.3-0.2,2.7-0.1,3.9
					c0.3,3.5,1.4,4.1,2.8,4c1.4-0.1,2.5-0.9,2.2-4.3c-0.1-0.9-0.2-2-0.5-3c0.9,0.9,1.8,1.8,2.8,2.5c2.8,2.1,4,1.6,4.8,0.5
					c0.8-1.1,1-2.4-1.8-4.5c-1.1-0.8-2.4-1.6-3.8-2.3c1.2,0,2.3-0.2,3.4-0.4c3.4-0.7,3.8-1.9,3.6-3.3c-0.3-1.4-1.2-2.3-4.6-1.7
					c-1,0.2-2,0.5-3.1,0.9c0.7-1,1.3-2,1.7-3c1.5-3.1,0.7-4.2-0.5-4.8c-1.3-0.6-2.6-0.4-4.1,2.7c-0.5,1-0.9,2.3-1.3,3.5
					c-0.4-1.2-0.9-2.3-1.4-3.3c-0.3-0.5-0.5-0.9-0.8-1.3c-1,1.6-2,3.2-3,4.9c0.4,0.6,0.8,1.2,1.2,1.8c-0.6-0.2-1.3-0.5-1.9-0.6
					c-0.9,1.5-1.8,3-2.8,4.5c0.1,0,0.1,0,0.2,0c1,0.2,2.2,0.4,3.4,0.4c-1,0.6-2,1.3-2.8,2.1C39.3,374.1,39.5,375.4,40.4,376.5z
					 M48.2,367.2c0.5-1.1,1.8-1.6,2.9-1.1c1.1,0.5,1.6,1.8,1.1,2.9c-0.5,1.1-1.8,1.6-2.9,1.1C48.2,369.6,47.7,368.3,48.2,367.2z"/>
				<path class="st18" d="M33.6,398.3c-0.1-0.9-0.2-1.9-0.4-2.8c0.8,0.9,1.7,1.7,2.6,2.4c2.6,2,3.8,1.5,4.6,0.5
					c0.8-1.1,0.9-2.3-1.7-4.3c-1-0.8-2.3-1.5-3.6-2.1c1.1,0,2.2-0.2,3.2-0.4c3.2-0.7,3.6-1.8,3.4-3.1c-0.3-1.3-1.1-2.2-4.3-1.6
					c-0.9,0.2-1.9,0.5-2.9,0.8c0.6-0.9,1.2-1.9,1.6-2.9c1.4-3,0.7-4-0.5-4.6c-0.3-0.1-0.6-0.2-0.9-0.3c-3.8,6.5-7.4,13-10.9,19.3
					c0.7-0.1,1.5-0.6,2.6-1.6c0.9-0.8,1.7-1.7,2.5-2.7c-0.1,1.2-0.2,2.6-0.1,3.7c0.2,3.3,1.4,3.9,2.7,3.8
					C32.8,402.4,33.8,401.6,33.6,398.3z M30.3,392.5c-1-0.5-1.5-1.7-1-2.8c0.5-1,1.7-1.5,2.8-1c1,0.5,1.5,1.7,1,2.8
					C32.5,392.6,31.3,393,30.3,392.5z"/>
				<path class="st18" d="M67.5,396.1c-0.7-0.5-1.6-1.1-2.5-1.5c0.8,0,1.6-0.1,2.2-0.3c2.3-0.5,2.6-1.3,2.4-2.2
					c-0.2-0.9-0.8-1.6-3-1.1c-0.6,0.1-1.4,0.3-2,0.6c0.4-0.6,0.9-1.4,1.2-2c1-2.1,0.5-2.8-0.4-3.2c-0.8-0.4-1.7-0.3-2.7,1.8
					c-0.3,0.7-0.6,1.5-0.8,2.3c-0.2-0.8-0.6-1.5-0.9-2.2c-1.1-2-1.9-2.1-2.8-1.7c-0.8,0.4-1.3,1.2-0.2,3.2c0.3,0.6,0.8,1.4,1.3,2
					c-0.8-0.3-1.6-0.5-2.3-0.7c-2.3-0.5-2.9,0.2-3,1.1c-0.2,0.9,0.1,1.7,2.4,2.2c0.7,0.1,1.5,0.2,2.2,0.3c-0.7,0.4-1.3,0.9-1.8,1.4
					c-1.7,1.5-1.6,2.4-0.9,3.1c0.6,0.7,1.5,1,3.2-0.6c0.6-0.5,1.2-1.2,1.8-1.9c-0.1,0.9-0.1,1.8-0.1,2.6c0.2,2.3,1,2.7,1.9,2.6
					c0.9-0.1,1.6-0.6,1.5-2.9c0-0.6-0.2-1.3-0.3-2c0.6,0.6,1.2,1.2,1.8,1.7c1.8,1.4,2.7,1.1,3.2,0.3
					C69.3,398.4,69.4,397.5,67.5,396.1z M61.6,395c-0.7-0.3-1-1.2-0.7-1.9c0.3-0.7,1.2-1,1.9-0.7c0.7,0.3,1,1.2,0.7,1.9
					S62.3,395.4,61.6,395z"/>
				<g>
					<path class="st18" d="M54.3,409.6c-1.3-0.6-2.6-0.5-4.1,2.7c0,0.1-0.1,0.2-0.1,0.3c1.7,0.4,3.4,0.7,5.2,1
						C56.2,411.1,55.5,410.1,54.3,409.6z"/>
					<path class="st18" d="M43.3,410c-0.2,0.1-0.5,0.3-0.6,0.5c1.5,0.5,3,1,4.5,1.4C45.7,409.4,44.5,409.4,43.3,410z"/>
				</g>
				<path class="st18" d="M210.3,345.4c-1.2,0-2.5,0.2-3.7,0.5c0.7-0.6,1.5-1.4,2.1-2c1.9-2.2,1.5-3.3,0.6-4.1c-0.9-0.8-2-1-3.9,1.3
					c-0.5,0.6-1.1,1.4-1.6,2.2c-0.1-1-0.2-2-0.4-2.9c-0.7-2.9-1.7-3.2-2.9-2.9c-1.2,0.3-2,1.1-1.3,3.9c0.2,1,0.6,2,1,3
					c-0.9-0.6-1.8-1.1-2.6-1.5c-2.7-1.2-3.6-0.6-4.1,0.5c-0.5,1.1-0.4,2.2,2.3,3.4c0.9,0.4,1.9,0.7,2.9,1c-1,0.3-2,0.7-2.8,1.1
					c-2.6,1.3-2.7,2.4-2.2,3.5c0.5,1.1,1.5,1.7,4.1,0.4c0.8-0.4,1.7-0.9,2.5-1.5c-0.3,0.9-0.6,1.9-0.8,2.8c-0.5,2.9,0.3,3.6,1.5,3.9
					c1.2,0.2,2.2-0.2,2.7-3.1c0.2-1,0.3-2.2,0.3-3.3c0.6,0.9,1.3,1.9,2,2.7c2,2.2,3.1,2,4,1.2c0.9-0.8,1.2-1.9-0.8-4.1
					c-0.5-0.6-1.2-1.2-1.9-1.8c1.1,0.2,2.2,0.3,3.2,0.2c2.9-0.1,3.5-1,3.5-2.2C213.8,346.3,213.2,345.4,210.3,345.4z M203.5,349
					c-1,0.2-2-0.4-2.2-1.4c-0.2-1,0.4-2,1.4-2.2c1-0.2,2,0.4,2.2,1.4S204.5,348.8,203.5,349z"/>
				<g>
					<path class="st18" d="M222.7,400.9c-0.4-0.4-0.9-0.6-1.6-0.3l1.7,2.3C223.4,402,223.2,401.4,222.7,400.9z"/>
					<path class="st18" d="M213.5,402.3c-1.8-1.2-2.6-0.9-3-0.1c-0.5,0.7-0.5,1.6,1.3,2.8c0.6,0.4,1.3,0.8,2,1.1
						c-0.8,0.1-1.5,0.3-2.2,0.5c-2.1,0.7-2.2,1.5-2,2.3c0.3,0.8,0.9,1.4,3,0.7c0.3-0.1,0.6-0.2,0.9-0.4l1.2-6
						C214.3,402.9,213.9,402.6,213.5,402.3z"/>
					<path class="st18" d="M214.9,401.7c0,0.1,0,0.2,0,0.3l0.5-2.6C215.1,399.7,214.8,400.4,214.9,401.7z"/>
				</g>
				<path class="st18" d="M210,314c-1.8-0.7-3.6-1.3-5.4-1.8c-0.8,0.8-1.6,1.8-2.2,2.8c0.1-1.2,0.2-2.4,0.1-3.4
					c-1.8-0.5-3.6-1-5.1-1.4c0,0.5-0.1,1,0,1.6c0,1,0.2,2.1,0.4,3.2c-0.9-0.8-1.8-1.6-2.8-2.2c-2.9-2-4.2-1.4-4.9-0.2
					c-0.8,1.2-0.9,2.5,2.1,4.5c1,0.7,2.2,1.3,3.3,1.8c-1.2,0.2-2.5,0.5-3.5,0.8c-3.3,1.1-3.6,2.4-3.2,3.8c0.5,1.4,1.5,2.2,4.8,1.1
					c1.1-0.4,2.2-0.9,3.3-1.5c-0.6,1.1-1.2,2.2-1.6,3.3c-1.2,3.3-0.4,4.4,0.9,4.9c1.3,0.5,2.7,0.3,3.9-3c0.4-1,0.7-2.2,0.9-3.3
					c0.5,1.1,1,2.2,1.6,3.1c1.9,3,3.3,2.9,4.5,2.2c1.2-0.8,1.8-2-0.1-4.9c-0.7-1-1.5-2.1-2.5-3.1c1.3,0.3,2.7,0.6,3.9,0.7
					c3.5,0.3,4.3-0.8,4.4-2.2c0.1-1.4-0.5-2.6-4-2.9c-1-0.1-2-0.1-3.1,0c1.1-0.7,2.1-1.6,3-2.4C209.4,314.8,209.8,314.4,210,314z
					 M202.3,320.3c-0.7,1-2.1,1.3-3.1,0.6c-1-0.7-1.3-2.1-0.6-3.1c0.7-1,2.1-1.3,3.1-0.6C202.7,317.9,203,319.3,202.3,320.3z"/>
				<path class="st18" d="M241.9,358.2c-0.9,0-1.9,0.1-2.9,0.4c0.6-0.5,1.2-1.1,1.6-1.6c1.5-1.8,1.2-2.6,0.5-3.2
					c-0.7-0.6-1.6-0.7-3.1,1c-0.4,0.5-0.9,1.1-1.2,1.7c-0.1-0.8-0.2-1.6-0.3-2.3c-0.5-2.2-1.4-2.5-2.3-2.3c-0.9,0.2-1.5,0.8-1,3.1
					c0.2,0.7,0.5,1.6,0.8,2.3c-0.7-0.5-1.4-0.9-2.1-1.2c-2.1-1-2.8-0.5-3.2,0.4c-0.4,0.8-0.3,1.7,1.8,2.7c0.7,0.3,1.5,0.6,2.2,0.8
					c-0.8,0.2-1.6,0.5-2.2,0.9c-2.1,1-2.1,1.9-1.7,2.7c0.4,0.8,1.2,1.3,3.2,0.3c0.6-0.3,1.3-0.7,1.9-1.2c-0.3,0.7-0.5,1.5-0.6,2.2
					c-0.4,2.3,0.3,2.8,1.2,3c0.9,0.2,1.7-0.1,2.1-2.4c0.1-0.8,0.2-1.7,0.2-2.6c0.5,0.7,1,1.5,1.5,2.1c1.5,1.7,2.4,1.5,3.1,0.9
					c0.7-0.6,0.9-1.5-0.6-3.2c-0.4-0.5-0.9-0.9-1.5-1.4c0.8,0.1,1.7,0.2,2.5,0.2c2.3,0,2.7-0.8,2.7-1.7
					C244.6,358.9,244.2,358.2,241.9,358.2z M236.5,361c-0.8,0.2-1.6-0.3-1.8-1.1c-0.2-0.8,0.3-1.6,1.1-1.8c0.8-0.2,1.6,0.3,1.8,1.1
					C237.8,360.1,237.3,360.8,236.5,361z"/>
				<path class="st18" d="M251.5,386.6c-1.4,0-3,0.2-4.4,0.6c0.9-0.8,1.8-1.6,2.4-2.4c2.3-2.7,1.8-4,0.8-4.9
					c-1.1-0.9-2.4-1.1-4.7,1.5c-0.6,0.8-1.3,1.7-1.9,2.6c-0.1-1.2-0.3-2.4-0.5-3.5c-0.8-3.4-2.1-3.8-3.5-3.5
					c-1.4,0.3-2.3,1.3-1.5,4.7c0.3,1.1,0.7,2.4,1.2,3.6c-1-0.7-2.1-1.3-3.2-1.8c-3.2-1.5-4.3-0.7-4.9,0.6c-0.6,1.3-0.4,2.6,2.8,4.1
					c1,0.5,2.2,0.9,3.4,1.2c-1.2,0.4-2.4,0.8-3.4,1.3c-3.2,1.6-3.3,2.9-2.6,4.2c0.6,1.3,1.8,2,4.9,0.4c1-0.5,2-1.1,2.9-1.8
					c-0.4,1.1-0.7,2.3-0.9,3.4c-0.6,3.5,0.4,4.3,1.8,4.6c1.4,0.3,2.7-0.2,3.3-3.7c0.2-1.2,0.3-2.6,0.3-3.9c0.7,1.1,1.5,2.3,2.4,3.2
					c2.4,2.6,3.7,2.3,4.7,1.4c1.1-1,1.4-2.2-0.9-4.8c-0.6-0.7-1.4-1.4-2.2-2.1c1.3,0.2,2.6,0.3,3.8,0.3c3.5-0.1,4.2-1.2,4.2-2.6
					C255.7,387.6,255,386.5,251.5,386.6z M243.3,390.8c-1.2,0.3-2.4-0.5-2.7-1.7s0.5-2.4,1.7-2.7s2.4,0.5,2.7,1.7
					S244.5,390.6,243.3,390.8z"/>
				<g>
					<path class="st18" d="M243.4,414.2h0.6C243.8,414.2,243.6,414.2,243.4,414.2z"/>
					<path class="st18" d="M254.7,412.3c-0.7-0.6-1.6-0.7-3.1,1c-0.2,0.3-0.5,0.6-0.7,0.9h4.1C255.5,413.3,255.2,412.8,254.7,412.3z
						"/>
					<path class="st18" d="M250.1,412.8c-0.5-2.2-1.4-2.5-2.3-2.3c-0.9,0.2-1.5,0.8-1,3.1c0.1,0.2,0.1,0.5,0.2,0.7h3.3
						C250.3,413.7,250.2,413.2,250.1,412.8z"/>
				</g>
				<path class="st18" d="M267.6,405.6c-0.3,0.9-0.6,1.9-0.8,2.8c-0.5,2.9,0.3,3.6,1.5,3.9c1.2,0.2,2.2-0.2,2.7-3.1
					c0.2-1,0.3-2.2,0.3-3.3c0.6,0.9,1.3,1.9,2,2.7c1.6,1.8,2.6,2,3.4,1.5c-1.4-2.7-2.9-5.4-4.4-8.1c-0.1,0.7-0.7,1.3-1.4,1.4
					c-1,0.2-2-0.4-2.2-1.4c-0.2-1,0.4-2,1.4-2.2c0.4-0.1,0.7-0.1,1.1,0.1c-1.4-2.5-2.8-5-4.2-7.6c-0.6,0.5-0.8,1.5-0.3,3.4
					c0.2,1,0.6,2,1,3c-0.9-0.6-1.8-1.1-2.6-1.5c-2.7-1.2-3.6-0.6-4.1,0.5c-0.5,1.1-0.4,2.2,2.3,3.4c0.9,0.4,1.9,0.7,2.9,1
					c-1,0.3-2,0.7-2.8,1.1c-2.6,1.3-2.7,2.4-2.2,3.5c0.5,1.1,1.5,1.7,4.1,0.4C265.9,406.6,266.8,406.1,267.6,405.6z"/>
				<path class="st18" d="M200.7,406.4c-1.1,0-2.3,0.2-3.4,0.4c0.7-0.6,1.4-1.2,1.9-1.9c1.8-2.1,1.4-3.1,0.6-3.8
					c-0.8-0.7-1.9-0.9-3.6,1.2c-0.5,0.6-1,1.3-1.5,2c-0.1-0.9-0.2-1.9-0.4-2.7c-0.6-2.6-1.6-3-2.7-2.7c-1.1,0.2-1.8,1-1.2,3.6
					c0.2,0.9,0.5,1.9,0.9,2.8c-0.8-0.5-1.6-1-2.4-1.4c-2.5-1.1-3.3-0.5-3.8,0.5c-0.5,1-0.3,2,2.1,3.2c0.8,0.4,1.7,0.7,2.6,0.9
					c-0.9,0.3-1.8,0.6-2.6,1c-2.4,1.2-2.5,2.2-2,3.2c0.5,1,1.4,1.5,3.8,0.3c0.7-0.4,1.5-0.9,2.3-1.4c-0.3,0.8-0.5,1.7-0.7,2.5h4
					c0.1-0.7,0.2-1.5,0.1-2.3c0.5,0.8,1.1,1.6,1.7,2.3h4.4c0-0.6-0.4-1.4-1.3-2.5c-0.5-0.5-1.1-1.1-1.7-1.6c1,0.2,2,0.2,2.9,0.2
					c2.7,0,3.2-0.9,3.2-2C204,407.2,203.4,406.3,200.7,406.4z M194.4,409.7c-0.9,0.2-1.9-0.4-2.1-1.3c-0.2-0.9,0.4-1.9,1.3-2.1
					c0.9-0.2,1.9,0.4,2.1,1.3C195.9,408.5,195.4,409.5,194.4,409.7z"/>
				<path class="st18" d="M188.3,372.3c-0.6-0.4-1.3-0.9-2.1-1.2c0.6,0,1.3-0.1,1.8-0.2c1.9-0.4,2.1-1.1,1.9-1.8
					c-0.2-0.7-0.6-1.3-2.5-0.9c-0.5,0.1-1.1,0.3-1.7,0.5c0.4-0.5,0.7-1.1,0.9-1.6c0.8-1.7,0.4-2.3-0.3-2.6c-0.7-0.3-1.4-0.2-2.2,1.5
					c-0.3,0.6-0.5,1.3-0.7,1.9c-0.2-0.6-0.5-1.3-0.7-1.8c-0.9-1.7-1.6-1.7-2.3-1.4c-0.7,0.4-1.1,1-0.2,2.7c0.3,0.5,0.6,1.1,1,1.6
					c-0.6-0.2-1.3-0.4-1.9-0.6c-1.9-0.4-2.3,0.1-2.5,0.9c-0.2,0.7,0.1,1.4,1.9,1.8c0.6,0.1,1.2,0.2,1.8,0.2
					c-0.5,0.3-1.1,0.7-1.5,1.1c-1.4,1.3-1.3,2-0.8,2.5c0.5,0.6,1.2,0.8,2.6-0.5c0.5-0.4,1-1,1.4-1.6c-0.1,0.7-0.1,1.5-0.1,2.1
					c0.1,1.9,0.8,2.2,1.5,2.2c0.8-0.1,1.4-0.5,1.2-2.4c0-0.5-0.1-1.1-0.2-1.6c0.5,0.5,1,1,1.5,1.4c1.5,1.1,2.2,0.9,2.6,0.3
					C189.8,374.1,189.8,373.4,188.3,372.3z M183.5,371.4c-0.6-0.3-0.9-1-0.6-1.6c0.3-0.6,1-0.9,1.6-0.6s0.9,1,0.6,1.6
					C184.8,371.4,184.1,371.7,183.5,371.4z"/>
				<path class="st18" d="M179.9,396.1c-0.7-0.5-1.6-1.1-2.5-1.5c0.8,0,1.6-0.1,2.2-0.3c2.3-0.5,2.6-1.3,2.4-2.2
					c-0.2-0.9-0.8-1.6-3-1.1c-0.6,0.1-1.4,0.3-2,0.6c0.4-0.6,0.9-1.4,1.2-2c1-2.1,0.5-2.8-0.4-3.2c-0.8-0.4-1.7-0.3-2.7,1.8
					c-0.3,0.7-0.6,1.5-0.8,2.3c-0.2-0.8-0.6-1.5-0.9-2.2c-1.1-2-1.9-2.1-2.8-1.7c-0.8,0.4-1.3,1.2-0.2,3.2c0.3,0.6,0.8,1.4,1.3,2
					c-0.8-0.3-1.6-0.5-2.3-0.7c-2.3-0.5-2.9,0.2-3,1.1c-0.2,0.9,0.1,1.7,2.4,2.2c0.7,0.1,1.5,0.2,2.2,0.3c-0.7,0.4-1.3,0.9-1.8,1.4
					c-1.7,1.5-1.6,2.4-0.9,3.1c0.6,0.7,1.5,1,3.2-0.6c0.6-0.5,1.2-1.2,1.8-1.9c-0.1,0.9-0.1,1.8-0.1,2.6c0.2,2.3,1,2.7,1.9,2.6
					c0.9-0.1,1.6-0.6,1.5-2.9c0-0.6-0.2-1.3-0.3-2c0.6,0.6,1.2,1.2,1.8,1.7c1.8,1.4,2.7,1.1,3.2,0.3
					C181.6,398.4,181.7,397.5,179.9,396.1z M174,395c-0.7-0.3-1-1.2-0.7-1.9c0.3-0.7,1.2-1,1.9-0.7c0.7,0.3,1,1.2,0.7,1.9
					S174.7,395.4,174,395z"/>
				<path class="st18" d="M163.2,363c-0.3-1.4-1.2-2.3-4.6-1.7c-1,0.2-2,0.5-3.1,0.9c0.7-1,1.3-2,1.7-3c1.5-3.1,0.7-4.2-0.5-4.8
					c-1.3-0.6-2.6-0.4-4.1,2.7c-0.5,1-0.9,2.3-1.3,3.5c-0.4-1.2-0.9-2.3-1.4-3.3c-0.5-0.9-0.9-1.6-1.4-2v15.9c0.3-0.4,0.7-0.8,1-1.2
					c-0.1,1.3-0.2,2.7-0.1,3.9c0.3,3.5,1.4,4.1,2.8,4c1.4-0.1,2.5-0.9,2.2-4.3c-0.1-0.9-0.2-2-0.5-3c0.9,0.9,1.8,1.8,2.8,2.5
					c2.8,2.1,4,1.6,4.8,0.5c0.8-1.1,1-2.4-1.8-4.5c-1.1-0.8-2.4-1.6-3.8-2.3c1.2,0,2.3-0.2,3.4-0.4
					C163.1,365.6,163.5,364.4,163.2,363z M154.1,366.3c-0.5,1.1-1.8,1.6-2.9,1.1c-1.1-0.5-1.6-1.8-1.1-2.9c0.5-1.1,1.8-1.6,2.9-1.1
					C154.1,363.9,154.6,365.2,154.1,366.3z"/>
				<path class="st18" d="M66.7,343.9c-0.7-0.7-1.5-1.3-2.4-1.9c1.3,0.1,2.6,0.1,3.8,0c0.6-0.1,1.2-0.2,1.6-0.3
					c-1.3-2.3-2.7-3.9-3.5-4.7c-1,0.2-2.1,0.4-3,0.7c0.6-0.6,1.1-1.2,1.6-1.8c-0.6-0.3-1.3-0.5-1.8-0.5c0,0.2,0,0.3,0,0.3
					c-0.7,0.9-1.3,1.8-2,2.8c0.1,0.2,0.2,0.3,0.2,0.5c0.4,1.2-0.3,2.4-1.4,2.8c-0.4,0.1-0.8,0.1-1.2,0.1c-1,1.4-1.9,2.8-2.9,4.3
					c-0.1,0.7-0.3,1.4-0.3,2.1c-0.3,3.5,0.8,4.3,2.2,4.4c1.4,0.1,2.6-0.5,3-4c0.1-1.2,0.1-2.6,0-4c0.8,1.1,1.7,2.1,2.6,3
					c2.6,2.4,3.9,2,4.9,1C69,347.7,69.3,346.3,66.7,343.9z"/>
				<path class="st18" d="M76,372.3c-0.6-0.4-1.3-0.9-2.1-1.2c0.6,0,1.3-0.1,1.8-0.2c0.3-0.1,0.6-0.2,0.9-0.2l-0.4-2.6
					c-0.3,0-0.6,0-1,0.1c-0.5,0.1-1.1,0.3-1.7,0.5c0.4-0.5,0.7-1.1,0.9-1.6c0.8-1.7,0.4-2.3-0.3-2.6c-0.7-0.3-1.4-0.2-2.2,1.5
					c-0.3,0.6-0.5,1.3-0.7,1.9c-0.2-0.6-0.5-1.3-0.7-1.8c-0.9-1.7-1.6-1.7-2.3-1.4c-0.7,0.4-1.1,1-0.2,2.7c0.3,0.5,0.6,1.1,1,1.6
					c-0.6-0.2-1.3-0.4-1.9-0.6c-1.9-0.4-2.3,0.1-2.5,0.9c-0.2,0.7,0.1,1.4,1.9,1.8c0.6,0.1,1.2,0.2,1.8,0.2
					c-0.5,0.3-1.1,0.7-1.5,1.1c-1.4,1.3-1.3,2-0.8,2.5c0.5,0.6,1.2,0.8,2.6-0.5c0.5-0.4,1-1,1.4-1.6c-0.1,0.7-0.1,1.5-0.1,2.1
					c0.1,1.9,0.8,2.2,1.5,2.2c0.8-0.1,1.4-0.5,1.2-2.4c0-0.5-0.1-1.1-0.2-1.6c0.5,0.5,1,1,1.5,1.4c1.5,1.1,2.2,0.9,2.6,0.3
					S77.5,373.4,76,372.3z M72.7,370.8c-0.3,0.6-1,0.9-1.6,0.6c-0.6-0.3-0.9-1-0.6-1.6c0.3-0.6,1-0.9,1.6-0.6
					C72.7,369.5,73,370.2,72.7,370.8z"/>
				<g>
					<path class="st18" d="M225.1,341.5c0.8-1.4,1.9-3.1,3.3-4.4c-0.7-0.3-1.3-0.9-1.4-1.7c-0.3-1.3,0.5-2.6,1.8-2.9
						c1.1-0.3,2.1,0.3,2.6,1.2c-0.6-2.5-2.2-7-6.2-11.1c-1,0.5-1.6,1.8-0.9,4.7c0.3,1.2,0.7,2.6,1.3,3.8c-1.1-0.7-2.3-1.4-3.4-1.9
						c-3.4-1.6-4.6-0.7-5.2,0.6c-0.6,1.4-0.5,2.8,3,4.4c1.1,0.5,2.4,0.9,3.6,1.3c-1.3,0.4-2.5,0.9-3.6,1.4c-3.4,1.7-3.5,3.1-2.8,4.5
						c0.7,1.4,1.9,2.1,5.3,0.5c1-0.5,2.1-1.2,3.2-1.9C225.3,340.5,225.2,341,225.1,341.5z"/>
					<path class="st18" d="M231.6,335.2c0,0,0-0.1,0-0.1C231.6,335.1,231.6,335.1,231.6,335.2C231.6,335.2,231.6,335.2,231.6,335.2z
						"/>
				</g>
				<g>
					<path class="st18" d="M217.1,374.8c-0.2,0-0.5,0.1-0.7,0.1c0.3-0.2,0.5-0.4,0.7-0.7c0.2-2.2,0.5-4.5,0.8-6.7
						c-0.8,0.1-1.7,0.6-2.9,2c-0.6,0.7-1.2,1.6-1.8,2.5c-0.1-1.1-0.2-2.3-0.5-3.3c-0.7-3.2-1.9-3.6-3.2-3.3
						c-1.3,0.3-2.2,1.2-1.4,4.4c0.2,1.1,0.6,2.3,1.1,3.3c-1-0.6-2-1.2-3-1.7c-3-1.4-4-0.6-4.6,0.6c-0.5,1.2-0.4,2.5,2.6,3.8
						c1,0.4,2.1,0.8,3.2,1.1c-1.1,0.3-2.2,0.8-3.2,1.2c-2.9,1.5-3.1,2.7-2.5,3.9c0.6,1.2,1.6,1.9,4.6,0.4c0.9-0.4,1.9-1,2.8-1.7
						c-0.4,1-0.7,2.2-0.9,3.1c-0.6,3.2,0.4,4.1,1.7,4.3c1.3,0.2,2.5-0.2,3.1-3.5c0.2-1.1,0.3-2.4,0.3-3.7c0.7,1.1,1.4,2.1,2.2,3
						c0.3,0.3,0.5,0.6,0.8,0.8C216.6,382,216.8,378.5,217.1,374.8z M213,378.4c-1.1,0.3-2.2-0.4-2.5-1.6c-0.3-1.1,0.4-2.2,1.6-2.5
						c1.1-0.3,2.2,0.4,2.5,1.6C214.8,377.1,214.1,378.2,213,378.4z"/>
				</g>
				<path class="st18" d="M180.4,342c3.5-0.4,4.1-1.6,3.9-3c-0.1-1.4-1-2.5-4.5-2.1c-1.4,0.1-3,0.5-4.4,0.9c0.8-0.8,1.6-1.8,2.2-2.6
					c2-2.9,1.5-4.1,0.3-4.9c-0.1,0-0.1-0.1-0.2-0.1c-1.3,1.1-3,2.1-5,3c-0.4,0.6-0.7,1.2-1.1,1.9c-0.1-0.4-0.2-0.9-0.2-1.3
					c-1.5,0.6-3,1.1-4.6,1.6c0.2,0.5,0.4,0.9,0.7,1.4c-0.7-0.4-1.4-0.7-2-1c-2.1,0.6-4.2,1-6.3,1.4c0,1,0.7,2,3.3,2.9
					c1.1,0.4,2.3,0.7,3.5,0.9c-1.2,0.5-2.3,1-3.3,1.6c-3,1.8-3,3.2-2.3,4.4c0.7,1.2,1.9,1.8,5,0c0.9-0.6,1.9-1.3,2.8-2
					c-0.3,1.2-0.5,2.4-0.6,3.4c-0.3,3.5,0.8,4.3,2.2,4.4c1.4,0.1,2.6-0.5,3-4c0.1-1.2,0.1-2.6,0-4c0.8,1.1,1.7,2.1,2.6,3
					c2.6,2.4,3.9,2,4.9,1c1-1,1.2-2.4-1.3-4.8c-0.7-0.7-1.5-1.3-2.4-1.9C177.9,342.1,179.2,342.1,180.4,342z M172.1,341.8
					c-1.2,0.4-2.4-0.3-2.8-1.4c-0.4-1.2,0.3-2.4,1.4-2.8c1.2-0.4,2.4,0.3,2.8,1.4S173.3,341.4,172.1,341.8z"/>
				<path class="st18" d="M122.2,337.8c1.4,0.2,2.8,0.3,4.1,0.3c1.4,0,2.4-0.2,3.1-0.5c-2.4-1.2-4.7-2.8-6.7-4.6
					c-0.4,0.1-0.8,0.1-1.2,0.2c0.2-0.2,0.5-0.4,0.7-0.6c-1.3-1.2-2.6-2.4-3.7-3.7c-0.2,0.3-0.4,0.7-0.6,1c0-0.7-0.1-1.3-0.2-2
					c-1.7-2-3.2-3.9-4.2-5.5c-1.4,0.4-2.3,1.5-1.5,5c0.3,1.2,0.7,2.6,1.3,3.8c-1.1-0.7-2.3-1.4-3.4-1.9c-3.4-1.6-4.6-0.7-5.2,0.6
					c-0.6,1.4-0.5,2.8,3,4.4c1.1,0.5,2.4,0.9,3.6,1.3c-1.3,0.4-2.5,0.9-3.6,1.4c-3.4,1.7-3.5,3.1-2.8,4.5c0.7,1.4,1.9,2.1,5.3,0.5
					c1-0.5,2.1-1.2,3.2-1.9c-0.4,1.2-0.8,2.5-1,3.6c-0.7,3.7,0.4,4.7,1.9,4.9c1.5,0.3,2.8-0.2,3.5-3.9c0.2-1.3,0.4-2.8,0.3-4.2
					c0.8,1.2,1.6,2.4,2.5,3.4c2.5,2.8,3.9,2.5,5.1,1.5c1.1-1,1.5-2.4-1-5.2C123.9,339.4,123,338.6,122.2,337.8z M117.4,337.2
					c-1.3,0.3-2.6-0.5-2.9-1.8c-0.3-1.3,0.5-2.6,1.8-2.9c1.3-0.3,2.6,0.5,2.9,1.8C119.5,335.6,118.7,336.9,117.4,337.2z"/>
			</g>
			<path class="st18" d="M96.6,317.7c-1-0.1-2-0.1-3.1,0c1.1-0.7,2.1-1.6,3-2.4c2.5-2.5,2.2-3.8,1.2-4.8c-0.1-0.1-0.3-0.3-0.4-0.4
				c-1.3,0.3-2.6,0.6-3.9,1c-0.2,0.1-0.3,0.3-0.5,0.5c-1,1-2,2.2-2.9,3.4c0.1-1,0.2-2,0.1-2.9c-1.8,0.6-3.4,1.1-5,1.7
				c0.1,0.4,0.1,0.8,0.2,1.3c-0.3-0.3-0.7-0.6-1.1-0.9c-2.3,0.9-4.2,1.7-5.5,2.3c0.3,0.2,0.6,0.5,1,0.7c1,0.7,2.2,1.3,3.3,1.8
				c-1.2,0.2-2.5,0.5-3.5,0.8c-3.3,1.1-3.6,2.4-3.2,3.8c0.5,1.4,1.5,2.2,4.8,1.1c1.1-0.4,2.2-0.9,3.3-1.5c-0.6,1.1-1.2,2.2-1.6,3.3
				c-1.2,3.3-0.4,4.4,0.9,4.9c1.3,0.5,2.7,0.3,3.9-3c0.4-1,0.7-2.2,0.9-3.3c0.5,1.1,1,2.2,1.6,3.1c1.9,3,3.3,2.9,4.5,2.2
				c1.2-0.8,1.8-2-0.1-4.9c-0.7-1-1.5-2.1-2.5-3.1c1.3,0.3,2.7,0.6,3.9,0.7c3.5,0.3,4.3-0.8,4.4-2.2
				C100.8,319.2,100.2,318,96.6,317.7z M89.9,320.3c-0.7,1-2.1,1.3-3.1,0.6c-1-0.7-1.3-2.1-0.6-3.1c0.7-1,2.1-1.3,3.1-0.6
				C90.3,317.9,90.6,319.3,89.9,320.3z"/>
		</g>
		<g>
			<g>
				<g>
					<g>
						<rect x="148.3" y="341.4" class="st19" width="0.9" height="72.9"/>
					</g>
					<g>
						<circle class="st20" cx="160.5" cy="359.5" r="5.5"/>
					</g>
					<g>
						<circle class="st20" cx="160.5" cy="387.1" r="5.5"/>
					</g>
					<path class="st20" d="M166,414.2c-0.3-2.8-2.6-5-5.5-5s-5.2,2.2-5.5,5H166z"/>
				</g>
				<g>
					<path class="st19" d="M63.1,335l-0.1,0.5c0,0.1,0,0.2,0,0.2c0,0,0,0,0,0l0,0.1c14.2,2.7,14.8,58.5,14.8,59l0.3-0.4l0.2-0.3
						l0.1,0.3l0.1,0.5C78.9,395.3,78.1,337.8,63.1,335z"/>
				</g>
				<g>
					<path class="st19" d="M231.6,335l0.1,0.5c0,0.1,0,0.2,0,0.2c0,0,0,0,0,0l0,0.1c-14.2,2.7-14.8,58.5-14.8,59l-0.3-0.4l-0.2-0.3
						l-0.1,0.3l-0.1,0.5C215.8,395.3,216.6,337.8,231.6,335z"/>
				</g>
			</g>
			<circle class="st21" cx="158.8" cy="357.5" r="1.4"/>
			<circle class="st21" cx="158.8" cy="385" r="1.4"/>
			<circle class="st21" cx="158.8" cy="412.8" r="1.4"/>
		</g>
		<g>
			<g>
				<path class="st8" d="M148,334.2c-18.2,0-33.4-12-37.4-28.1c-1.9,0.9-7.1,3.2-7.1,3.2c-2.1,5.2,3.4,6.6,3.4,6.6h0
					c-1.7,3.6,0.7,7.8,4.7,8.2h0l-0.2,1.1c-0.8,3.4,2,6.5,5.5,6.1l1.1-0.1l0,1.4c-0.1,3.3,3.2,5.6,6.3,4.6l1.4-0.5l0.3,1.6
					c0.6,3.1,4.1,4.7,6.9,3.1l1.4-0.8l0.6,1.3c1.3,3,5.2,3.8,7.6,1.6l1.1-1l0.7,1c1.9,2.8,6,2.8,8,0l0.7-1l1.4,1.3
					c2.2,2.1,5.9,1.3,7.1-1.5l0.7-1.7l1.4,0.8c2.7,1.6,6.3,0.1,6.9-3.1l0.3-1.6l1.5,0.5c3.1,1,6.2-1.3,6.2-4.5l0-1.5l0.9,0.1
					c3.5,0.4,6.4-2.8,5.6-6.2l-0.2-0.9l1-0.1c3.5-0.3,5.6-4,4.1-7.1l-0.4-0.9c0,0,5.6-1.9,3.9-7.1c0,0-5.7-1.8-7.6-2.7
					C181.4,322.3,166.2,334.2,148,334.2z"/>
			</g>
			<g>
				<path class="st22" d="M185.5,306.1c-0.9,4.1-2.7,8-5,11.5c-2.3,3.5-5.3,6.6-8.7,9.2c-6.8,5.1-15.3,7.8-23.7,7.9
					c-8.5,0-17-2.7-23.7-7.9c-3.4-2.5-6.3-5.7-8.7-9.2c-2.3-3.5-4.1-7.4-5-11.5c2.2,8.1,7.3,15.3,14.1,20.1c6.7,4.9,15,7.5,23.3,7.5
					c8.3,0,16.6-2.6,23.3-7.5C178.1,321.4,183.2,314.3,185.5,306.1z"/>
			</g>
		</g>
		<path class="st23" d="M233.9,145.2c0,68.3-24.2,124-86.4,124c-62.2,0-85.3-56.4-85.3-124.6c0-68.3,57.9-82,86.3-82
			S233.9,77,233.9,145.2z"/>
		<path class="st24" d="M117.6,228.3c9.4,5.7,19.5,9.2,29.7,9.1c10.3,0,20.1-4,29.9-9.1c-3.6,4.2-8.1,7.8-13.2,10.3
			c-5.1,2.6-10.9,4-16.7,4.1c-5.8,0-11.6-1.3-16.8-3.8C125.5,236.3,120.9,232.8,117.6,228.3z"/>
		<g>
			<polygon class="st25" points="96,184.2 85.9,178.5 97.1,181.4 			"/>
		</g>
		<g>
			<polygon class="st25" points="97.2,198.2 85.9,202 95.9,195.5 			"/>
		</g>
		<g>
			<polygon class="st25" points="96.6,191.2 78.3,190.7 96.5,188.2 			"/>
		</g>
		<g>
			<polygon class="st25" points="200.6,181.4 211.8,178.5 201.8,184.2 			"/>
		</g>
		<g>
			<polygon class="st25" points="201.9,195.5 211.8,202 200.5,198.2 			"/>
		</g>
		<g>
			<polygon class="st25" points="201.3,188.2 219.4,190.7 201.1,191.2 			"/>
		</g>
		<path class="st26" d="M127.9,188.9c0,9.4-7.7,17-17.2,17c-9.5,0-17.2-7.6-17.2-17c0-9.4,7.7-17,17.2-17
			C120.2,172,127.9,179.6,127.9,188.9z"/>
		<path class="st7" d="M123.5,188.9c0,6.5-5.3,11.9-11.8,11.9c-6.5,0-11.8-5.3-11.8-11.9c0-6.5,5.3-11.8,11.8-11.8
			C118.2,177.1,123.5,182.4,123.5,188.9z"/>
		<path class="st8" d="M106.7,182.8c0,1.9-1.5,3.4-3.4,3.4c-1.9,0-3.4-1.5-3.4-3.4c0-1.9,1.5-3.4,3.4-3.4
			C105.1,179.4,106.7,180.9,106.7,182.8z"/>
		<path class="st26" d="M169.9,188.9c0,9.4,7.7,17,17.2,17c9.5,0,17.2-7.6,17.2-17c0-9.4-7.7-17-17.2-17
			C177.6,172,169.9,179.6,169.9,188.9z"/>
		<path class="st7" d="M174.3,188.9c0,6.5,5.3,11.9,11.8,11.9c6.5,0,11.8-5.3,11.8-11.9c0-6.5-5.3-11.8-11.8-11.8
			C179.6,177.1,174.3,182.4,174.3,188.9z"/>
		<path class="st8" d="M175,182.8c0,1.9,1.5,3.4,3.4,3.4c1.9,0,3.4-1.5,3.4-3.4c0-1.9-1.5-3.4-3.4-3.4
			C176.5,179.4,175,180.9,175,182.8z"/>
		<g>
			<path class="st25" d="M114.3,232.5c0.6-1,1.2-2,1.8-2.9c0.6-0.9,1.2-1.8,1.9-2.7c0.7-0.9,1.3-1.8,2-2.6c0.7-0.9,1.5-1.7,2.4-2.5
				c-0.2,1.2-0.6,2.3-1.1,3.3c-0.5,1-1.1,2-1.8,3c-0.7,0.9-1.4,1.8-2.3,2.6C116.4,231.4,115.5,232.1,114.3,232.5z"/>
		</g>
		<g>
			<path class="st25" d="M181.3,232.5c-1.1-0.4-2.1-1.1-3-1.9c-0.9-0.8-1.6-1.6-2.3-2.6c-0.7-0.9-1.3-1.9-1.8-3
				c-0.5-1-0.9-2.1-1.1-3.3c0.9,0.8,1.7,1.6,2.4,2.5c0.7,0.9,1.4,1.7,2,2.6c0.6,0.9,1.3,1.8,1.9,2.7
				C180.1,230.6,180.7,231.5,181.3,232.5z"/>
		</g>
		<path class="st27" d="M240.1,117.8c-2.1-17.4-47.6-66.1-93-66.1s-90.8,48.6-92.9,66.1c-4.8,40,11.9,77.4,11.9,77.4
			c-0.1-65.5,42.1-80.1,81.1-80.1s81.1,14.5,81.1,80.1C228.2,195.3,244.9,157.9,240.1,117.8z"/>
		<path class="st28" d="M150.7,110.4c-2-3.6-2.8-7.6-3-11.6c-0.1-4,0.8-7.9,1.8-11.8c1-3.8,2.2-7.6,3.4-11.4
			c1.2-3.8,2.4-7.5,3.3-11.4c-0.8,3.9-2,7.7-3.1,11.5c-1.1,3.8-2.2,7.6-3.1,11.4c-0.9,3.8-1.8,7.7-1.5,11.6
			c0.2,3.9,1.1,7.8,3.1,11.1L150.7,110.4z"/>
		<path class="st28" d="M64.8,99.2c0.1,1.8-2.1,39.5,13.5,40.9c0,0,9.4-16,21.5-19.7c0,0-10.3,1.3-13.9-9
			c-3.7-10.3-4.1-30.2-4.1-30.2S73.5,88.1,64.8,99.2z"/>
		<path class="st28" d="M179.3,97.8c-3.7,10.3-9.7,13.6-9.7,13.6c12.1,3.7,21.5,8.6,21.5,8.6c12.8-1.1,9.4-37,7.7-50
			c-5.9-4-12.3-7.6-18.9-10.6C180.7,68.9,182.1,89.9,179.3,97.8z"/>
		<path class="st28" d="M66.8,148.4c2.3,2.8,5.1,2.3,5.1,2.3c4.7-0.9,1.6-5.3,1.6-5.3c-2.9,1.3-7.2-4.6-10.8-13.4
			c-2.5-6-4.3-15.8-5.1-21.4c-0.4,0.8-0.8,1.6-1.1,2.4C58.1,131.1,64.7,145.8,66.8,148.4z"/>
		<path class="st28" d="M217.1,84.6c-0.8,5.1-2.7,16.2-5.4,22.8c-3.6,8.8-10.9,17.2-13.8,15.9c0,0,3.9,2.2,5.3,3.8
			c0,0,2.1-0.5,4.4-3.2c2.3-2.7,9.4-18.8,10.6-38.2C217.8,85.3,217.4,85,217.1,84.6z"/>
		<path class="st28" d="M110.9,113.6c1.9,1.6,5,1.3,6.1,0.8c1.1-0.5,4.7-1.1,4.7-1.1c-5.1-1.8-6.1-6.9-6.1-6.9
			c2,4.9,8.5,6.6,9.5,6.4c1-0.3,7.2-1.4,9.1-1.4c1.9-0.1,4.7-1,4.7-1c0.6-1.5-3.2-4-7.9-10.9c-5.7-8.3-6.5-33.2-6.6-43.7
			c-6.7,2.2-13.3,5.3-19.5,8.8c-0.9,8-2,20.8-1.6,29.6C103.9,107.8,109,112,110.9,113.6z"/>
		<path class="st28" d="M153.3,83c-2.1,13.4-0.5,27-0.5,27c1.4,0,6.6,0.4,6.6,0.4c2.2-8.6,3.2-16,2.2-21.7
			c-0.9-5.7,0.9-15.9,2.3-23.1c0.9-4.8,0.6-9.4,0.3-11.8c-1.5-0.4-3.1-0.7-4.6-0.9C160.2,62.9,155.3,70.3,153.3,83z"/>
		<path class="st27" d="M136.6,111.7c-2.9-3.1-5.7-6.3-8.3-9.7c-1.2-1.7-2.5-3.5-3.2-5.6c-0.8-2-1.2-4.1-1.6-6.2
			c-0.8-4.2-1.2-8.4-1.5-12.6c-0.2-4.2-0.3-8.5-0.1-12.7c-0.1,4.2,0.1,8.5,0.4,12.7c0.3,4.2,0.8,8.4,1.7,12.6c0.4,2.1,1,4.1,1.7,6.1
			c0.7,2,2,3.7,3.2,5.4c2.6,3.3,5.4,6.5,8.4,9.5L136.6,111.7z"/>
		<path class="st28" d="M235.9,107.3c-2.1-3.6-4.9-7.5-8.3-11.6c0,11.2-0.9,37.3-10.3,44c0,0,4.1,4.4,7.3,12.9
			C224.6,152.6,236.5,154.6,235.9,107.3z"/>
		<path class="st27" d="M173,113.7c1.5-0.9,2.8-2.2,3.9-3.6c1.1-1.5,2.1-3,2.8-4.7c0.8-1.6,1.4-3.4,2-5.1l0.7-2.7l0.5-2.7
			c0.1-0.5,0.2-0.9,0.3-1.4l0.2-1.4l0.3-2.7c0.1-1.8,0.2-3.7,0.3-5.5c0-1.8,0-3.7-0.1-5.5l-0.3-5.5l0.5,5.5c0.1,1.8,0.1,3.7,0.2,5.6
			c0,1.9-0.1,3.7-0.2,5.6l-0.3,2.8l-0.1,1.4c-0.1,0.5-0.2,0.9-0.2,1.4l-0.5,2.7l-0.7,2.7c-0.5,1.8-1.1,3.6-1.9,5.3
			c-0.8,1.7-1.7,3.3-2.8,4.9l-0.9,1.1l-1,1c-0.7,0.7-1.4,1.3-2.3,1.8L173,113.7z"/>
		<path class="st27" d="M222.3,151c0.5,0,1.1-0.3,1.6-0.6c0.5-0.3,1-0.8,1.4-1.2c0.2-0.2,0.4-0.5,0.6-0.7c0.2-0.3,0.4-0.5,0.6-0.8
			c0.3-0.6,0.7-1.1,1-1.7c1.2-2.3,2.1-4.8,2.8-7.3c0.3-1.3,0.7-2.5,0.9-3.8c0.3-1.3,0.5-2.6,0.7-3.9c0.5-2.6,0.7-5.2,1-7.9
			c-0.2,2.6-0.4,5.3-0.8,7.9c-0.1,1.3-0.4,2.6-0.6,3.9c-0.2,1.3-0.5,2.6-0.8,3.9c-0.6,2.6-1.4,5.1-2.6,7.5c-0.3,0.6-0.7,1.2-1,1.8
			c-0.2,0.3-0.4,0.6-0.6,0.8c-0.2,0.3-0.4,0.6-0.6,0.8c-0.4,0.5-1,1-1.5,1.4c-0.3,0.2-0.6,0.4-0.9,0.5c-0.3,0.2-0.7,0.3-1.1,0.3
			L222.3,151z"/>
		<path class="st29" d="M227.5,162c-2.2-2.2-2.4-2.6-3.4-8.5c-1-5.9-9.5-16-12.5-18.8c-3-2.8,0.4-3.6-1.8-5.6
			c-2.2-1.9-2.2,1.1-6.5-1.1c-4.2-2.2-18.6-9.7-19.8-9.7s0-3.8-1.4-3.4c-1.4,0.5-1.8,2.1-3.8,1.1c-2-1-13.8-2.6-14.6-2.6
			c-0.8,0-4.1-3-2.6-8.2c-2.5,3-4.2,6.8-12.9,6.2c-8.7-0.6-21.7,3.2-26.1,3.5c-4.5,0.3-12.6,3.1-17.5-12.7c1.7,11.2,8.6,16,5.8,16.6
			c-2.8,0.6-3.5-1.5-5.3-2.4c0.4,3.5-1.2,4.7-4.2,5.9c-3,1.2-17.8,12.1-18.8,14c-1,1.8-3.4,6.1-6.2,6.1c-2.8,0-0.1,4.3-0.1,6.4
			c0,2-4,3-4,3s-6.7,17.6-4.5,39c0,0,0,0,0,0c1.9-61.6,42.9-75.5,81-75.5c37,0,76.7,13.1,80.7,70.2c0.8-10-1.1-17.2-1.3-17.8
			C227.3,166.8,229.7,164.2,227.5,162z"/>
		<path class="st28" d="M143,108.4c0,0-15.7-4.5-8.1,12.3c7.6,16.8-1.6,15.9-1.6,15.9s4.4-1.3,2.7-5.8c-1.7-4.5-7.2-14.6-6.4-19.5
			C130.3,106.4,138.9,100.4,143,108.4z"/>
		<path class="st28" d="M167.1,110.1c-0.1-0.8,0.1-1.6,0.5-2.2c0.4-0.7,1.1-1.2,1.8-1.6c0.7-0.4,1.4-0.6,2.4-0.7
			c1,0.1,1.9,0.4,2.6,1c1.4,1.1,2.1,2.7,2.4,4.2c0.3,1.5,0.3,3,0.1,4.5c-0.2,1.5-0.7,2.9-1.4,4.2l-0.5,0.9l-0.5,0.8
			c-0.3,0.6-0.6,1.1-0.9,1.7c-0.5,1.2-1,2.5-0.9,3.7c0,0.6,0.2,1.2,0.6,1.7c0.4,0.4,1,0.7,1.7,0.5l0.1,0.3c-0.7,0.2-1.5,0.1-2.1-0.4
			c-0.6-0.5-0.9-1.3-1-2c-0.3-1.5,0-2.9,0.4-4.3c0.2-0.7,0.5-1.3,0.8-2l0.5-1l0.4-0.9c0.5-1.2,0.8-2.4,0.9-3.6
			c0.1-1.2-0.1-2.5-0.5-3.6c-0.4-1.1-0.9-2.1-1.6-2.8c-0.3-0.4-0.7-0.5-1.1-0.7c-0.3-0.1-1,0-1.6,0.1c-1.1,0.2-2.2,0.8-2.7,2
			L167.1,110.1z"/>
		<path class="st29" d="M226.2,158.7c0.1-0.8,0.6-1.4,1.3-1.9c0.7-0.5,1.5-0.7,2.3-0.8c0.8-0.1,1.5-0.1,2.5,0.3
			c0.9,0.4,1.6,1.1,2.1,1.9c0.9,1.6,1,3.2,0.7,4.8c-0.3,1.5-0.8,3-1.6,4.2c-0.8,1.3-1.7,2.4-2.9,3.4l-0.8,0.7l-0.8,0.6
			c-0.5,0.4-1,0.8-1.5,1.3c-0.9,0.9-1.8,1.9-2.2,3.1c-0.2,0.6-0.3,1.2-0.1,1.8c0.2,0.6,0.7,1,1.4,1.1l0,0.3c-0.7,0-1.5-0.4-1.8-1.1
			c-0.4-0.7-0.4-1.5-0.2-2.2c0.3-1.5,1.1-2.7,2-3.8c0.4-0.6,0.9-1.1,1.5-1.6l0.8-0.7l0.7-0.7c0.9-0.9,1.6-1.9,2.1-3.1
			c0.5-1.1,0.8-2.3,0.8-3.5c0-1.2-0.1-2.3-0.5-3.2c-0.2-0.5-0.4-0.7-0.7-1c-0.3-0.2-0.9-0.4-1.5-0.5c-1.1-0.2-2.3-0.1-3.3,0.9
			L226.2,158.7z"/>
		<path class="st8" d="M124.5,110.5c-1.1,0.1-2.3-0.2-3.3-0.7c-0.5-0.2-1-0.5-1.5-0.8c-0.5-0.3-0.9-0.7-1.4-1
			c-1.8-1.5-2.9-3.6-3.7-5.7c-0.5-1-0.8-2.1-1.1-3.2c-0.3-1.1-0.5-2.2-0.7-3.2c-0.1-1.1-0.3-2.2-0.4-3.3l-0.1-3.3l0.2,0l0.5,3.2
			c0.2,1.1,0.5,2.1,0.7,3.2c0.3,1,0.6,2.1,1,3.1c0.4,1,0.8,2,1.3,2.9c1,1.9,2.3,3.5,3.7,5c1.4,1.5,3,2.8,5,3.6L124.5,110.5z"/>
		<path class="st8" d="M117.1,113.3c-1.8-0.1-3.5-0.9-4.9-1.9c-1.5-1-2.5-2.5-3.4-4c-0.9-1.5-1.6-3.1-2.1-4.8
			c-0.3-0.8-0.4-1.7-0.6-2.5c-0.1-0.8-0.2-1.7-0.3-2.5l0.2,0c0.2,0.8,0.4,1.6,0.7,2.4c0.3,0.8,0.5,1.6,0.9,2.3
			c0.6,1.5,1.5,2.9,2.5,4.3c1,1.3,2.2,2.3,3.4,3.4c1.2,1.1,2.4,2.1,3.8,3.2L117.1,113.3z"/>
		<path class="st8" d="M219.4,140c2.2-2,3.7-4.6,4.8-7.3c0.3-0.7,0.6-1.3,0.8-2c0.2-0.7,0.6-1.3,0.8-2.1l0.7-2.1l0.6-2.2
			c0.2-0.7,0.3-1.5,0.5-2.2l0.4-2.2c0.2-1.5,0.4-3,0.5-4.5c0.1-1.5,0.2-3,0.3-4.5l0.1-4.5l0.2,0l0.3,4.5c0.1,1.5,0.1,3,0.1,4.6
			c0,1.5-0.2,3-0.2,4.6l-0.3,2.3c-0.1,0.8-0.2,1.5-0.3,2.3c-0.5,3-1.2,6.1-2.7,8.9c-0.7,1.4-1.6,2.7-2.6,3.9c-1,1.2-2.3,2.2-3.7,2.8
			L219.4,140z"/>
		<path class="st8" d="M78.9,137.1c-0.9,0.1-1.7-0.1-2.5-0.5c-0.8-0.4-1.5-0.9-2-1.5c-1.2-1.2-1.8-2.8-2.4-4.3
			c-0.3-0.8-0.5-1.5-0.7-2.3c-0.2-0.8-0.4-1.6-0.5-2.3c-0.1-0.8-0.3-1.6-0.3-2.4l-0.2-2.4l0.2,0l0.6,2.3c0.2,0.8,0.4,1.5,0.7,2.2
			c0.2,0.7,0.5,1.5,0.8,2.2c0.3,0.7,0.6,1.4,0.9,2.1c0.7,1.4,1.6,2.6,2.4,3.7c0.9,1.2,1.8,2.3,3.2,3L78.9,137.1z"/>
		<path class="st8" d="M190.9,114.8c0.7-0.5,1.2-1.3,1.6-2.1c0.4-0.8,0.8-1.6,1-2.4c0.3-0.8,0.5-1.7,0.7-2.5
			c0.2-0.9,0.4-1.7,0.5-2.6c0.6-3.5,1.1-7.1,1.2-10.7c0-1.8,0.2-3.6,0.1-5.4c0-1.8,0-3.6-0.2-5.4c-0.1-3.6-0.4-7.2-0.7-10.9l0.2,0
			c0.5,3.6,1.1,7.2,1.5,10.8c0.2,1.8,0.3,3.6,0.4,5.5c0.2,1.8,0.1,3.7,0.2,5.5c0,3.7,0,7.4-0.9,11c-0.2,0.9-0.5,1.8-0.8,2.7
			c-0.2,0.4-0.3,0.9-0.5,1.3c-0.2,0.4-0.3,0.9-0.6,1.3c-0.2,0.4-0.4,0.8-0.7,1.2c-0.3,0.4-0.5,0.8-0.8,1.1c-0.6,0.7-1.3,1.4-2.2,1.8
			L190.9,114.8z"/>
	</g>
	<g>
		<g>
			<path class="st30" d="M429.8,133.1c0,0-20.6-39.7-85.8-26.2s-84.3,77.3-82.2,114.1s10.4,58.7,27.4,84.4
				c16.8,25.3,9.4,41.8-3.3,46c0,0,73,51.7,148.8,0.7c0,0-18.4-5.7-16.3-20.6c2.1-14.9,29.1-33.3,45.4-64.5S487.2,148,429.8,133.1z"
				/>
			<linearGradient id="SVGID_2_" gradientUnits="userSpaceOnUse" x1="360.6998" y1="402.8417" x2="360.6998" y2="302.6659">
				<stop  offset="0.293" style="stop-color:#F4D89A"/>
				<stop  offset="0.3714" style="stop-color:#F3D799"/>
				<stop  offset="1" style="stop-color:#DFC48E"/>
			</linearGradient>
			<path class="st31" d="M304.4,402.8l116-9.5c0,0,18.8-13.9,17.2-16.5c-2.2-3.6-5.1-12-10.3-11.8c-11,0.4-42.9-19.4-42.6-30.1
				c0.3-12.3,0-32.3,0-32.3h-41.1c0,0,0,20,0,32.3c0,12.3-16.4,22.7-33.7,28.4c-17.3,5.7-26.4,12.3-26.4,12.3L304.4,402.8z"/>
			<path class="st32" d="M447.1,209.5c0,59.8-28.1,108.8-82.7,108.8c-54.5,0-84.8-49.5-84.8-109.4c0-59.8,31.2-65.9,85.8-65.9
				C419.9,143.1,447.1,149.7,447.1,209.5z"/>
			<path class="st33" d="M331.8,280.9c10.3,6.2,21.3,10.1,32.5,10c11.2,0,22-4.3,32.7-10c-3.9,4.6-8.8,8.5-14.4,11.2
				c-5.6,2.8-11.9,4.3-18.2,4.4c-6.4,0-12.7-1.4-18.3-4.2C340.5,289.7,335.4,285.9,331.8,280.9z"/>
			<path class="st34" d="M415.2,161.6c0,0-2.5,18.7,7.7,46.4c11.2,30.4,23.2,41.6,34.6,33.6c0,0-12.3,4.2-8.9-8.9
				c4.6-17.7,14.1-47.7-0.1-68.2c-12.2-17.6-25.4-14.8-25.4-14.8s-10.6-36.1-58.7-36.6c-69-0.7-116.4,86.2-80.6,146.1
				c0,0-11.7-46,12.8-48.9c24.4-2.9,112-33.5,118.7-50.2"/>
			<path class="st35" d="M418.4,166.4c0,0-9.1,17.7-39.6,32.7c-24.3,11.9-52.2,13.8-79.2,13.1c0,0-9.2,15.6-8.5,41.1
				c0.7,25.5,13.6,52.5,13.6,52.5s-50.3-75.8-11-137.1c46-71.7,117.7-36.5,128.6-15.2C422.4,153.3,422.6,160.2,418.4,166.4z"/>
			<path class="st36" d="M414.7,151.2c-8.3-2.9-16.8-4.9-25.2-6.5c-8.5-1.5-17-2.3-25.5-2.1c-17,0.3-33.6,5.1-48.9,14
				c6.3-6.2,13.9-11.2,22.3-14.5c8.4-3.4,17.4-5,26.4-5.2C381.9,136.7,399.9,141.5,414.7,151.2z"/>
			<path class="st36" d="M441.2,205.8c-2.9-3.6-5.3-7.6-7.4-11.7c-2.1-4.1-3.8-8.5-5.2-13c-2.6-9-5.4-27.7-5.4-27.7
				s14.2,3.8,19.9,14.5c5.7,10.7,5.3,22.8,5.3,22.8s-3.1-10.8-7.8-18.1c-4.7-7.3-9.4-8.5-11.3-10.6c0,0,1.8,11.2,3.5,19.8
				C434.5,190.4,437.8,197.2,441.2,205.8z"/>
			<radialGradient id="SVGID_3_" cx="317.0907" cy="271.1805" r="13.9872" gradientUnits="userSpaceOnUse">
				<stop  offset="0" style="stop-color:#EFB698"/>
				<stop  offset="1" style="stop-color:#F3D9A6"/>
			</radialGradient>
			<path class="st37" d="M331.1,271.2c0,7.7-6.3,14-14,14c-7.7,0-14-6.3-14-14c0-7.7,6.3-14,14-14
				C324.8,257.2,331.1,263.5,331.1,271.2z"/>
			<radialGradient id="SVGID_4_" cx="406.4796" cy="271.1805" r="13.9872" gradientUnits="userSpaceOnUse">
				<stop  offset="0" style="stop-color:#EFB698"/>
				<stop  offset="1" style="stop-color:#F3D9A6"/>
			</radialGradient>
			<path class="st38" d="M420.5,271.2c0,7.7-6.3,14-14,14c-7.7,0-14-6.3-14-14c0-7.7,6.3-14,14-14
				C414.2,257.2,420.5,263.5,420.5,271.2z"/>
			<g>
				<path class="st39" d="M345,244.5c0,8.2-6.7,14.9-15,14.9c-8.3,0-15-6.7-15-14.9c0-8.2,6.7-14.9,15-14.9
					C338.2,229.6,345,236.3,345,244.5z"/>
				<path class="st40" d="M341.1,244.5c0,5.7-4.7,10.4-10.4,10.4c-5.7,0-10.4-4.7-10.4-10.4c0-5.7,4.6-10.4,10.4-10.4
					C336.5,234.1,341.1,238.8,341.1,244.5z"/>
				<path class="st8" d="M326.4,239.1c0,1.7-1.3,3-3,3c-1.7,0-3-1.4-3-3s1.3-3,3-3C325,236.1,326.4,237.4,326.4,239.1z"/>
				<path class="st39" d="M385.3,244.5c0,8.2,6.7,14.9,15,14.9c8.3,0,15-6.7,15-14.9c0-8.2-6.7-14.9-15-14.9
					C392,229.6,385.3,236.3,385.3,244.5z"/>
				<path class="st40" d="M389.2,244.5c0,5.7,4.7,10.4,10.4,10.4c5.7,0,10.4-4.7,10.4-10.4c0-5.7-4.6-10.4-10.4-10.4
					C393.8,234.1,389.2,238.8,389.2,244.5z"/>
				<path class="st8" d="M389.8,239.1c0,1.7,1.3,3,3,3c1.7,0,3-1.4,3-3s-1.3-3-3-3C391.1,236.1,389.8,237.4,389.8,239.1z"/>
			</g>
			<circle class="st39" cx="365" cy="354.9" r="5.6"/>
			<circle class="st41" cx="367" cy="353.6" r="1.4"/>
			<circle class="st39" cx="354.7" cy="354.1" r="4.7"/>
			<circle class="st41" cx="356.4" cy="353" r="1.2"/>
			<circle class="st39" cx="346.2" cy="351.3" r="4.3"/>
			<circle class="st41" cx="347.8" cy="350.3" r="1.1"/>
			<circle class="st39" cx="340.2" cy="345.9" r="3.7"/>
			<circle class="st41" cx="341.5" cy="345.1" r="1"/>
			<circle class="st39" cx="375.1" cy="353" r="4.7"/>
			<circle class="st41" cx="375.8" cy="350.9" r="1.2"/>
			<circle class="st39" cx="383.6" cy="350.2" r="4.3"/>
			<circle class="st41" cx="383.5" cy="348" r="1.1"/>
			<circle class="st39" cx="389.6" cy="344.9" r="3.7"/>
			<circle class="st41" cx="389.2" cy="343.1" r="1"/>
		</g>
		<polygon class="st33" points="381.4,414.2 391.6,394.8 335.6,394.8 349.8,414.2 		"/>
		<g>
			<path class="st42" d="M361.9,414.2c-7.7-15.3-24-49.3-25.9-64.8c-6.4,5.8-11.3,7.9-21.1,11.1c-4.9,1.6-16.5,4.3-25.5,8
				c-5.9,2.5-19.4,28.2-28.1,45.7H361.9z"/>
			<path class="st42" d="M471.3,414.2c-13.5-19.6-29.6-42.3-31.1-45c-3.1-5.7-16.6-7.4-21.5-9.2c-9.8-3.7-13.6-4.3-22.6-10.5
				c-5,18.4-19.7,50.1-26.6,64.6H471.3z"/>
		</g>
	</g>
</g>
<g id="Layer_3">
</g>
<g id="Layer_5">
</g>
</svg>
