<?xml version="1.0" encoding="utf-8"?>
<!-- Generator: Adobe Illustrator 26.3.1, SVG Export Plug-In . SVG Version: 6.00 Build 0)  -->
<svg version="1.1" id="_x2014_ÎÓÈ_x5F_1" xmlns="http://www.w3.org/2000/svg" xmlns:xlink="http://www.w3.org/1999/xlink"
	 x="0px" y="0px" viewBox="0 0 1231.8 1240.6" style="enable-background:new 0 0 1231.8 1240.6;" xml:space="preserve">
<style type="text/css">
	.st0{fill:#27A737;}
	.st1{fill:#259631;}
	.st2{clip-path:url(#SVGID_00000004520482036972846480000004245813613088930742_);fill:#004152;}
	.st3{clip-path:url(#SVGID_00000004520482036972846480000004245813613088930742_);fill:#015163;}
	.st4{clip-path:url(#SVGID_00000004520482036972846480000004245813613088930742_);fill:#F99D1C;}
	
		.st5{clip-path:url(#SVGID_00000004520482036972846480000004245813613088930742_);fill:url(#SVGID_00000147209884674059093070000001129772249985579396_);}
	.st6{clip-path:url(#SVGID_00000004520482036972846480000004245813613088930742_);fill:#98D0E8;}
	.st7{clip-path:url(#SVGID_00000004520482036972846480000004245813613088930742_);fill:#9ED5E8;}
	.st8{clip-path:url(#SVGID_00000004520482036972846480000004245813613088930742_);fill:#ABDCED;}
	.st9{clip-path:url(#SVGID_00000004520482036972846480000004245813613088930742_);fill:#FDDFD8;}
	.st10{clip-path:url(#SVGID_00000004520482036972846480000004245813613088930742_);fill:#82B034;}
	.st11{clip-path:url(#SVGID_00000004520482036972846480000004245813613088930742_);fill:#2A1D01;}
	.st12{clip-path:url(#SVGID_00000004520482036972846480000004245813613088930742_);fill:#FFFFFF;}
	.st13{clip-path:url(#SVGID_00000004520482036972846480000004245813613088930742_);fill:#F6A8B9;}
	.st14{clip-path:url(#SVGID_00000004520482036972846480000004245813613088930742_);fill:#E8C6AC;}
	.st15{clip-path:url(#SVGID_00000004520482036972846480000004245813613088930742_);fill:#FCB963;}
	.st16{clip-path:url(#SVGID_00000004520482036972846480000004245813613088930742_);fill:#FFD04F;}
	.st17{clip-path:url(#SVGID_00000004520482036972846480000004245813613088930742_);}
	.st18{fill:#FFDC83;}
	.st19{fill:#004752;}
	.st20{fill:#E1E1E1;}
	.st21{fill:#C8C8C8;}
	.st22{fill:#005C70;}
	.st23{fill:#00667D;}
	.st24{fill:#FFFFFF;}
	.st25{fill:url(#SVGID_00000121971322519180402670000015680677942386880440_);}
	.st26{fill:#F6E5D8;}
</style>
<path class="st0" d="M854.1,74H377.8c-46.4,0-89.4,24.8-107.6,65L32.1,551.5c-28.2,40.2-28.2,89.8,0,130L270.2,1094
	c18.2,40.2,61.1,65,107.6,65h476.3c46.4,0,89.4-24.8,112.6-65l238.2-412.5c23.2-40.2,23.2-89.8,0-130L966.7,139
	C943.5,98.7,900.6,74,854.1,74z"/>
<path class="st1" d="M960.4,1103.1l144-249.5L184.7,291.9L23.6,562.2c-19.9,34.5-19.9,77.1,5,111.7l247.8,429.2
	c14.9,34.5,51.8,55.8,91.7,55.8h495.6C903.6,1159,940.5,1137.7,960.4,1103.1z"/>
<g>
	<defs>
		<path id="SVGID_1_" d="M854.1,74H377.8c-46.4,0-89.4,24.8-107.6,65L32.1,551.5c-28.2,40.2-28.2,89.8,0,130l191.6,524.9
			c8.4,18.6,166,29,203,10c46.5-23.9-9-57,16-57l411.4-0.4c46.4,0,89.4-24.8,112.6-65l238.2-412.5c23.2-40.2,23.2-89.8,0-130
			L966.7,139C943.5,98.7,900.6,74,854.1,74z"/>
	</defs>
	<clipPath id="SVGID_00000183971207150299245770000005896726396845864600_">
		<use xlink:href="#SVGID_1_"  style="overflow:visible;"/>
	</clipPath>
	<path style="clip-path:url(#SVGID_00000183971207150299245770000005896726396845864600_);fill:#004152;" d="M189.7,1053.3
		c0,0,44.1,155.1,86.3,155.1c72.7,0,134.5-169.4,134.5-169.4l-168-16L189.7,1053.3z"/>
	<path style="clip-path:url(#SVGID_00000183971207150299245770000005896726396845864600_);fill:#015163;" d="M285,1186.4
		c-32.9,0-66.9-94.1-80.4-135.7l-15,8.6c0,0,44.1,155.1,86.3,155.1c72.7,0,134.5-169.4,134.5-169.4l-2.4-0.2
		C387,1092.8,339,1186.4,285,1186.4z"/>
	<path style="clip-path:url(#SVGID_00000183971207150299245770000005896726396845864600_);fill:#F99D1C;" d="M398.8,891.3
		c0,0,7.5-32.6,59.6-49.9C510.5,824,566.3,802,566.3,765c0-16.5-2.4-40.2-2.4-58.6c-124.3-29.6-169.4-162.2-169.4-321.6
		c0-180.8,151-217.2,226.1-217.2c0.4,0,0.8,0,1.2,0c0.4,0,0.8,0,1.2,0c75.2,0,162.7,45,162.7,225.7c0,156.9,13.5,246.9-107,279
		c0,18.8-26,76-26,93c0,37.1,81.1,58.7,133.2,76.1c29.6,9.9,43,79,50.6,89.9c24.2-143.2,75.3-529,38.6-642
		C827.6,143.3,745.6,135,745.6,135l-116.7-26.2c0,0-184.7-0.1-245.4,153.7c-51.5,130.4-7.8,531,6.7,649L398.8,891.3z"/>
	
		<linearGradient id="SVGID_00000155865558073544371520000001031135560476413615_" gradientUnits="userSpaceOnUse" x1="368.6764" y1="938.0996" x2="971.2747" y2="938.0996">
		<stop  offset="0" style="stop-color:#FDDFD8"/>
		<stop  offset="1" style="stop-color:#EDCAC7"/>
	</linearGradient>
	
		<path style="clip-path:url(#SVGID_00000183971207150299245770000005896726396845864600_);fill:url(#SVGID_00000155865558073544371520000001031135560476413615_);" d="
		M833.8,883.9c0,0-6.6-32.1-58.4-49.3c-51.8-17.3-98.4-34.8-98.4-71.7c0-36.8,0-97,0-97h-60.1h-60.1c0,0,0,60.2,0,97
		c0,36.9-46.5,54.4-98.4,71.7c-51.9,17.3-58.4,49.3-58.4,49.3l-31.3,75.4l71,72l18.1-15.6L491,1210l125.9,0.4l125.9-0.4l42.9-216.6
		l95.7,216.6h89.9L833.8,883.9z"/>
	<path style="clip-path:url(#SVGID_00000183971207150299245770000005896726396845864600_);fill:#98D0E8;" d="M435.7,1043.4l-0.1,0.1
		l12.5,164.9h333.8l12.5-164.9l81.7,164.9h107.1l-140-355.9c0,0-2.8-6.3-20-14.2c-23.7-10.8-23.9-10.3-109.8-40.6
		c0,0-39.2,47.5-98.4,47.5c-59.2,0-98.4-47.5-98.4-47.5c-85.8,30.3-86.1,29.7-109.8,40.6c-17.2,7.9-20,14.2-20,14.2l-25.1,64.9
		L435.7,1043.4z"/>
	<path style="clip-path:url(#SVGID_00000183971207150299245770000005896726396845864600_);fill:#004152;" d="M983.2,1208.3
		l-140-355.9c0,0-1.6-3.6-9.7-8.7c0,0-37.1,25.5-39,199.7l81.7,164.9H983.2z"/>
	<path style="clip-path:url(#SVGID_00000183971207150299245770000005896726396845864600_);fill:#015163;" d="M833.5,843.7
		c0,0-5.5,3.8-12.4,18.5l142.2,346.1h20l-140-355.9C843.2,852.5,841.6,848.9,833.5,843.7z"/>
	<path style="clip-path:url(#SVGID_00000183971207150299245770000005896726396845864600_);fill:#9ED5E8;" d="M833.5,843.7
		c-2.7-1.7-6-3.5-10.3-5.5c-23.7-10.8-23.9-10.3-109.8-40.6c0,0-6.6,8-18.5,17.5l125.9,47C826.7,849,833.5,843.7,833.5,843.7z"/>
	<path style="clip-path:url(#SVGID_00000183971207150299245770000005896726396845864600_);fill:#9ED5E8;" d="M396.7,843.7
		c2.7-1.7,6-3.5,10.3-5.5c23.7-10.8,23.9-10.3,109.8-40.6c0,0,6.6,8,18.5,17.5l-125.9,47C403.4,849,396.7,843.7,396.7,843.7z"/>
	<path style="clip-path:url(#SVGID_00000183971207150299245770000005896726396845864600_);fill:#ABDCED;" d="M684.6,904.4
		c-33.4-21.1-95-35-134.2-5.9c-39.1,29.2-20,108.9,35.8,168.4c39,41.7-5.9,83.5-59.2,66.4c-46.7-14.9-70.1,20.7-33.6,76.5h211.8
		c-0.2-6.5-1.3-13.3-3.9-20.3c-14.2-38.4-69.1-138.6-69.1-138.6s104.1,26.3,122.7,0C773.5,1024.6,744.4,942.2,684.6,904.4z"/>
	<path style="clip-path:url(#SVGID_00000183971207150299245770000005896726396845864600_);fill:#FDDFD8;" d="M843.4,387.3
		c0,179.8-63.8,326.5-227.7,326.5c-163.9,0-224.5-148.5-224.5-328.3c0-179.8,152.5-198.4,227.3-198.4S843.4,207.5,843.4,387.3z"/>
	<path style="clip-path:url(#SVGID_00000183971207150299245770000005896726396845864600_);fill:#82B034;" d="M564.3,502.4
		c0,24.7-20.3,44.7-45.2,44.7c-25,0-45.2-20-45.2-44.7c0-24.7,20.2-44.7,45.2-44.7C544.1,457.7,564.3,477.7,564.3,502.4z"/>
	<path style="clip-path:url(#SVGID_00000183971207150299245770000005896726396845864600_);fill:#2A1D01;" d="M552.7,502.4
		c0,17.2-14,31.2-31.2,31.2c-17.2,0-31.2-14-31.2-31.2c0-17.2,14-31.2,31.2-31.2C538.7,471.2,552.7,485.2,552.7,502.4z"/>
	<path style="clip-path:url(#SVGID_00000183971207150299245770000005896726396845864600_);fill:#FFFFFF;" d="M508.3,486.2
		c0,5-4.1,9-9,9c-5,0-9-4.1-9-9c0-5,4.1-9,9-9C504.3,477.2,508.3,481.2,508.3,486.2z"/>
	<path style="clip-path:url(#SVGID_00000183971207150299245770000005896726396845864600_);fill:#F6A8B9;" d="M517.7,601.4
		c30.9,18.8,64,30.3,97.6,29.9c33.8,0,66.1-13.1,98.3-29.9c-11.8,13.9-26.6,25.5-43.3,33.8c-16.7,8.5-35.7,13.1-54.8,13.4
		c-19.1,0-38.2-4.2-55-12.5C543.7,627.8,528.5,616.2,517.7,601.4z"/>
	<path style="clip-path:url(#SVGID_00000183971207150299245770000005896726396845864600_);fill:#82B034;" d="M674.9,502.4
		c0,24.7,20.3,44.7,45.2,44.7c25,0,45.2-20,45.2-44.7c0-24.7-20.2-44.7-45.2-44.7C695.2,457.7,674.9,477.7,674.9,502.4z"/>
	<path style="clip-path:url(#SVGID_00000183971207150299245770000005896726396845864600_);fill:#2A1D01;" d="M686.5,502.4
		c0,17.2,14,31.2,31.2,31.2c17.2,0,31.2-14,31.2-31.2c0-17.2-14-31.2-31.2-31.2C700.5,471.2,686.5,485.2,686.5,502.4z"/>
	<path style="clip-path:url(#SVGID_00000183971207150299245770000005896726396845864600_);fill:#FFFFFF;" d="M688.3,486.2
		c0,5,4.1,9,9,9c5,0,9-4.1,9-9c0-5-4.1-9-9-9C692.4,477.2,688.3,481.2,688.3,486.2z"/>
	
		<circle style="clip-path:url(#SVGID_00000183971207150299245770000005896726396845864600_);fill:#E8C6AC;" cx="632.2" cy="542.1" r="7.6"/>
	
		<circle style="clip-path:url(#SVGID_00000183971207150299245770000005896726396845864600_);fill:#E8C6AC;" cx="586.7" cy="559" r="7.9"/>
	
		<circle style="clip-path:url(#SVGID_00000183971207150299245770000005896726396845864600_);fill:#E8C6AC;" cx="617.2" cy="481" r="7.9"/>
	
		<circle style="clip-path:url(#SVGID_00000183971207150299245770000005896726396845864600_);fill:#E8C6AC;" cx="645.2" cy="503.6" r="7.9"/>
	
		<circle style="clip-path:url(#SVGID_00000183971207150299245770000005896726396845864600_);fill:#E8C6AC;" cx="592.6" cy="502.5" r="5.1"/>
	
		<circle style="clip-path:url(#SVGID_00000183971207150299245770000005896726396845864600_);fill:#E8C6AC;" cx="664.5" cy="574.4" r="5.1"/>
	
		<circle style="clip-path:url(#SVGID_00000183971207150299245770000005896726396845864600_);fill:#E8C6AC;" cx="627.6" cy="581.9" r="7.9"/>
	
		<circle style="clip-path:url(#SVGID_00000183971207150299245770000005896726396845864600_);fill:#E8C6AC;" cx="551.5" cy="564.8" r="5.1"/>
	
		<circle style="clip-path:url(#SVGID_00000183971207150299245770000005896726396845864600_);fill:#E8C6AC;" cx="683.8" cy="561.5" r="5.1"/>
	
		<circle style="clip-path:url(#SVGID_00000183971207150299245770000005896726396845864600_);fill:#E8C6AC;" cx="595.7" cy="528.9" r="3.5"/>
	
		<circle style="clip-path:url(#SVGID_00000183971207150299245770000005896726396845864600_);fill:#E8C6AC;" cx="613.3" cy="511.3" r="3.5"/>
	<path style="clip-path:url(#SVGID_00000183971207150299245770000005896726396845864600_);fill:#F99D1C;" d="M574.2,794.5"/>
	<path style="clip-path:url(#SVGID_00000183971207150299245770000005896726396845864600_);fill:#FCB963;" d="M407.6,798.6
		c0,0-27.7-316-31.8-371.1c-4.4-59.8-32.9-156.9,58.2-255.2c43.1-46.5,221.1-113.6,345.9-23.9c119.5,85.9,47.2,556.6,6.2,654.7
		l19.8-381.5l-89-189L627.6,217L428.5,298L407.6,798.6z"/>
	<path style="clip-path:url(#SVGID_00000183971207150299245770000005896726396845864600_);fill:#FFD04F;" d="M763.7,264.2
		c-33.5-75.4-91.2-71.4-102.7-71.5c-27.7-0.1-43.9,21.4-44,21.8c-168.8-108.6-214.4,95-214.4,181v101.7
		C511.7,465.9,506.2,237.6,624,242c65.7-39,206.5,251.6,206.5,251.6S797.2,339.6,763.7,264.2z"/>
	<g style="clip-path:url(#SVGID_00000183971207150299245770000005896726396845864600_);">
		<path class="st18" d="M435.6,462c10.5-8.5,17.3-20.8,24.1-32.3c26.1-47.5,45-98.4,70.1-146.4c8.5-15.6,16.8-32,30-44.2
			c11.9-11.2,28.5-19.3,45.1-15c6.9,1.7,13.1,4.9,18.4,9.8c0,0-2.1,0.2-2.1,0.2c9.2-11.2,24.5-14.1,37.8-10.9
			c47,11.8,103.3,128.1,127,171c-10.6-18.5-20.8-37.2-31.6-55.6c-16.2-27.5-32.9-54.9-53.3-79.4c-6.8-8.1-14.1-15.9-22.3-22.5
			c-6.1-4.8-12.8-9.2-20.5-11c-2.3-0.5-5.4-0.9-7.7-1c-10.6-0.7-21.9,3.5-28.3,12.3c-11-10.9-28-14-42.3-8
			c-23.8,10-36.6,34-48.2,55.6c-25.2,47.9-44.7,98.6-71.6,145.7C453.4,441.6,446.4,453.7,435.6,462L435.6,462z"/>
	</g>
</g>
<g>
	<path class="st19" d="M117.1,716.9l5.4-1.4l158.9-42.1l42.4-11.2c24-6.4,48.7,8,55,32l86.9,342.6c7.1,27-8.9,54.7-35.9,61.9
		l-12.7,3.4v0l-171.2,45.4c-33.7,8.9-68.2-11.2-77.1-44.9L114.2,896l-7.9-29.9L85.1,772C78.7,747.9,93.1,723.3,117.1,716.9"/>
</g>
<polygon class="st20" points="194.9,1079.8 455.5,1010.7 365.2,655.2 104.6,724.3 "/>
<polygon class="st21" points="365,654.5 402,794.4 255.8,683.4 "/>
<g>
	<path class="st22" d="M144.7,836.5L122,736.5c-0.8-3,1-6,4-6.8l152.3-40.4l75.4-20c3.6-0.7,5.4,1.1,6.2,3.1l78.5,311.1
		c0.8,3-1,6-4,6.8l-227.5,60.3c-3,0.8-6-1-6.8-4L144.7,836.5z M343.1,1083.4c-11.1,2.9-22.5-3.7-25.4-14.8
		c-2.9-11.1,3.7-22.5,14.8-25.4c11.1-2.9,22.5,3.7,25.4,14.8C360.9,1069.1,354.2,1080.4,343.1,1083.4 M128.5,697.5
		c-24,6.4-38.4,31-32,55.1l29.1,124v0l57.8,218.6c7.1,27,34.8,43.1,61.8,36l196-51.9c27-7.2,43.1-34.9,35.9-61.9l-51.2-207.9
		l-35.6-134.7c-6.4-24-31-38.4-55-32l-42.4,11.2l-158.9,42.1L128.5,697.5"/>
</g>
<polygon class="st21" points="151.2,887.2 148.2,869.8 369.3,1037.6 334.8,1029.8 213.8,1074.6 183.1,1048.9 "/>
<g>
	<path class="st23" d="M317.7,1068.6c-2.9-11.1,3.7-22.5,14.8-25.4c11.1-2.9,22.5,3.7,25.4,14.8c2.9,11.1-3.7,22.5-14.8,25.4
		C332,1086.3,320.7,1079.7,317.7,1068.6 M340.1,1015.4l-133,35.2c-3,0.8-6-1-6.8-4l-45.4-171.8l-37.2-28.2l7.9,29.9v0l57.8,218.6
		c7.1,27,34.8,43.1,61.8,36l183.3-48.6L340.1,1015.4z"/>
</g>
<rect x="173.6" y="822.4" transform="matrix(0.9702 -0.2422 0.2422 0.9702 -194.2828 76.5082)" class="st19" width="80.9" height="12.1"/>
<rect x="180.6" y="834.8" transform="matrix(0.9702 -0.2422 0.2422 0.9702 -196.9954 92.1822)" class="st24" width="191.7" height="24.9"/>
<rect x="196" y="900.4" transform="matrix(0.9702 -0.2422 0.2422 0.9702 -212.8978 81.1972)" class="st19" width="55.6" height="12.1"/>
<rect x="204.1" y="922.4" transform="matrix(0.9702 -0.2422 0.2422 0.9702 -219.064 87.8863)" class="st24" width="87.6" height="24.9"/>
<rect x="291" y="876.4" transform="matrix(0.9702 -0.2422 0.2422 0.9702 -204.256 103.4926)" class="st19" width="55.6" height="12.1"/>
<rect x="299.1" y="898.4" transform="matrix(0.9702 -0.2422 0.2422 0.9702 -210.4222 110.1818)" class="st24" width="87.6" height="24.9"/>
<rect x="154.6" y="746.4" transform="matrix(0.9702 -0.2422 0.2422 0.9702 -176.4404 69.6431)" class="st19" width="80.9" height="12.1"/>
<rect x="161.6" y="758.8" transform="matrix(0.9702 -0.2422 0.2422 0.9702 -179.153 85.3171)" class="st24" width="191.7" height="24.9"/>
<rect x="217.1" y="964" transform="matrix(0.9702 -0.2422 0.2422 0.9702 -229.76 96.7576)" class="st0" width="123" height="37.8"/>
<g>
	
		<linearGradient id="SVGID_00000149347078986123487540000003039241345907648694_" gradientUnits="userSpaceOnUse" x1="89.8722" y1="931.0837" x2="187.1184" y2="931.0837" gradientTransform="matrix(0.9989 4.751780e-02 -4.751780e-02 0.9989 25.7698 -8.7676)">
		<stop  offset="0" style="stop-color:#F6E5D8"/>
		<stop  offset="1" style="stop-color:#ECD9CE"/>
	</linearGradient>
	<path style="fill:url(#SVGID_00000149347078986123487540000003039241345907648694_);" d="M116.6,854.1c-26.2,3-50.7,21-43.8,92.1
		c0.6,6.3,2.9,19.4,6.1,34.9c13.9,28.2,53.7,23.2,73.8,11.9c20.1-11.3,13.4-31.2,10.9-63.8C161,896.7,159.3,849.1,116.6,854.1z"/>
	<path class="st26" d="M107.8,978.2c-6.9-23.7-6.9-91.6-5.9-104.7c1-13.1,14.7-19.4,14.7-19.4c-26.2,3-50.7,21-43.8,92.1
		c0.6,6.3,2.9,19.4,6.1,34.9c10.4,21,35.2,23.6,55.4,18.8C128.4,999.7,113.3,997.1,107.8,978.2z"/>
</g>
</svg>
