<?xml version="1.0" encoding="utf-8"?>
<!-- Generator: Adobe Illustrator 24.3.0, SVG Export Plug-In . SVG Version: 6.00 Build 0)  -->
<svg version="1.1" xmlns="http://www.w3.org/2000/svg" xmlns:xlink="http://www.w3.org/1999/xlink" x="0px" y="0px"
	 viewBox="0 0 450 500" style="enable-background:new 0 0 450 500;" xml:space="preserve">
<style type="text/css">
	.st0{fill:url(#SVGID_1_);}
	.st1{fill:#542F82;}
	.st2{fill:#FEDEC8;}
	.st3{fill:#C42C76;}
	.st4{fill:#EDC866;}
	.st5{fill:#C6A956;}
	.st6{fill:#EFE08A;}
	.st7{fill:#FFFFFF;}
	.st8{fill:#77CCF2;}
	.st9{fill:#2A1D01;}
	.st10{display:none;}
	.st11{display:inline;fill:none;stroke:#231F20;stroke-width:0.5;stroke-miterlimit:10;}
</style>
<g id="Layer_5">
	<linearGradient id="SVGID_1_" gradientUnits="userSpaceOnUse" x1="223.4041" y1="500" x2="223.4041" y2="270.8435">
		<stop  offset="0" style="stop-color:#FEDEC8"/>
		<stop  offset="1" style="stop-color:#EACDBA"/>
	</linearGradient>
	<path class="st0" d="M366.5,500l-58.8-136.4c0,0-3.1-13.6-25-20.9c-21.8-7.3-34.2-15.5-34.2-31c0-15.5,0-40.9,0-40.9h-25.1h-25.1
		c0,0,0,25.3,0,40.9c0,15.5-12.4,23.7-34.2,31c-21.8,7.3-25,20.9-25,20.9L80.3,500h35.4l44.9-86l4.3,86h58.5h58.5l4.3-86l44.9,86
		H366.5z"/>
</g>
<g id="Layer_2">
	<path class="st1" d="M286.5,500c3.1-26.8,7-62.3,7-62.3l13.3,22.2c0,0,27.4-26.2,37.8-21.4l-40-91c-0.5-1.1-1.4-1.9-2.5-2.4
		l-22-6.8c0,0-15.2,41.4-56.7,41.4s-56.2-41.4-56.2-41.4l-22.5,6.8c-1.1,0.4-2,1.3-2.5,2.4l-40,91c10.4-4.9,37.8,21.4,37.8,21.4
		l13.3-22.2c0,0,3.8,35.5,6.9,62.3"/>
</g>
<g id="Layer_4">
</g>
<g id="Layer_1">
	<path class="st2" d="M318.2,153.2c0,75.7-26.9,137.5-95.9,137.5c-69,0-94.6-62.6-94.6-138.3c0-75.7,64.2-91,95.7-91
		S318.2,77.5,318.2,153.2z"/>
	<path class="st3" d="M181.1,243.3c13,7.9,27,12.8,41.1,12.6c14.2,0,27.8-5.5,41.4-12.6c-5,5.9-11.2,10.7-18.3,14.2
		c-7,3.6-15,5.5-23.1,5.6c-8,0-16.1-1.8-23.2-5.3C192,254.5,185.6,249.6,181.1,243.3z"/>
	<path class="st4" d="M132.2,200.6c0,0,12.3-73.7,49.4-85c44-13.3,81.5-2.5,93.4,2.5c18.8,7.9,39,80.5,39,80.5s9.9-61.3,4-80
		c-5.9-18.8-20.8-37.1-20.8-37.1s-4.9-20.8-23.7-25.7s-31.6-15.3-31.6-15.3v4.9l-32.6-5.9l2,5.9l-39.5,3.5l4.9,5.9L150,62.8l5.9,3
		l-26.7,15.8h10.9l-12.7,24.1l-3.1,4.1l5.9,2l-8.9,24.7h7.9l-5.7,24.8l-0.2,0.9l4.9-1L132.2,200.6z"/>
	<path class="st5" d="M276.5,118.6l17.8-29.6l-19.8,22.7c0,0-71.1-17.8-98.8,6.9C175.7,118.6,217.7,96.4,276.5,118.6z"/>
	<path class="st5" d="M272.5,115.6c0,0,17.8,11.4,31.1,48.9c0,0-6.9-33.6-29.1-52.9L272.5,115.6z"/>
	<path class="st5" d="M251.3,109.7l-28.2-12.8l1.5,4.4l-25.7-6.4l7.9,7.9l-17.8-2l4,2.5l-21.2,3.5l10.9,1.5c0,0-15.8,3-20.3,8.4
		c-4.4,5.4-18.8,42.5-18.8,42.5s22.2-40,33.1-43S251.3,109.7,251.3,109.7z"/>
	<polygon class="st6" points="275.5,71.7 262.2,62.8 270.1,70.7 259.9,68.7 254.8,67.7 255.2,72.6 262.7,74.1 243.4,75.6 
		255.7,79.1 251.3,86 266.1,86 	"/>
	<path class="st6" d="M296.7,102.8c-1,1.5-6.9,7.9-4.9,15.8c2,7.9,7.9,21.2,7.9,21.2l-2-19.8l4.9,3.5L296.7,102.8z"/>
	<path class="st6" d="M264.1,98.8c-13.8-0.5-39-10.9-39-10.9l21.2,4.4l-2-4.9l12.4,1.5c0,0-17.8-8.9-15.8-8.4
		c2,0.5,21.7,3.5,21.7,3.5L264.1,98.8z"/>
	<path class="st6" d="M155,114.1c-3,9.9-12.4,40.5-12.4,40.5l3.5-18.3c0,0-1.5-1.5-1.5-3.5S155,114.1,155,114.1z"/>
	<g>
		<path class="st3" d="M270.7,463.6c0-26.1-21.2-47.3-47.3-47.3c-26.1,0-47.3,21.2-47.3,47.3c0,14.6,6.6,27.7,17,36.4h23.4h8.7h28.5
			C264.1,491.3,270.7,478.3,270.7,463.6z"/>
		<path class="st7" d="M242.5,458.6c-3.2-7.8-5.7-15.3-1.4-15.7c0,0-5.7-8.9-16.7-1.4c-11,7.5-13.9,43.8-28.1,42
			c0,0,19.9,3,33.1-0.7C242.3,479.2,245.8,466.5,242.5,458.6z M230.4,449.4c-2,0-3.6-1.6-3.6-3.6c0-2,1.6-3.6,3.6-3.6
			c2,0,3.6,1.6,3.6,3.6C234,447.8,232.4,449.4,230.4,449.4z"/>
	</g>
	<path class="st8" d="M200.8,203.2c0,10.3-8.5,18.7-18.9,18.7c-10.5,0-18.9-8.4-18.9-18.7c0-10.3,8.5-18.7,18.9-18.7
		C192.4,184.5,200.8,192.9,200.8,203.2z"/>
	<path class="st9" d="M196,203.2c0,7.2-5.9,13.1-13.1,13.1c-7.2,0-13.1-5.9-13.1-13.1c0-7.2,5.9-13.1,13.1-13.1
		C190.1,190.2,196,196,196,203.2z"/>
	<path class="st7" d="M177.4,196.5c0,2.1-1.7,3.8-3.8,3.8c-2.1,0-3.8-1.7-3.8-3.8c0-2.1,1.7-3.8,3.8-3.8
		C175.7,192.7,177.4,194.4,177.4,196.5z"/>
	<path class="st8" d="M247.2,203.2c0,10.3,8.5,18.7,18.9,18.7c10.5,0,18.9-8.4,18.9-18.7c0-10.3-8.5-18.7-18.9-18.7
		C255.7,184.5,247.2,192.9,247.2,203.2z"/>
	<path class="st9" d="M252,203.2c0,7.2,5.9,13.1,13.1,13.1c7.2,0,13.1-5.9,13.1-13.1c0-7.2-5.9-13.1-13.1-13.1
		C257.9,190.2,252,196,252,203.2z"/>
	<path class="st7" d="M252.8,196.5c0,2.1,1.7,3.8,3.8,3.8c2.1,0,3.8-1.7,3.8-3.8c0-2.1-1.7-3.8-3.8-3.8
		C254.5,192.7,252.8,194.4,252.8,196.5z"/>
</g>
<g id="Layer_3">
</g>
<g id="BEELD">
</g>
<g id="Layer_7" class="st10">
	<line class="st11" x1="845.9" y1="572.2" x2="845.9" y2="1602.8"/>
</g>
</svg>
