<?xml version="1.0" encoding="utf-8"?>
<!-- Generator: Adobe Illustrator 24.3.0, SVG Export Plug-In . SVG Version: 6.00 Build 0)  -->
<svg version="1.1" xmlns="http://www.w3.org/2000/svg" xmlns:xlink="http://www.w3.org/1999/xlink" x="0px" y="0px"
	 viewBox="0 0 500 500" style="enable-background:new 0 0 500 500;" xml:space="preserve">
<style type="text/css">
	.st0{fill:#8A6111;}
	.st1{fill:#DBBA9C;}
	.st2{fill:#E9CBAC;}
	.st3{fill:#8C7163;}
	.st4{fill:#2A1D01;}
	.st5{fill:#FFFFFF;}
	.st6{fill:#E6E7E8;}
	.st7{fill:#877A45;}
	.st8{fill:#65682F;}
	.st9{fill:#9E7525;}
	.st10{fill:#6D3926;}
	.st11{fill:#EFEFF0;}
	.st12{display:none;}
	.st13{display:inline;fill:none;stroke:#231F20;stroke-width:0.5;stroke-miterlimit:10;}
</style>
<g id="Layer_5">
</g>
<g id="Layer_2">
</g>
<g id="Layer_4">
</g>
<g id="Layer_1">
	<g>
		<path class="st0" d="M213.4,355c0,0-5.7-29.6-1.8-32.4c3.9-2.8,52.4-10,73.5-1.7l2.5,34l-64.8,29.3L213.4,355z"/>
		<path class="st1" d="M352.7,376.6c0,0-3.5-15.3-28-23.4c-24.5-8.2-46.6-17.4-46.6-34.8c0-17.4,0-45.8,0-45.8h-29.7h-0.1h-29.7
			c0,0,0,28.4,0,45.8c0,17.4-22,25.7-46.4,33.8c-24.5,8.1-27.6,23.3-27.6,23.3S230.1,401.8,352.7,376.6z"/>
		<path class="st0" d="M116.7,502h3.5l37.2-54c0,0,1.6,25.8,3.5,54h169.8c2.4-31.1,4.7-60.3,4.7-60.3l31.9,60.3h2.6h18.6h22.8
			c-24.1-59.4-56-137.1-60.1-142.6c-6.6-8.9-53.6-19.8-53.6-19.8L282,360.2l-30.5,71.6l-33.1-66.9l-20.4-24c0,0-42.7,9.7-47.2,11.9
			c-2.8,1.4-49.9,87.6-83.2,149.2"/>
		<path class="st2" d="M354.9,152.4c0,84.8-30.1,142.4-107.4,142.4c-77.3,0-105.9-58.5-105.9-143.3c0-84.8,72-93.6,107.3-93.6
			S354.9,67.6,354.9,152.4z"/>
		<path class="st3" d="M223.2,206.8c0,11.6-9.6,21.1-21.3,21.1c-11.8,0-21.3-9.4-21.3-21.1c0-11.6,9.5-21.1,21.3-21.1
			C213.7,185.7,223.2,195.1,223.2,206.8z"/>
		<path class="st4" d="M217.7,206.8c0,8.1-6.6,14.7-14.7,14.7c-8.1,0-14.7-6.6-14.7-14.7c0-8.1,6.6-14.7,14.7-14.7
			C211.1,192,217.7,198.6,217.7,206.8z"/>
		<path class="st5" d="M196.8,199.1c0,2.3-1.9,4.3-4.3,4.3c-2.4,0-4.3-1.9-4.3-4.3c0-2.3,1.9-4.3,4.3-4.3
			C194.9,194.9,196.8,196.8,196.8,199.1z"/>
		<path class="st3" d="M275.4,206.8c0,11.6,9.6,21.1,21.3,21.1c11.8,0,21.3-9.4,21.3-21.1c0-11.6-9.5-21.1-21.3-21.1
			C285,185.7,275.4,195.1,275.4,206.8z"/>
		<path class="st4" d="M280.9,206.8c0,8.1,6.6,14.7,14.7,14.7c8.1,0,14.7-6.6,14.7-14.7c0-8.1-6.6-14.7-14.7-14.7
			C287.5,192,280.9,198.6,280.9,206.8z"/>
		<path class="st5" d="M281.7,199.1c0,2.3,1.9,4.3,4.3,4.3c2.4,0,4.3-1.9,4.3-4.3c0-2.3-1.9-4.3-4.3-4.3
			C283.6,194.9,281.7,196.8,281.7,199.1z"/>
		<path class="st5" d="M285,258.3c-1.4-2.1-9.6-17.3-19-22.1c-8.5-4.4-18.1,1.4-18.1,1.4h-0.1c0,0-9.7-5.8-18.1-1.4
			c-9.3,4.9-17.6,20-19,22.1c-2.4,3.7-5.3,4.8-5.3,4.8s2.7,0.6,6.8,0.1c5.3-0.6,28.5-6.4,35.6-6.4s30.4,5.9,35.6,6.4
			c4.1,0.4,6.8-0.1,6.8-0.1S287.4,262,285,258.3z"/>
		<path class="st6" d="M282.2,252.8c-1-1.8-2.1-3.5-3.2-5.3c-2.3-3.4-4.8-6.7-8-9.6c-0.8-0.7-1.6-1.4-2.5-2
			c-0.5-0.3-0.9-0.6-1.4-0.9l-0.4-0.2l-0.1-0.1l-0.1-0.1l-0.2-0.1c-0.2-0.1-0.4-0.2-0.7-0.3c-1.1-0.5-2.2-0.8-3.3-1
			c-1.1-0.2-2.2-0.3-3.4-0.2c-2.2,0.1-4.4,0.6-6.4,1.3c-1,0.4-2,0.8-3,1.3c-0.6,0.3-1.3,0.7-1.9,1c-0.6-0.4-1.2-0.7-1.9-1.1
			c-1-0.5-1.9-0.9-3-1.3c-2-0.7-4.2-1.3-6.4-1.3c-2.2-0.1-4.5,0.3-6.6,1.3c-1.1,0.5-1.9,1-2.9,1.6c-0.9,0.6-1.7,1.3-2.5,2
			c-3.1,2.8-5.7,6.1-7.9,9.5c-1.1,1.7-2.2,3.5-3.2,5.3c-1,1.8-1.9,3.6-2.8,5.4c2.4-3.3,4.7-6.6,7.3-9.7c1.3-1.6,2.6-3.1,4-4.5
			c1.4-1.4,2.8-2.8,4.3-4c0.8-0.6,1.6-1.2,2.4-1.7c0.8-0.5,1.7-1,2.5-1.3c1.7-0.7,3.5-0.9,5.3-0.8c1.8,0.1,3.7,0.5,5.4,1.2
			c0.9,0.3,1.8,0.7,2.6,1.2c0.8,0.4,1.7,0.9,2.4,1.4l1,0.7l1-0.7c0.7-0.5,1.6-1,2.4-1.4c0.9-0.4,1.7-0.8,2.6-1.2
			c1.8-0.7,3.6-1.1,5.5-1.2c0.9-0.1,1.8,0,2.7,0.1c0.9,0.1,1.8,0.4,2.6,0.7c0.2,0.1,0.5,0.2,0.7,0.3l0.2,0.1c0,0,0.1,0,0,0l0.1,0
			l0.3,0.2c0.4,0.2,0.8,0.5,1.2,0.7c0.8,0.5,1.6,1.1,2.4,1.7c1.5,1.2,3,2.6,4.4,4c1.4,1.4,2.7,3,4,4.5c2.6,3.1,4.9,6.4,7.3,9.8
			C284.1,256.5,283.2,254.6,282.2,252.8z"/>
		<g>
			<path class="st7" d="M114.6,501.9L89,462.5c-2.6,4.7-5.1,9.4-7.7,14.1l16.4,25.3"/>
			<path class="st7" d="M127,492.1l9.7-14l-30.5-47c-2.8,5.2-5.7,10.4-8.6,15.7L127,492.1z"/>
			<path class="st7" d="M78.8,502l-6.1-9.6c-1.8,3.3-3.5,6.5-5.2,9.6"/>
			<path class="st7" d="M410.6,502l-103.9-160c-5.4-1.4-9.1-2.3-9.1-2.3l-4.6,7.1L393.8,502"/>
			<path class="st7" d="M283.6,361.2l-5.9,9.1l-2.7,6.4l58.5,90.1c1.2-14.9,2-25.2,2-25.2"/>
			<path class="st7" d="M262.2,502l-99.2-152.8c-6,1.5-10.8,2.9-12.2,3.5c-0.2,0.1-0.7,0.7-1.3,1.6L245.3,502"/>
			<path class="st7" d="M123,400.5c-2.6,4.7-5.4,9.7-8.2,14.8l31.6,48.6l9.2-13.3L123,400.5z"/>
			<path class="st7" d="M330.7,502c0.2-3.1,0.5-6.2,0.7-9.2l-63.9-98.4l-7.4,17.5l58.5,90"/>
			<path class="st7" d="M299.7,501.9l-47.1-72.6l-1.1,2.5l-8.8-17.6l-47.2-72.7c-3.3,0.8-9.5,2.2-16.3,3.8l101.8,156.7"/>
			<path class="st7" d="M330,348.8l50.2,77.3c-14.5-35-26.6-63.5-29-66.7C348.5,355.9,339.7,352.2,330,348.8z"/>
			<path class="st7" d="M226.5,502l-86.1-132.5c-2.6,4.5-5.5,9.7-8.8,15.5L207.7,502"/>
			<path class="st7" d="M188.8,501.9l-31-47.8c0.4,6.5,1.1,17.5,1.9,30.4l11.3,17.4"/>
		</g>
		<path class="st8" d="M195.4,341.5c0,0,28,63.9,56.3,110.3c25.7-44.4,50.9-111.1,50.9-111.1l-16.6-6.9l-28.5,37.6l-21.9-8.9
			L201.3,339L195.4,341.5z"/>
		<g>
			<path class="st8" d="M170.1,502.2l62.5-103.5l1.3-2.2l-7.4-15l-2.4,4l-63.9,105.8c0.2,3.5,0.5,7,0.7,10.6"/>
			<polyline class="st8" points="207.1,501.9 250.6,430 242.3,413.2 188.8,501.8 			"/>
			<path class="st8" d="M98.6,502l97-160.8c-4.2,0.9-12.8,2.9-21.5,5L80,501.7"/>
			<path class="st8" d="M304.1,341.3c-4-1-6.6-1.6-6.6-1.6l-19.9,30.7l-21.3,50.1L304.1,341.3z"/>
			<path class="st8" d="M279.9,501.9L357.7,373c-3.3-7.5-5.7-12.4-6.6-13.6c-0.5-0.7-1.3-1.4-2.3-2.1L261.4,502"/>
			<path class="st8" d="M120.2,502l37.3-54c0,0,0.4,6.2,1,15.8l56.2-92.9l-9.4-14.9L116.9,502"/>
			<path class="st8" d="M314.5,502l18.5-30.2c1.4-17.4,2.4-30,2.4-30l7.4,13.9l29.4-48.7c-2.4-5.7-4.7-11.1-6.8-16.1l-67.1,111.1"/>
			<path class="st8" d="M152,352.3c-0.5,0.2-1,0.4-1.2,0.5c-1.3,0.7-12.2,19.7-26.8,46L152,352.3z"/>
			<path class="st8" d="M351.4,471.9l8.6,16.3l27.2-45c-2.5-6.2-5-12.2-7.5-18.1L351.4,471.9z"/>
			<path class="st8" d="M370,502l24.6-40.8c2.5,6.1,5,12.2,7.4,18.2L388.5,502"/>
		</g>
		<line class="st9" x1="280.8" y1="353" x2="280.7" y2="350.7"/>
		<path class="st5" d="M207.6,341.2c0,0,18.7,17.2,43,17.5c13,0.2,42-18.6,42-18.6l-41.2,86L207.6,341.2z"/>
		<path class="st10" d="M359.9,192.8c-1.6-2.4-4-4-7.1-4.6c-7.3-1.5-20.8,5.3-24.4,7.2c-4.8-12.9-17.7-21.7-33.7-21.7
			c-16.7,0-30,9.6-34.3,23.4c-10.1-5.7-19.1-2-22.9,0.2c-5.2-14.8-21.8-23.6-37.5-23.6c-15.4,0-26.7,8.4-30.8,21.7
			c-3.6-1.9-17-8.7-24.3-7.2c-3.2,0.7-5.6,2.2-7.1,4.6c-2.9,4.5-1.7,10.4-1.6,10.6l3.2-0.7c0,0-1-4.8,1.2-8.1c1.1-1.7,2.7-2.7,5-3.2
			c5.8-1.2,18.4,4.8,22.8,7.2c-0.5,2.6-0.8,5.3-0.8,8.2c0,19.7,12.4,32,32.5,32c19.2,0,39.1-12,39.1-32c0-2.2-0.2-4.3-0.7-6.4
			c2.6-1.7,11.2-6.2,21.1-0.1c-0.4,2.1-0.6,4.2-0.6,6.5c0,18.8,14.7,32,35.8,32s35.8-13.1,35.8-32c0-2.9-0.4-5.6-1.1-8.2
			c4.6-2.5,16.9-8.3,22.7-7.2c2.3,0.5,4,1.5,5,3.2c2.2,3.3,1.2,8.1,1.2,8.1l3.2,0.7C361.6,203.2,362.8,197.3,359.9,192.8z
			 M200,235.5c-18,0-29.1-11-29.1-28.6c0-18.2,11.4-29.9,29.1-29.9c17.2,0,35.8,11.4,35.8,29.9C235.8,224.8,217.6,235.5,200,235.5z
			 M294.7,235.5c-19.1,0-32.5-11.8-32.5-28.6c0-17.3,13.6-29.9,32.5-29.9s32.5,12.6,32.5,29.9C327.1,223.7,313.8,235.5,294.7,235.5z
			"/>
		<path class="st2" d="M146.5,195.6c0,0-10-5.5-14.4,0.6c-4.4,6.1,2.8,25.5,9.4,25.5c6.6,0,8.9-7.2,8.9-7.2L146.5,195.6z"/>
		<path class="st2" d="M350.5,195.6c0,0,10-5.5,14.4,0.6c4.4,6.1-2.8,25.5-9.4,25.5c-6.6,0-8.9-7.2-8.9-7.2L350.5,195.6z"/>
		<path class="st6" d="M193,67.2c0,0,8.9,29.3,5.5,39.3s-33.2,17.7-39.3,36s-16.1,43.7-16.1,43.7s-8-31-2.2-59.8
			C147.7,92.9,169.7,61.2,193,67.2z"/>
		<path class="st6" d="M303.4,67.2c0,0-8.9,29.3-5.5,39.3s33.2,17.7,39.3,36s16.1,43.7,16.1,43.7s8-31,2.2-59.8
			C348.7,92.9,326.7,61.2,303.4,67.2z"/>
		<path class="st5" d="M284.3,99.6c0,0,5,14.4-32.7,21.6c-37.6,7.2-78.6-2.8-96.9,32.7c0,0,4.4-29.9,34.3-48.7s70.8-13.3,70.8-13.3
			s-21.6-11.1-57.6,1.1C202.4,92.9,249.4,67.5,284.3,99.6z"/>
		<path class="st5" d="M294.5,102.8c0,0,0,0.2-0.2,0.8c-0.2,0.5-0.4,1.3-0.9,2.1c-0.4,0.9-1,1.9-1.7,3.1c-0.8,1.1-1.6,2.4-2.8,3.5
			c-1.1,1.3-2.4,2.4-3.8,3.7c-1.5,1.1-3,2.4-4.8,3.4c-0.9,0.5-1.8,1.1-2.7,1.6c-0.9,0.5-1.9,0.9-2.9,1.4c-1.9,1-3.9,1.7-6,2.5
			c-2,0.9-4.1,1.3-6.1,2c-2,0.7-4.1,1-6.1,1.5c-2,0.4-3.9,0.9-5.7,1.1c-1.8,0.3-3.6,0.5-5.2,0.8c-1.6,0.3-3.1,0.3-4.4,0.5
			c-1.3,0.1-2.4,0.2-3.4,0.3c-1.9,0.2-3,0.3-3,0.3s1.1-0.1,2.9-0.3c0.9-0.1,2.1-0.2,3.4-0.4c1.3-0.2,2.8-0.2,4.4-0.6
			c1.6-0.3,3.3-0.6,5.1-0.9c1.8-0.3,3.7-0.8,5.7-1.2c2-0.5,4-0.9,6-1.6c2-0.7,4.1-1.2,6-2.1c2-0.8,4-1.6,5.8-2.6
			c0.9-0.5,1.9-1,2.8-1.4c0.9-0.6,1.7-1.1,2.6-1.6c1.7-1,3.1-2.3,4.6-3.4c1.3-1.3,2.6-2.4,3.6-3.7c1.1-1.2,1.9-2.4,2.6-3.4
			c0.6-1.1,1.2-2.1,1.5-2.9c0.4-0.8,0.6-1.5,0.7-1.9c0.1-0.4,0.2-0.7,0.2-0.7c0.1-0.5,0.5-0.8,1-0.7
			C294.3,101.9,294.6,102.3,294.5,102.8C294.5,102.7,294.5,102.8,294.5,102.8L294.5,102.8z"/>
		<path class="st5" d="M305.1,68.6c0,0-7.9,31.5,1.7,39.9c9.5,8.3,25.7,7.9,35.3,24.5c0,0,0.8-6.2-0.4-15.4c0,0,10,13.3,13.3,32
			c0,0-0.7-62.5-38.6-79.7C312.6,68.1,307.5,68,305.1,68.6z"/>
		<path class="st5" d="M192.4,68.6c0,0,7.9,31.5-1.7,39.9s-25.7,7.9-35.3,24.5c0,0-0.8-6.2,0.4-15.4c0,0-10,13.3-13.3,32
			c0,0,0.7-62.5,38.6-79.7C184.9,68.1,189.9,68,192.4,68.6z"/>
		<path class="st6" d="M193.2,70c0,0,1.7,23.5-16.1,30.2s-24.4,10.5-28.2,24.1c0,0,7.2-13.6,17.4-17.2s20.8-3.9,23.5-11.3
			c0,0-1.9,9.7-20.2,18c0,0,18.8-4.4,21.3-9.1C193.5,99.9,197.4,89.1,193.2,70z"/>
		<path class="st6" d="M306.9,70c0,0-1.7,23.5,16.1,30.2s24.4,10.5,28.2,24.1c0,0-7.2-13.6-17.4-17.2s-20.8-3.9-23.5-11.3
			c0,0,1.9,9.7,20.2,18c0,0-18.8-4.4-21.3-9.1C306.6,99.9,302.7,89.1,306.9,70z"/>
		<polyline class="st8" points="232.9,501.6 225.5,502.1 319.9,345.5 329.4,348.8 332.7,352.9 243,501.9 		"/>
		<g>
			<path class="st6" d="M283.8,99.8c-0.3-0.3-0.8-0.3-1.1,0l-0.1,0.1c-1.6,1.4-3.6,2.7-5.5,3.8c-2,1.1-4.1,2-6.2,2.9
				c-2.1,0.8-4.3,1.6-6.5,2.2c-1.1,0.4-2.2,0.6-3.3,0.9c-1.1,0.3-2.2,0.5-3.4,0.8c-2.2,0.5-4.5,0.9-6.8,1.2
				c-2.3,0.4-4.6,0.5-6.9,0.8c-2.3,0.1-4.6,0.4-6.9,0.5c-2.3,0.1-4.6,0.2-6.9,0.3c-4.6,0.1-9.3,0.1-13.9,0
				c-4.6-0.1-9.3-0.3-13.9-0.2c-4.6,0.1-9.3,0.3-13.9,1.5c-4.5,1.2-8.7,3.4-12.4,6.2c3.8-2.7,8-4.8,12.5-5.8
				c4.5-1.1,9.1-1.2,13.8-1.1c4.6,0.1,9.3,0.3,13.9,0.5c4.6,0.2,9.3,0.2,13.9,0.2c4.6,0,9.3-0.2,13.9-0.6c2.3-0.3,4.6-0.4,6.9-0.8
				c2.3-0.3,4.6-0.7,6.9-1.2c1.1-0.2,2.3-0.5,3.4-0.8c1.1-0.3,2.3-0.5,3.4-0.9c2.3-0.6,4.5-1.4,6.7-2.2c2.2-0.9,4.3-1.8,6.4-2.9
				c1.4-0.8,2.7-1.5,3.9-2.4c-0.2,0.4-0.3,0.7-0.5,1.1c-0.6,1-1.4,2-2.3,2.9c-1.8,1.7-3.9,3.2-6.1,4.4c-4.5,2.4-9.3,4.1-14.3,5.4
				c-5,1.3-10,2.2-15.1,2.9c-2.6,0.3-5.1,0.6-7.7,0.9c-2.6,0.2-5.1,0.5-7.7,0.6l-7.7,0.5c-2.6,0.2-5.2,0.3-7.7,0.6
				c-2.6,0.2-5.2,0.5-7.7,0.8L201,123l-3.8,0.6c-2.6,0.3-5.1,0.9-7.7,1.4c-2.5,0.6-5.1,1.1-7.6,1.8c-2.5,0.7-5,1.5-7.4,2.5
				c-2.4,1-4.8,2.2-6.6,4.1c1.8-1.8,4.3-2.9,6.7-3.8c2.4-0.9,4.9-1.7,7.4-2.3c2.5-0.7,5-1.1,7.6-1.6c2.5-0.4,5.1-0.9,7.6-1.2
				l3.8-0.5l3.9-0.4c2.6-0.3,5.1-0.5,7.7-0.7c2.6-0.2,5.1-0.4,7.7-0.5l7.7-0.4c2.6-0.1,5.2-0.3,7.8-0.5c2.6-0.2,5.2-0.5,7.7-0.8
				c5.1-0.7,10.3-1.6,15.3-2.8c5-1.3,10-2.9,14.7-5.4c2.3-1.3,4.5-2.8,6.5-4.7c1-0.9,1.8-2,2.5-3.2c0.7-1.2,1.3-2.4,1.3-4.1
				C284,100.2,283.9,100,283.8,99.8z"/>
			<path class="st6" d="M243.9,109c2.2-0.2,4.4-0.2,6.5-0.5l3.3-0.3l3.2-0.5c1.1-0.2,2.2-0.3,3.2-0.6c1.1-0.2,2.2-0.4,3.2-0.6
				l3.2-0.8l3.2-0.9c2.1-0.7,4.2-1.4,6.2-2.2c1-0.4,2-0.9,3-1.3c1-0.5,2-1,2.9-1.6l0,0c0.1-0.1,0.2-0.1,0.2-0.2
				c0.2-0.3,0.1-0.8-0.3-1l-1.5-0.9c-0.5-0.3-1.1-0.5-1.6-0.8c-0.5-0.3-1.1-0.5-1.6-0.6c-0.5-0.2-1.1-0.4-1.6-0.5
				c-1.1-0.3-2.2-0.6-3.3-0.8c-1.1-0.2-2.2-0.4-3.4-0.6c-2.3-0.4-4.5-0.6-6.8-0.7c-2.3-0.1-4.5-0.1-6.8,0c2.3,0.1,4.5,0.3,6.8,0.6
				c1.1,0.1,2.2,0.3,3.4,0.5c1.1,0.2,2.2,0.4,3.3,0.6c1.1,0.2,2.2,0.5,3.3,0.8c1.1,0.3,2.2,0.6,3.2,1c0.5,0.2,1,0.4,1.6,0.6
				c0.5,0.2,1,0.4,1.5,0.7c0.5,0.2,1,0.4,1.5,0.7l0.3,0.2c-0.6,0.3-1.2,0.6-1.7,0.9c-1,0.4-1.9,0.9-2.9,1.3c-2,0.8-4,1.5-6.1,2.1
				l-3.1,0.9l-3.1,0.8c-1,0.3-2.1,0.5-3.2,0.7c-1.1,0.2-2.1,0.4-3.2,0.6c-2.1,0.4-4.3,0.7-6.4,1c-2.1,0.3-4.3,0.5-6.4,0.8l-6.5,0.6
				c-2.2,0.1-4.3,0.2-6.5,0.4c2.2,0.1,4.3,0.1,6.5,0.2C239.6,109.1,241.8,109.1,243.9,109z"/>
		</g>
		<g>
			<polygon class="st9" points="242.8,443 233.1,428.2 224.1,443.6 233.7,458.1 			"/>
			<polygon class="st9" points="205.5,385.8 195.9,371.1 186.9,386 196.4,400.7 			"/>
			<polygon class="st9" points="178.7,399.5 169.7,414.3 179.4,429.3 188.3,414.3 			"/>
			<polygon class="st9" points="170.3,444.3 160.7,429.6 151.7,444.5 155.7,450.6 157.5,447.9 157.7,453.9 161.2,459.2 			"/>
			<polygon class="st9" points="225.6,471.9 216,456.9 206.9,471.8 216.4,486.9 			"/>
			<polyline class="st9" points="207.3,502.1 207.5,501.8 197.8,487 188.8,501.9 			"/>
			<polygon class="st9" points="197.8,429 188.8,444 197.4,457.1 206.4,442.1 			"/>
			<polygon class="st9" points="188.2,472.2 179.5,458.9 170.6,473.9 179.3,487.2 			"/>
			<polyline class="st9" points="170.1,501.9 170.4,501.3 161.9,488.1 160.1,491.1 160.9,502 			"/>
			<polyline class="st9" points="243,501.9 244.1,500.1 235,486.2 226.1,501.2 226.6,501.9 			"/>
			<polygon class="st9" points="261.2,471.5 252.2,457.7 243.2,472.6 252.2,486.7 			"/>
			<polygon class="st9" points="279.3,441.4 270.2,427.6 261.3,442.5 270.2,456.6 			"/>
			<polygon class="st9" points="297.5,411.5 288.5,397.7 279.6,412.7 288.5,426.7 			"/>
			<polygon class="st9" points="315.3,381.6 306.2,367.7 297.3,382.7 306.2,396.7 			"/>
			<polygon class="st9" points="332.7,352.9 329.4,348.8 319.9,345.5 314.7,354 323.7,368.1 			"/>
			<polyline class="st9" points="279.4,502 280,501.1 270.6,486.3 261.7,501.1 262.1,501.8 			"/>
			<polygon class="st9" points="298.1,441.6 307.4,456.6 316.4,441.6 307,426.8 			"/>
			<polygon class="st9" points="316.4,411.3 325.7,426.3 334.7,411.3 325.3,396.5 			"/>
			<polygon class="st9" points="351.6,382.5 342.2,367.7 333.3,382.6 342.6,397.5 			"/>
			<polygon class="st9" points="298.4,471.4 288.9,456.4 279.9,471.3 289.4,486.4 			"/>
			<polyline class="st9" points="314.5,502 316.4,498.7 308,485.9 299,500.7 299.7,501.9 			"/>
			<polygon class="st9" points="335.2,441.1 343.7,454.3 352.7,439.3 344.1,426.1 			"/>
			<polygon class="st9" points="370,410.7 361.5,397.6 352.5,412.6 361.1,425.7 			"/>
			<polygon class="st9" points="223.4,413.6 214.9,400.4 205.9,415.4 214.5,428.6 			"/>
			<polygon class="st9" points="186.4,356.4 179,345.1 174,346.4 167.8,356.7 177.3,371.4 			"/>
			<polygon class="st9" points="169.1,385 159.6,370.1 150.4,385.1 160.2,399.9 			"/>
			<polygon class="st9" points="132.5,415.1 142,429.9 151.1,414.9 141.5,400.2 			"/>
			<polygon class="st9" points="114.8,444.2 124.3,459.1 133.4,444.1 123.8,429.4 			"/>
			<polygon class="st9" points="96.6,474.3 106.3,489.2 115.3,474.4 105.7,459.4 			"/>
			<polyline class="st9" points="97.7,501.9 88.4,487.7 79.8,502 			"/>
			<polygon class="st9" points="353.6,468.3 362.9,483.3 371.9,468.3 362.5,453.5 			"/>
			<polygon class="st9" points="382.4,431.5 379.7,425.2 370.8,440.1 380.1,455 387.2,443 			"/>
			<polyline class="st9" points="388.5,501.9 390.8,498 381.4,483.1 372.5,498 375,501.9 			"/>
			<polygon class="st9" points="394.6,461.4 389.6,469.6 399,484.6 401.9,479.1 			"/>
			<polygon class="st9" points="317.1,470.8 325.7,484 333,471.7 333.4,467.1 326.1,455.8 			"/>
		</g>
		<path class="st7" d="M362.9,483.3"/>
		<polygon class="st7" points="372.5,498 369.9,501.8 367.3,502 360,488 362.9,483.3 		"/>
		<polygon class="st7" points="343.7,454.3 353.6,468.3 351.4,471.8 342.7,455.5 		"/>
		<path class="st11" d="M211.4,322.6c0,20.5,39,36.1,39,36.1s34.5-11.8,34.5-37.8l12.5,18.7c0,12.7-36.1,37.4-36.1,37.4l-10.8-18.3
			l-10.4,20.3c0,0-41.1-20.9-41.1-38.6L211.4,322.6z"/>
	</g>
</g>
<g id="Layer_3">
</g>
<g id="BEELD">
</g>
<g id="Layer_7" class="st12">
	<line class="st13" x1="-394.5" y1="572.2" x2="-394.5" y2="1602.8"/>
</g>
</svg>
