<?xml version="1.0" encoding="utf-8"?>
<!-- Generator: Adobe Illustrator 24.3.0, SVG Export Plug-In . SVG Version: 6.00 Build 0)  -->
<svg version="1.1" xmlns="http://www.w3.org/2000/svg" xmlns:xlink="http://www.w3.org/1999/xlink" x="0px" y="0px"
	 viewBox="0 0 500 500" style="enable-background:new 0 0 500 500;" xml:space="preserve">
<style type="text/css">
	.st0{fill:#B34218;}
	.st1{fill:url(#SVGID_1_);}
	.st2{fill:#F4D9A3;}
	.st3{fill:#8F6240;}
	.st4{fill:#2A1D01;}
	.st5{fill:#FFFFFF;}
	.st6{fill:#A8856F;}
	.st7{fill:#A8713F;}
	.st8{fill:#DFE5E8;}
	.st9{fill:#CBD0D4;}
	.st10{fill:#D14E20;}
	.st11{fill:none;stroke:#FFFFFF;stroke-width:4;stroke-miterlimit:10;}
	.st12{fill:none;stroke:#FFFFFF;stroke-width:3;stroke-miterlimit:10;}
	.st13{fill:#B3431F;}
	.st14{fill:#754B1D;}
	.st15{fill:#54340A;}
	.st16{fill:#F05A24;}
	.st17{fill:#F97C55;}
	.st18{fill:#C7C8CA;}
	.st19{display:none;}
	.st20{display:inline;fill:none;stroke:#231F20;stroke-width:0.5;stroke-miterlimit:10;}
</style>
<g id="Layer_5">
</g>
<g id="Layer_2">
</g>
<g id="Layer_4">
</g>
<g id="Layer_1">
	<path class="st0" d="M220.1,372.4c0,0-21.5-5.3-31.6-14.6c-10.1-9.3-14.8-15.3-4.8-21.1c10.1-5.7,44.3-14.4,57.2-14.4
		s50-1,59.4,10.3c9.3,11.3,10,35.1-3.8,38.5C282.9,374.6,220.1,372.4,220.1,372.4z"/>
	<linearGradient id="SVGID_1_" gradientUnits="userSpaceOnUse" x1="245.4978" y1="499.2122" x2="245.4978" y2="280.8114">
		<stop  offset="0" style="stop-color:#F4D9A3"/>
		<stop  offset="0.2132" style="stop-color:#F4D9A3"/>
		<stop  offset="0.4495" style="stop-color:#F3D8A2"/>
		<stop  offset="1" style="stop-color:#DBC494"/>
	</linearGradient>
	<path class="st1" d="M346.9,377.5c0,0-12.1-8.7-35-16.3c-22.9-7.6-38.6-21.4-38.6-37.7c0-16.2,0-42.8,0-42.8h-27.5h-0.7h-27.5
		c0,0,0,26.5,0,42.8c0,16.3-15.8,30-38.6,37.7c-22.9,7.6-35,16.3-35,16.3L76.3,499.2h46.2l44-58.8c0,0,9.6,17.1,17.1,58.8h61.5h0.7
		h61.5c7.5-41.7,17.1-58.8,17.1-58.8l44,58.8h46.2L346.9,377.5z"/>
	<path class="st2" d="M350.4,157.4c0,79.3-35.2,144.2-103.6,144.2c-68.3,0-106.3-65.6-106.3-144.9c0-79.3,39.1-87.3,107.4-87.3
		C316.3,69.4,350.4,78.1,350.4,157.4z"/>
	<path class="st3" d="M219.9,203.7c0,10.9-8.9,19.7-19.9,19.7c-11,0-19.9-8.8-19.9-19.7c0-10.9,8.9-19.7,19.9-19.7
		C210.9,184,219.9,192.8,219.9,203.7z"/>
	<path class="st4" d="M214.7,203.7c0,7.6-6.2,13.8-13.8,13.8c-7.6,0-13.8-6.2-13.8-13.8c0-7.6,6.2-13.8,13.8-13.8
		C208.6,190,214.7,196.1,214.7,203.7z"/>
	<path class="st5" d="M195.2,196.6c0,2.2-1.8,4-4,4c-2.2,0-4-1.8-4-4s1.8-4,4-4C193.4,192.6,195.2,194.4,195.2,196.6z"/>
	<path class="st6" d="M207.2,253.2c12.1,7.3,25.1,11.9,38.2,11.7c13.2,0,25.9-5.1,38.5-11.7c-4.6,5.5-10.4,10-17,13.2
		c-6.6,3.3-14,5.1-21.5,5.2c-7.5,0-15-1.7-21.5-4.9C217.4,263.5,211.4,259,207.2,253.2z"/>
	<path class="st3" d="M273.3,203.7c0,10.9,8.9,19.7,19.9,19.7c11,0,19.9-8.8,19.9-19.7c0-10.9-8.9-19.7-19.9-19.7
		C282.2,184,273.3,192.8,273.3,203.7z"/>
	<path class="st4" d="M278.4,203.7c0,7.6,6.2,13.8,13.8,13.8c7.6,0,13.8-6.2,13.8-13.8c0-7.6-6.2-13.8-13.8-13.8
		C284.6,190,278.4,196.1,278.4,203.7z"/>
	<path class="st5" d="M279.2,196.6c0,2.2,1.8,4,4,4c2.2,0,4-1.8,4-4s-1.8-4-4-4C281,192.6,279.2,194.4,279.2,196.6z"/>
	<path class="st7" d="M206.8,89.5c0,1.5,0.1,2.9,0.3,4.3c0.2,1.4,0.4,2.9,0.7,4.3c0.3,1.4,0.7,2.8,1.3,4.1c0.6,1.3,1.2,2.6,2.1,3.6
		l-0.6,0.1l1.9-5.3l1.9-5.2l0.3-0.9l0.5,0.9l5.2,9.5l-0.9,0l4.2-9.5l0.4-0.8l0.4,0.8c1.3,2.4,2.7,4.7,3.9,7.1l-0.6-0.1l4.3-4.9
		l0.3-0.3l0.2,0.3l2.8,4l-0.3,0l3.8-2.6l0.1-0.1l0.1,0.1c0.3,0.5,0.8,1,1.2,1.5c0.5,0.5,1,0.9,1.5,1.3c-0.6-0.4-1.1-0.7-1.6-1.2
		c-0.5-0.4-1-0.9-1.4-1.5l0.2,0l-3.6,2.8l-0.2,0.1l-0.1-0.2L232,98l0.5,0l-4.2,5l-0.4,0.4l-0.3-0.5c-1.4-2.3-2.7-4.7-4-7.1l0.8,0
		l-4.1,9.5l-0.4,1l-0.5-0.9l-5.1-9.5l0.8-0.1l-2,5.2l-2,5.2l-0.2,0.6l-0.4-0.5c-1.8-2.4-2.8-5.3-3.3-8.1c-0.3-1.4-0.4-2.9-0.5-4.3
		C206.7,92.4,206.7,91,206.8,89.5z"/>
	<path class="st8" d="M346.3,375.4c-3.8-3.3-59.1-31-59.1-31c-2.5,6.8-20.8,16.3-39.6,16.5c-20.1,0.2-40.9-9.3-43.6-16.5
		c0,0-55.3,27.6-59.1,31c-3.8,3.3-41,68.3-41,68.3s1.1-1.4,5.7,0c11.2,3.3,36.2,22.6,36.2,32.4l22.4-24.1c0,0,2.4,29.4,4.6,46.5
		h68.8h7.8h68.8c2.1-17.1,4.6-46.5,4.6-46.5l22.4,24.1c0-9.8,25-29.1,36.2-32.4c4.6-1.4,5.7,0,5.7,0S350.1,378.8,346.3,375.4z"/>
	<path class="st9" d="M245.7,369.9c30,0,45.2-13.9,50.9-20.6c-0.3-0.2-0.6-0.3-0.9-0.5c-5.6,6.6-20.6,20.1-50,20.1
		c-30.6,0-46.1-13.6-51.4-19.4c-0.3,0.2-0.6,0.3-0.9,0.5C198.6,355.9,214.4,369.9,245.7,369.9z"/>
	<path class="st10" d="M214.7,498.6c0,0,0.9-92.6,0-101c-0.9-8.4-10.4-29.1-27.5-48.7c0,0-36.5,16-43.8,21.1
		c-7.3,5-72.1,128.7-72.1,128.7h61.1l34.1-40.8l3.2,40.8H214.7z"/>
	<path class="st11" d="M214.5,498.6c0.9-92.6,1-92.5,0-101c-0.9-8.4-5.4-24.5-28.2-44.1"/>
	<path class="st12" d="M200.8,381.2"/>
	<path class="st13" d="M142.6,370.8c16,8.6,24.1,75,23,85.9c-0.1,1-0.2,1.9-0.3,2.7l1.3-1.6l0.3,4.2c0.2-1.4,0.4-3,0.7-5.2
		c0.9-8.9-5.8-76.2-23.4-87.4c-0.3,0.2-0.5,0.3-0.8,0.5C143.2,370.1,142.9,370.4,142.6,370.8z"/>
	<path class="st10" d="M419.5,498.6h-61.1l-34.1-40.8l-3.2,40.8h-44.9c0,0-0.9-92.6,0-101c0.9-8.4,10.4-29.1,27.5-48.7
		c0,0,36.5,16,43.8,21.1C354.7,374.9,419.5,498.6,419.5,498.6"/>
	<path class="st11" d="M276.4,498.6c-0.9-92.6-1-92.5,0-101c0.9-8.4,5.4-24.5,28.2-44.1"/>
	<path class="st13" d="M348.3,370.8c-16,8.6-24.1,75-23,85.9c0.1,1,0.2,1.9,0.3,2.7l-1.3-1.6L324,462c-0.2-1.4-0.4-3-0.7-5.2
		c-0.9-8.9,5.8-76.2,23.4-87.4c0.3,0.2,0.5,0.3,0.8,0.5C347.7,370.1,348,370.4,348.3,370.8z"/>
	<path class="st14" d="M330.7,83.7C293,55.8,214.4,57.8,173.5,78.3c-45.7,22.9-34.8,94.4-27.9,126.3c0,0,7.9-60.7,27.8-69.5
		s34.8-13.1,72.3-13.1c37.5,0,52.5,4.2,72.3,13.1c19.8,8.8,27.8,69.5,27.8,69.5C352.8,172.7,359.8,105.3,330.7,83.7z"/>
	<path class="st15" d="M326.8,132.6c-3.4-4.9-11-8.8-20.9-11.7c-2.2-0.7-4.6-1.3-7.1-1.8c-1.1-0.3-2.3-0.5-3.5-0.8
		c-1-0.2-2.1-0.4-3.2-0.6c-1.4-0.3-2.9-0.5-4.3-0.7c-14.1-2.3-30.1-3.3-44.8-3.3c-1.9,0-5.8-1.1-5.8-1.1l-5.5,1.4l-5.5-1l-3.9,1.8
		l-4.6-1.8l-3.8,2.8l-5.6-4.7c0,0-0.4,5.6-1.6,5.8c-20.3,3.6-36.8,9.6-41,15.7c-2.8,4.1-10.2,19.9-10.2,19.9l-3.3,2.6l0.9,4.3
		l-1.9,3.1c0,0-1,11-1.1,12.9c-0.3,3-0.5,5.6-0.7,8c4.2-18.3,11.9-42.3,23.8-47.6c19.8-8.8,34.8-13.1,72.3-13.1
		c37.5,0,52.5,4.2,72.3,13.1c12.7,5.6,20.6,32.6,24.6,51.2C342.4,169.3,335.2,144.6,326.8,132.6z"/>
	<path class="st15" d="M191.3,128.5l-0.4,0c-0.1,0-0.3,0-0.3,0l-0.4-0.1l-0.4-0.1l-0.3-0.1c-0.4-0.1-0.9-0.3-1.2-0.5
		c-0.4-0.2-0.7-0.3-1-0.5l-0.9-0.6c-1.1-0.8-2.1-1.7-2.8-2.7l-0.6-0.7l-0.5-0.7l-0.9-1.4c-0.5-1-1-2-1.4-2.9
		c-1.7-3.9-2.5-7.9-3.2-11.8c-0.3-2-0.6-3.9-0.7-5.9c-0.2-1.9-0.4-3.9-0.4-5.8c-0.2-3.9-0.1-7.7-0.1-11.6c0.7,3.8,1.4,7.6,2.3,11.3
		c0.4,1.9,1,3.7,1.5,5.5c0.5,1.8,1.2,3.6,1.8,5.4c1.3,3.5,2.8,6.9,4.8,9.7c0.5,0.7,1,1.3,1.5,2l0.8,0.8l0.4,0.4l0.4,0.3
		c0.5,0.5,1.1,0.8,1.6,1c0.1,0,0.2,0.1,0.3,0.1l0.3,0c0.1,0,0.1,0,0.2,0c0,0,0,0,0,0c0,0,0,0,0,0c0,0,0,0-0.1,0l-0.1,0
		c-0.1,0-0.1,0-0.2,0c2.5-0.1,4.5,1.9,4.6,4.4C195.8,126.4,193.8,128.4,191.3,128.5z"/>
	<path class="st15" d="M198.3,125.1c-0.1,0-0.4-0.1-0.4-0.1l-0.2-0.1c-0.2-0.1-0.3-0.1-0.5-0.2c-0.3-0.1-0.5-0.3-0.7-0.4
		c-0.4-0.3-0.9-0.6-1.2-1c-0.4-0.3-0.7-0.7-1-1c-0.3-0.3-0.6-0.7-0.8-1.1l-0.7-1.1L192,119c-0.4-0.7-0.7-1.5-1-2.2
		c-1.2-3-1.8-5.9-2.2-8.9c-0.3-3-0.5-5.9-0.5-8.8c0-1.5,0-2.9,0.1-4.3l0.2-4.3l0.6,4.3c0.2,1.4,0.5,2.8,0.8,4.2
		c0.6,2.8,1.3,5.5,2.2,8.2c1,2.6,2,5.1,3.5,7.3c0.4,0.5,0.7,1.1,1.1,1.5l0.6,0.7l0.6,0.6c0.2,0.2,0.4,0.3,0.6,0.5
		c0.2,0.2,0.4,0.3,0.6,0.4c0.2,0.1,0.4,0.2,0.6,0.3c0.1,0,0.1,0,0.2,0c0,0,0,0,0,0l0,0c0,0-0.1,0-0.2-0.1L198.3,125.1z"/>
	<path class="st15" d="M205.4,123.7c-0.4-0.2-0.5-0.3-0.7-0.4c-0.2-0.1-0.3-0.2-0.5-0.4c-0.3-0.2-0.6-0.5-0.8-0.8
		c-0.5-0.5-1-1-1.4-1.6c-0.4-0.5-0.8-1.1-1.1-1.7c-0.3-0.6-0.6-1.2-0.9-1.7c-1-2.3-1.5-4.8-1.7-7.1c-0.1-1.2-0.1-2.3-0.1-3.5
		c0-1.1,0.2-2.3,0.3-3.4c0.2-1.1,0.3-2.2,0.6-3.3l0.8-3.2l0.1,3.3c0.1,1.1,0.2,2.2,0.3,3.2c0.2,1.1,0.4,2.1,0.6,3.2
		c0.3,1,0.5,2,0.9,3c0.7,1.9,1.6,3.7,2.8,5.2c0.3,0.4,0.6,0.7,0.9,1c0.3,0.3,0.6,0.6,1,0.8c0.3,0.3,0.7,0.5,1,0.7
		c0.2,0.1,0.3,0.2,0.5,0.2c0.1,0,0.2,0.1,0.2,0.1c0,0,0.2,0.1,0,0L205.4,123.7z"/>
	<path class="st15" d="M316.8,125.1c0,0.1,0.1-0.1,0.1-0.1c0.1,0,0.1-0.1,0.2-0.2c0.2-0.1,0.3-0.3,0.5-0.5c0.3-0.3,0.6-0.7,0.9-1.1
		c0.6-0.7,1.1-1.6,1.7-2.4c1-1.7,1.9-3.6,2.6-5.5c0.7-2,1.2-4,1.5-6.1c0.2-1.1,0.3-2.1,0.4-3.2c0.1-1.1,0.1-2.2,0.2-3.3
		c0.2,1.1,0.5,2.1,0.7,3.2c0.1,1.1,0.4,2.2,0.5,3.3c0.2,2.2,0.3,4.5,0.1,6.8c-0.2,2.3-0.5,4.6-1.1,6.9c-0.3,1.1-0.7,2.3-1.2,3.4
		c-0.2,0.6-0.5,1.1-0.8,1.7c-0.2,0.3-0.3,0.6-0.5,0.9c-0.1,0.1-0.2,0.3-0.3,0.4c-0.1,0.2-0.2,0.3-0.4,0.5L316.8,125.1z"/>
	<path class="st15" d="M309.9,124.5c0.2-0.2,0.5-0.5,0.7-0.8c0.3-0.3,0.5-0.6,0.8-1c0.5-0.7,1-1.4,1.4-2.1c0.9-1.4,1.8-2.9,2.5-4.5
		c0.7-1.6,1.4-3.2,2-4.9c0.6-1.7,1-3.4,1.4-5.2c0.2,1.8,0.4,3.6,0.3,5.5c0,1.8-0.1,3.7-0.3,5.6c-0.2,1.9-0.6,3.7-1.1,5.6
		c-0.2,0.9-0.5,1.9-0.8,2.8c-0.2,0.5-0.3,0.9-0.5,1.4c-0.2,0.5-0.3,0.9-0.6,1.5L309.9,124.5z"/>
	<path class="st15" d="M336.4,155.4C336.2,155.5,336.3,155.5,336.4,155.4c0,0.1,0.1,0.1,0.1,0.1c0.1,0,0.3,0,0.4,0
		c0.3,0,0.6-0.1,1-0.2c0.3-0.1,0.7-0.2,1-0.3c0.3-0.2,0.7-0.3,1-0.5c1.4-0.8,2.6-1.9,3.8-3.2c0.6-0.6,1.1-1.4,1.6-2.1
		c0.5-0.7,1-1.5,1.4-2.3c0.4-0.8,0.8-1.6,1.2-2.5l1.1-2.6l-0.3,2.8c-0.1,0.9-0.3,1.9-0.4,2.8c-0.2,0.9-0.4,1.9-0.7,2.8
		c-0.3,0.9-0.6,1.9-1,2.8c-0.8,1.9-1.9,3.7-3.4,5.4c-0.4,0.4-0.8,0.8-1.2,1.2c-0.5,0.4-0.9,0.8-1.4,1.1c-0.5,0.3-1,0.7-1.6,0.9
		c-0.3,0.1-0.6,0.3-0.9,0.4c-0.2,0.1-0.3,0.1-0.5,0.2c-0.2,0.1-0.3,0.1-0.7,0.2L336.4,155.4z"/>
	<polygon class="st14" points="175.2,78.3 178.9,62.7 183.2,69.3 195.2,59.4 195.2,67.4 209.6,57.4 211.1,62.7 220.5,60 220.2,64.1 
		238.9,55.1 239.8,62.7 246.1,57.3 248,62.4 275.5,57.6 275.5,61.1 289.2,62.7 289.2,65.4 296.1,65.4 296.1,68.5 315.7,68 
		319.3,77.5 322.3,78.3 322.3,80.7 342,105.1 347.5,101.1 347.5,109.5 350.4,109.5 349.8,120.7 352.1,120.7 351.8,139 336.6,107.6 
		317,89.5 268.6,70 213.6,79.8 	"/>
	<path class="st14" d="M171.5,89.5c0,0-0.8-8.4-5.7-13.5l-1.2,7.8l-4.5-0.8l-1.1,5.7l-3,0.8l-0.7,3.4l-2.6,34.6l18.7-36.6V89.5z"/>
	<polygon class="st15" points="163.3,140 156.5,129.9 167.2,135.5 	"/>
	<polygon class="st15" points="160.9,145.3 154.6,138.7 163.6,140 	"/>
	<path class="st7" d="M242,99.9c-0.2-0.3-0.3-0.5-0.5-0.8c-0.1-0.3-0.3-0.6-0.3-0.8l-0.1-0.6l-0.7,0.3c-1.1,0.4-2.1,0.9-3.1,1.4
		c-0.5-1.2-1.1-2.4-1.7-3.5l-0.8-1.6l-1.6,1.3c-1,0.8-1.9,1.5-2.8,2.3c-0.7-1.7-1.3-3.4-2-5.1l-1.7-4.3l-2.5,4.1
		c-0.9,1.5-1.8,3-2.7,4.5c-0.8-1.8-1.5-3.5-2.3-5.2L217,87l-2.1,4.6c-0.8,1.7-1.5,3.4-2.3,5.1c-0.3,0.6-0.5,1.2-0.7,1.8
		c0-0.1-0.1-0.1-0.1-0.2c-0.5-1.2-0.8-2.6-1.1-4c-0.3-1.4-0.5-2.8-0.7-4.2c-0.2-1.4-0.3-2.9-0.3-4.4c-0.4,1.4-0.7,2.9-0.9,4.3
		c-0.2,1.5-0.3,3-0.3,4.5c0,1.5,0.1,3,0.4,4.6c0.3,1.5,0.8,3.1,1.7,4.6l1.5,2.6l1.6-2.9c0.9-1.6,1.8-3.3,2.7-4.9
		c0.1-0.1,0.1-0.2,0.2-0.4c0.7,1.8,1.4,3.5,2.2,5.3l2,4.8l2.5-4.5c0.9-1.7,1.9-3.4,2.8-5.1c0.5,1,1,2.1,1.5,3.1l1.3,2.6l1.9-2
		c1.1-1.1,2.1-2.3,3.2-3.5c0.5,0.8,1.1,1.6,1.7,2.3l0.7,1l0.8-0.6c1.1-0.8,2.2-1.6,3.3-2.4c0.1,0.1,0.2,0.2,0.3,0.3
		c0.2,0.3,0.5,0.5,0.8,0.7c0.5,0.4,1.1,0.8,1.7,1.1C242.7,101,242.3,100.4,242,99.9z"/>
	<path class="st7" d="M173,118.1c-0.6-0.6-1.3-1.8-1.8-3.1c-0.5-1.2-1-2.6-1.5-3.9l-1.3-4.1c-0.4-1.4-0.9-2.8-1.4-4.3
		c-0.3,1.5-0.4,3-0.4,4.5c0,1.5,0.1,3,0.2,4.5c0.1,1,0.3,2,0.5,3c-0.3-0.2-0.6-0.4-0.9-0.6l-0.2-0.1c-0.5-0.3-1.1-0.4-1.6-0.2
		c-1,0.3-1.5,1.4-1.2,2.3c0.2,0.7,0.5,1.3,0.8,2c0.3,0.6,0.6,1.3,0.9,1.9c0.4,0.8,0.9,1.6,1.4,2.3c-0.2,0-0.5,0-0.7,0
		c-0.4,0-0.9-0.1-1.4-0.2c-0.5-0.1-0.9-0.2-1.4-0.4c0.6,0.7,1.5,1.4,2.4,1.8c0.5,0.2,1,0.4,1.5,0.5c0.3,0,0.6,0.1,0.8,0.1
		c0.3,0,0.5,0,1-0.1c0.1,0,0.1,0,0.2-0.1c0.5-0.2,0.7-0.8,0.5-1.3l-0.1-0.3c-0.3-0.7-0.6-1.5-0.9-2.2c0.2,0.1,0.3,0.2,0.5,0.3
		c0.6,0.3,1.1,0.6,1.7,0.9l0,0c0.7,0.4,1.7,0.2,2.3-0.4C173.8,120.1,173.7,118.9,173,118.1z"/>
	<path class="st7" d="M344.5,120.7c-0.2,0-0.4,0-0.6-0.1c0.1-1.6,0.2-3.3,0.3-4.9l0.1-3.7l-1.8,2c0-0.9-0.1-1.7-0.2-2.6
		c-0.1-1.1-0.2-2.1-0.5-3.2c-0.2-1.1-0.5-2.1-1.1-3.3l-0.8-1.4l-1.1,1.1l-0.7,0.7c0-0.1-0.1-0.2-0.1-0.4c-0.3-0.7-0.6-1.3-0.9-1.9
		c-0.3-0.6-0.7-1.3-1.1-1.9c-0.4-0.6-0.8-1.2-1.4-1.7c0.3,0.6,0.5,1.3,0.7,2c0.2,0.7,0.4,1.3,0.5,2l0.4,2l0.4,2l0.3,1.6l1.4-1.1
		l0.5-0.4c0.1,0.4,0.1,0.8,0.2,1.1c0.1,1,0.2,2,0.3,3c0.1,2,0.2,4,0.2,6l0.1,4l1.9-2.4c0,0.7,0.1,1.4,0.1,2.2l0.1,1.1l1-0.1
		c0.3,0,0.6-0.1,0.9-0.1c0.2,1.8,0.4,3.7,0.8,5.5c0.4-2.2,0.7-4.3,0.9-6.5l0.1-0.8L344.5,120.7z"/>
	<path class="st16" d="M212.9,426.7c0,0-2.8-28.5-12-38.6s-34.6-21.5-38-34.7c-1.5-5.7-0.1-12.6,4.5-15.2c3.8-2.2,2.9-8.3,5.5-11.1
		c8-8.4,32.1-14.5,44.7-16.1c0,0,0,12.5-0.1,14.8c-0.2,2.4-1,5-1,5s-9.8,2.2-20.2,8.6c-12.8,7.9,3.7,20.8,11,34.2
		S213.2,406.7,212.9,426.7z"/>
	<path class="st17" d="M200.9,388.2c-1.9-2-4-3.7-6.1-5.3c-2.2-1.6-4.4-3.2-6.6-4.7c-4.4-3.1-9-6.1-13.2-9.4
		c-2.1-1.7-4.2-3.4-6.1-5.4c-1.9-1.9-3.7-4-5-6.5c-1.4-2.4-1.9-5.2-2-8c0-2.8,0.6-5.6,2.1-8c0.8-1.2,1.8-2.3,3-3
		c1.1-0.6,1.8-1.6,2.3-2.8c0.5-1.2,0.8-2.5,1.1-3.8c0.3-1.3,0.7-2.7,1.6-4c3.9-4.3,8.9-6.6,13.9-8.7c5-2.1,10.2-3.7,15.5-5.1
		c5.3-1.4,10.6-2.5,16-3.3l0.2,2c-5.3,0.6-10.6,1.7-15.8,3c-5.2,1.3-10.4,2.8-15.4,4.8c-2.5,1-4.9,2.1-7.3,3.4
		c-1.1,0.7-2.3,1.3-3.3,2.2l-0.8,0.6c-0.3,0.2-0.5,0.4-0.7,0.6c-0.5,0.4-1,0.9-1.4,1.3c-0.7,1-1.1,2.2-1.5,3.5
		c-0.4,1.3-0.7,2.6-1.2,4c-0.5,1.3-1.5,2.6-2.8,3.3c-1.1,0.6-2,1.6-2.7,2.6c-1.4,2.2-2.1,4.8-2.1,7.5c0,2.6,0.5,5.3,1.7,7.6
		c1.2,2.4,2.9,4.4,4.8,6.4c1.9,1.9,3.9,3.7,6,5.4c4.2,3.4,8.7,6.5,13.1,9.6c2.2,1.6,4.4,3.2,6.5,4.8
		C197,384.4,199.1,386.2,200.9,388.2z"/>
	<g>
		<path class="st18" d="M202.9,467.3c-0.4,0-0.7-0.3-0.7-0.7l-0.2-8c0-0.4,0.3-0.8,0.7-0.8c0.4,0,0.8,0.3,0.8,0.7l0.2,8
			C203.6,467,203.3,467.3,202.9,467.3C202.9,467.3,202.9,467.3,202.9,467.3z"/>
	</g>
	<path class="st10" d="M203.9,384.6c0,0,0.6-1.1-0.7-2.4s-4.2-2.3-4.7-1.5c-0.4,0.8,0.5,2.5,2.2,3.6
		C202.5,385.3,203.5,385.1,203.9,384.6z"/>
	<g>
		<path class="st5" d="M202.7,461.1c-0.5,0-1-0.4-1-1l-1.8-77.1c0-0.6,0.4-1,1-1c0.5,0,1,0.4,1,1l1.8,77.1
			C203.7,460.6,203.3,461.1,202.7,461.1C202.7,461.1,202.7,461.1,202.7,461.1z"/>
	</g>
	<path class="st16" d="M277.9,426.7c0,0,2.8-28.5,12-38.6s34.6-21.5,38-34.7c1.5-5.7,0.1-12.6-4.5-15.2c-3.8-2.2-2.9-8.3-5.5-11.1
		c-8-8.4-32.1-14.5-44.7-16.1c0,0,0,12.5,0.1,14.8c0.2,2.4,1,5,1,5s9.8,2.2,20.2,8.6c12.8,7.9-3.7,20.8-11,34.2
		S277.7,406.7,277.9,426.7z"/>
	<g>
		<path class="st18" d="M288,467.3C288,467.3,288,467.3,288,467.3c-0.4,0-0.8-0.4-0.8-0.8l0.2-8c0-0.4,0.3-0.7,0.7-0.7c0,0,0,0,0,0
			c0.4,0,0.7,0.4,0.7,0.8l-0.2,8C288.7,467,288.4,467.3,288,467.3z"/>
	</g>
	<path class="st17" d="M289.9,388.2c1.8-2,3.9-3.7,6-5.4c2.1-1.7,4.3-3.3,6.5-4.8c4.4-3.1,8.9-6.2,13.1-9.6c2.1-1.7,4.1-3.5,6-5.4
		c1.8-1.9,3.6-4,4.8-6.4c1.3-2.3,1.8-5,1.7-7.6c0-2.6-0.7-5.3-2.1-7.5c-0.7-1.1-1.6-2-2.7-2.6c-1.3-0.7-2.3-2-2.8-3.3
		c-0.5-1.3-0.9-2.7-1.2-4c-0.4-1.3-0.7-2.5-1.5-3.5c-0.3-0.5-0.9-0.9-1.4-1.3c-0.2-0.2-0.5-0.4-0.7-0.6l-0.8-0.6
		c-1-0.8-2.2-1.5-3.3-2.2c-2.4-1.3-4.8-2.4-7.3-3.4c-5-2-10.1-3.5-15.4-4.8c-5.2-1.3-10.5-2.3-15.8-3l0.2-2c5.4,0.7,10.7,1.9,16,3.3
		c5.3,1.4,10.5,3,15.5,5.1c5,2.2,10,4.5,13.9,8.7c0.9,1.2,1.3,2.6,1.6,4c0.3,1.3,0.6,2.6,1.1,3.8c0.5,1.2,1.2,2.2,2.3,2.8
		c1.2,0.7,2.3,1.8,3,3c1.5,2.4,2.1,5.2,2.1,8c0,2.8-0.6,5.6-2,8c-1.3,2.4-3.1,4.5-5,6.5c-1.9,1.9-4,3.7-6.1,5.4
		c-4.3,3.3-8.8,6.3-13.2,9.4c-2.2,1.5-4.4,3.1-6.6,4.7C293.9,384.5,291.8,386.2,289.9,388.2z"/>
	<path class="st10" d="M287.3,384.6c0,0-0.6-1.1,0.7-2.4c1.3-1.4,4.2-2.3,4.7-1.5c0.4,0.8-0.5,2.5-2.2,3.6
		C288.8,385.3,287.8,385.1,287.3,384.6z"/>
	<g>
		<path class="st5" d="M288.2,461.1C288.2,461.1,288.2,461.1,288.2,461.1c-0.6,0-1-0.5-1-1l1.8-77.1c0-0.6,0.5-1,1-1
			c0.6,0,1,0.5,1,1l-1.8,77.1C289.2,460.7,288.7,461.1,288.2,461.1z"/>
	</g>
</g>
<g id="Layer_3">
</g>
<g id="BEELD">
</g>
<g id="Layer_7" class="st19">
	<line class="st20" x1="-394.5" y1="572.2" x2="-394.5" y2="1602.8"/>
</g>
<g id="Layer_8">
</g>
</svg>
