<?xml version="1.0" encoding="utf-8"?>
<!-- Generator: Adobe Illustrator 26.5.0, SVG Export Plug-In . SVG Version: 6.00 Build 0)  -->
<svg version="1.1" id="_x2014_ÎÓÈ_x5F_1" xmlns="http://www.w3.org/2000/svg" xmlns:xlink="http://www.w3.org/1999/xlink"
	 x="0px" y="0px" viewBox="0 0 1231.8 1240.6" style="enable-background:new 0 0 1231.8 1240.6;" xml:space="preserve">
<style type="text/css">
	.st0{fill:#F49400;}
	.st1{clip-path:url(#SVGID_00000170256625942967517400000013126927039876981937_);fill:#E08900;}
	.st2{opacity:0.1;fill:#FFFFFF;}
	.st3{fill:#014151;}
	.st4{fill:#094C5F;}
	.st5{clip-path:url(#SVGID_00000039108888713778614700000015591181522998835095_);fill:#18181C;}
	.st6{clip-path:url(#SVGID_00000039108888713778614700000015591181522998835095_);fill:#EED5C1;}
	.st7{clip-path:url(#SVGID_00000039108888713778614700000015591181522998835095_);fill:#F6E2D0;}
	.st8{clip-path:url(#SVGID_00000039108888713778614700000015591181522998835095_);fill:#EA5B27;}
	.st9{clip-path:url(#SVGID_00000039108888713778614700000015591181522998835095_);fill:#4D2B74;}
	.st10{clip-path:url(#SVGID_00000039108888713778614700000015591181522998835095_);}
	.st11{fill:#342253;}
	
		.st12{clip-path:url(#SVGID_00000039108888713778614700000015591181522998835095_);fill:url(#SVGID_00000139977467908240471580000011126965794695844008_);}
	
		.st13{clip-path:url(#SVGID_00000039108888713778614700000015591181522998835095_);fill:url(#SVGID_00000051368317048345486570000015252105039629450144_);}
	.st14{clip-path:url(#SVGID_00000039108888713778614700000015591181522998835095_);fill:#302D2E;}
	.st15{clip-path:url(#SVGID_00000039108888713778614700000015591181522998835095_);fill:#2D2D31;}
	.st16{fill:#1D0809;}
	.st17{fill:#3D2929;}
	.st18{fill:#C0BBB5;}
	
		.st19{clip-path:url(#SVGID_00000039108888713778614700000015591181522998835095_);fill:none;stroke:#D5D7D8;stroke-width:2.3527;stroke-miterlimit:10;}
	
		.st20{clip-path:url(#SVGID_00000039108888713778614700000015591181522998835095_);fill:none;stroke:#D5D7D8;stroke-width:2.3527;stroke-linecap:round;stroke-miterlimit:10;}
	.st21{clip-path:url(#SVGID_00000039108888713778614700000015591181522998835095_);fill:#494746;}
	.st22{clip-path:url(#SVGID_00000039108888713778614700000015591181522998835095_);fill:#423D3F;}
	.st23{fill:#8B5E51;}
	.st24{fill:#A07D4C;}
	.st25{fill:#271F12;}
	.st26{fill:#FFFFFF;}
	.st27{fill:#F6E2D0;}
	.st28{fill:#2D2825;}
	.st29{opacity:0.25;}
	.st30{fill:#E08A04;}
	.st31{clip-path:url(#SVGID_00000049210001029503523320000000357530331700670367_);fill:#18181C;}
	.st32{clip-path:url(#SVGID_00000049210001029503523320000000357530331700670367_);fill:#EED5C1;}
	.st33{clip-path:url(#SVGID_00000049210001029503523320000000357530331700670367_);fill:#F6E2D0;}
	.st34{clip-path:url(#SVGID_00000049210001029503523320000000357530331700670367_);fill:#EA5B27;}
	.st35{clip-path:url(#SVGID_00000049210001029503523320000000357530331700670367_);fill:#4D2B74;}
	.st36{clip-path:url(#SVGID_00000049210001029503523320000000357530331700670367_);}
	
		.st37{clip-path:url(#SVGID_00000049210001029503523320000000357530331700670367_);fill:url(#SVGID_00000060742697458481605700000006881410843184857019_);}
	
		.st38{clip-path:url(#SVGID_00000049210001029503523320000000357530331700670367_);fill:url(#SVGID_00000181086058454413457630000010541149245486533541_);}
	.st39{clip-path:url(#SVGID_00000049210001029503523320000000357530331700670367_);fill:#302D2E;}
	.st40{clip-path:url(#SVGID_00000049210001029503523320000000357530331700670367_);fill:#2D2D31;}
	
		.st41{clip-path:url(#SVGID_00000049210001029503523320000000357530331700670367_);fill:none;stroke:#D5D7D8;stroke-width:2.3527;stroke-miterlimit:10;}
	
		.st42{clip-path:url(#SVGID_00000049210001029503523320000000357530331700670367_);fill:none;stroke:#D5D7D8;stroke-width:2.3527;stroke-linecap:round;stroke-miterlimit:10;}
	.st43{clip-path:url(#SVGID_00000049210001029503523320000000357530331700670367_);fill:#494746;}
	.st44{clip-path:url(#SVGID_00000049210001029503523320000000357530331700670367_);fill:#423D3F;}
	.st45{fill:#012F3D;}
	.st46{clip-path:url(#SVGID_00000106108452100233657020000015896251514428385723_);fill:#18181C;}
	.st47{clip-path:url(#SVGID_00000106108452100233657020000015896251514428385723_);fill:#EED5C1;}
	.st48{clip-path:url(#SVGID_00000106108452100233657020000015896251514428385723_);fill:#F6E2D0;}
	.st49{clip-path:url(#SVGID_00000106108452100233657020000015896251514428385723_);fill:#EA5B27;}
	.st50{clip-path:url(#SVGID_00000106108452100233657020000015896251514428385723_);fill:#4D2B74;}
	.st51{clip-path:url(#SVGID_00000106108452100233657020000015896251514428385723_);}
	
		.st52{clip-path:url(#SVGID_00000106108452100233657020000015896251514428385723_);fill:url(#SVGID_00000145017073619224385970000004466783364641485715_);}
	
		.st53{clip-path:url(#SVGID_00000106108452100233657020000015896251514428385723_);fill:url(#SVGID_00000056419773813383568940000002969133684748035488_);}
	.st54{clip-path:url(#SVGID_00000106108452100233657020000015896251514428385723_);fill:#302D2E;}
	.st55{clip-path:url(#SVGID_00000106108452100233657020000015896251514428385723_);fill:#2D2D31;}
	
		.st56{clip-path:url(#SVGID_00000106108452100233657020000015896251514428385723_);fill:none;stroke:#D5D7D8;stroke-width:2.3527;stroke-miterlimit:10;}
	
		.st57{clip-path:url(#SVGID_00000106108452100233657020000015896251514428385723_);fill:none;stroke:#D5D7D8;stroke-width:2.3527;stroke-linecap:round;stroke-miterlimit:10;}
	.st58{clip-path:url(#SVGID_00000106108452100233657020000015896251514428385723_);fill:#494746;}
	.st59{clip-path:url(#SVGID_00000106108452100233657020000015896251514428385723_);fill:#423D3F;}
	.st60{fill:#013F4D;}
</style>
<g>
	<path class="st0" d="M880,80.1H351.8c-29.6,0-56.9,15.8-71.7,41.4L16,578.9c-14.8,25.6-14.8,57.2,0,82.8l264.1,457.5
		c14.8,25.6,42.1,41.4,71.7,41.4H880c29.6,0,56.9-15.8,71.7-41.4l264.1-457.5c14.8-25.6,14.8-57.2,0-82.8L951.7,121.5
		C936.9,95.9,909.6,80.1,880,80.1z"/>
	<g>
		<defs>
			<path id="SVGID_1_" d="M880,80.1H351.8c-29.6,0-56.9,15.8-71.7,41.4L16,578.9c-14.8,25.6-14.8,57.2,0,82.8l264.1,457.5
				c14.8,25.6,42.1,41.4,71.7,41.4H880c29.6,0,56.9-15.8,71.7-41.4l264.1-457.5c14.8-25.6,14.8-57.2,0-82.8L951.7,121.5
				C936.9,95.9,909.6,80.1,880,80.1z"/>
		</defs>
		<clipPath id="SVGID_00000062177017502418112860000001212051268247069373_">
			<use xlink:href="#SVGID_1_"  style="overflow:visible;"/>
		</clipPath>
		<path style="clip-path:url(#SVGID_00000062177017502418112860000001212051268247069373_);fill:#E08900;" d="M980.3,1126.4
			l123.1-269.9L182.5,297.1L-1.1,556.3c-19.9,34.4-6.2,98,13.6,132.4l253.1,451.8c19.9,34.4,68.3,45.8,108.1,45.8h504.3
			C917.8,1186.2,960.4,1160.8,980.3,1126.4z"/>
	</g>
	<rect x="159.2" y="172.1" class="st0" width="943.8" height="587.9"/>
	<polygon class="st2" points="1082.5,516.3 1067.2,183.4 705.3,171.6 	"/>
	<polygon class="st2" points="624.1,176.4 673.7,170.6 613.9,168.6 547.7,176.4 1089.6,671.7 1086.3,598.8 	"/>
	<g>
		<path class="st3" d="M1056.5,198.1v517H191.6v-517H1056.5 M1056.5,130.3H191.6c-37.5,0-67.8,30.4-67.8,67.8v517
			c0,37.5,30.4,67.8,67.8,67.8h864.9c37.5,0,67.8-30.4,67.8-67.8v-517C1124.3,160.6,1094,130.3,1056.5,130.3L1056.5,130.3z"/>
	</g>
	<path class="st3" d="M774.2,941.8c0,0-90.9-36.9-90.9-122.4H564.9c0,85.5-90.9,122.4-90.9,122.4v31.9h300.2V941.8z"/>
	<path class="st4" d="M568.1,198.1h488.4V641l67.8,62.8V198.1c0-37.5-30.4-67.8-67.8-67.8H493.5L568.1,198.1z"/>
	<rect x="471.4" y="943.3" class="st4" width="303.7" height="29.5"/>
	<g>
		<defs>
			<rect id="SVGID_00000071530155777483397710000007879774839942592433_" x="191" y="197.9" width="865.7" height="516.9"/>
		</defs>
		<clipPath id="SVGID_00000139271623595553011980000000796476866321104780_">
			<use xlink:href="#SVGID_00000071530155777483397710000007879774839942592433_"  style="overflow:visible;"/>
		</clipPath>
		<path style="clip-path:url(#SVGID_00000139271623595553011980000000796476866321104780_);fill:#18181C;" d="M633.4,735.8
			c-110.7-3.6-185.7,36.4-185.7,36.4l-38.1-112.8l-10.7-68.6l480,46.5l-56.1,135C822.9,772.2,775.2,740.5,633.4,735.8z"/>
		<path style="clip-path:url(#SVGID_00000139271623595553011980000000796476866321104780_);fill:#EED5C1;" d="M842.8,948.6
			c0,0-3.7-8-56.2-26.4c-52.5-18.4-91.4-43.6-91.4-82.9c0-39.3,0-103.5,0-103.5H574.3c0,0,0,64.2,0,103.5
			c0,39.3-38.9,64.5-91.4,82.9c-52.6,18.4-56.2,26.4-56.2,26.4l41.9,148.9h332.3L961.4,1264L842.8,948.6z"/>
		<path style="clip-path:url(#SVGID_00000139271623595553011980000000796476866321104780_);fill:#F6E2D0;" d="M887.1,442.2
			c0,191.7-85.2,348.8-250.5,348.8c-165.2,0-257-158.8-257-350.4c0-191.7,94.5-211.2,259.8-211.2
			C804.7,229.3,887.1,250.5,887.1,442.2z"/>
		<path style="clip-path:url(#SVGID_00000139271623595553011980000000796476866321104780_);fill:#EA5B27;" d="M635.3,571.2"/>
		<path style="clip-path:url(#SVGID_00000139271623595553011980000000796476866321104780_);fill:#4D2B74;" d="M846,944.2
			c-20.8-11.5-88.3-42.4-88.3-42.4c-13.1,27.3-98.3,51.7-98.3,51.7l-23.7,62.1l0-0.1l0,0.1l-23.7-62.1c0,0-85.2-24.4-98.3-51.7
			c0,0-67.5,30.8-88.3,42.4c-13.2,7.3-90.9,229.5-90.9,229.5l73.4,43.7l58.1-119.9l33.7,166.5h126.8h5.7h0.7h2.9h2.9h0.7h5.7h126.8
			l33.7-166.5l58.1,119.9l73.4-43.7C936.9,1173.8,859.2,951.5,846,944.2z"/>
		<g style="clip-path:url(#SVGID_00000139271623595553011980000000796476866321104780_);">
			<path class="st11" d="M620.7,976.7l-1.4-3.7c-52.7-3.9-99.3-26.2-131.1-59.4c-1.1,0.5-2.3,1.1-3.4,1.6
				C517.5,949.9,566,973.1,620.7,976.7z"/>
			<path class="st11" d="M786.5,915.2c-1.2-0.5-2.3-1.1-3.4-1.6c-31.8,33.3-78.5,55.6-131.1,59.4l-1.4,3.7
				C705.2,973.1,753.7,949.9,786.5,915.2z"/>
		</g>
		
			<radialGradient id="SVGID_00000006668081853741020640000006748144644781795475_" cx="779.4871" cy="637.4262" r="44.8193" gradientUnits="userSpaceOnUse">
			<stop  offset="0" style="stop-color:#EFC2A8"/>
			<stop  offset="1" style="stop-color:#F6E2D0"/>
		</radialGradient>
		
			<path style="clip-path:url(#SVGID_00000139271623595553011980000000796476866321104780_);fill:url(#SVGID_00000006668081853741020640000006748144644781795475_);" d="
			M824.3,637.4c0,24.7-20.1,44.8-44.8,44.8c-24.7,0-44.8-20.1-44.8-44.8c0-24.8,20.1-44.8,44.8-44.8
			C804.2,592.6,824.3,612.7,824.3,637.4z"/>
		
			<radialGradient id="SVGID_00000163058416252400003880000015355589408812116635_" cx="493.6089" cy="637.4262" r="44.8193" gradientUnits="userSpaceOnUse">
			<stop  offset="0" style="stop-color:#EFC2A8"/>
			<stop  offset="1" style="stop-color:#F6E2D0"/>
		</radialGradient>
		
			<path style="clip-path:url(#SVGID_00000139271623595553011980000000796476866321104780_);fill:url(#SVGID_00000163058416252400003880000015355589408812116635_);" d="
			M538.4,637.4c0,24.7-20.1,44.8-44.8,44.8c-24.7,0-44.8-20.1-44.8-44.8c0-24.8,20.1-44.8,44.8-44.8
			C518.4,592.6,538.4,612.7,538.4,637.4z"/>
		<path style="clip-path:url(#SVGID_00000139271623595553011980000000796476866321104780_);fill:#302D2E;" d="M943.4,528.9
			c0-170.6-68.5-363.4-309.5-363.4S324.5,358.3,324.5,528.9c0,97.1,51.1,262.5,123.2,243.3c-21.4-67.4-29.4-163.2-29.4-223.7
			c0-170.6,96.5-186.9,215.6-186.9c119.1,0,215.6,16.3,215.6,186.9c0,60.4-8,156.3-29.4,223.7"/>
		<path style="clip-path:url(#SVGID_00000139271623595553011980000000796476866321104780_);fill:#2D2D31;" d="M374.8,430.5
			c0,0,96.2,50.9,255.1,50.9s292.6-50.9,292.6-50.9l-200.4-96H524l-128.9,25.5"/>
		<path style="clip-path:url(#SVGID_00000139271623595553011980000000796476866321104780_);fill:#2D2D31;" d="M327.1,471.8
			c0,0-22.9,171.3,62,331.3c0,0,33.2-21.6,55.8-30.9c0,0-30.5-111.5-30.4-238.6L327.1,471.8z"/>
		<path style="clip-path:url(#SVGID_00000139271623595553011980000000796476866321104780_);fill:#2D2D31;" d="M940.6,471.8
			c0,0,22.9,171.3-62,331.3c0,0-33.2-21.6-55.8-30.9c0,0,30.5-111.5,30.4-238.6L940.6,471.8z"/>
		<g style="clip-path:url(#SVGID_00000139271623595553011980000000796476866321104780_);">
			<path class="st16" d="M572.6,1264c-17.8-264.1-32.4-384.1-55.8-369.1c-38.4,24.7-107.4,42.2-107.4,42.2L300.6,1264h94.3
				l53.3-123.9l26.1,123.9H572.6z"/>
			<path class="st17" d="M447.7,1140.1c0.2-17.9,0.1-35.7-0.7-53.5c-0.7-17.8-1.9-35.6-4-53.2c-1.1-8.8-2.4-17.6-4.1-26.2
				c-1.7-8.6-3.4-17.2-5.5-25.7c-1-4.2-2.1-8.4-3.4-12.5c-1.3-4.1-2.8-8.1-4.5-12c-3.6-7.7-8.2-15.1-16.1-19.3l0.3-0.9
				c4.5,0.8,8.9,3.2,12.5,6.2c3.6,3.1,6.7,6.8,9.2,10.7c5.2,7.9,8.6,16.6,11.4,25.3c5.5,17.6,6.7,35.8,8,53.7
				c1.2,18,1.4,35.9,1.1,53.9c-0.5,17.9-1.3,35.8-3.1,53.6L447.7,1140.1z"/>
		</g>
		<g style="clip-path:url(#SVGID_00000139271623595553011980000000796476866321104780_);">
			<path class="st16" d="M697.3,1264c17.8-264.1,32.4-384.1,55.8-369.1c38.4,24.7,107.4,42.2,107.4,42.2L969.3,1264H875l-53.3-123.9
				L795.6,1264H697.3z"/>
			<path class="st17" d="M822.2,1140.1c-0.2-17.9-0.1-35.7,0.7-53.5c0.7-17.8,1.9-35.6,4-53.2c1.1-8.8,2.4-17.6,4.1-26.2
				c1.7-8.6,3.4-17.2,5.5-25.7c1-4.2,2.1-8.4,3.4-12.5c1.3-4.1,2.8-8.1,4.5-12c3.6-7.7,8.2-15.1,16.1-19.3l-0.3-0.9
				c-4.5,0.8-8.9,3.2-12.5,6.2c-3.6,3.1-6.7,6.8-9.2,10.7c-5.2,7.9-8.6,16.6-11.4,25.3c-5.5,17.6-6.7,35.8-8,53.7
				c-1.2,18-1.4,35.9-1.1,53.9c0.5,17.9,1.3,35.8,3.1,53.6L822.2,1140.1z"/>
		</g>
		<path style="clip-path:url(#SVGID_00000139271623595553011980000000796476866321104780_);fill:#EA5B27;" d="M495.3,928.4"/>
		<g style="clip-path:url(#SVGID_00000139271623595553011980000000796476866321104780_);">
			<path class="st18" d="M635.4,930.2c-16.5,0-29.9-13.4-29.9-29.9s13.4-29.9,29.9-29.9c16.5,0,29.9,13.4,29.9,29.9
				S651.9,930.2,635.4,930.2z M635.4,882.4c-9.8,0-17.9,8-17.9,17.9s8,17.9,17.9,17.9s17.9-8,17.9-17.9S645.3,882.4,635.4,882.4z"/>
		</g>
		
			<path style="clip-path:url(#SVGID_00000139271623595553011980000000796476866321104780_);fill:none;stroke:#D5D7D8;stroke-width:2.3527;stroke-miterlimit:10;" d="
			M610.2,899.9c0-13.9,11.3-25.2,25.2-25.2s25.2,11.3,25.2,25.2"/>
		
			<path style="clip-path:url(#SVGID_00000139271623595553011980000000796476866321104780_);fill:none;stroke:#D5D7D8;stroke-width:2.3527;stroke-linecap:round;stroke-miterlimit:10;" d="
			M657.3,909.9c-3.8,6.9-11.1,11.6-19.5,11.6c-8.4,0-15.7-4.7-19.5-11.6"/>
		<path style="clip-path:url(#SVGID_00000139271623595553011980000000796476866321104780_);fill:#494746;" d="M623.8,888.9
			c-11.9-1.2-53.9-15.1-59.3-23.5c0,0-9.7,14.4-12.7,16.2c0,0,37.4,24.2,68.4,24.1C620.2,905.7,618.3,896.1,623.8,888.9z"/>
		<path style="clip-path:url(#SVGID_00000139271623595553011980000000796476866321104780_);fill:#494746;" d="M645.7,888.9
			c11.9-1.2,53.9-15.1,59.3-23.5c0,0,9.7,14.4,12.7,16.2c0,0-37.4,24.2-68.4,24.1C649.3,905.7,651.1,896.1,645.7,888.9z"/>
		<path style="clip-path:url(#SVGID_00000139271623595553011980000000796476866321104780_);fill:#423D3F;" d="M873.6,446.4
			l-5.9-18.3c-2.1-6.1-4.3-12.1-6.5-18.2l-3.5-9c-1.1-3-2.2-6.1-3.6-9c-1.4-2.9-3-5.8-4.5-8.6c-1.5-2.9-3.1-5.7-4.7-8.5
			c-6.3-11.3-13.4-22.2-21.3-32.4c-3.9-5.1-8.1-10-12.6-14.7c-4.6-4.5-9.3-9-14.7-12.4c9.1,8.9,15.7,19.8,21.8,30.7
			c5.9,11.1,11.3,22.4,15.8,34.1c2.5,5.7,4.3,11.8,6.6,17.6c2.3,5.8,4.9,11.5,7.1,17.4l6.3,17.7l3.4,10.4
			c-35.1,7.6-71,13.3-106.8,17.6c-38.5,4.6-77.2,7.4-115.9,8c-19.3,0.2-38.7,0-58-1c-19.3-1.1-38.5-2.7-57.6-5.3
			c-19.1-2.7-38-6-56.7-10.6c-16.6-4.2-32.9-9.2-48.8-15.2c0.8-2.9,1.6-5.9,2.5-8.7c0.8-2.5,1.6-4.9,2.4-7.4
			c0.9-2.4,1.8-4.9,2.6-7.3c2.9-10,6.2-19.9,10.1-29.6c1.8-4.9,4.1-9.7,6.1-14.5c2.3-4.7,4.4-9.6,6.9-14.2
			c4.8-9.4,10.2-18.5,16-27.5c-7.2,7.8-14.4,15.8-20.6,24.6c-3.3,4.3-6.2,8.8-9.2,13.3c-2.9,4.6-5.8,9.1-8.4,13.9
			c-5.4,9.4-10.3,19.1-14.6,29.1c-2,5.1-3.4,10.3-5.1,15.5c-1.6,5.3-3,10.4-4.3,16l-1.3,6l5.7,2.3c18.5,7.3,37.5,13.2,56.7,18
			c19.2,4.7,38.7,8.1,58.2,10.9c19.5,2.6,39.2,4.3,58.8,5.4c19.6,1,39.3,1.2,58.9,1c39.3-0.6,78.4-3.4,117.4-8.1
			c39-4.7,77.5-10.9,116.1-19.5l7.7-1.7L873.6,446.4z"/>
		<g style="clip-path:url(#SVGID_00000139271623595553011980000000796476866321104780_);">
			<path class="st23" d="M552.2,684.9c25.6,15.5,53.1,25.1,80.9,24.8c28,0,54.8-10.8,81.5-24.8c-9.8,11.5-22,21.1-35.9,28
				c-13.9,7-29.6,10.8-45.4,11.1c-15.8,0-31.6-3.5-45.6-10.4C573.7,706.8,561.2,697.3,552.2,684.9z"/>
			<g>
				<g>
					<path class="st24" d="M564.1,562.2c0,21.7-17.8,39.3-39.7,39.3c-21.9,0-39.7-17.6-39.7-39.3c0-21.7,17.8-39.3,39.7-39.3
						C546.4,522.9,564.1,540.5,564.1,562.2z"/>
					<path class="st25" d="M553.9,562.2c0,15.1-12.3,27.4-27.4,27.4c-15.1,0-27.4-12.3-27.4-27.4c0-15.1,12.3-27.4,27.4-27.4
						C541.7,534.8,553.9,547.1,553.9,562.2z"/>
					<path class="st26" d="M515,555.3c0,4.4-3.6,7.9-7.9,7.9c-4.4,0-7.9-3.6-7.9-7.9s3.6-7.9,7.9-7.9
						C511.4,547.3,515,550.9,515,555.3z"/>
					<path class="st27" d="M588.9,578c0,0-34.3-46.8-83.8-40.2s-55.2,30-55.2,30l2-69.7l32.9,2.5l125.7,27.2L588.9,578z"/>
					<path class="st28" d="M584.2,572.6c-8.6-7.6-17.6-14.4-27.1-19.9c-9.5-5.5-19.5-9.7-29.9-11.8c-5.2-1-10.5-1.5-15.8-1.5
						c-5.3,0-10.6,0.8-15.9,1.8c-10.6,2.3-20.9,6.6-31.3,11.7c7.9-8.4,18-14.9,29.2-19c5.7-1.9,11.6-3.3,17.6-3.7
						c6-0.4,12.2,0,18.1,1.2c11.9,2.3,22.9,7.9,32.3,15C570.6,553.6,578.7,562.4,584.2,572.6z"/>
				</g>
				<g>
					<path class="st24" d="M702.7,562.2c0,21.7,17.8,39.3,39.7,39.3c21.9,0,39.7-17.6,39.7-39.3c0-21.7-17.8-39.3-39.7-39.3
						C720.5,522.9,702.7,540.5,702.7,562.2z"/>
					<path class="st25" d="M712.9,562.2c0,15.1,12.3,27.4,27.4,27.4c15.1,0,27.4-12.3,27.4-27.4c0-15.1-12.3-27.4-27.4-27.4
						C725.2,534.8,712.9,547.1,712.9,562.2z"/>
					<path class="st26" d="M713.2,555.3c0,4.4,3.6,7.9,7.9,7.9c4.4,0,7.9-3.6,7.9-7.9s-3.6-7.9-7.9-7.9
						C716.7,547.3,713.2,550.9,713.2,555.3z"/>
					<path class="st27" d="M678,578c0,0,34.3-46.8,83.8-40.2c49.5,6.5,55.2,30,55.2,30l-2-69.7l-32.9,2.5l-125.7,27.2L678,578z"/>
					<path class="st28" d="M682.6,572.6c5.5-10.2,13.6-18.9,22.9-26.2c9.4-7.1,20.4-12.6,32.3-15c5.9-1.2,12.1-1.5,18.1-1.2
						c6.1,0.4,12,1.8,17.6,3.7c11.2,4.1,21.2,10.7,29.2,19c-10.3-5.1-20.7-9.4-31.3-11.7c-5.3-1-10.6-1.8-15.9-1.8
						c-5.3,0-10.6,0.4-15.8,1.5c-10.4,2-20.5,6.3-29.9,11.8C700.2,558.2,691.3,564.9,682.6,572.6z"/>
				</g>
			</g>
		</g>
	</g>
	<path class="st29" d="M690.1,483.1c0-7-1.5-13.6-4.3-19.6c-0.9-1.9-1.8-3.6-2.9-5.3c-1.8-2.9-4-5.6-6.4-8.1c-0.5-0.5-1.1-1-1.6-1.5
		c-2.2-2-4.6-3.8-7.2-5.4c-3.8-2.3-8.1-4.1-12.5-5.3c-1.5-0.4-3-0.7-4.6-0.9c-2.3-0.4-4.7-0.5-9.8-0.5H338.7h-50.5
		c-25.7,0-46.6,20.9-46.6,46.6v481.8c0,25.7,20.9,46.6,46.6,46.6h355.4c25.7,0,46.6-20.9,46.6-46.6V754.4v0V483.1z"/>
	<rect x="250.1" y="482.4" class="st0" width="397.2" height="520.7"/>
	<polygon class="st30" points="250.1,900.7 652.1,760 656.2,1013.4 250.1,1003.1 	"/>
	<g>
		<defs>
			<polygon id="SVGID_00000000945423957737366680000011414104423092248245_" points="627.2,1008 257.6,991.1 257.6,494.1 628.3,508 
							"/>
		</defs>
		<clipPath id="SVGID_00000170980307889140353900000008777752404598831025_">
			<use xlink:href="#SVGID_00000000945423957737366680000011414104423092248245_"  style="overflow:visible;"/>
		</clipPath>
		<path style="clip-path:url(#SVGID_00000170980307889140353900000008777752404598831025_);fill:#18181C;" d="M633.9,743.5
			c-111.9-3.6-187.7,36.8-187.7,36.8l-38.4-113.9L396.9,597l485,46.9l-56.6,136.3C825.3,780.2,777.1,748.1,633.9,743.5z"/>
		<path style="clip-path:url(#SVGID_00000170980307889140353900000008777752404598831025_);fill:#EED5C1;" d="M845.4,958.4
			c0,0-3.7-8.1-56.8-26.7c-53.1-18.6-92.4-44-92.4-83.7c0-39.7,0-104.5,0-104.5H574.1c0,0,0,64.8,0,104.5
			c0,39.7-39.3,65.1-92.4,83.7c-53.1,18.6-56.8,26.7-56.8,26.7l42.4,150.4H803l162.3,168.2L845.4,958.4z"/>
		<path style="clip-path:url(#SVGID_00000170980307889140353900000008777752404598831025_);fill:#F6E2D0;" d="M890.2,446.9
			c0,193.6-86.1,352.2-253.1,352.2c-166.9,0-259.7-160.3-259.7-353.9c0-193.6,95.5-213.3,262.5-213.3
			C806.9,231.9,890.2,253.3,890.2,446.9z"/>
		<path style="clip-path:url(#SVGID_00000170980307889140353900000008777752404598831025_);fill:#EA5B27;" d="M635.8,577.2"/>
		<path style="clip-path:url(#SVGID_00000170980307889140353900000008777752404598831025_);fill:#4D2B74;" d="M848.6,953.9
			c-21-11.7-89.2-42.8-89.2-42.8c-13.2,27.5-99.3,52.2-99.3,52.2l-24,62.8l0-0.1l0,0.1l-24-62.8c0,0-86.1-24.6-99.3-52.2
			c0,0-68.2,31.1-89.2,42.8c-13.4,7.4-91.9,231.8-91.9,231.8l74.2,44.1l58.7-121.1l34,168.2h128.1h5.8h0.7h2.9h2.9h0.7h5.8h128.1
			l34-168.2l58.7,121.1l74.2-44.1C940.5,1185.8,862,961.3,848.6,953.9z"/>
		<g style="clip-path:url(#SVGID_00000170980307889140353900000008777752404598831025_);">
			<path class="st11" d="M621,986.8l-1.4-3.8c-53.2-3.9-100.4-26.4-132.5-60c-1.1,0.5-2.3,1.1-3.5,1.6
				C516.8,959.7,565.7,983.1,621,986.8z"/>
			<path class="st11" d="M788.5,924.6c-1.2-0.5-2.3-1.1-3.5-1.6c-32.2,33.6-79.3,56.1-132.5,60l-1.4,3.8
				C706.4,983.1,755.4,959.7,788.5,924.6z"/>
		</g>
		
			<radialGradient id="SVGID_00000050645329215750752560000005733169763203939471_" cx="781.415" cy="644.0883" r="45.2659" gradientTransform="matrix(1.0004 0 0 1 -0.2888 0)" gradientUnits="userSpaceOnUse">
			<stop  offset="0" style="stop-color:#EFC2A8"/>
			<stop  offset="1" style="stop-color:#F6E2D0"/>
		</radialGradient>
		
			<path style="clip-path:url(#SVGID_00000170980307889140353900000008777752404598831025_);fill:url(#SVGID_00000050645329215750752560000005733169763203939471_);" d="
			M826.7,644.1c0,25-20.3,45.2-45.3,45.2c-25,0-45.3-20.3-45.3-45.2c0-25,20.3-45.3,45.3-45.3C806.5,598.8,826.7,619.1,826.7,644.1z
			"/>
		
			<radialGradient id="SVGID_00000156574911038807476080000008040578416075859850_" cx="492.6883" cy="644.0883" r="45.2659" gradientTransform="matrix(1.0004 0 0 1 -0.2888 0)" gradientUnits="userSpaceOnUse">
			<stop  offset="0" style="stop-color:#EFC2A8"/>
			<stop  offset="1" style="stop-color:#F6E2D0"/>
		</radialGradient>
		
			<path style="clip-path:url(#SVGID_00000170980307889140353900000008777752404598831025_);fill:url(#SVGID_00000156574911038807476080000008040578416075859850_);" d="
			M537.9,644.1c0,25-20.3,45.2-45.3,45.2s-45.3-20.3-45.3-45.2c0-25,20.3-45.3,45.3-45.3S537.9,619.1,537.9,644.1z"/>
		<path style="clip-path:url(#SVGID_00000170980307889140353900000008777752404598831025_);fill:#302D2E;" d="M947.1,534.5
			c0-172.3-69.2-367.1-312.7-367.1S321.7,362.2,321.7,534.5c0,98,51.6,265.1,124.5,245.8c-21.6-68.1-29.7-164.9-29.7-225.9
			c0-172.3,97.5-188.8,217.9-188.8c120.3,0,217.9,16.5,217.9,188.8c0,61-8.1,157.9-29.7,225.9"/>
		<path style="clip-path:url(#SVGID_00000170980307889140353900000008777752404598831025_);fill:#2D2D31;" d="M372.6,435.1
			c0,0,97.2,51.4,257.7,51.4s295.6-51.4,295.6-51.4l-202.5-96.9H523.3l-130.2,25.7"/>
		<path style="clip-path:url(#SVGID_00000170980307889140353900000008777752404598831025_);fill:#2D2D31;" d="M324.4,476.8
			c0,0-23.2,173,62.6,334.6c0,0,33.5-21.8,56.3-31.2c0,0-30.9-112.6-30.7-241L324.4,476.8z"/>
		<path style="clip-path:url(#SVGID_00000170980307889140353900000008777752404598831025_);fill:#2D2D31;" d="M944.3,476.8
			c0,0,23.2,173-62.6,334.6c0,0-33.5-21.8-56.3-31.2c0,0,30.9-112.6,30.7-241L944.3,476.8z"/>
		<g style="clip-path:url(#SVGID_00000170980307889140353900000008777752404598831025_);">
			<path class="st16" d="M572.4,1276.9c-18-266.7-32.8-387.9-56.4-372.8c-38.8,24.9-108.5,42.6-108.5,42.6l-110,330.2h95.3
				l53.9-125.2l26.4,125.2H572.4z"/>
			<path class="st17" d="M446.2,1151.7c0.2-18,0.1-36.1-0.8-54.1c-0.7-18-1.9-35.9-4-53.7c-1.1-8.9-2.4-17.7-4.2-26.5
				c-1.7-8.7-3.5-17.4-5.5-25.9c-1-4.3-2.2-8.5-3.5-12.6c-1.3-4.2-2.8-8.2-4.6-12.1c-3.6-7.8-8.3-15.2-16.3-19.5l0.3-0.9
				c4.6,0.8,9,3.2,12.6,6.3c3.6,3.1,6.7,6.8,9.3,10.8c5.2,7.9,8.7,16.7,11.5,25.5c5.6,17.8,6.8,36.2,8.1,54.3
				c1.2,18.2,1.4,36.3,1.1,54.4c-0.5,18.1-1.4,36.2-3.2,54.2L446.2,1151.7z"/>
		</g>
		<g style="clip-path:url(#SVGID_00000170980307889140353900000008777752404598831025_);">
			<path class="st16" d="M698.4,1276.9c18-266.7,32.8-387.9,56.4-372.8c38.8,24.9,108.5,42.6,108.5,42.6l110,330.2H878l-53.9-125.2
				l-26.4,125.2H698.4z"/>
			<path class="st17" d="M824.6,1151.7c-0.2-18-0.1-36.1,0.8-54.1c0.7-18,1.9-35.9,4-53.7c1.1-8.9,2.4-17.7,4.2-26.5
				c1.7-8.7,3.5-17.4,5.5-25.9c1-4.3,2.2-8.5,3.5-12.6c1.3-4.2,2.8-8.2,4.6-12.1c3.6-7.8,8.3-15.2,16.3-19.5l-0.3-0.9
				c-4.6,0.8-9,3.2-12.6,6.3c-3.6,3.1-6.7,6.8-9.3,10.8c-5.2,7.9-8.7,16.7-11.5,25.5c-5.6,17.8-6.8,36.2-8.1,54.3
				c-1.2,18.2-1.4,36.3-1.1,54.4c0.5,18.1,1.4,36.2,3.2,54.2L824.6,1151.7z"/>
		</g>
		<path style="clip-path:url(#SVGID_00000170980307889140353900000008777752404598831025_);fill:#EA5B27;" d="M494.4,938"/>
		<g style="clip-path:url(#SVGID_00000170980307889140353900000008777752404598831025_);">
			<path class="st18" d="M635.9,939.7c-16.7,0-30.3-13.6-30.3-30.2c0-16.7,13.6-30.2,30.3-30.2c16.7,0,30.3,13.6,30.3,30.2
				C666.1,926.2,652.6,939.7,635.9,939.7z M635.9,891.5c-9.9,0-18,8.1-18,18c0,9.9,8.1,18,18,18c9.9,0,18-8.1,18-18
				C653.9,899.6,645.8,891.5,635.9,891.5z"/>
		</g>
		
			<path style="clip-path:url(#SVGID_00000170980307889140353900000008777752404598831025_);fill:none;stroke:#D5D7D8;stroke-width:2.3527;stroke-miterlimit:10;" d="
			M610.4,909.2c0-14.1,11.4-25.5,25.5-25.5c14.1,0,25.5,11.4,25.5,25.5"/>
		
			<path style="clip-path:url(#SVGID_00000170980307889140353900000008777752404598831025_);fill:none;stroke:#D5D7D8;stroke-width:2.3527;stroke-linecap:round;stroke-miterlimit:10;" d="
			M658,919.3c-3.8,7-11.2,11.7-19.7,11.7c-8.5,0-15.9-4.7-19.7-11.7"/>
		<path style="clip-path:url(#SVGID_00000170980307889140353900000008777752404598831025_);fill:#494746;" d="M624.1,898
			c-12-1.2-54.4-15.2-59.9-23.7c0,0-9.8,14.6-12.8,16.4c0,0,37.7,24.4,69.1,24.4C620.5,915,618.6,905.3,624.1,898z"/>
		<path style="clip-path:url(#SVGID_00000170980307889140353900000008777752404598831025_);fill:#494746;" d="M646.2,898
			c12-1.2,54.4-15.2,59.9-23.7c0,0,9.8,14.6,12.8,16.4c0,0-37.7,24.4-69.1,24.4C649.9,915,651.8,905.3,646.2,898z"/>
		<path style="clip-path:url(#SVGID_00000170980307889140353900000008777752404598831025_);fill:#423D3F;" d="M876.5,451.2l-6-18.5
			c-2.1-6.1-4.4-12.2-6.6-18.4l-3.5-9.1c-1.1-3-2.2-6.1-3.6-9.1c-1.4-2.9-3-5.8-4.5-8.7c-1.5-2.9-3.1-5.8-4.8-8.6
			c-6.4-11.4-13.5-22.4-21.5-32.7c-4-5.2-8.2-10.1-12.7-14.8c-4.6-4.6-9.3-9.1-14.9-12.5c9.2,9,15.9,20,22.1,31
			c6,11.2,11.4,22.6,15.9,34.4c2.5,5.8,4.3,11.9,6.6,17.8c2.3,5.9,5,11.6,7.2,17.5l6.4,17.9l3.4,10.5
			c-35.4,7.7-71.7,13.4-107.9,17.8c-38.9,4.7-78,7.4-117.1,8.1c-19.5,0.2-39.1,0-58.6-1c-19.5-1.1-38.9-2.7-58.2-5.3
			c-19.3-2.7-38.4-6.1-57.3-10.7c-16.8-4.2-33.2-9.3-49.3-15.3c0.8-2.9,1.6-5.9,2.5-8.8c0.8-2.5,1.6-5,2.5-7.4
			c0.9-2.4,1.8-4.9,2.6-7.4c2.9-10.1,6.2-20.1,10.2-29.9c1.9-5,4.1-9.7,6.1-14.7c2.3-4.8,4.4-9.7,7-14.4
			c4.8-9.5,10.3-18.7,16.2-27.8c-7.3,7.9-14.6,16-20.8,24.9c-3.3,4.3-6.2,8.9-9.3,13.4c-2.9,4.6-5.8,9.2-8.5,14
			c-5.4,9.5-10.4,19.3-14.8,29.4c-2,5.1-3.4,10.4-5.1,15.7c-1.6,5.3-3.1,10.5-4.3,16.2l-1.3,6l5.8,2.3c18.7,7.4,37.9,13.3,57.3,18.2
			c19.4,4.8,39.1,8.2,58.8,11c19.7,2.7,39.6,4.3,59.4,5.4c19.8,1,39.7,1.2,59.5,1c39.7-0.6,79.3-3.5,118.6-8.2
			c39.4-4.8,78.4-11,117.3-19.7l7.7-1.7L876.5,451.2z"/>
		<g style="clip-path:url(#SVGID_00000170980307889140353900000008777752404598831025_);">
			<path class="st23" d="M551.8,685.2c25.9,15.7,53.6,25.4,81.7,25c28.3,0,55.4-10.9,82.3-25c-9.9,11.7-22.3,21.3-36.3,28.3
				c-14,7.1-29.9,10.9-45.9,11.2c-16,0-32-3.5-46.1-10.5C573.6,707.3,560.9,697.6,551.8,685.2z"/>
			<g>
				<g>
					<path class="st24" d="M563.9,561.3c0,21.9-18,39.7-40.1,39.7c-22.2,0-40.1-17.8-40.1-39.7c0-21.9,17.9-39.7,40.1-39.7
						C545.9,521.6,563.9,539.4,563.9,561.3z"/>
					<path class="st25" d="M553.6,561.2c0,15.3-12.4,27.7-27.7,27.7c-15.3,0-27.7-12.4-27.7-27.7c0-15.3,12.4-27.7,27.7-27.7
						C541.2,533.6,553.6,546,553.6,561.2z"/>
					<path class="st26" d="M514.2,554.2c0,4.4-3.6,8-8,8c-4.4,0-8-3.6-8-8c0-4.4,3.6-8,8-8C510.6,546.2,514.2,549.8,514.2,554.2z"/>
					<path class="st27" d="M588.8,577.2c0,0-34.7-47.2-84.6-40.6c-50,6.6-55.8,30.3-55.8,30.3l2-70.4l33.2,2.5l127,27.5L588.8,577.2
						z"/>
					<path class="st28" d="M584.1,571.7c-8.7-7.7-17.8-14.5-27.4-20.1c-9.6-5.6-19.7-9.8-30.3-11.9c-5.3-1-10.6-1.5-16-1.5
						c-5.4,0-10.7,0.8-16.1,1.9c-10.7,2.4-21.1,6.7-31.6,11.8c8-8.4,18.1-15.1,29.5-19.2c5.7-1.9,11.7-3.3,17.8-3.7
						c6.1-0.4,12.3,0,18.3,1.2c12,2.4,23.2,7.9,32.6,15.1C570.4,552.6,578.6,561.4,584.1,571.7z"/>
				</g>
				<g>
					<path class="st24" d="M703.9,561.3c0,21.9,18,39.7,40.1,39.7c22.2,0,40.1-17.8,40.1-39.7c0-21.9-17.9-39.7-40.1-39.7
						C721.8,521.6,703.9,539.4,703.9,561.3z"/>
					<path class="st25" d="M714.2,561.2c0,15.3,12.4,27.7,27.7,27.7c15.3,0,27.7-12.4,27.7-27.7c0-15.3-12.4-27.7-27.7-27.7
						C726.6,533.6,714.2,546,714.2,561.2z"/>
					<path class="st26" d="M714.4,554.2c0,4.4,3.6,8,8,8c4.4,0,8-3.6,8-8c0-4.4-3.6-8-8-8C718,546.2,714.4,549.8,714.4,554.2z"/>
					<path class="st27" d="M678.9,577.2c0,0,34.7-47.2,84.6-40.6c50,6.6,55.8,30.3,55.8,30.3l-2-70.4l-33.2,2.5l-127,27.5
						L678.9,577.2z"/>
					<path class="st28" d="M683.6,571.7c5.6-10.3,13.7-19.1,23.1-26.4c9.5-7.2,20.6-12.8,32.6-15.1c6-1.2,12.2-1.6,18.3-1.2
						c6.1,0.4,12.1,1.8,17.8,3.7c11.3,4.2,21.5,10.8,29.5,19.2c-10.5-5.1-20.9-9.5-31.6-11.8c-5.4-1-10.7-1.8-16.1-1.9
						c-5.4,0-10.7,0.5-16,1.5c-10.5,2.1-20.7,6.4-30.3,11.9C701.4,557.2,692.3,564,683.6,571.7z"/>
				</g>
			</g>
		</g>
	</g>
	<polygon class="st2" points="432.3,477.3 366.1,485.1 658.1,751.8 641,473 	"/>
	<g>
		<path class="st3" d="M273.1,507.7h355.4v456.2H273.1 M226.5,499.9v481.8c0,25.7,20.9,46.6,46.6,46.6h355.4
			c25.7,0,46.6-20.9,46.6-46.6V499.9c0-25.7-20.9-46.6-46.6-46.6H273.1C247.4,453.3,226.5,474.2,226.5,499.9L226.5,499.9z"/>
	</g>
	<path class="st4" d="M675.1,771.2V499.9c0-25.7-20.9-46.6-46.6-46.6H326.4l60.3,54l241.9,0.3v221.1L675.1,771.2z"/>
	<circle class="st45" cx="448.4" cy="995.4" r="18"/>
	<path class="st29" d="M821.9,628.9h-4.8H674.8h-38c-21.5,0-39,17.4-39,39V1065c0,24.2,19.6,43.8,43.8,43.8H653v0h164.1
		c24.2,0,43.8-19.6,43.8-43.8V869.5l0,0v-26.8V667.8C860.9,646.3,843.4,628.9,821.9,628.9z"/>
	<polygon class="st0" points="828.8,1059.7 597.5,1059.7 597.5,655.1 830.1,655.1 	"/>
	<g>
		<defs>
			<rect id="SVGID_00000123424287766198771740000009211572170497647524_" x="603.5" y="666.1" width="216.7" height="386.6"/>
		</defs>
		<clipPath id="SVGID_00000147214949577497186600000005512710402594052518_">
			<use xlink:href="#SVGID_00000123424287766198771740000009211572170497647524_"  style="overflow:visible;"/>
		</clipPath>
		<path style="clip-path:url(#SVGID_00000147214949577497186600000005512710402594052518_);fill:#18181C;" d="M630.8,744.7
			c-108.2-3.5-181.5,35.6-181.5,35.6l-37.2-110.2l-10.5-67l469.1,45.4l-54.8,131.9C815.9,780.3,769.3,749.3,630.8,744.7z"/>
		<path style="clip-path:url(#SVGID_00000147214949577497186600000005512710402594052518_);fill:#EED5C1;" d="M835.4,948.6
			c0,0-3.6-7.8-54.9-25.8c-51.3-18-89.4-42.6-89.4-81c0-38.4,0-101.1,0-101.1H573c0,0,0,62.7,0,101.1c0,38.4-38,63-89.4,81
			c-51.4,18-54.9,25.8-54.9,25.8l41,145.5h324.7l156.9,162.7L835.4,948.6z"/>
		<path style="clip-path:url(#SVGID_00000147214949577497186600000005512710402594052518_);fill:#F6E2D0;" d="M878.7,457.8
			c0,187.3-83.3,340.8-244.8,340.8c-161.5,0-251.1-155.1-251.1-342.5c0-187.4,92.4-206.4,253.9-206.4
			C798.2,249.8,878.7,270.5,878.7,457.8z"/>
		<path style="clip-path:url(#SVGID_00000147214949577497186600000005512710402594052518_);fill:#EA5B27;" d="M632.6,583.9"/>
		<path style="clip-path:url(#SVGID_00000147214949577497186600000005512710402594052518_);fill:#4D2B74;" d="M838.5,948.4
			c-20.3-11.3-86.3-41.4-86.3-41.4c-12.8,26.7-96,50.5-96,50.5l-23.2,60.7l0-0.1l0,0.1l-23.2-60.7c0,0-83.3-23.8-96-50.5
			c0,0-66,30.1-86.3,41.4c-12.9,7.2-88.8,224.3-88.8,224.3l71.7,42.7l56.7-117.2l32.9,162.7h123.9h5.6h0.7h2.8h2.8h0.7h5.6h123.9
			l32.9-162.7l56.7,117.2l71.7-42.7C927.3,1172.7,851.4,955.5,838.5,948.4z"/>
		<g style="clip-path:url(#SVGID_00000147214949577497186600000005512710402594052518_);">
			<path class="st11" d="M618.4,980.2l-1.4-3.6c-51.5-3.8-97.1-25.6-128.2-58.1c-1.1,0.5-2.2,1-3.4,1.6
				C517.5,954,564.9,976.6,618.4,980.2z"/>
			<path class="st11" d="M780.4,920c-1.1-0.5-2.3-1.1-3.4-1.6c-31.1,32.5-76.7,54.3-128.2,58.1l-1.4,3.6
				C701,976.6,748.3,954,780.4,920z"/>
		</g>
		
			<radialGradient id="SVGID_00000033357743416730677130000007551069949641663640_" cx="773.5209" cy="648.5777" r="43.7986" gradientUnits="userSpaceOnUse">
			<stop  offset="0" style="stop-color:#EFC2A8"/>
			<stop  offset="1" style="stop-color:#F6E2D0"/>
		</radialGradient>
		
			<path style="clip-path:url(#SVGID_00000147214949577497186600000005512710402594052518_);fill:url(#SVGID_00000033357743416730677130000007551069949641663640_);" d="
			M817.3,648.6c0,24.2-19.6,43.8-43.8,43.8s-43.8-19.6-43.8-43.8c0-24.2,19.6-43.8,43.8-43.8S817.3,624.4,817.3,648.6z"/>
		
			<radialGradient id="SVGID_00000003823129216429248570000007879545527859611299_" cx="494.1537" cy="648.5777" r="43.7986" gradientUnits="userSpaceOnUse">
			<stop  offset="0" style="stop-color:#EFC2A8"/>
			<stop  offset="1" style="stop-color:#F6E2D0"/>
		</radialGradient>
		
			<path style="clip-path:url(#SVGID_00000147214949577497186600000005512710402594052518_);fill:url(#SVGID_00000003823129216429248570000007879545527859611299_);" d="
			M538,648.6c0,24.2-19.6,43.8-43.8,43.8s-43.8-19.6-43.8-43.8c0-24.2,19.6-43.8,43.8-43.8S538,624.4,538,648.6z"/>
		<path style="clip-path:url(#SVGID_00000147214949577497186600000005512710402594052518_);fill:#302D2E;" d="M933.7,542.5
			c0-166.7-67-355.2-302.4-355.2S328.9,375.8,328.9,542.5c0,94.8,50,256.5,120.4,237.8c-20.9-65.8-28.7-159.5-28.7-218.6
			c0-166.7,94.3-182.6,210.7-182.6c116.4,0,210.7,16,210.7,182.6c0,59.1-7.8,152.7-28.7,218.6"/>
		<path style="clip-path:url(#SVGID_00000147214949577497186600000005512710402594052518_);fill:#2D2D31;" d="M378.1,446.3
			c0,0,94,49.8,249.3,49.8s285.9-49.8,285.9-49.8l-195.8-93.8H523.9l-125.9,24.9"/>
		<path style="clip-path:url(#SVGID_00000147214949577497186600000005512710402594052518_);fill:#2D2D31;" d="M331.5,486.7
			c0,0-22.4,167.4,60.5,323.8c0,0,32.4-21.1,54.5-30.2c0,0-29.8-109-29.7-233.1L331.5,486.7z"/>
		<path style="clip-path:url(#SVGID_00000147214949577497186600000005512710402594052518_);fill:#2D2D31;" d="M931,486.7
			c0,0,22.4,167.4-60.5,323.8c0,0-32.4-21.1-54.5-30.2c0,0,29.8-109,29.7-233.1L931,486.7z"/>
		<g style="clip-path:url(#SVGID_00000147214949577497186600000005512710402594052518_);">
			<path class="st16" d="M571.3,1260.9c-17.4-258.1-31.7-375.3-54.5-360.7c-37.6,24.1-104.9,41.2-104.9,41.2l-106.4,319.5h92.1
				l52.1-121.1l25.5,121.1H571.3z"/>
			<path class="st17" d="M449.3,1139.8c0.2-17.5,0.1-34.9-0.7-52.3c-0.6-17.4-1.8-34.8-3.9-52c-1.1-8.6-2.3-17.2-4.1-25.6
				c-1.6-8.4-3.4-16.8-5.3-25.1c-1-4.1-2.1-8.2-3.4-12.2c-1.2-4-2.7-7.9-4.4-11.8c-3.5-7.5-8.1-14.7-15.7-18.9l0.3-0.9
				c4.4,0.8,8.7,3.1,12.2,6.1c3.5,3,6.5,6.6,9,10.5c5,7.7,8.4,16.2,11.1,24.7c5.4,17.2,6.6,35,7.8,52.5c1.1,17.6,1.4,35.1,1.1,52.6
				c-0.5,17.5-1.3,35-3.1,52.4L449.3,1139.8z"/>
		</g>
		<g style="clip-path:url(#SVGID_00000147214949577497186600000005512710402594052518_);">
			<path class="st16" d="M693.2,1260.9c17.4-258.1,31.7-375.3,54.5-360.7c37.6,24.1,104.9,41.2,104.9,41.2L959,1260.9h-92.1
				l-52.1-121.1l-25.5,121.1H693.2z"/>
			<path class="st17" d="M815.2,1139.8c-0.2-17.5-0.1-34.9,0.7-52.3c0.6-17.4,1.8-34.8,3.9-52c1.1-8.6,2.3-17.2,4.1-25.6
				c1.6-8.4,3.4-16.8,5.3-25.1c1-4.1,2.1-8.2,3.4-12.2c1.2-4,2.7-7.9,4.4-11.8c3.5-7.5,8.1-14.7,15.7-18.9l-0.3-0.9
				c-4.4,0.8-8.7,3.1-12.2,6.1c-3.5,3-6.5,6.6-9,10.5c-5,7.7-8.4,16.2-11.1,24.7c-5.4,17.2-6.6,35-7.8,52.5
				c-1.1,17.6-1.4,35.1-1.1,52.6c0.5,17.5,1.3,35,3.1,52.4L815.2,1139.8z"/>
		</g>
		<path style="clip-path:url(#SVGID_00000147214949577497186600000005512710402594052518_);fill:#EA5B27;" d="M495.8,932.9"/>
		<g style="clip-path:url(#SVGID_00000147214949577497186600000005512710402594052518_);">
			<path class="st18" d="M632.7,934.6c-16.1,0-29.3-13.1-29.3-29.3s13.1-29.3,29.3-29.3s29.3,13.1,29.3,29.3
				S648.9,934.6,632.7,934.6z M632.7,887.9c-9.6,0-17.4,7.8-17.4,17.4c0,9.6,7.8,17.4,17.4,17.4s17.4-7.8,17.4-17.4
				C650.2,895.8,642.3,887.9,632.7,887.9z"/>
		</g>
		
			<path style="clip-path:url(#SVGID_00000147214949577497186600000005512710402594052518_);fill:none;stroke:#D5D7D8;stroke-width:2.3527;stroke-miterlimit:10;" d="
			M608.1,905.1c0-13.6,11-24.7,24.7-24.7c13.6,0,24.7,11,24.7,24.7"/>
		
			<path style="clip-path:url(#SVGID_00000147214949577497186600000005512710402594052518_);fill:none;stroke:#D5D7D8;stroke-width:2.3527;stroke-linecap:round;stroke-miterlimit:10;" d="
			M654.1,914.9c-3.7,6.7-10.8,11.3-19,11.3c-8.2,0-15.4-4.6-19-11.3"/>
		<path style="clip-path:url(#SVGID_00000147214949577497186600000005512710402594052518_);fill:#494746;" d="M621.4,894.3
			c-11.6-1.2-52.6-14.7-58-22.9c0,0-9.5,14.1-12.4,15.8c0,0,36.5,23.7,66.8,23.6C617.8,910.7,616,901.3,621.4,894.3z"/>
		<path style="clip-path:url(#SVGID_00000147214949577497186600000005512710402594052518_);fill:#494746;" d="M642.7,894.3
			c11.6-1.2,52.6-14.7,58-22.9c0,0,9.5,14.1,12.4,15.8c0,0-36.5,23.7-66.8,23.6C646.3,910.7,648.1,901.3,642.7,894.3z"/>
		<path style="clip-path:url(#SVGID_00000147214949577497186600000005512710402594052518_);fill:#423D3F;" d="M865.5,461.9
			l-5.8-17.9c-2.1-5.9-4.2-11.8-6.3-17.8l-3.4-8.8c-1.1-2.9-2.1-5.9-3.5-8.8c-1.4-2.8-2.9-5.6-4.4-8.4c-1.4-2.8-3-5.6-4.6-8.3
			c-6.2-11-13.1-21.7-20.8-31.7c-3.8-5-8-9.8-12.3-14.4c-4.5-4.4-9-8.8-14.4-12.1c8.9,8.7,15.4,19.3,21.3,30
			c5.8,10.8,11,21.9,15.4,33.3c2.4,5.6,4.2,11.5,6.4,17.2c2.2,5.7,4.8,11.2,7,17l6.2,17.3l3.3,10.2c-34.3,7.4-69.3,13-104.3,17.2
			c-37.6,4.5-75.4,7.2-113.2,7.8c-18.9,0.2-37.8,0-56.7-1c-18.8-1.1-37.6-2.6-56.3-5.1c-18.6-2.6-37.2-5.9-55.4-10.3
			c-16.2-4.1-32.1-9-47.7-14.8c0.8-2.8,1.6-5.7,2.4-8.5c0.7-2.4,1.5-4.8,2.4-7.2c0.9-2.4,1.8-4.8,2.5-7.2c2.8-9.8,6-19.5,9.8-29
			c1.8-4.8,4-9.4,5.9-14.2c2.2-4.6,4.3-9.4,6.7-13.9c4.6-9.2,10-18.1,15.6-26.9c-7,7.6-14.1,15.5-20.2,24c-3.2,4.2-6,8.6-9,13
			c-2.8,4.5-5.6,8.9-8.2,13.6c-5.2,9.2-10.1,18.6-14.3,28.4c-1.9,4.9-3.3,10.1-4.9,15.2c-1.5,5.1-3,10.1-4.2,15.7l-1.3,5.8l5.6,2.2
			c18.1,7.1,36.6,12.9,55.4,17.6c18.8,4.6,37.8,7.9,56.9,10.6c19.1,2.6,38.3,4.2,57.5,5.2c19.2,1,38.4,1.2,57.6,1
			c38.4-0.6,76.7-3.4,114.7-7.9c38.1-4.6,75.8-10.6,113.5-19.1l7.5-1.7L865.5,461.9z"/>
		<g style="clip-path:url(#SVGID_00000147214949577497186600000005512710402594052518_);">
			<path class="st23" d="M551.4,688.4c25.1,15.2,51.9,24.6,79.1,24.2c27.3,0,53.5-10.6,79.6-24.2c-9.6,11.3-21.5,20.6-35.1,27.4
				c-13.5,6.8-28.9,10.6-44.4,10.8c-15.5,0-30.9-3.4-44.5-10.2C572.5,709.8,560.2,700.4,551.4,688.4z"/>
			<g>
				<g>
					<path class="st24" d="M563.1,568.4c0,21.2-17.4,38.4-38.8,38.4c-21.4,0-38.8-17.2-38.8-38.4c0-21.2,17.4-38.4,38.8-38.4
						C545.7,530.1,563.1,547.2,563.1,568.4z"/>
					<path class="st25" d="M553.1,568.4c0,14.8-12,26.8-26.8,26.8c-14.8,0-26.8-12-26.8-26.8c0-14.8,12-26.8,26.8-26.8
						C541.1,541.7,553.1,553.7,553.1,568.4z"/>
					<path class="st26" d="M515,561.6c0,4.3-3.5,7.8-7.7,7.8c-4.3,0-7.8-3.5-7.8-7.8c0-4.3,3.5-7.7,7.8-7.7
						C511.6,553.9,515,557.4,515,561.6z"/>
					<path class="st27" d="M587.2,583.9c0,0-33.5-45.7-81.9-39.3s-54,29.3-54,29.3l2-68.1l32.1,2.4l122.8,26.6L587.2,583.9z"/>
					<path class="st28" d="M582.7,578.6c-8.4-7.5-17.2-14-26.5-19.4c-9.3-5.4-19.1-9.5-29.3-11.5c-5.1-1-10.3-1.5-15.5-1.4
						c-5.2,0-10.4,0.8-15.6,1.8c-10.4,2.3-20.5,6.5-30.6,11.5c7.8-8.2,17.6-14.6,28.5-18.6c5.5-1.9,11.3-3.2,17.2-3.6
						c5.9-0.4,11.9,0,17.7,1.1c11.7,2.3,22.4,7.7,31.6,14.6C569.4,560.1,577.3,568.6,582.7,578.6z"/>
				</g>
				<g>
					<path class="st24" d="M698.5,568.4c0,21.2,17.4,38.4,38.8,38.4c21.4,0,38.8-17.2,38.8-38.4c0-21.2-17.4-38.4-38.8-38.4
						C715.9,530.1,698.5,547.2,698.5,568.4z"/>
					<path class="st25" d="M708.4,568.4c0,14.8,12,26.8,26.8,26.8c14.8,0,26.8-12,26.8-26.8c0-14.8-12-26.8-26.8-26.8
						C720.4,541.7,708.4,553.7,708.4,568.4z"/>
					<path class="st26" d="M708.7,561.6c0,4.3,3.5,7.8,7.7,7.8c4.3,0,7.8-3.5,7.8-7.8c0-4.3-3.5-7.7-7.8-7.7
						C712.2,553.9,708.7,557.4,708.7,561.6z"/>
					<path class="st27" d="M674.3,583.9c0,0,33.5-45.7,81.9-39.3s54,29.3,54,29.3l-2-68.1l-32.1,2.4l-122.8,26.6L674.3,583.9z"/>
					<path class="st28" d="M678.9,578.6c5.4-10,13.3-18.5,22.3-25.6c9.1-7,19.9-12.4,31.6-14.6c5.8-1.1,11.8-1.5,17.7-1.1
						c5.9,0.4,11.7,1.7,17.2,3.6c11,4,20.8,10.4,28.5,18.6c-10.1-5-20.2-9.2-30.6-11.5c-5.2-1-10.4-1.8-15.6-1.8
						c-5.2,0-10.4,0.4-15.5,1.4c-10.2,2-20,6.1-29.3,11.5C696.1,564.5,687.3,571.1,678.9,578.6z"/>
				</g>
			</g>
		</g>
	</g>
	<polygon class="st2" points="835.9,923.5 838,866.5 656.2,1098 839,1094.8 	"/>
	<path class="st3" d="M806,639h-4.9H656.6H618c-21.8,0-39.6,17.7-39.6,39.6v403.4c0,24.6,19.9,44.5,44.5,44.5h178.2
		c24.6,0,44.5-19.9,44.5-44.5V883.3l0,0V678.5C845.6,656.7,827.9,639,806,639z M707.2,1107.8c-10.1,0-18.3-8.2-18.3-18.3
		s8.2-18.3,18.3-18.3c10.1,0,18.3,8.2,18.3,18.3S717.3,1107.8,707.2,1107.8z M820.4,1044.6c0,2.7-2.2,4.9-4.9,4.9H608.6
		c-2.7,0-4.9-2.2-4.9-4.9V669.8c0.3-1.9,1.4-3.8,4.6-4h68.6v0h138.5c2.7,0,4.9,2.2,4.9,4.9v182.9l0,0V1044.6z"/>
	<rect x="677.5" y="1069" class="st60" width="62.5" height="49.3"/>
	<path class="st4" d="M634.4,1126.4h166.7c24.6,0,44.5-19.9,44.5-44.5V883.3l0,0v-27.2l-25.2,32.3v156.1c0,2.7-2.2,4.9-4.9,4.9
		H694.6L634.4,1126.4z M725.5,1089.6c0,10.1-8.2,18.3-18.3,18.3c-10.1,0-18.3-8.2-18.3-18.3c0-10.1,8.2-18.3,18.3-18.3
		C717.3,1071.3,725.5,1079.5,725.5,1089.6z"/>
</g>
</svg>
