<?xml version="1.0" encoding="utf-8"?>
<!-- Generator: Adobe Illustrator 26.5.0, SVG Export Plug-In . SVG Version: 6.00 Build 0)  -->
<svg version="1.1" id="_x2014_ÎÓÈ_x5F_1" xmlns="http://www.w3.org/2000/svg" xmlns:xlink="http://www.w3.org/1999/xlink"
	 x="0px" y="0px" viewBox="0 0 1231.8 1240.6" style="enable-background:new 0 0 1231.8 1240.6;" xml:space="preserve">
<style type="text/css">
	.st0{fill:#C6236E;}
	.st1{fill:#B42065;}
	.st2{opacity:0.56;}
	.st3{fill:#FFFFFE;}
	.st4{fill:#231F20;}
	.st5{fill:#FFE4AF;}
	.st6{fill:#383838;}
	.st7{fill:#FFFFFF;}
	.st8{fill:#F9D398;}
	.st9{fill:#E7E7E7;}
	.st10{fill:none;stroke:#FFFFFF;stroke-width:3;stroke-miterlimit:10;}
	.st11{fill:#EDCAA0;}
	.st12{fill:#8E6240;}
	.st13{fill:#2A1D01;}
	.st14{fill:#A7846F;}
	.st15{fill:#A7713F;}
	.st16{fill:#885929;}
	.st17{fill:#9F6833;}
	.st18{fill:#744B20;}
	.st19{fill:#111111;}
	.st20{fill:#333333;}
	.st21{fill:#1E1E1E;}
	.st22{opacity:0.1;fill:#FFFFFF;}
	.st23{opacity:0.1;fill:#E9D7BC;}
	.st24{opacity:0.4;fill:#989898;}
	.st25{fill:#754B1D;}
	.st26{fill:#54340A;}
	.st27{fill:#EF5A24;}
</style>
<g>
	<path class="st0" d="M856.1,73.4H375.9c-46.8,0-90.1,25-113.5,65.5L22.4,554.8c-23.4,40.5-23.4,90.5,0,131.1l240.1,415.8
		c23.4,40.5,66.7,65.5,113.5,65.5h480.2c46.8,0,90.1-25,113.5-65.5l240.1-415.8c23.4-40.5,23.4-90.5,0-131.1L969.6,138.9
		C946.2,98.4,902.9,73.4,856.1,73.4z"/>
	<path class="st1" d="M964.3,1110.9l145.2-251.5l-935.1-568l-155,269c-20.1,34.8-19.6,83,0.5,117.8l249.8,432.7
		c20.1,34.8,57.3,56.3,97.5,56.3h499.6C907,1167.2,944.2,1145.7,964.3,1110.9z"/>
	<g class="st2">
		<path class="st3" d="M118.6,882.1l-1-9.9l5-0.5c0.1,0,8.3-0.8,21.6-2.8l4.9-0.7l1.4,9.9l-4.9,0.7c-13.6,2-21.7,2.8-22,2.8
			L118.6,882.1z"/>
		<path class="st3" d="M183.8,872.3l-1.9-9.8l4.9-1c14.5-2.9,28.7-6,42.2-9.5l4.8-1.2l2.5,9.7l-4.8,1.2c-13.7,3.5-28.1,6.7-42.7,9.6
			L183.8,872.3z M268.8,851.1l-3.1-9.5l4.8-1.6c14.4-4.7,28-9.8,40.3-15.1l4.6-2l4,9.2l-4.6,2c-12.6,5.5-26.5,10.7-41.2,15.5
			L268.8,851.1z M349.8,816.6l-5.2-8.5l4.3-2.6c11.7-7.1,21.9-14.7,30.3-22.5l7.1-6.6l6.8,7.3l-7.1,6.6
			c-8.9,8.3-19.6,16.3-31.9,23.7L349.8,816.6z M417.5,760.8l-6.8-7.3l3.7-3.4c8.5-8,19.9-18.5,32-29.6l3.7-3.4l6.8,7.4l-3.7,3.4
			c-12,11-23.4,21.6-31.9,29.5L417.5,760.8z M481.6,702l-6.6-7.5l3.7-3.3c11.5-10.2,22.2-19.5,32.9-28.6l3.8-3.2l6.5,7.6l-3.8,3.2
			c-10.6,9-21.4,18.3-32.8,28.5L481.6,702z M547.6,645.8l-6.3-7.8l3.9-3.1c11.7-9.4,23.3-18.4,34.5-26.7l4-3l6,8l-4,3
			c-11.1,8.3-22.7,17.2-34.3,26.5L547.6,645.8z M616.9,593.8l-5.6-8.3l4.1-2.8c12.4-8.4,24.7-16.4,36.8-23.8l4.3-2.6l5.2,8.5
			l-4.3,2.6c-11.9,7.2-24.1,15.2-36.3,23.5L616.9,593.8z M690.4,548.4l-4.5-8.9l4.5-2.3c12.5-6.4,26.2-12.1,40.7-17.1l4.7-1.6
			l3.3,9.4l-4.7,1.6c-14,4.9-27.3,10.5-39.4,16.6L690.4,548.4z M770.7,518.8l-2.3-9.7l4.9-1.2c12.9-3.1,27-6,42.9-8.8l4.9-0.9
			l1.7,9.8l-4.9,0.9c-15.8,2.8-29.6,5.6-42.3,8.7L770.7,518.8z M855.8,502.8l-1.5-9.9l11.5-1.7c12.6-1.9,24.5-3.7,36.4-5.6l4.9-0.8
			l1.6,9.9l-4.9,0.8c-12,2-23.9,3.8-36.5,5.7L855.8,502.8z M942,488.2l-2.3-9.7l4.9-1.1c15.6-3.6,29-7.7,41-12.3l4.7-1.8l3.6,9.3
			l-4.7,1.8c-12.4,4.8-26.2,9-42.3,12.7L942,488.2z M1024.6,456.5l-5.8-8.2l4.1-2.9c3.7-2.6,7.3-5.4,10.6-8.3
			c8-7,15.5-13.5,22.3-19.3l3.8-3.3l6.5,7.6l-3.8,3.3c-6.8,5.8-14.2,12.3-22.2,19.3c-3.6,3.1-7.4,6.2-11.4,9L1024.6,456.5z"/>
		<path class="st3" d="M1091.5,400.6l-6.3-7.7l3.9-3.2c6.5-5.3,11.3-9,14.4-11.2c2.6-1.8,6.3-4.4,9.5-1.4c1.9,1.7,2.2,4.6,0.7,6.8
			l-2.8,4.2l-1.9-1.3c-2.1,1.5-6.1,4.5-13.6,10.6L1091.5,400.6z"/>
	</g>
	<path class="st4" d="M959.5,1118.4c-40.5-99.7-101.2-244.6-104.4-250.7c-10-19.3-168.5-61.7-182.6-86.7c-5.6-9.9-8.6-20.4-8.6-31.4
		c0-39,0-102.7,0-102.7h-66.1h-1.7h-9l-0.5,91l-22.6-63.4h-1.7h-66.1c0,0,0,63.7,0,102.7c0,11-3,21.6-8.6,31.4
		c-14.1,25.1-172.6,67.5-182.6,86.7c-2,3.9-42.8,80.7-75.4,146.6l39.9,69.1c14.5,25.1,37.8,43.2,64.7,51.4l38.4-103.8l19.1,108.6
		c0.5,0,1,0,1.5,0h386.3l-3.7-116.5l61.3,116.3c2.8-0.2,5.7-0.1,8.7,0.3h20.9C904,1167.2,938.6,1148.8,959.5,1118.4z"/>
	<path d="M659.8,727.2c0.9,25,17.1,61.2-28.6,67.4c-55.4,7.5-132.8,8.8-145.7,16.8c5.3,0.7,12.1,1.3,20.5,1.8
		c47.6,2.8,190.7-17.3,176.8-22.7c-18.9-7.3-18.8-63.3-18.8-63.3H659.8z"/>
	<g>
		<g>
			<path class="st5" d="M1226.3,355.4c0,47.7-38.6,86.3-86.3,86.3c-47.7,0-86.3-38.6-86.3-86.3s38.6-86.3,86.3-86.3
				C1187.7,269,1226.3,307.7,1226.3,355.4"/>
			<path class="st6" d="M1195.5,352.3h-6.2c0-5.1-4.1-9.2-9.2-9.2c-5.1,0-9.2,4.1-9.2,9.2h-6.2c0-8.5,6.9-15.4,15.4-15.4
				C1188.6,336.9,1195.5,343.8,1195.5,352.3"/>
			<path class="st6" d="M1115.3,352.3h-6.2c0-5.1-4.1-9.2-9.2-9.2c-5.1,0-9.2,4.1-9.2,9.2h-6.2c0-8.5,6.9-15.4,15.4-15.4
				C1108.4,336.9,1115.3,343.8,1115.3,352.3"/>
			<path class="st7" d="M1188.9,376.9h-97.8c0.5,4.3,1.7,8.4,3.2,12.3h91.3C1187.2,385.4,1188.4,381.3,1188.9,376.9"/>
			<path class="st0" d="M1094.3,389.3c7.3,18.1,25,30.8,45.7,30.8s38.3-12.8,45.7-30.8H1094.3z"/>
		</g>
	</g>
	<g>
		<g>
			<path class="st5" d="M881.5,488.9c0,47.6-38.6,86.1-86.1,86.1c-47.6,0-86.1-38.6-86.1-86.1s38.6-86.1,86.1-86.1
				C843,402.8,881.5,441.3,881.5,488.9"/>
			<path class="st6" d="M847.7,477c0,6.8-5.5,12.3-12.3,12.3c-6.8,0-12.3-5.5-12.3-12.3c0-6.8,5.5-12.3,12.3-12.3
				C842.2,464.7,847.7,470.2,847.7,477"/>
			<path class="st6" d="M767.7,477c0,6.8-5.5,12.3-12.3,12.3c-6.8,0-12.3-5.5-12.3-12.3c0-6.8,5.5-12.3,12.3-12.3
				C762.2,464.7,767.7,470.2,767.7,477"/>
			<path class="st8" d="M885.9,417.9c-2.3,1.1-3.2,3.9-2.1,6.2l1.4,2.9c1.2,2.5-1.2,5.2-3.7,4.3l-12.7-4.3l-14.6-4.9
				c-2.4-0.8-5,0.5-5.9,2.9c-0.8,2.4,0.5,5,2.9,5.9l14.6,4.9c1.6,0.5,2.5,2.3,1.9,3.9c-0.5,1.6-2.3,2.5-3.9,1.9l-21.8-7.4
				c-2.4-0.8-5,0.5-5.9,2.9c-0.8,2.4,0.5,5,2.9,5.9l21.8,7.4c1.6,0.5,2.5,2.3,1.9,3.9c-0.5,1.6-2.3,2.5-3.9,1.9l-14.6-4.9
				c-2.4-0.8-5,0.5-5.9,2.9c-0.8,2.4,0.5,5,2.9,5.9l14.6,4.9c1.6,0.5,2.5,2.3,1.9,3.9c-0.5,1.6-2.3,2.5-3.9,1.9l-8.8-3
				c-2.4-0.8-5,0.5-5.8,2.9c-0.8,2.4,0.5,5,2.9,5.9l8.7,3l14.6,4.9c9.7,3.3,20.1-1.9,23.4-11.6l9.4-27.7c1.6-4.6,1.2-9.7-0.9-14.1
				l-5.4-10.9C891,417.7,888.2,416.8,885.9,417.9"/>
			<path class="st0" d="M813.8,536.1c0,8.5-6.9,15.4-15.4,15.4c-8.5,0-15.4-6.9-15.4-15.4c0-8.5,6.9-15.4,15.4-15.4
				C807,520.7,813.8,527.6,813.8,536.1"/>
		</g>
		<polygon class="st9" points="800.3,545.5 832.5,567.3 813,582.3 		"/>
		<g>
			<path class="st9" d="M805.5,572.5c3.3-2.6,7.9-2.4,11.1-0.1c0.7-0.9,1.5-1.8,2.4-2.6s2-1.3,3.1-1.7c-1.5-3.7-0.4-8.1,2.9-10.7
				c4-3.1,9.8-2.3,12.9,1.7s2.3,9.8-1.7,12.9c4.1,5.4,3.1,13.1-2.3,17.3c-5.4,4.1-13.1,3.1-17.3-2.3c-4,3.1-9.8,2.3-12.9-1.7
				C800.7,581.4,801.5,575.6,805.5,572.5"/>
		</g>
		<polygon class="st7" points="799.5,542.3 831.8,564.1 812.2,579.1 		"/>
		<g>
			<path class="st7" d="M804.7,569.3c3.3-2.6,7.9-2.4,11.1-0.1c0.7-0.9,1.5-1.8,2.4-2.6c1-0.7,2-1.3,3.1-1.7
				c-1.5-3.7-0.4-8.1,2.9-10.7c4-3.1,9.8-2.3,12.9,1.7c3.1,4,2.3,9.8-1.7,12.9c4.1,5.4,3.1,13.1-2.3,17.3
				c-5.4,4.1-13.1,3.1-17.3-2.3c-4,3.1-9.8,2.3-12.9-1.7C799.9,578.2,800.7,572.4,804.7,569.3"/>
		</g>
	</g>
	<path class="st10" d="M507.4,887.8"/>
	<g>
		<path class="st11" d="M787.1,332.5c23.3,182.1-38.5,341.7-195.5,361.9c-157,20.1-263.5-119.5-286.8-301.6
			c-23.4-182.1,64.1-212.2,221.1-232.3C682.8,140.3,763.7,150.3,787.1,332.5z"/>
		<path class="st12" d="M500.8,477.4c3.2,25-14.7,47.9-40,51.2c-25.3,3.2-48.4-14.4-51.6-39.4c-3.2-25,14.7-47.9,40-51.2
			C474.4,434.7,497.6,452.4,500.8,477.4z"/>
		<path class="st13" d="M489,478.9c2.2,17.5-10.1,33.5-27.6,35.7c-17.5,2.2-33.4-10.1-35.7-27.6c-2.2-17.4,10.1-33.4,27.6-35.7
			C470.8,449.1,486.8,461.5,489,478.9z"/>
		<path class="st7" d="M442,468.3c0.6,5-2.9,9.7-8,10.3c-5.1,0.6-9.7-3-10.3-8c-0.6-5,2.9-9.7,8-10.3
			C436.7,459.7,441.3,463.2,442,468.3z"/>
		<path class="st14" d="M486.3,594.8c30,13.3,61.2,19.9,91.3,15.7c30.4-3.9,58-19.4,85-38.3c-9,13.9-21,26-35.1,35.4
			c-14.1,9.5-30.6,15.9-47.8,18.3c-17.2,2.2-34.8,0.6-51-4.9C512.7,615.5,497.7,606.9,486.3,594.8z"/>
		<path class="st12" d="M623.5,461.7c3.2,25,26.3,42.7,51.6,39.4c25.3-3.2,43.2-26.2,40-51.2c-3.2-25-26.3-42.7-51.6-39.4
			C638.2,413.7,620.3,436.7,623.5,461.7z"/>
		<path class="st13" d="M635.3,460.1c2.2,17.5,18.2,29.8,35.7,27.6c17.5-2.2,29.8-18.2,27.6-35.7c-2.2-17.4-18.2-29.8-35.7-27.6
			C645.4,426.7,633.1,442.7,635.3,460.1z"/>
		<path class="st7" d="M635,443.5c0.6,5,5.3,8.6,10.3,8c5.1-0.6,8.6-5.3,8-10.3s-5.3-8.6-10.3-8C637.9,433.9,634.3,438.5,635,443.5z
			"/>
		<path class="st15" d="M437.1,218.9c0.4,3.3,1.1,6.6,1.9,9.9c0.8,3.3,1.7,6.5,2.9,9.6c1.2,3.1,2.4,6.2,4.1,9.1
			c1.7,2.9,3.6,5.5,6,7.8l-1.4,0.4l2.7-12.6l2.8-12.6l0.5-2.3l1.4,1.9l14.7,20.2l-2,0.4l6.8-23l0.6-2l1.2,1.7
			c3.7,5.1,7.5,10.1,11.1,15.2l-1.5,0l8.5-12.5l0.5-0.7l0.6,0.6l7.6,8.3l-0.7,0l7.9-7.1l0.2-0.2l0.2,0.2c0.9,1.1,2.1,2.1,3.3,3
			c1.2,0.9,2.5,1.7,3.8,2.4c-1.4-0.7-2.7-1.4-4-2.2c-1.3-0.8-2.5-1.7-3.5-3l0.4,0l-7.5,7.4l-0.4,0.3l-0.4-0.4l-7.8-8.1l1.1-0.1
			l-8.2,12.7l-0.7,1.1l-0.8-1c-3.8-5-7.6-10-11.4-15.1l1.8-0.3l-6.6,23l-0.7,2.3l-1.4-2l-14.5-20.3l1.9-0.4l-2.9,12.6l-3,12.6
			l-0.3,1.4l-1-1c-4.9-4.9-7.9-11.3-10-17.7c-1-3.2-1.8-6.5-2.4-9.8C437.8,225.6,437.3,222.2,437.1,218.9z"/>
		<path class="st16" d="M744.6,265.8c20.5,54.9,43.6,128.8,25.3,209.2c-11.1,48.7-55.2,109.7-78.2,113.3c-15,2.4-43.8-54.6-124-44.3
			c-80.2,10.3-93.8,72.6-108.8,74.1c-23.2,2.3-97.7-41.6-111.2-89.1c-18.9-66.5-25.6-143.1-19.4-197.4c0,0-8.5,27.2-6.7,47.6
			c1.8,20.4-17,42.8,3.7,122.2c20.7,79.4,33.3,129.4,95,187.2c41,38.5,83.5,45.5,102.8,49.6c18.4,12.3,42.9,17.8,71.3,14.2
			c28.5-3.6,50.7-15.1,65.4-31.7c17.6-8.8,57-26.3,87-74c45.1-71.6,47-121.8,47-203.8c0-82.1-25.4-93.8-28.7-123.7
			C761.9,289.5,744.6,265.8,744.6,265.8z M579.2,634c-47.7,8.3-86.2-25.7-86.2-25.7s6.2-10.7,17.7-16.3c13.1-6.4,37,9.3,63.9,5.9
			c26.9-3.4,53-25.6,67.2-22.7c12.6,2.6,23.9,13.3,23.9,13.3S627.4,630,579.2,634z"/>
		<g>
			<path class="st17" d="M541.3,663.6c0,0,1.7,15.9,10.6,21.7l2.1-12.1c0,0,8.8,26.8,29.4,24.1c15.5-2,22.5-18.1,23-30.6
				c0,0,4.4,6.8,7.3,19c0,0,4.5-9.7,5.9-19.5c0,0,1.2-1.2,1.8,3.6c0,0,6.3-6.2,3.5-20c0,0-20.5-4.1-29.1-3.8c0,0,0.7,4.4-2,5.6
				c-2.7,1.2-4.5-1-4.5-1l-0.2,9l-1.7-3c0,0-3.3,4.8-6.4,2s-5.1-8.1-5.1-8.1l2,6.8c0,0-5.2-1.5-7.3-8.1c0,0-7.6,2.2-16,7.4
				S541.3,663.6,541.3,663.6z"/>
			<g>
				<path class="st18" d="M541.8,667.7c0.4,8.7,3.6,19.2,12.6,22.4c0,0-1,0.6-1,0.6l1-7.4l0.5-3.6l1.3,3.4
					c4.4,11.3,13.6,24.1,27,23.2c13.7-0.9,23.4-10.8,24-24.6c0,0,0.3-6.8,0.3-6.8c2.1,7.2,5.2,15.4,2.1,22.8c0,0-1.3-1.2-1.3-1.2
					c6.3-4,10.3-11.3,11.4-18.7c0.2-1.1,0.3-2.7,0.4-3.8c0-1.3,0-2.6,0-3.9c0.4-0.4,1-0.1,1.2,0.3c0.5,1,0.6,2.2,0.8,3.4
					c-0.1-0.8-0.7-4-1.7-3.5c0,0,0.1-0.1,0.1-0.1c0.2,1.9,0.3,4,0.2,5.8c-0.2,8.6-4.1,17.2-11.4,22.2c0,0-2.6,1.7-2.6,1.7l1.3-2.9
					c1.8-4.6,0.7-10.1-0.6-14.8c0,0,2.3-0.3,2.3-0.3c-0.2,6.9-2.6,13.8-7.5,18.9c-4.8,5.1-11.7,7.7-18.6,8.2
					c-14.6,1-24.7-12.8-28.9-25.3c0,0,1.8-0.1,1.8-0.1c-0.1,0.5-1.4,8.1-1.4,8.3C544.9,688.7,541.4,677.1,541.8,667.7L541.8,667.7z"
					/>
			</g>
		</g>
		<path class="st18" d="M704.8,670c-0.1,0.1-0.2,0.2-0.2,0.2l-4.1-9.3c0,0-0.7,12.2-8.3,24.3c-7.6,12.1-39.7,27.6-39.7,27.6
			l-3.2-7.1c0,0-2.3,10.1-5.5,15.8c-3.2,5.7-11.2,7-11.2,7c0.2-19-3.1-27.2-3.1-27.2s0.7,18.3-4.9,28.2
			c-5.6,9.9-29.2,10.1-29.2,10.1l-4.4-13.9c0.1,12.5-11.2,21-25.7,13.4c-14.5-7.6-19.2-22.3-19.2-22.3c2.3,14.1,12.1,30.2,12.1,30.2
			c-17-1.2-22.5-17.8-22.5-17.8s-31.5-4-45.6-13.2l1.6,8.3c12.7,7.6,23.5,12.3,31.5,14c18.4,12.3,42.9,17.8,71.3,14.2
			c28.5-3.6,50.7-15.1,65.4-31.7c11.6-5.8,28.5-21,46.7-44.2L704.8,670z"/>
		<g>
			<path class="st18" d="M519,733.5l-19-8.8c0,0-2.8,2.7-12.4-2.2c-9.6-4.9-31.7-31.2-31.7-31.2l4.5,20.7c0,0-36-25.1-42-32.8
				c-5.9-7.7-21.6-20.2-22.4-26.7c-0.8-6.5-2.2-17.1-2.2-17.1l-5.1,3.9c0,0-13.9-9-14.9-17.3s-15.7-36.8-15.7-36.8l-10.5-20.9
				l-4.5,0.6c14.7,45.6,33.8,82.2,77,122.7c39.4,36.9,80.1,44.9,100.3,49.1L519,733.5z"/>
			<path class="st18" d="M746.7,646c24.7-39.3,36.5-72.1,42-107.4l-15.5,25.8c0,0-12.8,50-20,56.5c-7.1,6.5-13.8,1.8-13.8,1.8
				l2.4,18.4l-17,15.8l-5.6-12.9l-2.1,20.5l-10.7,11.3l-42,41.5c0,0-0.1,0.2-0.2,0.4C683.5,708.2,719.1,689.9,746.7,646z"/>
		</g>
		<path class="st19" d="M761,391.8c-0.6,0.1-2.9,0.1-6.2,0.1l-2,0c-10.6,0.1-28.7,0.1-38.8,0.7c-17.3,1.1-43.1,2.6-61.6,5.5
			c-16.7,2.6-39.6,7.5-53.9,15.4c-8.4,4.6-14.1,11.8-17.3,19.6c-1.1-2.6-3.1-4.5-3.9-5.2c-3.5-2.7-14.1-4.6-24-3.4
			c-9.9,1.3-19.4,6-22.4,9.3c-0.9,1.1-2.2,3.1-2.5,6c-5.1-6.7-12.4-12.2-21.7-14.6c-15.8-4.1-39.2-2.9-56.1-1.3
			c-18.6,1.8-44,6.9-61,10.2c-10,1.9-27.5,6.5-37.8,9.1l-1.9,0.5c-3.2,0.8-5.5,1.4-6,1.4c-2.8,0.4-1.8,6.1-1.5,8.2
			c0.3,2.1,3.4,19.6,4.1,21.3c0.7,1.8,4.2,1.3,6,1.1c1.9-0.2,8.9-1.3,11.5,3.2c0,0.1,0.1,0.1,0.1,0.2c3.1,12.5,8.4,26.8,14.3,38.3
			c8.1,15.8,16.8,25.7,25.7,29.3c4.7,1.9,12.2,2.7,22.9,2.4c8.2-0.2,18.3-1.1,30.1-2.5c0.7-0.1,1.4-0.2,2.1-0.3
			c19.4-2.5,37.4-5.8,42.3-6.8c11.4-2.3,25.9-14.7,29.6-30.6c2.6-11.1,4.3-24.8,5.1-41.9c0,0,0,0,0,0c0-0.1,0-0.2,0-0.4
			c0-0.2,0-0.4,0.1-0.7c0.1-5,1.5-15.1,1.6-17.1c0.2-2.7,0.3-11.8,16.3-13.9s18.4,6.7,19.3,9.3c0.7,1.9,4.5,11.2,5.9,16
			c0.1,0.3,0.2,0.6,0.3,0.8c0.1,0.2,0.1,0.3,0.2,0.4c0,0,0,0,0,0c5.1,16.3,10.2,29.2,15.5,39.3c7.6,14.5,24.8,22.8,36.4,22.1
			c5-0.3,23.3-1.6,42.7-4.1c0.7-0.1,1.4-0.2,2.1-0.3c11.8-1.6,21.8-3.3,29.8-5.1c10.5-2.4,17.5-5.1,21.6-8.1
			c7.7-5.8,13.6-17.5,17.4-34.9c2.8-12.7,4.4-27.8,4.2-40.7c0-0.1,0-0.1,0.1-0.2c1.4-5,8.5-5.8,10.3-6c1.9-0.2,5.3-0.7,5.5-2.6
			c0.2-1.9-1.1-19.6-1.4-21.7C764.3,397.3,763.8,391.5,761,391.8z M525.5,464.1c-0.7,17.6-2.4,31.5-4.9,42.6
			c-1.6,7-5.8,12.1-9.1,15.2c-4.6,4.3-9.1,6.5-11.9,7c-4.1,0.8-23.4,4.5-43.6,7c-24.2,3-41.5,3.3-47.4,0.9
			c-6.2-2.6-13.3-11.1-20-24.1c-5.7-11.1-10.8-24.8-13.6-36.7c-0.6-2.6-1.3-5.1-1.9-7.2c-1.9-7-2.9-11.1-1.5-13.4
			c1.8-3.1,8.9-6.3,21.7-9.7c13.8-3.7,30.9-6.9,47.5-9.1c3.7-0.5,7.5-0.9,11.1-1.3c22.5-2.2,41.1-1.9,52.2,1
			c8.4,2.2,13.5,7.5,16.3,11.5C523.8,452.8,525.8,458.9,525.5,464.1z M738.8,421.7c0,2.2,0,4.8,0,7.5c0.3,12.3-1.2,26.8-3.9,39
			c-3.2,14.3-7.9,24.4-13.3,28.4c-5.1,3.9-21.9,7.9-46.1,11.1c-20.1,2.7-39.8,4-43.9,4.3c-2.8,0.2-7.8-0.8-13.3-3.8
			c-3.9-2.2-9.3-6.1-12.6-12.4c-5.3-10-10.3-23.1-15.5-39.9c-1.5-5-1.2-11.4,0.9-17.1c1.7-4.7,5.3-11.1,12.9-15.3
			c10-5.6,27.9-10.6,50.3-14.1c3.6-0.6,7.3-1.1,11.1-1.6c16.5-2.1,33.9-3.3,48.2-3.2c13.3,0.1,20.9,1.3,23.4,3.9
			C738.8,410.2,738.9,414.4,738.8,421.7z"/>
		<path d="M587.8,435.2c1.8-4.7,5.6-11.1,13.4-15.3c10.4-5.6,29-10.7,52.2-14.4c3.7-0.6,7.6-1.1,11.5-1.6
			c17.2-2.2,35.2-3.5,50.1-3.5c13.8,0,23.8,1.6,25.5,4.8c3.9,7.1-2.3,41.4-2.3,41.4s0.6-22.7,0.6-24.9c0.1-7.2,0-11.4-1.9-13.3
			c-2.5-2.5-10.2-3.8-23.4-3.9c-14.3-0.1-31.7,1.1-48.2,3.2c-3.7,0.5-7.4,1-11.1,1.6c-22.4,3.5-40.2,8.6-50.3,14.1
			c-7.6,4.2-11.2,10.6-12.9,15.3c-2.1,5.8-1.4,11.4-0.9,17.1C590.2,455.8,585.6,441,587.8,435.2z"/>
		<g>
			<path class="st20" d="M752.6,394c3,0,7.3-0.1,7.4-0.1c0.6,0,1.1,0.5,1.1,1c0,0.6-0.5,1-1,1.1c-0.1,0-4.3,0.1-7.2,0.1L752.6,394z"
				/>
			<path class="st20" d="M590.7,421.4c6-6.9,18.5-12.1,41.7-17.6c19-4.5,55-8,74.5-9c11.3-0.6,34.6-0.8,46.2-0.9l0.3,2.1
				c-11.5,0.1-35.1,0.3-46.4,0.9c-19.4,1-55.4,3.6-74.3,8.1c-15.1,3.6-33.9,8.6-41.2,16.8c-0.2,0.2-1.1,1.1-1.4,0.9
				C589.8,422.4,590.3,421.8,590.7,421.4z"/>
		</g>
		<g>
			<path class="st21" d="M739.3,464.7c0-0.6-1.1,0.3-1.2,0.9c-4.9,26.2-13.4,34.1-13.3,34.8S737.5,490.3,739.3,464.7z"/>
		</g>
		<g>
			<path d="M617.6,507.7c5.6,3.1,10.5,4.3,13.4,4.1c4.2-0.2,24.2-1.6,44.7-4.3c24.6-3.3,41.5-7.3,46-10.9c4-3.3,10.3-15,13.5-29.5
				c1.1-5,1.9-10,2.5-15.5c-0.7,7.2-1.5,14.3-2.9,20.8c-3.2,14.3-7.2,24.5-12.6,28.5c-5.1,3.9-21.9,7.9-46.1,11.1
				c-20.1,2.7-39.8,3.6-43.9,3.8c-2.8,0.2-7.8-0.3-13.3-3.3c-3.9-2.2-9.3-6.1-12.6-12.4c-3.7-7.1-6.5-16-10.1-26.5
				c3.1,8.4,6.1,15.6,9.3,21.6C608.8,501.7,613.6,505.5,617.6,507.7z"/>
		</g>
		<g>
			<path class="st21" d="M631.9,517.9c0.3,0,0.5-0.2,0.5-0.5c0-0.3-0.2-0.5-0.5-0.5c-11.3-0.3-16.1-4.1-22.1-10
				c-5.7-5.6-11.1-21.7-11.1-21.8c-0.1-0.3,4.5,16.8,10.4,22.6C615.2,513.7,620.1,517.6,631.9,517.9
				C631.8,517.9,631.9,517.9,631.9,517.9z"/>
		</g>
		<path class="st22" d="M602.7,455.7c0,0-6-15,2.3-22.6c2.1-1.9,14.5-12.2,62.3-16.9l-27.9,15.1c0,0-5.7-2.7-11.9-0.5
			c-6.2,2.2-13.7,4.9-11.3,9.1c2.4,4.2,4,4.3-0.3,7.6C611.5,450.7,602.7,455.7,602.7,455.7z"/>
		<path class="st23" d="M725.4,435.9l-92.3,64c0,0,76.8-3.3,85.1-20.7C727.9,459.1,725.4,435.9,725.4,435.9z"/>
		<path class="st22" d="M391.2,484.4c0,0-6.8-20.5-5.5-23.9c1-2.6,20.8-9,73.9-17.8l-27.9,15.1c0,0-5.7-2.7-11.9-0.5
			c-6.2,2.2-13.7,4.9-11.3,9.1c2.4,4.2,4,4.3-0.3,7.6C403.8,477.3,391.2,484.4,391.2,484.4z"/>
		<path d="M522.7,443.5c-2.9-4.1-8.2-9.3-16.9-11.4c-11.5-2.8-30.7-3.1-54.1-0.7c-3.8,0.4-7.6,0.8-11.5,1.3
			c-17.2,2.2-34.9,5.5-49.3,9.3c-13.3,3.5-22.6,7.5-23.5,11.1c-2,7.9,12.7,39.5,12.7,39.5s-6.3-21.8-6.9-23.9
			c-1.9-7-2.9-11.1-1.5-13.4c1.8-3.1,8.9-6.3,21.7-9.7c13.8-3.7,30.9-6.9,47.5-9.1c3.7-0.5,7.5-0.9,11.1-1.3
			c22.5-2.2,41.1-1.9,52.2,1c8.4,2.2,13.5,7.5,16.3,11.5c3.5,5,4.3,10.7,5.2,16.4C525.5,464.1,526.3,448.6,522.7,443.5z"/>
		<path class="st23" d="M514,465.5l-92.3,64c0,0,76.8-3.3,85.1-20.7C516.5,488.7,514,465.5,514,465.5z"/>
		<g>
			<path class="st20" d="M353,445.2c-2.9,0.7-7.4,1.8-7.5,1.8c-0.6,0.1-0.9,0.7-0.8,1.3c0.1,0.6,0.7,0.9,1.3,0.8
				c0.1,0,4.5-1.1,7.2-1.8L353,445.2z"/>
			<path class="st20" d="M516.3,430.9c-7.6-5.1-20.9-7.1-44.7-6.5c-19.5,0.4-55.3,6.2-74.4,10.1c-11.1,2.3-33.7,8-45,10.8l0.3,2.1
				c11.2-2.8,34-8.6,45.1-10.9c19.1-3.9,54.5-10.5,73.9-10.9c15.5-0.3,35-0.3,44.1,5.9c0.2,0.1,1.4,0.8,1.6,0.6
				C517.5,431.6,516.8,431.3,516.3,430.9z"/>
		</g>
		<g>
			<path d="M512.1,521.2c-4.6,4.4-9.1,6.8-11.9,7.3c-4.1,0.8-23.8,4.5-44.3,7.1c-24.6,3.1-42,3.4-47.3,1
				c-4.7-2.1-13.7-11.9-20.5-25.2c-2.3-4.5-4.3-9.2-6.3-14.3c2.5,6.8,5,13.4,8.1,19.4c6.7,13,13.1,21.9,19.3,24.4
				c5.9,2.5,23.2,2.1,47.4-0.9c20.2-2.5,39.4-6.6,43.5-7.4c2.8-0.6,7.5-2.2,12-6.6c3.3-3.1,7.5-8.2,9.1-15.2
				c1.8-7.8,2.2-17.1,3.1-28.2c-0.9,8.9-2,16.6-3.5,23.3C519.1,513.2,515.4,518.1,512.1,521.2z"/>
		</g>
		<g>
			<path class="st21" d="M500.9,534.7c-0.3,0.1-0.5-0.1-0.6-0.4c-0.1-0.3,0.1-0.6,0.4-0.6c10.9-3.1,14.5-8.1,18.8-15.2
				c4.1-6.8,5.3-23.8,5.3-24c0-0.3-0.1,17.4-4.4,24.5C515.9,526.4,512.2,531.5,500.9,534.7C500.9,534.7,500.9,534.7,500.9,534.7z"/>
		</g>
		<g>
			<path class="st20" d="M533.9,435.1c-0.1,0-0.6,0.1-0.4-0.1c0.2-0.3,4.6-7,19.1-8.8c14.5-1.9,21.1,2.3,21.4,2.4
				c0.2,0.2,0.3,0.5,0.2,0.7c-0.2,0.2-0.8-0.2-2.5-0.6c-1.7-0.4-5.9-2.6-18.8-1c-12.8,1.6-16.2,5.6-17,6.4
				C535.1,434.9,534.1,435,533.9,435.1z"/>
		</g>
		
			<ellipse transform="matrix(0.8068 -0.5908 0.5908 0.8068 -153.5946 400.8702)" class="st24" cx="536.1" cy="435.3" rx="4.3" ry="2.4"/>
		<g>
			<path class="st21" d="M383.6,510.3c-0.2-0.6,1.1,0,1.4,0.6c11.3,24.2,21.6,29.6,21.7,30.3C406.7,541.9,391.7,534.6,383.6,510.3z"
				/>
		</g>
		<path class="st25" d="M720.1,169c-94.8-53.1-274.8-25.3-362.9,33.8c-98.3,66-52.1,227.2-26.8,298.5c0,0,0.4-141.7,43.3-167.8
			s76.2-40.3,162.4-51.3c86.2-11,122-5.7,170.1,8.7c48.1,14.4,84.4,151.5,84.4,151.5C797,367,793.3,210,720.1,169z"/>
		<path class="st26" d="M725.6,282.5c-9.4-10.3-27.9-16.9-51.4-20.7c-5.4-0.9-11-1.6-16.8-2.1c-2.7-0.3-5.5-0.5-8.3-0.7
			c-2.5-0.2-5-0.3-7.5-0.5c-3.3-0.2-6.7-0.3-10.2-0.4c-33.1-1.1-70,1.3-103.9,5.6c-4.3,0.5-13.7-0.7-13.7-0.7l-12.2,4.8l-13-0.8
			l-8.4,5.3l-11-2.8l-7.9,7.6l-14.3-9.1c0,0,0.8,13-1.9,13.8c-45.5,14.2-81.8,33-89.5,48.2c-5.2,10.2-17.7,48.7-17.7,48.7l-6.8,6.9
			l3.4,9.5l-3.5,7.7c0,0,1,25.7,1.2,30c0.3,6.9,0.4,13.1,0.8,18.6c4.3-43.3,15-100.7,40.7-116.4c42.9-26.1,76.2-40.3,162.4-51.3
			c86.2-11,122-5.7,170.1,8.7c30.8,9.2,56.9,68.7,71.7,110.3C772.2,362.1,748.3,307.6,725.6,282.5z"/>
		<path class="st26" d="M413,312.9l-0.9,0.1c-0.3,0-0.6,0-0.7,0l-1,0l-1-0.1l-0.8-0.1c-1-0.2-2.1-0.4-2.9-0.7
			c-0.9-0.3-1.7-0.6-2.6-0.9l-2.2-1.1c-2.9-1.6-5.2-3.4-7.3-5.4l-1.5-1.4l-1.3-1.5l-2.6-3.1c-1.4-2.1-3-4.2-4.2-6.3
			c-5.1-8.5-8.1-17.4-10.8-26.2c-1.2-4.4-2.5-8.8-3.4-13.2c-1-4.4-2-8.8-2.6-13.3c-1.6-8.8-2.6-17.8-3.7-26.6
			c2.8,8.5,5.4,17,8.7,25.2c1.5,4.2,3.3,8.2,5,12.2c1.6,4.1,3.7,7.9,5.6,11.8c4.1,7.6,8.5,15,13.8,21c1.3,1.5,2.7,2.7,4.1,4.1
			l2.1,1.7l1,0.8l1.1,0.6c1.4,0.9,2.8,1.5,3.9,1.8c0.3,0.1,0.6,0.1,0.8,0.2l0.6,0c0.2,0.1,0.3-0.1,0.4-0.1c0,0,0.1,0,0,0
			c0,0-0.1,0-0.1-0.1c0,0-0.1,0-0.1,0l-0.3,0c-0.2,0-0.3,0-0.5,0c5.7-0.9,11,3,11.9,8.7C422.6,306.8,418.7,312.1,413,312.9z"/>
		<path class="st26" d="M428.1,303.2c-0.4,0-0.8-0.1-1.1-0.2l-0.6-0.2c-0.4-0.1-0.8-0.2-1.1-0.4c-0.6-0.3-1.3-0.5-1.8-0.8
			c-1.1-0.6-2.2-1.2-3.1-1.8c-1-0.6-1.8-1.3-2.6-2c-0.8-0.7-1.6-1.4-2.3-2.2l-2-2.3l-1.7-2.3c-1.2-1.5-2-3.2-3-4.8
			c-3.6-6.5-5.8-13.1-7.7-19.8c-1.7-6.7-3-13.3-3.8-20c-0.4-3.4-0.9-6.7-1.1-10l-0.7-10l2.7,9.6c0.9,3.2,2,6.3,3,9.4
			c2.1,6.2,4.7,12.3,7.4,18.1c3,5.7,6.2,11.2,10.1,15.7c1,1,1.9,2.3,3,3.1l1.6,1.4l1.6,1.2c0.5,0.4,1.1,0.7,1.6,1
			c0.5,0.3,1,0.6,1.5,0.7c0.5,0.3,0.9,0.3,1.4,0.4c0.2,0.1,0.3,0,0.5,0c0.1,0,0.1,0,0.1,0l0,0c0,0-0.3-0.1-0.5-0.1L428.1,303.2z"/>
		<path class="st26" d="M443.9,297.9c-1-0.4-1.2-0.5-1.7-0.8c-0.4-0.2-0.8-0.5-1.2-0.7c-0.8-0.5-1.4-1-2.1-1.5
			c-1.3-1-2.5-2.1-3.6-3.2c-1.2-1.1-2.1-2.3-3-3.5c-0.9-1.2-1.7-2.5-2.5-3.7c-3-5.1-4.9-10.5-6-15.8c-0.7-2.6-0.9-5.3-1.2-8
			c-0.2-2.6-0.3-5.3-0.4-7.9c0.1-2.6,0.1-5.2,0.3-7.8l0.8-7.7l1.2,7.5c0.5,2.5,1.1,4.9,1.7,7.4c0.7,2.4,1.4,4.8,2.3,7.1
			c1,2.3,1.8,4.6,3,6.6c2.1,4.3,4.8,8.1,8,11.1c0.8,0.7,1.6,1.4,2.4,2.1c0.9,0.6,1.6,1.2,2.5,1.7c0.8,0.5,1.7,0.9,2.5,1.2
			c0.4,0.1,0.8,0.3,1.2,0.4c0.2,0,0.4,0.1,0.5,0.1c0,0,0.4,0.1,0.1-0.1L443.9,297.9z"/>
		<path class="st26" d="M700.3,268.3c0,0.1,0.2-0.2,0.3-0.3c0.1-0.1,0.3-0.4,0.5-0.5c0.3-0.4,0.6-0.8,0.9-1.2
			c0.6-0.9,1.2-1.7,1.8-2.7c1.2-1.9,2.2-3.9,3.1-6c1.9-4.2,3.2-8.8,4.3-13.5c1-4.7,1.5-9.6,1.7-14.6c0.2-2.5,0-5,0-7.5
			c-0.1-2.5-0.3-5-0.5-7.5c0.8,2.4,1.7,4.8,2.5,7.2c0.7,2.5,1.5,4.9,2,7.4c1.2,5,2,10.2,2.3,15.5c0.3,5.3,0.2,10.7-0.6,16.2
			c-0.4,2.7-0.9,5.5-1.7,8.2c-0.4,1.4-0.8,2.8-1.3,4.2c-0.3,0.7-0.5,1.4-0.8,2.1c-0.2,0.4-0.3,0.7-0.5,1.1c-0.2,0.4-0.3,0.7-0.7,1.3
			L700.3,268.3z"/>
		<path class="st26" d="M684.2,268.9c0.4-0.4,1-1.3,1.4-2.1c0.5-0.8,1-1.6,1.5-2.4c0.9-1.7,1.9-3.4,2.7-5.2
			c1.7-3.5,3.2-7.2,4.5-11.1c1.2-3.8,2.4-7.8,3.1-11.8c0.8-4,1.3-8.1,1.7-12.3c1,4.1,1.9,8.2,2.4,12.5c0.6,4.2,0.8,8.6,0.9,12.9
			c0,4.4-0.3,8.7-0.8,13.2c-0.3,2.2-0.6,4.4-1.1,6.7c-0.2,1.1-0.5,2.2-0.7,3.4c-0.3,1.2-0.5,2.2-1.1,3.6L684.2,268.9z"/>
		<path class="st26" d="M754.2,332.2c-0.4,0.1-0.1,0.1-0.1,0.1c0.1,0,0.3,0,0.4,0c0.3,0,0.6-0.1,1-0.1c0.7-0.2,1.4-0.4,2.1-0.7
			c0.8-0.3,1.5-0.7,2.2-1.1c0.7-0.5,1.5-0.9,2.2-1.4c2.9-2.1,5.5-5.1,7.7-8.5c1.2-1.6,2.1-3.5,3.1-5.3c0.9-1.9,1.8-3.8,2.6-5.8
			c0.7-2,1.5-4,2.1-6.1l1.7-6.3l0.3,6.6c0,2.2-0.1,4.4-0.2,6.7c-0.2,2.2-0.4,4.5-0.8,6.7c-0.5,2.2-0.8,4.5-1.5,6.8
			c-1.3,4.5-3.2,9.1-6.1,13.3c-0.8,1-1.6,2.1-2.4,3.1c-0.9,1-1.8,2-2.9,2.9c-1,0.9-2.2,1.8-3.4,2.6c-0.7,0.4-1.3,0.8-2,1.2
			c-0.4,0.2-0.7,0.4-1.1,0.6c-0.5,0.2-0.7,0.3-1.6,0.6L754.2,332.2z"/>
		<polygon class="st25" points="361.3,202.3 365,165.6 376.9,179.4 401.5,153.1 403.9,171.6 434.1,144.1 439.2,156.1 459.8,146.9 
			460.3,156.5 500.6,130.4 505.2,147.6 518,133.3 523.8,144.3 585.7,125.3 586.7,133.3 618.5,133.1 619.3,139.1 635.2,137 
			636.2,144.3 681.1,137.4 692.2,158.2 699.1,159 699.8,164.7 752.3,214.9 763.7,204.1 766.2,223.3 773,222.5 774.8,248.5 
			780.1,247.8 784.9,289.9 740.7,222.1 690.2,186.4 573.4,155.9 449.8,194.4 		"/>
		<path class="st25" d="M356.1,229.2c0,0-4.3-19.1-17-29.3l-0.5,18.2l-10.6-0.4l-0.8,13.5l-6.6,2.7l-0.6,7.9l4.3,80.3l32.2-89.7
			L356.1,229.2z"/>
		<polygon class="st26" points="352,347.6 333.3,326.5 359.8,336.1 		"/>
		<polygon class="st26" points="348.1,360.6 331.6,347.3 352.8,347.5 		"/>
		<path class="st15" d="M521,232.4c-0.5-0.6-1-1.1-1.4-1.7c-0.4-0.6-0.9-1.3-1-1.7l-0.5-1.3l-1.5,0.9c-2.3,1.3-4.5,2.7-6.8,4
			c-1.6-2.6-3.2-5.1-4.8-7.6l-2.2-3.5l-3.4,3.4c-2,2-3.9,4.1-5.8,6.2c-2-3.7-4-7.5-6.1-11.2l-5.2-9.3l-4.4,10.1
			c-1.6,3.7-3.2,7.5-4.8,11.2c-2.3-3.8-4.5-7.6-6.9-11.3l-6.4-10.3l-3.5,11.3c-1.3,4.1-2.5,8.3-3.7,12.4c-0.4,1.4-0.8,2.9-1.2,4.3
			c-0.1-0.1-0.2-0.3-0.2-0.4c-1.5-2.7-2.6-5.7-3.8-8.8c-1.1-3.1-1.9-6.3-2.7-9.5c-0.8-3.2-1.5-6.5-2-9.9c-0.6,3.4-0.8,6.8-0.8,10.2
			c-0.1,3.4,0.1,6.9,0.6,10.4c0.4,3.5,1.2,6.9,2.4,10.4c1.2,3.4,2.8,6.9,5.2,10l4.3,5.6l2.9-7c1.7-4,3.2-8,4.8-12
			c0.1-0.3,0.2-0.6,0.3-0.9c2.2,3.9,4.4,7.7,6.6,11.6l6,10.4l4.4-11.1c1.6-4.2,3.3-8.3,4.9-12.5c1.5,2.2,2.9,4.5,4.4,6.7l3.8,5.6
			l3.7-5.1c2.2-3,4.2-6,6.3-9c1.5,1.6,3,3.2,4.5,4.8l2,2l1.6-1.5c2.3-2.2,4.6-4.4,6.8-6.6c0.2,0.2,0.5,0.4,0.7,0.6
			c0.6,0.5,1.3,1,2,1.4c1.3,0.8,2.7,1.6,4.1,2.2C523.1,234.6,522,233.5,521,232.4z"/>
		<path class="st15" d="M367.8,294.6c-1.7-1.3-3.5-3.8-5.1-6.5c-1.6-2.7-3.1-5.6-4.5-8.6l-4.3-9.1c-1.4-3.1-2.9-6.2-4.5-9.4
			c-0.2,3.5,0.1,7,0.4,10.5c0.4,3.5,1,6.9,1.9,10.3c0.5,2.3,1.3,4.5,2.1,6.7c-0.7-0.4-1.5-0.7-2.2-1.1l-0.4-0.2
			c-1.1-0.6-2.6-0.7-3.8-0.1c-2.1,1-3,3.5-2,5.7c0.7,1.5,1.5,2.9,2.3,4.3c0.8,1.4,1.7,2.8,2.6,4.1c1.2,1.7,2.4,3.3,3.8,4.9
			c-0.6,0.1-1.1,0.2-1.7,0.2c-1,0.1-2.1,0.1-3.2,0c-1.1-0.1-2.2-0.3-3.3-0.5c1.7,1.5,3.8,2.7,6.1,3.5c1.2,0.3,2.4,0.6,3.7,0.7
			c0.6,0,1.3,0,2,0c0.7-0.1,1.3-0.1,2.2-0.5c0.1-0.1,0.3-0.1,0.4-0.2c1.1-0.7,1.4-2.1,0.7-3.2l-0.4-0.6c-1-1.5-1.8-3.2-2.6-4.9
			c0.4,0.2,0.8,0.4,1.2,0.5c1.4,0.5,2.7,1,4.2,1.5l0.1,0c1.8,0.6,3.9,0,5.1-1.6C370.2,299,369.8,296.1,367.8,294.6z"/>
		<path class="st15" d="M762.7,249.8c-0.5,0-0.9,0-1.4,0c-0.2-3.8-0.4-7.6-0.8-11.4l-0.8-8.5l-3.6,5.1c-0.3-1.9-0.7-3.9-1.1-5.8
			c-0.6-2.4-1.2-4.8-2-7.2c-0.8-2.4-1.7-4.8-3.5-7.3l-2.2-3.1l-2.2,2.8l-1.4,1.8c-0.2-0.3-0.3-0.5-0.4-0.8c-0.8-1.4-1.7-2.9-2.6-4.2
			c-0.9-1.4-1.9-2.7-3-4c-1.1-1.3-2.2-2.5-3.6-3.4c0.9,1.3,1.6,2.8,2.2,4.3c0.6,1.5,1.2,2.9,1.7,4.5l1.6,4.5l1.4,4.5l1.1,3.6l3-2.8
			l1.1-1c0.3,0.8,0.5,1.7,0.7,2.6c0.5,2.2,1,4.4,1.5,6.7c0.9,4.6,1.6,9.2,2.3,13.8l1.4,9.2l3.7-6c0.3,1.6,0.7,3.3,1,4.9l0.5,2.5
			l2.2-0.5c0.7-0.1,1.4-0.3,2.1-0.5c1,4.2,2.1,8.3,3.4,12.5c0.3-5.1,0.3-10.1,0.1-15.1l-0.1-1.8L762.7,249.8z"/>
	</g>
	<g>
		<g>
			<path class="st27" d="M249.7,843.2c0,47.3-38.4,85.7-85.7,85.7s-85.7-38.4-85.7-85.7s38.4-85.7,85.7-85.7
				S249.7,795.8,249.7,843.2"/>
		</g>
		
			<rect x="186.4" y="806.4" transform="matrix(0.8518 -0.5239 0.5239 0.8518 -393.4058 228.3463)" class="st6" width="41.1" height="6.1"/>
		
			<rect x="118.1" y="789" transform="matrix(0.5557 -0.8314 0.8314 0.5557 -619.1713 460.4331)" class="st6" width="6.1" height="41.1"/>
		<g>
			<path class="st6" d="M216.1,834c0,6.8-5.5,12.2-12.2,12.2c-6.8,0-12.2-5.5-12.2-12.2c0-6.8,5.5-12.2,12.2-12.2
				C210.6,821.7,216.1,827.2,216.1,834"/>
			<path class="st6" d="M136.5,834c0,6.8-5.5,12.2-12.2,12.2c-6.8,0-12.2-5.5-12.2-12.2c0-6.8,5.5-12.2,12.2-12.2
				C131,821.7,136.5,827.2,136.5,834"/>
			<path class="st6" d="M234.3,910.5H95.1c-3.4,0-6.1-2.7-6.1-6.1V866c0-3.4,2.7-6.1,6.1-6.1h139.2c3.4,0,6.1,2.7,6.1,6.1v38.4
				C240.4,907.8,237.6,910.5,234.3,910.5"/>
			<path class="st7" d="M123.1,897.4c-3.3,0-5.7-0.6-7.2-1.8c-1.5-1.2-2.2-2.9-2.2-5.2c0-1.2,0.4-2.4,1.3-3.4c0.9-1,2.1-1.8,3.8-2.3
				v-0.1c-1.3-0.3-2.4-0.9-3.1-1.8c-0.7-0.9-1.1-2-1.1-3.3c0-1.9,0.7-3.5,2.2-4.9c1.5-1.3,3.6-2,6.2-2c0.9,0,1.7,0,2.4,0.1
				c0.7,0.1,1.4,0.2,2,0.4l-0.3,3.8c-0.7-0.1-1.3-0.3-2-0.3c-0.6-0.1-1.4-0.1-2.1-0.1c-1.1,0-2,0.2-2.6,0.7c-0.6,0.5-1,1.2-1,2
				c0,1,0.4,1.8,1.3,2.4c0.8,0.6,2.1,0.9,3.9,0.9h1.2v3.9h-1.6c-1.8,0-3.2,0.4-4.1,1c-0.9,0.7-1.4,1.6-1.4,2.6c0,1,0.4,1.8,1.2,2.3
				c0.8,0.5,2.1,0.8,3.8,0.8c2.1,0,3.7-0.7,5-2.2c1.3-1.5,1.9-3.5,1.9-6.1h-2.3v-3.5h8.8v3.5h-2.2c0,3.9-1.1,6.9-3.3,9.1
				C129.6,896.3,126.7,897.4,123.1,897.4"/>
			<path class="st7" d="M145.5,900.9v-3.6h-0.1c-1.1,0-2.1,0-3.1-0.1c-0.9,0-2-0.2-3-0.3v-4.1c1.2,0.2,2.3,0.4,3.2,0.5
				c1,0.1,2,0.1,3,0.1c1.6,0,2.9-0.3,3.7-0.9c0.9-0.6,1.3-1.3,1.3-2.1c0-0.7-0.2-1.3-0.7-1.8c-0.5-0.5-1.4-1-2.9-1.5l-3-1
				c-1.4-0.5-2.5-1.2-3.3-2.3c-0.7-1-1.1-2.3-1.1-3.9c0-1.7,0.5-3.2,1.6-4.4c1.1-1.2,2.6-2.1,4.7-2.5v-4h3.3v3.6
				c0.8,0,1.6,0,2.5,0.1c0.9,0.1,1.7,0.2,2.6,0.4l-0.3,4c-0.9-0.2-1.7-0.3-2.5-0.4c-0.8-0.1-1.6-0.1-2.6-0.1c-1.6,0-2.8,0.3-3.5,0.8
				c-0.7,0.5-1.1,1.2-1.1,2c0,0.7,0.2,1.3,0.7,1.7c0.5,0.5,1.2,0.9,2.3,1.2l3,0.9c1.8,0.6,3.1,1.4,3.9,2.4c0.8,1,1.2,2.3,1.2,3.8
				c0,1.8-0.6,3.4-1.7,4.8c-1.2,1.3-2.8,2.3-4.8,2.8v3.9H145.5z"/>
			<path class="st7" d="M160.3,873.2l5.1-0.4L165,884v5.4l-4.6,0.1V873.2z M159.7,894.1c0-0.9,0.2-1.7,0.7-2.3
				c0.5-0.6,1.2-0.9,2.2-0.9c1,0,1.7,0.3,2.3,0.8c0.5,0.5,0.8,1.4,0.8,2.4c0,0.9-0.2,1.6-0.7,2.2c-0.5,0.6-1.2,0.9-2.2,0.9
				c-1,0-1.7-0.3-2.3-0.8C160,895.9,159.7,895.2,159.7,894.1"/>
		</g>
		<path class="st7" d="M177.8,882.2l-0.7,5.6h4.6l0.7-5.6H177.8z M170.1,882.2l0.3-3.2h4.4l0.8-6.1h3.3l-0.7,6.1h4.6l0.8-6.1h3.3
			L186,879h4.4l-0.3,3.2h-4.5l-0.7,5.6h4.3l-0.3,3.2h-4.4l-0.7,6.1h-3.3l0.7-6.1h-4.6l-0.7,6.1h-3.3l0.7-6.1H169l0.3-3.2h4.5
			l0.7-5.6H170.1z"/>
		<g>
			<path class="st7" d="M214.3,886.6c-0.6,0-1.1,0.3-1.6,0.8c-0.5,0.5-0.7,1.5-0.7,2.9c0,1.5,0.2,2.5,0.6,3c0.4,0.5,0.9,0.8,1.6,0.8
				c0.7,0,1.2-0.3,1.7-0.8c0.4-0.5,0.7-1.4,0.7-2.7c0-1.6-0.2-2.7-0.7-3.3C215.5,886.9,215,886.6,214.3,886.6 M214.5,883.4
				c1.6,0,3.1,0.5,4.2,1.6c1.2,1.1,1.8,2.8,1.8,5.3c0,2.3-0.6,4.1-1.9,5.2c-1.3,1.2-2.7,1.7-4.4,1.7c-1.6,0-3-0.5-4.2-1.4
				c-1.2-0.9-1.8-2.7-1.8-5.3c0-2.4,0.6-4.2,1.9-5.4C211.4,884,212.8,883.4,214.5,883.4 M209.5,872.1l3,1.2l-9.8,24.8l-3-1.2
				L209.5,872.1z M198,875.9c-0.6,0-1.1,0.3-1.6,0.8c-0.5,0.5-0.7,1.5-0.7,2.9c0,1.5,0.2,2.5,0.6,3c0.4,0.5,1,0.8,1.6,0.8
				c0.6,0,1.2-0.3,1.6-0.8c0.4-0.5,0.7-1.4,0.7-2.7c0-1.6-0.2-2.7-0.6-3.3C199.2,876.2,198.6,875.9,198,875.9 M198.1,872.7
				c1.6,0,3,0.5,4.2,1.6c1.2,1.1,1.8,2.8,1.8,5.3c0,2.4-0.6,4.1-1.9,5.3s-2.7,1.7-4.3,1.7c-1.6,0-3-0.5-4.2-1.4
				c-1.2-0.9-1.8-2.7-1.8-5.3c0-2.4,0.6-4.2,1.9-5.4C195,873.3,196.5,872.7,198.1,872.7"/>
		</g>
	</g>
</g>
</svg>
