<?xml version="1.0" encoding="utf-8"?>
<!-- Generator: Adobe Illustrator 27.1.0, SVG Export Plug-In . SVG Version: 6.00 Build 0)  -->
<svg version="1.1" id="_x2014_ÎÓÈ_x5F_1" xmlns="http://www.w3.org/2000/svg" xmlns:xlink="http://www.w3.org/1999/xlink"
	 x="0px" y="0px" viewBox="0 0 1437.8 1912.6" style="enable-background:new 0 0 1437.8 1912.6;" xml:space="preserve">
<style type="text/css">
	.st0{fill:#022F3E;}
	.st1{fill:#022F3D;}
	.st2{fill:#C6256F;}
	.st3{fill:#B52366;}
	.st4{opacity:0.56;}
	.st5{fill:#FFFFFF;}
	.st6{fill:#231F20;}
	.st7{fill:#020203;}
	.st8{fill:#FFE5B0;}
	.st9{fill:#383938;}
	.st10{fill:#FAD399;}
	.st11{fill:#E8E7E7;}
	.st12{fill:none;stroke:#FFFFFF;stroke-width:3;stroke-miterlimit:10;}
	.st13{fill:#EDCAA0;}
	.st14{fill:#8F6341;}
	.st15{fill:#282012;}
	.st16{fill:#A7846F;}
	.st17{fill:#A7713F;}
	.st18{fill:#895A2A;}
	.st19{fill:#9F6933;}
	.st20{fill:#754C21;}
	.st21{fill:#111111;}
	.st22{fill:#343434;}
	.st23{fill:#1F1F1F;}
	.st24{opacity:0.1;fill:#FFFFFF;}
	.st25{opacity:0.1;fill:#E9D7BC;}
	.st26{opacity:0.4;fill:#989999;}
	.st27{fill:#764C1E;}
	.st28{fill:#533513;}
	.st29{fill:#EB5B27;}
</style>
<path class="st0" d="M419.1,1464.1v22.8c-0.2,6.8-1.6,12.9-4.1,18.1c-2,4.5-5.2,8.8-9.7,12.2c-4.5,3.6-10.6,5.6-18.8,5.6
	c-8.1,0-14.5-2-19-5.6c-4.5-3.4-7.5-7.7-9.5-12.2c-2.5-5.2-3.8-11.3-4.1-18.1v-97.9c0.2-6.6,1.6-12.7,4.1-17.9c2-4.5,5-9,9.5-12.4
	c4.5-3.4,10.8-5.6,19-5.6c8.1,0,14.2,2.3,18.8,5.6c4.5,3.4,7.7,7.9,9.7,12.4c2.5,5.2,3.8,11.3,4.1,17.9v22.8h-22.8v-22.8
	c0-4.5-1.1-7.7-3.6-10.4c-1.1-1.1-3.2-1.8-5.6-1.8c-4.3,0-6.3,3.2-7.5,6.1c-0.7,1.8-0.9,3.8-1.1,6.1v97.9c0.2,4.7,1.6,7.9,3.8,10.4
	c1.1,1.1,2.7,1.8,4.7,1.8c5.2,0,7.2-2.7,8.4-6.1c0.7-1.6,0.9-3.6,0.9-6.1v-22.8H419.1z"/>
<path class="st0" d="M706.1,1684.2v22.8c-0.2,6.8-1.6,12.9-4.1,18.1c-2,4.5-5.2,8.8-9.7,12.2c-4.5,3.6-10.6,5.6-18.8,5.6
	c-8.1,0-14.5-2-19-5.6c-4.5-3.4-7.5-7.7-9.5-12.2c-2.5-5.2-3.8-11.3-4.1-18.1v-97.9c0.2-6.6,1.6-12.7,4.1-17.9c2-4.5,5-9,9.5-12.4
	c4.5-3.4,10.8-5.6,19-5.6c8.1,0,14.2,2.3,18.8,5.6c4.5,3.4,7.7,7.9,9.7,12.4c2.5,5.2,3.8,11.3,4.1,17.9v22.8h-22.8v-22.8
	c0-4.5-1.1-7.7-3.6-10.4c-1.1-1.1-3.2-1.8-5.6-1.8c-4.3,0-6.3,3.2-7.5,6.1c-0.7,1.8-0.9,3.8-1.1,6.1v97.9c0.2,4.7,1.6,7.9,3.8,10.4
	c1.1,1.1,2.7,1.8,4.7,1.8c5.2,0,7.2-2.7,8.4-6.1c0.7-1.6,0.9-3.6,0.9-6.1v-22.8H706.1z"/>
<path class="st0" d="M497.3,1486.9c-0.2,6.8-1.6,12.9-4.1,18.1c-2,4.5-5.2,8.8-9.7,12.2c-4.5,3.6-10.6,5.6-18.8,5.6
	c-8.1,0-14.5-2-19-5.6c-4.5-3.4-7.5-7.7-9.5-12.2c-2.5-5.2-3.8-11.3-4.1-18.1v-97.9c0.2-6.6,1.6-12.7,4.1-17.9c2-4.5,5-9,9.5-12.4
	c4.5-3.4,10.8-5.6,19-5.6c8.1,0,14.2,2.3,18.8,5.6c4.5,3.4,7.7,7.9,9.7,12.4c2.5,5.2,3.8,11.3,4.1,17.9V1486.9z M472.8,1389.1
	c0-4.5-0.9-7.7-3.2-10.4c-1.1-1.1-2.9-1.8-5-1.8c-4.3,0-6.3,3.2-7.2,6.1c-0.7,1.8-0.9,3.8-0.9,6.1v97.9c0,4.7,1.1,7.9,3.4,10.4
	c1.1,1.1,2.7,1.8,4.7,1.8c4.3,0,6.3-2.7,7.2-6.1c0.7-1.6,0.9-3.6,0.9-6.1V1389.1z"/>
<path class="st0" d="M554.2,1521l-15.6-104.4l-0.9-7h-1.4V1521h-22.6v-166.1h29.8l14.5,75.9l1.1,8.8h0.5l1.1-8.8l14.5-75.9h29.8
	V1521h-22.6v-111.4h-1.4l-0.9,7L564.6,1521H554.2z"/>
<path class="st0" d="M663.6,1521L648,1416.6l-0.9-7h-1.4V1521h-22.6v-166.1H653l14.5,75.9l1.1,8.8h0.5l1.1-8.8l14.5-75.9h29.8V1521
	h-22.6v-111.4h-1.4l-0.9,7L674,1521H663.6z"/>
<path class="st0" d="M797.4,1354.9v132c-0.2,6.8-1.6,12.9-4.1,18.1c-2,4.5-5.2,8.8-9.7,12.2c-4.5,3.6-10.6,5.6-18.8,5.6
	c-8.1,0-14.5-2-19-5.6c-4.5-3.4-7.5-7.7-9.5-12.2c-2.5-5.2-3.8-11.3-4.1-18.1v-132h24.4v132c0,4.7,1.1,7.9,3.4,10.4
	c1.1,1.1,2.7,1.8,4.7,1.8c4.3,0,6.3-2.7,7.2-6.1c0.7-1.6,0.9-3.6,0.9-6.1v-132H797.4z"/>
<path class="st0" d="M841,1434.5l-2-7.7h-1.4v94.2h-22.4v-166.1h21.7l23.7,86.6l2,7.7h1.4v-94.2h22.4V1521h-21.7L841,1434.5z"/>
<path class="st0" d="M904.5,1354.9h24.4V1521h-24.4V1354.9z"/>
<path class="st0" d="M938.4,1380v-25.1h70.5v25.1h-23.1v141h-24.4v-141H938.4z"/>
<path class="st0" d="M1047.1,1408l0.7,1.6h0.5l0.7-1.6l12.2-53.1h24l-24.9,95.4v70.7h-24.4v-70.7l-24.9-95.4h24L1047.1,1408z"/>
<path class="st1" d="M741.8,1741.1h-23.9l26.9-87.2l-26.4-78.8h23.9l13.3,42l0.7,2h0.9l0.7-2l13.3-42h23.9l-26.4,78.8l26.9,87.2
	h-23.9l-14-49.4l-0.5-2h-0.9l-0.5,2L741.8,1741.1z"/>
<g>
	<path class="st2" d="M957.4,106.6H477.2c-46.8,0-90.1,25-113.5,65.5L123.6,588c-23.4,40.5-23.4,90.5,0,131.1l240.1,415.8
		c23.4,40.5,66.7,65.5,113.5,65.5h480.2c46.8,0,90.1-25,113.5-65.5L1310.9,719c23.4-40.5,23.4-90.5,0-131.1l-240.1-415.8
		C1047.4,131.6,1004.2,106.6,957.4,106.6z"/>
	<path class="st3" d="M1065.5,1144.1l145.2-251.5l-935.1-568l-155,269c-20.1,34.8-19.6,83,0.5,117.8l249.8,432.7
		c20.1,34.8,57.3,56.3,97.5,56.3h499.6C1008.3,1200.4,1045.4,1179,1065.5,1144.1z"/>
	<g class="st4">
		<path class="st5" d="M219.8,915.3l-1-9.9l5-0.5c0.1,0,8.3-0.8,21.6-2.8l4.9-0.7l1.4,9.9l-4.9,0.7c-13.6,2-21.7,2.8-22,2.8
			L219.8,915.3z"/>
		<path class="st5" d="M285.1,905.6l-1.9-9.8l4.9-1c14.5-2.9,28.7-6,42.2-9.5l4.8-1.2l2.5,9.7l-4.8,1.2c-13.7,3.5-28.1,6.7-42.7,9.6
			L285.1,905.6z M370.1,884.4l-3.1-9.5l4.8-1.6c14.4-4.7,28-9.8,40.3-15.1l4.6-2l4,9.2l-4.6,2c-12.6,5.5-26.5,10.7-41.2,15.5
			L370.1,884.4z M451,849.8l-5.2-8.5l4.3-2.6c11.7-7.1,21.9-14.7,30.3-22.5l7.1-6.6l6.8,7.3l-7.1,6.6c-8.9,8.3-19.6,16.3-31.9,23.7
			L451,849.8z M518.8,794l-6.8-7.3l3.7-3.4c8.5-8,19.9-18.5,32-29.6l3.7-3.4l6.8,7.4l-3.7,3.4c-12,11-23.4,21.6-31.9,29.5L518.8,794
			z M582.9,735.3l-6.6-7.5l3.7-3.3c11.5-10.2,22.2-19.5,32.9-28.6l3.8-3.2l6.5,7.6l-3.8,3.2c-10.6,9-21.4,18.3-32.8,28.5
			L582.9,735.3z M648.9,679l-6.3-7.8l3.9-3.1c11.7-9.4,23.3-18.4,34.5-26.7l4-3l6,8l-4,3c-11.1,8.3-22.7,17.2-34.3,26.5L648.9,679z
			 M718.2,627l-5.6-8.3l4.1-2.8c12.4-8.4,24.7-16.4,36.8-23.8l4.3-2.6l5.2,8.5l-4.3,2.6c-11.9,7.2-24.1,15.2-36.3,23.5L718.2,627z
			 M791.7,581.6l-4.5-8.9l4.5-2.3c12.5-6.4,26.2-12.1,40.7-17.1l4.7-1.6l3.3,9.4l-4.7,1.6c-14,4.9-27.3,10.5-39.4,16.6L791.7,581.6z
			 M872,552l-2.3-9.7l4.9-1.2c12.9-3.1,27-6,42.9-8.8l4.9-0.9l1.7,9.8l-4.9,0.9c-15.8,2.8-29.6,5.6-42.3,8.7L872,552z M957.1,536
			l-1.5-9.9l11.5-1.7c12.6-1.9,24.5-3.7,36.4-5.6l4.9-0.8l1.6,9.9l-4.9,0.8c-12,2-23.9,3.8-36.5,5.7L957.1,536z M1043.3,521.4
			l-2.3-9.7l4.9-1.1c15.6-3.6,29-7.7,41-12.3l4.7-1.8l3.6,9.3l-4.7,1.8c-12.4,4.8-26.2,9-42.3,12.7L1043.3,521.4z M1125.8,489.7
			l-5.8-8.2l4.1-2.9c3.7-2.6,7.3-5.4,10.6-8.3c8-7,15.5-13.5,22.3-19.3l3.8-3.3l6.5,7.6l-3.8,3.3c-6.8,5.8-14.2,12.3-22.2,19.3
			c-3.6,3.1-7.4,6.2-11.4,9L1125.8,489.7z"/>
		<path class="st5" d="M1192.7,433.9l-6.3-7.7l3.9-3.2c6.5-5.3,11.3-9,14.4-11.2c2.6-1.8,6.3-4.4,9.5-1.4c1.9,1.7,2.2,4.6,0.7,6.8
			l-2.8,4.2l-1.9-1.3c-2.1,1.5-6.1,4.5-13.6,10.6L1192.7,433.9z"/>
	</g>
	<path class="st6" d="M1060.8,1151.7c-40.5-99.7-101.2-244.6-104.4-250.7c-10-19.3-168.5-61.7-182.6-86.7
		c-5.6-9.9-8.6-20.4-8.6-31.4c0-39,0-102.7,0-102.7h-66.1h-1.7h-9l-0.5,91l-22.6-63.4h-1.7h-66.1c0,0,0,63.7,0,102.7
		c0,11-3,21.6-8.6,31.4c-14.1,25.1-172.6,67.5-182.6,86.7c-2,3.9-42.8,80.7-75.4,146.6l39.9,69.1c14.5,25.1,37.8,43.2,64.7,51.4
		l38.4-103.8l19.1,108.6c0.5,0,1,0,1.5,0h386.3l-3.7-116.5l61.3,116.3c2.8-0.2,5.7-0.1,8.7,0.3h20.9
		C1005.3,1200.4,1039.9,1182,1060.8,1151.7z"/>
	<path class="st7" d="M761.1,760.4c0.9,25,17.1,61.2-28.6,67.4c-55.4,7.5-132.8,8.8-145.7,16.8c5.3,0.7,12.1,1.3,20.5,1.8
		c47.6,2.8,190.7-17.3,176.8-22.7c-18.9-7.3-18.8-63.3-18.8-63.3H761.1z"/>
	<g>
		<g>
			<path class="st8" d="M1327.6,388.6c0,47.7-38.6,86.3-86.3,86.3c-47.7,0-86.3-38.6-86.3-86.3s38.6-86.3,86.3-86.3
				C1288.9,302.3,1327.6,340.9,1327.6,388.6"/>
			<path class="st9" d="M1296.7,385.5h-6.2c0-5.1-4.1-9.2-9.2-9.2c-5.1,0-9.2,4.1-9.2,9.2h-6.2c0-8.5,6.9-15.4,15.4-15.4
				C1289.8,370.1,1296.7,377,1296.7,385.5"/>
			<path class="st9" d="M1216.6,385.5h-6.2c0-5.1-4.1-9.2-9.2-9.2c-5.1,0-9.2,4.1-9.2,9.2h-6.2c0-8.5,6.9-15.4,15.4-15.4
				C1209.7,370.1,1216.6,377,1216.6,385.5"/>
			<path class="st5" d="M1290.1,410.2h-97.8c0.5,4.3,1.7,8.4,3.2,12.3h91.3C1288.5,418.6,1289.6,414.5,1290.1,410.2"/>
			<path class="st2" d="M1195.6,422.5c7.3,18.1,25,30.8,45.7,30.8c20.7,0,38.3-12.8,45.7-30.8H1195.6z"/>
		</g>
	</g>
	<g>
		<g>
			<path class="st8" d="M982.8,522.1c0,47.6-38.6,86.1-86.1,86.1s-86.1-38.6-86.1-86.1s38.6-86.1,86.1-86.1S982.8,474.6,982.8,522.1
				"/>
			<path class="st9" d="M948.9,510.2c0,6.8-5.5,12.3-12.3,12.3c-6.8,0-12.3-5.5-12.3-12.3c0-6.8,5.5-12.3,12.3-12.3
				C943.4,497.9,948.9,503.4,948.9,510.2"/>
			<path class="st9" d="M868.9,510.2c0,6.8-5.5,12.3-12.3,12.3c-6.8,0-12.3-5.5-12.3-12.3c0-6.8,5.5-12.3,12.3-12.3
				C863.4,497.9,868.9,503.4,868.9,510.2"/>
			<path class="st10" d="M987.2,451.1c-2.3,1.1-3.2,3.9-2.1,6.2l1.4,2.9c1.2,2.5-1.2,5.2-3.7,4.3l-12.7-4.3l-14.6-4.9
				c-2.4-0.8-5,0.5-5.9,2.9c-0.8,2.4,0.5,5,2.9,5.9l14.6,4.9c1.6,0.5,2.5,2.3,1.9,3.9c-0.5,1.6-2.3,2.5-3.9,1.9l-21.8-7.4
				c-2.4-0.8-5,0.5-5.9,2.9c-0.8,2.4,0.5,5,2.9,5.9l21.8,7.4c1.6,0.5,2.5,2.3,1.9,3.9c-0.5,1.6-2.3,2.5-3.9,1.9l-14.6-4.9
				c-2.4-0.8-5,0.5-5.9,2.9c-0.8,2.4,0.5,5,2.9,5.9l14.6,4.9c1.6,0.5,2.5,2.3,1.9,3.9c-0.5,1.6-2.3,2.5-3.9,1.9l-8.8-3
				c-2.4-0.8-5,0.5-5.8,2.9c-0.8,2.4,0.5,5,2.9,5.9l8.7,3l14.6,4.9c9.7,3.3,20.1-1.9,23.4-11.6l9.4-27.7c1.6-4.6,1.2-9.7-0.9-14.1
				l-5.4-10.9C992.2,451,989.4,450,987.2,451.1"/>
			<path class="st2" d="M915.1,569.3c0,8.5-6.9,15.4-15.4,15.4c-8.5,0-15.4-6.9-15.4-15.4c0-8.5,6.9-15.4,15.4-15.4
				C908.2,554,915.1,560.8,915.1,569.3"/>
		</g>
		<polygon class="st11" points="901.6,578.7 933.8,600.5 914.3,615.5 		"/>
		<g>
			<path class="st11" d="M906.8,605.8c3.3-2.6,7.9-2.4,11.1-0.1c0.7-0.9,1.5-1.8,2.4-2.6s2-1.3,3.1-1.7c-1.5-3.7-0.4-8.1,2.9-10.7
				c4-3.1,9.8-2.3,12.9,1.7c3.1,4,2.3,9.8-1.7,12.9c4.1,5.4,3.1,13.1-2.3,17.3c-5.4,4.1-13.1,3.1-17.3-2.3c-4,3.1-9.8,2.3-12.9-1.7
				C902,614.7,902.7,608.9,906.8,605.8"/>
		</g>
		<polygon class="st5" points="900.8,575.5 933,597.3 913.5,612.3 		"/>
		<g>
			<path class="st5" d="M906,602.5c3.3-2.6,7.9-2.4,11.1-0.1c0.7-0.9,1.5-1.8,2.4-2.6s2-1.3,3.1-1.7c-1.5-3.7-0.4-8.1,2.9-10.7
				c4-3.1,9.8-2.3,12.9,1.7c3.1,4,2.3,9.8-1.7,12.9c4.1,5.4,3.1,13.1-2.3,17.3c-5.4,4.1-13.1,3.1-17.3-2.3c-4,3.1-9.8,2.3-12.9-1.7
				C901.2,611.4,901.9,605.6,906,602.5"/>
		</g>
	</g>
	<path class="st12" d="M608.6,921"/>
	<g>
		<path class="st13" d="M888.3,365.7c23.3,182.1-38.5,341.7-195.5,361.9C535.9,747.7,429.4,608,406,425.9
			c-23.4-182.1,64.1-212.2,221.1-232.3C784.1,173.5,865,183.5,888.3,365.7z"/>
		<path class="st14" d="M602,510.6c3.2,25-14.7,47.9-40,51.2c-25.3,3.2-48.4-14.4-51.6-39.4c-3.2-25,14.7-47.9,40-51.2
			C575.7,468,598.8,485.6,602,510.6z"/>
		<path class="st15" d="M590.3,512.1c2.2,17.5-10.1,33.5-27.6,35.7c-17.5,2.2-33.4-10.1-35.7-27.6c-2.2-17.4,10.1-33.4,27.6-35.7
			C572,482.3,588,494.7,590.3,512.1z"/>
		<path class="st5" d="M543.2,501.5c0.6,5-2.9,9.7-8,10.3c-5.1,0.6-9.7-3-10.3-8c-0.6-5,2.9-9.7,8-10.3
			C537.9,492.9,542.6,496.5,543.2,501.5z"/>
		<path class="st16" d="M587.6,628c30,13.3,61.2,19.9,91.3,15.7c30.4-3.9,58-19.4,85-38.3c-9,13.9-21,26-35.1,35.4
			c-14.1,9.5-30.6,15.9-47.8,18.3c-17.2,2.2-34.8,0.6-51-4.9C614,648.8,599,640.1,587.6,628z"/>
		<path class="st14" d="M724.8,494.9c3.2,25,26.3,42.7,51.6,39.4c25.3-3.2,43.2-26.2,40-51.2c-3.2-25-26.3-42.7-51.6-39.4
			C739.5,447,721.6,469.9,724.8,494.9z"/>
		<path class="st15" d="M736.6,493.4c2.2,17.5,18.2,29.8,35.7,27.6c17.5-2.2,29.8-18.2,27.6-35.7c-2.2-17.4-18.2-29.8-35.7-27.6
			C746.7,459.9,734.3,475.9,736.6,493.4z"/>
		<path class="st5" d="M736.2,476.7c0.6,5,5.3,8.6,10.3,8c5.1-0.6,8.6-5.3,8-10.3c-0.6-5-5.3-8.6-10.3-8
			C739.2,467.1,735.6,471.7,736.2,476.7z"/>
		<path class="st17" d="M538.4,252.1c0.4,3.3,1.1,6.6,1.9,9.9c0.8,3.3,1.7,6.5,2.9,9.6c1.2,3.1,2.4,6.2,4.1,9.1
			c1.7,2.9,3.6,5.5,6,7.8l-1.4,0.4l2.7-12.6l2.8-12.6l0.5-2.3l1.4,1.9l14.7,20.2l-2,0.4l6.8-23l0.6-2l1.2,1.7
			c3.7,5.1,7.5,10.1,11.1,15.2l-1.5,0l8.5-12.5l0.5-0.7l0.6,0.6l7.6,8.3l-0.7,0l7.9-7.1l0.2-0.2l0.2,0.2c0.9,1.1,2.1,2.1,3.3,3
			c1.2,0.9,2.5,1.7,3.8,2.4c-1.4-0.7-2.7-1.4-4-2.2c-1.3-0.8-2.5-1.7-3.5-3l0.4,0l-7.5,7.4l-0.4,0.3l-0.4-0.4l-7.8-8.1l1.1-0.1
			l-8.2,12.7l-0.7,1.1l-0.8-1c-3.8-5-7.6-10-11.4-15.1l1.8-0.3l-6.6,23l-0.7,2.3l-1.4-2l-14.5-20.3l1.9-0.4l-2.9,12.6l-3,12.6
			l-0.3,1.4l-1-1c-4.9-4.9-7.9-11.3-10-17.7c-1-3.2-1.8-6.5-2.4-9.8C539.1,258.8,538.6,255.4,538.4,252.1z"/>
		<path class="st18" d="M845.8,299c20.5,54.9,43.6,128.8,25.3,209.2c-11.1,48.7-55.2,109.7-78.2,113.3c-15,2.4-43.8-54.6-124-44.3
			c-80.2,10.3-93.8,72.6-108.8,74.1c-23.2,2.3-97.7-41.6-111.2-89.1c-18.9-66.5-25.6-143.1-19.4-197.4c0,0-8.5,27.2-6.7,47.6
			c1.8,20.4-17,42.8,3.7,122.2c20.7,79.4,33.3,129.4,95,187.2c41,38.5,83.5,45.5,102.8,49.6c18.4,12.3,42.9,17.8,71.3,14.2
			c28.5-3.6,50.7-15.1,65.4-31.7c17.6-8.8,57-26.3,87-74c45.1-71.6,47-121.8,47-203.8c0-82.1-25.4-93.8-28.7-123.7
			C863.1,322.8,845.8,299,845.8,299z M680.5,667.2c-47.7,8.3-86.2-25.7-86.2-25.7s6.2-10.7,17.7-16.3c13.1-6.4,37,9.3,63.9,5.9
			c26.9-3.4,53-25.6,67.2-22.7c12.6,2.6,23.9,13.3,23.9,13.3S728.7,663.2,680.5,667.2z"/>
		<g>
			<path class="st19" d="M642.5,696.8c0,0,1.7,15.9,10.6,21.7l2.1-12.1c0,0,8.8,26.8,29.4,24.1c15.5-2,22.5-18.1,23-30.6
				c0,0,4.4,6.8,7.3,19c0,0,4.5-9.7,5.9-19.5c0,0,1.2-1.2,1.8,3.6c0,0,6.3-6.2,3.5-20c0,0-20.5-4.1-29.1-3.8c0,0,0.7,4.4-2,5.6
				c-2.7,1.2-4.5-1-4.5-1l-0.2,9l-1.7-3c0,0-3.3,4.8-6.4,2s-5.1-8.1-5.1-8.1l2,6.8c0,0-5.2-1.5-7.3-8.1c0,0-7.6,2.2-16,7.4
				C647.6,695.1,642.5,696.8,642.5,696.8z"/>
			<g>
				<path class="st20" d="M643.1,700.9c0.4,8.7,3.6,19.2,12.6,22.4c0,0-1,0.6-1,0.6l1-7.4l0.5-3.6l1.3,3.4
					c4.4,11.3,13.6,24.1,27,23.2c13.7-0.9,23.4-10.8,24-24.6c0,0,0.3-6.8,0.3-6.8c2.1,7.2,5.2,15.4,2.1,22.8c0,0-1.3-1.2-1.3-1.2
					c6.3-4,10.3-11.3,11.4-18.7c0.2-1.1,0.3-2.7,0.4-3.8c0-1.3,0-2.6,0-3.9c0.4-0.4,1-0.1,1.2,0.3c0.5,1,0.6,2.2,0.8,3.4
					c-0.1-0.8-0.7-4-1.7-3.5c0,0,0.1-0.1,0.1-0.1c0.2,1.9,0.3,4,0.2,5.8c-0.2,8.6-4.1,17.2-11.4,22.2c0,0-2.6,1.7-2.6,1.7l1.3-2.9
					c1.8-4.6,0.7-10.1-0.6-14.8c0,0,2.3-0.3,2.3-0.3c-0.2,6.9-2.6,13.8-7.5,18.9c-4.8,5.1-11.7,7.7-18.6,8.2
					c-14.6,1-24.7-12.8-28.9-25.3c0,0,1.8-0.1,1.8-0.1c-0.1,0.5-1.4,8.1-1.4,8.3C646.1,721.9,642.6,710.4,643.1,700.9L643.1,700.9z"
					/>
			</g>
		</g>
		<path class="st20" d="M806.1,703.3c-0.1,0.1-0.2,0.2-0.2,0.2l-4.1-9.3c0,0-0.7,12.2-8.3,24.3c-7.6,12.1-39.7,27.6-39.7,27.6
			l-3.2-7.1c0,0-2.3,10.1-5.5,15.8c-3.2,5.7-11.2,7-11.2,7c0.2-19-3.1-27.2-3.1-27.2s0.7,18.3-4.9,28.2
			c-5.6,9.9-29.2,10.1-29.2,10.1l-4.4-13.9c0.1,12.5-11.2,21-25.7,13.4c-14.5-7.6-19.2-22.3-19.2-22.3c2.3,14.1,12.1,30.2,12.1,30.2
			c-17-1.2-22.5-17.8-22.5-17.8s-31.5-4-45.6-13.2l1.6,8.3c12.7,7.6,23.5,12.3,31.5,14c18.4,12.3,42.9,17.8,71.3,14.2
			c28.5-3.6,50.7-15.1,65.4-31.7c11.6-5.8,28.5-21,46.7-44.2L806.1,703.3z"/>
		<g>
			<path class="st20" d="M620.3,766.7l-19-8.8c0,0-2.8,2.7-12.4-2.2c-9.6-4.9-31.7-31.2-31.7-31.2l4.5,20.7c0,0-36-25.1-42-32.8
				c-5.9-7.7-21.6-20.2-22.4-26.7c-0.8-6.5-2.2-17.1-2.2-17.1l-5.1,3.9c0,0-13.9-9-14.9-17.3s-15.7-36.8-15.7-36.8l-10.5-20.9
				l-4.5,0.6c14.7,45.6,33.8,82.2,77,122.7c39.4,36.9,80.1,44.9,100.3,49.1L620.3,766.7z"/>
			<path class="st20" d="M848,679.2c24.7-39.3,36.5-72.1,42-107.4l-15.5,25.8c0,0-12.8,50-20,56.5s-13.8,1.8-13.8,1.8l2.4,18.4
				l-17,15.8l-5.6-12.9l-2.1,20.5L807.7,709l-42,41.5c0,0-0.1,0.2-0.2,0.4C784.8,741.4,820.3,723.1,848,679.2z"/>
		</g>
		<path class="st21" d="M862.3,425c-0.6,0.1-2.9,0.1-6.2,0.1l-2,0c-10.6,0.1-28.7,0.1-38.8,0.7c-17.3,1.1-43.1,2.6-61.6,5.5
			c-16.7,2.6-39.6,7.5-53.9,15.4c-8.4,4.6-14.1,11.8-17.3,19.6c-1.1-2.6-3.1-4.5-3.9-5.2c-3.5-2.7-14.1-4.6-24-3.4
			c-9.9,1.3-19.4,6-22.4,9.3c-0.9,1.1-2.2,3.1-2.5,6c-5.1-6.7-12.4-12.2-21.7-14.6c-15.8-4.1-39.2-2.9-56.1-1.3
			c-18.6,1.8-44,6.9-61,10.2c-10,1.9-27.5,6.5-37.8,9.1l-1.9,0.5c-3.2,0.8-5.5,1.4-6,1.4c-2.8,0.4-1.8,6.1-1.5,8.2
			c0.3,2.1,3.4,19.6,4.1,21.3c0.7,1.8,4.2,1.3,6,1.1c1.9-0.2,8.9-1.3,11.5,3.2c0,0.1,0.1,0.1,0.1,0.2c3.1,12.5,8.4,26.8,14.3,38.3
			c8.1,15.8,16.8,25.7,25.7,29.3c4.7,1.9,12.2,2.7,22.9,2.4c8.2-0.2,18.3-1.1,30.1-2.5c0.7-0.1,1.4-0.2,2.1-0.3
			c19.4-2.5,37.4-5.8,42.3-6.8c11.4-2.3,25.9-14.7,29.6-30.6c2.6-11.1,4.3-24.8,5.1-41.9c0,0,0,0,0,0c0-0.1,0-0.2,0-0.4
			c0-0.2,0-0.4,0.1-0.7c0.1-5,1.5-15.1,1.6-17.1c0.2-2.7,0.3-11.8,16.3-13.9c16-2.1,18.4,6.7,19.3,9.3c0.7,1.9,4.5,11.2,5.9,16
			c0.1,0.3,0.2,0.6,0.3,0.8c0.1,0.2,0.1,0.3,0.1,0.4c0,0,0,0,0,0c5.1,16.3,10.2,29.2,15.5,39.3c7.6,14.5,24.8,22.8,36.4,22.1
			c5-0.3,23.3-1.6,42.7-4.1c0.7-0.1,1.4-0.2,2.1-0.3c11.8-1.6,21.8-3.3,29.8-5.1c10.5-2.4,17.5-5.1,21.6-8.1
			c7.7-5.8,13.6-17.5,17.4-34.9c2.8-12.7,4.4-27.8,4.2-40.7c0-0.1,0-0.1,0.1-0.2c1.4-5,8.5-5.8,10.3-6c1.9-0.2,5.3-0.7,5.5-2.6
			c0.2-1.9-1.1-19.6-1.4-21.7C865.6,430.5,865.1,424.7,862.3,425z M626.8,497.3c-0.7,17.6-2.4,31.5-4.9,42.6
			c-1.6,7-5.8,12.1-9.1,15.2c-4.6,4.3-9.1,6.5-11.9,7c-4.1,0.8-23.4,4.5-43.6,7c-24.2,3-41.5,3.3-47.4,0.9
			c-6.2-2.6-13.3-11.1-20-24.1c-5.7-11.1-10.8-24.8-13.6-36.7c-0.6-2.6-1.3-5.1-1.9-7.2c-1.9-7-2.9-11.1-1.5-13.4
			c1.8-3.1,8.9-6.3,21.7-9.7c13.8-3.7,30.9-6.9,47.5-9.1c3.7-0.5,7.5-0.9,11.1-1.3c22.5-2.2,41.1-1.9,52.2,1
			c8.4,2.2,13.5,7.5,16.3,11.5C625.1,486,627,492.1,626.8,497.3z M840.1,454.9c0,2.2,0,4.8,0,7.5c0.3,12.3-1.2,26.8-3.9,39
			c-3.2,14.3-7.9,24.4-13.3,28.4c-5.1,3.9-21.9,7.9-46.1,11.1c-20.1,2.7-39.8,4-43.9,4.3c-2.8,0.2-7.8-0.8-13.3-3.8
			c-3.9-2.2-9.3-6.1-12.6-12.4c-5.3-10-10.3-23.1-15.5-39.9c-1.5-5-1.2-11.4,0.9-17.1c1.7-4.7,5.3-11.1,12.9-15.3
			c10-5.6,27.9-10.6,50.3-14.1c3.6-0.6,7.3-1.1,11.1-1.6c16.5-2.1,33.9-3.3,48.2-3.2c13.3,0.1,20.9,1.3,23.4,3.9
			C840.1,443.4,840.1,447.6,840.1,454.9z"/>
		<path class="st7" d="M689,468.4c1.8-4.7,5.6-11.1,13.4-15.3c10.4-5.6,29-10.7,52.2-14.4c3.7-0.6,7.6-1.1,11.5-1.6
			c17.2-2.2,35.2-3.5,50.1-3.5c13.8,0,23.8,1.6,25.5,4.8c3.9,7.1-2.3,41.4-2.3,41.4s0.6-22.7,0.6-24.9c0.1-7.2,0-11.4-1.9-13.3
			c-2.5-2.5-10.2-3.8-23.4-3.9c-14.3-0.1-31.7,1.1-48.2,3.2c-3.7,0.5-7.4,1-11.1,1.6c-22.4,3.5-40.2,8.6-50.3,14.1
			c-7.6,4.2-11.2,10.6-12.9,15.3c-2.1,5.8-1.4,11.4-0.9,17.1C691.4,489,686.8,474.2,689,468.4z"/>
		<g>
			<path class="st22" d="M853.9,427.2c3,0,7.3-0.1,7.4-0.1c0.6,0,1.1,0.5,1.1,1c0,0.6-0.5,1-1,1.1c-0.1,0-4.3,0.1-7.2,0.1
				L853.9,427.2z"/>
			<path class="st22" d="M692,454.6c6-6.9,18.5-12.1,41.7-17.6c19-4.5,55-8,74.5-9c11.3-0.6,34.6-0.8,46.2-0.9l0.3,2.1
				c-11.5,0.1-35.1,0.3-46.4,0.9c-19.4,1-55.4,3.6-74.3,8.1c-15.1,3.6-33.9,8.6-41.2,16.8c-0.2,0.2-1.1,1.1-1.4,0.9
				C691,455.6,691.6,455.1,692,454.6z"/>
		</g>
		<g>
			<path class="st23" d="M840.5,497.9c0-0.6-1.1,0.3-1.2,0.9c-4.9,26.2-13.4,34.1-13.3,34.8C826.1,534.3,838.8,523.5,840.5,497.9z"
				/>
		</g>
		<g>
			<path class="st7" d="M718.8,540.9c5.6,3.1,10.5,4.3,13.4,4.1c4.2-0.2,24.2-1.6,44.7-4.3c24.6-3.3,41.5-7.3,46-10.9
				c4-3.3,10.3-15,13.5-29.5c1.1-5,1.9-10,2.5-15.5c-0.7,7.2-1.5,14.3-2.9,20.8c-3.2,14.3-7.2,24.5-12.6,28.5
				c-5.1,3.9-21.9,7.9-46.1,11.1c-20.1,2.7-39.8,3.6-43.9,3.8c-2.8,0.2-7.8-0.3-13.3-3.3c-3.9-2.2-9.3-6.1-12.6-12.4
				c-3.7-7.1-6.5-16-10.1-26.5c3.1,8.4,6.1,15.6,9.3,21.6C710.1,534.9,714.8,538.7,718.8,540.9z"/>
		</g>
		<g>
			<path class="st23" d="M733.1,551.2c0.3,0,0.5-0.2,0.5-0.5c0-0.3-0.2-0.5-0.5-0.5c-11.3-0.3-16.1-4.1-22.1-10
				c-5.7-5.6-11.1-21.7-11.1-21.8c-0.1-0.3,4.5,16.8,10.4,22.6C716.5,546.9,721.4,550.9,733.1,551.2
				C733.1,551.2,733.1,551.2,733.1,551.2z"/>
		</g>
		<path class="st24" d="M703.9,488.9c0,0-6-15,2.3-22.6c2.1-1.9,14.5-12.2,62.3-16.9l-27.9,15.1c0,0-5.7-2.7-11.9-0.5
			c-6.2,2.2-13.7,4.9-11.3,9.1s4,4.3-0.3,7.6C712.7,483.9,703.9,488.9,703.9,488.9z"/>
		<path class="st25" d="M826.7,469.1l-92.3,64c0,0,76.8-3.3,85.1-20.7C829.1,492.3,826.7,469.1,826.7,469.1z"/>
		<path class="st24" d="M492.5,517.7c0,0-6.8-20.5-5.5-23.9c1-2.6,20.8-9,73.9-17.8L532.9,491c0,0-5.7-2.7-11.9-0.5
			c-6.2,2.2-13.7,4.9-11.3,9.1c2.4,4.2,4,4.3-0.3,7.6C505,510.5,492.5,517.7,492.5,517.7z"/>
		<path class="st7" d="M623.9,476.8c-2.9-4.1-8.2-9.3-16.9-11.4c-11.5-2.8-30.7-3.1-54.1-0.7c-3.8,0.4-7.6,0.8-11.5,1.3
			c-17.2,2.2-34.9,5.5-49.3,9.3c-13.3,3.5-22.6,7.5-23.5,11.1c-2,7.9,12.7,39.5,12.7,39.5s-6.3-21.8-6.9-23.9
			c-1.9-7-2.9-11.1-1.5-13.4c1.8-3.1,8.9-6.3,21.7-9.7c13.8-3.7,30.9-6.9,47.5-9.1c3.7-0.5,7.5-0.9,11.1-1.3
			c22.5-2.2,41.1-1.9,52.2,1c8.4,2.2,13.5,7.5,16.3,11.5c3.5,5,4.3,10.7,5.2,16.4C626.8,497.3,627.5,481.8,623.9,476.8z"/>
		<path class="st25" d="M615.3,498.7l-92.3,64c0,0,76.8-3.3,85.1-20.7C617.7,521.9,615.3,498.7,615.3,498.7z"/>
		<g>
			<path class="st22" d="M454.3,478.4c-2.9,0.7-7.4,1.8-7.5,1.8c-0.6,0.1-0.9,0.7-0.8,1.3c0.1,0.6,0.7,0.9,1.3,0.8
				c0.1,0,4.5-1.1,7.2-1.8L454.3,478.4z"/>
			<path class="st22" d="M617.6,464.2c-7.6-5.1-20.9-7.1-44.7-6.5c-19.5,0.4-55.3,6.2-74.4,10.1c-11.1,2.3-33.7,8-45,10.8l0.3,2.1
				c11.2-2.8,34-8.6,45.1-10.9c19.1-3.9,54.5-10.5,73.9-10.9c15.5-0.3,35-0.3,44.1,5.9c0.2,0.1,1.4,0.8,1.6,0.6
				C618.8,464.8,618.1,464.5,617.6,464.2z"/>
		</g>
		<g>
			<path class="st7" d="M613.4,554.4c-4.6,4.4-9.1,6.8-11.9,7.3c-4.1,0.8-23.8,4.5-44.3,7.1c-24.6,3.1-42,3.4-47.3,1
				c-4.7-2.1-13.7-11.9-20.5-25.2c-2.3-4.5-4.3-9.2-6.3-14.3c2.5,6.8,5,13.4,8.1,19.4c6.7,13,13.1,21.9,19.3,24.4
				c5.9,2.5,23.2,2.1,47.4-0.9c20.2-2.5,39.4-6.6,43.5-7.4c2.8-0.6,7.5-2.2,12-6.6c3.3-3.1,7.5-8.2,9.1-15.2
				c1.8-7.8,2.2-17.1,3.1-28.2c-0.9,8.9-2,16.6-3.5,23.3C620.4,546.4,616.7,551.3,613.4,554.4z"/>
		</g>
		<g>
			<path class="st23" d="M602.1,567.9c-0.3,0.1-0.5-0.1-0.6-0.4c-0.1-0.3,0.1-0.6,0.4-0.6c10.9-3.1,14.5-8.1,18.8-15.2
				c4.1-6.8,5.3-23.8,5.3-24c0-0.3-0.1,17.4-4.4,24.5C617.2,559.6,613.4,564.7,602.1,567.9C602.2,567.9,602.2,567.9,602.1,567.9z"/>
		</g>
		<g>
			<path class="st22" d="M635.2,468.3c-0.1,0-0.6,0.1-0.4-0.1c0.2-0.3,4.6-7,19.1-8.8c14.5-1.9,21.1,2.3,21.4,2.4
				c0.2,0.2,0.3,0.5,0.2,0.7c-0.2,0.2-0.8-0.2-2.5-0.6s-5.9-2.6-18.8-1c-12.8,1.6-16.2,5.6-17,6.4
				C636.3,468.1,635.3,468.2,635.2,468.3z"/>
		</g>
		
			<ellipse transform="matrix(0.8068 -0.5908 0.5908 0.8068 -153.6557 467.1127)" class="st26" cx="637.4" cy="468.5" rx="4.3" ry="2.4"/>
		<g>
			<path class="st23" d="M484.8,543.5c-0.2-0.6,1.1,0,1.4,0.6c11.3,24.2,21.6,29.6,21.7,30.3C508,575.1,493,567.8,484.8,543.5z"/>
		</g>
		<path class="st27" d="M821.4,202.2c-94.8-53.1-274.8-25.3-362.9,33.8c-98.3,66-52.1,227.2-26.8,298.5c0,0,0.4-141.7,43.3-167.8
			s76.2-40.3,162.4-51.3c86.2-11,122-5.7,170.1,8.7s84.4,151.5,84.4,151.5C898.3,400.2,894.6,243.2,821.4,202.2z"/>
		<path class="st28" d="M826.8,315.7c-9.4-10.3-27.9-16.9-51.4-20.7c-5.4-0.9-11-1.6-16.8-2.1c-2.7-0.3-5.5-0.5-8.3-0.7
			c-2.5-0.2-5-0.3-7.5-0.5c-3.3-0.2-6.7-0.3-10.2-0.4c-33.1-1.1-70,1.3-103.9,5.6c-4.3,0.5-13.7-0.7-13.7-0.7L603,301l-13-0.8
			l-8.4,5.3l-11-2.8l-7.9,7.6l-14.3-9.1c0,0,0.8,13-1.9,13.8c-45.5,14.2-81.8,33-89.5,48.2c-5.2,10.2-17.7,48.7-17.7,48.7l-6.8,6.9
			l3.4,9.5l-3.5,7.7c0,0,1,25.7,1.2,30c0.3,6.9,0.4,13.1,0.8,18.6c4.3-43.3,15-100.7,40.7-116.4c42.9-26.1,76.2-40.3,162.4-51.3
			c86.2-11,122-5.7,170.1,8.7c30.8,9.2,56.9,68.7,71.7,110.3C873.4,395.4,849.6,340.8,826.8,315.7z"/>
		<path class="st28" d="M514.3,346.2l-0.9,0.1c-0.3,0-0.6,0-0.7,0l-1,0l-1-0.1l-0.8-0.1c-1-0.2-2.1-0.4-2.9-0.7
			c-0.9-0.3-1.7-0.6-2.6-0.9l-2.2-1.1c-2.9-1.6-5.2-3.4-7.3-5.4l-1.5-1.4l-1.3-1.5l-2.6-3.1c-1.4-2.1-3-4.2-4.2-6.3
			c-5.1-8.5-8.1-17.4-10.8-26.2c-1.2-4.4-2.5-8.8-3.4-13.2c-1-4.4-2-8.8-2.6-13.3c-1.6-8.8-2.6-17.8-3.7-26.6
			c2.8,8.5,5.4,17,8.7,25.2c1.5,4.2,3.3,8.2,5,12.2c1.6,4.1,3.7,7.9,5.6,11.8c4.1,7.6,8.5,15,13.8,21c1.3,1.5,2.7,2.7,4.1,4.1
			l2.1,1.7l1,0.8l1.1,0.6c1.4,0.9,2.8,1.5,3.9,1.8c0.3,0.1,0.6,0.1,0.8,0.2l0.6,0c0.2,0.1,0.3-0.1,0.4-0.1c0,0,0.1,0,0,0
			c0,0-0.1,0-0.1-0.1c0,0-0.1,0-0.1,0l-0.3,0c-0.2,0-0.3,0-0.5,0c5.7-0.9,11,3,11.9,8.7C523.9,340,519.9,345.3,514.3,346.2z"/>
		<path class="st28" d="M529.3,336.4c-0.4,0-0.8-0.1-1.1-0.2l-0.6-0.2c-0.4-0.1-0.8-0.2-1.1-0.4c-0.6-0.3-1.3-0.5-1.8-0.8
			c-1.1-0.6-2.2-1.2-3.1-1.8c-1-0.6-1.8-1.3-2.6-2c-0.8-0.7-1.6-1.4-2.3-2.2l-2-2.3l-1.7-2.3c-1.2-1.5-2-3.2-3-4.8
			c-3.6-6.5-5.8-13.1-7.7-19.8c-1.7-6.7-3-13.3-3.8-20c-0.4-3.4-0.9-6.7-1.1-10l-0.7-10l2.7,9.6c0.9,3.2,2,6.3,3,9.4
			c2.1,6.2,4.7,12.3,7.4,18.1c3,5.7,6.2,11.2,10.1,15.7c1,1,1.9,2.3,3,3.1l1.6,1.4l1.6,1.2c0.5,0.4,1.1,0.7,1.6,1
			c0.5,0.3,1,0.6,1.5,0.7c0.5,0.3,0.9,0.3,1.4,0.4c0.2,0.1,0.3,0,0.5,0c0.1,0,0.1,0,0.1,0l0,0c0,0-0.3-0.1-0.5-0.1L529.3,336.4z"/>
		<path class="st28" d="M545.2,331.1c-1-0.4-1.2-0.5-1.7-0.8c-0.4-0.2-0.8-0.5-1.2-0.7c-0.8-0.5-1.4-1-2.1-1.5
			c-1.3-1-2.5-2.1-3.6-3.2c-1.2-1.1-2.1-2.3-3-3.5c-0.9-1.2-1.7-2.5-2.5-3.7c-3-5.1-4.9-10.5-6-15.8c-0.7-2.6-0.9-5.3-1.2-8
			c-0.2-2.6-0.3-5.3-0.4-7.9c0.1-2.6,0.1-5.2,0.3-7.8l0.8-7.7l1.2,7.5c0.5,2.5,1.1,4.9,1.7,7.4c0.7,2.4,1.4,4.8,2.3,7.1
			c1,2.3,1.8,4.6,3,6.6c2.1,4.3,4.8,8.1,8,11.1c0.8,0.7,1.6,1.4,2.4,2.1c0.9,0.6,1.6,1.2,2.5,1.7c0.8,0.5,1.7,0.9,2.5,1.2
			c0.4,0.1,0.8,0.3,1.2,0.4c0.2,0,0.4,0.1,0.5,0.1c0,0,0.4,0.1,0.1-0.1L545.2,331.1z"/>
		<path class="st28" d="M801.5,301.5c0,0.1,0.2-0.2,0.3-0.3c0.1-0.1,0.3-0.4,0.5-0.5c0.3-0.4,0.6-0.8,0.9-1.2
			c0.6-0.9,1.2-1.7,1.8-2.7c1.2-1.9,2.2-3.9,3.1-6c1.9-4.2,3.2-8.8,4.3-13.5c1-4.7,1.5-9.6,1.7-14.6c0.2-2.5,0-5,0-7.5
			c-0.1-2.5-0.3-5-0.5-7.5c0.8,2.4,1.7,4.8,2.5,7.2c0.7,2.5,1.5,4.9,2,7.4c1.2,5,2,10.2,2.3,15.5c0.3,5.3,0.2,10.7-0.6,16.2
			c-0.4,2.7-0.9,5.5-1.7,8.2c-0.4,1.4-0.8,2.8-1.3,4.2c-0.3,0.7-0.5,1.4-0.8,2.1c-0.2,0.4-0.3,0.7-0.5,1.1c-0.2,0.4-0.3,0.7-0.7,1.3
			L801.5,301.5z"/>
		<path class="st28" d="M785.5,302.1c0.4-0.4,1-1.3,1.4-2.1c0.5-0.8,1-1.6,1.5-2.4c0.9-1.7,1.9-3.4,2.7-5.2
			c1.7-3.5,3.2-7.2,4.5-11.1c1.2-3.8,2.4-7.8,3.1-11.8c0.8-4,1.3-8.1,1.7-12.3c1,4.1,1.9,8.2,2.4,12.5c0.6,4.2,0.8,8.6,0.9,12.9
			c0,4.4-0.3,8.7-0.8,13.2c-0.3,2.2-0.6,4.4-1.1,6.7c-0.2,1.1-0.5,2.2-0.7,3.4c-0.3,1.2-0.5,2.2-1.1,3.6L785.5,302.1z"/>
		<path class="st28" d="M855.5,365.4c-0.4,0.1-0.1,0.1-0.1,0.1c0.1,0,0.3,0,0.4,0c0.3,0,0.6-0.1,1-0.1c0.7-0.2,1.4-0.4,2.1-0.7
			c0.8-0.3,1.5-0.7,2.2-1.1c0.7-0.5,1.5-0.9,2.2-1.4c2.9-2.1,5.5-5.1,7.7-8.5c1.2-1.6,2.1-3.5,3.1-5.3c0.9-1.9,1.8-3.8,2.6-5.8
			c0.7-2,1.5-4,2.1-6.1l1.7-6.3l0.3,6.6c0,2.2-0.1,4.4-0.2,6.7c-0.2,2.2-0.4,4.5-0.8,6.7c-0.5,2.2-0.8,4.5-1.5,6.8
			c-1.3,4.5-3.2,9.1-6.1,13.3c-0.8,1-1.6,2.1-2.4,3.1c-0.9,1-1.8,2-2.9,2.9c-1,0.9-2.2,1.8-3.4,2.6c-0.7,0.4-1.3,0.8-2,1.2
			c-0.4,0.2-0.7,0.4-1.1,0.6c-0.5,0.2-0.7,0.3-1.6,0.6L855.5,365.4z"/>
		<polygon class="st27" points="462.6,235.5 466.3,198.8 478.1,212.6 502.8,186.3 505.2,204.8 535.3,177.4 540.5,189.3 561.1,180.1 
			561.6,189.7 601.9,163.7 606.4,180.8 619.3,166.5 625,177.5 686.9,158.5 688,166.6 719.8,166.3 720.6,172.3 736.5,170.2 
			737.4,177.6 782.3,170.7 793.4,191.4 800.4,192.2 801.1,197.9 853.6,248.1 865,237.3 867.4,256.6 874.2,255.7 876.1,281.7 
			881.3,281 886.1,323.1 842,255.4 791.5,219.6 674.7,189.1 551,227.6 		"/>
		<path class="st27" d="M457.4,262.5c0,0-4.3-19.1-17-29.3l-0.5,18.2l-10.6-0.4l-0.8,13.5l-6.6,2.7l-0.6,7.9l4.3,80.3l32.2-89.7
			L457.4,262.5z"/>
		<polygon class="st28" points="453.2,380.8 434.6,359.7 461,369.3 		"/>
		<polygon class="st28" points="449.3,393.8 432.9,380.5 454,380.7 		"/>
		<path class="st17" d="M622.2,265.6c-0.5-0.6-1-1.1-1.4-1.7c-0.4-0.6-0.9-1.3-1-1.7l-0.5-1.3l-1.5,0.9c-2.3,1.3-4.5,2.7-6.8,4
			c-1.6-2.6-3.2-5.1-4.8-7.6l-2.2-3.5l-3.4,3.4c-2,2-3.9,4.1-5.8,6.2c-2-3.7-4-7.5-6.1-11.2l-5.2-9.3l-4.4,10.1
			c-1.6,3.7-3.2,7.5-4.8,11.2c-2.3-3.8-4.5-7.6-6.9-11.3l-6.4-10.3l-3.5,11.3c-1.3,4.1-2.5,8.3-3.7,12.4c-0.4,1.4-0.8,2.9-1.2,4.3
			c-0.1-0.1-0.2-0.3-0.2-0.4c-1.5-2.7-2.6-5.7-3.8-8.8c-1.1-3.1-1.9-6.3-2.7-9.5c-0.8-3.2-1.5-6.5-2-9.9c-0.6,3.4-0.8,6.8-0.8,10.2
			c-0.1,3.4,0.1,6.9,0.6,10.4c0.4,3.5,1.2,6.9,2.4,10.4c1.2,3.4,2.8,6.9,5.2,10l4.3,5.6l2.9-7c1.7-4,3.2-8,4.8-12
			c0.1-0.3,0.2-0.6,0.3-0.9c2.2,3.9,4.4,7.7,6.6,11.6l6,10.4l4.4-11.1c1.6-4.2,3.3-8.3,4.9-12.5c1.5,2.2,2.9,4.5,4.4,6.7l3.8,5.6
			l3.7-5.1c2.2-3,4.2-6,6.3-9c1.5,1.6,3,3.2,4.5,4.8l2,2l1.6-1.5c2.3-2.2,4.6-4.4,6.8-6.6c0.2,0.2,0.5,0.4,0.7,0.6
			c0.6,0.5,1.3,1,2,1.4c1.3,0.8,2.7,1.6,4.1,2.2C624.3,267.8,623.2,266.7,622.2,265.6z"/>
		<path class="st17" d="M469,327.8c-1.7-1.3-3.5-3.8-5.1-6.5c-1.6-2.7-3.1-5.6-4.5-8.6l-4.3-9.1c-1.4-3.1-2.9-6.2-4.5-9.4
			c-0.2,3.5,0.1,7,0.4,10.5c0.4,3.5,1,6.9,1.9,10.3c0.5,2.3,1.3,4.5,2.1,6.7c-0.7-0.4-1.5-0.7-2.2-1.1l-0.4-0.2
			c-1.1-0.6-2.6-0.7-3.8-0.1c-2.1,1-3,3.5-2,5.7c0.7,1.5,1.5,2.9,2.3,4.3c0.8,1.4,1.7,2.8,2.6,4.1c1.2,1.7,2.4,3.3,3.8,4.9
			c-0.6,0.1-1.1,0.2-1.7,0.2c-1,0.1-2.1,0.1-3.2,0c-1.1-0.1-2.2-0.3-3.3-0.5c1.7,1.5,3.8,2.7,6.1,3.5c1.2,0.3,2.4,0.6,3.7,0.7
			c0.6,0,1.3,0,2,0c0.7-0.1,1.3-0.1,2.2-0.5c0.1-0.1,0.3-0.1,0.4-0.2c1.1-0.7,1.4-2.1,0.7-3.2l-0.4-0.6c-1-1.5-1.8-3.2-2.6-4.9
			c0.4,0.2,0.8,0.4,1.2,0.5c1.4,0.5,2.7,1,4.2,1.5l0.1,0c1.8,0.6,3.9,0,5.1-1.6C471.5,332.2,471.1,329.3,469,327.8z"/>
		<path class="st17" d="M864,283c-0.5,0-0.9,0-1.4,0c-0.2-3.8-0.4-7.6-0.8-11.4l-0.8-8.5l-3.6,5.1c-0.3-1.9-0.7-3.9-1.1-5.8
			c-0.6-2.4-1.2-4.8-2-7.2c-0.8-2.4-1.7-4.8-3.5-7.3l-2.2-3.1l-2.2,2.8l-1.4,1.8c-0.2-0.3-0.3-0.5-0.4-0.8c-0.8-1.4-1.7-2.9-2.6-4.2
			c-0.9-1.4-1.9-2.7-3-4c-1.1-1.3-2.2-2.5-3.6-3.4c0.9,1.3,1.6,2.8,2.2,4.3c0.6,1.5,1.2,2.9,1.7,4.5l1.6,4.5l1.4,4.5l1.1,3.6l3-2.8
			l1.1-1c0.3,0.8,0.5,1.7,0.7,2.6c0.5,2.2,1,4.4,1.5,6.7c0.9,4.6,1.6,9.2,2.3,13.8l1.4,9.2l3.7-6c0.3,1.6,0.7,3.3,1,4.9l0.5,2.5
			l2.2-0.5c0.7-0.1,1.4-0.3,2.1-0.5c1,4.2,2.1,8.3,3.4,12.5c0.3-5.1,0.3-10.1,0.1-15.1l-0.1-1.8L864,283z"/>
	</g>
	<g>
		<g>
			<path class="st29" d="M351,876.4c0,47.3-38.4,85.7-85.7,85.7s-85.7-38.4-85.7-85.7s38.4-85.7,85.7-85.7S351,829,351,876.4"/>
		</g>
		
			<rect x="287.6" y="839.6" transform="matrix(0.8518 -0.5239 0.5239 0.8518 -395.8002 286.3117)" class="st9" width="41.1" height="6.1"/>
		
			<rect x="219.4" y="822.2" transform="matrix(0.5557 -0.8314 0.8314 0.5557 -601.7963 559.3737)" class="st9" width="6.1" height="41.1"/>
		<g>
			<path class="st9" d="M317.3,867.2c0,6.8-5.5,12.2-12.2,12.2c-6.8,0-12.2-5.5-12.2-12.2c0-6.8,5.5-12.2,12.2-12.2
				C311.8,855,317.3,860.4,317.3,867.2"/>
			<path class="st9" d="M237.7,867.2c0,6.8-5.5,12.2-12.2,12.2s-12.2-5.5-12.2-12.2c0-6.8,5.5-12.2,12.2-12.2
				S237.7,860.4,237.7,867.2"/>
			<path class="st9" d="M335.5,943.7H196.3c-3.4,0-6.1-2.7-6.1-6.1v-38.4c0-3.4,2.7-6.1,6.1-6.1h139.2c3.4,0,6.1,2.7,6.1,6.1v38.4
				C341.6,941,338.9,943.7,335.5,943.7"/>
			<path class="st5" d="M224.4,930.6c-3.3,0-5.7-0.6-7.2-1.8c-1.5-1.2-2.2-2.9-2.2-5.2c0-1.2,0.4-2.4,1.3-3.4c0.9-1,2.1-1.8,3.8-2.3
				v-0.1c-1.3-0.3-2.4-0.9-3.1-1.8c-0.7-0.9-1.1-2-1.1-3.3c0-1.9,0.7-3.5,2.2-4.9c1.5-1.3,3.6-2,6.2-2c0.9,0,1.7,0,2.4,0.1
				c0.7,0.1,1.4,0.2,2,0.4l-0.3,3.8c-0.7-0.1-1.3-0.3-2-0.3c-0.6-0.1-1.4-0.1-2.1-0.1c-1.1,0-2,0.2-2.6,0.7c-0.6,0.5-1,1.2-1,2
				c0,1,0.4,1.8,1.3,2.4s2.1,0.9,3.9,0.9h1.2v3.9h-1.6c-1.8,0-3.2,0.4-4.1,1c-0.9,0.7-1.4,1.6-1.4,2.6c0,1,0.4,1.8,1.2,2.3
				c0.8,0.5,2.1,0.8,3.8,0.8c2.1,0,3.7-0.7,5-2.2c1.3-1.5,1.9-3.5,1.9-6.1h-2.3v-3.5h8.8v3.5h-2.2c0,3.9-1.1,6.9-3.3,9.1
				S228,930.6,224.4,930.6"/>
			<path class="st5" d="M246.8,934.1v-3.6h-0.1c-1.1,0-2.1,0-3.1-0.1c-0.9,0-2-0.2-3-0.3v-4.1c1.2,0.2,2.3,0.4,3.2,0.5
				c1,0.1,2,0.1,3,0.1c1.6,0,2.9-0.3,3.7-0.9c0.9-0.6,1.3-1.3,1.3-2.1c0-0.7-0.2-1.3-0.7-1.8c-0.5-0.5-1.4-1-2.9-1.5l-3-1
				c-1.4-0.5-2.5-1.2-3.3-2.3c-0.7-1-1.1-2.3-1.1-3.9c0-1.7,0.5-3.2,1.6-4.4c1.1-1.2,2.6-2.1,4.7-2.5v-4h3.3v3.6
				c0.8,0,1.6,0,2.5,0.1c0.9,0.1,1.7,0.2,2.6,0.4l-0.3,4c-0.9-0.2-1.7-0.3-2.5-0.4c-0.8-0.1-1.6-0.1-2.6-0.1c-1.6,0-2.8,0.3-3.5,0.8
				c-0.7,0.5-1.1,1.2-1.1,2c0,0.7,0.2,1.3,0.7,1.7c0.5,0.5,1.2,0.9,2.3,1.2l3,0.9c1.8,0.6,3.1,1.4,3.9,2.4c0.8,1,1.2,2.3,1.2,3.8
				c0,1.8-0.6,3.4-1.7,4.8c-1.2,1.3-2.8,2.3-4.8,2.8v3.9H246.8z"/>
			<path class="st5" d="M261.6,906.4l5.1-0.4l-0.4,11.2v5.4l-4.6,0.1V906.4z M261,927.3c0-0.9,0.2-1.7,0.7-2.3
				c0.5-0.6,1.2-0.9,2.2-0.9s1.7,0.3,2.3,0.8c0.5,0.5,0.8,1.4,0.8,2.4c0,0.9-0.2,1.6-0.7,2.2c-0.5,0.6-1.2,0.9-2.2,0.9
				s-1.7-0.3-2.3-0.8C261.2,929.1,261,928.4,261,927.3"/>
		</g>
		<path class="st5" d="M279,915.4l-0.7,5.6h4.6l0.7-5.6H279z M271.4,915.4l0.3-3.2h4.4l0.8-6.1h3.3l-0.7,6.1h4.6l0.8-6.1h3.3
			l-0.8,6.1h4.4l-0.3,3.2h-4.5l-0.7,5.6h4.3l-0.3,3.2h-4.4l-0.7,6.1h-3.3l0.7-6.1h-4.6l-0.7,6.1h-3.3l0.7-6.1h-4.4l0.3-3.2h4.5
			l0.7-5.6H271.4z"/>
		<g>
			<path class="st5" d="M315.6,919.8c-0.6,0-1.1,0.3-1.6,0.8c-0.5,0.5-0.7,1.5-0.7,2.9c0,1.5,0.2,2.5,0.6,3c0.4,0.5,0.9,0.8,1.6,0.8
				c0.7,0,1.2-0.3,1.7-0.8c0.4-0.5,0.7-1.4,0.7-2.7c0-1.6-0.2-2.7-0.7-3.3C316.8,920.1,316.2,919.8,315.6,919.8 M315.7,916.7
				c1.6,0,3.1,0.5,4.2,1.6c1.2,1.1,1.8,2.8,1.8,5.3c0,2.3-0.6,4.1-1.9,5.2c-1.3,1.2-2.7,1.7-4.4,1.7c-1.6,0-3-0.5-4.2-1.4
				c-1.2-0.9-1.8-2.7-1.8-5.3c0-2.4,0.6-4.2,1.9-5.4C312.6,917.2,314.1,916.7,315.7,916.7 M310.8,905.3l3,1.2l-9.8,24.8l-3-1.2
				L310.8,905.3z M299.2,909.1c-0.6,0-1.1,0.3-1.6,0.8c-0.5,0.5-0.7,1.5-0.7,2.9c0,1.5,0.2,2.5,0.6,3s1,0.8,1.6,0.8
				c0.6,0,1.2-0.3,1.6-0.8c0.4-0.5,0.7-1.4,0.7-2.7c0-1.6-0.2-2.7-0.6-3.3C300.4,909.4,299.9,909.1,299.2,909.1 M299.3,905.9
				c1.6,0,3,0.5,4.2,1.6c1.2,1.1,1.8,2.8,1.8,5.3c0,2.4-0.6,4.1-1.9,5.3c-1.3,1.2-2.7,1.7-4.3,1.7c-1.6,0-3-0.5-4.2-1.4
				c-1.2-0.9-1.8-2.7-1.8-5.3c0-2.4,0.6-4.2,1.9-5.4C296.3,906.5,297.7,905.9,299.3,905.9"/>
		</g>
	</g>
</g>
</svg>
