<?xml version="1.0" encoding="utf-8"?>
<!-- Generator: Adobe Illustrator 27.1.0, SVG Export Plug-In . SVG Version: 6.00 Build 0)  -->
<svg version="1.1" xmlns="http://www.w3.org/2000/svg" xmlns:xlink="http://www.w3.org/1999/xlink" x="0px" y="0px"
	 viewBox="0 0 417.6 199.2" style="enable-background:new 0 0 417.6 199.2;" xml:space="preserve">
<style type="text/css">
	.st0{fill:#FFFFFF;}
	.st1{fill:#C6236E;}
	.st2{fill:#B42065;}
	.st3{opacity:0.56;}
	.st4{fill:#FFFFFE;}
	.st5{fill:#231F20;}
	.st6{fill:#FFE4AF;}
	.st7{fill:#383838;}
	.st8{fill:#F9D398;}
	.st9{fill:#E7E7E7;}
	.st10{fill:none;stroke:#FFFFFF;stroke-width:3;stroke-miterlimit:10;}
	.st11{fill:#EDCAA0;}
	.st12{fill:#8E6240;}
	.st13{fill:#2A1D01;}
	.st14{fill:#A7846F;}
	.st15{fill:#A7713F;}
	.st16{fill:#885929;}
	.st17{fill:#9F6833;}
	.st18{fill:#744B20;}
	.st19{fill:#111111;}
	.st20{fill:#333333;}
	.st21{fill:#1E1E1E;}
	.st22{opacity:0.1;fill:#FFFFFF;}
	.st23{opacity:0.1;fill:#EAD7BC;}
	.st24{opacity:0.4;fill:#989898;}
	.st25{fill:#754B1D;}
	.st26{fill:#54340A;}
	.st27{fill:#EF5A24;}
</style>
<g id="Layer_1">
</g>
<g id="Layer_2">
</g>
<g id="Layer_3">
</g>
<g id="tekst">
</g>
<g id="Layer_5">
	<path class="st0" d="M226.5,77.2v5.2c-0.1,1.5-0.4,2.9-0.9,4.1c-0.5,1-1.2,2-2.2,2.8c-1,0.8-2.4,1.3-4.2,1.3s-3.3-0.5-4.3-1.3
		c-1-0.8-1.7-1.7-2.1-2.8c-0.6-1.2-0.9-2.5-0.9-4.1V60.3c0.1-1.5,0.4-2.9,0.9-4c0.5-1,1.1-2,2.1-2.8c1-0.8,2.4-1.3,4.3-1.3
		s3.2,0.5,4.2,1.3c1,0.8,1.7,1.8,2.2,2.8c0.6,1.2,0.9,2.5,0.9,4v5.2h-5.2v-5.2c0-1-0.3-1.7-0.8-2.3c-0.3-0.3-0.7-0.4-1.3-0.4
		c-1,0-1.4,0.7-1.7,1.4c-0.2,0.4-0.2,0.9-0.3,1.4v22.1c0.1,1.1,0.4,1.8,0.9,2.3c0.3,0.3,0.6,0.4,1.1,0.4c1.2,0,1.6-0.6,1.9-1.4
		c0.2-0.4,0.2-0.8,0.2-1.4v-5.2H226.5z"/>
	<path class="st0" d="M226.5,126.8v5.2c-0.1,1.5-0.4,2.9-0.9,4.1c-0.5,1-1.2,2-2.2,2.8c-1,0.8-2.4,1.3-4.2,1.3s-3.3-0.5-4.3-1.3
		c-1-0.8-1.7-1.7-2.1-2.8c-0.6-1.2-0.9-2.5-0.9-4.1v-22.1c0.1-1.5,0.4-2.9,0.9-4c0.5-1,1.1-2,2.1-2.8c1-0.8,2.4-1.3,4.3-1.3
		s3.2,0.5,4.2,1.3c1,0.8,1.7,1.8,2.2,2.8c0.6,1.2,0.9,2.5,0.9,4v5.2h-5.2v-5.2c0-1-0.3-1.7-0.8-2.3c-0.3-0.3-0.7-0.4-1.3-0.4
		c-1,0-1.4,0.7-1.7,1.4c-0.2,0.4-0.2,0.9-0.3,1.4V132c0.1,1.1,0.4,1.8,0.9,2.3c0.3,0.3,0.6,0.4,1.1,0.4c1.2,0,1.6-0.6,1.9-1.4
		c0.2-0.4,0.2-0.8,0.2-1.4v-5.2H226.5z"/>
	<path class="st0" d="M244.1,82.4c-0.1,1.5-0.4,2.9-0.9,4.1c-0.5,1-1.2,2-2.2,2.8c-1,0.8-2.4,1.3-4.2,1.3s-3.3-0.5-4.3-1.3
		c-1-0.8-1.7-1.7-2.1-2.8c-0.6-1.2-0.9-2.5-0.9-4.1V60.3c0.1-1.5,0.4-2.9,0.9-4c0.5-1,1.1-2,2.1-2.8c1-0.8,2.4-1.3,4.3-1.3
		s3.2,0.5,4.2,1.3c1,0.8,1.7,1.8,2.2,2.8c0.6,1.2,0.9,2.5,0.9,4V82.4z M238.6,60.3c0-1-0.2-1.7-0.7-2.3c-0.3-0.3-0.7-0.4-1.1-0.4
		c-1,0-1.4,0.7-1.6,1.4c-0.2,0.4-0.2,0.9-0.2,1.4v22.1c0,1.1,0.3,1.8,0.8,2.3c0.3,0.3,0.6,0.4,1.1,0.4c1,0,1.4-0.6,1.6-1.4
		c0.2-0.4,0.2-0.8,0.2-1.4V60.3z"/>
	<path class="st0" d="M257,90.1l-3.5-23.6l-0.2-1.6h-0.3v25.1h-5.1V52.6h6.7l3.3,17.1l0.3,2h0.1l0.3-2l3.3-17.1h6.7v37.5h-5.1V64.9
		H263l-0.2,1.6l-3.5,23.6H257z"/>
	<path class="st0" d="M281.6,90.1l-3.5-23.6l-0.2-1.6h-0.3v25.1h-5.1V52.6h6.7l3.3,17.1l0.3,2h0.1l0.3-2l3.3-17.1h6.7v37.5H288V64.9
		h-0.3l-0.2,1.6L284,90.1H281.6z"/>
	<path class="st0" d="M311.8,52.6v29.8c-0.1,1.5-0.4,2.9-0.9,4.1c-0.5,1-1.2,2-2.2,2.8c-1,0.8-2.4,1.3-4.2,1.3s-3.3-0.5-4.3-1.3
		c-1-0.8-1.7-1.7-2.1-2.8c-0.6-1.2-0.9-2.5-0.9-4.1V52.6h5.5v29.8c0,1.1,0.3,1.8,0.8,2.3c0.3,0.3,0.6,0.4,1.1,0.4
		c1,0,1.4-0.6,1.6-1.4c0.2-0.4,0.2-0.8,0.2-1.4V52.6H311.8z"/>
	<path class="st0" d="M321.7,70.5l-0.5-1.7h-0.3v21.3h-5V52.6h4.9l5.4,19.5l0.5,1.7h0.3V52.6h5v37.5H327L321.7,70.5z"/>
	<path class="st0" d="M336,52.6h5.5v37.5H336V52.6z"/>
	<path class="st0" d="M343.7,58.2v-5.7h15.9v5.7h-5.2v31.8h-5.5V58.2H343.7z"/>
	<path class="st0" d="M368.2,64.6l0.2,0.4h0.1l0.2-0.4l2.8-12h5.4l-5.6,21.5v16h-5.5v-16L360,52.6h5.4L368.2,64.6z"/>
	<g>
		<path class="st1" d="M139.2,27.8H81.9c-5.6,0-10.8,3-13.5,7.8L39.7,85.3c-2.8,4.8-2.8,10.8,0,15.6l28.7,49.6
			c2.8,4.8,8,7.8,13.5,7.8h57.3c5.6,0,10.8-3,13.5-7.8l28.7-49.6c2.8-4.8,2.8-10.8,0-15.6l-28.7-49.6
			C150,30.8,144.8,27.8,139.2,27.8z"/>
		<path class="st2" d="M152.1,151.6l17.3-30L57.9,53.8L39.4,85.9C37,90.1,37,95.8,39.4,100l29.8,51.6c2.4,4.2,6.8,6.7,11.6,6.7h59.6
			C145.3,158.4,149.7,155.8,152.1,151.6z"/>
		<g class="st3">
			<path class="st4" d="M51.2,124.3l-0.1-1.2l0.6-0.1c0,0,1-0.1,2.6-0.3l0.6-0.1l0.2,1.2l-0.6,0.1c-1.6,0.2-2.6,0.3-2.6,0.3
				L51.2,124.3z"/>
			<path class="st4" d="M59,123.2l-0.2-1.2l0.6-0.1c1.7-0.3,3.4-0.7,5-1.1l0.6-0.1l0.3,1.2l-0.6,0.1c-1.6,0.4-3.4,0.8-5.1,1.1
				L59,123.2z M69.1,120.6l-0.4-1.1l0.6-0.2c1.7-0.6,3.3-1.2,4.8-1.8l0.5-0.2l0.5,1.1l-0.5,0.2c-1.5,0.7-3.2,1.3-4.9,1.8L69.1,120.6
				z M78.8,116.5l-0.6-1l0.5-0.3c1.4-0.8,2.6-1.8,3.6-2.7l0.8-0.8l0.8,0.9l-0.8,0.8c-1.1,1-2.3,1.9-3.8,2.8L78.8,116.5z M86.9,109.8
				l-0.8-0.9l0.4-0.4c1-1,2.4-2.2,3.8-3.5l0.4-0.4l0.8,0.9l-0.4,0.4c-1.4,1.3-2.8,2.6-3.8,3.5L86.9,109.8z M94.5,102.8l-0.8-0.9
				l0.4-0.4c1.4-1.2,2.7-2.3,3.9-3.4l0.5-0.4l0.8,0.9L98.9,99c-1.3,1.1-2.5,2.2-3.9,3.4L94.5,102.8z M102.4,96.1l-0.7-0.9l0.5-0.4
				c1.4-1.1,2.8-2.2,4.1-3.2l0.5-0.4l0.7,1l-0.5,0.4c-1.3,1-2.7,2.1-4.1,3.2L102.4,96.1z M110.7,89.9l-0.7-1l0.5-0.3
				c1.5-1,3-2,4.4-2.8l0.5-0.3l0.6,1l-0.5,0.3c-1.4,0.9-2.9,1.8-4.3,2.8L110.7,89.9z M119.5,84.5l-0.5-1.1l0.5-0.3
				c1.5-0.8,3.1-1.4,4.9-2l0.6-0.2l0.4,1.1l-0.6,0.2c-1.7,0.6-3.3,1.2-4.7,2L119.5,84.5z M129,81l-0.3-1.2l0.6-0.1
				c1.5-0.4,3.2-0.7,5.1-1l0.6-0.1l0.2,1.2l-0.6,0.1c-1.9,0.3-3.5,0.7-5.1,1L129,81z M139.2,79.1l-0.2-1.2l1.4-0.2
				c1.5-0.2,2.9-0.4,4.3-0.7l0.6-0.1l0.2,1.2l-0.6,0.1c-1.4,0.2-2.9,0.5-4.4,0.7L139.2,79.1z M149.5,77.3l-0.3-1.2l0.6-0.1
				c1.9-0.4,3.5-0.9,4.9-1.5l0.6-0.2l0.4,1.1l-0.6,0.2c-1.5,0.6-3.1,1.1-5,1.5L149.5,77.3z M159.3,73.5l-0.7-1l0.5-0.3
				c0.4-0.3,0.9-0.6,1.3-1c1-0.8,1.9-1.6,2.7-2.3l0.5-0.4l0.8,0.9l-0.5,0.4c-0.8,0.7-1.7,1.5-2.7,2.3c-0.4,0.4-0.9,0.7-1.4,1.1
				L159.3,73.5z"/>
			<path class="st4" d="M167.3,66.9l-0.8-0.9l0.5-0.4c0.8-0.6,1.3-1.1,1.7-1.3c0.3-0.2,0.7-0.5,1.1-0.2c0.2,0.2,0.3,0.5,0.1,0.8
				l-0.3,0.5l-0.2-0.2c-0.2,0.2-0.7,0.5-1.6,1.3L167.3,66.9z"/>
		</g>
		<path class="st5" d="M151.6,152.5c-4.8-11.9-12.1-29.2-12.5-29.9c-1.2-2.3-20.1-7.4-21.8-10.4c-0.7-1.2-1-2.4-1-3.8
			c0-4.7,0-12.3,0-12.3h-7.9h-0.2h-1.1l-0.1,10.9l-2.7-7.6h-0.2h-7.9c0,0,0,7.6,0,12.3c0,1.3-0.4,2.6-1,3.8
			c-1.7,3-20.6,8.1-21.8,10.4c-0.2,0.5-5.1,9.6-9,17.5l4.8,8.2c1.7,3,4.5,5.2,7.7,6.1l4.6-12.4l2.3,13c0.1,0,0.1,0,0.2,0h46.1
			l-0.4-13.9l7.3,13.9c0.3,0,0.7,0,1,0h2.5C145,158.4,149.1,156.2,151.6,152.5z"/>
		<path d="M115.8,105.8c0.1,3,2,7.3-3.4,8c-6.6,0.9-15.8,1-17.4,2c0.6,0.1,1.4,0.2,2.4,0.2c5.7,0.3,22.8-2.1,21.1-2.7
			c-2.3-0.9-2.2-7.6-2.2-7.6H115.8z"/>
		<g>
			<g>
				<path class="st6" d="M183.4,61.5c0,5.7-4.6,10.3-10.3,10.3s-10.3-4.6-10.3-10.3s4.6-10.3,10.3-10.3S183.4,55.8,183.4,61.5"/>
				<path class="st7" d="M179.7,61.1H179c0-0.6-0.5-1.1-1.1-1.1c-0.6,0-1.1,0.5-1.1,1.1h-0.7c0-1,0.8-1.8,1.8-1.8
					C178.9,59.2,179.7,60.1,179.7,61.1"/>
				<path class="st7" d="M170.2,61.1h-0.7c0-0.6-0.5-1.1-1.1-1.1c-0.6,0-1.1,0.5-1.1,1.1h-0.7c0-1,0.8-1.8,1.8-1.8
					C169.4,59.2,170.2,60.1,170.2,61.1"/>
				<path class="st0" d="M179,64h-11.7c0.1,0.5,0.2,1,0.4,1.5h10.9C178.8,65,178.9,64.5,179,64"/>
				<path class="st1" d="M167.7,65.5c0.9,2.2,3,3.7,5.5,3.7s4.6-1.5,5.5-3.7H167.7z"/>
			</g>
		</g>
		<g>
			<g>
				<path class="st6" d="M142.3,77.4c0,5.7-4.6,10.3-10.3,10.3c-5.7,0-10.3-4.6-10.3-10.3c0-5.7,4.6-10.3,10.3-10.3
					C137.7,67.1,142.3,71.7,142.3,77.4"/>
				<path class="st7" d="M138.2,76c0,0.8-0.7,1.5-1.5,1.5c-0.8,0-1.5-0.7-1.5-1.5s0.7-1.5,1.5-1.5C137.6,74.5,138.2,75.2,138.2,76"
					/>
				<path class="st7" d="M128.7,76c0,0.8-0.7,1.5-1.5,1.5c-0.8,0-1.5-0.7-1.5-1.5s0.7-1.5,1.5-1.5C128,74.5,128.7,75.2,128.7,76"/>
				<path class="st8" d="M142.8,68.9c-0.3,0.1-0.4,0.5-0.3,0.7l0.2,0.3c0.1,0.3-0.1,0.6-0.4,0.5l-1.5-0.5l-1.7-0.6
					c-0.3-0.1-0.6,0.1-0.7,0.3c-0.1,0.3,0.1,0.6,0.3,0.7l1.7,0.6c0.2,0.1,0.3,0.3,0.2,0.5c-0.1,0.2-0.3,0.3-0.5,0.2l-2.6-0.9
					c-0.3-0.1-0.6,0.1-0.7,0.3c-0.1,0.3,0.1,0.6,0.3,0.7l2.6,0.9c0.2,0.1,0.3,0.3,0.2,0.5c-0.1,0.2-0.3,0.3-0.5,0.2l-1.7-0.6
					c-0.3-0.1-0.6,0.1-0.7,0.3c-0.1,0.3,0.1,0.6,0.3,0.7l1.7,0.6c0.2,0.1,0.3,0.3,0.2,0.5c-0.1,0.2-0.3,0.3-0.5,0.2l-1-0.4
					c-0.3-0.1-0.6,0.1-0.7,0.3c-0.1,0.3,0.1,0.6,0.3,0.7l1,0.4l1.7,0.6c1.2,0.4,2.4-0.2,2.8-1.4l1.1-3.3c0.2-0.6,0.1-1.2-0.1-1.7
					l-0.6-1.3C143.4,68.9,143.1,68.8,142.8,68.9"/>
				<path class="st1" d="M134.2,83c0,1-0.8,1.8-1.8,1.8c-1,0-1.8-0.8-1.8-1.8c0-1,0.8-1.8,1.8-1.8C133.4,81.2,134.2,82,134.2,83"/>
			</g>
			<polygon class="st9" points="132.6,84.1 136.4,86.8 134.1,88.5 			"/>
			<g>
				<path class="st9" d="M133.2,87.4c0.4-0.3,0.9-0.3,1.3,0c0.1-0.1,0.2-0.2,0.3-0.3c0.1-0.1,0.2-0.1,0.4-0.2c-0.2-0.4,0-1,0.3-1.3
					c0.5-0.4,1.2-0.3,1.5,0.2s0.3,1.2-0.2,1.5c0.5,0.6,0.4,1.6-0.3,2.1c-0.6,0.5-1.6,0.4-2.1-0.3c-0.5,0.4-1.2,0.3-1.5-0.2
					C132.6,88.4,132.7,87.7,133.2,87.4"/>
			</g>
			<polygon class="st0" points="132.5,83.8 136.3,86.4 134,88.2 			"/>
			<g>
				<path class="st0" d="M133.1,87c0.4-0.3,0.9-0.3,1.3,0c0.1-0.1,0.2-0.2,0.3-0.3c0.1-0.1,0.2-0.1,0.4-0.2c-0.2-0.4,0-1,0.3-1.3
					c0.5-0.4,1.2-0.3,1.5,0.2c0.4,0.5,0.3,1.2-0.2,1.5c0.5,0.6,0.4,1.6-0.3,2.1c-0.6,0.5-1.6,0.4-2.1-0.3c-0.5,0.4-1.2,0.3-1.5-0.2
					C132.5,88,132.6,87.4,133.1,87"/>
			</g>
		</g>
		<path class="st10" d="M97.6,125"/>
		<g>
			<path class="st11" d="M131,58.7c2.8,21.7-4.6,40.8-23.3,43.2c-18.7,2.4-31.4-14.3-34.2-36c-2.8-21.7,7.7-25.3,26.4-27.7
				C118.6,35.8,128.2,37,131,58.7z"/>
			<path class="st12" d="M96.8,76c0.4,3-1.8,5.7-4.8,6.1c-3,0.4-5.8-1.7-6.2-4.7c-0.4-3,1.8-5.7,4.8-6.1C93.7,70.9,96.4,73,96.8,76z
				"/>
			<path class="st13" d="M95.4,76.2c0.3,2.1-1.2,4-3.3,4.3c-2.1,0.3-4-1.2-4.3-3.3c-0.3-2.1,1.2-4,3.3-4.3
				C93.2,72.6,95.1,74.1,95.4,76.2z"/>
			<path class="st0" d="M89.8,74.9c0.1,0.6-0.3,1.2-1,1.2c-0.6,0.1-1.2-0.4-1.2-1s0.4-1.2,1-1.2C89.2,73.9,89.7,74.3,89.8,74.9z"/>
			<path class="st14" d="M95.1,90c3.6,1.6,7.3,2.4,10.9,1.9c3.6-0.5,6.9-2.3,10.1-4.6c-1.1,1.7-2.5,3.1-4.2,4.2
				c-1.7,1.1-3.7,1.9-5.7,2.2c-2.1,0.3-4.2,0.1-6.1-0.6C98.2,92.5,96.5,91.5,95.1,90z"/>
			<path class="st12" d="M111.5,74.1c0.4,3,3.1,5.1,6.2,4.7c3-0.4,5.2-3.1,4.8-6.1c-0.4-3-3.1-5.1-6.2-4.7
				C113.2,68.4,111.1,71.2,111.5,74.1z"/>
			<path class="st13" d="M112.9,74c0.3,2.1,2.2,3.6,4.3,3.3c2.1-0.3,3.6-2.2,3.3-4.3c-0.3-2.1-2.2-3.6-4.3-3.3
				C114.1,70,112.6,71.9,112.9,74z"/>
			<path class="st0" d="M112.8,72c0.1,0.6,0.6,1,1.2,1c0.6-0.1,1-0.6,1-1.2s-0.6-1-1.2-0.9C113.2,70.8,112.8,71.4,112.8,72z"/>
			<path class="st15" d="M89.2,45.2c0.1,0.4,0.1,0.8,0.2,1.2c0.1,0.4,0.2,0.8,0.3,1.1c0.1,0.4,0.3,0.7,0.5,1.1
				c0.2,0.3,0.4,0.7,0.7,0.9l-0.2,0l0.3-1.5l0.3-1.5l0.1-0.3l0.2,0.2l1.7,2.4l-0.2,0l0.8-2.7l0.1-0.2l0.1,0.2
				c0.4,0.6,0.9,1.2,1.3,1.8l-0.2,0l1-1.5l0.1-0.1l0.1,0.1l0.9,1l-0.1,0l0.9-0.8l0,0l0,0c0.1,0.1,0.2,0.3,0.4,0.4
				c0.1,0.1,0.3,0.2,0.5,0.3c-0.2-0.1-0.3-0.2-0.5-0.3c-0.2-0.1-0.3-0.2-0.4-0.4l0,0l-0.9,0.9l0,0l0,0l-0.9-1l0.1,0l-1,1.5l-0.1,0.1
				l-0.1-0.1c-0.5-0.6-0.9-1.2-1.4-1.8l0.2,0L93.5,49l-0.1,0.3l-0.2-0.2l-1.7-2.4l0.2,0l-0.4,1.5L91,49.6l0,0.2l-0.1-0.1
				c-0.6-0.6-0.9-1.3-1.2-2.1c-0.1-0.4-0.2-0.8-0.3-1.2C89.3,46,89.3,45.6,89.2,45.2z"/>
			<path class="st16" d="M125.9,50.8c2.4,6.6,5.2,15.4,3,25c-1.3,5.8-6.6,13.1-9.3,13.5c-1.8,0.3-5.2-6.5-14.8-5.3
				c-9.6,1.2-11.2,8.7-13,8.8c-2.8,0.3-11.7-5-13.3-10.6c-2.3-7.9-3.1-17.1-2.3-23.6c0,0-1,3.2-0.8,5.7c0.2,2.4-2,5.1,0.4,14.6
				c2.5,9.5,4,15.4,11.3,22.3c4.9,4.6,10,5.4,12.3,5.9c2.2,1.5,5.1,2.1,8.5,1.7c3.4-0.4,6.1-1.8,7.8-3.8c2.1-1.1,6.8-3.1,10.4-8.8
				c5.4-8.5,5.6-14.5,5.6-24.3c0-9.8-3-11.2-3.4-14.8C128,53.6,125.9,50.8,125.9,50.8z M106.2,94.7c-5.7,1-10.3-3.1-10.3-3.1
				s0.7-1.3,2.1-1.9c1.6-0.8,4.4,1.1,7.6,0.7c3.2-0.4,6.3-3.1,8-2.7c1.5,0.3,2.8,1.6,2.8,1.6S111.9,94.2,106.2,94.7z"/>
			<g>
				<path class="st17" d="M101.7,98.2c0,0,0.2,1.9,1.3,2.6l0.3-1.4c0,0,1.1,3.2,3.5,2.9c1.8-0.2,2.7-2.2,2.7-3.7
					c0,0,0.5,0.8,0.9,2.3c0,0,0.5-1.2,0.7-2.3c0,0,0.1-0.1,0.2,0.4c0,0,0.7-0.7,0.4-2.4c0,0-2.5-0.5-3.5-0.5c0,0,0.1,0.5-0.2,0.7
					s-0.5-0.1-0.5-0.1l0,1.1l-0.2-0.4c0,0-0.4,0.6-0.8,0.2c-0.4-0.3-0.6-1-0.6-1l0.2,0.8c0,0-0.6-0.2-0.9-1c0,0-0.9,0.3-1.9,0.9
					C102.3,98,101.7,98.2,101.7,98.2z"/>
				<g>
					<path class="st18" d="M101.7,98.7c0.3,0.9,0.9,1.9,1.8,2l-1.1,0.6c-0.1-0.6,0.1-3.2,0.1-3.9c0,0,1.7,2.9,1.7,2.9
						c0.5,0.8,1.4,2,2.4,1.9c1.1-0.1,1.7-0.7,1.9-1.8l1-5.6l1.3,5.3c0.2,0.9,0.3,1.7-0.2,2.6c0,0-1.3-1.2-1.3-1.2
						c1-0.4,1.5-1.5,1.7-2.5c0.4-0.2,0.4,0.3,0.3,0.6c0-0.1-0.2-0.4-0.2-0.3c0.1,0.1,0.2-0.1,0.2-0.1c0.2,0.6,0.3,1.3,0.2,2.1
						c-0.2,1.1-1,1.9-1.9,2.5c0,0-0.6-1.8-0.6-1.8c0-0.2-0.2-0.8-0.3-1.1c0,0,2.3-0.3,2.3-0.3c0.2,2.9-3.2,5.3-5.8,4
						c-1.4-0.7-2.2-2.1-2.6-3.6c0,0,1.8-0.2,1.8-0.2c-0.1,0.3-0.2,0.6-0.3,0.9l-0.3,1l-0.7-0.4C101.6,101.6,101.3,100,101.7,98.7
						L101.7,98.7z"/>
				</g>
			</g>
			<path class="st18" d="M121.2,99C121.2,99,121.2,99,121.2,99l-0.5-1.1c0,0-0.1,1.5-1,2.9c-0.9,1.4-4.7,3.3-4.7,3.3l-0.4-0.8
				c0,0-0.3,1.2-0.7,1.9c-0.4,0.7-1.3,0.8-1.3,0.8c0-2.3-0.4-3.3-0.4-3.3s0.1,2.2-0.6,3.4c-0.7,1.2-3.5,1.2-3.5,1.2l-0.5-1.7
				c0,1.5-1.3,2.5-3.1,1.6c-1.7-0.9-2.3-2.7-2.3-2.7c0.3,1.7,1.4,3.6,1.4,3.6c-2-0.1-2.7-2.1-2.7-2.1s-3.8-0.5-5.4-1.6l0.2,1
				c1.5,0.9,2.8,1.5,3.8,1.7c2.2,1.5,5.1,2.1,8.5,1.7c3.4-0.4,6.1-1.8,7.8-3.8c1.4-0.7,3.4-2.5,5.6-5.3L121.2,99z"/>
			<g>
				<path class="st18" d="M99,106.6l-2.3-1.1c0,0-0.3,0.3-1.5-0.3c-1.1-0.6-3.8-3.7-3.8-3.7L92,104c0,0-4.3-3-5-3.9
					c-0.7-0.9-2.6-2.4-2.7-3.2c-0.1-0.8-0.3-2-0.3-2l-0.6,0.5c0,0-1.7-1.1-1.8-2.1c-0.1-1-1.9-4.4-1.9-4.4l-1.2-2.5L78,86.5
					c1.8,5.4,4,9.8,9.2,14.6c4.7,4.4,9.6,5.4,12,5.9L99,106.6z"/>
				<path class="st18" d="M126.2,96.1c3-4.7,4.4-8.6,5-12.8l-1.9,3.1c0,0-1.5,6-2.4,6.7c-0.9,0.8-1.7,0.2-1.7,0.2l0.3,2.2l-2,1.9
					l-0.7-1.5l-0.2,2.4l-1.3,1.3l-5,4.9c0,0,0,0,0,0.1C118.6,103.6,122.9,101.4,126.2,96.1z"/>
			</g>
			<path class="st19" d="M127.9,65.8c-0.1,0-0.3,0-0.7,0l-0.2,0c-1.3,0-3.4,0-4.6,0.1c-2.1,0.1-5.1,0.3-7.3,0.7
				c-2,0.3-4.7,0.9-6.4,1.8c-1,0.6-1.7,1.4-2.1,2.3c-0.1-0.3-0.4-0.5-0.5-0.6c-0.4-0.3-1.7-0.6-2.9-0.4s-2.3,0.7-2.7,1.1
				c-0.1,0.1-0.3,0.4-0.3,0.7c-0.6-0.8-1.5-1.5-2.6-1.7c-1.9-0.5-4.7-0.4-6.7-0.2c-2.2,0.2-5.3,0.8-7.3,1.2
				c-1.2,0.2-3.3,0.8-4.5,1.1L78.8,72c-0.4,0.1-0.7,0.2-0.7,0.2c-0.3,0-0.2,0.7-0.2,1c0,0.2,0.4,2.3,0.5,2.5
				c0.1,0.2,0.5,0.2,0.7,0.1c0.2,0,1.1-0.2,1.4,0.4c0,0,0,0,0,0c0.4,1.5,1,3.2,1.7,4.6c1,1.9,2,3.1,3.1,3.5c0.6,0.2,1.5,0.3,2.7,0.3
				c1,0,2.2-0.1,3.6-0.3c0.1,0,0.2,0,0.3,0c2.3-0.3,4.5-0.7,5.1-0.8c1.4-0.3,3.1-1.8,3.5-3.7c0.3-1.3,0.5-3,0.6-5c0,0,0,0,0,0
				c0,0,0,0,0-0.1c0,0,0,0,0-0.1c0-0.6,0.2-1.8,0.2-2c0-0.3,0-1.4,2-1.7c1.9-0.2,2.2,0.8,2.3,1.1c0.1,0.2,0.5,1.3,0.7,1.9
				c0,0,0,0.1,0,0.1c0,0,0,0,0,0c0,0,0,0,0,0c0.6,1.9,1.2,3.5,1.8,4.7c0.9,1.7,3,2.7,4.3,2.6c0.6,0,2.8-0.2,5.1-0.5
				c0.1,0,0.2,0,0.3,0c1.4-0.2,2.6-0.4,3.6-0.6c1.3-0.3,2.1-0.6,2.6-1c0.9-0.7,1.6-2.1,2.1-4.2c0.3-1.5,0.5-3.3,0.5-4.9c0,0,0,0,0,0
				c0.2-0.6,1-0.7,1.2-0.7s0.6-0.1,0.7-0.3c0-0.2-0.1-2.3-0.2-2.6C128.3,66.5,128.2,65.8,127.9,65.8z M99.8,74.4
				c-0.1,2.1-0.3,3.8-0.6,5.1c-0.2,0.8-0.7,1.4-1.1,1.8c-0.5,0.5-1.1,0.8-1.4,0.8c-0.5,0.1-2.8,0.5-5.2,0.8c-2.9,0.4-5,0.4-5.7,0.1
				c-0.7-0.3-1.6-1.3-2.4-2.9c-0.7-1.3-1.3-3-1.6-4.4c-0.1-0.3-0.2-0.6-0.2-0.9c-0.2-0.8-0.3-1.3-0.2-1.6c0.2-0.4,1.1-0.7,2.6-1.2
				c1.7-0.4,3.7-0.8,5.7-1.1c0.4-0.1,0.9-0.1,1.3-0.2c2.7-0.3,4.9-0.2,6.2,0.1c1,0.3,1.6,0.9,1.9,1.4C99.6,73.1,99.8,73.8,99.8,74.4
				z M125.2,69.4c0,0.3,0,0.6,0,0.9c0,1.5-0.1,3.2-0.5,4.7c-0.4,1.7-0.9,2.9-1.6,3.4c-0.6,0.5-2.6,0.9-5.5,1.3
				c-2.4,0.3-4.7,0.5-5.2,0.5c-0.3,0-0.9-0.1-1.6-0.5c-0.5-0.3-1.1-0.7-1.5-1.5c-0.6-1.2-1.2-2.8-1.8-4.8c-0.2-0.6-0.1-1.4,0.1-2
				c0.2-0.6,0.6-1.3,1.5-1.8c1.2-0.7,3.3-1.3,6-1.7c0.4-0.1,0.9-0.1,1.3-0.2c2-0.3,4-0.4,5.8-0.4c1.6,0,2.5,0.2,2.8,0.5
				C125.2,68,125.2,68.5,125.2,69.4z"/>
			<path d="M107.2,71c0.2-0.6,0.7-1.3,1.6-1.8c1.2-0.7,3.5-1.3,6.2-1.7c0.4-0.1,0.9-0.1,1.4-0.2c2.1-0.3,4.2-0.4,6-0.4
				c1.6,0,2.8,0.2,3,0.6c0.5,0.8-0.3,4.9-0.3,4.9s0.1-2.7,0.1-3c0-0.9,0-1.4-0.2-1.6c-0.3-0.3-1.2-0.5-2.8-0.5
				c-1.7,0-3.8,0.1-5.8,0.4c-0.4,0.1-0.9,0.1-1.3,0.2c-2.7,0.4-4.8,1-6,1.7c-0.9,0.5-1.3,1.3-1.5,1.8c-0.3,0.7-0.2,1.4-0.1,2
				C107.5,73.4,106.9,71.7,107.2,71z"/>
			<g>
				<path class="st20" d="M126.9,66.1c0.4,0,0.9,0,0.9,0c0.1,0,0.1,0.1,0.1,0.1c0,0.1-0.1,0.1-0.1,0.1c0,0-0.5,0-0.9,0L126.9,66.1z"
					/>
				<path class="st20" d="M107.6,69.3c0.7-0.8,2.2-1.4,5-2.1c2.3-0.5,6.6-1,8.9-1.1c1.3-0.1,4.1-0.1,5.5-0.1l0,0.3
					c-1.4,0-4.2,0-5.5,0.1c-2.3,0.1-6.6,0.4-8.9,1c-1.8,0.4-4.1,1-4.9,2c0,0-0.1,0.1-0.2,0.1C107.4,69.4,107.5,69.4,107.6,69.3z"/>
			</g>
			<g>
				<path class="st21" d="M125.3,74.5c0-0.1-0.1,0-0.1,0.1c-0.6,3.1-1.6,4.1-1.6,4.2C123.6,78.8,125.1,77.6,125.3,74.5z"/>
			</g>
			<g>
				<path d="M110.8,79.6c0.7,0.4,1.3,0.5,1.6,0.5c0.5,0,2.9-0.2,5.3-0.5c2.9-0.4,4.9-0.9,5.5-1.3c0.5-0.4,1.2-1.8,1.6-3.5
					c0.1-0.6,0.2-1.2,0.3-1.8c-0.1,0.9-0.2,1.7-0.4,2.5c-0.4,1.7-0.9,2.9-1.5,3.4c-0.6,0.5-2.6,0.9-5.5,1.3
					c-2.4,0.3-4.7,0.4-5.2,0.5c-0.3,0-0.9,0-1.6-0.4c-0.5-0.3-1.1-0.7-1.5-1.5c-0.4-0.9-0.8-1.9-1.2-3.2c0.4,1,0.7,1.9,1.1,2.6
					C109.7,78.9,110.3,79.4,110.8,79.6z"/>
			</g>
			<g>
				<path class="st21" d="M112.5,80.9C112.5,80.9,112.5,80.8,112.5,80.9c0.1-0.1,0-0.1,0-0.1c-1.4,0-1.9-0.5-2.6-1.2
					c-0.7-0.7-1.3-2.6-1.3-2.6c0,0,0.5,2,1.2,2.7C110.5,80.3,111.1,80.8,112.5,80.9C112.5,80.9,112.5,80.9,112.5,80.9z"/>
			</g>
			<path class="st22" d="M109,73.4c0,0-0.7-1.8,0.3-2.7c0.2-0.2,1.7-1.5,7.4-2l-3.3,1.8c0,0-0.7-0.3-1.4-0.1
				c-0.7,0.3-1.6,0.6-1.3,1.1c0.3,0.5,0.5,0.5,0,0.9S109,73.4,109,73.4z"/>
			<path class="st23" d="M123.6,71.1l-11,7.6c0,0,9.2-0.4,10.2-2.5C123.9,73.8,123.6,71.1,123.6,71.1z"/>
			<path class="st22" d="M83.7,76.9c0,0-0.8-2.4-0.7-2.9c0.1-0.3,2.5-1.1,8.8-2.1l-3.3,1.8c0,0-0.7-0.3-1.4-0.1s-1.6,0.6-1.3,1.1
				c0.3,0.5,0.5,0.5,0,0.9S83.7,76.9,83.7,76.9z"/>
			<path d="M99.4,72c-0.3-0.5-1-1.1-2-1.4c-1.4-0.3-3.7-0.4-6.5-0.1c-0.5,0-0.9,0.1-1.4,0.2c-2.1,0.3-4.2,0.7-5.9,1.1
				c-1.6,0.4-2.7,0.9-2.8,1.3c-0.2,0.9,1.5,4.7,1.5,4.7s-0.8-2.6-0.8-2.9c-0.2-0.8-0.3-1.3-0.2-1.6c0.2-0.4,1.1-0.7,2.6-1.2
				c1.7-0.4,3.7-0.8,5.7-1.1c0.4-0.1,0.9-0.1,1.3-0.2c2.7-0.3,4.9-0.2,6.2,0.1c1,0.3,1.6,0.9,1.9,1.4c0.4,0.6,0.5,1.3,0.6,2
				C99.8,74.4,99.9,72.6,99.4,72z"/>
			<path class="st23" d="M98.4,74.6l-11,7.6c0,0,9.2-0.4,10.2-2.5C98.7,77.4,98.4,74.6,98.4,74.6z"/>
			<g>
				<path class="st20" d="M79.2,72.2c-0.3,0.1-0.9,0.2-0.9,0.2c-0.1,0-0.1,0.1-0.1,0.2s0.1,0.1,0.2,0.1c0,0,0.5-0.1,0.9-0.2
					L79.2,72.2z"/>
				<path class="st20" d="M98.7,70.5c-0.9-0.6-2.5-0.8-5.3-0.8c-2.3,0.1-6.6,0.7-8.9,1.2c-1.3,0.3-4,1-5.4,1.3l0,0.3
					c1.3-0.3,4.1-1,5.4-1.3c2.3-0.5,6.5-1.2,8.8-1.3C95.2,69.8,97.5,69.8,98.7,70.5c-0.1,0.1,0.1,0.2,0.1,0.1
					C98.8,70.6,98.7,70.5,98.7,70.5z"/>
			</g>
			<g>
				<path d="M98.2,81.2c-0.6,0.5-1.1,0.8-1.4,0.9c-0.5,0.1-2.8,0.5-5.3,0.8c-2.9,0.4-5,0.4-5.6,0.1c-0.6-0.3-1.6-1.4-2.5-3
					c-0.3-0.5-0.5-1.1-0.8-1.7c0.3,0.8,0.6,1.6,1,2.3c0.8,1.6,1.6,2.6,2.3,2.9c0.7,0.3,2.8,0.3,5.7-0.1c2.4-0.3,4.7-0.8,5.2-0.9
					c0.3-0.1,0.9-0.3,1.4-0.8c0.4-0.4,0.9-1,1.1-1.8c0.2-0.9,0.3-2,0.4-3.4c-0.1,1.1-0.2,2-0.4,2.8C99,80.3,98.6,80.9,98.2,81.2z"/>
			</g>
			<g>
				<path class="st21" d="M96.8,82.9C96.8,82.9,96.8,82.9,96.8,82.9c-0.1-0.1-0.1-0.1,0-0.1c1.3-0.4,1.7-1,2.2-1.8
					c0.5-0.8,0.6-2.8,0.6-2.9c0,0,0,2.1-0.5,2.9C98.6,81.9,98.2,82.5,96.8,82.9C96.8,82.9,96.8,82.9,96.8,82.9z"/>
			</g>
			<g>
				<path class="st20" d="M100.8,71C100.8,71,100.7,71,100.8,71c0,0,0.5-0.8,2.2-1.1c1.7-0.2,2.5,0.3,2.6,0.3c0,0,0,0.1,0,0.1
					c0,0-0.1,0-0.3-0.1c-0.2-0.1-0.7-0.3-2.2-0.1c-1.5,0.2-1.9,0.7-2,0.8C100.9,70.9,100.8,71,100.8,71z"/>
			</g>
			<ellipse transform="matrix(0.8068 -0.5908 0.5908 0.8068 -22.4217 73.4165)" class="st24" cx="101" cy="71" rx="0.5" ry="0.3"/>
			<g>
				<path class="st21" d="M82.8,79.9c0-0.1,0.1,0,0.2,0.1c1.4,2.9,2.6,3.5,2.6,3.6C85.6,83.7,83.8,82.9,82.8,79.9z"/>
			</g>
			<path class="st25" d="M123,39.2c-11.3-6.3-32.8-3-43.3,4c-11.7,7.9-6.2,27.1-3.2,35.6c0,0,0-16.9,5.2-20
				c5.1-3.1,9.1-4.8,19.4-6.1c10.3-1.3,14.6-0.7,20.3,1s10.1,18.1,10.1,18.1C132.2,62.8,131.7,44.1,123,39.2z"/>
			<path class="st26" d="M123.7,52.8c-1.1-1.2-3.3-2-6.1-2.5c-0.6-0.1-1.3-0.2-2-0.3c-0.3,0-0.7-0.1-1-0.1c-0.3,0-0.6,0-0.9-0.1
				c-0.4,0-0.8,0-1.2-0.1c-3.9-0.1-8.4,0.2-12.4,0.7c-0.5,0.1-1.6-0.1-1.6-0.1L96.9,51l-1.5-0.1l-1,0.6l-1.3-0.3l-0.9,0.9L90.4,51
				c0,0,0.1,1.5-0.2,1.7c-5.4,1.7-9.8,3.9-10.7,5.7c-0.6,1.2-2.1,5.8-2.1,5.8L76.6,65l0.4,1.1l-0.4,0.9c0,0,0.1,3.1,0.1,3.6
				c0,0.8,0,1.6,0.1,2.2c0.5-5.2,1.8-12,4.9-13.9c5.1-3.1,9.1-4.8,19.4-6.1c10.3-1.3,14.6-0.7,20.3,1c3.7,1.1,6.8,8.2,8.6,13.2
				C129.2,62.3,126.4,55.7,123.7,52.8z"/>
			<path class="st26" d="M86.3,56.4l-0.1,0c0,0-0.1,0-0.1,0l-0.1,0l-0.1,0l-0.1,0c-0.1,0-0.2,0-0.3-0.1c-0.1,0-0.2-0.1-0.3-0.1
				L84.9,56c-0.3-0.2-0.6-0.4-0.9-0.6l-0.2-0.2l-0.2-0.2l-0.3-0.4c-0.2-0.3-0.4-0.5-0.5-0.8c-0.6-1-1-2.1-1.3-3.1
				c-0.1-0.5-0.3-1-0.4-1.6c-0.1-0.5-0.2-1.1-0.3-1.6c-0.2-1.1-0.3-2.1-0.4-3.2c0.3,1,0.6,2,1,3c0.2,0.5,0.4,1,0.6,1.5
				c0.2,0.5,0.4,0.9,0.7,1.4c0.5,0.9,1,1.8,1.7,2.5c0.2,0.2,0.3,0.3,0.5,0.5l0.3,0.2l0.1,0.1l0.1,0.1c0.2,0.1,0.3,0.2,0.5,0.2
				c0,0,0.1,0,0.1,0l0.1,0c0,0,0,0,0,0c0,0,0,0,0,0c0,0,0,0,0,0c0,0,0,0,0,0l0,0c0,0,0,0-0.1,0c0.7-0.1,1.3,0.4,1.4,1
				C87.5,55.6,87,56.3,86.3,56.4z"/>
			<path class="st26" d="M88.1,55.2c0,0-0.1,0-0.1,0l-0.1,0c0,0-0.1,0-0.1,0c-0.1,0-0.2-0.1-0.2-0.1c-0.1-0.1-0.3-0.1-0.4-0.2
				c-0.1-0.1-0.2-0.2-0.3-0.2c-0.1-0.1-0.2-0.2-0.3-0.3l-0.2-0.3l-0.2-0.3c-0.1-0.2-0.2-0.4-0.4-0.6c-0.4-0.8-0.7-1.6-0.9-2.4
				c-0.2-0.8-0.4-1.6-0.5-2.4c0-0.4-0.1-0.8-0.1-1.2l-0.1-1.2l0.3,1.1c0.1,0.4,0.2,0.8,0.4,1.1c0.3,0.7,0.6,1.5,0.9,2.2
				c0.4,0.7,0.7,1.3,1.2,1.9c0.1,0.1,0.2,0.3,0.4,0.4l0.2,0.2l0.2,0.1c0.1,0.1,0.1,0.1,0.2,0.1c0.1,0,0.1,0.1,0.2,0.1
				c0.1,0,0.1,0,0.2,0.1c0,0,0,0,0.1,0c0,0,0,0,0,0l0,0c0,0,0,0-0.1,0L88.1,55.2z"/>
			<path class="st26" d="M90,54.6c-0.1,0-0.1-0.1-0.2-0.1c-0.1,0-0.1-0.1-0.1-0.1c-0.1-0.1-0.2-0.1-0.3-0.2
				c-0.2-0.1-0.3-0.3-0.4-0.4c-0.1-0.1-0.2-0.3-0.4-0.4c-0.1-0.1-0.2-0.3-0.3-0.4c-0.4-0.6-0.6-1.3-0.7-1.9c-0.1-0.3-0.1-0.6-0.1-1
				c0-0.3,0-0.6,0-0.9c0-0.3,0-0.6,0-0.9l0.1-0.9l0.1,0.9c0.1,0.3,0.1,0.6,0.2,0.9c0.1,0.3,0.2,0.6,0.3,0.8c0.1,0.3,0.2,0.5,0.4,0.8
				c0.3,0.5,0.6,1,1,1.3c0.1,0.1,0.2,0.2,0.3,0.2c0.1,0.1,0.2,0.1,0.3,0.2c0.1,0.1,0.2,0.1,0.3,0.1c0,0,0.1,0,0.1,0c0,0,0,0,0.1,0
				c0,0,0.1,0,0,0L90,54.6z"/>
			<path class="st26" d="M120.6,51.1C120.6,51.1,120.7,51,120.6,51.1C120.7,51,120.7,51,120.6,51.1c0.1-0.1,0.2-0.2,0.2-0.2
				c0.1-0.1,0.1-0.2,0.2-0.3c0.1-0.2,0.3-0.5,0.4-0.7c0.2-0.5,0.4-1,0.5-1.6c0.1-0.6,0.2-1.1,0.2-1.7c0-0.3,0-0.6,0-0.9
				c0-0.3,0-0.6-0.1-0.9c0.1,0.3,0.2,0.6,0.3,0.9c0.1,0.3,0.2,0.6,0.2,0.9c0.1,0.6,0.2,1.2,0.3,1.8c0,0.6,0,1.3-0.1,1.9
				c0,0.3-0.1,0.7-0.2,1c0,0.2-0.1,0.3-0.2,0.5c0,0.1-0.1,0.2-0.1,0.3c0,0,0,0.1-0.1,0.1c0,0.1,0,0.1-0.1,0.2L120.6,51.1z"/>
			<path class="st26" d="M118.7,51.1c0,0,0.1-0.2,0.2-0.2c0.1-0.1,0.1-0.2,0.2-0.3c0.1-0.2,0.2-0.4,0.3-0.6c0.2-0.4,0.4-0.9,0.5-1.3
				c0.1-0.5,0.3-0.9,0.4-1.4c0.1-0.5,0.2-1,0.2-1.5c0.1,0.5,0.2,1,0.3,1.5c0.1,0.5,0.1,1,0.1,1.5c0,0.5,0,1-0.1,1.6
				c0,0.3-0.1,0.5-0.1,0.8c0,0.1-0.1,0.3-0.1,0.4c0,0.1-0.1,0.3-0.1,0.4L118.7,51.1z"/>
			<path class="st26" d="M127.1,58.7C127,58.7,127.1,58.7,127.1,58.7C127.1,58.7,127.1,58.7,127.1,58.7c0.1,0,0.1,0,0.2,0
				c0.1,0,0.2,0,0.3-0.1c0.1,0,0.2-0.1,0.3-0.1c0.1-0.1,0.2-0.1,0.3-0.2c0.3-0.3,0.7-0.6,0.9-1c0.1-0.2,0.3-0.4,0.4-0.6
				c0.1-0.2,0.2-0.5,0.3-0.7c0.1-0.2,0.2-0.5,0.3-0.7l0.2-0.8l0,0.8c0,0.3,0,0.5,0,0.8c0,0.3-0.1,0.5-0.1,0.8
				c-0.1,0.3-0.1,0.5-0.2,0.8c-0.2,0.5-0.4,1.1-0.7,1.6c-0.1,0.1-0.2,0.2-0.3,0.4c-0.1,0.1-0.2,0.2-0.3,0.3
				c-0.1,0.1-0.3,0.2-0.4,0.3c-0.1,0-0.1,0.1-0.2,0.1c0,0-0.1,0-0.1,0.1c-0.1,0-0.1,0-0.2,0.1L127.1,58.7z"/>
			<polygon class="st25" points="80.2,43.2 80.6,38.8 82,40.4 85,37.3 85.3,39.5 88.9,36.2 89.5,37.7 91.9,36.6 92,37.7 96.8,34.6 
				97.3,36.7 98.9,34.9 99.6,36.3 107,34 107.1,35 110.9,34.9 111,35.6 112.9,35.4 113,36.3 118.3,35.4 119.7,37.9 120.5,38 
				120.6,38.7 126.9,44.7 128.2,43.4 128.5,45.7 129.3,45.6 129.5,48.7 130.2,48.6 130.7,53.6 125.5,45.5 119.4,41.3 105.5,37.6 
				90.7,42.2 			"/>
			<path class="st25" d="M79.6,46.4c0,0-0.5-2.3-2-3.5l-0.1,2.2L76.2,45l-0.1,1.6l-0.8,0.3l-0.1,0.9l0.5,9.6l3.8-10.7L79.6,46.4z"/>
			<polygon class="st26" points="79.1,60.5 76.8,58 80,59.2 			"/>
			<polygon class="st26" points="78.6,62.1 76.6,60.5 79.2,60.5 			"/>
			<path class="st15" d="M99.2,46.8c-0.1-0.1-0.1-0.1-0.2-0.2c0-0.1-0.1-0.1-0.1-0.2l-0.1-0.2l-0.2,0.1c-0.3,0.2-0.5,0.3-0.8,0.5
				c-0.2-0.3-0.4-0.6-0.6-0.9l-0.3-0.4l-0.4,0.4c-0.2,0.2-0.5,0.5-0.7,0.7c-0.2-0.4-0.5-0.9-0.7-1.3l-0.6-1.1l-0.5,1.2
				c-0.2,0.4-0.4,0.9-0.6,1.3c-0.3-0.5-0.5-0.9-0.8-1.4l-0.8-1.2l-0.4,1.3c-0.2,0.5-0.3,1-0.4,1.5c0,0.2-0.1,0.3-0.1,0.5
				c0,0,0,0,0,0c-0.2-0.3-0.3-0.7-0.4-1.1c-0.1-0.4-0.2-0.7-0.3-1.1C90,44.8,90,44.4,89.9,44c-0.1,0.4-0.1,0.8-0.1,1.2
				c0,0.4,0,0.8,0.1,1.2c0.1,0.4,0.1,0.8,0.3,1.2c0.1,0.4,0.3,0.8,0.6,1.2l0.5,0.7l0.3-0.8c0.2-0.5,0.4-1,0.6-1.4c0,0,0-0.1,0-0.1
				c0.3,0.5,0.5,0.9,0.8,1.4l0.7,1.2l0.5-1.3c0.2-0.5,0.4-1,0.6-1.5c0.2,0.3,0.3,0.5,0.5,0.8l0.5,0.7l0.4-0.6
				c0.3-0.4,0.5-0.7,0.8-1.1c0.2,0.2,0.4,0.4,0.5,0.6l0.2,0.2l0.2-0.2c0.3-0.3,0.5-0.5,0.8-0.8c0,0,0.1,0,0.1,0.1
				c0.1,0.1,0.2,0.1,0.2,0.2c0.2,0.1,0.3,0.2,0.5,0.3C99.5,47,99.4,46.9,99.2,46.8z"/>
			<path class="st15" d="M80.9,54.2c-0.2-0.1-0.4-0.5-0.6-0.8c-0.2-0.3-0.4-0.7-0.5-1l-0.5-1.1c-0.2-0.4-0.3-0.7-0.5-1.1
				c0,0.4,0,0.8,0.1,1.3c0,0.4,0.1,0.8,0.2,1.2c0.1,0.3,0.2,0.5,0.3,0.8c-0.1,0-0.2-0.1-0.3-0.1l-0.1,0c-0.1-0.1-0.3-0.1-0.5,0
				c-0.3,0.1-0.4,0.4-0.2,0.7c0.1,0.2,0.2,0.3,0.3,0.5c0.1,0.2,0.2,0.3,0.3,0.5c0.1,0.2,0.3,0.4,0.5,0.6c-0.1,0-0.1,0-0.2,0
				c-0.1,0-0.2,0-0.4,0c-0.1,0-0.3,0-0.4-0.1c0.2,0.2,0.4,0.3,0.7,0.4c0.1,0,0.3,0.1,0.4,0.1c0.1,0,0.2,0,0.2,0c0.1,0,0.2,0,0.3-0.1
				c0,0,0,0,0,0c0.1-0.1,0.2-0.2,0.1-0.4l0-0.1c-0.1-0.2-0.2-0.4-0.3-0.6c0,0,0.1,0,0.1,0.1c0.2,0.1,0.3,0.1,0.5,0.2l0,0
				c0.2,0.1,0.5,0,0.6-0.2C81.2,54.7,81.2,54.4,80.9,54.2z"/>
			<path class="st15" d="M128.1,48.9c-0.1,0-0.1,0-0.2,0c0-0.5-0.1-0.9-0.1-1.4l-0.1-1l-0.4,0.6c0-0.2-0.1-0.5-0.1-0.7
				c-0.1-0.3-0.1-0.6-0.2-0.9c-0.1-0.3-0.2-0.6-0.4-0.9l-0.3-0.4l-0.3,0.3l-0.2,0.2c0,0,0-0.1-0.1-0.1c-0.1-0.2-0.2-0.3-0.3-0.5
				c-0.1-0.2-0.2-0.3-0.4-0.5c-0.1-0.2-0.3-0.3-0.4-0.4c0.1,0.2,0.2,0.3,0.3,0.5c0.1,0.2,0.1,0.4,0.2,0.5l0.2,0.5l0.2,0.5l0.1,0.4
				l0.4-0.3l0.1-0.1c0,0.1,0.1,0.2,0.1,0.3c0.1,0.3,0.1,0.5,0.2,0.8c0.1,0.5,0.2,1.1,0.3,1.7l0.2,1.1l0.4-0.7c0,0.2,0.1,0.4,0.1,0.6
				l0.1,0.3l0.3-0.1c0.1,0,0.2,0,0.2-0.1c0.1,0.5,0.2,1,0.4,1.5c0-0.6,0-1.2,0-1.8l0-0.2L128.1,48.9z"/>
		</g>
		<g>
			<g>
				<path class="st27" d="M66.9,119.7c0,5.6-4.6,10.2-10.2,10.2s-10.2-4.6-10.2-10.2s4.6-10.2,10.2-10.2S66.9,114,66.9,119.7"/>
			</g>
			
				<rect x="59.3" y="115.3" transform="matrix(0.8518 -0.5239 0.5239 0.8518 -51.4392 49.4851)" class="st7" width="4.9" height="0.7"/>
			
				<rect x="51.1" y="113.2" transform="matrix(0.5557 -0.8314 0.8314 0.5557 -73.27 94.2181)" class="st7" width="0.7" height="4.9"/>
			<g>
				<path class="st7" d="M62.8,118.6c0,0.8-0.7,1.5-1.5,1.5c-0.8,0-1.5-0.7-1.5-1.5s0.7-1.5,1.5-1.5
					C62.2,117.1,62.8,117.8,62.8,118.6"/>
				<path class="st7" d="M53.3,118.6c0,0.8-0.7,1.5-1.5,1.5c-0.8,0-1.5-0.7-1.5-1.5s0.7-1.5,1.5-1.5
					C52.7,117.1,53.3,117.8,53.3,118.6"/>
				<path class="st7" d="M65,127.7H48.4c-0.4,0-0.7-0.3-0.7-0.7v-4.6c0-0.4,0.3-0.7,0.7-0.7H65c0.4,0,0.7,0.3,0.7,0.7v4.6
					C65.7,127.4,65.4,127.7,65,127.7"/>
				<path class="st0" d="M51.7,126.1c-0.4,0-0.7-0.1-0.9-0.2c-0.2-0.1-0.3-0.3-0.3-0.6c0-0.1,0.1-0.3,0.2-0.4
					c0.1-0.1,0.3-0.2,0.5-0.3v0c-0.2,0-0.3-0.1-0.4-0.2c-0.1-0.1-0.1-0.2-0.1-0.4c0-0.2,0.1-0.4,0.3-0.6c0.2-0.2,0.4-0.2,0.7-0.2
					c0.1,0,0.2,0,0.3,0c0.1,0,0.2,0,0.2,0.1l0,0.5c-0.1,0-0.2,0-0.2,0c-0.1,0-0.2,0-0.3,0c-0.1,0-0.2,0-0.3,0.1
					c-0.1,0.1-0.1,0.1-0.1,0.2c0,0.1,0.1,0.2,0.2,0.3c0.1,0.1,0.3,0.1,0.5,0.1h0.1v0.5h-0.2c-0.2,0-0.4,0-0.5,0.1
					c-0.1,0.1-0.2,0.2-0.2,0.3c0,0.1,0,0.2,0.1,0.3c0.1,0.1,0.3,0.1,0.5,0.1c0.2,0,0.4-0.1,0.6-0.3c0.2-0.2,0.2-0.4,0.2-0.7h-0.3
					v-0.4h1.1v0.4h-0.3c0,0.5-0.1,0.8-0.4,1.1C52.5,126,52.2,126.1,51.7,126.1"/>
				<path class="st0" d="M54.4,126.6v-0.4h0c-0.1,0-0.3,0-0.4,0c-0.1,0-0.2,0-0.4,0v-0.5c0.1,0,0.3,0,0.4,0.1c0.1,0,0.2,0,0.4,0
					c0.2,0,0.3,0,0.4-0.1c0.1-0.1,0.2-0.2,0.2-0.2c0-0.1,0-0.2-0.1-0.2c-0.1-0.1-0.2-0.1-0.3-0.2l-0.4-0.1c-0.2-0.1-0.3-0.1-0.4-0.3
					c-0.1-0.1-0.1-0.3-0.1-0.5c0-0.2,0.1-0.4,0.2-0.5c0.1-0.1,0.3-0.2,0.6-0.3v-0.5h0.4v0.4c0.1,0,0.2,0,0.3,0c0.1,0,0.2,0,0.3,0
					l0,0.5c-0.1,0-0.2,0-0.3,0c-0.1,0-0.2,0-0.3,0c-0.2,0-0.3,0-0.4,0.1c-0.1,0.1-0.1,0.1-0.1,0.2c0,0.1,0,0.2,0.1,0.2
					c0.1,0.1,0.1,0.1,0.3,0.1l0.4,0.1c0.2,0.1,0.4,0.2,0.5,0.3c0.1,0.1,0.1,0.3,0.1,0.5c0,0.2-0.1,0.4-0.2,0.6
					c-0.1,0.2-0.3,0.3-0.6,0.3v0.5H54.4z"/>
				<path class="st0" d="M56.2,123.3l0.6,0l-0.1,1.3v0.6l-0.6,0V123.3z M56.1,125.8c0-0.1,0-0.2,0.1-0.3c0.1-0.1,0.1-0.1,0.3-0.1
					c0.1,0,0.2,0,0.3,0.1c0.1,0.1,0.1,0.2,0.1,0.3c0,0.1,0,0.2-0.1,0.3c-0.1,0.1-0.1,0.1-0.3,0.1c-0.1,0-0.2,0-0.3-0.1
					C56.1,126,56.1,125.9,56.1,125.8"/>
			</g>
			<path class="st0" d="M58.3,124.3l-0.1,0.7h0.5l0.1-0.7H58.3z M57.4,124.3l0-0.4h0.5l0.1-0.7h0.4l-0.1,0.7h0.5l0.1-0.7h0.4
				l-0.1,0.7h0.5l0,0.4h-0.5l-0.1,0.7h0.5l0,0.4h-0.5l-0.1,0.7h-0.4l0.1-0.7h-0.5l-0.1,0.7h-0.4l0.1-0.7h-0.5l0-0.4h0.5l0.1-0.7
				H57.4z"/>
			<g>
				<path class="st0" d="M62.6,124.9c-0.1,0-0.1,0-0.2,0.1c-0.1,0.1-0.1,0.2-0.1,0.4c0,0.2,0,0.3,0.1,0.4c0,0.1,0.1,0.1,0.2,0.1
					c0.1,0,0.1,0,0.2-0.1c0.1-0.1,0.1-0.2,0.1-0.3c0-0.2,0-0.3-0.1-0.4C62.8,124.9,62.7,124.9,62.6,124.9 M62.6,124.5
					c0.2,0,0.4,0.1,0.5,0.2c0.1,0.1,0.2,0.3,0.2,0.6c0,0.3-0.1,0.5-0.2,0.6c-0.2,0.1-0.3,0.2-0.5,0.2c-0.2,0-0.4-0.1-0.5-0.2
					c-0.1-0.1-0.2-0.3-0.2-0.6c0-0.3,0.1-0.5,0.2-0.6C62.3,124.6,62.5,124.5,62.6,124.5 M62.1,123.1l0.4,0.1l-1.2,3l-0.4-0.1
					L62.1,123.1z M60.7,123.6c-0.1,0-0.1,0-0.2,0.1c-0.1,0.1-0.1,0.2-0.1,0.4c0,0.2,0,0.3,0.1,0.4s0.1,0.1,0.2,0.1
					c0.1,0,0.1,0,0.2-0.1c0.1-0.1,0.1-0.2,0.1-0.3c0-0.2,0-0.3-0.1-0.4C60.8,123.6,60.8,123.6,60.7,123.6 M60.7,123.2
					c0.2,0,0.4,0.1,0.5,0.2c0.1,0.1,0.2,0.3,0.2,0.6c0,0.3-0.1,0.5-0.2,0.6c-0.2,0.1-0.3,0.2-0.5,0.2c-0.2,0-0.4-0.1-0.5-0.2
					c-0.1-0.1-0.2-0.3-0.2-0.6c0-0.3,0.1-0.5,0.2-0.6C60.3,123.3,60.5,123.2,60.7,123.2"/>
			</g>
		</g>
	</g>
	<path class="st0" d="M234,140.1h-5.4l6.1-19.7l-6-17.8h5.4l3,9.5l0.2,0.5h0.2l0.2-0.5l3-9.5h5.4l-6,17.8l6.1,19.7h-5.4l-3.2-11.2
		l-0.1-0.5h-0.2l-0.1,0.5L234,140.1z"/>
</g>
</svg>
